<?xml version="1.0" encoding="UTF-8" standalone="no"?>
<!DOCTYPE svg PUBLIC "-//W3C//DTD SVG 1.1//EN" "http://www.w3.org/Graphics/SVG/1.1/DTD/svg11.dtd">
<svg width="100%" height="100%" viewBox="0 0 43 44" version="1.1" xmlns="http://www.w3.org/2000/svg" xmlns:xlink="http://www.w3.org/1999/xlink" xml:space="preserve" xmlns:serif="http://www.serif.com/" style="fill-rule:evenodd;clip-rule:evenodd;stroke-linejoin:round;stroke-miterlimit:2;">
    <g transform="matrix(1,0,0,1,-304,-349)">
        <g transform="matrix(1,0,0,1,-203.488,-3.63372)">
            <path d="M547.332,371.636C543.817,368.121 538.119,368.121 534.604,371.636L530.741,375.499C531.71,372.034 533.688,370.258 535.332,368.614C538.847,365.1 538.847,359.4 535.332,355.887C533.58,354.135 531.286,353.256 528.99,353.25L528.946,353.25C526.65,353.256 524.356,354.135 522.604,355.887C519.09,359.4 519.089,365.1 522.604,368.614C524.248,370.258 526.226,372.034 527.195,375.499L523.331,371.636C519.817,368.122 514.119,368.121 510.604,371.636C507.089,375.151 507.09,380.85 510.604,384.364C514.119,387.879 519.817,387.879 523.331,384.364L527.778,379.917L527.792,380.166C527.873,384.065 527.256,390.213 522.968,394.5L522.968,396L534.968,396L534.968,394.5C530.704,390.235 530.064,384.133 530.134,380.23C530.134,380.117 530.156,380.028 530.157,379.917L534.604,384.364C538.119,387.879 543.817,387.879 547.332,384.364C550.847,380.85 550.847,375.15 547.332,371.636Z" style="fill:rgb(31,31,31);fill-rule:nonzero;"/>
        </g>
    </g>
</svg>
