<?xml version="1.0" encoding="UTF-8" standalone="no"?>
<!DOCTYPE svg PUBLIC "-//W3C//DTD SVG 1.1//EN" "http://www.w3.org/Graphics/SVG/1.1/DTD/svg11.dtd">
<svg width="100%" height="100%" viewBox="0 0 40 44" version="1.1" xmlns="http://www.w3.org/2000/svg" xmlns:xlink="http://www.w3.org/1999/xlink" xml:space="preserve" xmlns:serif="http://www.serif.com/" style="fill-rule:evenodd;clip-rule:evenodd;stroke-linejoin:round;stroke-miterlimit:2;">
    <g transform="matrix(1,0,0,1,-207,-337)">
        <g transform="matrix(1,0,0,1,-245.276,-15.4433)">
            <path d="M472.77,352.5C469.52,360.77 453.27,363.795 453.27,376.5C453.27,382.299 457.971,387 463.77,387C466.825,387 469.552,385.673 471.471,383.59C471.111,387.136 469.946,391.329 466.775,394.5L466.775,396L478.775,396L478.775,394.5C475.607,391.332 474.438,387.143 474.075,383.598C475.994,385.677 478.718,387 481.77,387C487.568,387 492.27,382.299 492.27,376.5C492.27,363.795 476.02,360.77 472.77,352.5Z" style="fill:rgb(31,31,31);fill-rule:nonzero;"/>
        </g>
    </g>
</svg>
