<?xml version="1.0" encoding="UTF-8" standalone="no"?>
<!DOCTYPE svg PUBLIC "-//W3C//DTD SVG 1.1//EN" "http://www.w3.org/Graphics/SVG/1.1/DTD/svg11.dtd">
<svg width="100%" height="100%" viewBox="0 0 41 56" version="1.1" xmlns="http://www.w3.org/2000/svg" xmlns:xlink="http://www.w3.org/1999/xlink" xml:space="preserve" xmlns:serif="http://www.serif.com/" style="fill-rule:evenodd;clip-rule:evenodd;stroke-linejoin:round;stroke-miterlimit:2;">
    <g transform="matrix(1,0,0,1,-106,-20)">
        <g>
            <path d="M144.167,76L109.167,76C107.786,76 106.667,74.881 106.667,73.5L106.667,22.5C106.667,21.12 107.786,20 109.167,20L144.167,20C145.547,20 146.667,21.12 146.667,22.5L146.667,73.5C146.667,74.881 145.547,76 144.167,76Z" style="fill:white;fill-rule:nonzero;"/>
            <path d="M114.197,31.533C113.904,31.24 113.429,31.24 113.136,31.533L112.814,31.854C112.895,31.566 113.06,31.418 113.197,31.281C113.49,30.988 113.49,30.513 113.197,30.22C113.051,30.074 112.86,30.001 112.668,30C112.477,30.001 112.282,30.074 112.136,30.22C111.843,30.513 111.843,30.988 112.136,31.281C112.273,31.418 112.438,31.566 112.519,31.854L112.197,31.533C111.904,31.24 111.429,31.24 111.136,31.533C110.843,31.826 110.843,32.3 111.136,32.593C111.429,32.886 111.904,32.886 112.197,32.593L112.567,32.223L112.569,32.244C112.575,32.568 112.524,33.081 112.167,33.438L112.167,33.563L113.167,33.563L113.167,33.438C112.812,33.082 112.758,32.574 112.764,32.249L112.766,32.223L113.136,32.593C113.429,32.886 113.904,32.886 114.197,32.593C114.49,32.3 114.49,31.826 114.197,31.533Z" style="fill:rgb(31,31,31);fill-rule:nonzero;"/>
            <path d="M139.136,64.468C139.429,64.761 139.904,64.761 140.197,64.468L140.519,64.146C140.438,64.435 140.273,64.583 140.136,64.72C139.843,65.013 139.843,65.488 140.136,65.781C140.282,65.927 140.474,66 140.665,66C140.856,66 141.051,65.927 141.197,65.781C141.49,65.488 141.49,65.013 141.197,64.72C141.06,64.583 140.895,64.435 140.814,64.146L141.136,64.468C141.429,64.761 141.904,64.761 142.197,64.468C142.49,64.175 142.49,63.701 142.197,63.408C141.904,63.115 141.429,63.115 141.136,63.408L140.766,63.778L140.765,63.757C140.758,63.433 140.81,62.92 141.167,62.563L141.167,62.438L140.167,62.438L140.167,62.563C140.522,62.918 140.575,63.427 140.569,63.752L140.567,63.778L140.197,63.408C139.904,63.115 139.429,63.115 139.136,63.408C138.843,63.701 138.843,64.175 139.136,64.468Z" style="fill:rgb(31,31,31);fill-rule:nonzero;"/>
            <path d="M114.045,27.34C114.045,27.522 114.005,27.69 113.923,27.843C113.842,27.996 113.731,28.127 113.592,28.236C113.452,28.344 113.288,28.429 113.099,28.49C112.91,28.551 112.709,28.582 112.498,28.582C112.207,28.582 111.951,28.531 111.729,28.429C111.506,28.328 111.33,28.212 111.198,28.084L111.398,27.802C111.522,27.886 111.663,27.955 111.82,28.01C111.977,28.065 112.149,28.093 112.335,28.093C112.449,28.093 112.559,28.079 112.662,28.051C112.766,28.023 112.857,27.979 112.934,27.92C113.012,27.861 113.074,27.784 113.122,27.689C113.169,27.594 113.194,27.479 113.196,27.346C113.2,27.128 113.138,26.953 113.011,26.819C112.884,26.685 112.716,26.606 112.507,26.581L112.286,26.633L112.067,26.673L111.968,26.31C112.112,26.279 112.247,26.238 112.375,26.188C112.501,26.137 112.612,26.077 112.706,26.006C112.8,25.935 112.875,25.853 112.93,25.759C112.985,25.665 113.013,25.559 113.013,25.44C113.013,25.296 112.962,25.176 112.86,25.078C112.758,24.98 112.622,24.931 112.451,24.931C112.283,24.931 112.125,24.974 111.98,25.059C111.834,25.144 111.712,25.239 111.614,25.344L111.378,25.117C111.494,24.919 111.665,24.753 111.89,24.618C112.115,24.483 112.382,24.416 112.693,24.416C112.844,24.416 112.989,24.436 113.126,24.476C113.264,24.516 113.384,24.574 113.487,24.65C113.59,24.727 113.672,24.822 113.733,24.937C113.794,25.051 113.825,25.182 113.825,25.33C113.825,25.457 113.798,25.578 113.746,25.69C113.693,25.803 113.625,25.903 113.541,25.991C113.457,26.08 113.361,26.155 113.256,26.218C113.15,26.281 113.045,26.329 112.94,26.359C113.063,26.357 113.189,26.375 113.32,26.412C113.451,26.449 113.569,26.507 113.676,26.588C113.783,26.668 113.871,26.771 113.941,26.896C114.011,27.021 114.045,27.169 114.045,27.34Z" style="fill:rgb(31,31,31);fill-rule:nonzero;"/>
            <path d="M139.288,68.661C139.288,68.479 139.328,68.311 139.41,68.158C139.491,68.005 139.602,67.874 139.741,67.765C139.881,67.657 140.045,67.572 140.234,67.511C140.423,67.45 140.624,67.419 140.835,67.419C141.126,67.419 141.382,67.47 141.604,67.572C141.827,67.673 142.003,67.789 142.135,67.916L141.935,68.199C141.811,68.115 141.67,68.046 141.513,67.991C141.356,67.936 141.184,67.908 140.998,67.908C140.884,67.908 140.774,67.922 140.671,67.95C140.567,67.978 140.476,68.021 140.399,68.081C140.321,68.14 140.259,68.217 140.211,68.312C140.164,68.407 140.139,68.521 140.137,68.655C140.133,68.873 140.195,69.048 140.322,69.182C140.449,69.316 140.617,69.395 140.826,69.42L141.047,69.368L141.266,69.328L141.365,69.691C141.221,69.722 141.086,69.763 140.958,69.813C140.832,69.864 140.721,69.924 140.627,69.995C140.533,70.066 140.458,70.148 140.403,70.242C140.348,70.336 140.32,70.442 140.32,70.561C140.32,70.705 140.371,70.825 140.473,70.923C140.575,71.021 140.711,71.07 140.882,71.07C141.05,71.07 141.208,71.027 141.353,70.942C141.499,70.856 141.621,70.762 141.719,70.657L141.955,70.884C141.839,71.082 141.668,71.248 141.443,71.383C141.218,71.518 140.951,71.585 140.64,71.585C140.489,71.585 140.344,71.565 140.207,71.525C140.069,71.485 139.949,71.427 139.846,71.351C139.743,71.274 139.661,71.179 139.6,71.064C139.539,70.95 139.508,70.819 139.508,70.671C139.508,70.543 139.535,70.423 139.587,70.311C139.64,70.198 139.708,70.098 139.792,70.01C139.876,69.921 139.972,69.846 140.077,69.783C140.183,69.72 140.288,69.672 140.393,69.642C140.271,69.644 140.144,69.626 140.013,69.589C139.882,69.552 139.764,69.494 139.657,69.413C139.55,69.332 139.462,69.23 139.392,69.105C139.322,68.98 139.288,68.832 139.288,68.661Z" style="fill:rgb(31,31,31);fill-rule:nonzero;"/>
            <path d="M129.662,31.534C128.901,30.772 127.667,30.772 126.905,31.534L126.068,32.371C126.278,31.62 126.707,31.235 127.063,30.879C127.824,30.118 127.824,28.883 127.063,28.122C126.683,27.742 126.186,27.552 125.688,27.55C125.191,27.552 124.685,27.742 124.305,28.122C123.543,28.883 123.543,30.118 124.305,30.879C124.661,31.235 125.089,31.62 125.299,32.371L124.462,31.534C123.701,30.772 122.466,30.772 121.705,31.534C120.943,32.296 120.943,33.53 121.705,34.292C122.466,35.053 123.701,35.053 124.462,34.292L125.426,33.329L125.429,33.382C125.446,34.227 125.313,35.559 124.384,36.488L124.384,36.813L126.984,36.813L126.984,36.488C126.06,35.564 125.921,34.242 125.937,33.396L125.941,33.329L126.905,34.292C127.667,35.053 128.901,35.053 129.662,34.292C130.423,33.53 130.423,32.296 129.662,31.534Z" style="fill:rgb(31,31,31);fill-rule:nonzero;"/>
            <path d="M129.662,46.534C128.901,45.772 127.667,45.772 126.905,46.534L126.068,47.371C126.278,46.62 126.707,46.235 127.063,45.879C127.824,45.118 127.824,43.883 127.063,43.122C126.683,42.742 126.186,42.552 125.688,42.55C125.191,42.552 124.685,42.742 124.305,43.122C123.543,43.883 123.543,45.118 124.305,45.879C124.661,46.235 125.089,46.62 125.299,47.371L124.462,46.534C123.701,45.772 122.466,45.772 121.705,46.534C120.943,47.296 120.943,48.53 121.705,49.292C122.466,50.053 123.701,50.053 124.462,49.292L125.426,48.329L125.429,48.382C125.446,49.227 125.313,50.559 124.384,51.488L124.384,51.813L126.984,51.813L126.984,51.488C126.06,50.564 125.921,49.242 125.937,48.396L125.941,48.329L126.905,49.292C127.667,50.053 128.901,50.053 129.662,49.292C130.423,48.53 130.423,47.296 129.662,46.534Z" style="fill:rgb(31,31,31);fill-rule:nonzero;"/>
            <path d="M129.662,64.467C128.901,65.228 127.667,65.228 126.905,64.467L126.068,63.63C126.278,64.381 126.707,64.766 127.063,65.122C127.824,65.883 127.824,67.118 127.063,67.879C126.683,68.259 126.186,68.449 125.688,68.451C125.191,68.449 124.685,68.259 124.305,67.879C123.543,67.118 123.543,65.883 124.305,65.122C124.661,64.766 125.089,64.381 125.299,63.63L124.462,64.467C123.701,65.228 122.466,65.228 121.705,64.467C120.943,63.705 120.943,62.471 121.705,61.709C122.466,60.948 123.701,60.948 124.462,61.709L125.426,62.672L125.429,62.619C125.446,61.774 125.313,60.442 124.384,59.513L124.384,59.188L126.984,59.188L126.984,59.513C126.06,60.437 125.921,61.759 125.937,62.605L125.941,62.672L126.905,61.709C127.667,60.948 128.901,60.948 129.662,61.709C130.423,62.471 130.423,63.705 129.662,64.467Z" style="fill:rgb(31,31,31);fill-rule:nonzero;"/>
        </g>
    </g>
</svg>
