<?xml version="1.0" encoding="UTF-8" standalone="no"?>
<!DOCTYPE svg PUBLIC "-//W3C//DTD SVG 1.1//EN" "http://www.w3.org/Graphics/SVG/1.1/DTD/svg11.dtd">
<svg width="100%" height="100%" viewBox="0 0 40 56" version="1.1" xmlns="http://www.w3.org/2000/svg" xmlns:xlink="http://www.w3.org/1999/xlink" xml:space="preserve" xmlns:serif="http://www.serif.com/" style="fill-rule:evenodd;clip-rule:evenodd;stroke-linejoin:round;stroke-miterlimit:2;">
    <g transform="matrix(1,0,0,1,-150,-140)">
        <g>
            <path d="M187.5,196L152.5,196C151.119,196 150,194.881 150,193.5L150,142.5C150,141.119 151.119,140 152.5,140L187.5,140C188.881,140 190,141.119 190,142.5L190,193.5C190,194.881 188.881,196 187.5,196Z" style="fill:white;fill-rule:nonzero;"/>
            <path d="M156,149.688C155.729,150.376 154.375,150.629 154.375,151.688C154.375,152.171 154.766,152.563 155.25,152.563C155.504,152.563 155.731,152.452 155.891,152.278C155.861,152.574 155.764,152.923 155.5,153.188L155.5,153.313L156.5,153.313L156.5,153.188C156.236,152.923 156.139,152.574 156.108,152.279C156.268,152.452 156.495,152.563 156.75,152.563C157.233,152.563 157.625,152.171 157.625,151.688C157.625,150.629 156.271,150.376 156,149.688Z" style="fill:rgb(31,31,31);fill-rule:nonzero;"/>
            <path d="M184,185.813C184.271,185.124 185.625,184.871 185.625,183.813C185.625,183.329 185.234,182.938 184.75,182.938C184.496,182.938 184.269,183.048 184.109,183.222C184.139,182.926 184.236,182.577 184.5,182.313L184.5,182.188L183.5,182.188L183.5,182.313C183.764,182.577 183.861,182.926 183.892,183.221C183.732,183.048 183.505,182.938 183.25,182.938C182.767,182.938 182.375,183.329 182.375,183.813C182.375,184.871 183.729,185.124 184,185.813Z" style="fill:rgb(31,31,31);fill-rule:nonzero;"/>
            <path d="M157.607,147.502L156.976,147.502L156.976,148.25L156.249,148.25L156.249,147.502L154.5,147.502L154.306,147.121C154.588,146.664 154.864,146.191 155.132,145.705C155.399,145.218 155.656,144.718 155.902,144.207L156.601,144.207L156.706,144.375C156.519,144.72 156.348,145.033 156.19,145.312C156.034,145.591 155.885,145.841 155.746,146.063C155.606,146.284 155.469,146.48 155.335,146.651C155.202,146.823 155.065,146.975 154.925,147.107L156.26,147.048L156.333,146.109L156.976,146.074L156.976,147.017L157.607,146.99L157.607,147.502Z" style="fill:rgb(31,31,31);fill-rule:nonzero;"/>
            <path d="M182.392,187.998L183.023,187.998L183.023,187.25L183.751,187.25L183.751,187.998L185.499,187.998L185.694,188.379C185.411,188.836 185.136,189.309 184.868,189.795C184.6,190.282 184.343,190.782 184.097,191.293L183.399,191.293L183.294,191.125C183.48,190.78 183.652,190.467 183.809,190.188C183.966,189.909 184.114,189.659 184.254,189.438C184.394,189.216 184.53,189.02 184.664,188.849C184.798,188.677 184.935,188.525 185.074,188.393L183.739,188.452L183.667,189.391L183.023,189.426L183.023,188.483L182.392,188.51L182.392,187.998Z" style="fill:rgb(31,31,31);fill-rule:nonzero;"/>
            <path d="M162.999,147.125C162.458,148.503 159.749,149.007 159.749,151.125C159.749,152.091 160.533,152.875 161.499,152.875C162.008,152.875 162.463,152.654 162.783,152.307C162.723,152.897 162.528,153.597 162,154.125L162,154.375L164,154.375L164,154.125C163.472,153.597 163.277,152.899 163.217,152.308C163.537,152.654 163.99,152.875 164.499,152.875C165.465,152.875 166.249,152.091 166.249,151.125C166.249,149.007 163.541,148.503 162.999,147.125Z" style="fill:rgb(31,31,31);fill-rule:nonzero;"/>
            <path d="M176.999,147.125C176.458,148.503 173.749,149.007 173.749,151.125C173.749,152.091 174.533,152.875 175.499,152.875C176.008,152.875 176.463,152.654 176.783,152.307C176.723,152.897 176.528,153.597 176,154.125L176,154.375L178,154.375L178,154.125C177.472,153.597 177.277,152.899 177.217,152.308C177.537,152.654 177.99,152.875 178.499,152.875C179.465,152.875 180.249,152.091 180.249,151.125C180.249,149.007 177.541,148.503 176.999,147.125Z" style="fill:rgb(31,31,31);fill-rule:nonzero;"/>
            <path d="M162.999,188.788C162.403,187.271 159.424,186.717 159.424,184.388C159.424,183.324 160.286,182.462 161.349,182.462C161.909,182.462 162.409,182.706 162.761,183.088C162.695,182.438 162.481,181.669 161.9,181.087L161.9,180.813L164.1,180.813L164.1,181.087C163.519,181.668 163.305,182.437 163.238,183.086C163.59,182.705 164.089,182.462 164.649,182.462C165.712,182.462 166.574,183.324 166.574,184.388C166.574,186.717 163.595,187.271 162.999,188.788Z" style="fill:rgb(31,31,31);fill-rule:nonzero;"/>
            <path d="M176.999,188.375C176.458,186.997 173.749,186.493 173.749,184.375C173.749,183.409 174.533,182.625 175.499,182.625C176.008,182.625 176.463,182.846 176.783,183.193C176.723,182.603 176.528,181.903 176,181.375L176,181.125L178,181.125L178,181.375C177.472,181.903 177.277,182.601 177.217,183.192C177.537,182.846 177.99,182.625 178.499,182.625C179.465,182.625 180.249,183.409 180.249,184.375C180.249,186.493 177.541,186.997 176.999,188.375Z" style="fill:rgb(31,31,31);fill-rule:nonzero;"/>
        </g>
    </g>
</svg>
