<?xml version="1.0" encoding="UTF-8" standalone="no"?>
<!DOCTYPE svg PUBLIC "-//W3C//DTD SVG 1.1//EN" "http://www.w3.org/Graphics/SVG/1.1/DTD/svg11.dtd">
<svg width="100%" height="100%" viewBox="0 0 41 56" version="1.1" xmlns="http://www.w3.org/2000/svg" xmlns:xlink="http://www.w3.org/1999/xlink" xml:space="preserve" xmlns:serif="http://www.serif.com/" style="fill-rule:evenodd;clip-rule:evenodd;stroke-linejoin:round;stroke-miterlimit:2;">
    <g transform="matrix(1,0,0,1,-323,-200)">
        <g>
            <path d="M360.833,256L325.833,256C324.452,256 323.333,254.881 323.333,253.5L323.333,202.5C323.333,201.119 324.452,200 325.833,200L360.833,200C362.214,200 363.333,201.119 363.333,202.5L363.333,253.5C363.333,254.881 362.214,256 360.833,256Z" style="fill:white;fill-rule:nonzero;"/>
            <path d="M329.333,213.305C328.901,212.631 328.327,212.057 327.653,211.625C328.327,211.193 328.901,210.619 329.333,209.945C329.766,210.619 330.339,211.193 331.014,211.625C330.339,212.057 329.766,212.631 329.333,213.305Z" style="fill:rgb(201,49,18);fill-rule:nonzero;"/>
            <path d="M357.333,241.875C357.783,242.577 358.381,243.175 359.083,243.625C358.381,244.075 357.783,244.673 357.333,245.375C356.883,244.673 356.285,244.075 355.583,243.625C356.285,243.175 356.883,242.577 357.333,241.875Z" style="fill:rgb(201,49,18);fill-rule:nonzero;"/>
            <path d="M328.708,204.931C328.708,205.03 328.73,205.119 328.774,205.197L328.958,205.412C329.035,205.477 329.127,205.539 329.232,205.596C329.339,205.653 329.451,205.709 329.571,205.766C329.719,205.671 329.826,205.56 329.892,205.434C329.958,205.308 329.99,205.178 329.99,205.044C329.99,204.839 329.93,204.68 329.808,204.569C329.686,204.457 329.525,204.401 329.327,204.401C329.132,204.401 328.979,204.451 328.871,204.551C328.762,204.651 328.708,204.778 328.708,204.931ZM329.354,207.834C329.578,207.834 329.754,207.776 329.88,207.661C330.006,207.545 330.069,207.401 330.069,207.226C330.069,207.114 330.044,207.016 329.992,206.932L329.787,206.708C329.702,206.643 329.602,206.582 329.487,206.526C329.373,206.471 328.994,206.289 328.967,206.275C328.815,206.37 328.702,206.487 328.628,206.625C328.553,206.764 328.516,206.912 328.516,207.069C328.516,207.197 328.538,207.309 328.584,207.405C328.63,207.501 328.69,207.581 328.768,207.644C328.844,207.707 328.934,207.754 329.035,207.786C329.137,207.818 329.243,207.834 329.354,207.834ZM329.304,208.207C329.085,208.207 328.882,208.182 328.696,208.134C328.51,208.085 328.35,208.016 328.216,207.926C328.082,207.835 327.978,207.724 327.902,207.591C327.826,207.458 327.788,207.308 327.788,207.139C327.788,206.896 327.864,206.682 328.017,206.496C328.169,206.31 328.374,206.174 328.632,206.089C328.46,205.98 328.311,205.847 328.186,205.69C328.061,205.533 327.998,205.339 327.998,205.108C327.998,204.949 328.031,204.804 328.097,204.672C328.163,204.54 328.256,204.428 328.376,204.334C328.496,204.241 328.641,204.169 328.81,204.118C328.979,204.066 329.165,204.041 329.371,204.041C329.563,204.041 329.74,204.063 329.902,204.109C330.063,204.155 330.202,204.219 330.318,204.301C330.434,204.383 330.523,204.482 330.589,204.598C330.653,204.713 330.686,204.841 330.686,204.98C330.686,205.194 330.614,205.386 330.471,205.558C330.327,205.729 330.146,205.857 329.93,205.94C330.056,206.004 330.176,206.072 330.29,206.144C330.404,206.216 330.505,206.296 330.59,206.384C330.675,206.472 330.743,206.573 330.795,206.685C330.847,206.797 330.872,206.925 330.872,207.069C330.872,207.244 330.834,207.401 330.757,207.542C330.681,207.682 330.574,207.802 330.438,207.899C330.301,207.998 330.135,208.073 329.941,208.126C329.747,208.18 329.535,208.207 329.304,208.207Z" style="fill:rgb(201,49,18);fill-rule:nonzero;"/>
            <path d="M357.957,250.319C357.957,250.221 357.935,250.131 357.891,250.053L357.707,249.838C357.629,249.773 357.537,249.711 357.432,249.654C357.326,249.598 357.213,249.541 357.094,249.484C356.945,249.579 356.839,249.689 356.773,249.816C356.707,249.941 356.674,250.072 356.674,250.205C356.674,250.411 356.735,250.57 356.857,250.682C356.979,250.793 357.14,250.849 357.338,250.849C357.533,250.849 357.686,250.799 357.794,250.699C357.902,250.6 357.957,250.473 357.957,250.319ZM357.311,247.416C357.086,247.416 356.91,247.474 356.785,247.589C356.658,247.705 356.596,247.85 356.596,248.023C356.596,248.137 356.621,248.234 356.673,248.318L356.878,248.541C356.963,248.607 357.063,248.668 357.178,248.724C357.292,248.779 357.671,248.961 357.698,248.975C357.85,248.881 357.963,248.764 358.037,248.625C358.111,248.486 358.148,248.338 358.148,248.182C358.148,248.053 358.127,247.941 358.08,247.846C358.035,247.749 357.975,247.67 357.897,247.606C357.82,247.543 357.731,247.496 357.63,247.464C357.527,247.432 357.422,247.416 357.311,247.416ZM357.361,247.043C357.58,247.043 357.783,247.068 357.969,247.116C358.154,247.164 358.314,247.234 358.449,247.324C358.582,247.414 358.688,247.525 358.763,247.658C358.838,247.791 358.877,247.942 358.877,248.111C358.877,248.354 358.801,248.568 358.648,248.754C358.496,248.94 358.291,249.076 358.033,249.161C358.205,249.27 358.354,249.402 358.479,249.561C358.604,249.717 358.667,249.911 358.667,250.142C358.667,250.301 358.634,250.446 358.568,250.578C358.502,250.71 358.409,250.822 358.289,250.916C358.168,251.009 358.023,251.081 357.855,251.133C357.687,251.184 357.5,251.209 357.294,251.209C357.102,251.209 356.925,251.187 356.763,251.141C356.602,251.096 356.463,251.031 356.347,250.949C356.231,250.867 356.141,250.768 356.076,250.652C356.012,250.537 355.979,250.409 355.979,250.27C355.979,250.057 356.051,249.863 356.194,249.692C356.338,249.521 356.518,249.393 356.735,249.31C356.609,249.246 356.488,249.178 356.375,249.105C356.26,249.034 356.16,248.954 356.074,248.866C355.99,248.777 355.922,248.678 355.869,248.564C355.818,248.453 355.793,248.324 355.793,248.182C355.793,248.006 355.831,247.849 355.908,247.709C355.984,247.568 356.091,247.448 356.228,247.351C356.364,247.252 356.529,247.177 356.724,247.123C356.918,247.07 357.13,247.043 357.361,247.043Z" style="fill:rgb(201,49,18);fill-rule:nonzero;"/>
            <path d="M336.333,214.625C335.434,213.221 334.237,212.025 332.833,211.125C334.237,210.225 335.434,209.029 336.333,207.625C337.233,209.029 338.429,210.225 339.833,211.125C338.429,212.025 337.233,213.221 336.333,214.625Z" style="fill:rgb(201,49,18);fill-rule:nonzero;"/>
            <path d="M343.333,222.875C342.434,221.471 341.237,220.275 339.833,219.375C341.237,218.475 342.434,217.279 343.333,215.875C344.233,217.279 345.429,218.475 346.833,219.375C345.429,220.275 344.233,221.471 343.333,222.875Z" style="fill:rgb(201,49,18);fill-rule:nonzero;"/>
            <path d="M346.833,235.875C345.429,236.775 344.233,237.971 343.333,239.375C342.434,237.971 341.237,236.775 339.833,235.875C341.237,234.975 342.434,233.779 343.333,232.375C344.233,233.779 345.429,234.975 346.833,235.875Z" style="fill:rgb(201,49,18);fill-rule:nonzero;"/>
            <path d="M350.333,214.625C349.434,213.221 348.237,212.025 346.833,211.125C348.237,210.225 349.434,209.029 350.333,207.625C351.233,209.029 352.429,210.225 353.833,211.125C352.429,212.025 351.233,213.221 350.333,214.625Z" style="fill:rgb(201,49,18);fill-rule:nonzero;"/>
            <path d="M350.333,230.875C349.434,229.471 348.237,228.275 346.833,227.375C348.237,226.475 349.434,225.279 350.333,223.875C351.233,225.279 352.429,226.475 353.833,227.375C352.429,228.275 351.233,229.471 350.333,230.875Z" style="fill:rgb(201,49,18);fill-rule:nonzero;"/>
            <path d="M336.333,230.875C335.434,229.471 334.237,228.275 332.833,227.375C334.237,226.475 335.434,225.279 336.333,223.875C337.233,225.279 338.429,226.475 339.833,227.375C338.429,228.275 337.233,229.471 336.333,230.875Z" style="fill:rgb(201,49,18);fill-rule:nonzero;"/>
            <path d="M339.833,244.125C338.429,245.025 337.233,246.221 336.333,247.625C335.434,246.221 334.237,245.025 332.833,244.125C334.237,243.225 335.434,242.029 336.333,240.625C337.233,242.029 338.429,243.225 339.833,244.125Z" style="fill:rgb(201,49,18);fill-rule:nonzero;"/>
            <path d="M353.833,244.125C352.429,245.025 351.233,246.221 350.333,247.625C349.434,246.221 348.237,245.025 346.833,244.125C348.237,243.225 349.434,242.029 350.333,240.625C351.233,242.029 352.429,243.225 353.833,244.125Z" style="fill:rgb(201,49,18);fill-rule:nonzero;"/>
        </g>
    </g>
</svg>
