<?xml version="1.0" encoding="UTF-8" standalone="no"?>
<!DOCTYPE svg PUBLIC "-//W3C//DTD SVG 1.1//EN" "http://www.w3.org/Graphics/SVG/1.1/DTD/svg11.dtd">
<svg width="100%" height="100%" viewBox="0 0 41 56" version="1.1" xmlns="http://www.w3.org/2000/svg" xmlns:xlink="http://www.w3.org/1999/xlink" xml:space="preserve" xmlns:serif="http://www.serif.com/" style="fill-rule:evenodd;clip-rule:evenodd;stroke-linejoin:round;stroke-miterlimit:2;">
    <g transform="matrix(1,0,0,1,-366,-20)">
        <g>
            <path d="M404.167,76L369.167,76C367.786,76 366.667,74.881 366.667,73.5L366.667,22.5C366.667,21.12 367.786,20 369.167,20L404.167,20C405.548,20 406.667,21.12 406.667,22.5L406.667,73.5C406.667,74.881 405.548,76 404.167,76Z" style="fill:white;fill-rule:nonzero;"/>
            <path d="M374.197,31.533C373.904,31.24 373.429,31.24 373.136,31.533L372.814,31.854C372.896,31.566 373.06,31.418 373.197,31.281C373.49,30.988 373.49,30.513 373.197,30.22C373.051,30.074 372.859,30.001 372.668,30C372.478,30.001 372.282,30.074 372.136,30.22C371.844,30.513 371.844,30.988 372.136,31.281C372.273,31.418 372.438,31.566 372.519,31.854L372.197,31.533C371.904,31.24 371.429,31.24 371.136,31.533C370.844,31.826 370.844,32.3 371.136,32.593C371.429,32.886 371.904,32.886 372.197,32.593L372.567,32.223L372.568,32.244C372.575,32.568 372.523,33.081 372.167,33.438L372.167,33.563L373.167,33.563L373.167,33.438C372.812,33.082 372.758,32.574 372.764,32.249L372.766,32.223L373.136,32.593C373.429,32.886 373.904,32.886 374.197,32.593C374.49,32.3 374.49,31.826 374.197,31.533Z" style="fill:rgb(31,31,31);fill-rule:nonzero;"/>
            <path d="M399.137,64.468C399.429,64.761 399.904,64.761 400.197,64.468L400.519,64.146C400.438,64.435 400.273,64.583 400.137,64.72C399.844,65.013 399.844,65.488 400.137,65.781C400.282,65.927 400.474,66 400.665,66C400.856,66 401.051,65.927 401.197,65.781C401.49,65.488 401.49,65.013 401.197,64.72C401.06,64.583 400.896,64.435 400.814,64.146L401.137,64.468C401.429,64.761 401.904,64.761 402.197,64.468C402.49,64.175 402.49,63.701 402.197,63.408C401.904,63.115 401.429,63.115 401.137,63.408L400.766,63.778L400.765,63.757C400.758,63.433 400.81,62.92 401.167,62.563L401.167,62.438L400.167,62.438L400.167,62.563C400.522,62.918 400.575,63.427 400.569,63.752L400.567,63.778L400.197,63.408C399.904,63.115 399.429,63.115 399.137,63.408C398.844,63.701 398.844,64.175 399.137,64.468Z" style="fill:rgb(31,31,31);fill-rule:nonzero;"/>
            <path d="M372.629,26.624C372.739,26.624 372.861,26.606 372.994,26.569C373.127,26.532 373.241,26.48 373.336,26.415L373.336,26.153C373.336,25.965 373.319,25.788 373.286,25.622C373.254,25.456 373.205,25.312 373.141,25.191C373.077,25.07 372.996,24.975 372.898,24.905C372.8,24.835 372.688,24.8 372.56,24.8C372.45,24.8 372.354,24.824 372.271,24.872L372.063,25.066C372.008,25.149 371.966,25.246 371.938,25.359C371.91,25.471 371.896,25.593 371.896,25.725C371.896,26.002 371.961,26.222 372.091,26.383C372.221,26.543 372.4,26.624 372.629,26.624ZM372.326,28.582C372.131,28.582 371.942,28.555 371.761,28.5C371.579,28.446 371.431,28.37 371.314,28.27L371.457,27.939C371.544,27.987 371.649,28.031 371.772,28.068C371.896,28.106 372.029,28.125 372.175,28.125C372.479,28.125 372.736,28.005 372.946,27.766C373.155,27.526 373.28,27.181 373.321,26.729C373.217,26.837 373.075,26.926 372.898,26.994C372.721,27.061 372.535,27.095 372.341,27.095C372.149,27.095 371.977,27.064 371.824,27.002C371.673,26.94 371.544,26.854 371.44,26.745C371.337,26.635 371.257,26.504 371.2,26.352C371.145,26.2 371.116,26.035 371.116,25.856C371.116,25.65 371.151,25.459 371.221,25.282C371.291,25.104 371.39,24.952 371.518,24.825C371.646,24.698 371.803,24.598 371.987,24.525C372.173,24.453 372.381,24.416 372.611,24.416C372.847,24.416 373.06,24.457 373.252,24.537C373.443,24.617 373.607,24.737 373.742,24.894C373.877,25.053 373.98,25.249 374.055,25.485C374.128,25.721 374.165,25.993 374.165,26.301C374.165,26.654 374.12,26.972 374.029,27.255C373.939,27.539 373.813,27.777 373.651,27.973C373.489,28.167 373.296,28.318 373.069,28.423C372.844,28.529 372.596,28.582 372.326,28.582Z" style="fill:rgb(31,31,31);fill-rule:nonzero;"/>
            <path d="M400.702,69.377C400.592,69.377 400.471,69.395 400.338,69.432C400.205,69.469 400.09,69.52 399.995,69.586L399.995,69.848C399.995,70.036 400.012,70.213 400.045,70.379C400.078,70.545 400.127,70.688 400.19,70.81C400.254,70.931 400.336,71.026 400.434,71.096C400.531,71.166 400.645,71.201 400.771,71.201C400.881,71.201 400.977,71.177 401.061,71.129L401.268,70.935C401.323,70.852 401.365,70.755 401.393,70.642C401.422,70.53 401.436,70.408 401.436,70.276C401.436,69.998 401.371,69.779 401.24,69.618C401.11,69.457 400.932,69.377 400.702,69.377ZM401.005,67.419C401.201,67.419 401.389,67.446 401.57,67.5C401.752,67.555 401.9,67.631 402.018,67.73L401.875,68.062C401.787,68.014 401.682,67.97 401.559,67.933C401.436,67.894 401.302,67.876 401.156,67.876C400.852,67.876 400.595,67.996 400.385,68.235C400.176,68.475 400.051,68.82 400.01,69.272C400.115,69.164 400.256,69.075 400.434,69.007C400.611,68.939 400.797,68.906 400.99,68.906C401.182,68.906 401.354,68.936 401.507,68.998C401.658,69.061 401.787,69.146 401.891,69.256C401.994,69.366 402.074,69.497 402.131,69.649C402.188,69.801 402.215,69.966 402.215,70.145C402.215,70.351 402.18,70.542 402.11,70.719C402.041,70.897 401.941,71.049 401.813,71.176C401.686,71.303 401.529,71.403 401.344,71.476C401.158,71.548 400.951,71.585 400.72,71.585C400.484,71.585 400.271,71.544 400.08,71.464C399.888,71.384 399.725,71.264 399.59,71.106C399.455,70.948 399.351,70.751 399.277,70.516C399.203,70.28 399.166,70.008 399.166,69.7C399.166,69.347 399.211,69.029 399.302,68.746C399.392,68.462 399.518,68.224 399.68,68.028C399.842,67.833 400.035,67.683 400.262,67.578C400.487,67.472 400.735,67.419 401.005,67.419Z" style="fill:rgb(31,31,31);fill-rule:nonzero;"/>
            <path d="M382.728,30.565C382.142,29.979 381.191,29.979 380.606,30.565L379.962,31.208C380.124,30.631 380.453,30.335 380.728,30.061C381.313,29.475 381.313,28.525 380.728,27.94C380.436,27.648 380.053,27.501 379.67,27.5C379.288,27.501 378.898,27.648 378.606,27.94C378.021,28.525 378.021,29.475 378.606,30.061C378.88,30.335 379.21,30.631 379.371,31.208L378.728,30.565C378.142,29.979 377.191,29.979 376.606,30.565C376.021,31.151 376.021,32.101 376.606,32.686C377.191,33.272 378.142,33.272 378.728,32.686L379.469,31.945L379.471,31.986C379.484,32.636 379.381,33.661 378.667,34.375L378.667,34.625L380.667,34.625L380.667,34.375C379.956,33.665 379.85,32.647 379.861,31.997L379.865,31.945L380.606,32.686C381.191,33.272 382.142,33.272 382.728,32.686C383.313,32.101 383.313,31.15 382.728,30.565Z" style="fill:rgb(31,31,31);fill-rule:nonzero;"/>
            <path d="M396.728,30.565C396.142,29.979 395.191,29.979 394.606,30.565L393.962,31.208C394.124,30.631 394.453,30.335 394.728,30.061C395.313,29.475 395.313,28.525 394.728,27.94C394.436,27.648 394.053,27.501 393.67,27.5C393.288,27.501 392.898,27.648 392.606,27.94C392.021,28.525 392.021,29.475 392.606,30.061C392.88,30.335 393.21,30.631 393.371,31.208L392.728,30.565C392.142,29.979 391.191,29.979 390.606,30.565C390.021,31.151 390.021,32.101 390.606,32.686C391.191,33.272 392.142,33.272 392.728,32.686L393.469,31.945L393.471,31.986C393.484,32.636 393.381,33.661 392.667,34.375L392.667,34.625L394.667,34.625L394.667,34.375C393.956,33.665 393.85,32.647 393.861,31.997L393.865,31.945L394.606,32.686C395.191,33.272 396.142,33.272 396.728,32.686C397.313,32.101 397.313,31.15 396.728,30.565Z" style="fill:rgb(31,31,31);fill-rule:nonzero;"/>
            <path d="M389.728,47.065C389.142,46.479 388.191,46.479 387.606,47.065L386.962,47.708C387.124,47.131 387.453,46.835 387.728,46.561C388.313,45.975 388.313,45.025 387.728,44.44C387.436,44.148 387.053,44.001 386.67,44C386.288,44.001 385.898,44.148 385.606,44.44C385.021,45.025 385.021,45.975 385.606,46.561C385.88,46.835 386.21,47.131 386.371,47.708L385.728,47.065C385.142,46.479 384.191,46.479 383.606,47.065C383.021,47.651 383.021,48.601 383.606,49.186C384.191,49.772 385.142,49.772 385.728,49.186L386.469,48.445L386.471,48.486C386.484,49.136 386.381,50.161 385.667,50.875L385.667,51.125L387.667,51.125L387.667,50.875C386.956,50.165 386.85,49.147 386.861,48.497L386.865,48.445L387.606,49.186C388.191,49.772 389.142,49.772 389.728,49.186C390.313,48.601 390.313,47.65 389.728,47.065Z" style="fill:rgb(31,31,31);fill-rule:nonzero;"/>
            <path d="M382.728,41.565C382.142,40.979 381.191,40.979 380.606,41.565L379.962,42.208C380.124,41.631 380.453,41.335 380.728,41.061C381.313,40.475 381.313,39.525 380.728,38.94C380.436,38.648 380.053,38.501 379.67,38.5C379.288,38.501 378.898,38.648 378.606,38.94C378.021,39.525 378.021,40.475 378.606,41.061C378.88,41.335 379.21,41.631 379.371,42.208L378.728,41.565C378.142,40.979 377.191,40.979 376.606,41.565C376.021,42.151 376.021,43.101 376.606,43.686C377.191,44.272 378.142,44.272 378.728,43.686L379.469,42.945L379.471,42.986C379.484,43.636 379.381,44.661 378.667,45.375L378.667,45.625L380.667,45.625L380.667,45.375C379.956,44.665 379.85,43.647 379.861,42.997L379.865,42.945L380.606,43.686C381.191,44.272 382.142,44.272 382.728,43.686C383.313,43.101 383.313,42.15 382.728,41.565Z" style="fill:rgb(31,31,31);fill-rule:nonzero;"/>
            <path d="M396.728,41.565C396.142,40.979 395.191,40.979 394.606,41.565L393.962,42.208C394.124,41.631 394.453,41.335 394.728,41.061C395.313,40.475 395.313,39.525 394.728,38.94C394.436,38.648 394.053,38.501 393.67,38.5C393.288,38.501 392.898,38.648 392.606,38.94C392.021,39.525 392.021,40.475 392.606,41.061C392.88,41.335 393.21,41.631 393.371,42.208L392.728,41.565C392.142,40.979 391.191,40.979 390.606,41.565C390.021,42.151 390.021,43.101 390.606,43.686C391.191,44.272 392.142,44.272 392.728,43.686L393.469,42.945L393.471,42.986C393.484,43.636 393.381,44.661 392.667,45.375L392.667,45.625L394.667,45.625L394.667,45.375C393.956,44.665 393.85,43.647 393.861,42.997L393.865,42.945L394.606,43.686C395.191,44.272 396.142,44.272 396.728,43.686C397.313,43.101 397.313,42.15 396.728,41.565Z" style="fill:rgb(31,31,31);fill-rule:nonzero;"/>
            <path d="M382.728,65.436C382.142,66.022 381.191,66.022 380.606,65.436L379.962,64.792C380.124,65.37 380.453,65.666 380.728,65.94C381.313,66.526 381.313,67.476 380.728,68.061C380.436,68.353 380.053,68.499 379.67,68.5C379.288,68.499 378.898,68.353 378.606,68.061C378.021,67.476 378.021,66.526 378.606,65.94C378.88,65.666 379.21,65.37 379.371,64.792L378.728,65.436C378.142,66.022 377.191,66.022 376.606,65.436C376.021,64.85 376.021,63.9 376.606,63.315C377.191,62.729 378.142,62.729 378.728,63.315L379.469,64.056L379.471,64.015C379.484,63.365 379.381,62.34 378.667,61.625L378.667,61.375L380.667,61.375L380.667,61.625C379.956,62.336 379.85,63.353 379.861,64.004L379.865,64.056L380.606,63.315C381.191,62.729 382.142,62.729 382.728,63.315C383.313,63.9 383.313,64.851 382.728,65.436Z" style="fill:rgb(31,31,31);fill-rule:nonzero;"/>
            <path d="M396.728,65.436C396.142,66.022 395.191,66.022 394.606,65.436L393.962,64.792C394.124,65.37 394.453,65.666 394.728,65.94C395.313,66.526 395.313,67.476 394.728,68.061C394.436,68.353 394.053,68.499 393.67,68.5C393.288,68.499 392.898,68.353 392.606,68.061C392.021,67.476 392.021,66.526 392.606,65.94C392.88,65.666 393.21,65.37 393.371,64.792L392.728,65.436C392.142,66.022 391.191,66.022 390.606,65.436C390.021,64.85 390.021,63.9 390.606,63.315C391.191,62.729 392.142,62.729 392.728,63.315L393.469,64.056L393.471,64.015C393.484,63.365 393.381,62.34 392.667,61.625L392.667,61.375L394.667,61.375L394.667,61.625C393.956,62.336 393.85,63.353 393.861,64.004L393.865,64.056L394.606,63.315C395.191,62.729 396.142,62.729 396.728,63.315C397.313,63.9 397.313,64.851 396.728,65.436Z" style="fill:rgb(31,31,31);fill-rule:nonzero;"/>
            <path d="M382.728,54.436C382.142,55.022 381.191,55.022 380.606,54.436L379.962,53.792C380.124,54.37 380.453,54.666 380.728,54.94C381.313,55.526 381.313,56.476 380.728,57.061C380.436,57.353 380.053,57.499 379.67,57.5C379.288,57.499 378.898,57.353 378.606,57.061C378.021,56.476 378.021,55.526 378.606,54.94C378.88,54.666 379.21,54.37 379.371,53.792L378.728,54.436C378.142,55.022 377.191,55.022 376.606,54.436C376.021,53.85 376.021,52.9 376.606,52.315C377.191,51.729 378.142,51.729 378.728,52.315L379.469,53.056L379.471,53.015C379.484,52.365 379.381,51.34 378.667,50.625L378.667,50.375L380.667,50.375L380.667,50.625C379.956,51.336 379.85,52.353 379.861,53.004L379.865,53.056L380.606,52.315C381.191,51.729 382.142,51.729 382.728,52.315C383.313,52.9 383.313,53.851 382.728,54.436Z" style="fill:rgb(31,31,31);fill-rule:nonzero;"/>
            <path d="M396.728,54.436C396.142,55.022 395.191,55.022 394.606,54.436L393.962,53.792C394.124,54.37 394.453,54.666 394.728,54.94C395.313,55.526 395.313,56.476 394.728,57.061C394.436,57.353 394.053,57.499 393.67,57.5C393.288,57.499 392.898,57.353 392.606,57.061C392.021,56.476 392.021,55.526 392.606,54.94C392.88,54.666 393.21,54.37 393.371,53.792L392.728,54.436C392.142,55.022 391.191,55.022 390.606,54.436C390.021,53.85 390.021,52.9 390.606,52.315C391.191,51.729 392.142,51.729 392.728,52.315L393.469,53.056L393.471,53.015C393.484,52.365 393.381,51.34 392.667,50.625L392.667,50.375L394.667,50.375L394.667,50.625C393.956,51.336 393.85,52.353 393.861,53.004L393.865,53.056L394.606,52.315C395.191,51.729 396.142,51.729 396.728,52.315C397.313,52.9 397.313,53.851 396.728,54.436Z" style="fill:rgb(31,31,31);fill-rule:nonzero;"/>
        </g>
    </g>
</svg>
