<?xml version="1.0" encoding="UTF-8" standalone="no"?>
<!DOCTYPE svg PUBLIC "-//W3C//DTD SVG 1.1//EN" "http://www.w3.org/Graphics/SVG/1.1/DTD/svg11.dtd">
<svg width="100%" height="100%" viewBox="0 0 41 56" version="1.1" xmlns="http://www.w3.org/2000/svg" xmlns:xlink="http://www.w3.org/1999/xlink" xml:space="preserve" xmlns:serif="http://www.serif.com/" style="fill-rule:evenodd;clip-rule:evenodd;stroke-linejoin:round;stroke-miterlimit:2;">
    <g transform="matrix(1,0,0,1,-453,-140)">
        <g>
            <path d="M490.833,196L455.833,196C454.452,196 453.333,194.881 453.333,193.5L453.333,142.5C453.333,141.119 454.452,140 455.833,140L490.833,140C492.214,140 493.333,141.119 493.333,142.5L493.333,193.5C493.333,194.881 492.214,196 490.833,196Z" style="fill:white;fill-rule:nonzero;"/>
            <path d="M459.333,149.688C459.062,150.376 457.708,150.629 457.708,151.688C457.708,152.171 458.1,152.563 458.583,152.563C458.837,152.563 459.064,152.452 459.225,152.278C459.194,152.574 459.098,152.923 458.833,153.188L458.833,153.313L459.833,153.313L459.833,153.188C459.569,152.923 459.472,152.574 459.441,152.279C459.602,152.452 459.828,152.563 460.083,152.563C460.566,152.563 460.958,152.171 460.958,151.688C460.958,150.629 459.604,150.376 459.333,149.688Z" style="fill:rgb(31,31,31);fill-rule:nonzero;"/>
            <path d="M487.334,185.813C487.604,185.124 488.959,184.871 488.959,183.813C488.959,183.329 488.567,182.938 488.084,182.938C487.829,182.938 487.602,183.048 487.442,183.222C487.472,182.926 487.569,182.577 487.833,182.313L487.833,182.188L486.833,182.188L486.833,182.313C487.098,182.577 487.194,182.926 487.225,183.221C487.065,183.048 486.838,182.938 486.584,182.938C486.101,182.938 485.709,183.329 485.709,183.813C485.709,184.871 487.063,185.124 487.334,185.813Z" style="fill:rgb(31,31,31);fill-rule:nonzero;"/>
            <path d="M459.894,144.143L459.784,144.204L459.748,144.32L459.748,147.086C459.748,147.424 459.729,147.712 459.692,147.95C459.656,148.189 459.583,148.395 459.473,148.568C459.363,148.742 459.208,148.894 459.008,149.022C458.807,149.151 458.544,149.276 458.218,149.396L458.055,149.053C458.241,148.933 458.393,148.817 458.51,148.705C458.627,148.594 458.718,148.47 458.782,148.334C458.846,148.199 458.89,148.041 458.913,147.86C458.937,147.68 458.948,147.462 458.948,147.208L458.948,144.32L458.911,144.202L458.803,144.143L458.343,144.052L458.343,143.706L460.298,143.706L460.298,144.052L459.894,144.143Z" style="fill:rgb(31,31,31);fill-rule:nonzero;"/>
            <path d="M486.771,191.357L486.879,191.296L486.916,191.18L486.916,188.414C486.916,188.076 486.935,187.788 486.971,187.55C487.008,187.311 487.081,187.105 487.191,186.932C487.301,186.758 487.455,186.606 487.656,186.478C487.857,186.349 488.12,186.224 488.446,186.104L488.609,186.447C488.423,186.567 488.271,186.683 488.154,186.795C488.037,186.906 487.945,187.03 487.882,187.166C487.818,187.301 487.773,187.459 487.751,187.64C487.728,187.82 487.716,188.038 487.716,188.292L487.716,191.18L487.752,191.298L487.861,191.357L488.32,191.448L488.32,191.794L486.366,191.794L486.366,191.448L486.771,191.357Z" style="fill:rgb(31,31,31);fill-rule:nonzero;"/>
            <path d="M483.831,145.375C483.289,146.753 480.581,147.257 480.581,149.375C480.581,150.341 481.364,151.125 482.331,151.125C482.841,151.125 483.295,150.904 483.614,150.557C483.555,151.147 483.36,151.847 482.832,152.375L482.832,152.625L484.832,152.625L484.832,152.375C484.304,151.847 484.109,151.149 484.049,150.558C484.368,150.904 484.822,151.125 485.331,151.125C486.298,151.125 487.081,150.341 487.081,149.375C487.081,147.257 484.373,146.753 483.831,145.375Z" style="fill:rgb(31,31,31);fill-rule:nonzero;"/>
            <path d="M462.831,190.627C462.29,189.25 459.581,188.745 459.581,186.627C459.581,185.661 460.365,184.877 461.331,184.877C461.841,184.877 462.295,185.099 462.615,185.446C462.555,184.855 462.36,184.156 461.832,183.627L461.832,183.377L463.832,183.377L463.832,183.627C463.305,184.156 463.109,184.854 463.049,185.445C463.369,185.098 463.822,184.877 464.331,184.877C465.298,184.877 466.081,185.661 466.081,186.627C466.081,188.745 463.373,189.25 462.831,190.627Z" style="fill:rgb(31,31,31);fill-rule:nonzero;"/>
            <path d="M457.332,156L457.332,191.75L457.582,192L482.332,192L482.332,191.5L457.832,191.5L457.832,156L457.332,156ZM489.332,180L488.832,180L488.832,144.5L464.332,144.5L464.332,144L489.082,144L489.332,144.25L489.332,180Z" style="fill:rgb(31,31,31);fill-rule:nonzero;"/>
            <path d="M479.48,164.5C480.517,161.682 479.504,159.038 477.26,156.97C476.91,157.34 476.249,157.363 475.85,156.92C475.565,157.254 475.048,157.385 474.59,157.07C474.352,158.543 473.413,158.717 473.26,158.87C476.511,158.961 479.196,161.456 479.48,164.5Z" style="fill:rgb(201,49,18);fill-rule:nonzero;"/>
            <path d="M478.05,171.14L476.09,173.1C476.304,173.902 476.434,174.582 476.37,175.34C477.26,174.56 478.29,173.76 479.08,173C478.719,172.549 478.404,172.09 478.05,171.14Z" style="fill:rgb(249,203,25);fill-rule:nonzero;"/>
            <path d="M468.62,164.86L470.58,162.9C470.36,162.116 470.237,161.412 470.3,160.66C469.41,161.44 468.38,162.24 467.59,163C467.913,163.403 468.205,163.796 468.62,164.86Z" style="fill:rgb(201,49,18);fill-rule:nonzero;"/>
            <path d="M478.42,157.44C482.634,162.29 479.337,168.42 475.21,168.48C476.683,169.625 476.8,171.143 477.05,172.43L481.17,168.31L481.17,159.77C480.51,158.76 479.54,157.97 478.42,157.44Z" style="fill:rgb(35,75,194);fill-rule:nonzero;"/>
            <path d="M475.31,163.36C474.191,162.108 472.287,162.021 471.04,163.16C471.333,164.633 471.387,165.225 471.78,165.95C472.731,167.717 474.95,168.535 476.88,167.57C476.85,165.8 476.22,164.4 475.31,163.36Z" style="fill:rgb(249,203,25);fill-rule:nonzero;"/>
            <path d="M471.46,167.52C470.002,166.386 469.885,164.934 469.61,163.57L465.5,167.69L465.5,176.23C466.16,177.24 467.12,178.03 468.25,178.56C464.047,173.756 467.31,167.579 471.46,167.52Z" style="fill:rgb(35,75,194);fill-rule:nonzero;"/>
            <path d="M474.89,170.05C473.944,168.293 471.749,167.463 469.78,168.43C469.834,170.832 471.174,173.64 473.59,173.64C474.32,173.64 475.05,173.37 475.63,172.84C475.338,171.373 475.283,170.775 474.89,170.05Z" style="fill:rgb(201,49,18);fill-rule:nonzero;"/>
            <path d="M470.81,179.08C471.147,178.706 471.676,178.641 472.07,178.93C472.35,177.453 473.311,177.23 473.41,177.13C470.136,177.039 467.461,174.511 467.18,171.5C466.152,174.295 467.167,176.963 469.41,179.03C469.748,178.672 470.398,178.623 470.81,179.08Z" style="fill:rgb(249,203,25);fill-rule:nonzero;"/>
            <path d="M474.03,188.63L473.88,189.6C474.652,189.6 475.293,189.526 476.2,189.22L476.14,188.47C475.299,188.693 474.701,188.694 474.03,188.63Z" style="fill:rgb(201,49,18);fill-rule:nonzero;"/>
            <path d="M470.85,188.71C471.6,189.18 472.45,189.48 473.37,189.57L473.54,188.56C472.77,188.43 472.01,188.17 471.3,187.79L470.85,188.71Z" style="fill:rgb(201,49,18);fill-rule:nonzero;"/>
            <path d="M469.23,186.17L468.8,186.63C469.24,187.34 469.79,187.95 470.43,188.42L470.86,187.55C470.26,187.17 469.71,186.7 469.23,186.17Z" style="fill:rgb(201,49,18);fill-rule:nonzero;"/>
            <path d="M469.57,185.8C471.15,187.584 473.734,188.624 476.1,187.97L476.03,187.2L475.85,187.22L475.66,187.25C475.554,187.197 472.682,187.353 470.01,185.33L469.57,185.8Z" style="fill:rgb(249,203,25);fill-rule:nonzero;"/>
            <path d="M476.36,186.19C476.146,186.029 475.016,186.269 473.95,185.59C472.219,184.52 472.26,181.886 472.26,179.72C472.26,179.46 472.04,179.25 471.78,179.25C471.52,179.25 471.31,179.46 471.31,179.72C471.31,182.698 471.798,186.081 474.66,186.66C475.444,186.787 475.877,186.74 475.98,186.74C476.28,186.71 476.42,186.5 476.42,186.34L476.36,186.19Z" style="fill:rgb(35,75,194);fill-rule:nonzero;"/>
            <path d="M472.39,185.9C471.076,184.586 470.81,181.572 470.81,179.72C470.81,179.098 469.87,179.098 469.87,179.72C469.87,182.266 470.294,184.513 472.39,185.9Z" style="fill:rgb(35,75,194);fill-rule:nonzero;"/>
            <path d="M470.73,185.05C469.618,183.61 469.37,181.547 469.37,179.72C469.37,179.092 468.42,179.102 468.42,179.73C468.42,181.898 468.912,183.838 470.73,185.05Z" style="fill:rgb(35,75,194);fill-rule:nonzero;"/>
            <path d="M475.94,150.95C477.048,152.384 477.3,154.467 477.3,156.28C477.3,156.908 478.25,156.898 478.25,156.27C478.02,156.041 478.824,153.047 475.94,150.95Z" style="fill:rgb(35,75,194);fill-rule:nonzero;"/>
            <path d="M475.85,156.28C475.85,156.54 476.07,156.75 476.33,156.75C476.59,156.75 476.8,156.54 476.8,156.28C476.8,153.715 476.381,151.511 474.28,150.1C475.602,151.422 475.85,154.413 475.85,156.28Z" style="fill:rgb(35,75,194);fill-rule:nonzero;"/>
            <path d="M470.31,149.81C470.34,149.84 470.41,149.88 470.55,149.88C474.172,149.88 474.41,152.725 474.41,156.28C474.41,156.902 475.35,156.901 475.35,156.28C475.36,153.303 474.863,149.918 472.01,149.34C471.206,149.213 470.792,149.26 470.69,149.26C470.39,149.29 470.25,149.5 470.25,149.66L470.31,149.81Z" style="fill:rgb(35,75,194);fill-rule:nonzero;"/>
            <path d="M477.44,149.83L477.87,149.37C477.42,148.66 476.87,148.05 476.23,147.58L475.8,148.45C476.4,148.83 476.95,149.3 477.44,149.83Z" style="fill:rgb(201,49,18);fill-rule:nonzero;"/>
            <path d="M475.82,147.28C475.07,146.82 474.22,146.52 473.29,146.43L473.13,147.44C473.9,147.57 474.66,147.83 475.37,148.21L475.82,147.28Z" style="fill:rgb(201,49,18);fill-rule:nonzero;"/>
            <path d="M472.63,147.37L472.79,146.4C472.028,146.4 471.39,146.47 470.46,146.78L470.53,147.53C471.331,147.313 471.958,147.303 472.63,147.37Z" style="fill:rgb(201,49,18);fill-rule:nonzero;"/>
            <path d="M477.1,150.2C475.511,148.406 472.921,147.379 470.57,148.03L470.64,148.8L470.82,148.78L471,148.75L471.04,148.76C471.04,148.76 471.146,148.75 471.28,148.75C472.882,148.75 475.089,149.48 476.66,150.67L477.1,150.2Z" style="fill:rgb(249,203,25);fill-rule:nonzero;"/>
            <path d="M481.65,168.45C481.75,168.45 481.83,168.47 481.92,168.47L481.92,159.93L480.92,159.93L480.92,172.07C481.152,172.472 481.9,172.865 481.9,173.48C481.9,173.829 481.602,174.139 481.25,174.12C481.04,174.12 481.076,174.089 480.92,174.05L480.92,180.42L481.92,180.42L481.92,171.573C481.813,171.565 481.718,171.56 481.65,171.56C481.315,171.56 481.323,171.06 481.65,171.06C481.72,171.064 481.817,171.069 481.92,171.075L481.92,170.679C481.813,170.672 481.718,170.67 481.65,170.67C481.323,170.67 481.316,170.17 481.65,170.17C481.72,170.17 481.817,170.173 481.92,170.178L481.92,169.807C481.811,169.795 481.715,169.79 481.65,169.79C481.319,169.79 481.318,169.29 481.65,169.29C481.726,169.29 481.821,169.298 481.92,169.307L481.92,168.97C481.83,168.963 481.756,168.95 481.65,168.95C481.315,168.95 481.323,168.45 481.65,168.45Z" style="fill:rgb(249,203,25);fill-rule:nonzero;"/>
            <path d="M464.75,164.427C464.856,164.435 464.953,164.44 465.02,164.44C465.16,164.44 465.27,164.55 465.27,164.69C465.27,164.82 465.15,164.94 465.02,164.94C464.946,164.936 464.851,164.931 464.75,164.925L464.75,165.322C464.856,165.327 464.953,165.33 465.02,165.33C465.348,165.33 465.351,165.83 465.02,165.83C464.946,165.83 464.851,165.827 464.75,165.822L464.75,166.193C464.859,166.205 464.955,166.21 465.02,166.21C465.354,166.21 465.347,166.71 465.02,166.71C464.944,166.71 464.849,166.702 464.75,166.693L464.75,167.03C464.841,167.037 464.914,167.05 465.02,167.05C465.15,167.05 465.27,167.16 465.27,167.3C465.27,167.43 465.15,167.55 465.02,167.55C464.92,167.55 464.84,167.53 464.75,167.53L464.75,176.07L465.75,176.07L465.75,163.93C465.519,163.529 464.77,163.151 464.77,162.52C464.75,162.24 464.997,161.88 465.42,161.88C465.62,161.88 465.583,161.908 465.75,161.95L465.75,155.58L464.75,155.58L464.75,164.427Z" style="fill:rgb(249,203,25);fill-rule:nonzero;"/>
            <path d="M469.264,170.448L468.771,170.534L468.857,171.028L469.35,170.942L469.264,170.448ZM469.135,171.998C469.26,172.287 469.21,172.171 469.334,172.459L469.793,172.261L469.594,171.8L469.135,171.998ZM469.849,173.328C470.038,173.578 469.962,173.477 470.152,173.728L470.55,173.425L470.246,173.025L469.849,173.328ZM470.856,174.46C471.102,174.647 471.011,174.578 471.256,174.764L471.559,174.367L471.159,174.063L470.856,174.46ZM473.646,175.601C473.949,175.606 473.833,175.604 474.147,175.61L474.156,175.11L473.655,175.101L473.646,175.601ZM472.16,175.252C472.445,175.353 472.337,175.314 472.634,175.418L472.799,174.946L472.325,174.78L472.16,175.252ZM475.024,174.978L475.156,175.46L475.64,175.328L475.508,174.846L475.024,174.978ZM486.666,177.623C486.666,176.061 486.025,174.561 485.104,173.49L484.543,174.087C485.236,175.216 485.082,176.641 485.466,177.164C485.579,177.321 485.726,177.372 485.927,177.373C486.065,177.373 486.177,177.485 486.177,177.623C486.177,177.761 486.065,177.873 485.927,177.873C485.725,177.873 485.577,177.925 485.462,178.087C485.086,178.618 485.229,180.039 484.543,181.158L485.104,181.755C486.028,180.681 486.666,179.172 486.666,177.623ZM484.187,180.775C484.728,179.779 484.596,178.553 485.005,177.873L482.666,177.873L482.666,178.369C483.87,178.5 484.296,179.588 484.187,180.775ZM482.666,172.022L482.666,172.372C482.862,172.344 483.118,172.27 483.22,172.102C483.307,171.96 483.208,171.832 483.069,171.742C483.041,171.722 482.964,171.69 482.867,171.667C482.596,171.596 482.177,171.565 481.899,171.564C481.762,171.564 481.649,171.452 481.65,171.313C481.65,171.176 481.763,171.064 481.901,171.064C482.266,171.066 482.992,171.111 483.326,171.313C483.369,171.108 483.244,170.957 483.069,170.844C483.041,170.825 482.964,170.792 482.867,170.769C482.596,170.699 482.177,170.667 481.899,170.667C481.762,170.667 481.649,170.554 481.65,170.416C481.65,170.278 481.763,170.167 481.901,170.167C482.222,170.168 482.674,170.203 482.991,170.284C483.325,170.372 483.335,170.447 483.335,170.41C483.335,170.239 483.214,170.114 483.069,170.021C482.864,169.885 482.166,169.792 481.899,169.792C481.762,169.792 481.649,169.679 481.65,169.541C481.65,169.403 481.763,169.292 481.901,169.292C482.228,169.293 482.841,169.377 483.182,169.519C483.19,169.426 483.162,169.329 483.133,169.284C483.11,169.248 483.025,169.16 482.83,169.087C482.636,169.014 482.335,168.954 481.9,168.954C481.762,168.954 481.65,168.842 481.65,168.704C481.65,168.565 481.762,168.454 481.9,168.454C481.994,168.454 482.082,168.457 482.166,168.461L482.166,159.933L481.166,159.933L481.166,172.071C481.344,172.36 481.656,172.554 481.902,172.869C482.481,173.617 481.924,174.191 481.411,174.119L481.166,174.071L481.166,180.417L482.166,180.417L482.166,172.022C482.166,171.885 482.278,171.772 482.416,171.772C482.555,171.772 482.666,171.885 482.666,172.022ZM481.48,173.624L481.501,173.625L481.65,173.482C481.651,173.383 481.568,173.254 481.507,173.176C481.288,172.892 480.944,172.688 480.718,172.295L480.666,172.145L480.666,169.021L478.928,170.758C479.369,172.011 480.171,173.439 481.48,173.624ZM479.576,173.011C479.125,172.47 478.79,171.806 478.539,171.147L476.589,173.098C476.779,173.789 476.951,174.622 476.868,175.338C477.737,174.574 478.791,173.764 479.576,173.011ZM476.553,172.426L480.666,168.313L480.666,159.758C480.012,158.76 479.052,157.974 477.934,157.444C479.14,158.83 479.89,160.486 479.89,162.32C479.89,165.327 477.723,168.454 474.715,168.478C475.159,168.832 475.543,169.278 475.83,169.809C476.225,170.537 476.271,171.013 476.553,172.426ZM476.168,173.461C474.725,174.52 472.683,174.33 471.479,172.967C470.543,171.908 469.882,170.475 469.788,168.708C469.174,169.125 468.599,169.739 468.156,170.487C468.103,172.318 468.545,173.421 469.605,174.622C470.952,176.147 472.957,176.835 474.806,176.598C475.211,176.546 475.675,176.431 475.989,176.171C476.604,175.538 476.386,174.319 476.168,173.461ZM473.006,179.808C473.006,180.717 473.019,181.578 473.105,182.339C473.34,184.416 474.103,185.559 476.209,185.613L476.307,185.454C476.34,185.339 476.395,185.114 476.343,185.004C476.2,184.714 474.958,185.084 474.388,184.37C474.302,184.262 474.319,184.104 474.427,184.019C474.534,183.932 474.691,183.95 474.778,184.058C475.136,184.502 475.991,184.243 476.493,184.491C476.405,184.192 476.203,183.867 476.373,183.354C476.535,182.863 476.771,182.521 477.064,182.11C476.445,181.926 476.429,181.925 476.386,181.9C476.346,181.876 476.401,181.927 475.251,180.776C475.152,180.679 475.152,180.521 475.251,180.423C475.348,180.325 475.507,180.325 475.604,180.423L476.604,181.424C476.625,181.231 476.676,181.053 476.775,180.882C476.654,180.86 476.551,180.853 476.451,180.855C476.313,180.858 476.198,180.749 476.195,180.611C476.191,180.473 476.301,180.358 476.438,180.355C476.734,180.348 476.662,180.418 476.543,180.249C476.241,179.822 476.541,179.24 476.28,179.049C476.121,178.934 475.794,178.918 475.599,178.918C474.913,178.918 473.897,179.2 473.006,179.808ZM476.705,189.222L476.642,188.485C475.972,188.658 475.269,188.711 474.532,188.64L474.374,189.606C475.18,189.619 475.957,189.475 476.705,189.222ZM474.037,188.574C473.297,188.448 472.544,188.198 471.796,187.796L471.347,188.717C472.147,189.217 472.995,189.493 473.872,189.579L474.037,188.574ZM470.93,188.431L471.362,187.546C470.762,187.171 470.208,186.709 469.726,186.173L469.296,186.636C469.739,187.346 470.291,187.953 470.93,188.431ZM470.067,185.805C471.801,187.759 474.446,188.571 476.598,187.98L476.532,187.217L476.342,187.236L476.132,187.247C474.249,187.305 471.992,186.465 470.507,185.331L470.067,185.805ZM470.992,185.07C469.863,183.595 469.619,181.568 469.619,179.717C469.618,179.456 469.408,179.246 469.147,179.245C468.892,179.246 468.68,179.449 468.676,179.71C468.698,179.85 468.614,181.378 469.137,182.743C469.53,183.769 470.142,184.46 470.992,185.07ZM471.063,179.717C471.062,179.456 470.852,179.246 470.591,179.245C470.33,179.246 470.119,179.456 470.119,179.717C470.119,181.742 470.403,183.897 471.87,185.304C472.104,185.527 472.357,185.722 472.626,185.902C471.299,184.368 471.063,181.745 471.063,179.717ZM476.292,186.738C476.612,186.678 476.735,186.373 476.635,186.222C476.577,186.139 476.462,186.117 476.361,186.117C473.749,186.118 472.807,184.635 472.58,182.118C472.513,181.369 472.506,180.558 472.506,179.717C472.506,179.586 472.453,179.47 472.367,179.383C472.067,179.085 471.563,179.301 471.563,179.717C471.562,183.585 472.423,187.015 476.292,186.738ZM473.895,177.135C472.106,177.081 470.415,176.294 469.231,174.953C468.321,173.924 467.811,172.939 467.683,171.476C466.769,173.896 467.343,176.69 469.898,179.035C470.292,178.639 470.934,178.647 471.313,179.068C471.646,178.698 472.18,178.649 472.569,178.907C472.729,178.026 473.17,177.491 473.895,177.135ZM475.243,177.16C474.335,177.489 473.496,177.653 473.157,178.62C473.1,178.785 473.057,178.976 473.03,179.198C473.734,178.781 474.513,178.529 475.139,178.449C474.936,178.018 475.023,177.577 475.243,177.16ZM468.732,178.556C467.526,177.171 466.776,175.515 466.776,173.68C466.776,170.679 468.939,167.546 471.951,167.522C471.507,167.168 471.124,166.722 470.836,166.191C470.439,165.459 470.392,164.962 470.113,163.573L466,167.687L466,176.242C466.654,177.239 467.614,178.026 468.732,178.556ZM465.949,163.705L466,163.855L466,166.979L467.738,165.242C467.297,163.99 466.496,162.561 465.187,162.376L465.165,162.375L465.017,162.518C465.016,162.616 465.098,162.746 465.159,162.824C465.38,163.11 465.722,163.311 465.949,163.705ZM465.5,163.929C465.273,163.561 464.807,163.323 464.595,162.855C464.35,162.312 464.73,161.875 465.165,161.875C465.261,161.875 465.408,161.907 465.5,161.929L465.5,155.583L464.5,155.583L464.5,163.978C464.5,164.115 464.389,164.228 464.25,164.228C464.112,164.228 464,164.115 464,163.978L464,163.628C463.805,163.656 463.549,163.73 463.446,163.898C463.36,164.039 463.458,164.168 463.597,164.258C463.626,164.278 463.702,164.31 463.799,164.333C464.071,164.404 464.49,164.435 464.768,164.436C464.905,164.436 465.017,164.548 465.017,164.687C465.016,164.824 464.903,164.936 464.766,164.936C464.395,164.934 463.672,164.888 463.34,164.687C463.297,164.891 463.421,165.042 463.597,165.156C463.626,165.175 463.702,165.208 463.799,165.231C464.071,165.301 464.489,165.333 464.768,165.333C464.905,165.333 465.017,165.446 465.017,165.584C465.016,165.722 464.903,165.833 464.766,165.833C464.445,165.832 463.993,165.797 463.675,165.716C463.341,165.628 463.332,165.553 463.332,165.59C463.332,165.761 463.453,165.886 463.597,165.979C463.803,166.115 464.501,166.208 464.768,166.208C464.905,166.208 465.017,166.321 465.017,166.459C465.016,166.597 464.903,166.708 464.766,166.708C464.441,166.707 463.827,166.624 463.485,166.481C463.477,166.575 463.504,166.672 463.534,166.716C463.556,166.752 463.642,166.84 463.836,166.913C464.03,166.986 464.331,167.046 464.767,167.046C464.904,167.046 465.017,167.158 465.017,167.296C465.017,167.435 464.904,167.546 464.767,167.546C464.673,167.546 464.585,167.543 464.5,167.539L464.5,176.067L465.5,176.067L465.5,163.929ZM464,159.122L464,158.627L461.659,158.627C462.079,159.325 461.934,160.525 462.48,161.531C462.37,160.349 462.795,159.253 464,159.122ZM462.123,161.913C461.351,160.655 461.627,159.009 461.041,158.691C460.97,158.653 460.877,158.627 460.739,158.627C460.602,158.627 460.489,158.515 460.489,158.377C460.489,158.239 460.602,158.127 460.739,158.127C461.023,158.126 461.182,158.02 461.3,157.735C461.569,157.085 461.494,155.867 462.124,154.842L461.563,154.245C460.615,155.345 460,156.85 460,158.377C460,159.943 460.646,161.443 461.563,162.51L462.123,161.913ZM462.48,155.225C461.939,156.221 462.07,157.447 461.661,158.127L464,158.127L464,157.631C462.795,157.5 462.37,156.409 462.48,155.225ZM467.091,162.989C467.543,163.531 467.877,164.195 468.127,164.853L470.078,162.902C469.887,162.21 469.715,161.377 469.798,160.662C468.929,161.426 467.875,162.236 467.091,162.989ZM470.279,168.423C470.314,170.202 470.944,171.604 471.854,172.636C472.971,173.9 474.902,173.971 476.127,172.847L475.784,171.134C475.284,168.631 472.549,167.302 470.279,168.423ZM476.388,167.577C476.353,165.798 475.723,164.396 474.813,163.364C473.695,162.1 471.764,162.029 470.539,163.152L470.882,164.866C471.38,167.359 474.108,168.703 476.388,167.577ZM470.498,162.539C471.941,161.48 473.984,161.67 475.188,163.033C476.124,164.092 476.784,165.525 476.878,167.292C477.492,166.875 478.067,166.261 478.51,165.513C478.563,163.675 478.118,162.575 477.061,161.378C475.714,159.853 473.71,159.165 471.86,159.402C471.455,159.454 470.991,159.569 470.677,159.829C470.063,160.461 470.281,161.681 470.498,162.539ZM473.661,156.192C473.66,155.283 473.647,154.422 473.562,153.661C473.326,151.584 472.563,150.441 470.457,150.387L470.359,150.546C470.326,150.663 470.272,150.886 470.323,150.996C470.466,151.286 471.709,150.916 472.278,151.63C472.365,151.738 472.348,151.896 472.239,151.981C472.132,152.068 471.975,152.05 471.889,151.942C471.533,151.5 470.671,151.755 470.173,151.509C470.263,151.813 470.463,152.134 470.293,152.646C470.132,153.137 469.896,153.479 469.602,153.89C470.225,154.075 470.235,154.073 470.28,154.1C470.32,154.124 470.242,154.05 471.416,155.223C471.514,155.321 471.514,155.479 471.416,155.577C471.318,155.675 471.16,155.675 471.063,155.577L470.062,154.576C470.042,154.769 469.99,154.947 469.892,155.118C470.014,155.141 470.116,155.147 470.216,155.145C470.354,155.142 470.468,155.251 470.472,155.389C470.475,155.527 470.365,155.642 470.228,155.645C469.933,155.652 470.005,155.582 470.124,155.751C470.427,156.181 470.123,156.758 470.387,156.951C470.545,157.066 470.872,157.082 471.067,157.082C471.753,157.082 472.769,156.8 473.661,156.192ZM469.962,146.778L470.025,147.515C470.691,147.343 471.394,147.289 472.134,147.359L472.292,146.394C471.49,146.381 470.712,146.524 469.962,146.778ZM472.63,147.426C473.367,147.552 474.12,147.801 474.87,148.204L475.32,147.283C474.525,146.787 473.678,146.508 472.794,146.421L472.63,147.426ZM475.736,147.569L475.305,148.454C475.905,148.829 476.458,149.291 476.941,149.827L477.37,149.364C476.928,148.654 476.375,148.047 475.736,147.569ZM476.6,150.195C474.865,148.24 472.22,147.429 470.068,148.02L470.134,148.782L470.325,148.764L470.533,148.753C472.196,148.701 474.486,149.391 476.16,150.669L476.6,150.195ZM475.604,156.283C475.604,156.699 476.109,156.916 476.409,156.617C476.495,156.53 476.548,156.414 476.548,156.283C476.548,154.765 476.367,153.614 476.06,152.722C475.643,151.52 474.988,150.732 474.041,150.098C475.369,151.634 475.604,154.258 475.604,156.283ZM470.375,149.261C470.054,149.322 469.933,149.628 470.032,149.778C470.09,149.861 470.204,149.882 470.306,149.883C472.916,149.882 473.859,151.365 474.086,153.882C474.153,154.631 474.161,155.442 474.161,156.283C474.161,156.414 474.213,156.53 474.299,156.617C474.599,156.915 475.104,156.699 475.104,156.283C475.104,152.397 474.234,148.986 470.375,149.261ZM472.772,158.865C474.561,158.919 476.251,159.706 477.436,161.047C478.345,162.077 478.855,163.062 478.984,164.523C479.898,162.104 479.324,159.31 476.768,156.965C476.381,157.358 475.736,157.356 475.354,156.932C475.021,157.302 474.486,157.351 474.097,157.093C473.938,157.969 473.5,158.507 472.772,158.865ZM471.424,158.84C472.35,158.505 473.173,158.34 473.509,157.379C473.566,157.215 473.61,157.024 473.636,156.802C472.931,157.22 472.152,157.471 471.527,157.551C471.73,157.983 471.643,158.423 471.424,158.84ZM475.674,150.93C476.803,152.404 477.048,154.432 477.048,156.283C477.048,156.544 477.259,156.754 477.52,156.755C477.774,156.754 477.986,156.551 477.99,156.29C477.966,156.142 478.054,154.627 477.529,153.257C477.137,152.231 476.524,151.54 475.674,150.93ZM482.666,176.878L482.666,177.373L485.008,177.373C484.587,176.676 484.733,175.476 484.187,174.469C484.297,175.66 483.866,176.748 482.666,176.878ZM480.666,176.877C480.276,176.833 479.935,176.699 479.607,176.504C479.499,176.771 479.428,177.064 479.403,177.373L480.666,177.373L480.666,176.877ZM480.666,177.873L479.403,177.873C479.428,178.182 479.499,178.474 479.607,178.742C479.94,178.543 480.278,178.413 480.666,178.369L480.666,177.873ZM466,159.123C466.391,159.167 466.732,159.301 467.059,159.496C467.167,159.229 467.238,158.936 467.264,158.627L466,158.627L466,159.123ZM466,158.127L467.264,158.127C467.238,157.818 467.167,157.526 467.059,157.258C466.727,157.457 466.389,157.587 466,157.63L466,158.127ZM486.228,181.024C485.759,181.834 485.291,182.291 485.28,182.302L484.923,182.294L483.742,181.036C483.63,180.671 483.701,180.973 483.701,180.444C483.701,179.661 483.444,178.983 482.666,178.872L482.666,180.667L482.416,180.917L480.916,180.917L480.666,180.667L480.666,178.874C480.218,178.938 479.939,179.12 479.646,179.312C479.516,179.404 479.348,179.354 479.28,179.225C478.748,178.214 478.776,176.974 479.28,176.021C479.343,175.901 479.495,175.851 479.617,175.916C479.695,175.957 480.067,176.286 480.666,176.372L480.666,173.892C480.387,173.758 480.146,173.587 479.919,173.375C478.034,175.181 474.719,177.245 475.71,178.42C476.231,178.436 476.731,178.565 476.862,179.073C476.961,179.458 476.803,179.869 477.005,180.013C477.142,180.11 477.15,180.319 477.003,180.422C477.098,180.446 477.317,180.508 477.391,180.573C477.51,180.679 477.5,180.859 477.38,180.954C477.327,180.996 477.245,181.032 477.17,181.204C477.123,181.311 477.094,181.448 477.097,181.598L477.542,181.729L477.676,182.112C477.326,182.616 477.029,182.964 476.848,183.511C476.636,184.158 477.445,184.454 476.746,185.693C477.221,185.903 477.293,186.481 476.973,186.882L477.008,186.908L477.22,189.374L477.057,189.63C473.623,190.884 470.443,189.579 468.767,186.733L468.799,186.437L470.119,185.014C468.566,183.635 468.176,181.793 468.176,179.717C468.176,179.451 468.282,179.19 468.496,178.997C467.334,178.442 466.322,177.621 465.616,176.567L464.25,176.567L464,176.317L464,167.477C463.435,167.361 462.987,167.096 462.983,166.516C462.983,166.398 463.005,166.279 463.061,166.173C462.793,165.87 462.77,165.478 462.938,165.175C462.78,164.885 462.802,164.542 462.976,164.291C462.76,163.813 463.102,163.219 464,163.124L464,159.627C463.752,159.663 463.534,159.75 463.354,159.94C463.054,160.254 462.965,160.765 462.965,161.199C462.965,161.415 462.987,161.569 462.989,161.58L462.924,161.79L461.743,163.048L461.387,163.056C461.375,163.045 460.907,162.589 460.439,161.779C459.153,159.554 459.222,157.081 460.439,154.976C460.907,154.166 461.375,153.709 461.387,153.698L461.743,153.706L462.924,154.964C462.999,155.206 462.99,155.165 462.986,155.197C462.926,155.672 462.979,156.318 463.268,156.711C463.448,156.958 463.695,157.084 464,157.128L464,155.333L464.25,155.083L465.75,155.083L466,155.333L466,157.126C466.449,157.062 466.729,156.878 467.021,156.688C467.15,156.596 467.319,156.646 467.387,156.775C467.913,157.777 467.896,159.011 467.387,159.979L467.377,159.994L467.368,160.009C467.297,160.108 467.158,160.142 467.049,160.084C466.971,160.043 466.598,159.714 466,159.628L466,162.107C466.28,162.242 466.52,162.414 466.747,162.625C468.636,160.815 471.946,158.754 470.956,157.58C470.433,157.564 469.935,157.434 469.804,156.927C469.706,156.543 469.863,156.131 469.661,155.987C469.524,155.89 469.516,155.681 469.663,155.578C469.568,155.554 469.349,155.492 469.275,155.427C469.146,155.311 469.172,155.109 469.313,155.026C469.498,154.917 469.574,154.618 469.57,154.402L469.125,154.271L468.99,153.888C469.345,153.378 469.639,153.033 469.818,152.489C470.033,151.835 469.22,151.549 469.921,150.307C469.444,150.097 469.374,149.518 469.693,149.118L469.659,149.092L469.446,146.626L469.61,146.37C473.03,145.121 476.216,146.409 477.899,149.267L477.867,149.563L476.548,150.986C478.1,152.365 478.491,154.207 478.491,156.283C478.491,156.545 478.386,156.808 478.17,157.003C479.333,157.558 480.344,158.379 481.05,159.433L482.416,159.433L482.666,159.683L482.666,168.523C483.232,168.639 483.679,168.904 483.683,169.484C483.683,169.602 483.661,169.721 483.606,169.826C483.869,170.125 483.9,170.516 483.729,170.825C483.895,171.13 483.854,171.473 483.69,171.709C483.907,172.19 483.562,172.781 482.666,172.876L482.666,176.373C482.914,176.337 483.133,176.25 483.313,176.06C483.612,175.746 483.701,175.235 483.701,174.801C483.701,174.585 483.679,174.431 483.678,174.42L483.742,174.21L484.923,172.952L485.28,172.944C485.291,172.955 485.759,173.411 486.228,174.221C487.511,176.441 487.447,178.915 486.228,181.024ZM475.476,183.929C475.613,183.927 475.724,183.814 475.723,183.676C475.721,183.488 475.721,183.488 475.719,183.301C475.717,183.163 475.604,183.052 475.466,183.054C475.327,183.055 475.217,183.168 475.219,183.306C475.221,183.494 475.221,183.494 475.223,183.681C475.224,183.819 475.337,183.93 475.476,183.929ZM477.402,165.552L477.895,165.466L477.81,164.972L477.316,165.058L477.402,165.552ZM474.507,160.748C474.221,160.647 474.33,160.686 474.033,160.582L473.867,161.054L474.341,161.22L474.507,160.748ZM476.818,162.672C476.635,162.431 476.705,162.523 476.515,162.272L476.116,162.575L476.42,162.975L476.818,162.672ZM475.811,161.54C475.558,161.348 475.65,161.418 475.411,161.235L475.107,161.633L475.507,161.938L475.811,161.54ZM473.021,160.399C472.718,160.394 472.833,160.396 472.519,160.39L472.51,160.89L473.012,160.899L473.021,160.399ZM477.531,164.002C477.406,163.713 477.452,163.819 477.332,163.541L476.873,163.739L477.072,164.2L477.531,164.002ZM471.642,161.022L471.51,160.54L471.026,160.672L471.158,161.154L471.642,161.022ZM471.444,152.319C471.446,152.506 471.446,152.506 471.448,152.694C471.449,152.832 471.339,152.945 471.201,152.946C471.063,152.948 470.949,152.837 470.948,152.699C470.946,152.512 470.946,152.512 470.944,152.324C470.942,152.186 471.053,152.073 471.191,152.071C471.329,152.07 471.442,152.181 471.444,152.319Z" style="fill:rgb(31,31,31);fill-rule:nonzero;"/>
        </g>
    </g>
</svg>
