<?xml version="1.0" encoding="UTF-8" standalone="no"?>
<!DOCTYPE svg PUBLIC "-//W3C//DTD SVG 1.1//EN" "http://www.w3.org/Graphics/SVG/1.1/DTD/svg11.dtd">
<svg width="100%" height="100%" viewBox="0 0 41 56" version="1.1" xmlns="http://www.w3.org/2000/svg" xmlns:xlink="http://www.w3.org/1999/xlink" xml:space="preserve" xmlns:serif="http://www.serif.com/" style="fill-rule:evenodd;clip-rule:evenodd;stroke-linejoin:round;stroke-miterlimit:2;">
    <g transform="matrix(1,0,0,1,-496,-20)">
        <g>
            <path d="M534.167,76L499.167,76C497.786,76 496.667,74.881 496.667,73.5L496.667,22.5C496.667,21.12 497.786,20 499.167,20L534.167,20C535.548,20 536.667,21.12 536.667,22.5L536.667,73.5C536.667,74.881 535.548,76 534.167,76Z" style="fill:white;fill-rule:nonzero;"/>
            <path d="M504.197,31.533C503.904,31.24 503.429,31.24 503.136,31.533L502.814,31.854C502.896,31.566 503.06,31.418 503.197,31.281C503.49,30.988 503.489,30.513 503.197,30.22C503.051,30.074 502.859,30.001 502.668,30C502.477,30.001 502.282,30.074 502.136,30.22C501.844,30.513 501.844,30.988 502.136,31.281C502.273,31.418 502.438,31.566 502.519,31.854L502.197,31.533C501.904,31.24 501.429,31.24 501.136,31.533C500.844,31.826 500.844,32.3 501.136,32.593C501.429,32.886 501.904,32.886 502.197,32.593L502.567,32.223L502.568,32.244C502.575,32.568 502.523,33.081 502.166,33.438L502.166,33.563L503.166,33.563L503.166,33.438C502.812,33.082 502.758,32.574 502.764,32.249L502.766,32.223L503.136,32.593C503.429,32.886 503.904,32.886 504.197,32.593C504.49,32.3 504.49,31.826 504.197,31.533Z" style="fill:rgb(31,31,31);fill-rule:nonzero;"/>
            <path d="M529.136,64.468C529.429,64.761 529.904,64.761 530.197,64.468L530.519,64.146C530.438,64.435 530.273,64.583 530.136,64.72C529.844,65.013 529.844,65.488 530.136,65.781C530.282,65.927 530.474,66 530.665,66C530.856,66 531.051,65.927 531.197,65.781C531.49,65.488 531.49,65.013 531.197,64.72C531.06,64.583 530.896,64.435 530.814,64.146L531.136,64.468C531.429,64.761 531.904,64.761 532.197,64.468C532.49,64.175 532.49,63.701 532.197,63.408C531.904,63.115 531.429,63.115 531.136,63.408L530.766,63.778L530.765,63.757C530.758,63.433 530.81,62.92 531.167,62.563L531.167,62.438L530.167,62.438L530.167,62.563C530.521,62.918 530.575,63.427 530.569,63.752L530.567,63.778L530.197,63.408C529.904,63.115 529.429,63.115 529.136,63.408C528.844,63.701 528.844,64.175 529.136,64.468Z" style="fill:rgb(31,31,31);fill-rule:nonzero;"/>
            <path d="M502.674,24.256C502.314,24.256 502.037,24.415 501.842,24.735C501.646,25.054 501.548,25.557 501.548,26.243C501.548,26.906 501.641,27.398 501.824,27.719C502.009,28.04 502.285,28.201 502.653,28.201C503.012,28.201 503.29,28.04 503.486,27.718C503.684,27.396 503.782,26.892 503.782,26.205C503.782,25.542 503.689,25.051 503.506,24.733C503.322,24.415 503.045,24.256 502.674,24.256ZM504.338,29.716C504.127,29.716 503.945,29.672 503.794,29.582C503.643,29.494 503.503,29.388 503.375,29.267C503.247,29.146 503.119,29.021 502.992,28.893C502.865,28.765 502.721,28.663 502.558,28.585C502.241,28.581 501.965,28.525 501.727,28.416C501.489,28.308 501.293,28.155 501.138,27.958C500.982,27.761 500.866,27.522 500.789,27.242C500.711,26.962 500.672,26.65 500.672,26.307C500.672,25.923 500.72,25.58 500.814,25.277C500.91,24.975 501.047,24.72 501.224,24.514C501.401,24.307 501.619,24.149 501.877,24.04C502.135,23.93 502.424,23.875 502.744,23.875C503.065,23.875 503.348,23.928 503.589,24.035C503.83,24.142 504.029,24.293 504.188,24.49C504.346,24.687 504.465,24.926 504.545,25.207C504.624,25.489 504.664,25.803 504.664,26.15C504.664,26.763 504.54,27.271 504.293,27.674C504.045,28.078 503.707,28.347 503.275,28.483C503.381,28.522 503.479,28.568 503.571,28.621C503.664,28.674 503.756,28.731 503.85,28.791C503.996,28.892 504.143,28.977 504.285,29.044C504.43,29.112 504.588,29.146 504.763,29.146L504.92,29.141L505.057,29.123L505.135,29.423C505.068,29.487 504.963,29.552 504.816,29.618C504.67,29.684 504.51,29.716 504.338,29.716Z" style="fill:rgb(31,31,31);fill-rule:nonzero;"/>
            <path d="M530.656,71.745C531.016,71.745 531.293,71.585 531.488,71.266C531.684,70.947 531.782,70.444 531.782,69.758C531.782,69.095 531.689,68.603 531.506,68.282C531.321,67.96 531.045,67.8 530.677,67.8C530.318,67.8 530.04,67.961 529.844,68.283C529.646,68.605 529.548,69.109 529.548,69.796C529.548,70.459 529.641,70.95 529.824,71.268C530.008,71.586 530.285,71.745 530.656,71.745ZM528.992,66.285C529.203,66.285 529.385,66.329 529.536,66.418C529.688,66.507 529.827,66.613 529.955,66.734C530.083,66.855 530.211,66.98 530.338,67.108C530.465,67.236 530.609,67.338 530.772,67.416C531.089,67.42 531.365,67.476 531.604,67.585C531.841,67.693 532.037,67.846 532.192,68.043C532.348,68.24 532.464,68.478 532.541,68.759C532.619,69.039 532.658,69.351 532.658,69.694C532.658,70.078 532.61,70.421 532.516,70.724C532.42,71.026 532.283,71.281 532.106,71.487C531.929,71.694 531.711,71.852 531.453,71.961C531.195,72.071 530.906,72.126 530.586,72.126C530.265,72.126 529.982,72.073 529.741,71.966C529.5,71.859 529.301,71.707 529.143,71.511C528.984,71.314 528.865,71.075 528.785,70.793C528.706,70.512 528.666,70.198 528.666,69.851C528.666,69.238 528.79,68.73 529.037,68.327C529.285,67.923 529.623,67.654 530.055,67.518C529.949,67.479 529.852,67.433 529.759,67.38C529.666,67.327 529.574,67.269 529.48,67.209C529.334,67.109 529.188,67.024 529.045,66.957C528.9,66.889 528.742,66.854 528.567,66.854L528.41,66.86L528.273,66.878L528.195,66.578C528.262,66.514 528.367,66.449 528.514,66.383C528.66,66.317 528.82,66.285 528.992,66.285Z" style="fill:rgb(31,31,31);fill-rule:nonzero;"/>
            <path d="M530.228,28.565C529.642,27.979 528.691,27.979 528.105,28.565L527.462,29.208C527.624,28.631 527.953,28.335 528.228,28.061C528.813,27.475 528.813,26.525 528.228,25.94C527.936,25.648 527.553,25.501 527.17,25.5C526.787,25.501 526.397,25.648 526.105,25.94C525.521,26.525 525.52,27.475 526.105,28.061C526.38,28.335 526.71,28.631 526.871,29.208L526.228,28.565C525.642,27.979 524.691,27.979 524.104,28.565C523.52,29.151 523.521,30.101 524.104,30.686C524.691,31.272 525.642,31.272 526.228,30.686L526.969,29.945L526.971,29.986C526.984,30.636 526.881,31.661 526.166,32.375L526.166,32.625L528.166,32.625L528.166,32.375C527.456,31.665 527.35,30.647 527.361,29.997L527.365,29.945L528.105,30.686C528.691,31.272 529.642,31.272 530.228,30.686C530.813,30.101 530.813,29.15 530.228,28.565Z" style="fill:rgb(31,31,31);fill-rule:nonzero;"/>
            <path d="M509.228,67.439C508.642,68.024 507.691,68.024 507.106,67.439L506.462,66.795C506.624,67.373 506.953,67.668 507.228,67.942C507.813,68.528 507.813,69.478 507.228,70.064C506.936,70.356 506.553,70.502 506.171,70.503C505.788,70.502 505.398,70.356 505.106,70.064C504.521,69.478 504.521,68.528 505.106,67.942C505.38,67.668 505.71,67.373 505.871,66.795L505.228,67.439C504.642,68.024 503.692,68.024 503.106,67.439C502.521,66.853 502.521,65.903 503.106,65.317C503.691,64.731 504.642,64.731 505.228,65.317L505.969,66.059L505.971,66.017C505.984,65.367 505.882,64.343 505.167,63.628L505.167,63.378L507.167,63.378L507.167,63.628C506.456,64.339 506.35,65.356 506.361,66.006L506.365,66.059L507.106,65.317C507.692,64.731 508.642,64.731 509.228,65.317C509.813,65.903 509.813,66.853 509.228,67.439Z" style="fill:rgb(31,31,31);fill-rule:nonzero;"/>
            <path d="M500.667,36L500.667,71.75L500.917,72L525.667,72L525.667,71.5L501.167,71.5L501.167,36L500.667,36ZM532.667,60L532.167,60L532.167,24.5L507.667,24.5L507.667,24L532.417,24L532.667,24.25L532.667,60Z" style="fill:rgb(31,31,31);fill-rule:nonzero;"/>
            <path d="M519.31,69.431C518.44,69.34 517.71,69 517.08,68.38L516.719,68.391C516.15,69.04 515.44,69.42 514.55,69.57C513.93,68.9 513.599,68.141 513.55,67.26L513.219,67.04C512.36,67.351 511.52,67.34 510.68,67.02C511.736,66.093 511.986,65.338 512.27,64.55C513.728,66.008 515.914,66.772 517.95,66.73C518.05,66.73 518.15,66.71 518.24,66.71L518.27,66.721L518.32,66.71L518.349,66.701C518.51,66.69 518.659,66.681 518.82,66.661C518.741,67.524 519.005,68.618 519.31,69.431Z" style="fill:rgb(249,203,25);fill-rule:nonzero;"/>
            <path d="M518.96,65.76C518.979,65.931 518.82,66.13 518.51,66.21C516.309,66.348 515.133,65.166 515.08,63.431C515.08,62.313 515.539,61.275 515.08,60.54C513.494,57.972 515.896,58.438 516.08,56.201C516.302,56.149 516.482,56.184 517.44,55.721C517.809,56.389 517.723,57.475 517.03,57.831C515.262,58.75 514.723,59.977 516.07,61.51C516.716,62.241 515.517,63.924 516.31,64.851C517.084,65.789 518.896,65.089 518.96,65.76Z" style="fill:rgb(35,75,194);fill-rule:nonzero;"/>
            <path d="M514.58,63.44C514.59,63.78 514.69,64.98 515.57,65.831C512.046,64.423 513.911,60.557 513.57,59.38C513.13,58.06 513.088,57.214 514.21,56.03C514.669,56.201 515.13,56.27 515.57,56.26C515.339,58.026 512.916,58.007 514.659,60.8C514.978,61.325 514.58,62.405 514.58,63.44Z" style="fill:rgb(35,75,194);fill-rule:nonzero;"/>
            <path d="M513.349,64.61C513.063,64.375 513.059,64.403 512.65,63.96C510.373,61.149 512.267,59.812 512.34,58.601C512.37,58.23 512.2,57.86 512.02,57.51C511.473,56.434 512.623,55.349 513.71,55.851C512.419,57.311 512.76,58.471 513.05,59.4C513.323,60.286 512.318,62.686 513.349,64.61Z" style="fill:rgb(35,75,194);fill-rule:nonzero;"/>
            <path d="M520.69,54.391L517.719,52.51C519.919,51.52 521.46,50.54 522.289,48.86C522.75,47.911 522.87,46.96 522.68,45.871C523.76,45.36 524.62,44.471 525.08,43.371C526.891,48.162 524.991,52.012 520.69,54.391Z" style="fill:rgb(201,49,18);fill-rule:nonzero;"/>
            <path d="M515.62,43.491C513.409,44.48 511.87,45.46 511.05,47.141C510.58,48.09 510.46,49.04 510.65,50.13C509.58,50.641 508.72,51.53 508.26,52.63C506.431,47.79 508.38,43.958 512.65,41.61L515.62,43.491Z" style="fill:rgb(201,49,18);fill-rule:nonzero;"/>
            <path d="M517.714,54.581L516.447,53.778L516.715,53.356L517.981,54.159L517.714,54.581ZM514.758,52.707L513.491,51.904L513.758,51.482L515.025,52.286L514.758,52.707ZM510.397,51.69L510.179,51.24C510.668,51.003 511.192,50.882 511.737,50.879L511.737,51.379C511.269,51.382 510.817,51.486 510.397,51.69ZM509.658,57.457C509.223,57.145 508.854,56.734 508.592,56.269L509.027,56.023C509.254,56.426 509.572,56.781 509.949,57.049L509.658,57.457ZM508.143,54.2C508.188,53.658 508.351,53.145 508.625,52.676L509.057,52.929C508.819,53.333 508.68,53.774 508.641,54.242L508.143,54.2ZM514.09,50.811C511.317,49.002 507.38,50.962 507.38,54.5C507.38,56.831 509.22,58.73 511.52,58.86C511.604,58.551 511.688,58.426 511.32,57.741C510.563,56.225 512.172,54.679 513.7,55.4C514.55,55.8 515.3,55.88 516.07,55.641C517.153,55.307 517.188,55.06 517.43,55.221L517.49,55.25L517.51,55.29L517.52,55.29C517.52,55.356 517.547,55.245 517.76,55.76C518.53,55.44 519.36,55.081 520.169,54.661L514.09,50.811Z" style="fill:rgb(249,203,25);fill-rule:nonzero;"/>
            <path d="M524.708,43.325L524.276,43.072C524.514,42.668 524.653,42.227 524.692,41.759L525.19,41.801C525.146,42.343 524.982,42.856 524.708,43.325ZM523.383,38.952L523.675,38.544C524.11,38.855 524.479,39.267 524.741,39.732L524.306,39.978C524.078,39.575 523.761,39.22 523.383,38.952ZM521.596,45.122L521.596,44.622C522.064,44.619 522.516,44.515 522.935,44.311L523.154,44.761C522.664,44.998 522.141,45.119 521.596,45.122ZM519.573,44.519L518.307,43.715L518.575,43.293L519.841,44.097L519.573,44.519ZM516.617,42.645L515.352,41.842L515.619,41.42L516.886,42.223L516.617,42.645ZM521.81,37.141C521.722,37.463 521.651,37.591 522.01,38.26C522.771,39.784 521.159,41.323 519.63,40.601C518.512,40.074 517.588,40.071 516.15,40.811C516.039,40.865 515.952,40.843 515.87,40.76L515.849,40.75L515.82,40.721L515.81,40.706C515.71,40.576 515.64,40.411 515.58,40.241C514.8,40.561 513.979,40.92 513.159,41.34L519.24,45.19C522.104,47.031 525.95,44.959 525.95,41.5C525.95,39.17 524.11,37.27 521.81,37.141Z" style="fill:rgb(249,203,25);fill-rule:nonzero;"/>
            <path d="M521.31,38.491C521.864,39.544 520.719,40.658 519.62,40.15C520.909,38.69 520.58,37.53 520.28,36.601C520.052,35.618 520.987,33.271 519.979,31.391C520.181,31.555 520.224,31.547 520.68,32.04C522.973,34.855 521.065,36.165 520.99,37.4C520.96,37.77 521.13,38.141 521.31,38.491Z" style="fill:rgb(35,75,194);fill-rule:nonzero;"/>
            <path d="M519.13,39.971C518.659,39.8 518.21,39.73 517.76,39.741C517.987,37.999 520.413,37.993 518.669,35.201C518.341,34.659 518.775,33.621 518.75,32.561C518.74,32.21 518.65,31.02 517.76,30.17C521.296,31.587 519.38,35.45 519.81,36.741C520.099,37.681 520.38,38.641 519.13,39.971Z" style="fill:rgb(35,75,194);fill-rule:nonzero;"/>
            <path d="M517.25,39.8C517.029,39.851 516.847,39.818 515.89,40.28C515.521,39.611 515.607,38.535 516.3,38.17C517.477,37.559 518.354,36.688 517.89,35.451L517.88,35.451C517.37,34.134 516.809,34.826 517.18,32.971C517.31,32.311 517.44,31.641 517.03,31.15C516.236,30.217 514.432,30.899 514.37,30.241C514.36,30.07 514.51,29.86 514.83,29.79C516.979,29.637 518.195,30.813 518.25,32.57C518.276,33.565 517.779,34.707 518.25,35.46C519.836,38.029 517.435,37.562 517.25,39.8Z" style="fill:rgb(35,75,194);fill-rule:nonzero;"/>
            <path d="M522.65,28.98C521.594,29.931 521.354,30.662 521.07,31.451L520.9,31.29C520.15,30.601 519.26,30.081 518.3,29.741L518.26,29.721C518.073,29.721 517.333,29.27 515.38,29.27L515.349,29.28C515.26,29.28 515.169,29.29 515.07,29.3L515.02,29.29L514.96,29.311C514.81,29.32 514.659,29.32 514.51,29.34C514.591,28.446 514.33,27.396 514.02,26.57C514.89,26.661 515.62,27 516.25,27.621L516.61,27.61C517.19,26.96 517.9,26.581 518.789,26.431C519.409,27.101 519.729,27.86 519.78,28.741L520.11,28.96C520.979,28.65 521.81,28.661 522.65,28.98Z" style="fill:rgb(249,203,25);fill-rule:nonzero;"/>
            <path d="M519.45,46.081C519.4,49.121 516.682,50.612 515.443,50.752C514.867,50.385 514.568,50.164 513.88,49.92C513.94,46.88 516.648,45.389 517.888,45.248C518.46,45.613 518.76,45.837 519.45,46.081Z" style="fill:rgb(35,75,194);fill-rule:nonzero;"/>
            <path d="M510.896,51.689C511.303,51.493 511.756,51.381 512.236,51.379L512.236,50.879C511.68,50.882 511.15,51.011 510.679,51.24L510.896,51.689ZM513.991,51.905L515.258,52.707L515.525,52.285L514.258,51.482L513.991,51.905ZM509.527,56.023L509.092,56.268C509.355,56.738 509.721,57.144 510.158,57.457L510.448,57.049C510.071,56.78 509.755,56.429 509.527,56.023ZM517.215,53.356L516.947,53.778L518.214,54.581L518.481,54.159L517.215,53.356ZM509.557,52.929L509.125,52.676C508.859,53.13 508.688,53.648 508.643,54.2L509.141,54.241C509.181,53.766 509.327,53.321 509.557,52.929ZM522.435,44.311C522.03,44.508 521.577,44.62 521.097,44.622L521.097,45.122C521.653,45.119 522.182,44.99 522.654,44.761L522.435,44.311ZM519.341,44.096L518.075,43.293L517.807,43.716L519.073,44.519L519.341,44.096ZM523.776,43.072L524.208,43.325C524.474,42.871 524.645,42.353 524.69,41.801L524.192,41.76C524.151,42.235 524.005,42.68 523.776,43.072ZM516.117,42.645L516.386,42.223L515.119,41.419L514.852,41.842L516.117,42.645ZM523.806,39.978L524.241,39.733C523.978,39.263 523.612,38.856 523.175,38.544L522.885,38.952C523.262,39.221 523.578,39.572 523.806,39.978ZM521.578,46.862L521.081,46.814L521.034,47.313L521.531,47.36L521.578,46.862ZM521.232,48.315L520.781,48.098L520.564,48.55L521.015,48.767C521.151,48.483 521.101,48.588 521.232,48.315ZM519.412,50.593L519.125,50.185L518.715,50.473L519.002,50.882C519.26,50.701 519.164,50.768 519.412,50.593ZM520.469,49.578L520.096,49.247L519.763,49.623L520.137,49.954C520.346,49.718 520.27,49.805 520.469,49.578ZM518.179,51.347L517.955,50.899L517.507,51.123L517.729,51.571L518.179,51.347ZM511.753,49.138L512.25,49.187L512.3,48.689L511.803,48.639L511.753,49.138ZM512.862,46.423L513.237,46.754C513.445,46.519 513.362,46.613 513.57,46.379L513.195,46.047L512.862,46.423ZM514.331,45.119L513.919,45.408L514.208,45.816C514.466,45.635 514.362,45.708 514.617,45.528L514.331,45.119ZM512.101,47.686L512.551,47.903C512.688,47.62 512.638,47.724 512.768,47.451L512.318,47.234L512.101,47.686ZM515.826,44.877L515.603,44.43L515.154,44.654L515.378,45.102L515.826,44.877ZM518.927,56.285L519.107,56.751L519.573,56.569L519.393,56.103L518.927,56.285ZM524.202,53.23L524.551,53.589L524.91,53.239L524.562,52.88C524.337,53.099 524.42,53.019 524.202,53.23ZM526.904,44.983L527.392,44.868L527.276,44.379L526.79,44.494C526.861,44.8 526.835,44.687 526.904,44.983ZM527.274,49.125L526.796,48.979C526.745,49.146 526.702,49.289 526.649,49.459L527.128,49.605L527.274,49.125ZM527.004,47.992L527.501,48.05L527.56,47.551L527.063,47.494C527.026,47.806 527.039,47.691 527.004,47.992ZM527.088,46.485L527.587,46.453L527.555,45.952L527.056,45.984C527.076,46.298 527.068,46.182 527.088,46.485ZM523.015,54.179L523.309,54.583L523.715,54.288L523.419,53.883C523.169,54.066 523.258,54.002 523.015,54.179ZM521.713,54.98L521.96,55.414L522.396,55.166L522.149,54.731C521.877,54.886 521.974,54.831 521.713,54.98ZM525.928,52.009L525.524,51.713C525.339,51.966 525.413,51.865 525.228,52.118L525.631,52.414L525.928,52.009ZM520.339,55.67L520.554,56.122L521.007,55.906L520.792,55.455C520.517,55.586 520.606,55.543 520.339,55.67ZM526.721,50.623L526.272,50.4C526.133,50.682 526.185,50.578 526.05,50.85L526.497,51.072L526.721,50.623ZM526.749,42.868L526.292,43.071L526.495,43.529L526.952,43.326L526.749,42.868ZM518.34,63.748C518.478,63.748 518.59,63.636 518.59,63.498C518.589,63.369 518.589,63.241 518.589,63.112C518.589,62.974 518.477,62.862 518.339,62.862C518.201,62.862 518.089,62.974 518.089,63.112C518.089,63.241 518.089,63.37 518.09,63.498C518.09,63.636 518.201,63.748 518.34,63.748ZM514.413,39.701L514.21,39.244L513.752,39.447L513.955,39.904L514.413,39.701ZM506.245,49.516L505.746,49.548L505.778,50.049L506.277,50.017C506.257,49.704 506.264,49.816 506.245,49.516ZM507.283,45.151L506.836,44.929L506.612,45.378L507.06,45.601C507.199,45.321 507.149,45.421 507.283,45.151ZM506.329,48.009L505.832,47.951L505.773,48.45L506.271,48.508C506.307,48.196 506.294,48.308 506.329,48.009ZM506.683,46.541L506.205,46.395L506.059,46.875L506.536,47.021C506.628,46.724 506.595,46.83 506.683,46.541ZM506.429,51.018L505.941,51.133L506.057,51.622L506.543,51.507C506.473,51.206 506.497,51.31 506.429,51.018ZM512.994,40.331L512.779,39.879L512.326,40.095L512.539,40.546C512.822,40.413 512.722,40.46 512.994,40.331ZM508.105,43.883L507.702,43.587L507.405,43.992L507.809,44.288C507.993,44.036 507.927,44.126 508.105,43.883ZM509.131,42.77L508.782,42.412L508.423,42.762L508.771,43.121C508.984,42.914 508.908,42.988 509.131,42.77ZM511.62,41.021L511.372,40.587L510.937,40.835L511.184,41.269C511.456,41.114 511.356,41.171 511.62,41.021ZM510.318,41.823L510.024,41.418L509.618,41.713L509.912,42.118C510.161,41.937 510.076,41.998 510.318,41.823ZM506.381,52.675L506.584,53.132L507.041,52.93L506.837,52.472L506.381,52.675ZM527.129,58.92C527.021,58.92 526.965,58.956 526.919,58.993C526.751,59.128 526.525,59.423 526.399,59.598C526.609,59.632 526.993,59.684 527.205,59.656L527.272,59.642L527.442,59.502C527.606,59.251 527.426,58.92 527.129,58.92ZM526.755,60.719C526.62,60.551 526.324,60.325 526.15,60.199C526.116,60.409 526.084,60.671 526.084,60.863L526.105,61.072C526.222,61.351 526.601,61.386 526.766,61.135C526.845,61.015 526.855,60.844 526.755,60.719ZM525.751,57.243L525.927,57.187L525.935,57.175L525.908,57.12L525.763,56.999C525.617,56.914 525.377,56.842 525.063,56.841L524.825,56.667L524.556,55.819C524.514,55.687 524.587,55.547 524.719,55.505C524.85,55.463 524.99,55.536 525.032,55.668L525.249,56.35C525.596,56.376 525.973,56.481 526.221,56.722C526.834,56.675 526.858,55.913 525.607,56.143C525.472,56.168 525.341,56.078 525.316,55.942C525.291,55.807 525.381,55.676 525.517,55.651C525.882,55.584 526.289,55.566 526.629,55.712L526.528,55.551C526.306,55.383 525.874,55.421 525.601,55.472C525.465,55.497 525.334,55.408 525.309,55.272C525.283,55.136 525.373,55.005 525.509,54.98C525.876,54.912 526.287,54.893 526.629,55.04L526.528,54.879C526.311,54.714 525.891,54.747 525.622,54.795C525.485,54.82 525.356,54.729 525.332,54.593C525.308,54.457 525.397,54.328 525.533,54.303C525.893,54.239 526.294,54.223 526.629,54.367C526.607,54.153 526.276,54.088 526.062,54.084C525.933,54.081 525.87,53.994 525.566,53.722C524.895,54.419 524.146,55.004 523.3,55.534C523.71,56.099 524.146,56.843 524.677,57.18C524.958,57.247 525.456,57.292 525.751,57.243ZM525.549,59.95C525.338,59.916 524.954,59.865 524.743,59.892L524.676,59.906L524.506,60.046C524.342,60.296 524.522,60.628 524.819,60.627C524.928,60.627 524.983,60.592 525.028,60.555C525.197,60.42 525.423,60.124 525.549,59.95ZM526.877,50.995C528.622,47.446 528.008,43.913 525.873,40.621C525.998,41.307 525.974,41.973 525.823,42.615C526.954,45.269 527.187,47.851 525.928,50.408C524.392,53.532 521.508,54.948 518.379,56.254C518.429,56.641 518.4,57.032 518.268,57.391C521.505,56.003 525.046,54.715 526.877,50.995ZM518.265,55.761C519.056,55.43 519.877,55.077 520.681,54.665L514.594,50.806C512.88,49.72 510.619,49.953 509.161,51.41C507.45,53.122 507.46,55.876 509.144,57.58C509.887,58.332 510.898,58.813 512.024,58.872C512.116,58.594 512.123,58.443 512.021,58.171C511.866,57.741 511.627,57.518 511.627,56.944C511.628,55.728 512.966,54.814 514.202,55.402C514.979,55.772 515.749,55.897 516.573,55.639C517.598,55.318 517.671,55.094 517.886,55.176C518.052,55.239 518.206,55.593 518.265,55.761ZM517.71,55.728C517.322,55.912 516.781,56.126 516.346,56.212C516.235,57.597 515.099,58.013 514.847,58.774C514.659,59.337 515.018,60.035 515.331,60.54C515.984,61.59 514.797,63.097 515.671,64.789C516.263,65.932 517.459,66.299 518.739,66.217C519.37,66.081 519.435,65.418 518.517,65.419C517.879,65.419 517.073,65.387 516.615,64.92C515.713,64.004 516.982,62.26 516.32,61.51C514.986,60.002 515.487,58.765 517.278,57.83C518.017,57.442 518.021,56.322 517.71,55.728ZM517.293,59.042L517.189,58.453C516.661,58.771 516.093,59.237 516.067,59.851C516.401,59.515 516.862,59.238 517.293,59.042ZM516.206,60.471C516.327,60.726 516.508,60.967 516.695,61.178C516.935,61.448 517.021,61.782 517.021,62.147C517.018,63.571 515.922,64.921 518.38,64.92C518.604,64.92 518.87,64.913 519.164,65.039L519.192,64.868L519.161,64.742C519.008,64.513 518.202,64.618 517.675,64.323C517.554,64.255 517.512,64.103 517.578,63.982C517.646,63.862 517.799,63.819 517.919,63.887C518.228,64.063 518.771,64.038 519.159,64.168C519.109,63.835 519.102,63.579 519.219,63.227C519.367,62.778 519.583,62.428 519.848,62.042L519.294,61.878C519.163,61.839 519.086,61.7 519.125,61.568C519.164,61.438 519.297,61.364 519.427,61.397C519.442,61.232 519.484,61.08 519.565,60.934C519.442,60.906 519.336,60.897 519.231,60.898C519.093,60.901 518.979,60.791 518.976,60.653C518.973,60.515 519.083,60.401 519.221,60.398C519.482,60.393 519.419,60.451 519.296,60.308C519.016,59.984 519.19,59.503 519.072,59.255L519.002,59.2C518.504,58.988 516.693,59.666 516.206,60.471ZM519.313,66.773L519.32,66.661C518.081,66.826 516.804,66.703 515.607,66.291L515.546,66.27C514.502,65.901 513.547,65.319 512.766,64.548L512.589,65.05C512.318,65.809 511.772,66.495 511.181,67.024C511.995,67.33 512.83,67.356 513.721,67.04L514.054,67.263C514.099,68.104 514.401,68.873 515.047,69.573C515.961,69.419 516.667,69.013 517.219,68.389L517.581,68.376C518.227,69.015 518.972,69.345 519.813,69.429C519.518,68.63 519.265,67.626 519.313,66.773ZM515.034,61.368C515.034,61.173 515.01,60.969 514.906,60.804C513.406,58.386 515.05,57.978 515.635,56.901C515.732,56.72 515.806,56.519 515.838,56.272C515.352,56.292 514.891,56.205 514.44,56.042C513.169,57.385 513.491,58.332 513.814,59.381C514.107,60.357 512.754,63.496 514.676,65.178C515.013,65.472 515.451,65.713 515.851,65.846C515.414,65.44 515.151,64.946 515.003,64.47C514.604,63.195 515.036,62.211 515.034,61.368ZM512.931,63.998C513.141,64.223 513.365,64.433 513.604,64.626C512.578,62.727 513.539,60.167 513.336,59.527C513.203,59.089 513.024,58.582 513.023,57.994C513.021,57.164 513.395,56.465 513.948,55.838C512.859,55.358 511.725,56.44 512.27,57.509C512.642,58.239 512.695,58.55 512.427,59.227C512.229,59.751 511.774,60.465 511.774,61.366C511.775,62.345 512.309,63.243 512.931,63.998ZM507.749,52.642C508.208,51.533 509.063,50.631 510.138,50.111C510.083,49.799 510.054,49.495 510.055,49.199C510.053,47.487 511.013,45.993 512.465,44.942C513.216,44.398 514.107,43.941 515.114,43.489L512.145,41.606C510.288,42.633 508.783,43.926 507.854,45.814C506.761,48.037 506.856,50.288 507.749,52.642ZM507.51,53.386C506.376,50.726 506.148,48.146 507.405,45.593C508.941,42.469 511.824,41.053 514.953,39.747C514.904,39.362 514.932,38.969 515.065,38.61C512.796,39.583 510.299,40.513 508.369,42.382C506.472,44.221 505.441,46.779 505.44,49.219C505.44,51.436 506.253,53.519 507.46,55.38C507.335,54.695 507.359,54.029 507.51,53.386ZM507.767,42.279C508.449,41.571 509.204,40.987 510.033,40.467C509.623,39.902 509.187,39.158 508.656,38.821C508.36,38.75 507.723,38.689 507.456,38.789L507.398,38.826L507.425,38.881L507.57,39.002C507.716,39.087 507.956,39.159 508.271,39.16L508.508,39.334L508.777,40.182C508.819,40.313 508.746,40.454 508.614,40.496C508.482,40.538 508.343,40.465 508.301,40.333L508.084,39.651C507.737,39.624 507.36,39.519 507.112,39.279C506.5,39.326 506.474,40.088 507.726,39.858C507.861,39.833 507.992,39.923 508.017,40.059C508.042,40.194 507.952,40.325 507.816,40.35C507.45,40.417 507.043,40.435 506.704,40.289L506.805,40.449C507.027,40.618 507.46,40.58 507.732,40.529C507.868,40.504 507.999,40.593 508.024,40.729C508.05,40.865 507.96,40.996 507.824,41.021C507.456,41.089 507.045,41.108 506.704,40.961L506.805,41.122C507.022,41.286 507.441,41.254 507.711,41.206C507.848,41.181 507.978,41.272 508.001,41.408C508.025,41.543 507.936,41.673 507.799,41.698C507.44,41.762 507.039,41.778 506.704,41.634C506.726,41.848 507.056,41.913 507.271,41.917C507.4,41.92 507.464,42.007 507.767,42.279ZM507.785,36.051C507.996,36.085 508.379,36.136 508.591,36.109L508.658,36.095L508.828,35.955C508.992,35.705 508.813,35.373 508.515,35.373C508.407,35.373 508.352,35.409 508.306,35.446C508.137,35.581 507.912,35.876 507.785,36.051ZM515.068,40.24C514.276,40.571 513.455,40.924 512.651,41.336L518.739,45.195C519.416,45.624 520.216,45.872 521.078,45.872C523.495,45.872 525.453,43.912 525.453,41.497C525.453,40.502 525.121,39.587 524.563,38.853C524.453,38.721 524.342,38.591 524.229,38.464C523.445,37.65 522.406,37.186 521.309,37.129C521.185,37.503 521.206,37.676 521.508,38.265C522.278,39.769 520.659,41.326 519.13,40.599C518.349,40.228 517.58,40.104 516.758,40.362C515.722,40.687 515.661,40.908 515.445,40.825C515.28,40.761 515.127,40.409 515.068,40.24ZM515.623,40.273C516.013,40.087 516.554,39.874 516.987,39.789C517.099,38.401 518.231,37.992 518.486,37.227C518.672,36.665 518.315,35.969 518,35.461C517.349,34.412 518.536,32.904 517.662,31.212C517.072,30.075 515.883,29.701 514.594,29.784C513.961,29.92 513.901,30.582 514.815,30.582C515.456,30.581 516.262,30.616 516.718,31.081C517.62,31.998 516.349,33.74 517.012,34.491C518.335,35.986 517.866,37.225 516.055,38.171C515.315,38.559 515.313,39.679 515.623,40.273ZM516.039,36.958L516.143,37.548C516.672,37.229 517.24,36.764 517.266,36.15C516.93,36.486 516.469,36.763 516.039,36.958ZM517.125,35.53C517.005,35.276 516.826,35.036 516.638,34.823C516.398,34.553 516.313,34.219 516.313,33.854C516.314,32.43 517.412,31.08 514.953,31.081C514.729,31.081 514.463,31.088 514.168,30.962L514.141,31.132L514.172,31.259C514.325,31.488 515.13,31.383 515.658,31.678C515.779,31.746 515.82,31.898 515.754,32.019C515.687,32.139 515.534,32.182 515.413,32.114C515.104,31.937 514.56,31.964 514.174,31.833C514.223,32.161 514.232,32.418 514.114,32.774C513.966,33.223 513.75,33.574 513.485,33.959L514.038,34.123C514.169,34.162 514.245,34.301 514.206,34.433C514.168,34.562 514.034,34.637 513.905,34.604C513.89,34.769 513.849,34.921 513.766,35.067C513.896,35.097 513.995,35.103 514.104,35.103C514.241,35.101 514.354,35.211 514.357,35.349C514.359,35.487 514.249,35.601 514.11,35.603C513.849,35.606 513.916,35.552 514.037,35.693C514.317,36.017 514.143,36.498 514.261,36.746L514.331,36.801C514.834,37.015 516.643,36.326 517.125,35.53ZM514.013,29.34C515.268,29.172 516.547,29.304 517.726,29.71L517.787,29.731C518.831,30.1 519.786,30.682 520.567,31.453L520.744,30.951C521.013,30.192 521.56,29.506 522.151,28.977C521.288,28.652 520.452,28.663 519.612,28.96L519.279,28.738C519.234,27.897 518.93,27.127 518.284,26.428C517.373,26.582 516.667,26.986 516.114,27.612L515.75,27.624C515.106,26.986 514.361,26.656 513.52,26.572C513.849,27.461 514.065,28.394 514.013,29.34ZM518.426,35.197C519.926,37.615 518.283,38.023 517.698,39.1C517.601,39.281 517.526,39.482 517.495,39.728C517.979,39.709 518.44,39.795 518.893,39.958C520.164,38.614 519.84,37.665 519.518,36.62C519.224,35.648 520.578,32.505 518.656,30.823C518.323,30.531 517.886,30.289 517.482,30.155C517.918,30.561 518.182,31.055 518.33,31.531C518.828,33.132 517.995,34.503 518.426,35.197ZM520.401,32.003C520.192,31.778 519.968,31.568 519.729,31.374C520.486,32.769 520.164,34.377 520.007,35.746C519.986,35.922 519.943,36.309 519.995,36.474C520.129,36.912 520.309,37.419 520.309,38.007C520.31,38.837 519.938,39.536 519.383,40.163C520.294,40.564 521.206,39.878 521.205,39.057C521.205,38.63 521.005,38.453 520.84,38.001C520.77,37.808 520.724,37.608 520.739,37.404C520.836,36.143 522.731,34.831 520.401,32.003ZM518.219,52.512L521.188,54.395C523.044,53.368 524.55,52.075 525.479,50.187C526.571,47.964 526.477,45.713 525.584,43.359C525.125,44.468 524.271,45.37 523.195,45.89C523.25,46.202 523.278,46.506 523.278,46.801C523.28,48.516 522.318,50.009 520.867,51.059C520.116,51.603 519.226,52.06 518.219,52.512ZM516.052,51.139L517.711,52.19C519.552,51.383 521.448,50.448 522.338,48.642C522.745,47.811 522.861,47.004 522.722,46.087C521.812,46.413 520.847,46.453 519.948,46.24C519.856,48.327 518.539,50.015 516.793,50.853C516.539,50.974 516.289,51.07 516.052,51.139ZM514.404,46.901C515.167,45.877 516.274,45.154 517.281,44.862L515.622,43.811C513.775,44.62 511.883,45.557 510.995,47.359C510.587,48.189 510.471,48.997 510.611,49.914C511.52,49.588 512.484,49.548 513.383,49.761C513.435,48.619 513.839,47.658 514.404,46.901ZM513.88,49.908C514.499,50.126 514.82,50.357 515.443,50.752C516.656,50.611 518.283,49.539 519.013,47.998C519.274,47.444 519.438,46.811 519.452,46.093C518.834,45.874 518.512,45.644 517.888,45.248C516.674,45.39 515.05,46.462 514.32,48.003C514.059,48.556 513.895,49.19 513.88,49.908ZM507.25,35.137L507.229,34.929C507.112,34.65 506.733,34.615 506.568,34.866C506.489,34.986 506.479,35.157 506.579,35.282C506.714,35.45 507.01,35.675 507.184,35.802C507.218,35.592 507.25,35.33 507.25,35.137ZM506.935,36.403C506.725,36.369 506.341,36.317 506.129,36.345L506.062,36.359L505.892,36.499C505.728,36.749 505.908,37.081 506.205,37.081C506.313,37.08 506.369,37.045 506.415,37.008C506.583,36.873 506.809,36.578 506.935,36.403ZM527.86,59.776C527.731,59.973 527.525,60.119 527.268,60.152C527.141,60.168 527.018,60.165 526.902,60.158C527.036,60.278 527.192,60.432 527.261,60.594C527.375,60.87 527.338,61.174 527.184,61.409C526.8,61.997 525.912,61.912 525.644,61.264C525.576,61.099 525.58,60.88 525.59,60.702C525.361,60.957 525.161,61.128 524.819,61.127C524.123,61.127 523.706,60.353 524.088,59.772C524.216,59.576 524.423,59.429 524.681,59.395C524.931,59.364 525.277,59.405 525.527,59.441C525.319,58.93 525.183,58.313 525.191,57.755C524.981,57.741 524.709,57.707 524.511,57.654L524.445,57.626C523.781,57.22 523.323,56.413 522.87,55.794C521.099,56.828 519.232,57.485 517.654,58.207L517.768,58.853C518.155,58.722 518.69,58.595 519.089,58.702C519.854,58.91 519.513,59.809 519.677,59.984L519.726,60.018C519.909,60.104 519.918,60.362 519.74,60.461C519.848,60.489 520.106,60.572 520.185,60.65C520.31,60.773 520.273,60.973 520.128,61.05C519.972,61.132 519.918,61.364 519.922,61.542L520.32,61.661L520.455,62.043C520.145,62.49 519.861,62.874 519.693,63.383C519.479,64.038 519.888,64.336 519.596,65.387C519.748,65.63 519.748,65.925 519.609,66.179L519.836,66.384C519.812,66.82 519.807,66.859 519.807,66.992C519.807,67.794 520.099,68.862 520.419,69.599L520.188,69.95C519.064,69.936 518.156,69.561 517.418,68.906C516.745,69.583 515.929,69.958 514.991,70.088L514.776,70.016C514.117,69.339 513.703,68.545 513.584,67.607C512.61,67.88 511.614,67.811 510.596,67.317L510.558,66.89C511.184,66.42 511.848,65.648 512.117,64.883L512.388,64.12C511.145,62.519 511.079,61.258 511.536,60.04C511.63,59.79 511.733,59.565 511.826,59.359C510.479,59.241 509.229,58.57 508.382,57.463C506.42,55.115 504.94,52.291 504.94,49.219C504.94,46.796 505.901,44.4 507.429,42.648L507.164,42.41C506.311,42.349 506.043,41.74 506.287,41.272C506.169,41.052 506.178,40.809 506.287,40.6C506.166,40.377 506.18,40.133 506.287,39.928C506.054,39.496 506.315,38.94 506.9,38.805C506.909,38.594 507.035,38.431 507.228,38.343C507.355,38.285 507.503,38.259 507.643,38.247C507.653,37.734 507.512,37.147 507.328,36.712C507.17,36.93 506.94,37.225 506.732,37.394C506.602,37.499 506.439,37.581 506.205,37.581C505.508,37.58 505.094,36.805 505.474,36.225C505.603,36.028 505.81,35.882 506.066,35.849C506.194,35.832 506.317,35.836 506.432,35.843C506.299,35.724 506.142,35.569 506.073,35.407C505.96,35.134 505.994,34.83 506.15,34.592C506.533,34.006 507.422,34.088 507.69,34.737C507.757,34.902 507.754,35.121 507.744,35.299C507.972,35.044 508.172,34.873 508.515,34.873C509.208,34.873 509.629,35.645 509.246,36.229C509.117,36.426 508.911,36.572 508.653,36.605C508.403,36.637 508.056,36.596 507.807,36.56C508.014,37.069 508.152,37.691 508.143,38.246C508.353,38.26 508.625,38.294 508.822,38.347L508.888,38.374C509.551,38.781 510.01,39.589 510.462,40.207C512.229,39.174 514.099,38.516 515.679,37.794L515.565,37.147C514.972,37.349 514.067,37.518 513.807,36.958C513.64,36.595 513.771,36.14 513.655,36.017L513.607,35.983C513.424,35.896 513.414,35.639 513.593,35.54C513.477,35.51 513.266,35.437 513.179,35.377C513.023,35.268 513.042,35.037 513.205,34.951C513.361,34.869 513.414,34.637 513.411,34.458L513.012,34.34L512.878,33.958C513.188,33.511 513.471,33.126 513.64,32.618C513.854,31.957 513.443,31.668 513.737,30.614C513.585,30.372 513.584,30.077 513.724,29.822L513.495,29.617C513.52,29.211 513.525,29.143 513.525,29.009C513.526,28.208 513.235,27.14 512.914,26.402L513.146,26.051C514.268,26.064 515.177,26.44 515.914,27.095C516.586,26.419 517.403,26.043 518.341,25.913L518.556,25.985C519.216,26.663 519.63,27.457 519.749,28.394C520.723,28.121 521.719,28.19 522.737,28.684L522.775,29.111C522.148,29.581 521.485,30.354 521.216,31.118L520.945,31.881C522.188,33.482 522.254,34.743 521.797,35.961C521.703,36.211 521.599,36.436 521.507,36.642C522.69,36.746 523.755,37.271 524.545,38.07L524.601,38.128C526.744,40.592 528.393,43.517 528.393,46.782C528.393,49.2 527.435,51.597 525.904,53.353L526.169,53.59C527.027,53.652 527.288,54.265 527.046,54.728C527.165,54.949 527.155,55.192 527.046,55.401C527.167,55.625 527.153,55.868 527.046,56.074C527.28,56.507 527.015,57.061 526.433,57.196C526.424,57.407 526.297,57.571 526.105,57.658C525.978,57.716 525.831,57.741 525.691,57.754C525.681,58.269 525.822,58.855 526.006,59.289C526.163,59.072 526.393,58.777 526.602,58.607C526.732,58.502 526.895,58.42 527.129,58.42C527.825,58.421 528.241,59.194 527.86,59.776ZM515.244,32.503L515.244,32.889C515.244,33.027 515.132,33.139 514.994,33.139C514.854,33.139 514.744,33.027 514.744,32.889L514.744,32.503C514.742,32.365 514.854,32.253 514.992,32.253C515.132,32.253 515.242,32.365 515.244,32.503Z" style="fill:rgb(31,31,31);fill-rule:nonzero;"/>
        </g>
    </g>
</svg>
