<?xml version="1.0" encoding="UTF-8" standalone="no"?>
<!DOCTYPE svg PUBLIC "-//W3C//DTD SVG 1.1//EN" "http://www.w3.org/Graphics/SVG/1.1/DTD/svg11.dtd">
<svg width="100%" height="100%" viewBox="0 0 41 56" version="1.1" xmlns="http://www.w3.org/2000/svg" xmlns:xlink="http://www.w3.org/1999/xlink" xml:space="preserve" xmlns:serif="http://www.serif.com/" style="fill-rule:evenodd;clip-rule:evenodd;stroke-linejoin:round;stroke-miterlimit:2;">
    <g transform="matrix(1,0,0,1,-496,-140)">
        <g>
            <path d="M534.167,196L499.167,196C497.786,196 496.667,194.881 496.667,193.5L496.667,142.5C496.667,141.119 497.786,140 499.167,140L534.167,140C535.548,140 536.667,141.119 536.667,142.5L536.667,193.5C536.667,194.881 535.548,196 534.167,196Z" style="fill:white;fill-rule:nonzero;"/>
            <path d="M502.666,149.688C502.396,150.376 501.041,150.629 501.041,151.688C501.041,152.171 501.433,152.563 501.916,152.563C502.171,152.563 502.397,152.452 502.558,152.278C502.528,152.574 502.431,152.923 502.166,153.188L502.166,153.313L503.166,153.313L503.166,153.188C502.902,152.923 502.805,152.574 502.774,152.279C502.935,152.452 503.162,152.563 503.416,152.563C503.899,152.563 504.291,152.171 504.291,151.688C504.291,150.629 502.937,150.376 502.666,149.688Z" style="fill:rgb(31,31,31);fill-rule:nonzero;"/>
            <path d="M530.667,185.813C530.938,185.124 532.292,184.871 532.292,183.813C532.292,183.329 531.9,182.938 531.417,182.938C531.162,182.938 530.936,183.048 530.775,183.222C530.806,182.926 530.902,182.577 531.167,182.313L531.167,182.188L530.167,182.188L530.167,182.313C530.431,182.577 530.528,182.926 530.559,183.221C530.398,183.048 530.172,182.938 529.917,182.938C529.434,182.938 529.042,183.329 529.042,183.813C529.042,184.871 530.396,185.124 530.667,185.813Z" style="fill:rgb(31,31,31);fill-rule:nonzero;"/>
            <path d="M502.674,144.006C502.314,144.006 502.037,144.165 501.842,144.484C501.646,144.803 501.548,145.306 501.548,145.993C501.548,146.656 501.641,147.148 501.824,147.469C502.009,147.79 502.285,147.95 502.653,147.95C503.012,147.95 503.29,147.79 503.486,147.467C503.684,147.146 503.782,146.641 503.782,145.955C503.782,145.292 503.689,144.801 503.506,144.483C503.322,144.165 503.045,144.006 502.674,144.006ZM504.338,149.466C504.127,149.466 503.945,149.421 503.794,149.332C503.643,149.243 503.503,149.138 503.375,149.017C503.247,148.896 503.119,148.771 502.992,148.643C502.865,148.515 502.721,148.412 502.558,148.334C502.241,148.331 501.965,148.274 501.727,148.166C501.489,148.057 501.293,147.904 501.138,147.708C500.982,147.511 500.866,147.272 500.789,146.992C500.711,146.711 500.672,146.4 500.672,146.057C500.672,145.672 500.72,145.329 500.814,145.027C500.91,144.724 501.047,144.47 501.224,144.263C501.401,144.057 501.619,143.898 501.877,143.789C502.135,143.679 502.424,143.625 502.744,143.625C503.065,143.625 503.348,143.678 503.589,143.785C503.83,143.891 504.029,144.043 504.188,144.24C504.346,144.437 504.465,144.676 504.545,144.957C504.624,145.238 504.664,145.552 504.664,145.899C504.664,146.512 504.54,147.021 504.293,147.424C504.045,147.827 503.707,148.097 503.275,148.232C503.381,148.271 503.479,148.317 503.571,148.371C503.664,148.424 503.756,148.481 503.85,148.541C503.996,148.642 504.143,148.726 504.285,148.794C504.43,148.862 504.588,148.896 504.763,148.896L504.92,148.89L505.057,148.873L505.135,149.172C505.068,149.236 504.963,149.301 504.816,149.367C504.67,149.433 504.51,149.466 504.338,149.466Z" style="fill:rgb(31,31,31);fill-rule:nonzero;"/>
            <path d="M530.656,191.494C531.016,191.494 531.293,191.335 531.488,191.016C531.684,190.697 531.782,190.194 531.782,189.507C531.782,188.844 531.689,188.352 531.506,188.031C531.321,187.71 531.045,187.55 530.677,187.55C530.318,187.55 530.04,187.71 529.844,188.033C529.646,188.354 529.548,188.859 529.548,189.545C529.548,190.208 529.641,190.699 529.824,191.017C530.008,191.335 530.285,191.494 530.656,191.494ZM528.992,186.034C529.203,186.034 529.385,186.079 529.536,186.168C529.688,186.257 529.827,186.362 529.955,186.483C530.083,186.604 530.211,186.729 530.338,186.857C530.465,186.985 530.609,187.088 530.772,187.166C531.089,187.169 531.365,187.226 531.604,187.334C531.841,187.443 532.037,187.596 532.192,187.792C532.348,187.989 532.464,188.228 532.541,188.508C532.619,188.789 532.658,189.1 532.658,189.443C532.658,189.828 532.61,190.171 532.516,190.473C532.42,190.776 532.283,191.03 532.106,191.237C531.929,191.443 531.711,191.602 531.453,191.711C531.195,191.821 530.906,191.875 530.586,191.875C530.265,191.875 529.982,191.822 529.741,191.715C529.5,191.609 529.301,191.457 529.143,191.26C528.984,191.063 528.865,190.824 528.785,190.543C528.706,190.262 528.666,189.948 528.666,189.601C528.666,188.988 528.79,188.479 529.037,188.076C529.285,187.673 529.623,187.403 530.055,187.268C529.949,187.229 529.852,187.183 529.759,187.129C529.666,187.076 529.574,187.019 529.48,186.959C529.334,186.858 529.188,186.774 529.045,186.706C528.9,186.638 528.742,186.604 528.567,186.604L528.41,186.61L528.273,186.627L528.195,186.328C528.262,186.264 528.367,186.199 528.514,186.133C528.66,186.067 528.82,186.034 528.992,186.034Z" style="fill:rgb(31,31,31);fill-rule:nonzero;"/>
            <path d="M527.166,145.375C526.624,146.753 523.916,147.257 523.916,149.375C523.916,150.341 524.699,151.125 525.666,151.125C526.175,151.125 526.629,150.904 526.949,150.557C526.89,151.147 526.695,151.847 526.166,152.375L526.166,152.625L528.166,152.625L528.166,152.375C527.639,151.847 527.443,151.149 527.383,150.558C527.703,150.904 528.157,151.125 528.666,151.125C529.632,151.125 530.416,150.341 530.416,149.375C530.416,147.257 527.707,146.753 527.166,145.375Z" style="fill:rgb(31,31,31);fill-rule:nonzero;"/>
            <path d="M506.166,190.627C505.624,189.25 502.916,188.745 502.916,186.627C502.916,185.661 503.699,184.877 504.666,184.877C505.175,184.877 505.63,185.099 505.949,185.446C505.89,184.855 505.695,184.156 505.167,183.627L505.167,183.377L507.167,183.377L507.167,183.627C506.639,184.156 506.444,184.854 506.384,185.445C506.703,185.098 507.157,184.877 507.666,184.877C508.632,184.877 509.416,185.661 509.416,186.627C509.416,188.745 506.707,189.25 506.166,190.627Z" style="fill:rgb(31,31,31);fill-rule:nonzero;"/>
            <path d="M500.667,156L500.667,191.75L500.917,192L525.667,192L525.667,191.5L501.167,191.5L501.167,156L500.667,156ZM532.667,180L532.167,180L532.167,144.5L507.667,144.5L507.667,144L532.417,144L532.667,144.25L532.667,180Z" style="fill:rgb(31,31,31);fill-rule:nonzero;"/>
            <path d="M517.88,187.93C515.877,189.842 512.417,188.684 511.96,185.96C513.672,187.386 515.651,187.93 517.88,187.93Z" style="fill:rgb(201,49,18);fill-rule:nonzero;"/>
            <path d="M519.19,185.87C519.21,185.96 519.159,186.08 519.05,186.13C515.716,186.48 514.669,183.846 514.53,180.48C514.46,178.71 514.56,177.42 515.26,176.11C515.59,176 515.919,175.89 516.2,175.76C515.77,177.15 515.36,178.73 515.31,180.35C515.229,183.244 515.952,185.69 518.87,185.69C519.05,185.69 519.164,185.723 519.19,185.87Z" style="fill:rgb(249,203,25);fill-rule:nonzero;"/>
            <path d="M516.14,185.96C513.918,185.336 513.69,182.749 513.25,180.32C512.95,178.87 512.84,177.88 513.719,176.55C514.01,176.48 514.31,176.4 514.599,176.32C513.99,177.73 513.979,179.15 514.03,180.5C514.08,181.66 514.2,184.61 516.14,185.96Z" style="fill:rgb(249,203,25);fill-rule:nonzero;"/>
            <path d="M514.19,185.22C513.77,184.97 513.38,184.67 513.01,184.32C512.93,182.714 511.86,180.269 511.7,178.52C511.61,177.7 512.19,176.93 513.03,176.72C512.182,178.279 512.594,179.493 512.94,181.4C513.18,182.74 513.43,184.19 514.19,185.22Z" style="fill:rgb(249,203,25);fill-rule:nonzero;"/>
            <path d="M509.64,173.68C509.023,174.605 508.874,175.824 509.48,176.96C506.708,174.653 506.104,170.623 508.26,167.62C509.612,168.95 510.399,170.578 510.61,172.4C510.24,172.84 509.91,173.28 509.64,173.68Z" style="fill:rgb(35,75,194);fill-rule:nonzero;"/>
            <path d="M516.19,175.08C515.53,175.46 514.3,175.86 512.71,176.22C511.72,176.45 511.02,177.26 510.95,178.2C510.78,178.16 510.61,178.12 510.44,178.06C508.744,177.488 508.075,175.433 509.05,173.96C510.33,172.07 512.61,169.55 516.25,168.24C516.96,167.98 517.599,167.67 518.21,167.34C519.02,169.95 518.26,172.96 516.19,175.08Z" style="fill:rgb(201,49,18);fill-rule:nonzero;"/>
            <path d="M525.07,168.38C523.753,167.084 522.961,165.516 522.719,163.6C524.038,162.033 524.729,160.903 523.86,159.04C526.617,161.35 527.228,165.375 525.07,168.38Z" style="fill:rgb(201,49,18);fill-rule:nonzero;"/>
            <path d="M524.28,162.04C523.01,163.92 520.729,166.45 517.08,167.76C516.38,168.02 515.729,168.33 515.12,168.66C514.31,166.05 515.07,163.04 517.14,160.92C517.8,160.54 519.03,160.14 520.63,159.78C521.61,159.55 522.31,158.74 522.38,157.8C522.55,157.84 522.719,157.88 522.89,157.94C524.561,158.504 525.283,160.525 524.28,162.04Z" style="fill:rgb(35,75,194);fill-rule:nonzero;"/>
            <path d="M513.51,169.66C512.53,170.37 511.72,171.14 511.04,171.9C510.693,169.933 509.833,168.417 508.46,167.12C509.19,165.16 510.81,163.54 512.789,162.77C511.89,165.291 512.252,167.691 513.51,169.66Z" style="fill:rgb(249,203,25);fill-rule:nonzero;"/>
            <path d="M524.87,168.88C524.14,170.84 522.52,172.46 520.539,173.23C521.438,170.718 521.094,168.335 519.83,166.34C520.8,165.63 521.62,164.86 522.289,164.1C522.636,166.057 523.523,167.609 524.87,168.88Z" style="fill:rgb(249,203,25);fill-rule:nonzero;"/>
            <path d="M520.3,159.28C521.172,157.674 520.722,156.424 520.39,154.6C520.159,153.26 519.9,151.82 519.14,150.78C519.56,151.03 519.96,151.33 520.32,151.68C520.396,153.234 521.461,155.756 521.64,157.48C521.719,158.3 521.15,159.07 520.3,159.28Z" style="fill:rgb(249,203,25);fill-rule:nonzero;"/>
            <path d="M519.62,159.45C519.32,159.52 519.03,159.6 518.729,159.68C519.349,158.27 519.349,156.85 519.3,155.5C519.25,154.34 519.13,151.39 517.2,150.04C519.159,150.59 519.539,152.66 519.9,154.69C520.26,156.667 520.698,157.802 519.62,159.45Z" style="fill:rgb(249,203,25);fill-rule:nonzero;"/>
            <path d="M518.07,159.89C517.74,160 517.419,160.11 517.13,160.24C517.57,158.85 517.969,157.27 518.02,155.65C518.119,152.662 517.372,150.367 514.419,150.31C514.25,150.29 514.169,150.25 514.14,150.13C514.13,150.04 514.169,149.92 514.28,149.87C517.61,149.519 518.661,152.147 518.8,155.52C518.87,157.29 518.77,158.58 518.07,159.89Z" style="fill:rgb(249,203,25);fill-rule:nonzero;"/>
            <path d="M521.37,150.04C519.44,148.42 517.27,148.06 515.45,148.07C517.478,146.152 520.914,147.325 521.37,150.04Z" style="fill:rgb(201,49,18);fill-rule:nonzero;"/>
            <path d="M506.736,156.928C506.846,157.235 507.164,157.754 508.043,158.205C508.061,158.014 508.074,157.723 508.061,157.368C507.811,157.249 507.238,156.999 506.736,156.928Z" style="fill:rgb(35,75,194);fill-rule:nonzero;"/>
            <path d="M508.559,157.265C508.577,157.65 508.565,157.981 508.547,158.205C508.882,158.021 509.693,157.425 509.822,155.92C509.428,156.147 508.817,156.594 508.559,157.265Z" style="fill:rgb(35,75,194);fill-rule:nonzero;"/>
            <path d="M524.786,177.794C524.451,177.979 523.64,178.575 523.511,180.08C523.905,179.853 524.516,179.406 524.774,178.735C524.756,178.35 524.768,178.018 524.786,177.794Z" style="fill:rgb(35,75,194);fill-rule:nonzero;"/>
            <path d="M526.597,179.072C526.487,178.765 526.169,178.246 525.29,177.795C525.273,177.986 525.259,178.277 525.272,178.632C525.522,178.75 526.095,179.001 526.597,179.072Z" style="fill:rgb(35,75,194);fill-rule:nonzero;"/>
            <path d="M527.118,180.35C526.696,180.343 526.194,180.45 525.983,180.813C525.888,180.98 526.008,181.188 526.199,181.188L526.417,181.063C526.485,180.945 526.637,180.903 526.757,180.971C526.874,181.037 526.916,181.184 526.854,181.302C527.031,181.25 527.204,181.264 527.365,181.334C527.427,181.005 527.29,180.637 527.118,180.35ZM527.283,181.896L527.065,181.771C526.874,181.771 526.754,181.979 526.85,182.146C526.921,182.271 526.874,182.421 526.757,182.488C526.641,182.554 526.495,182.517 526.424,182.406C526.383,182.575 526.288,182.724 526.141,182.833C526.392,183.048 526.786,183.115 527.118,183.11C527.335,182.747 527.492,182.26 527.283,181.896ZM525.945,182.229C525.945,182.091 525.834,181.98 525.695,181.979C525.558,181.979 525.445,181.867 525.445,181.729C525.446,181.595 525.552,181.487 525.684,181.481C525.551,181.354 525.476,181.198 525.456,181.022C525.14,181.133 524.888,181.442 524.727,181.729C524.933,182.099 525.275,182.479 525.695,182.479C525.834,182.479 525.945,182.368 525.945,182.229ZM525.751,177.243L525.927,177.187L525.935,177.175L525.908,177.119L525.763,176.999C525.617,176.914 525.377,176.841 525.063,176.841L524.825,176.667L524.556,175.819C524.514,175.687 524.587,175.546 524.719,175.505C524.85,175.463 524.99,175.536 525.032,175.667L525.249,176.349C525.596,176.376 525.973,176.481 526.221,176.722C526.834,176.675 526.858,175.912 525.607,176.143C525.472,176.167 525.341,176.078 525.316,175.942C525.291,175.806 525.381,175.676 525.517,175.65C525.882,175.583 526.289,175.566 526.629,175.712L526.528,175.551C526.306,175.383 525.874,175.42 525.601,175.471C525.465,175.497 525.334,175.407 525.309,175.271C525.283,175.136 525.373,175.005 525.509,174.979C525.876,174.911 526.287,174.892 526.629,175.039L526.528,174.878C526.311,174.714 525.891,174.747 525.622,174.795C525.486,174.819 525.356,174.729 525.332,174.593C525.308,174.457 525.397,174.327 525.533,174.303C525.894,174.238 526.294,174.223 526.629,174.367C526.607,174.153 526.277,174.088 526.062,174.083C525.935,174.081 525.915,174.034 525.356,173.533C524.662,174.246 523.879,174.801 523.044,175.206C523.552,175.801 524.033,176.769 524.678,177.18C524.958,177.246 525.455,177.292 525.751,177.243ZM525.037,177.793C524.405,178.15 523.861,178.911 523.761,180.08C524.3,179.771 524.797,179.325 525.023,178.746C525.007,178.416 525.013,178.095 525.037,177.793ZM526.829,170.005C526.458,169.783 526.104,169.533 525.771,169.257C524.895,171.412 523.008,173.14 520.804,173.855C520.56,174.399 520.253,174.935 519.869,175.46C523.015,175.456 526.021,173.069 526.829,170.005ZM519.927,166.625C519.684,166.789 519.432,166.947 519.172,167.1C520.138,170.055 519.168,173.221 517.096,175.383C516.843,176.157 516.61,176.937 516.429,177.724C520.367,175.818 522.487,170.68 519.927,166.625ZM516.06,180.518C516.005,183.059 516.586,185.194 519.13,185.187C519.161,185.068 519.181,184.962 519.192,184.868L519.161,184.742C519.008,184.513 518.202,184.617 517.675,184.322C517.554,184.255 517.512,184.103 517.578,183.982C517.646,183.862 517.799,183.819 517.919,183.887C518.229,184.063 518.77,184.036 519.159,184.167C519.11,183.835 519.102,183.579 519.219,183.226C519.367,182.778 519.583,182.427 519.848,182.042L519.294,181.878C519.163,181.839 519.086,181.7 519.125,181.567C519.164,181.438 519.297,181.364 519.427,181.396C519.442,181.231 519.484,181.079 519.565,180.933C519.439,180.905 519.336,180.896 519.229,180.897C519.093,180.9 518.979,180.79 518.976,180.652C518.974,180.514 519.083,180.4 519.222,180.397C519.482,180.393 519.417,180.449 519.296,180.307C519.016,179.983 519.19,179.503 519.072,179.254L519,179.2C518.452,178.975 516.479,179.723 516.06,180.518ZM516.103,179.717C516.447,179.425 516.877,179.188 517.288,179.014L517.099,177.937C516.841,178.083 516.573,178.214 516.301,178.331C516.211,178.792 516.143,179.253 516.103,179.717ZM519.409,185.789C519.357,185.709 519.263,185.687 519.169,185.687C516.274,185.703 515.49,183.375 515.562,180.468C515.549,180.115 515.663,178.862 515.836,178.099C515.995,177.307 516.211,176.527 516.45,175.76C516.209,175.867 515.927,175.979 515.504,176.118C514.765,177.508 514.719,178.891 514.781,180.481C514.905,183.557 515.742,186.157 518.82,186.167C518.979,186.161 519.142,186.152 519.305,186.141C519.445,186.07 519.474,185.892 519.409,185.789ZM519.425,187.385L519.359,186.638C518.386,186.708 517.421,186.693 516.453,186.506L516.427,186.503C516.067,186.421 515.697,186.345 515.176,186.143C514.24,185.78 513.396,185.213 512.65,184.432L512.093,184.934C514.078,187.018 516.565,187.599 519.425,187.385ZM518.387,187.928C516.149,187.938 514.151,187.374 512.461,185.963C512.931,188.688 516.36,189.841 518.387,187.928ZM513.267,184.34C513.646,184.7 514.041,184.997 514.453,185.239C513.504,183.969 513.341,182.074 513.005,180.422C512.723,179.023 512.604,177.975 513.281,176.72C512.516,176.91 511.938,177.582 511.938,178.366C511.938,178.956 512.274,180.201 512.435,180.77C512.76,181.918 513.229,183.343 513.267,184.34ZM513.961,176.558C513.111,177.843 513.185,178.797 513.495,180.322C513.974,182.679 514.091,185.36 516.406,185.98C514.533,184.688 514.262,181.859 514.262,179.593C514.262,178.44 514.383,177.383 514.851,176.32C514.549,176.407 514.247,176.487 513.961,176.558ZM513.206,176.223C514.195,176 515.818,175.583 516.693,175.079C518.656,173.061 519.585,170.101 518.729,167.351C518.117,167.682 517.459,167.98 516.75,168.235C513.793,169.301 511.339,171.313 509.556,173.964C508.559,175.445 509.258,177.498 510.943,178.064C511.111,178.12 511.279,178.169 511.445,178.213C511.517,177.245 512.248,176.44 513.206,176.223ZM508.957,176.956C508.43,175.922 508.472,174.678 509.141,173.685C509.419,173.271 509.741,172.832 510.109,172.385C509.885,170.514 509.048,168.861 507.756,167.591C505.664,170.519 506.149,174.605 508.957,176.956ZM507.562,166.743C508.438,164.588 510.324,162.86 512.529,162.145C512.783,161.579 513.094,161.046 513.464,160.54C510.323,160.544 507.314,162.925 506.504,165.995C506.875,166.217 507.229,166.467 507.562,166.743ZM507.977,162.467C508.668,161.756 509.451,161.201 510.288,160.794C509.78,160.199 509.3,159.231 508.655,158.82C508.359,158.75 507.723,158.689 507.456,158.789L507.398,158.825L507.425,158.881L507.57,159.001C507.716,159.086 507.956,159.159 508.271,159.159L508.508,159.333L508.777,160.181C508.819,160.313 508.746,160.454 508.614,160.495C508.482,160.537 508.343,160.464 508.301,160.333L508.084,159.651C507.737,159.624 507.36,159.519 507.112,159.278C506.502,159.325 506.473,160.088 507.726,159.857C507.861,159.833 507.992,159.922 508.017,160.058C508.042,160.194 507.952,160.324 507.816,160.349C507.451,160.417 507.043,160.434 506.704,160.288L506.805,160.449C507.027,160.617 507.46,160.58 507.732,160.529C507.868,160.503 507.999,160.593 508.024,160.729C508.05,160.864 507.96,160.995 507.824,161.021C507.456,161.089 507.045,161.107 506.704,160.961L506.805,161.122C507.022,161.286 507.442,161.253 507.711,161.205C507.847,161.181 507.978,161.271 508.001,161.407C508.025,161.543 507.936,161.673 507.799,161.697C507.439,161.762 507.039,161.777 506.704,161.633C506.726,161.847 507.055,161.912 507.271,161.917C507.399,161.919 507.438,161.984 507.977,162.467ZM507.794,158.208C507.817,157.949 507.825,157.663 507.814,157.37C507.427,157.186 506.918,156.991 506.489,156.929C506.696,157.501 507.245,157.928 507.794,158.208ZM507.877,154.978C508.193,154.867 508.445,154.559 508.606,154.271C508.402,153.904 508.06,153.521 507.638,153.521C507.499,153.521 507.388,153.632 507.388,153.771C507.388,153.909 507.499,154.02 507.638,154.021C507.775,154.021 507.888,154.133 507.888,154.271C507.887,154.405 507.781,154.513 507.649,154.519C507.781,154.646 507.857,154.802 507.877,154.978ZM507.133,154.812L506.916,154.937C506.848,155.055 506.696,155.097 506.576,155.029C506.459,154.963 506.417,154.816 506.479,154.698C506.302,154.75 506.129,154.736 505.968,154.666C505.906,154.996 506.044,155.364 506.215,155.65C506.634,155.657 507.139,155.551 507.35,155.187C507.445,155.02 507.324,154.812 507.133,154.812ZM506.05,154.104L506.268,154.229C506.458,154.229 506.58,154.022 506.483,153.854C506.413,153.731 506.457,153.579 506.576,153.512C506.692,153.446 506.838,153.483 506.909,153.594C506.949,153.43 507.042,153.279 507.192,153.167C506.941,152.952 506.548,152.885 506.215,152.89C505.998,153.253 505.841,153.74 506.05,154.104ZM508.296,158.207C508.928,157.851 509.472,157.089 509.572,155.92C509.035,156.228 508.537,156.674 508.31,157.254C508.326,157.593 508.32,157.914 508.296,158.207ZM512.278,162.765C510.349,163.522 508.704,165.123 507.961,167.096C509.332,168.383 510.221,170.031 510.54,171.882C511.316,171.015 512.135,170.284 512.995,169.661C511.651,167.546 511.446,165.072 512.278,162.765ZM513.406,169.375C513.649,169.211 513.901,169.053 514.161,168.9C513.193,165.943 514.167,162.776 516.237,160.617C516.49,159.843 516.723,159.063 516.904,158.276C512.982,160.174 510.837,165.307 513.406,169.375ZM517.271,155.483C517.326,152.946 516.75,150.806 514.202,150.813C514.172,150.932 514.151,151.038 514.141,151.132L514.172,151.258C514.325,151.487 515.13,151.383 515.658,151.678C515.779,151.745 515.82,151.898 515.754,152.018C515.687,152.138 515.534,152.181 515.413,152.113C515.104,151.938 514.56,151.963 514.174,151.833C514.223,152.166 514.231,152.421 514.114,152.774C513.966,153.223 513.75,153.574 513.485,153.958L514.038,154.122C514.169,154.161 514.245,154.3 514.206,154.433C514.168,154.562 514.034,154.636 513.905,154.604C513.89,154.768 513.849,154.921 513.766,155.067C513.896,155.096 513.994,155.103 514.103,155.103C514.241,155.1 514.354,155.21 514.357,155.348C514.359,155.486 514.249,155.6 514.111,155.603C513.849,155.606 513.916,155.552 514.037,155.693C514.317,156.017 514.143,156.498 514.261,156.746L514.333,156.8C514.875,157.023 516.849,156.283 517.271,155.483ZM517.229,156.283C516.888,156.572 516.463,156.809 516.044,156.986L516.232,158.063C516.492,157.917 516.758,157.786 517.031,157.669C517.12,157.208 517.189,156.747 517.229,156.283ZM513.924,150.211C513.976,150.29 514.068,150.313 514.164,150.313C517.073,150.297 517.84,152.645 517.771,155.532C517.784,155.886 517.672,157.128 517.497,157.901C517.338,158.693 517.122,159.473 516.883,160.24C517.124,160.133 517.406,160.021 517.828,159.882C518.568,158.492 518.614,157.109 518.551,155.519C518.429,152.447 517.591,149.844 514.513,149.833C514.353,149.839 514.19,149.848 514.026,149.859C513.888,149.93 513.857,150.107 513.924,150.211ZM513.908,148.615L513.974,149.362C514.947,149.292 515.912,149.307 516.878,149.494L516.905,149.497C517.265,149.579 517.636,149.655 518.156,149.857C519.099,150.223 519.94,150.792 520.682,151.568L521.24,151.066C519.255,148.982 516.767,148.401 513.908,148.615ZM514.945,148.072C517.188,148.062 519.185,148.628 520.872,150.037C520.401,147.313 516.974,146.158 514.945,148.072ZM520.065,151.66C519.688,151.3 519.292,151.004 518.879,150.761C519.828,152.03 519.991,153.928 520.326,155.578C520.61,156.976 520.729,158.024 520.052,159.28C520.818,159.09 521.395,158.418 521.395,157.634C521.393,157.043 521.057,155.796 520.896,155.23C520.568,154.068 520.104,152.655 520.065,151.66ZM519.37,159.442C520.224,158.154 520.146,157.197 519.836,155.678C519.356,153.314 519.239,150.64 516.927,150.02C518.8,151.313 519.07,154.14 519.07,156.407C519.07,157.56 518.948,158.617 518.482,159.68C518.784,159.593 519.086,159.513 519.37,159.442ZM520.127,159.777C519.143,159.999 517.515,160.417 516.638,160.921C514.674,162.942 513.748,165.903 514.604,168.649C515.216,168.318 515.874,168.02 516.581,167.765C519.539,166.699 521.994,164.687 523.776,162.036C524.773,160.555 524.075,158.502 522.39,157.936C522.222,157.88 522.054,157.831 521.887,157.787C521.815,158.755 521.085,159.56 520.127,159.777ZM521.055,173.235C522.979,172.479 524.627,170.881 525.372,168.904C524,167.617 523.112,165.969 522.793,164.118C522.02,164.981 521.202,165.713 520.336,166.339C521.684,168.458 521.886,170.932 521.055,173.235ZM524.376,159.044C524.903,160.077 524.861,161.322 524.192,162.315C523.914,162.729 523.591,163.168 523.224,163.615C523.447,165.482 524.281,167.136 525.577,168.409C527.674,165.475 527.179,161.39 524.376,159.044ZM525.539,177.792C525.516,178.05 525.508,178.337 525.519,178.63C525.909,178.815 526.417,179.009 526.844,179.071C526.637,178.499 526.088,178.072 525.539,177.792ZM527.76,181.729C527.974,182.177 527.881,182.685 527.671,183.134C527.568,183.352 527.467,183.492 527.461,183.5L527.284,183.602C527.102,183.621 526.804,183.611 526.538,183.553C526.158,183.469 525.82,183.293 525.602,182.976C524.977,182.928 524.492,182.397 524.218,181.832L524.218,181.628C524.431,181.162 524.854,180.672 525.362,180.527C525.248,180.205 525.169,179.885 525.116,179.58C524.717,180.092 524.11,180.508 523.584,180.725L523.242,180.493C523.242,179.127 523.736,178.179 524.424,177.612C523.606,177.098 523.099,175.975 522.564,175.419C521.59,175.813 520.551,176.008 519.486,175.949C518.931,176.609 518.281,177.189 517.559,177.66L517.765,178.837C518.244,178.686 519,178.525 519.38,178.853C519.734,179.156 519.56,179.755 519.656,179.952L519.726,180.017C519.908,180.104 519.918,180.361 519.74,180.46C519.846,180.488 520.128,180.577 520.203,180.668L520.235,180.94C520.18,181.047 520.117,181.034 520.047,181.113C519.952,181.222 519.918,181.396 519.922,181.542L520.32,181.66L520.455,182.042C520.133,182.505 519.625,183.196 519.625,183.785C519.624,184.157 519.81,184.542 519.616,185.308C519.959,185.524 520.041,185.984 519.815,186.332C519.844,186.354 519.823,186.211 519.943,187.592L519.716,187.863C519.517,187.881 519.306,187.896 519.089,187.908C516.719,190.772 512.031,189.172 511.909,185.461C511.788,185.341 511.669,185.216 511.551,185.084L511.569,184.731L512.499,183.896L512.723,183.908C512.518,182.478 511.7,180.452 511.479,178.817C506.44,177.465 504.327,171.456 507.386,167.25C506.985,166.902 506.552,166.593 506.092,166.331L505.972,166.057C506.252,164.863 506.843,163.763 507.64,162.837L507.164,162.41C506.313,162.349 506.042,161.74 506.287,161.272C506.168,161.052 506.178,160.808 506.287,160.6C506.167,160.378 506.179,160.133 506.287,159.927C506.055,159.498 506.313,158.94 506.9,158.804C506.907,158.629 506.999,158.487 507.127,158.399C506.629,158.068 506.331,157.712 506.16,157.406C505.933,157 505.926,156.691 505.926,156.66L506.166,156.41C506.675,156.39 507.302,156.602 507.769,156.801C507.727,156.464 507.653,156.101 507.534,155.739C507.374,155.881 507.191,155.976 506.991,156.041C506.673,156.144 506.294,156.168 506.049,156.143L505.872,156.041C505.866,156.032 505.765,155.893 505.662,155.675C505.449,155.222 505.36,154.719 505.573,154.271C505.359,153.823 505.452,153.314 505.662,152.866C505.765,152.648 505.866,152.508 505.872,152.5L506.049,152.398C506.231,152.379 506.529,152.389 506.795,152.447C507.175,152.531 507.513,152.707 507.731,153.024C508.355,153.072 508.84,153.601 509.115,154.168L509.115,154.372C508.902,154.838 508.479,155.328 507.971,155.473C508.085,155.795 508.164,156.115 508.217,156.421C508.612,155.912 509.218,155.494 509.749,155.275L510.09,155.507C510.09,156.873 509.597,157.821 508.909,158.388C509.724,158.901 510.237,160.029 510.769,160.581C511.743,160.187 512.781,159.992 513.847,160.051C514.401,159.391 515.052,158.811 515.774,158.34L515.568,157.162C515.262,157.259 514.918,157.338 514.597,157.338C513.435,157.337 513.807,156.314 513.677,156.048L513.607,155.983C513.424,155.896 513.414,155.638 513.593,155.54C513.466,155.507 513.236,155.425 513.164,155.367C513.057,155.281 513.041,155.122 513.127,155.015L513.284,154.887C513.38,154.778 513.414,154.606 513.411,154.458L513.012,154.34L512.878,153.958C513.195,153.5 513.706,152.807 513.708,152.215C513.709,151.829 513.52,151.47 513.716,150.692C513.367,150.472 513.296,150.005 513.516,149.668C513.489,149.646 513.508,149.791 513.388,148.407L513.616,148.137C513.815,148.119 514.026,148.104 514.244,148.092C516.61,145.232 521.302,146.823 521.424,150.539C521.544,150.659 521.664,150.784 521.781,150.916L521.763,151.269L520.834,152.104L520.61,152.092C520.815,153.525 521.633,155.548 521.854,157.183C526.894,158.535 529.005,164.545 525.947,168.75C526.348,169.098 526.781,169.407 527.241,169.669L527.361,169.943C527.081,171.137 526.49,172.237 525.693,173.163L526.169,173.59C527.027,173.651 527.288,174.264 527.046,174.728C527.165,174.948 527.155,175.192 527.046,175.4C527.167,175.625 527.153,175.868 527.046,176.073C527.278,176.503 527.02,177.06 526.433,177.195C526.426,177.37 526.335,177.513 526.206,177.601C526.704,177.932 527.002,178.288 527.173,178.594C527.4,179 527.407,179.309 527.407,179.34L527.166,179.59C526.657,179.609 526.033,179.399 525.564,179.199C525.606,179.536 525.68,179.898 525.799,180.261C525.958,180.119 526.141,180.024 526.342,179.959C526.661,179.855 527.04,179.832 527.284,179.857L527.461,179.959C527.467,179.968 527.568,180.107 527.671,180.325C527.881,180.774 527.974,181.278 527.76,181.729ZM524.931,171.674L524.609,172.057L524.991,172.378L525.313,171.996L524.931,171.674ZM522.198,173.841L522.422,174.287L522.869,174.063L522.645,173.616C522.37,173.754 522.474,173.702 522.198,173.841ZM526.174,170.635L525.732,170.399L525.497,170.84L525.938,171.076C526.085,170.802 526.025,170.913 526.174,170.635ZM523.492,173.071L523.805,173.462L524.195,173.151L523.885,172.76C523.645,172.951 523.732,172.88 523.492,173.071ZM520.771,174.315L520.895,174.8L521.379,174.679L521.258,174.193L520.771,174.315ZM511.135,162.159L510.91,161.713L510.464,161.938L510.688,162.384C510.963,162.246 510.859,162.298 511.135,162.159ZM508.724,163.943L508.341,163.622C508.143,163.858 508.22,163.767 508.02,164.004L508.402,164.326L508.724,163.943ZM512.56,161.685L512.438,161.2L511.954,161.321L512.075,161.807C512.373,161.732 512.26,161.76 512.56,161.685ZM507.836,165.16L507.395,164.924L507.159,165.365L507.601,165.601L507.836,165.16ZM509.84,162.929L509.528,162.538L509.137,162.849L509.448,163.24C509.688,163.049 509.6,163.12 509.84,162.929ZM513.102,168.106L513.245,168.586L513.724,168.442L513.581,167.962L513.102,168.106ZM513.302,166.557L512.807,166.615L512.865,167.113L513.362,167.055C513.325,166.743 513.338,166.855 513.302,166.557ZM515.015,161.238L514.616,160.936L514.313,161.336L514.713,161.638C514.901,161.388 514.834,161.478 515.015,161.238ZM513.65,163.74L513.171,163.6L513.03,164.082L513.51,164.222C513.598,163.921 513.565,164.031 513.65,163.74ZM514.219,162.428L513.773,162.203C513.632,162.482 513.682,162.382 513.547,162.65L513.992,162.876L514.219,162.428ZM513.291,165.632C513.318,165.32 513.31,165.432 513.336,165.133L512.838,165.088L512.793,165.588L513.291,165.632ZM516.008,160.218L515.68,159.842L515.302,160.171L515.632,160.548L516.008,160.218ZM520.231,167.894L520.086,167.414L519.607,167.558L519.752,168.038L520.231,167.894ZM520.042,170.368C520.013,170.681 520.023,170.565 519.997,170.867L520.495,170.912L520.539,170.412L520.042,170.368ZM518.318,174.763L518.716,175.064L519.02,174.664L518.62,174.362C518.515,174.502 518.425,174.621 518.318,174.763ZM519.682,172.26L520.162,172.4L520.302,171.918L519.823,171.778C519.737,172.071 519.766,171.976 519.682,172.26ZM519.112,173.572L519.56,173.797C519.701,173.518 519.649,173.62 519.786,173.35L519.34,173.124L519.112,173.572ZM520.03,169.443L520.526,169.385L520.468,168.887L519.971,168.945C520.008,169.258 519.992,169.132 520.03,169.443ZM517.323,175.782L517.653,176.158L518.03,175.829L517.701,175.452L517.323,175.782ZM518.34,183.748C518.478,183.748 518.59,183.636 518.59,183.498C518.589,183.369 518.589,183.24 518.589,183.111C518.589,182.973 518.478,182.861 518.339,182.861C518.201,182.862 518.089,182.974 518.089,183.112C518.089,183.24 518.089,183.369 518.09,183.498C518.09,183.636 518.201,183.748 518.34,183.748ZM515.244,152.502L515.244,152.889C515.244,153.026 515.132,153.139 514.994,153.139C514.854,153.139 514.744,153.026 514.744,152.889L514.744,152.502C514.742,152.364 514.854,152.252 514.992,152.252C515.132,152.252 515.242,152.364 515.244,152.502Z" style="fill:rgb(31,31,31);fill-rule:nonzero;"/>
        </g>
    </g>
</svg>
