<?xml version="1.0" encoding="UTF-8" standalone="no"?>
<!DOCTYPE svg PUBLIC "-//W3C//DTD SVG 1.1//EN" "http://www.w3.org/Graphics/SVG/1.1/DTD/svg11.dtd">
<svg width="100%" height="100%" viewBox="0 0 41 56" version="1.1" xmlns="http://www.w3.org/2000/svg" xmlns:xlink="http://www.w3.org/1999/xlink" xml:space="preserve" xmlns:serif="http://www.serif.com/" style="fill-rule:evenodd;clip-rule:evenodd;stroke-linejoin:round;stroke-miterlimit:2;">
    <g transform="matrix(1,0,0,1,-453,-260)">
        <g>
            <path d="M490.833,316L455.833,316C454.452,316 453.333,314.881 453.333,313.5L453.333,262.5C453.333,261.119 454.452,260 455.833,260L490.833,260C492.214,260 493.333,261.119 493.333,262.5L493.333,313.5C493.333,314.881 492.214,316 490.833,316Z" style="fill:white;fill-rule:nonzero;"/>
            <path d="M457.671,264.42L457.589,264.465L457.562,264.553L457.562,266.627C457.562,266.881 457.548,267.096 457.521,267.275C457.492,267.454 457.438,267.609 457.355,267.738C457.273,267.869 457.157,267.982 457.006,268.079C456.855,268.176 456.658,268.27 456.414,268.359L456.292,268.102C456.432,268.012 456.545,267.926 456.633,267.842C456.722,267.758 456.789,267.665 456.837,267.563C456.885,267.461 456.918,267.343 456.936,267.207C456.953,267.072 456.962,266.91 456.962,266.719L456.962,264.553L456.935,264.464L456.853,264.42L456.508,264.352L456.508,264.092L457.974,264.092L457.974,264.352L457.671,264.42Z" style="fill:rgb(201,49,18);fill-rule:nonzero;"/>
            <path d="M459.879,264.316C459.609,264.316 459.402,264.438 459.256,264.679C459.109,264.92 459.037,265.297 459.037,265.807C459.037,266.3 459.105,266.668 459.242,266.911C459.379,267.154 459.585,267.275 459.861,267.275C460.129,267.275 460.336,267.153 460.483,266.91C460.63,266.666 460.704,266.289 460.704,265.778C460.704,265.285 460.636,264.918 460.499,264.678C460.362,264.438 460.155,264.316 459.879,264.316ZM459.813,267.563C459.572,267.563 459.361,267.523 459.181,267.443C459,267.363 458.851,267.25 458.731,267.104C458.612,266.956 458.522,266.777 458.464,266.564C458.405,266.354 458.376,266.117 458.376,265.855C458.376,265.565 458.411,265.307 458.482,265.079C458.554,264.852 458.656,264.66 458.789,264.506C458.922,264.353 459.086,264.234 459.279,264.153C459.473,264.072 459.689,264.031 459.929,264.031C460.171,264.031 460.382,264.07 460.563,264.15C460.744,264.229 460.894,264.342 461.013,264.489C461.131,264.637 461.22,264.815 461.279,265.027C461.339,265.238 461.369,265.475 461.369,265.737C461.369,266.025 461.333,266.283 461.263,266.511C461.191,266.738 461.089,266.93 460.956,267.084C460.822,267.239 460.659,267.357 460.466,267.439C460.272,267.521 460.055,267.563 459.813,267.563Z" style="fill:rgb(201,49,18);fill-rule:nonzero;"/>
            <path d="M463.324,267.247L463.324,267.5L461.799,267.5L461.799,267.247L462.139,267.182L462.223,267.139L462.253,267.053L462.253,264.553L462.225,264.464L462.142,264.42L461.799,264.352L461.799,264.092L463.307,264.092L463.307,264.352L462.959,264.42L462.879,264.464L462.851,264.553L462.851,265.925L464.133,264.426L463.74,264.352L463.74,264.092L464.978,264.092L464.978,264.352L464.654,264.42L464.577,264.447L464.513,264.496L463.666,265.438C463.743,265.528 463.816,265.627 463.885,265.734C463.953,265.843 464.031,265.973 464.12,266.125L464.648,267.026L464.729,267.135L464.845,267.189L465.076,267.247L465.076,267.5L464.293,267.5L464.121,267.375C464.061,267.291 463.993,267.178 463.917,267.035L463.417,266.093L463.28,265.87L462.851,266.357L462.851,267.057L462.881,267.143L462.966,267.184L463.324,267.247Z" style="fill:rgb(201,49,18);fill-rule:nonzero;"/>
            <path d="M467.816,264.961L467.523,264.961L467.419,264.551L467.373,264.467L467.292,264.417L467.111,264.38L466.867,264.367L466.38,264.367L466.38,265.604L467.401,265.568L467.401,265.939L466.38,265.914L466.38,267.203L466.98,267.203L467.238,267.191L467.432,267.153L467.509,267.104L467.554,267.02L467.725,266.522L468.015,266.568C468.013,266.72 468.005,266.873 467.99,267.029C467.976,267.185 467.955,267.342 467.928,267.5L465.326,267.5L465.326,267.247L465.671,267.184L465.753,267.139L465.78,267.051L465.78,264.553L465.753,264.464L465.671,264.42L465.326,264.352L465.326,264.092L467.813,264.092C467.828,264.232 467.836,264.375 467.836,264.519C467.836,264.662 467.829,264.809 467.816,264.961Z" style="fill:rgb(201,49,18);fill-rule:nonzero;"/>
            <path d="M469.477,264.352L469.477,265.748L469.612,265.754L469.753,265.757L469.967,265.757C470.138,265.756 470.277,265.694 470.388,265.573C470.497,265.453 470.552,265.262 470.552,265.002C470.552,264.777 470.5,264.609 470.396,264.496C470.292,264.383 470.109,264.326 469.848,264.326L469.635,264.336L469.477,264.352ZM469.95,267.247L469.95,267.5L468.425,267.5L468.425,267.247L468.765,267.182L468.849,267.139L468.879,267.053L468.879,264.551L468.849,264.463L468.768,264.42L468.425,264.352L468.425,264.092L469.171,264.092C469.298,264.092 469.418,264.087 469.532,264.076C469.646,264.066 469.776,264.062 469.924,264.062C470.377,264.062 470.702,264.135 470.896,264.281C471.092,264.427 471.189,264.656 471.189,264.969C471.189,265.135 471.166,265.274 471.119,265.389C471.072,265.502 471.014,265.594 470.942,265.666L470.705,265.833L470.451,265.925C470.546,265.979 470.628,266.047 470.697,266.127C470.766,266.209 470.832,266.314 470.895,266.443L471.191,267.039L471.269,267.147L471.374,267.192L471.604,267.247L471.604,267.5L470.845,267.5C470.777,267.5 470.717,267.454 470.662,267.362C470.607,267.271 470.546,267.15 470.478,267L470.26,266.5C470.212,266.396 470.164,266.303 470.118,266.219L469.976,266.019C469.885,266.019 469.545,266.017 469.477,266.017L469.477,267.057L469.507,267.143L469.592,267.184L469.95,267.247Z" style="fill:rgb(201,49,18);fill-rule:nonzero;"/>
            <path d="M488.995,311.58L489.076,311.535L489.104,311.447L489.104,309.373C489.104,309.119 489.118,308.904 489.146,308.725C489.174,308.546 489.229,308.391 489.311,308.262C489.393,308.131 489.509,308.018 489.66,307.921C489.811,307.824 490.008,307.73 490.252,307.641L490.374,307.898C490.234,307.988 490.121,308.074 490.033,308.158C489.944,308.242 489.877,308.335 489.828,308.437C489.781,308.539 489.748,308.657 489.73,308.793C489.713,308.928 489.704,309.09 489.704,309.281L489.704,311.447L489.731,311.536L489.813,311.58L490.158,311.648L490.158,311.908L488.691,311.908L488.691,311.648L488.995,311.58Z" style="fill:rgb(201,49,18);fill-rule:nonzero;"/>
            <path d="M486.787,311.684C487.057,311.684 487.264,311.563 487.41,311.321C487.557,311.08 487.629,310.703 487.629,310.193C487.629,309.7 487.561,309.332 487.424,309.089C487.287,308.846 487.08,308.725 486.805,308.725C486.537,308.725 486.33,308.847 486.183,309.09C486.035,309.334 485.962,309.711 485.962,310.222C485.962,310.715 486.03,311.082 486.167,311.322C486.304,311.563 486.51,311.684 486.787,311.684ZM486.852,308.437C487.094,308.437 487.305,308.477 487.484,308.557C487.666,308.637 487.815,308.75 487.935,308.896C488.054,309.044 488.143,309.223 488.201,309.436C488.261,309.646 488.29,309.883 488.29,310.145C488.29,310.435 488.254,310.693 488.184,310.921C488.111,311.148 488.01,311.34 487.877,311.494C487.744,311.647 487.58,311.766 487.387,311.847C487.193,311.928 486.977,311.969 486.736,311.969C486.495,311.969 486.283,311.93 486.104,311.85C485.922,311.771 485.771,311.658 485.653,311.511C485.535,311.363 485.445,311.185 485.387,310.973C485.326,310.762 485.297,310.525 485.297,310.263C485.297,309.975 485.332,309.717 485.403,309.489C485.475,309.262 485.577,309.07 485.71,308.916C485.844,308.761 486.006,308.643 486.199,308.561C486.394,308.479 486.611,308.437 486.852,308.437Z" style="fill:rgb(201,49,18);fill-rule:nonzero;"/>
            <path d="M483.342,308.753L483.342,308.5L484.867,308.5L484.867,308.753L484.527,308.818L484.443,308.861L484.413,308.947L484.413,311.447L484.441,311.536L484.524,311.58L484.867,311.648L484.867,311.908L483.359,311.908L483.359,311.648L483.707,311.58L483.787,311.536L483.815,311.447L483.815,310.075L482.533,311.574L482.926,311.648L482.926,311.908L481.688,311.908L481.688,311.648L482.012,311.58L482.088,311.553L482.152,311.504L483,310.563C482.922,310.472 482.85,310.373 482.781,310.266C482.713,310.157 482.635,310.027 482.545,309.875L482.018,308.974L481.938,308.865L481.821,308.811L481.59,308.753L481.59,308.5L482.373,308.5L482.545,308.625C482.605,308.709 482.673,308.822 482.748,308.965L483.249,309.907L483.386,310.13L483.815,309.643L483.815,308.943L483.785,308.857L483.699,308.816L483.342,308.753Z" style="fill:rgb(201,49,18);fill-rule:nonzero;"/>
            <path d="M478.85,311.039L479.143,311.039L479.247,311.449L479.293,311.533L479.373,311.583L479.555,311.62L479.799,311.633L480.285,311.633L480.285,310.396L479.264,310.432L479.264,310.061L480.285,310.086L480.285,308.797L479.686,308.797L479.428,308.809L479.234,308.847L479.157,308.896L479.111,308.98L478.941,309.478L478.651,309.432C478.652,309.28 478.66,309.127 478.676,308.971C478.689,308.815 478.711,308.658 478.738,308.5L481.34,308.5L481.34,308.753L480.994,308.816L480.912,308.861L480.885,308.949L480.885,311.447L480.912,311.536L480.994,311.58L481.34,311.648L481.34,311.908L478.852,311.908C478.838,311.768 478.83,311.625 478.83,311.481C478.83,311.338 478.837,311.191 478.85,311.039Z" style="fill:rgb(201,49,18);fill-rule:nonzero;"/>
            <path d="M477.189,311.648L477.189,310.252L477.053,310.246L476.912,310.243L476.699,310.243C476.528,310.244 476.389,310.306 476.278,310.427C476.169,310.547 476.113,310.738 476.113,310.998C476.113,311.223 476.166,311.391 476.27,311.504C476.374,311.617 476.557,311.674 476.818,311.674L477.031,311.664L477.189,311.648ZM476.716,308.753L476.716,308.5L478.241,308.5L478.241,308.753L477.9,308.818L477.816,308.861L477.787,308.947L477.787,311.449L477.816,311.537L477.898,311.58L478.241,311.648L478.241,311.908L477.495,311.908C477.368,311.908 477.248,311.913 477.134,311.924C477.02,311.934 476.889,311.938 476.742,311.938C476.289,311.938 475.964,311.865 475.77,311.719C475.574,311.573 475.477,311.344 475.477,311.031C475.477,310.865 475.5,310.726 475.547,310.611C475.594,310.498 475.652,310.406 475.723,310.334L475.961,310.167L476.215,310.075C476.119,310.021 476.037,309.953 475.969,309.873C475.9,309.791 475.834,309.686 475.771,309.557L475.475,308.961L475.396,308.853L475.291,308.808L475.063,308.753L475.063,308.5L475.821,308.5C475.889,308.5 475.949,308.546 476.004,308.638C476.059,308.729 476.119,308.85 476.188,309L476.406,309.5C476.454,309.604 476.502,309.697 476.548,309.781L476.689,309.981C476.781,309.981 477.121,309.983 477.189,309.983L477.189,308.943L477.158,308.857L477.074,308.816L476.716,308.753Z" style="fill:rgb(201,49,18);fill-rule:nonzero;"/>
            <path d="M464.56,286.11C464.36,285.73 464.04,285.11 463.95,284.83C463.87,284.56 463.97,284.28 464.21,284.13L464.31,284.09C464.16,283.02 463.97,281.93 463.74,280.84C463.618,280.905 463.374,281.002 463.25,280.94C464.249,285.838 464.5,290.484 464.2,294.81C464.37,294.78 464.54,294.79 464.7,294.85C464.9,291.95 464.85,289.01 464.56,286.11Z" style="fill:rgb(249,203,25);fill-rule:nonzero;"/>
            <path d="M482.11,289.89C482.31,290.27 482.63,290.89 482.72,291.17C482.8,291.44 482.7,291.72 482.46,291.87L482.36,291.91C482.51,292.98 482.7,294.07 482.93,295.16C483.052,295.095 483.296,294.998 483.42,295.06C482.421,290.162 482.17,285.516 482.47,281.19C482.3,281.22 482.13,281.21 481.97,281.15C481.77,284.05 481.82,286.99 482.11,289.89Z" style="fill:rgb(249,203,25);fill-rule:nonzero;"/>
            <path d="M479.21,303.44C478.99,304.6 478.5,305.44 477.74,305.89C476.32,306.75 474.41,306.07 474.39,306.06L472.92,305.53C472.626,305.417 472.426,305.875 472.75,306L473.53,306.28C472.576,307.975 469.654,306.73 468.35,308.62L468.34,308.61C468.271,306.193 471.216,306.854 471.02,304.44C470.968,304.071 470.498,304.178 470.52,304.48C470.55,304.86 470.46,305.13 470.32,305.35C467.86,303.79 467.83,301.9 468.7,299.22C468.834,300.507 469.602,301.563 469.7,301.76L469.71,301.75C471.044,303.686 473.003,304.476 475.37,304.5C476.839,305.273 478.392,305.081 479.17,303.43L479.21,303.44Z" style="fill:rgb(249,203,25);fill-rule:nonzero;"/>
            <path d="M475.65,303.83C475.65,303.956 475.568,304 475.44,304C473.235,304 471.391,303.291 470.12,301.48C469.153,299.587 471.451,298.526 471.3,293.87C471.82,293.35 472.69,293.26 473.94,293.65C473.96,294.69 474.13,295.36 474.46,295.76C473.38,296.02 471.95,296.91 471.95,298.94C471.95,301.24 472.9,303.7 475.58,303.7L475.65,303.83Z" style="fill:rgb(35,75,194);fill-rule:nonzero;"/>
            <path d="M477.84,293.92C476.26,295.13 475.25,295.09 474.8,294.98C477.25,292.37 478.92,289.97 479.8,287.84C479.88,289.45 479.76,292.45 477.84,293.92Z" style="fill:rgb(35,75,194);fill-rule:nonzero;"/>
            <path d="M479.6,286.91C479.09,288.47 478.11,290.18 476.66,292.05C475.74,291.03 474.3,290.42 472.71,290.42C470.877,290.42 472.169,291.145 470.77,288.67L479.6,286.91Z" style="fill:rgb(249,203,25);fill-rule:nonzero;"/>
            <path d="M470.83,293.62L470.78,293.67C470.02,294.66 468.55,294.95 467.34,294.36C467.235,294.256 464.929,293.352 465.89,289.64L470.25,288.77C472.32,292.294 470.688,293.62 470.83,293.62Z" style="fill:rgb(201,49,18);fill-rule:nonzero;"/>
            <path d="M471.87,281.03C469.42,283.64 467.75,286.03 466.87,288.16C466.78,286.55 466.91,283.55 468.83,282.08C470.41,280.87 471.42,280.91 471.87,281.03Z" style="fill:rgb(249,203,25);fill-rule:nonzero;"/>
            <path d="M475.9,287.34L467.07,289.09C467.58,287.53 468.56,285.82 470.01,283.95C471.117,285.178 473.034,285.857 475.08,285.47C475.24,286.02 475.5,286.64 475.9,287.34Z" style="fill:rgb(35,75,194);fill-rule:nonzero;"/>
            <path d="M480.78,286.36L476.42,287.23C474.84,284.54 475.37,283.04 475.85,282.38L475.89,282.33C476.669,281.302 478.173,281.071 479.37,281.67C480.83,282.42 481.35,284.17 480.78,286.36Z" style="fill:rgb(201,49,18);fill-rule:nonzero;"/>
            <path d="M475.36,282.13C474.85,282.65 473.97,282.74 472.73,282.35C472.71,281.31 472.54,280.64 472.2,280.24C473.29,279.99 474.72,279.1 474.72,277.06C474.72,274.76 473.77,272.3 471.08,272.3C471.027,272.3 470.986,272.148 471.06,272.05C471.182,271.928 473.146,271.975 474.66,272.8C475.45,273.23 476.08,273.85 476.55,274.52C477.497,276.414 475.239,277.482 475.36,282.13Z" style="fill:rgb(35,75,194);fill-rule:nonzero;"/>
            <path d="M477.97,276.79C477.815,275.454 477.057,274.422 476.97,274.25C475.657,272.346 473.606,271.51 471.3,271.51C471.06,271.37 469.96,270.84 468.9,271.2C468.3,271.4 467.83,271.87 467.5,272.57L467.46,272.57C467.68,271.4 468.16,270.57 468.92,270.11C470.34,269.26 472.25,269.93 472.27,269.94L473.75,270.48C474.073,270.579 474.226,270.117 473.92,270L473.14,269.72C474.103,268.009 477.054,269.265 478.31,267.38L478.33,267.39C478.398,269.778 475.455,269.168 475.65,271.56C475.675,271.884 476.174,271.857 476.15,271.52C476.12,271.14 476.2,270.87 476.34,270.65C478.81,272.21 478.83,274.11 477.97,276.79Z" style="fill:rgb(249,203,25);fill-rule:nonzero;"/>
            <path d="M458.531,278.228C459.308,278.532 460.011,279.002 460.589,279.603C460.894,278.826 461.363,278.123 461.964,277.545C461.188,277.24 460.484,276.771 459.906,276.17C459.602,276.946 459.132,277.649 458.531,278.228Z" style="fill:rgb(201,49,18);fill-rule:nonzero;"/>
            <path d="M466.468,278.558C466.349,277.601 465.041,277.429 464.675,278.313C464.278,279.269 465.429,280.347 465.431,281.062C465.938,280.558 467.513,280.608 467.908,279.652C468.274,278.769 467.229,277.964 466.468,278.558Z" style="fill:rgb(201,49,18);fill-rule:nonzero;"/>
            <path d="M486.078,296.4C485.773,297.177 485.304,297.88 484.703,298.458C485.479,298.763 486.183,299.232 486.761,299.833C487.065,299.057 487.535,298.354 488.136,297.775C487.359,297.471 486.656,297.001 486.078,296.4Z" style="fill:rgb(201,49,18);fill-rule:nonzero;"/>
            <path d="M481.992,297.69C482.389,296.733 481.239,295.656 481.236,294.941C480.729,295.445 479.155,295.395 478.759,296.351C478.394,297.232 479.436,298.04 480.2,297.444C480.318,298.402 481.626,298.574 481.992,297.69Z" style="fill:rgb(201,49,18);fill-rule:nonzero;"/>
            <path d="M475.612,292.983C475.75,292.983 475.862,292.872 475.862,292.733C475.862,292.596 475.75,292.483 475.612,292.483C475.475,292.483 475.362,292.596 475.362,292.733C475.362,292.871 475.475,292.983 475.612,292.983ZM474.501,291.979C474.367,291.942 474.23,292.021 474.193,292.154C474.157,292.287 474.236,292.425 474.369,292.461C474.503,292.497 474.64,292.419 474.677,292.285C474.713,292.152 474.634,292.015 474.501,291.979ZM473.16,291.802C473.022,291.802 472.91,291.914 472.91,292.052C472.91,292.189 473.022,292.302 473.16,292.302C473.298,292.302 473.41,292.19 473.41,292.052C473.41,291.914 473.299,291.802 473.16,291.802ZM483.964,295.693C483.768,295.497 483.453,295.498 483.257,295.693C483.061,295.89 483.063,296.204 483.257,296.4C483.454,296.596 483.769,296.595 483.964,296.4C484.16,296.203 484.159,295.889 483.964,295.693ZM483.168,295.15C483.322,295.074 483.482,295.041 483.657,295.049C483.359,293.605 483.063,291.803 482.878,290.049C482.863,289.911 482.963,289.788 483.101,289.774C483.237,289.76 483.36,289.859 483.375,289.996L483.394,290.157C483.596,290.127 483.96,290.04 484.076,289.872L484.086,289.785L484.002,289.713C483.761,289.569 483.341,289.6 483.066,289.65C482.931,289.675 482.8,289.585 482.774,289.449C482.75,289.313 482.84,289.184 482.976,289.158C483.335,289.092 483.744,289.077 484.086,289.203C484.046,288.99 483.703,288.936 483.484,288.936C483.363,288.936 483.222,288.948 483.06,288.979C482.923,289.004 482.793,288.915 482.768,288.778C482.742,288.644 482.832,288.513 482.968,288.487C483.335,288.419 483.746,288.399 484.088,288.547C484.064,288.322 483.712,288.263 483.484,288.263C483.369,288.263 483.234,288.274 483.081,288.303C482.944,288.327 482.814,288.236 482.79,288.101C482.766,287.965 482.856,287.835 482.992,287.811C483.353,287.746 483.756,287.73 484.092,287.876C484.077,287.62 483.662,287.552 483.404,287.552C482.887,287.552 482.866,287.557 482.798,287.521L482.676,287.379C482.642,287.275 482.493,284.44 482.708,281.21C482.544,281.235 482.381,281.223 482.21,281.159C482.021,283.969 482.051,286.854 482.359,289.889C482.498,290.153 482.71,290.566 482.851,290.881C482.935,291.07 482.996,291.208 482.995,291.356C482.996,291.596 482.852,291.824 482.606,291.917C482.76,293 482.947,294.079 483.168,295.15ZM482.491,291.326C482.391,291.006 481.89,290.079 481.876,290.033C481.845,289.932 481.71,288.283 481.657,287.239C481.326,287.106 481.01,286.998 480.72,286.91C480.829,287.765 480.854,288.755 480.771,289.687C480.915,289.729 480.886,289.794 481.439,290.461C481.721,290.802 482.018,291.124 482.325,291.428C482.399,291.501 482.522,291.426 482.491,291.326ZM482.2,280.571C482.393,280.769 482.709,280.773 482.906,280.58C483.105,280.387 483.108,280.071 482.916,279.873C482.724,279.676 482.407,279.672 482.209,279.864C482.011,280.058 482.008,280.373 482.2,280.571ZM475.389,282.328L475.348,282.384C474.353,283.765 475.04,285.754 475.909,287.232L480.28,286.363C481.594,281.354 476.974,280.265 475.389,282.328ZM480.302,287.849C479.491,289.807 477.932,292.175 475.302,294.984C476.297,295.243 477.518,294.546 478.337,293.919C480.055,292.605 480.417,289.997 480.302,287.849ZM473.24,297.605C473.06,297.96 472.945,298.396 472.945,298.938C472.945,300.352 473.338,302.036 474.528,302.788C474.908,303.027 475.377,303.178 475.968,303.196C476.117,303.01 476.231,302.844 476.313,302.695C476.367,302.558 476.46,302.303 476.468,302.155C476.09,302.144 474.966,302.553 474.129,301.36C474.05,301.247 474.077,301.091 474.19,301.012C474.303,300.933 474.459,300.96 474.538,301.072C475.185,301.988 475.928,301.648 476.466,301.655C476.39,301.436 476.308,301.251 476.308,300.998C476.308,300.607 476.563,300.115 476.771,299.789C476.865,299.644 476.964,299.504 477.065,299.362L476.443,299.178C476.311,299.139 476.235,299 476.274,298.867C476.311,298.744 476.438,298.655 476.603,298.704C476.62,298.489 476.679,298.308 476.769,298.147C476.167,298.055 475.461,298.163 474.958,298.538C474.847,298.62 474.69,298.598 474.607,298.486C474.525,298.376 474.548,298.219 474.659,298.137C475.229,297.712 475.979,297.566 476.666,297.631C476.167,297.206 476.573,296.516 476.281,296.302L476.104,296.224C475.937,296.177 475.765,296.179 475.705,296.173C474.781,296.143 473.712,296.682 473.24,297.605ZM475.873,304.5C473.667,304.483 471.695,303.748 470.366,301.997C469.764,301.202 469.305,300.195 469.191,299.234C468.303,301.984 468.398,303.827 470.838,305.368C470.973,305.154 471.052,304.884 471.018,304.48C471.007,304.343 471.108,304.222 471.246,304.21C471.384,304.199 471.505,304.301 471.517,304.438C471.719,306.841 468.754,306.227 468.831,308.605L468.845,308.612C468.974,308.423 469.134,308.257 469.313,308.114C470.507,307.171 472.017,307.59 473.241,306.987C473.566,306.827 473.86,306.604 474.038,306.285L473.249,305.998C473.119,305.95 473.052,305.807 473.099,305.678C473.146,305.548 473.29,305.48 473.42,305.528C474.965,306.09 474.965,306.104 475.361,306.193C476.22,306.387 477.202,306.4 478.004,306.021C479.02,305.54 479.509,304.565 479.718,303.457L479.669,303.449C479.234,304.367 478.513,304.93 477.501,304.928C476.931,304.928 476.325,304.74 475.873,304.5ZM479.522,302.825C479.72,303.021 480.034,303.02 480.23,302.824C480.426,302.628 480.425,302.313 480.23,302.117C480.033,301.922 479.719,301.923 479.522,302.117C479.327,302.314 479.328,302.629 479.522,302.825ZM468.792,309.172C468.595,308.976 468.28,308.977 468.085,309.172C467.889,309.368 467.89,309.683 468.085,309.879C468.281,310.074 468.597,310.073 468.792,309.879C468.988,309.682 468.986,309.367 468.792,309.172ZM469.03,298.673C469.307,298.673 469.53,298.449 469.53,298.173C469.53,297.896 469.307,297.673 469.03,297.673C468.754,297.673 468.53,297.896 468.53,298.173C468.53,298.449 468.754,298.673 469.03,298.673ZM470.633,301.513C471.872,303.282 473.791,304.002 475.938,304C476.063,304 476.147,303.958 476.147,303.833L476.096,303.702C476.035,303.689 475.375,303.737 474.649,303.417C473.014,302.695 472.445,300.709 472.445,298.938C472.444,297.252 473.477,296.104 474.943,295.755C474.522,295.23 474.453,294.321 474.442,293.652C473.581,293.387 472.451,293.2 471.807,293.831C471.857,295.451 471.573,297.01 471.036,298.416C470.652,299.416 470.024,300.351 470.633,301.513ZM471.238,295.498C471.281,295.124 471.306,294.747 471.312,294.37C470.848,294.784 470.275,295.032 469.67,295.122C470.37,295.346 470.937,295.452 471.238,295.498ZM471.278,293.674L471.32,293.618C472.317,292.234 471.623,290.239 470.757,288.768L466.388,289.637C465.07,294.65 469.695,295.735 471.278,293.674ZM466.365,288.154C467.176,286.195 468.735,283.827 471.365,281.018C470.371,280.76 469.15,281.457 468.331,282.083C466.615,283.395 466.25,285.998 466.365,288.154ZM473.427,278.397C473.607,278.042 473.722,277.606 473.722,277.064C473.723,275.652 473.33,273.967 472.14,273.215C471.759,272.976 471.29,272.824 470.699,272.807C470.55,272.992 470.437,273.159 470.354,273.307C470.3,273.446 470.208,273.7 470.199,273.848C470.47,273.855 471.109,273.657 471.748,273.953C472.025,274.081 472.299,274.302 472.538,274.643C472.617,274.756 472.59,274.911 472.478,274.991C472.364,275.07 472.208,275.043 472.129,274.931C471.48,274.011 470.721,274.354 470.201,274.348C470.276,274.563 470.359,274.75 470.359,275.005C470.359,275.395 470.105,275.887 469.896,276.214C469.802,276.359 469.703,276.498 469.602,276.641L470.225,276.824C470.356,276.863 470.432,277.003 470.393,277.135C470.356,277.259 470.229,277.348 470.064,277.299C470.047,277.513 469.989,277.694 469.898,277.855C470.503,277.948 471.208,277.838 471.71,277.465C471.82,277.383 471.977,277.405 472.06,277.517C472.142,277.627 472.119,277.783 472.008,277.866C471.438,278.289 470.689,278.436 470.001,278.371C470.5,278.796 470.094,279.487 470.387,279.7L470.563,279.778C470.73,279.825 470.902,279.824 470.963,279.83C471.888,279.859 472.956,279.319 473.427,278.397ZM470.794,271.503C473,271.52 474.972,272.255 476.301,274.005C476.904,274.801 477.362,275.807 477.477,276.768C478.364,274.019 478.27,272.175 475.829,270.634C475.694,270.849 475.615,271.12 475.649,271.522C475.661,271.659 475.559,271.78 475.422,271.792C475.284,271.804 475.163,271.702 475.151,271.564C474.947,269.171 477.912,269.768 477.836,267.397L477.822,267.391C477.693,267.579 477.533,267.746 477.354,267.888C476.16,268.831 474.65,268.413 473.426,269.016C473.102,269.175 472.808,269.398 472.63,269.718L473.419,270.005C473.549,270.052 473.615,270.195 473.568,270.325C473.521,270.455 473.377,270.521 473.248,270.475C471.694,269.91 471.69,269.896 471.306,269.809C470.447,269.616 469.465,269.603 468.663,269.981C467.647,270.463 467.158,271.437 466.949,272.545L466.998,272.553C467.434,271.633 468.156,271.073 469.166,271.074C469.737,271.075 470.342,271.262 470.794,271.503ZM467.145,273.178C466.947,272.981 466.633,272.983 466.438,273.178C466.241,273.375 466.242,273.689 466.438,273.885C466.635,274.081 466.949,274.08 467.145,273.885C467.341,273.688 467.339,273.373 467.145,273.178ZM477.876,266.831C478.072,267.027 478.387,267.025 478.583,266.831C478.778,266.634 478.777,266.319 478.583,266.124C478.386,265.928 478.071,265.93 477.875,266.124C477.68,266.321 477.681,266.636 477.876,266.831ZM477.637,277.33C477.36,277.33 477.137,277.554 477.137,277.83C477.137,278.106 477.36,278.33 477.637,278.33C477.913,278.33 478.137,278.106 478.137,277.83C478.137,277.554 477.913,277.33 477.637,277.33ZM471.727,282.517C471.727,282.162 471.71,281.791 471.654,281.44C470.968,282.178 470.356,282.883 469.816,283.556C470.897,284.817 472.781,285.301 474.46,284.989C474.322,284.311 474.31,283.615 474.513,282.959C473.704,283.243 472.713,283.042 471.897,282.771C471.701,282.501 471.727,282.543 471.727,282.517ZM475.391,287.336C475.012,286.669 474.746,286.048 474.58,285.475C472.759,285.822 470.724,285.313 469.501,283.954C467.942,285.961 467.016,287.674 466.548,289.095L475.391,287.336ZM477.166,292.048C478.727,290.04 479.652,288.326 480.121,286.905L471.275,288.664C471.655,289.332 471.921,289.954 472.087,290.527C473.909,290.181 475.944,290.689 477.166,292.048ZM474.94,293.485C474.94,293.84 474.957,294.214 475.013,294.563C475.7,293.825 476.311,293.12 476.851,292.447C475.77,291.186 473.886,290.702 472.207,291.014C472.345,291.692 472.357,292.388 472.155,293.044C472.963,292.759 473.954,292.961 474.77,293.231C474.964,293.503 474.94,293.465 474.94,293.485ZM476.035,274.49C474.796,272.721 472.877,272.001 470.729,272.002L470.581,272.037C470.484,272.104 470.519,272.274 470.571,272.3C470.632,272.313 471.293,272.265 472.018,272.586C473.649,273.306 474.222,275.287 474.222,277.064C474.223,278.765 473.176,279.901 471.724,280.248C472.144,280.771 472.214,281.679 472.225,282.35C473.086,282.615 474.217,282.803 474.86,282.172C474.764,279.122 475.846,277.127 476.061,276.553C476.336,275.823 476.4,275.188 476.035,274.49ZM475.429,280.504C475.386,280.879 475.361,281.256 475.355,281.633C475.819,281.218 476.392,280.97 476.997,280.88C476.297,280.657 475.731,280.551 475.429,280.504ZM465.947,289.093C465.839,288.243 465.812,287.253 465.896,286.315C465.752,286.274 465.783,286.211 465.229,285.542C464.946,285.201 464.65,284.879 464.342,284.574L464.172,284.646C464.172,284.777 464.775,285.931 464.78,285.941C464.848,286.096 464.995,288.483 465.01,288.764C465.342,288.896 465.657,289.005 465.947,289.093ZM464.468,295.432C464.274,295.233 463.959,295.229 463.761,295.422C463.563,295.615 463.559,295.931 463.751,296.129C463.943,296.327 464.26,296.331 464.458,296.139C464.656,295.944 464.659,295.629 464.468,295.432ZM463.869,288.481L463.991,288.624C464.028,288.734 464.169,291.636 463.959,294.793C464.124,294.768 464.287,294.78 464.457,294.844C464.645,292.039 464.616,289.155 464.308,286.114C464.169,285.85 463.957,285.437 463.816,285.122C463.73,284.927 463.672,284.792 463.672,284.646C463.672,284.41 463.812,284.18 464.061,284.086C463.907,283.002 463.72,281.924 463.499,280.852C463.345,280.929 463.185,280.962 463.011,280.954C463.323,282.471 463.567,284.001 463.742,285.538L463.789,285.954C463.804,286.091 463.704,286.214 463.566,286.229C463.43,286.243 463.307,286.144 463.292,286.006L463.273,285.846C463.072,285.876 462.708,285.963 462.591,286.131L462.581,286.218L462.665,286.289C462.906,286.433 463.326,286.403 463.602,286.353C463.737,286.327 463.867,286.418 463.893,286.554C463.917,286.689 463.827,286.819 463.691,286.845C463.332,286.91 462.923,286.926 462.581,286.799C462.621,287.013 462.964,287.067 463.184,287.067C463.304,287.067 463.445,287.055 463.608,287.023C463.744,286.998 463.874,287.088 463.899,287.224C463.925,287.359 463.836,287.49 463.7,287.516C463.332,287.584 462.921,287.603 462.579,287.456C462.603,287.68 462.955,287.739 463.183,287.739C463.298,287.739 463.433,287.728 463.587,287.7C463.723,287.676 463.853,287.767 463.877,287.902C463.901,288.038 463.811,288.168 463.675,288.192C463.314,288.257 462.911,288.272 462.576,288.127C462.591,288.383 463.006,288.45 463.263,288.45C463.771,288.45 463.799,288.444 463.869,288.481ZM462.703,280.31C462.9,280.506 463.215,280.504 463.41,280.31C463.606,280.112 463.604,279.798 463.41,279.603C463.213,279.406 462.898,279.408 462.703,279.603C462.507,279.8 462.509,280.114 462.703,280.31ZM484.61,296.047C484.61,296.943 483.525,297.376 482.903,296.754C482.588,296.438 482.518,295.949 482.74,295.555C482.481,294.336 482.267,293.107 482.095,291.874L481.975,291.784C481.503,291.319 481.095,290.85 480.694,290.328C480.461,291.876 479.874,293.374 478.641,294.316C477.736,295.008 476.522,295.677 475.397,295.513C475.52,295.63 475.65,295.676 475.818,295.678C476.304,295.709 476.741,295.855 476.863,296.326C476.964,296.717 476.802,297.12 477.006,297.266C477.151,297.369 477.146,297.586 476.995,297.681C477.097,297.703 477.313,297.756 477.392,297.825C477.495,297.918 477.505,298.073 477.412,298.177C477.352,298.246 477.259,298.255 477.171,298.457C477.124,298.564 477.094,298.702 477.098,298.851L477.543,298.982L477.677,299.364C477.327,299.868 477.029,300.217 476.849,300.764C476.696,301.227 477.037,301.442 477.036,302.01C477.037,302.495 476.758,302.979 476.469,303.367C476.676,303.584 476.718,303.968 476.514,304.237C476.779,304.335 477.135,304.429 477.501,304.428C478.327,304.427 478.872,303.971 479.222,303.226C478.78,302.843 478.762,302.171 479.169,301.764C479.559,301.374 480.193,301.373 480.584,301.764C481.092,302.271 480.915,303.142 480.235,303.403C480.069,304.404 479.726,305.14 479.276,305.664C478.127,307.011 476.172,307.062 474.513,306.458C474.338,306.807 474.064,307.074 473.74,307.28C472.375,308.146 470.742,307.62 469.624,308.507C469.468,308.63 469.335,308.772 469.236,308.925C469.362,309.092 469.438,309.3 469.438,309.525C469.438,310.422 468.353,310.854 467.731,310.232C467.136,309.638 467.503,308.62 468.33,308.531C468.318,306.749 469.773,306.325 470.494,305.742C469.043,304.804 468.172,303.607 468.173,301.887C468.174,301.008 468.393,300.088 468.704,299.117C468.004,298.874 467.804,297.984 468.323,297.466C468.713,297.075 469.348,297.074 469.737,297.466C470.154,297.881 470.122,298.566 469.668,298.942C469.683,299.267 469.753,299.659 469.911,300.112C470.083,298.949 470.799,298.31 471.17,295.993C470.59,295.905 469.124,295.615 467.543,294.765C466.804,294.378 466.262,293.755 465.956,292.985C465.53,291.918 465.601,290.71 465.882,289.595C465.618,289.518 465.334,289.424 465.034,289.31C465.109,291.219 465.084,293.174 464.934,295.216C465.211,295.621 465.153,296.16 464.807,296.497C464.573,296.258 464.575,296.259 464.807,296.497C464.613,296.686 464.36,296.78 464.109,296.78C463.194,296.781 462.761,295.648 463.442,295.037C463.594,292.935 463.61,290.943 463.516,288.95C463.225,288.948 462.898,288.97 462.57,288.819C462.104,288.605 461.962,288.146 462.162,287.767C462.044,287.547 462.054,287.303 462.162,287.095C462.049,286.885 462.054,286.657 462.145,286.46C461.988,286.188 462.06,285.829 462.477,285.584C462.666,285.473 462.911,285.393 463.218,285.349C463.035,283.808 462.781,282.274 462.459,280.757C462.193,280.558 462.057,280.26 462.057,279.956C462.057,279.404 462.504,278.956 463.057,278.956C463.826,278.956 464.3,279.787 463.927,280.447C464.186,281.667 464.4,282.895 464.572,284.129L464.693,284.219C465.17,284.688 465.578,285.159 465.974,285.675C466.205,284.131 466.792,282.63 468.027,281.687C468.931,280.995 470.145,280.325 471.27,280.489C471.147,280.372 471.017,280.327 470.849,280.324C470.363,280.294 469.926,280.147 469.804,279.677C469.706,279.293 469.863,278.881 469.661,278.736C469.516,278.634 469.521,278.417 469.672,278.321C469.57,278.3 469.354,278.246 469.275,278.177C469.146,278.063 469.172,277.859 469.313,277.775C469.498,277.667 469.575,277.367 469.57,277.152L469.125,277.021L468.99,276.638C469.341,276.135 469.638,275.786 469.818,275.239C469.87,275.081 469.87,274.957 469.832,274.813C469.717,274.379 469.291,273.851 470.199,272.636C469.987,272.414 469.952,272.03 470.153,271.765C469.888,271.668 469.532,271.574 469.166,271.574C468.34,271.575 467.796,272.032 467.445,272.777C468.145,273.385 467.71,274.532 466.791,274.531C466.239,274.531 465.79,274.084 465.791,273.531C465.791,273.105 466.057,272.743 466.432,272.599C466.818,270.276 468.2,269.177 470.155,269.177C471.147,269.178 471.928,269.463 471.944,269.469L472.154,269.545C472.329,269.196 472.603,268.928 472.927,268.723C474.289,267.859 475.926,268.381 477.044,267.496C477.199,267.372 477.332,267.23 477.431,267.078C476.938,266.423 477.403,265.478 478.229,265.478C479.125,265.478 479.559,266.563 478.937,267.185C478.78,267.341 478.57,267.446 478.337,267.472C478.349,269.254 476.887,269.683 476.174,270.261C477.621,271.197 478.495,272.393 478.494,274.116C478.493,274.995 478.274,275.915 477.963,276.886C478.108,276.936 478.238,277.018 478.344,277.123C478.967,277.744 478.534,278.83 477.637,278.83C477.085,278.83 476.637,278.382 476.637,277.83C476.637,277.528 476.771,277.248 476.999,277.06C476.981,276.669 476.887,276.266 476.756,275.891C476.584,277.054 475.869,277.693 475.497,280.009C476.077,280.097 477.544,280.388 479.124,281.238C479.879,281.633 480.412,282.265 480.712,283.018C481.138,284.084 481.066,285.293 480.786,286.408C481.049,286.485 481.333,286.579 481.633,286.692C481.553,284.652 481.593,282.697 481.733,280.786C481.282,280.128 481.753,279.222 482.558,279.223C483.472,279.222 483.906,280.353 483.225,280.966C483.074,283.054 483.056,285.047 483.151,287.052C483.44,287.055 483.768,287.032 484.097,287.184C484.564,287.397 484.704,287.857 484.505,288.235C484.624,288.455 484.613,288.7 484.505,288.908C484.618,289.117 484.613,289.345 484.522,289.543C484.679,289.813 484.608,290.173 484.19,290.419C484.001,290.529 483.756,290.609 483.449,290.654C483.632,292.195 483.886,293.728 484.209,295.246C484.474,295.444 484.61,295.743 484.61,296.047ZM475.476,301.182C475.614,301.18 475.725,301.066 475.724,300.929C475.721,300.74 475.721,300.74 475.719,300.554C475.718,300.415 475.604,300.305 475.466,300.307C475.328,300.308 475.218,300.421 475.219,300.559C475.221,300.746 475.221,300.746 475.224,300.934C475.225,301.072 475.338,301.183 475.476,301.182ZM471.055,283.019C470.917,283.019 470.805,283.131 470.805,283.269C470.805,283.407 470.917,283.519 471.055,283.519C471.192,283.519 471.305,283.407 471.305,283.269C471.305,283.131 471.193,283.019 471.055,283.019ZM472.167,284.023C472.3,284.061 472.438,283.981 472.474,283.849C472.51,283.715 472.431,283.578 472.298,283.541C472.165,283.505 472.027,283.584 471.991,283.717C471.955,283.851 472.033,283.987 472.167,284.023ZM473.507,284.2C473.645,284.2 473.757,284.089 473.757,283.95C473.757,283.813 473.645,283.7 473.507,283.7C473.369,283.7 473.257,283.813 473.257,283.95C473.257,284.088 473.369,284.2 473.507,284.2ZM471.444,275.068C471.446,275.256 471.446,275.256 471.448,275.443C471.449,275.582 471.339,275.695 471.201,275.696C471.063,275.698 470.949,275.587 470.948,275.449C470.946,275.262 470.946,275.262 470.944,275.074C470.942,274.937 471.053,274.823 471.191,274.821C471.329,274.82 471.442,274.931 471.444,275.068Z" style="fill:rgb(31,31,31);fill-rule:nonzero;"/>
            <path d="M463.695,276.148L463.987,276.584C464.217,276.929 464.683,277.021 465.027,276.791C465.372,276.561 465.464,276.095 465.234,275.751C465.004,275.406 464.538,275.313 464.193,275.544L463.815,275.797C463.951,275.529 464.142,275.416 464.303,275.309C464.646,275.078 464.739,274.612 464.51,274.269C464.276,273.92 463.809,273.835 463.469,274.062C463.125,274.291 463.032,274.757 463.262,275.102C463.37,275.263 463.503,275.44 463.525,275.739L463.272,275.36C463.042,275.016 462.577,274.924 462.232,275.153C461.888,275.384 461.795,275.85 462.025,276.193C462.256,276.538 462.721,276.631 463.065,276.4L463.501,276.109C463.408,276.764 463.061,277.097 462.871,277.224L462.847,277.346L463.827,277.541L463.852,277.418C463.57,276.997 463.616,276.438 463.695,276.148Z" style="fill:rgb(31,31,31);fill-rule:nonzero;"/>
            <path d="M459.556,280.213C459.569,280.953 458.415,281.704 458.82,282.683C459.123,283.413 460.172,283.399 460.447,282.648C460.533,282.933 460.577,283.293 460.434,283.638L460.481,283.753L461.405,283.37L461.357,283.255C461.013,283.112 460.789,282.827 460.648,282.565C461.373,282.9 462.126,282.171 461.822,281.438C461.418,280.461 460.07,280.746 459.556,280.213Z" style="fill:rgb(31,31,31);fill-rule:nonzero;"/>
            <path d="M483.602,299.602L483.166,299.893C483.266,299.204 483.639,298.885 483.796,298.779L483.82,298.656L482.84,298.462L482.815,298.584C483.097,299.005 483.052,299.567 482.972,299.854L482.681,299.419C482.45,299.074 481.984,298.981 481.64,299.212C481.296,299.441 481.203,299.907 481.434,300.252C481.663,300.597 482.129,300.689 482.474,300.459L482.852,300.206C482.717,300.474 482.526,300.586 482.365,300.694C481.811,301.064 481.983,301.922 482.634,302.053C483.292,302.183 483.773,301.453 483.405,300.901C483.298,300.74 483.165,300.563 483.142,300.264L483.395,300.643C483.625,300.986 484.091,301.079 484.435,300.849C484.779,300.619 484.872,300.153 484.642,299.809C484.412,299.464 483.946,299.372 483.602,299.602Z" style="fill:rgb(31,31,31);fill-rule:nonzero;"/>
            <path d="M487.111,295.79C487.098,295.049 488.252,294.298 487.848,293.32C487.545,292.589 486.495,292.604 486.22,293.354C486.135,293.07 486.091,292.71 486.233,292.365L486.186,292.249L485.262,292.632L485.31,292.747C485.654,292.891 485.878,293.176 486.019,293.437C485.294,293.102 484.541,293.832 484.845,294.563C485.25,295.542 486.598,295.257 487.111,295.79Z" style="fill:rgb(31,31,31);fill-rule:nonzero;"/>
        </g>
    </g>
</svg>
