<?xml version="1.0" encoding="UTF-8" standalone="no"?>
<!DOCTYPE svg PUBLIC "-//W3C//DTD SVG 1.1//EN" "http://www.w3.org/Graphics/SVG/1.1/DTD/svg11.dtd">
<svg width="100%" height="100%" viewBox="0 0 41 56" version="1.1" xmlns="http://www.w3.org/2000/svg" xmlns:xlink="http://www.w3.org/1999/xlink" xml:space="preserve" xmlns:serif="http://www.serif.com/" style="fill-rule:evenodd;clip-rule:evenodd;stroke-linejoin:round;stroke-miterlimit:2;">
    <g transform="matrix(1,0,0,1,-323,-20)">
        <g>
            <path d="M360.833,76L325.833,76C324.452,76 323.333,74.881 323.333,73.5L323.333,22.5C323.333,21.12 324.452,20 325.833,20L360.833,20C362.214,20 363.333,21.12 363.333,22.5L363.333,73.5C363.333,74.881 362.214,76 360.833,76Z" style="fill:white;fill-rule:nonzero;"/>
            <path d="M330.803,31.551C330.521,31.27 330.065,31.27 329.784,31.551L329.475,31.86C329.553,31.583 329.711,31.441 329.843,31.31C330.124,31.028 330.123,30.572 329.843,30.291C329.702,30.151 329.519,30.081 329.335,30.081C329.151,30.081 328.964,30.151 328.824,30.291C328.543,30.572 328.543,31.028 328.824,31.31C328.956,31.441 329.114,31.583 329.191,31.86L328.883,31.551C328.602,31.27 328.146,31.27 327.864,31.551C327.583,31.832 327.583,32.289 327.864,32.57C328.146,32.851 328.602,32.851 328.883,32.57L329.238,32.214L329.239,32.234C329.246,32.546 329.196,33.038 328.854,33.38L328.854,33.5L329.813,33.5L329.813,33.38C329.472,33.04 329.421,32.551 329.427,32.239L329.429,32.214L329.784,32.57C330.065,32.851 330.521,32.851 330.803,32.57C331.083,32.289 331.083,31.832 330.803,31.551Z" style="fill:rgb(31,31,31);fill-rule:nonzero;"/>
            <path d="M355.803,64.468C356.096,64.761 356.57,64.761 356.863,64.468L357.186,64.146C357.104,64.435 356.939,64.583 356.803,64.72C356.51,65.013 356.51,65.488 356.803,65.781C356.949,65.927 357.14,66 357.331,66C357.522,66 357.718,65.927 357.863,65.781C358.156,65.488 358.156,65.013 357.863,64.72C357.727,64.583 357.562,64.435 357.481,64.146L357.803,64.468C358.096,64.761 358.57,64.761 358.863,64.468C359.156,64.175 359.156,63.701 358.863,63.408C358.57,63.115 358.096,63.115 357.803,63.408L357.433,63.778L357.432,63.757C357.425,63.433 357.476,62.92 357.833,62.563L357.833,62.438L356.833,62.438L356.833,62.563C357.188,62.918 357.242,63.427 357.236,63.752L357.234,63.778L356.863,63.408C356.57,63.115 356.096,63.115 355.803,63.408C355.51,63.701 355.51,64.175 355.803,64.468Z" style="fill:rgb(31,31,31);fill-rule:nonzero;"/>
            <path d="M328.708,25.306C328.708,25.405 328.73,25.494 328.774,25.572L328.958,25.788C329.035,25.853 329.127,25.914 329.232,25.971C329.339,26.028 329.451,26.085 329.571,26.141C329.719,26.046 329.826,25.936 329.892,25.81C329.958,25.684 329.99,25.554 329.99,25.42C329.99,25.214 329.93,25.056 329.808,24.944C329.686,24.832 329.525,24.777 329.327,24.777C329.132,24.777 328.979,24.827 328.871,24.927C328.762,25.026 328.708,25.153 328.708,25.306ZM329.354,28.209C329.578,28.209 329.754,28.152 329.88,28.037C330.006,27.921 330.069,27.776 330.069,27.602C330.069,27.489 330.044,27.391 329.992,27.308L329.787,27.084C329.702,27.018 329.602,26.957 329.487,26.902C329.373,26.847 328.994,26.664 328.967,26.65C328.815,26.745 328.702,26.862 328.628,27.001C328.553,27.14 328.516,27.288 328.516,27.444C328.516,27.572 328.538,27.685 328.584,27.78C328.63,27.876 328.69,27.956 328.768,28.019C328.844,28.082 328.934,28.129 329.035,28.162C329.137,28.193 329.243,28.209 329.354,28.209ZM329.304,28.582C329.085,28.582 328.882,28.558 328.696,28.509C328.51,28.461 328.35,28.392 328.216,28.301C328.082,28.211 327.978,28.1 327.902,27.967C327.826,27.834 327.788,27.683 327.788,27.514C327.788,27.272 327.864,27.058 328.017,26.872C328.169,26.685 328.374,26.549 328.632,26.464C328.46,26.355 328.311,26.223 328.186,26.065C328.061,25.909 327.998,25.714 327.998,25.484C327.998,25.325 328.031,25.179 328.097,25.047C328.163,24.915 328.256,24.803 328.376,24.71C328.496,24.617 328.641,24.544 328.81,24.493C328.979,24.442 329.165,24.416 329.371,24.416C329.563,24.416 329.74,24.439 329.902,24.484C330.063,24.53 330.202,24.594 330.318,24.676C330.434,24.759 330.523,24.858 330.589,24.973C330.653,25.089 330.686,25.216 330.686,25.356C330.686,25.569 330.614,25.762 330.471,25.933C330.327,26.105 330.146,26.232 329.93,26.316C330.056,26.38 330.176,26.448 330.29,26.519C330.404,26.591 330.505,26.671 330.59,26.759C330.675,26.848 330.743,26.948 330.795,27.061C330.847,27.173 330.872,27.301 330.872,27.444C330.872,27.619 330.834,27.777 330.757,27.917C330.681,28.058 330.574,28.177 330.438,28.275C330.301,28.373 330.135,28.449 329.941,28.502C329.747,28.555 329.535,28.582 329.304,28.582Z" style="fill:rgb(31,31,31);fill-rule:nonzero;"/>
            <path d="M357.957,70.695C357.957,70.596 357.935,70.507 357.891,70.429L357.707,70.213C357.629,70.148 357.537,70.087 357.432,70.03C357.326,69.973 357.213,69.916 357.094,69.86C356.945,69.955 356.839,70.065 356.773,70.191C356.707,70.317 356.674,70.447 356.674,70.581C356.674,70.787 356.735,70.945 356.857,71.057C356.979,71.168 357.14,71.224 357.338,71.224C357.533,71.224 357.686,71.174 357.794,71.074C357.902,70.975 357.957,70.848 357.957,70.695ZM357.311,67.791C357.086,67.791 356.91,67.849 356.785,67.964C356.658,68.08 356.596,68.225 356.596,68.399C356.596,68.512 356.621,68.61 356.673,68.693L356.878,68.917C356.963,68.983 357.063,69.044 357.178,69.099C357.292,69.154 357.671,69.337 357.698,69.351C357.85,69.256 357.963,69.139 358.037,69C358.111,68.861 358.148,68.713 358.148,68.557C358.148,68.429 358.127,68.316 358.08,68.221C358.035,68.124 357.975,68.045 357.897,67.982C357.82,67.919 357.731,67.872 357.63,67.839C357.527,67.808 357.422,67.791 357.311,67.791ZM357.361,67.419C357.58,67.419 357.783,67.443 357.969,67.492C358.154,67.54 358.314,67.609 358.449,67.7C358.582,67.79 358.688,67.901 358.763,68.034C358.838,68.167 358.877,68.318 358.877,68.487C358.877,68.729 358.801,68.943 358.648,69.129C358.496,69.316 358.291,69.452 358.033,69.537C358.205,69.645 358.354,69.778 358.479,69.936C358.604,70.092 358.667,70.287 358.667,70.517C358.667,70.676 358.634,70.822 358.568,70.954C358.502,71.085 358.409,71.198 358.289,71.291C358.168,71.384 358.023,71.457 357.855,71.508C357.687,71.559 357.5,71.585 357.294,71.585C357.102,71.585 356.925,71.562 356.763,71.517C356.602,71.471 356.463,71.407 356.347,71.325C356.231,71.242 356.141,71.143 356.076,71.028C356.012,70.912 355.979,70.785 355.979,70.645C355.979,70.432 356.051,70.239 356.194,70.068C356.338,69.896 356.518,69.769 356.735,69.685C356.609,69.621 356.488,69.553 356.375,69.481C356.26,69.41 356.16,69.33 356.074,69.242C355.99,69.153 355.922,69.053 355.869,68.94C355.818,68.828 355.793,68.7 355.793,68.557C355.793,68.382 355.831,68.224 355.908,68.084C355.984,67.943 356.091,67.824 356.228,67.726C356.364,67.628 356.529,67.552 356.724,67.499C356.918,67.446 357.13,67.419 357.361,67.419Z" style="fill:rgb(31,31,31);fill-rule:nonzero;"/>
            <path d="M339.394,30.565C338.809,29.979 337.858,29.979 337.272,30.565L336.629,31.208C336.79,30.631 337.12,30.335 337.394,30.061C337.979,29.475 337.979,28.525 337.394,27.94C337.102,27.648 336.72,27.501 336.337,27.5C335.954,27.501 335.564,27.648 335.272,27.94C334.687,28.525 334.687,29.475 335.272,30.061C335.547,30.335 335.876,30.631 336.038,31.208L335.394,30.565C334.809,29.979 333.858,29.979 333.272,30.565C332.687,31.151 332.687,32.101 333.272,32.686C333.858,33.272 334.809,33.272 335.394,32.686L336.135,31.945L336.138,31.986C336.151,32.636 336.048,33.661 335.333,34.375L335.333,34.625L337.333,34.625L337.333,34.375C336.623,33.665 336.516,32.647 336.527,31.997L336.531,31.945L337.272,32.686C337.858,33.272 338.809,33.272 339.394,32.686C339.979,32.101 339.979,31.15 339.394,30.565Z" style="fill:rgb(31,31,31);fill-rule:nonzero;"/>
            <path d="M346.394,38.815C345.809,38.229 344.858,38.229 344.272,38.815L343.629,39.458C343.79,38.881 344.12,38.585 344.394,38.311C344.979,37.725 344.979,36.775 344.394,36.19C344.102,35.898 343.72,35.751 343.337,35.75C342.954,35.751 342.564,35.898 342.272,36.19C341.687,36.775 341.687,37.725 342.272,38.311C342.547,38.585 342.876,38.881 343.038,39.458L342.394,38.815C341.809,38.229 340.858,38.229 340.272,38.815C339.687,39.401 339.687,40.351 340.272,40.936C340.858,41.522 341.809,41.522 342.394,40.936L343.135,40.195L343.138,40.236C343.151,40.886 343.048,41.911 342.333,42.625L342.333,42.875L344.333,42.875L344.333,42.625C343.623,41.915 343.516,40.897 343.527,40.247L343.531,40.195L344.272,40.936C344.858,41.522 345.809,41.522 346.394,40.936C346.979,40.351 346.979,39.4 346.394,38.815Z" style="fill:rgb(31,31,31);fill-rule:nonzero;"/>
            <path d="M346.394,57.186C345.809,57.772 344.858,57.772 344.272,57.186L343.629,56.542C343.79,57.12 344.12,57.416 344.394,57.69C344.979,58.276 344.979,59.226 344.394,59.811C344.102,60.103 343.72,60.249 343.337,60.25C342.954,60.249 342.564,60.103 342.272,59.811C341.687,59.226 341.687,58.276 342.272,57.69C342.547,57.416 342.876,57.12 343.038,56.542L342.394,57.186C341.809,57.772 340.858,57.772 340.272,57.186C339.687,56.6 339.687,55.65 340.272,55.065C340.858,54.479 341.809,54.479 342.394,55.065L343.135,55.806L343.138,55.765C343.151,55.115 343.048,54.09 342.333,53.375L342.333,53.125L344.333,53.125L344.333,53.375C343.623,54.086 343.516,55.103 343.527,55.754L343.531,55.806L344.272,55.065C344.858,54.479 345.809,54.479 346.394,55.065C346.979,55.65 346.979,56.601 346.394,57.186Z" style="fill:rgb(31,31,31);fill-rule:nonzero;"/>
            <path d="M353.394,30.565C352.809,29.979 351.858,29.979 351.272,30.565L350.629,31.208C350.79,30.631 351.12,30.335 351.394,30.061C351.979,29.475 351.979,28.525 351.394,27.94C351.102,27.648 350.72,27.501 350.337,27.5C349.954,27.501 349.564,27.648 349.272,27.94C348.687,28.525 348.687,29.475 349.272,30.061C349.547,30.335 349.876,30.631 350.038,31.208L349.394,30.565C348.809,29.979 347.858,29.979 347.272,30.565C346.687,31.151 346.687,32.101 347.272,32.686C347.858,33.272 348.809,33.272 349.394,32.686L350.135,31.945L350.138,31.986C350.151,32.636 350.048,33.661 349.333,34.375L349.333,34.625L351.333,34.625L351.333,34.375C350.623,33.665 350.516,32.647 350.527,31.997L350.531,31.945L351.272,32.686C351.858,33.272 352.809,33.272 353.394,32.686C353.979,32.101 353.979,31.15 353.394,30.565Z" style="fill:rgb(31,31,31);fill-rule:nonzero;"/>
            <path d="M353.394,46.815C352.809,46.229 351.858,46.229 351.272,46.815L350.629,47.458C350.79,46.881 351.12,46.585 351.394,46.311C351.979,45.725 351.979,44.775 351.394,44.19C351.102,43.898 350.72,43.751 350.337,43.75C349.954,43.751 349.564,43.898 349.272,44.19C348.687,44.775 348.687,45.725 349.272,46.311C349.547,46.585 349.876,46.881 350.038,47.458L349.394,46.815C348.809,46.229 347.858,46.229 347.272,46.815C346.687,47.401 346.687,48.351 347.272,48.936C347.858,49.522 348.809,49.522 349.394,48.936L350.135,48.195L350.138,48.236C350.151,48.886 350.048,49.911 349.333,50.625L349.333,50.875L351.333,50.875L351.333,50.625C350.623,49.915 350.516,48.897 350.527,48.247L350.531,48.195L351.272,48.936C351.858,49.522 352.809,49.522 353.394,48.936C353.979,48.351 353.979,47.4 353.394,46.815Z" style="fill:rgb(31,31,31);fill-rule:nonzero;"/>
            <path d="M339.394,46.815C338.809,46.229 337.858,46.229 337.272,46.815L336.629,47.458C336.79,46.881 337.12,46.585 337.394,46.311C337.979,45.725 337.979,44.775 337.394,44.19C337.102,43.898 336.72,43.751 336.337,43.75C335.954,43.751 335.564,43.898 335.272,44.19C334.687,44.775 334.687,45.725 335.272,46.311C335.547,46.585 335.876,46.881 336.038,47.458L335.394,46.815C334.809,46.229 333.858,46.229 333.272,46.815C332.687,47.401 332.687,48.351 333.272,48.936C333.858,49.522 334.809,49.522 335.394,48.936L336.135,48.195L336.138,48.236C336.151,48.886 336.048,49.911 335.333,50.625L335.333,50.875L337.333,50.875L337.333,50.625C336.623,49.915 336.516,48.897 336.527,48.247L336.531,48.195L337.272,48.936C337.858,49.522 338.809,49.522 339.394,48.936C339.979,48.351 339.979,47.4 339.394,46.815Z" style="fill:rgb(31,31,31);fill-rule:nonzero;"/>
            <path d="M339.394,65.436C338.809,66.022 337.858,66.022 337.272,65.436L336.629,64.792C336.79,65.37 337.12,65.666 337.394,65.94C337.979,66.526 337.979,67.476 337.394,68.061C337.102,68.353 336.72,68.499 336.337,68.5C335.954,68.499 335.564,68.353 335.272,68.061C334.687,67.476 334.687,66.526 335.272,65.94C335.547,65.666 335.876,65.37 336.038,64.792L335.394,65.436C334.809,66.022 333.858,66.022 333.272,65.436C332.687,64.85 332.687,63.9 333.272,63.315C333.858,62.729 334.809,62.729 335.394,63.315L336.135,64.056L336.138,64.015C336.151,63.365 336.048,62.34 335.333,61.625L335.333,61.375L337.333,61.375L337.333,61.625C336.623,62.336 336.516,63.353 336.527,64.004L336.531,64.056L337.272,63.315C337.858,62.729 338.809,62.729 339.394,63.315C339.979,63.9 339.979,64.851 339.394,65.436Z" style="fill:rgb(31,31,31);fill-rule:nonzero;"/>
            <path d="M353.394,65.436C352.809,66.022 351.858,66.022 351.272,65.436L350.629,64.792C350.79,65.37 351.12,65.666 351.394,65.94C351.979,66.526 351.979,67.476 351.394,68.061C351.102,68.353 350.72,68.499 350.337,68.5C349.954,68.499 349.564,68.353 349.272,68.061C348.687,67.476 348.687,66.526 349.272,65.94C349.547,65.666 349.876,65.37 350.038,64.792L349.394,65.436C348.809,66.022 347.858,66.022 347.272,65.436C346.687,64.85 346.687,63.9 347.272,63.315C347.858,62.729 348.809,62.729 349.394,63.315L350.135,64.056L350.138,64.015C350.151,63.365 350.048,62.34 349.333,61.625L349.333,61.375L351.333,61.375L351.333,61.625C350.623,62.336 350.516,63.353 350.527,64.004L350.531,64.056L351.272,63.315C351.858,62.729 352.809,62.729 353.394,63.315C353.979,63.9 353.979,64.851 353.394,65.436Z" style="fill:rgb(31,31,31);fill-rule:nonzero;"/>
        </g>
    </g>
</svg>
