<?xml version="1.0" encoding="UTF-8" standalone="no"?>
<!DOCTYPE svg PUBLIC "-//W3C//DTD SVG 1.1//EN" "http://www.w3.org/Graphics/SVG/1.1/DTD/svg11.dtd">
<svg width="100%" height="100%" viewBox="0 0 41 56" version="1.1" xmlns="http://www.w3.org/2000/svg" xmlns:xlink="http://www.w3.org/1999/xlink" xml:space="preserve" xmlns:serif="http://www.serif.com/" style="fill-rule:evenodd;clip-rule:evenodd;stroke-linejoin:round;stroke-miterlimit:2;">
    <g transform="matrix(1,0,0,1,-366,-140)">
        <g>
            <path d="M404.167,196L369.167,196C367.786,196 366.667,194.881 366.667,193.5L366.667,142.5C366.667,141.119 367.786,140 369.167,140L404.167,140C405.548,140 406.667,141.119 406.667,142.5L406.667,193.5C406.667,194.881 405.548,196 404.167,196Z" style="fill:white;fill-rule:nonzero;"/>
            <path d="M372.666,149.688C372.396,150.376 371.041,150.629 371.041,151.688C371.041,152.171 371.433,152.563 371.916,152.563C372.171,152.563 372.398,152.452 372.558,152.278C372.528,152.574 372.431,152.923 372.167,153.188L372.167,153.313L373.167,153.313L373.167,153.188C372.902,152.923 372.806,152.574 372.774,152.279C372.935,152.452 373.162,152.563 373.416,152.563C373.899,152.563 374.291,152.171 374.291,151.688C374.291,150.629 372.937,150.376 372.666,149.688Z" style="fill:rgb(31,31,31);fill-rule:nonzero;"/>
            <path d="M400.667,185.813C400.938,185.124 402.292,184.871 402.292,183.813C402.292,183.329 401.9,182.938 401.417,182.938C401.162,182.938 400.936,183.048 400.775,183.222C400.806,182.926 400.902,182.577 401.167,182.313L401.167,182.188L400.167,182.188L400.167,182.313C400.431,182.577 400.528,182.926 400.559,183.221C400.398,183.048 400.172,182.938 399.917,182.938C399.434,182.938 399.042,183.329 399.042,183.813C399.042,184.871 400.396,185.124 400.667,185.813Z" style="fill:rgb(31,31,31);fill-rule:nonzero;"/>
            <path d="M372.629,146.374C372.739,146.374 372.861,146.355 372.994,146.318C373.127,146.282 373.241,146.23 373.336,146.164L373.336,145.902C373.336,145.714 373.319,145.537 373.286,145.372C373.254,145.206 373.205,145.062 373.141,144.941C373.077,144.82 372.996,144.724 372.898,144.654C372.8,144.584 372.688,144.55 372.56,144.55C372.45,144.55 372.354,144.573 372.271,144.621L372.063,144.816C372.008,144.898 371.966,144.996 371.938,145.108C371.91,145.221 371.896,145.343 371.896,145.475C371.896,145.752 371.961,145.971 372.091,146.132C372.221,146.293 372.4,146.374 372.629,146.374ZM372.326,148.332C372.131,148.332 371.942,148.304 371.761,148.25C371.579,148.196 371.431,148.119 371.314,148.02L371.457,147.688C371.544,147.737 371.649,147.78 371.772,147.818C371.896,147.856 372.029,147.875 372.175,147.875C372.479,147.875 372.736,147.755 372.946,147.516C373.155,147.276 373.28,146.93 373.321,146.479C373.217,146.587 373.075,146.675 372.898,146.743C372.721,146.811 372.535,146.845 372.341,146.845C372.149,146.845 371.977,146.814 371.824,146.752C371.673,146.69 371.544,146.604 371.44,146.494C371.337,146.385 371.257,146.254 371.2,146.102C371.145,145.949 371.116,145.784 371.116,145.605C371.116,145.4 371.151,145.208 371.221,145.031C371.291,144.854 371.39,144.701 371.518,144.574C371.646,144.447 371.803,144.348 371.987,144.275C372.173,144.202 372.381,144.166 372.611,144.166C372.847,144.166 373.06,144.206 373.252,144.286C373.443,144.367 373.607,144.486 373.742,144.644C373.877,144.802 373.98,144.999 374.055,145.235C374.128,145.47 374.165,145.742 374.165,146.051C374.165,146.404 374.12,146.722 374.029,147.005C373.939,147.288 373.813,147.527 373.651,147.722C373.489,147.917 373.296,148.067 373.069,148.173C372.844,148.279 372.596,148.332 372.326,148.332Z" style="fill:rgb(31,31,31);fill-rule:nonzero;"/>
            <path d="M400.702,189.126C400.592,189.126 400.471,189.145 400.338,189.182C400.205,189.218 400.09,189.27 399.995,189.336L399.995,189.598C399.995,189.786 400.012,189.963 400.045,190.128C400.078,190.294 400.127,190.438 400.19,190.559C400.254,190.68 400.336,190.776 400.434,190.846C400.531,190.916 400.645,190.95 400.771,190.95C400.881,190.95 400.977,190.927 401.061,190.879L401.268,190.684C401.323,190.602 401.365,190.504 401.393,190.392C401.422,190.279 401.436,190.157 401.436,190.025C401.436,189.748 401.371,189.529 401.24,189.368C401.11,189.207 400.932,189.126 400.702,189.126ZM401.005,187.168C401.201,187.168 401.389,187.196 401.57,187.25C401.752,187.304 401.9,187.381 402.018,187.48L401.875,187.812C401.787,187.763 401.682,187.72 401.559,187.682C401.436,187.644 401.302,187.625 401.156,187.625C400.852,187.625 400.595,187.745 400.385,187.984C400.176,188.224 400.051,188.57 400.01,189.021C400.115,188.913 400.256,188.825 400.434,188.757C400.611,188.689 400.797,188.655 400.99,188.655C401.182,188.655 401.354,188.686 401.507,188.748C401.658,188.81 401.787,188.896 401.891,189.006C401.994,189.115 402.074,189.246 402.131,189.398C402.188,189.551 402.215,189.716 402.215,189.895C402.215,190.1 402.18,190.292 402.11,190.469C402.041,190.646 401.941,190.799 401.813,190.926C401.686,191.053 401.529,191.152 401.344,191.225C401.158,191.298 400.951,191.334 400.72,191.334C400.484,191.334 400.271,191.294 400.08,191.214C399.888,191.133 399.725,191.014 399.59,190.856C399.455,190.698 399.351,190.501 399.277,190.265C399.203,190.03 399.166,189.758 399.166,189.449C399.166,189.096 399.211,188.778 399.302,188.495C399.392,188.212 399.518,187.973 399.68,187.778C399.842,187.583 400.035,187.433 400.262,187.327C400.487,187.221 400.735,187.168 401.005,187.168Z" style="fill:rgb(31,31,31);fill-rule:nonzero;"/>
            <path d="M379.666,147.125C379.124,148.503 376.416,149.007 376.416,151.125C376.416,152.091 377.199,152.875 378.166,152.875C378.675,152.875 379.129,152.654 379.449,152.307C379.39,152.897 379.195,153.597 378.667,154.125L378.667,154.375L380.667,154.375L380.667,154.125C380.139,153.597 379.943,152.899 379.883,152.308C380.203,152.654 380.657,152.875 381.166,152.875C382.132,152.875 382.916,152.091 382.916,151.125C382.916,149.007 380.207,148.503 379.666,147.125Z" style="fill:rgb(31,31,31);fill-rule:nonzero;"/>
            <path d="M393.666,147.125C393.124,148.503 390.416,149.007 390.416,151.125C390.416,152.091 391.199,152.875 392.166,152.875C392.675,152.875 393.129,152.654 393.449,152.307C393.39,152.897 393.195,153.597 392.667,154.125L392.667,154.375L394.667,154.375L394.667,154.125C394.139,153.597 393.943,152.899 393.883,152.308C394.203,152.654 394.657,152.875 395.166,152.875C396.132,152.875 396.916,152.091 396.916,151.125C396.916,149.007 394.207,148.503 393.666,147.125Z" style="fill:rgb(31,31,31);fill-rule:nonzero;"/>
            <path d="M386.666,163.625C386.124,165.003 383.416,165.507 383.416,167.625C383.416,168.591 384.199,169.375 385.166,169.375C385.675,169.375 386.129,169.154 386.449,168.807C386.39,169.397 386.195,170.097 385.667,170.625L385.667,170.875L387.667,170.875L387.667,170.625C387.139,170.097 386.943,169.399 386.883,168.808C387.203,169.154 387.657,169.375 388.166,169.375C389.132,169.375 389.916,168.591 389.916,167.625C389.916,165.507 387.207,165.003 386.666,163.625Z" style="fill:rgb(31,31,31);fill-rule:nonzero;"/>
            <path d="M379.666,158.125C379.124,159.503 376.416,160.007 376.416,162.125C376.416,163.091 377.199,163.875 378.166,163.875C378.675,163.875 379.129,163.654 379.449,163.307C379.39,163.897 379.195,164.597 378.667,165.125L378.667,165.375L380.667,165.375L380.667,165.125C380.139,164.597 379.943,163.899 379.883,163.308C380.203,163.654 380.657,163.875 381.166,163.875C382.132,163.875 382.916,163.091 382.916,162.125C382.916,160.007 380.207,159.503 379.666,158.125Z" style="fill:rgb(31,31,31);fill-rule:nonzero;"/>
            <path d="M393.666,158.125C393.124,159.503 390.416,160.007 390.416,162.125C390.416,163.091 391.199,163.875 392.166,163.875C392.675,163.875 393.129,163.654 393.449,163.307C393.39,163.897 393.195,164.597 392.667,165.125L392.667,165.375L394.667,165.375L394.667,165.125C394.139,164.597 393.943,163.899 393.883,163.308C394.203,163.654 394.657,163.875 395.166,163.875C396.132,163.875 396.916,163.091 396.916,162.125C396.916,160.007 394.207,159.503 393.666,158.125Z" style="fill:rgb(31,31,31);fill-rule:nonzero;"/>
            <path d="M379.666,188.375C379.124,186.997 376.416,186.493 376.416,184.375C376.416,183.409 377.199,182.625 378.166,182.625C378.675,182.625 379.129,182.846 379.449,183.193C379.39,182.603 379.195,181.903 378.667,181.375L378.667,181.125L380.667,181.125L380.667,181.375C380.139,181.903 379.943,182.601 379.883,183.192C380.203,182.846 380.657,182.625 381.166,182.625C382.132,182.625 382.916,183.409 382.916,184.375C382.916,186.493 380.207,186.997 379.666,188.375Z" style="fill:rgb(31,31,31);fill-rule:nonzero;"/>
            <path d="M393.666,188.375C393.124,186.997 390.416,186.493 390.416,184.375C390.416,183.409 391.199,182.625 392.166,182.625C392.675,182.625 393.129,182.846 393.449,183.193C393.39,182.603 393.195,181.903 392.667,181.375L392.667,181.125L394.667,181.125L394.667,181.375C394.139,181.903 393.943,182.601 393.883,183.192C394.203,182.846 394.657,182.625 395.166,182.625C396.132,182.625 396.916,183.409 396.916,184.375C396.916,186.493 394.207,186.997 393.666,188.375Z" style="fill:rgb(31,31,31);fill-rule:nonzero;"/>
            <path d="M379.666,177.375C379.124,175.997 376.416,175.493 376.416,173.375C376.416,172.409 377.199,171.625 378.166,171.625C378.675,171.625 379.129,171.846 379.449,172.193C379.39,171.603 379.195,170.903 378.667,170.375L378.667,170.125L380.667,170.125L380.667,170.375C380.139,170.903 379.943,171.601 379.883,172.192C380.203,171.846 380.657,171.625 381.166,171.625C382.132,171.625 382.916,172.409 382.916,173.375C382.916,175.493 380.207,175.997 379.666,177.375Z" style="fill:rgb(31,31,31);fill-rule:nonzero;"/>
            <path d="M393.666,177.375C393.124,175.997 390.416,175.493 390.416,173.375C390.416,172.409 391.199,171.625 392.166,171.625C392.675,171.625 393.129,171.846 393.449,172.193C393.39,171.603 393.195,170.903 392.667,170.375L392.667,170.125L394.667,170.125L394.667,170.375C394.139,170.903 393.943,171.601 393.883,172.192C394.203,171.846 394.657,171.625 395.166,171.625C396.132,171.625 396.916,172.409 396.916,173.375C396.916,175.493 394.207,175.997 393.666,177.375Z" style="fill:rgb(31,31,31);fill-rule:nonzero;"/>
        </g>
    </g>
</svg>
