<?xml version="1.0" encoding="UTF-8" standalone="no"?>
<!DOCTYPE svg PUBLIC "-//W3C//DTD SVG 1.1//EN" "http://www.w3.org/Graphics/SVG/1.1/DTD/svg11.dtd">
<svg width="100%" height="100%" viewBox="0 0 41 56" version="1.1" xmlns="http://www.w3.org/2000/svg" xmlns:xlink="http://www.w3.org/1999/xlink" xml:space="preserve" xmlns:serif="http://www.serif.com/" style="fill-rule:evenodd;clip-rule:evenodd;stroke-linejoin:round;stroke-miterlimit:2;">
    <g transform="matrix(1,0,0,1,-496,-200)">
        <g>
            <path d="M534.167,256L499.167,256C497.786,256 496.667,254.881 496.667,253.5L496.667,202.5C496.667,201.119 497.786,200 499.167,200L534.167,200C535.548,200 536.667,201.119 536.667,202.5L536.667,253.5C536.667,254.881 535.548,256 534.167,256Z" style="fill:white;fill-rule:nonzero;"/>
            <path d="M502.666,213.375C502.217,212.673 501.619,212.075 500.916,211.625C501.619,211.175 502.217,210.577 502.666,209.875C503.116,210.577 503.715,211.175 504.416,211.625C503.715,212.075 503.116,212.673 502.666,213.375Z" style="fill:rgb(201,49,18);fill-rule:nonzero;"/>
            <path d="M530.667,241.875C531.116,242.577 531.715,243.175 532.417,243.625C531.715,244.075 531.116,244.673 530.667,245.375C530.217,244.673 529.619,244.075 528.917,243.625C529.619,243.175 530.217,242.577 530.667,241.875Z" style="fill:rgb(201,49,18);fill-rule:nonzero;"/>
            <path d="M502.674,203.881C502.314,203.881 502.037,204.04 501.842,204.359C501.646,204.678 501.548,205.181 501.548,205.868C501.548,206.531 501.641,207.023 501.824,207.344C502.009,207.665 502.285,207.825 502.653,207.825C503.012,207.825 503.29,207.665 503.486,207.342C503.684,207.021 503.782,206.516 503.782,205.83C503.782,205.167 503.689,204.676 503.506,204.358C503.322,204.04 503.045,203.881 502.674,203.881ZM504.338,209.341C504.127,209.341 503.945,209.296 503.794,209.207C503.643,209.118 503.503,209.013 503.375,208.892C503.247,208.771 503.119,208.646 502.992,208.518C502.865,208.39 502.721,208.287 502.558,208.209C502.241,208.206 501.965,208.149 501.727,208.041C501.489,207.932 501.293,207.779 501.138,207.583C500.982,207.386 500.866,207.147 500.789,206.867C500.711,206.586 500.672,206.275 500.672,205.932C500.672,205.547 500.72,205.204 500.814,204.902C500.91,204.599 501.047,204.345 501.224,204.138C501.401,203.932 501.619,203.773 501.877,203.664C502.135,203.554 502.424,203.5 502.744,203.5C503.065,203.5 503.348,203.553 503.589,203.66C503.83,203.766 504.029,203.918 504.188,204.115C504.346,204.312 504.465,204.551 504.545,204.832C504.624,205.113 504.664,205.427 504.664,205.774C504.664,206.387 504.54,206.896 504.293,207.299C504.045,207.702 503.707,207.972 503.275,208.107C503.381,208.146 503.479,208.192 503.571,208.246C503.664,208.299 503.756,208.356 503.85,208.416C503.996,208.517 504.143,208.601 504.285,208.669C504.43,208.737 504.588,208.771 504.763,208.771L504.92,208.765L505.057,208.748L505.135,209.047C505.068,209.111 504.963,209.176 504.816,209.242C504.67,209.308 504.51,209.341 504.338,209.341Z" style="fill:rgb(201,49,18);fill-rule:nonzero;"/>
            <path d="M530.656,251.369C531.016,251.369 531.293,251.21 531.488,250.891C531.684,250.572 531.782,250.068 531.782,249.383C531.782,248.719 531.689,248.227 531.506,247.906C531.321,247.585 531.045,247.425 530.677,247.425C530.318,247.425 530.04,247.586 529.844,247.908C529.646,248.229 529.548,248.734 529.548,249.42C529.548,250.084 529.641,250.574 529.824,250.893C530.008,251.211 530.285,251.369 530.656,251.369ZM528.992,245.909C529.203,245.909 529.385,245.953 529.536,246.043C529.688,246.132 529.827,246.237 529.955,246.358C530.083,246.479 530.211,246.604 530.338,246.732C530.465,246.86 530.609,246.963 530.772,247.041C531.089,247.045 531.365,247.101 531.604,247.209C531.841,247.318 532.037,247.471 532.192,247.668C532.348,247.864 532.464,248.104 532.541,248.383C532.619,248.664 532.658,248.975 532.658,249.318C532.658,249.703 532.61,250.046 532.516,250.348C532.42,250.65 532.283,250.905 532.106,251.111C531.929,251.318 531.711,251.477 531.453,251.586C531.195,251.695 530.906,251.75 530.586,251.75C530.265,251.75 529.982,251.697 529.741,251.59C529.5,251.484 529.301,251.332 529.143,251.135C528.984,250.938 528.865,250.699 528.785,250.418C528.706,250.137 528.666,249.822 528.666,249.476C528.666,248.863 528.79,248.354 529.037,247.951C529.285,247.548 529.623,247.278 530.055,247.143C529.949,247.104 529.852,247.058 529.759,247.004C529.666,246.951 529.574,246.895 529.48,246.834C529.334,246.733 529.188,246.648 529.045,246.581C528.9,246.514 528.742,246.479 528.567,246.479L528.41,246.484L528.273,246.502L528.195,246.203C528.262,246.139 528.367,246.074 528.514,246.008C528.66,245.941 528.82,245.909 528.992,245.909Z" style="fill:rgb(201,49,18);fill-rule:nonzero;"/>
            <path d="M527.166,212.999C526.267,211.594 525.071,210.399 523.666,209.499C525.071,208.599 526.267,207.403 527.166,205.999C528.066,207.403 529.262,208.599 530.666,209.499C529.262,210.399 528.066,211.594 527.166,212.999Z" style="fill:rgb(201,49,18);fill-rule:nonzero;"/>
            <path d="M509.668,246.501C508.264,247.401 507.068,248.597 506.168,250.001C505.268,248.597 504.072,247.401 502.668,246.501C504.072,245.602 505.268,244.405 506.168,243.001C507.068,244.405 508.264,245.602 509.668,246.501Z" style="fill:rgb(201,49,18);fill-rule:nonzero;"/>
            <path d="M500.667,216L500.667,251.75L500.917,252L525.667,252L525.667,251.5L501.167,251.5L501.167,216L500.667,216ZM532.667,240L532.167,240L532.167,204.5L507.667,204.5L507.667,204L532.417,204L532.667,204.25L532.667,240Z" style="fill:rgb(31,31,31);fill-rule:nonzero;"/>
            <path d="M525.6,236.81C525.41,236.72 525.25,236.61 525.11,236.49C525.26,235.85 525.2,235.31 525.13,234.99C525.232,234.99 525.346,235.013 525.46,234.99C525.73,235.32 525.89,235.94 525.6,236.81Z" style="fill:rgb(249,203,25);fill-rule:nonzero;"/>
            <path d="M523.789,237.95C523.63,237.4 523.479,236.23 524.42,234.9C524.45,234.9 524.51,234.92 524.61,234.93C524.71,235.29 524.97,236.59 523.789,237.95Z" style="fill:rgb(249,203,25);fill-rule:nonzero;"/>
            <path d="M525.98,226.37C525.69,228.67 524.62,230.89 522.82,232.68C521.633,231.195 520.474,229.508 518.65,228.51C521.034,228.659 524.653,228.315 525.98,226.37Z" style="fill:rgb(35,75,194);fill-rule:nonzero;"/>
            <path d="M520.44,234.5C519.33,235.16 518.07,235.7 516.7,236.1C516.65,235.76 516.469,235.46 516.18,235.27L516.15,235.25C517.36,234.78 518.539,234.17 519.63,233.46C519.86,233.75 520.44,234.5 520.44,234.5Z" style="fill:rgb(201,49,18);fill-rule:nonzero;"/>
            <path d="M519.24,245.69C519.24,245.83 519.12,246.04 518.89,246.04C516.2,246.04 514.78,244.46 514.78,241.49C514.78,240.024 514.62,239.529 514.62,239.3C514.353,237.94 515.637,236.68 516.71,236.68C517.555,236.68 517.908,237.299 517.8,237.86C517.36,237.65 516.919,237.66 516.53,237.87C515.75,238.28 515.31,239.45 515.3,241.08L515.289,241.09C515.289,244.1 516.869,245.55 519.06,245.55C519.211,245.55 519.24,245.602 519.24,245.69Z" style="fill:rgb(35,75,194);fill-rule:nonzero;"/>
            <path d="M516.469,236.22C515.599,236.332 514.69,236.974 514.3,237.95C514.27,237.86 514.24,237.76 514.21,237.66L514.21,237.64C513.771,236.271 515.412,235.204 516.15,235.68C516.34,235.81 516.45,236 516.469,236.22Z" style="fill:rgb(35,75,194);fill-rule:nonzero;"/>
            <path d="M514.53,235.5C514.2,235.75 513.909,236.1 513.75,236.53C513.51,236.03 513.219,235.57 512.89,235.14C513.737,234.554 514.435,234.929 514.53,235.5Z" style="fill:rgb(35,75,194);fill-rule:nonzero;"/>
            <path d="M519.31,233.07C518.03,233.9 516.61,234.6 515.19,235.08L515.18,235.09L515,235.13C515.56,233.71 515.96,232.17 516.12,230.77C517.37,230.98 518.21,231.72 519.31,233.07Z" style="fill:rgb(249,203,25);fill-rule:nonzero;"/>
            <path d="M515.62,230.71C515.469,232.05 515.09,233.53 514.55,234.91C514.059,234.173 513.078,234.204 512.32,234.75C511.35,233.704 511.31,233.662 510.94,233.19C512.766,231.72 513.899,230.606 515.62,230.71Z" style="fill:rgb(201,49,18);fill-rule:nonzero;"/>
            <path d="M517.87,246.47C516.2,246.7 514.49,246.3 513.169,245.35C513.19,244.57 513.099,240.93 510.14,238.69C507.354,236.579 506.635,233.792 509.21,231.41C509.301,231.638 509.789,232.513 510.39,233.31L510.39,233.32C510.72,233.75 511.12,234.22 511.59,234.69C513.21,236.31 514.03,238.6 514.03,241.49C514.03,244.45 515.4,246.18 517.87,246.47Z" style="fill:rgb(249,203,25);fill-rule:nonzero;"/>
            <path d="M509.04,221.09C509,221.08 508.94,221.07 508.85,221.05C508.75,220.7 508.49,219.39 509.67,218.04C509.82,218.59 509.97,219.76 509.04,221.09Z" style="fill:rgb(249,203,25);fill-rule:nonzero;"/>
            <path d="M508.32,220.99L508,220.99C507.72,220.66 507.56,220.05 507.86,219.18C508.05,219.27 508.2,219.38 508.35,219.49C508.2,220.13 508.25,220.67 508.32,220.99Z" style="fill:rgb(249,203,25);fill-rule:nonzero;"/>
            <path d="M514.77,227.45C512.367,227.33 508.88,227.649 507.48,229.61C507.77,227.32 508.83,225.09 510.64,223.31C511.779,224.863 513.177,226.574 514.77,227.45Z" style="fill:rgb(35,75,194);fill-rule:nonzero;"/>
            <path d="M522.52,222.79C520.507,224.467 519.435,225.375 517.83,225.28C517.99,223.93 518.37,222.45 518.9,221.08C519.471,221.826 520.351,221.802 521.15,221.24C521.792,221.99 521.774,221.865 522.52,222.79Z" style="fill:rgb(249,203,25);fill-rule:nonzero;"/>
            <path d="M518.46,220.85C517.9,222.28 517.5,223.82 517.34,225.22C516.08,225 515.25,224.26 514.15,222.92C515.43,222.09 516.89,221.38 518.419,220.87L518.43,220.86L518.46,220.85Z" style="fill:rgb(201,49,18);fill-rule:nonzero;"/>
            <path d="M517.33,220.74C516.08,221.23 514.89,221.83 513.83,222.52C513.599,222.23 513.02,221.48 513.02,221.48C514.13,220.82 515.38,220.29 516.76,219.89C516.805,220.261 517.042,220.596 517.33,220.74Z" style="fill:rgb(249,203,25);fill-rule:nonzero;"/>
            <path d="M521.01,209.2C520.849,209.53 520.719,209.9 520.63,210.25C518.909,208.98 516.61,208.6 514.469,209.22C514.49,208.82 514.45,208.37 514.38,207.94C515.063,208.452 515.779,208.368 516.039,207.55L516.07,207.54C516.55,208.403 517.393,208.334 517.93,207.55C518.198,208.579 519.042,208.734 519.65,208.205L519.669,208.21C519.638,208.955 520.093,209.396 521.01,209.2Z" style="fill:rgb(249,203,25);fill-rule:nonzero;"/>
            <path d="M512.445,246.785C512.606,246.455 512.736,246.086 512.826,245.735C514.547,247.006 516.847,247.386 518.986,246.766C518.966,247.165 519.005,247.615 519.076,248.045C518.393,247.533 517.677,247.617 517.416,248.436L517.387,248.445C516.906,247.582 516.063,247.651 515.526,248.436C515.258,247.406 514.414,247.252 513.807,247.78L513.786,247.775C513.818,247.031 513.362,246.589 512.445,246.785Z" style="fill:rgb(249,203,25);fill-rule:nonzero;"/>
            <path d="M520.57,220.85C519.737,221.424 519.016,221.066 518.919,220.49C519.26,220.24 519.55,219.89 519.7,219.46C519.95,219.96 520.24,220.42 520.57,220.85Z" style="fill:rgb(35,75,194);fill-rule:nonzero;"/>
            <path d="M518.52,220.16C517.677,220.71 517.043,220.325 516.99,219.77C517.789,219.667 518.706,219.103 519.159,218.03C519.19,218.13 519.219,218.23 519.25,218.32L519.25,218.35C519.57,219.37 518.78,220 518.52,220.16Z" style="fill:rgb(35,75,194);fill-rule:nonzero;"/>
            <path d="M516.729,219.31L516.729,219.3C516.109,219.369 515.541,218.838 515.65,218.13C516.09,218.33 516.539,218.33 516.93,218.12C517.7,217.7 518.15,216.53 518.159,214.9C518.159,211.836 516.55,210.43 514.39,210.43C514.274,210.43 514.21,210.404 514.21,210.29C514.21,210.15 514.34,209.95 514.57,209.95C517.25,209.95 518.669,211.52 518.669,214.5C518.669,215.26 518.729,215.99 518.84,216.68C519.076,218.098 517.815,219.31 516.729,219.31Z" style="fill:rgb(35,75,194);fill-rule:nonzero;"/>
            <path d="M524.25,224.58C523.935,223.952 523.599,223.374 523.07,222.67L523.06,222.67C522.74,222.24 522.34,221.77 521.87,221.3C520.25,219.68 519.419,217.39 519.419,214.5C519.419,211.54 518.06,209.8 515.58,209.51C517.26,209.29 518.969,209.69 520.289,210.63C520.27,211.42 520.36,215.06 523.31,217.3C526.124,219.419 526.813,222.185 524.25,224.58Z" style="fill:rgb(249,203,25);fill-rule:nonzero;"/>
            <path d="M528.305,240.331C528.13,240.103 527.95,239.924 527.772,239.787C527.719,240.122 527.565,240.449 527.306,240.688C527.598,240.653 527.936,240.544 528.305,240.331ZM527.283,239.267C527.249,238.974 527.14,238.637 526.926,238.267C526.698,238.441 526.519,238.621 526.382,238.799C526.719,238.854 527.045,239.007 527.283,239.267ZM527.143,240.101C527.104,239.808 526.945,239.573 526.696,239.429C526.402,239.468 526.169,239.627 526.024,239.875C526.063,240.17 526.224,240.403 526.471,240.547C526.766,240.508 526.999,240.349 527.143,240.101ZM526.785,241.178C526.444,241.122 526.12,240.968 525.883,240.71C525.918,241.002 526.027,241.34 526.241,241.709C526.469,241.534 526.648,241.354 526.785,241.178ZM525.861,239.288C525.569,239.323 525.231,239.432 524.862,239.646C525.037,239.873 525.217,240.053 525.394,240.189C525.449,239.851 525.604,239.524 525.861,239.288ZM525.349,236.508C525.49,236.613 525.654,236.715 525.845,236.809C526.045,236.217 526.118,235.478 525.723,234.995C525.611,235 525.526,235.001 525.386,234.994C525.478,235.461 525.474,235.981 525.349,236.508ZM525.875,234.478L526.05,234.422L526.058,234.41L526.031,234.354L525.886,234.233C525.74,234.148 525.501,234.077 525.186,234.076L524.948,233.902L524.679,233.054C524.638,232.923 524.71,232.782 524.842,232.74C524.974,232.698 525.114,232.771 525.156,232.902L525.372,233.585C525.716,233.611 526.095,233.715 526.344,233.957C526.954,233.91 526.982,233.147 525.73,233.378C525.595,233.402 525.465,233.313 525.439,233.177C525.414,233.041 525.504,232.911 525.64,232.886C526.005,232.819 526.413,232.801 526.752,232.947L526.652,232.786C526.429,232.618 525.997,232.655 525.724,232.707C525.588,232.732 525.457,232.643 525.432,232.507C525.406,232.371 525.496,232.24 525.632,232.215C525.999,232.146 526.41,232.128 526.752,232.274L526.652,232.114C526.434,231.949 526.015,231.982 525.745,232.03C525.609,232.055 525.479,231.964 525.455,231.828C525.431,231.692 525.521,231.563 525.657,231.538C526.019,231.474 526.421,231.458 526.756,231.604L526.64,231.416C526.545,231.347 526.364,231.28 526.069,231.28C525.726,231.28 525.885,231.281 525.153,231.271C524.718,231.908 524.209,232.517 523.627,233.084C523.866,233.398 524.477,234.188 524.801,234.415C525.081,234.481 525.579,234.527 525.875,234.478ZM524.949,235.66C524.949,235.325 524.895,235.068 524.859,234.937L524.668,234.897C524.031,235.809 523.739,236.892 524.038,237.945C524.602,237.295 524.949,236.523 524.949,235.66ZM523.991,234.325C522.628,232.803 521.024,229.948 518.674,228.808C518.159,228.559 517.572,228.384 517.263,228.336C517.07,228.307 516.88,228.275 516.693,228.24C513.921,227.915 512.213,229.27 510.093,231.062C510.381,231.646 510.657,232.143 511.131,232.797C513.401,230.954 514.422,229.995 516.435,230.225C518.528,230.464 519.557,231.91 521.435,234.325L523.991,234.325ZM520.94,234.506C520.651,234.132 520.382,233.784 520.13,233.467C519.104,234.136 517.935,234.756 516.664,235.257C516.974,235.456 517.158,235.766 517.206,236.1C518.604,235.693 519.853,235.154 520.94,234.506ZM516.979,236.681L516.964,236.682C515.853,236.712 514.612,237.93 514.865,239.305L514.867,239.328C514.979,240.023 515.031,240.745 515.031,241.486C515.031,244.353 516.326,246.035 519.136,246.035C519.419,246.035 519.547,245.727 519.474,245.609L519.312,245.552C518.247,245.552 517.237,245.187 516.542,244.388C515.762,243.494 515.543,242.283 515.543,241.092C515.543,240.465 515.62,239.725 515.836,239.115C516.299,237.807 517.216,237.474 518.054,237.858C518.177,237.161 517.602,236.62 516.979,236.681ZM517.453,239.102L517.292,238.217C516.576,238.317 516.249,239.28 516.13,239.995C516.507,239.63 516.989,239.326 517.453,239.102ZM516.043,241.086C516.037,242.02 516.185,243.016 516.71,243.788C517.305,244.66 518.266,245.053 519.312,245.052L519.351,245.055L519.386,244.84C519.382,244.731 519.352,244.686 519.258,244.642C518.968,244.503 518.322,244.558 517.864,244.307C517.742,244.24 517.698,244.088 517.766,243.967C517.833,243.846 517.984,243.802 518.104,243.869C518.409,244.039 518.969,244.016 519.348,244.14C519.328,244.02 519.31,243.891 519.31,243.744C519.309,243.137 519.689,242.498 520.02,242.009L519.466,241.85C519.333,241.812 519.255,241.673 519.294,241.54C519.331,241.411 519.464,241.336 519.594,241.367C519.609,241.185 519.656,241.034 519.729,240.903C519.61,240.877 519.499,240.867 519.393,240.87C519.255,240.873 519.141,240.765 519.137,240.626C519.133,240.488 519.242,240.373 519.38,240.37L519.56,240.375C519.224,240.134 519.289,239.74 519.268,239.439L519.211,239.215L518.979,239.165C518.068,239.163 516.052,240.288 516.043,241.086ZM519.549,248.025C519.487,247.656 519.461,247.214 519.487,246.764C517.307,247.394 515.004,246.971 513.326,245.736C513.229,246.094 513.116,246.444 512.96,246.78C513.758,246.597 514.336,246.961 514.292,247.771L514.309,247.779C515.008,247.182 515.806,247.526 516.031,248.419C516.564,247.649 517.447,247.606 517.885,248.428L517.904,248.425C518.143,247.712 518.792,247.479 519.549,248.025ZM518.189,248.989C518.091,248.891 517.935,248.892 517.836,248.989C517.737,249.089 517.739,249.245 517.836,249.343C517.935,249.44 518.091,249.439 518.189,249.343C518.288,249.243 518.287,249.087 518.189,248.989ZM516.11,248.992C516.013,248.896 515.86,248.897 515.765,248.992C515.668,249.09 515.669,249.243 515.765,249.339C515.861,249.436 516.015,249.434 516.11,249.339C516.206,249.242 516.206,249.089 516.11,248.992ZM514.086,248.227C513.922,248.146 513.731,248.265 513.731,248.446C513.729,248.637 513.94,248.756 514.104,248.656C514.27,248.556 514.258,248.313 514.086,248.227ZM516.133,230.698C514.511,230.595 513.58,231.454 511.433,233.196C512.078,234.02 512.403,234.263 512.815,234.734C513.702,234.104 514.633,234.283 515.068,234.896C515.572,233.598 515.971,232.11 516.133,230.698ZM519.814,233.076C518.854,231.9 517.999,230.992 516.63,230.757C516.459,232.236 516.044,233.775 515.52,235.12L515.708,235.077C517.226,234.557 518.622,233.85 519.814,233.076ZM514.787,235.489C514.688,234.899 513.932,234.575 513.133,235.123C513.471,235.56 513.758,236.025 513.999,236.515C514.151,236.095 514.438,235.749 514.787,235.489ZM514.383,237.162C514.383,237.449 514.459,237.629 514.546,237.915C514.959,236.963 515.89,236.307 516.716,236.198C516.661,235.668 516.033,235.275 515.185,235.819C514.719,236.127 514.383,236.606 514.383,237.162ZM513.669,245.367C514.956,246.296 516.646,246.721 518.357,246.491C515.655,246.174 514.531,244.187 514.531,241.486C514.531,238.915 513.892,236.492 512.088,234.687C511.142,233.74 510.298,232.607 509.703,231.402C507.438,233.516 507.467,236.282 510.644,238.688C511.353,239.225 511.897,239.848 512.314,240.493C513.236,241.921 513.697,243.769 513.669,245.367ZM507.618,234.665C507.596,233.146 508.427,231.834 509.588,230.835L509.645,230.785C511.036,229.606 512.43,228.436 514.073,227.947C510.934,227.822 506.733,228.511 506.903,231.651C506.984,232.676 507.223,233.69 507.618,234.665ZM506.947,229.651C508.313,227.665 511.813,227.338 514.232,227.453C512.552,226.517 511.357,224.888 510.135,223.301C508.287,225.123 507.224,227.359 506.947,229.651ZM508.303,224.715C508.738,224.077 509.247,223.469 509.829,222.901C509.589,222.586 508.979,221.798 508.655,221.57C508.375,221.504 507.878,221.458 507.582,221.507L507.406,221.563L507.398,221.575L507.425,221.631L507.57,221.751C507.716,221.836 507.956,221.909 508.271,221.909L508.508,222.083L508.777,222.931C508.819,223.063 508.746,223.204 508.614,223.245C508.482,223.287 508.343,223.214 508.301,223.083L508.084,222.401C507.737,222.374 507.36,222.269 507.112,222.028C506.502,222.075 506.473,222.838 507.726,222.607C507.861,222.583 507.992,222.672 508.017,222.808C508.042,222.944 507.952,223.074 507.816,223.099C507.451,223.167 507.044,223.185 506.704,223.038L506.805,223.199C507.027,223.367 507.46,223.33 507.732,223.279C507.868,223.253 507.999,223.343 508.024,223.479C508.05,223.614 507.96,223.745 507.824,223.771C507.457,223.839 507.046,223.858 506.704,223.711L506.805,223.872C507.022,224.036 507.442,224.003 507.711,223.955C507.847,223.931 507.978,224.021 508.001,224.157C508.025,224.293 507.936,224.423 507.799,224.447C507.439,224.512 507.036,224.527 506.7,224.382L506.816,224.569C506.911,224.639 507.093,224.706 507.387,224.705C507.729,224.705 507.583,224.704 508.303,224.715ZM507.733,220.991C507.846,220.985 507.931,220.985 508.071,220.992C507.978,220.523 507.983,220.002 508.107,219.478C507.967,219.372 507.802,219.271 507.611,219.177C507.411,219.768 507.338,220.508 507.733,220.991ZM508.507,220.325C508.507,220.66 508.562,220.917 508.598,221.049L508.788,221.088C509.424,220.179 509.717,219.096 509.418,218.04C508.855,218.69 508.507,219.461 508.507,220.325ZM509.465,221.66C509.693,221.915 509.942,222.224 510.147,222.495C512.143,225.123 513.57,227.09 516.14,227.641C516.351,227.673 516.56,227.707 516.763,227.745C519.534,228.071 521.242,226.716 523.364,224.924C523.076,224.34 522.8,223.844 522.325,223.188C520.047,225.037 519.031,225.989 517.021,225.761C514.943,225.524 513.932,224.118 512.021,221.66L509.465,221.66ZM512.515,221.48C512.806,221.854 513.073,222.201 513.326,222.519C514.357,221.847 515.534,221.238 516.812,220.74C516.487,220.541 516.297,220.224 516.249,219.886C514.852,220.292 513.604,220.831 512.515,221.48ZM516.477,219.305L516.492,219.304C517.643,219.271 518.836,218.022 518.591,216.681L518.589,216.658C518.478,215.962 518.424,215.241 518.424,214.499C518.425,211.645 517.14,209.95 514.32,209.95C514.037,209.951 513.908,210.258 513.982,210.376L514.145,210.433C515.21,210.433 516.219,210.799 516.914,211.597C517.693,212.491 517.914,213.702 517.914,214.894C517.911,215.536 517.835,216.262 517.62,216.87C517.158,218.178 516.24,218.511 515.401,218.127C515.28,218.823 515.854,219.365 516.477,219.305ZM516.002,216.884L516.164,217.768C516.88,217.668 517.208,216.705 517.327,215.991C516.95,216.355 516.468,216.659 516.002,216.884ZM517.413,214.9C517.418,213.966 517.271,212.972 516.745,212.197C516.151,211.325 515.19,210.933 514.145,210.933L514.104,210.931L514.07,211.146C514.073,211.254 514.104,211.3 514.197,211.344C514.489,211.482 515.133,211.428 515.593,211.679C515.713,211.746 515.757,211.897 515.69,212.019C515.624,212.139 515.472,212.183 515.351,212.117C515.047,211.946 514.487,211.97 514.107,211.845C514.128,211.966 514.146,212.095 514.146,212.241C514.146,212.846 513.771,213.481 513.437,213.977L513.991,214.136C514.123,214.174 514.2,214.313 514.162,214.445C514.125,214.575 513.992,214.65 513.862,214.618C513.848,214.787 513.806,214.94 513.727,215.083C513.848,215.108 513.956,215.118 514.063,215.116C514.201,215.112 514.315,215.221 514.318,215.359C514.323,215.498 514.214,215.612 514.076,215.615L513.896,215.611C514.34,215.927 514.094,216.575 514.244,216.771L514.479,216.82C515.395,216.823 517.401,215.693 517.413,214.9ZM513.906,207.96C513.968,208.331 513.994,208.774 513.969,209.222C516.145,208.593 518.448,209.013 520.13,210.25C520.226,209.891 520.34,209.541 520.497,209.205C520.362,209.236 520.232,209.253 520.107,209.253C519.515,209.253 519.128,208.878 519.164,208.213L519.146,208.207C518.448,208.804 517.65,208.459 517.426,207.566C516.893,208.334 516.01,208.38 515.57,207.558L515.552,207.561C515.31,208.285 514.654,208.499 513.906,207.96ZM515.267,206.997C515.365,207.095 515.521,207.094 515.62,206.997C515.719,206.897 515.716,206.741 515.62,206.643C515.521,206.544 515.364,206.546 515.267,206.643C515.168,206.742 515.169,206.898 515.267,206.997ZM517.346,206.993C517.44,207.088 517.594,207.09 517.692,206.993C517.789,206.896 517.787,206.742 517.692,206.646C517.594,206.55 517.44,206.551 517.346,206.646C517.249,206.744 517.25,206.897 517.346,206.993ZM519.37,207.759C519.533,207.84 519.724,207.721 519.726,207.54C519.726,207.349 519.517,207.229 519.353,207.329C519.188,207.43 519.197,207.672 519.37,207.759ZM517.323,225.287C518.948,225.391 519.886,224.524 522.024,222.789C521.375,221.964 521.054,221.724 520.641,221.251C519.757,221.879 518.823,221.705 518.387,221.089C517.883,222.388 517.485,223.875 517.323,225.287ZM513.642,222.91C514.604,224.088 515.46,224.993 516.826,225.229C516.997,223.749 517.412,222.21 517.938,220.865L517.922,220.869C516.365,221.414 515.047,222 513.642,222.91ZM518.669,220.497C518.768,221.086 519.525,221.41 520.322,220.862C519.985,220.425 519.698,219.96 519.456,219.471C519.304,219.89 519.018,220.235 518.669,220.497ZM519.073,218.823C519.073,218.537 518.999,218.365 518.911,218.07C518.498,219.023 517.565,219.679 516.739,219.787C516.794,220.321 517.426,220.708 518.271,220.166C518.737,219.858 519.073,219.378 519.073,218.823ZM519.787,210.619C518.539,209.719 516.86,209.258 515.098,209.494C517.801,209.812 518.924,211.798 518.924,214.499C518.924,217.071 519.564,219.494 521.369,221.298C522.354,222.285 523.179,223.42 523.753,224.583C525.997,222.49 526.015,219.722 522.813,217.297C522.104,216.76 521.559,216.137 521.143,215.492C520.222,214.066 519.758,212.22 519.787,210.619ZM525.838,221.321C525.86,222.837 525.032,224.149 523.867,225.15L523.812,225.2C522.419,226.379 521.026,227.55 519.383,228.038C522.531,228.164 526.711,227.477 526.553,224.337C526.473,223.312 526.234,222.296 525.838,221.321ZM526.51,226.334C525.141,228.323 521.638,228.646 519.224,228.532C520.903,229.469 522.099,231.098 523.32,232.685C525.169,230.862 526.232,228.626 526.51,226.334ZM519.839,248.933C519.839,249.071 519.95,249.183 520.089,249.183C520.228,249.183 520.339,249.071 520.339,248.933C520.339,248.794 520.227,248.683 520.089,248.683C519.95,248.683 519.839,248.795 519.839,248.933ZM512.284,247.355C512.188,247.259 512.034,247.26 511.938,247.355C511.841,247.453 511.843,247.606 511.938,247.702C512.034,247.799 512.188,247.798 512.284,247.702C512.38,247.605 512.38,247.452 512.284,247.355ZM507.595,216.697C507.887,216.663 508.225,216.553 508.594,216.34C508.419,216.112 508.239,215.933 508.063,215.796C508.007,216.136 507.854,216.46 507.595,216.697ZM507.573,215.276C507.538,214.983 507.429,214.646 507.216,214.276C506.987,214.451 506.809,214.63 506.672,214.808C507.011,214.863 507.335,215.017 507.573,215.276ZM507.432,216.11C507.394,215.816 507.233,215.583 506.985,215.438C506.69,215.477 506.457,215.638 506.313,215.885C506.353,216.178 506.512,216.412 506.76,216.557C507.055,216.518 507.288,216.358 507.432,216.11ZM507.074,217.187C506.735,217.132 506.41,216.978 506.173,216.719C506.207,217.012 506.316,217.349 506.53,217.719C506.758,217.543 506.938,217.364 507.074,217.187ZM506.151,215.297C505.858,215.332 505.521,215.441 505.151,215.655C505.326,215.883 505.506,216.062 505.684,216.199C505.737,215.865 505.89,215.537 506.151,215.297ZM513.617,207.053C513.617,206.914 513.505,206.803 513.367,206.803C513.229,206.803 513.117,206.915 513.117,207.053C513.117,207.191 513.229,207.302 513.367,207.303C513.505,207.302 513.617,207.191 513.617,207.053ZM521.172,208.63C521.27,208.727 521.422,208.726 521.518,208.63C521.615,208.533 521.614,208.379 521.518,208.283C521.421,208.186 521.268,208.188 521.172,208.283C521.075,208.381 521.077,208.534 521.172,208.63ZM528.872,240.263L528.803,240.609C528.301,240.945 527.82,241.126 527.382,241.182C527.163,241.565 526.811,241.94 526.309,242.276L525.962,242.207C525.626,241.706 525.445,241.225 525.39,240.787C525.006,240.568 524.631,240.216 524.295,239.713L524.364,239.366C524.772,239.094 525.167,238.923 525.535,238.839C525.34,238.478 525.159,238.018 525.02,237.393C524.816,237.785 524.526,238.191 524.12,238.59L523.724,238.528C523.713,238.505 523.422,237.952 523.422,237.092C523.422,236.463 523.583,235.669 524.116,234.825L521.38,234.825C520.349,235.462 519.177,235.997 517.879,236.416C518.57,236.853 518.729,237.706 518.422,238.334L518.06,238.432L517.815,238.299L517.926,238.899C518.317,238.751 518.875,238.591 519.276,238.701C519.987,238.896 519.669,239.78 519.833,239.953L519.882,239.985C520.065,240.071 520.076,240.329 519.9,240.429C520.007,240.456 520.266,240.537 520.347,240.614C520.471,240.734 520.438,240.937 520.291,241.015C520.136,241.098 520.084,241.33 520.09,241.509L520.489,241.624L520.627,242.005C520.32,242.453 520.039,242.841 519.875,243.352C519.669,243.999 520.052,244.258 519.818,245.247C520.084,245.521 520.029,245.959 519.774,246.247L520.018,246.446C519.948,246.972 519.966,247.649 520.089,248.183C520.753,248.183 521.091,248.992 520.619,249.463C520.151,249.932 519.339,249.602 519.339,248.933C519.339,248.803 519.372,248.68 519.431,248.572C519.32,248.474 519.215,248.395 519.117,248.339C518.732,248.12 518.52,248.225 518.399,248.523C518.636,248.666 518.763,248.913 518.763,249.166C518.763,249.836 517.948,250.164 517.482,249.696C517.206,249.422 517.185,248.974 517.448,248.672C517.198,248.192 516.797,248.237 516.479,248.655C516.922,249.125 516.594,249.91 515.938,249.911C515.526,249.911 515.192,249.577 515.192,249.166C515.192,248.919 515.314,248.677 515.543,248.534C515.414,248.036 515.07,247.805 514.655,248.14C514.75,248.349 514.742,248.581 514.643,248.779C514.344,248.63 514.346,248.631 514.643,248.779C514.578,248.909 514.479,249.014 514.362,249.084C513.866,249.385 513.231,249.026 513.231,248.446C513.229,248.122 513.445,247.813 513.794,247.725C513.802,247.51 513.757,247.334 513.556,247.263C513.341,247.188 513.044,247.262 512.831,247.34C512.956,247.821 512.591,248.274 512.111,248.274C511.7,248.274 511.365,247.94 511.365,247.529C511.365,247.014 511.88,246.648 512.37,246.831C512.635,246.38 512.818,245.756 512.932,245.248L513.169,245.167C513.149,243.703 512.731,242.061 511.894,240.765C511.506,240.163 511.001,239.586 510.342,239.087C509.541,238.48 508.929,237.851 508.487,237.208L508.436,237.157C505.854,233.596 505.687,228.975 507.982,225.21C507.78,225.207 507.399,225.205 507.387,225.205C506.345,225.205 506.021,224.525 506.287,224.021C506.167,223.799 506.18,223.555 506.287,223.35C506.167,223.128 506.18,222.883 506.287,222.677C506.057,222.251 506.308,221.692 506.9,221.554C506.908,221.366 507.013,221.198 507.207,221.103C506.794,220.396 506.929,219.496 507.24,218.743L507.567,218.608C507.711,218.667 507.845,218.731 507.97,218.799C507.872,218.332 507.729,217.861 507.51,217.439C507.292,217.735 506.991,218.022 506.598,218.286L506.251,218.217C505.916,217.715 505.734,217.234 505.679,216.796C505.295,216.577 504.92,216.225 504.584,215.722L504.653,215.375C505.155,215.041 505.636,214.859 506.074,214.804C506.293,214.419 506.646,214.045 507.147,213.709L507.494,213.778C507.83,214.28 508.011,214.761 508.066,215.199C508.45,215.417 508.825,215.77 509.161,216.272L509.093,216.619C508.684,216.892 508.29,217.062 507.921,217.147C508.116,217.508 508.297,217.968 508.438,218.592C508.64,218.2 508.93,217.794 509.336,217.396L509.731,217.458C509.744,217.48 510.033,218.034 510.034,218.894C510.035,219.523 509.873,220.316 509.341,221.16L512.075,221.16C513.107,220.523 514.278,219.988 515.577,219.569C514.886,219.133 514.728,218.28 515.034,217.651L515.396,217.553L515.641,217.686L515.53,217.086C514.959,217.302 514.044,217.526 513.781,216.973C513.61,216.609 513.74,216.155 513.623,216.033L513.573,216C513.391,215.915 513.38,215.657 513.557,215.557C513.439,215.527 513.229,215.457 513.143,215.397C512.998,215.299 512.995,215.091 513.137,214.989C513.187,214.954 513.25,214.932 513.309,214.803C513.347,214.719 513.37,214.609 513.366,214.477L512.966,214.362L512.828,213.98C513.137,213.531 513.416,213.144 513.58,212.634C513.784,211.993 513.406,211.718 513.637,210.738C513.372,210.465 513.427,210.026 513.682,209.738L513.438,209.54C513.508,209.014 513.489,208.335 513.367,207.803C512.703,207.803 512.365,206.993 512.836,206.522C513.13,206.229 513.606,206.229 513.898,206.522C514.13,206.754 514.188,207.117 514.025,207.413C514.281,207.643 514.69,207.908 514.932,207.665C514.976,207.622 515.02,207.555 515.057,207.462C514.63,207.205 514.575,206.626 514.913,206.289C515.38,205.82 516.193,206.151 516.193,206.82C516.193,207.008 516.122,207.182 516.007,207.313C516.255,207.79 516.655,207.751 516.978,207.33C516.53,206.857 516.867,206.074 517.518,206.075C517.93,206.074 518.265,206.408 518.263,206.82C518.263,207.066 518.142,207.308 517.913,207.451C518.043,207.953 518.388,208.179 518.801,207.846C518.513,207.207 519.188,206.56 519.813,206.872C520.422,207.176 520.341,208.089 519.662,208.261C519.653,208.475 519.7,208.651 519.9,208.723C520.115,208.797 520.412,208.724 520.625,208.645C520.555,208.377 520.638,208.109 520.818,207.929C521.107,207.638 521.581,207.638 521.872,207.929C522.163,208.22 522.163,208.693 521.872,208.983C521.675,209.182 521.37,209.26 521.086,209.155C520.82,209.605 520.638,210.229 520.524,210.738L520.287,210.818C520.292,211.171 520.327,211.797 520.486,212.545C520.856,214.292 521.706,215.833 523.114,216.898C523.914,217.505 524.528,218.135 524.969,218.777L525.021,218.829C527.602,222.389 527.77,227.011 525.474,230.775C525.676,230.778 526.057,230.78 526.069,230.78C527.117,230.781 527.434,231.463 527.169,231.964C527.29,232.186 527.276,232.431 527.169,232.636C527.288,232.855 527.278,233.101 527.169,233.309C527.413,233.758 527.118,234.301 526.557,234.431C526.548,234.618 526.444,234.786 526.249,234.883C526.662,235.589 526.527,236.489 526.216,237.242L525.89,237.378C525.746,237.318 525.611,237.254 525.486,237.187C525.585,237.653 525.728,238.125 525.946,238.547C526.164,238.25 526.465,237.963 526.858,237.699L527.205,237.769C527.54,238.271 527.722,238.751 527.777,239.189C528.161,239.408 528.536,239.761 528.872,240.263ZM522.075,233.772C522.213,233.772 522.325,233.661 522.325,233.522C522.325,233.385 522.214,233.272 522.075,233.272C521.938,233.272 521.825,233.385 521.825,233.522C521.825,233.66 521.938,233.772 522.075,233.772ZM512.468,230.155C512.354,230.234 512.328,230.391 512.408,230.504C512.487,230.616 512.643,230.644 512.757,230.563C512.869,230.483 512.896,230.328 512.815,230.215C512.737,230.103 512.581,230.075 512.468,230.155ZM517.288,229.105C517.154,229.073 517.02,229.156 516.987,229.29C516.955,229.425 517.037,229.56 517.172,229.592C517.306,229.624 517.44,229.541 517.474,229.407C517.505,229.272 517.422,229.138 517.288,229.105ZM520.87,232.391C520.956,232.498 521.115,232.515 521.223,232.428C521.328,232.341 521.346,232.183 521.26,232.076C521.172,231.969 521.015,231.952 520.906,232.039C520.8,232.126 520.784,232.283 520.87,232.391ZM519.81,230.832C519.711,230.93 519.711,231.088 519.809,231.186C519.906,231.283 520.064,231.284 520.162,231.187C520.261,231.09 520.261,230.932 520.164,230.833C520.065,230.735 519.908,230.734 519.81,230.832ZM518.515,229.846C518.44,229.963 518.478,230.117 518.594,230.19C518.711,230.264 518.865,230.228 518.938,230.11C519.012,229.994 518.977,229.84 518.859,229.767C518.742,229.693 518.588,229.729 518.515,229.846ZM515.599,228.946C515.461,228.953 515.354,229.07 515.361,229.209C515.367,229.347 515.485,229.453 515.623,229.446C515.761,229.439 515.867,229.322 515.86,229.185C515.854,229.046 515.736,228.939 515.599,228.946ZM513.932,229.32C513.804,229.373 513.742,229.52 513.796,229.647C513.849,229.774 513.994,229.835 514.122,229.783C514.25,229.73 514.31,229.584 514.258,229.456C514.205,229.329 514.059,229.268 513.932,229.32ZM511.32,231.106C511.183,231.106 511.07,231.219 511.07,231.356C511.07,231.494 511.183,231.606 511.32,231.606C511.458,231.606 511.57,231.494 511.57,231.356C511.57,231.219 511.458,231.106 511.32,231.106ZM518.524,243.727C518.662,243.726 518.773,243.612 518.771,243.475C518.771,243.346 518.771,243.217 518.77,243.089C518.768,242.95 518.655,242.84 518.518,242.841C518.379,242.842 518.27,242.955 518.271,243.093L518.271,243.479C518.271,243.617 518.387,243.728 518.524,243.727ZM511.381,222.713C511.519,222.713 511.631,222.601 511.631,222.463C511.631,222.325 511.519,222.213 511.381,222.213C511.243,222.213 511.131,222.325 511.131,222.463C511.131,222.601 511.243,222.713 511.381,222.713ZM516.168,226.88C516.302,226.912 516.437,226.829 516.469,226.695C516.502,226.561 516.419,226.426 516.284,226.394C516.15,226.361 516.016,226.444 515.982,226.578C515.951,226.713 516.033,226.848 516.168,226.88ZM513.646,225.153C513.744,225.056 513.744,224.898 513.646,224.8C513.55,224.702 513.392,224.701 513.294,224.799C513.195,224.896 513.195,225.054 513.293,225.152C513.39,225.25 513.547,225.25 513.646,225.153ZM514.94,226.14C515.015,226.022 514.979,225.868 514.862,225.795C514.745,225.722 514.591,225.757 514.518,225.875C514.443,225.992 514.479,226.146 514.598,226.219C514.714,226.292 514.867,226.257 514.94,226.14ZM517.857,227.039C517.995,227.032 518.102,226.915 518.094,226.777C518.089,226.639 517.971,226.532 517.833,226.539C517.695,226.546 517.589,226.663 517.596,226.802C517.603,226.939 517.719,227.046 517.857,227.039ZM520.987,225.831C521.101,225.75 521.128,225.595 521.047,225.482C520.969,225.369 520.813,225.342 520.698,225.422C520.586,225.501 520.56,225.658 520.64,225.771C520.719,225.883 520.875,225.91 520.987,225.831ZM519.525,226.665C519.651,226.612 519.714,226.466 519.661,226.339C519.607,226.211 519.461,226.15 519.334,226.202C519.206,226.255 519.146,226.401 519.198,226.529C519.25,226.656 519.396,226.718 519.525,226.665ZM512.549,223.946C512.656,223.859 512.672,223.702 512.586,223.595C512.499,223.488 512.341,223.471 512.234,223.558C512.127,223.645 512.11,223.802 512.197,223.91C512.284,224.017 512.44,224.033 512.549,223.946ZM522.136,224.879C522.273,224.879 522.386,224.767 522.386,224.629C522.386,224.491 522.273,224.379 522.136,224.379C521.998,224.379 521.886,224.491 521.886,224.629C521.886,224.767 521.998,224.879 522.136,224.879ZM515.184,212.507C515.185,212.635 515.185,212.764 515.188,212.893C515.188,213.031 515.077,213.144 514.939,213.145C514.801,213.146 514.688,213.035 514.688,212.897C514.685,212.768 514.685,212.64 514.684,212.511C514.682,212.373 514.794,212.26 514.932,212.259C515.068,212.258 515.182,212.369 515.184,212.507Z" style="fill:rgb(31,31,31);fill-rule:nonzero;"/>
        </g>
    </g>
</svg>
