<?xml version="1.0" encoding="UTF-8" standalone="no"?>
<!DOCTYPE svg PUBLIC "-//W3C//DTD SVG 1.1//EN" "http://www.w3.org/Graphics/SVG/1.1/DTD/svg11.dtd">
<svg width="100%" height="100%" viewBox="0 0 41 56" version="1.1" xmlns="http://www.w3.org/2000/svg" xmlns:xlink="http://www.w3.org/1999/xlink" xml:space="preserve" xmlns:serif="http://www.serif.com/" style="fill-rule:evenodd;clip-rule:evenodd;stroke-linejoin:round;stroke-miterlimit:2;">
    <g transform="matrix(1,0,0,1,-63,-20)">
        <g>
            <path d="M100.833,76L65.833,76C64.452,76 63.333,74.881 63.333,73.5L63.333,22.5C63.333,21.12 64.452,20 65.833,20L100.833,20C102.214,20 103.333,21.12 103.333,22.5L103.333,73.5C103.333,74.881 102.214,76 100.833,76Z" style="fill:white;fill-rule:nonzero;"/>
            <path d="M70.863,31.533C70.57,31.24 70.095,31.24 69.803,31.533L69.481,31.854C69.562,31.566 69.726,31.418 69.863,31.281C70.156,30.988 70.156,30.513 69.863,30.22C69.717,30.074 69.526,30.001 69.335,30C69.144,30.001 68.949,30.074 68.803,30.22C68.51,30.513 68.51,30.988 68.803,31.281C68.939,31.418 69.105,31.566 69.185,31.854L68.863,31.533C68.57,31.24 68.095,31.24 67.803,31.533C67.51,31.826 67.51,32.3 67.803,32.593C68.095,32.886 68.57,32.886 68.863,32.593L69.234,32.223L69.235,32.244C69.242,32.568 69.19,33.081 68.833,33.438L68.833,33.563L69.833,33.563L69.833,33.438C69.478,33.082 69.424,32.574 69.43,32.249L69.432,32.223L69.803,32.593C70.095,32.886 70.57,32.886 70.863,32.593C71.156,32.3 71.156,31.826 70.863,31.533Z" style="fill:rgb(31,31,31);fill-rule:nonzero;"/>
            <path d="M95.803,64.468C96.095,64.761 96.57,64.761 96.863,64.468L97.185,64.146C97.105,64.435 96.939,64.583 96.803,64.72C96.51,65.013 96.51,65.488 96.803,65.781C96.949,65.927 97.14,66 97.331,66C97.522,66 97.717,65.927 97.863,65.781C98.156,65.488 98.156,65.013 97.863,64.72C97.726,64.583 97.562,64.435 97.481,64.146L97.803,64.468C98.095,64.761 98.57,64.761 98.863,64.468C99.156,64.175 99.156,63.701 98.863,63.408C98.57,63.115 98.095,63.115 97.803,63.408L97.432,63.778L97.431,63.757C97.424,63.433 97.476,62.92 97.833,62.563L97.833,62.438L96.833,62.438L96.833,62.563C97.188,62.918 97.242,63.427 97.236,63.752L97.234,63.778L96.863,63.408C96.57,63.115 96.095,63.115 95.803,63.408C95.51,63.701 95.51,64.175 95.803,64.468Z" style="fill:rgb(31,31,31);fill-rule:nonzero;"/>
            <path d="M70.652,28.5L67.959,28.5L67.802,28.067C68.162,27.747 68.467,27.471 68.715,27.238C68.963,27.005 69.162,26.801 69.312,26.624C69.46,26.448 69.568,26.288 69.634,26.144C69.7,26 69.733,25.858 69.733,25.716C69.733,25.492 69.664,25.32 69.527,25.202C69.389,25.083 69.226,25.024 69.038,25.024C68.869,25.024 68.716,25.07 68.578,25.162C68.44,25.254 68.316,25.386 68.206,25.557L67.947,25.341C67.988,25.221 68.048,25.105 68.127,24.994C68.207,24.882 68.304,24.784 68.418,24.698C68.533,24.613 68.666,24.544 68.817,24.493C68.968,24.442 69.136,24.416 69.32,24.416C69.497,24.416 69.662,24.443 69.814,24.496C69.968,24.549 70.1,24.626 70.212,24.726C70.323,24.826 70.411,24.948 70.475,25.092C70.539,25.237 70.571,25.399 70.571,25.58C70.571,25.779 70.529,25.972 70.444,26.157C70.36,26.342 70.233,26.529 70.064,26.716C69.894,26.903 69.679,27.099 69.42,27.305C69.162,27.51 68.858,27.734 68.511,27.977L69.256,27.977C69.397,27.977 69.527,27.973 69.646,27.965C69.764,27.957 69.856,27.947 69.922,27.933L70.075,27.873L70.147,27.77L70.367,27.244L70.766,27.293C70.766,27.481 70.756,27.683 70.737,27.898C70.717,28.114 70.689,28.314 70.652,28.5Z" style="fill:rgb(31,31,31);fill-rule:nonzero;"/>
            <path d="M96.014,67.5L98.708,67.5L98.864,67.934C98.504,68.254 98.199,68.53 97.951,68.763C97.703,68.996 97.504,69.2 97.355,69.377C97.206,69.553 97.098,69.713 97.032,69.857C96.966,70 96.933,70.143 96.933,70.285C96.933,70.509 97.002,70.681 97.139,70.799C97.277,70.917 97.44,70.977 97.628,70.977C97.797,70.977 97.95,70.931 98.088,70.839C98.226,70.747 98.35,70.615 98.46,70.444L98.719,70.66C98.678,70.78 98.618,70.896 98.539,71.007C98.459,71.119 98.362,71.217 98.248,71.303C98.133,71.388 98.001,71.457 97.849,71.508C97.698,71.559 97.53,71.585 97.346,71.585C97.169,71.585 97.004,71.558 96.852,71.505C96.698,71.452 96.566,71.375 96.454,71.275C96.343,71.175 96.255,71.053 96.191,70.909C96.127,70.764 96.095,70.602 96.095,70.421C96.095,70.222 96.137,70.029 96.222,69.844C96.306,69.659 96.433,69.472 96.603,69.285C96.772,69.098 96.987,68.902 97.246,68.696C97.504,68.491 97.808,68.267 98.155,68.024L97.41,68.024C97.269,68.024 97.139,68.028 97.02,68.036C96.902,68.043 96.81,68.054 96.744,68.068L96.591,68.127L96.52,68.23L96.299,68.757L95.9,68.707C95.9,68.519 95.91,68.318 95.929,68.103C95.949,67.887 95.977,67.686 96.014,67.5Z" style="fill:rgb(31,31,31);fill-rule:nonzero;"/>
            <path d="M87.924,38.097C87.045,37.218 85.621,37.218 84.742,38.097L83.776,39.062C84.019,38.196 84.513,37.752 84.924,37.341C85.803,36.463 85.802,35.038 84.924,34.16C84.486,33.722 83.912,33.502 83.338,33.5L83.327,33.5C82.753,33.502 82.18,33.722 81.742,34.16C80.863,35.038 80.863,36.463 81.742,37.341C82.153,37.752 82.647,38.196 82.89,39.062L81.924,38.097C81.045,37.218 79.621,37.218 78.742,38.097C77.863,38.976 77.863,40.4 78.742,41.279C79.621,42.158 81.045,42.158 81.924,41.279L83.036,40.167L83.039,40.229C83.059,41.204 82.905,42.741 81.833,43.813L81.833,44.188L84.833,44.188L84.833,43.813C83.767,42.747 83.607,41.221 83.625,40.246L83.63,40.167L84.742,41.279C85.621,42.158 87.045,42.158 87.924,41.279C88.803,40.4 88.803,38.976 87.924,38.097Z" style="fill:rgb(31,31,31);fill-rule:nonzero;"/>
            <path d="M87.924,57.904C87.045,58.783 85.621,58.783 84.742,57.904L83.776,56.938C84.019,57.805 84.513,58.248 84.924,58.66C85.803,59.538 85.802,60.963 84.924,61.841C84.486,62.279 83.912,62.499 83.338,62.5L83.327,62.5C82.753,62.499 82.18,62.279 81.742,61.841C80.863,60.963 80.863,59.538 81.742,58.66C82.153,58.248 82.647,57.805 82.89,56.938L81.924,57.904C81.045,58.783 79.621,58.783 78.742,57.904C77.863,57.025 77.863,55.601 78.742,54.722C79.621,53.843 81.045,53.843 81.924,54.722L83.036,55.833L83.039,55.771C83.059,54.797 82.905,53.26 81.833,52.188L81.833,51.813L84.833,51.813L84.833,52.188C83.767,53.254 83.607,54.78 83.625,55.755L83.63,55.833L84.742,54.722C85.621,53.843 87.045,53.843 87.924,54.722C88.803,55.601 88.803,57.025 87.924,57.904Z" style="fill:rgb(31,31,31);fill-rule:nonzero;"/>
        </g>
    </g>
</svg>
