<?xml version="1.0" encoding="UTF-8" standalone="no"?>
<!DOCTYPE svg PUBLIC "-//W3C//DTD SVG 1.1//EN" "http://www.w3.org/Graphics/SVG/1.1/DTD/svg11.dtd">
<svg width="100%" height="100%" viewBox="0 0 41 56" version="1.1" xmlns="http://www.w3.org/2000/svg" xmlns:xlink="http://www.w3.org/1999/xlink" xml:space="preserve" xmlns:serif="http://www.serif.com/" style="fill-rule:evenodd;clip-rule:evenodd;stroke-linejoin:round;stroke-miterlimit:2;">
    <g transform="matrix(1,0,0,1,-63,-200)">
        <g>
            <path d="M100.833,256L65.833,256C64.452,256 63.333,254.881 63.333,253.5L63.333,202.5C63.333,201.119 64.452,200 65.833,200L100.833,200C102.214,200 103.333,201.119 103.333,202.5L103.333,253.5C103.333,254.881 102.214,256 100.833,256Z" style="fill:white;fill-rule:nonzero;"/>
            <path d="M100.833,256L65.833,256C64.452,256 63.333,254.881 63.333,253.5L63.333,202.5C63.333,201.119 64.452,200 65.833,200L100.833,200C102.214,200 103.333,201.119 103.333,202.5L103.333,253.5C103.333,254.881 102.214,256 100.833,256ZM100.833,255.8L65.833,255.8C64.562,255.8 63.533,254.771 63.533,253.5L63.533,202.5C63.533,201.229 64.562,200.2 65.833,200.2L100.833,200.2C102.104,200.2 103.133,201.229 103.133,202.5L103.133,253.5C103.133,254.771 102.104,255.8 100.833,255.8Z" style="fill:rgb(204,204,204);"/>
            <path d="M69.333,213.375C68.883,212.673 68.285,212.075 67.583,211.625C68.285,211.175 68.883,210.577 69.333,209.875C69.783,210.577 70.381,211.175 71.083,211.625C70.381,212.075 69.783,212.673 69.333,213.375Z" style="fill:rgb(201,49,18);fill-rule:nonzero;"/>
            <path d="M97.333,241.875C97.783,242.577 98.381,243.175 99.083,243.625C98.381,244.075 97.783,244.673 97.333,245.375C96.883,244.673 96.285,244.075 95.583,243.625C96.285,243.175 96.883,242.577 97.333,241.875Z" style="fill:rgb(201,49,18);fill-rule:nonzero;"/>
            <path d="M70.652,208.125L67.959,208.125L67.802,207.691C68.162,207.372 68.467,207.095 68.715,206.862C68.963,206.63 69.162,206.425 69.312,206.249C69.46,206.072 69.568,205.912 69.634,205.769C69.7,205.625 69.733,205.482 69.733,205.341C69.733,205.116 69.664,204.944 69.527,204.826C69.389,204.708 69.226,204.648 69.038,204.648C68.869,204.648 68.716,204.695 68.578,204.787C68.44,204.879 68.316,205.01 68.206,205.181L67.947,204.966C67.988,204.846 68.048,204.729 68.127,204.618C68.207,204.506 68.304,204.408 68.418,204.323C68.533,204.237 68.666,204.169 68.817,204.118C68.968,204.066 69.136,204.041 69.32,204.041C69.497,204.041 69.662,204.067 69.814,204.121C69.968,204.174 70.1,204.25 70.212,204.351C70.323,204.45 70.411,204.573 70.475,204.717C70.539,204.861 70.571,205.024 70.571,205.204C70.571,205.404 70.529,205.597 70.444,205.782C70.36,205.967 70.233,206.153 70.064,206.34C69.894,206.527 69.679,206.724 69.42,206.929C69.162,207.135 68.858,207.359 68.511,207.602L69.256,207.602C69.397,207.602 69.527,207.598 69.646,207.59C69.764,207.582 69.856,207.571 69.922,207.558L70.075,207.498L70.147,207.395L70.367,206.868L70.766,206.918C70.766,207.106 70.756,207.308 70.737,207.523C70.717,207.738 70.689,207.939 70.652,208.125Z" style="fill:rgb(201,49,18);fill-rule:nonzero;"/>
            <path d="M96.014,247.125L98.708,247.125L98.864,247.559C98.504,247.879 98.199,248.154 97.951,248.388C97.703,248.62 97.504,248.824 97.355,249.002C97.206,249.178 97.098,249.338 97.032,249.481C96.966,249.625 96.933,249.768 96.933,249.909C96.933,250.134 97.002,250.306 97.139,250.424C97.277,250.542 97.44,250.602 97.628,250.602C97.797,250.602 97.95,250.555 98.088,250.463C98.226,250.371 98.35,250.24 98.46,250.068L98.719,250.284C98.678,250.404 98.618,250.521 98.539,250.632C98.459,250.744 98.362,250.842 98.248,250.928C98.133,251.013 98.001,251.081 97.849,251.133C97.698,251.184 97.53,251.209 97.346,251.209C97.169,251.209 97.004,251.183 96.852,251.129C96.698,251.076 96.566,251 96.454,250.899C96.343,250.8 96.255,250.678 96.191,250.533C96.127,250.389 96.095,250.227 96.095,250.046C96.095,249.846 96.137,249.653 96.222,249.469C96.306,249.283 96.433,249.097 96.603,248.91C96.772,248.723 96.987,248.526 97.246,248.32C97.504,248.115 97.808,247.891 98.155,247.648L97.41,247.648C97.269,247.648 97.139,247.652 97.02,247.66C96.902,247.668 96.81,247.679 96.744,247.692L96.591,247.752L96.52,247.855L96.299,248.382L95.9,248.332C95.9,248.145 95.91,247.942 95.929,247.727C95.949,247.512 95.977,247.311 96.014,247.125Z" style="fill:rgb(201,49,18);fill-rule:nonzero;"/>
            <path d="M83.333,224.375C81.982,222.269 80.189,220.475 78.083,219.125C80.189,217.775 81.982,215.981 83.333,213.875C84.683,215.981 86.476,217.775 88.583,219.125C86.476,220.475 84.683,222.269 83.333,224.375Z" style="fill:rgb(201,49,18);fill-rule:nonzero;"/>
            <path d="M88.583,236.125C86.476,237.476 84.683,239.269 83.333,241.375C81.982,239.269 80.189,237.476 78.083,236.125C80.189,234.774 81.982,232.981 83.333,230.875C84.683,232.981 86.476,234.774 88.583,236.125Z" style="fill:rgb(201,49,18);fill-rule:nonzero;"/>
        </g>
    </g>
</svg>
