<?xml version="1.0" encoding="UTF-8" standalone="no"?>
<!DOCTYPE svg PUBLIC "-//W3C//DTD SVG 1.1//EN" "http://www.w3.org/Graphics/SVG/1.1/DTD/svg11.dtd">
<svg width="100%" height="100%" viewBox="0 0 41 56" version="1.1" xmlns="http://www.w3.org/2000/svg" xmlns:xlink="http://www.w3.org/1999/xlink" xml:space="preserve" xmlns:serif="http://www.serif.com/" style="fill-rule:evenodd;clip-rule:evenodd;stroke-linejoin:round;stroke-miterlimit:2;">
    <g transform="matrix(1,0,0,1,-63,-80)">
        <g>
            <path d="M100.833,136L65.833,136C64.452,136 63.333,134.881 63.333,133.5L63.333,82.5C63.333,81.12 64.452,80 65.833,80L100.833,80C102.214,80 103.333,81.12 103.333,82.5L103.333,133.5C103.333,134.881 102.214,136 100.833,136Z" style="fill:white;fill-rule:nonzero;"/>
            <path d="M100.833,136L65.833,136C64.452,136 63.333,134.881 63.333,133.5L63.333,82.5C63.333,81.12 64.452,80 65.833,80L100.833,80C102.214,80 103.333,81.12 103.333,82.5L103.333,133.5C103.333,134.881 102.214,136 100.833,136ZM100.833,135.8L65.833,135.8C64.562,135.8 63.533,134.771 63.533,133.5L63.533,82.5C63.533,81.23 64.562,80.2 65.833,80.2L100.833,80.2C102.104,80.2 103.133,81.23 103.133,82.5L103.133,133.5C103.133,134.771 102.104,135.8 100.833,135.8Z" style="fill:rgb(204,204,204);"/>
            <path d="M70.146,90.5C69.795,90.5 69.494,90.694 69.333,90.978C69.172,90.694 68.87,90.5 68.521,90.5C68.002,90.5 67.583,90.92 67.583,91.438C67.583,92.473 69.057,93.029 69.333,93.688C69.608,93.029 71.083,92.473 71.083,91.438C71.083,90.92 70.663,90.5 70.146,90.5Z" style="fill:rgb(201,49,18);fill-rule:nonzero;"/>
            <path d="M96.521,125.25C96.87,125.25 97.172,125.056 97.333,124.772C97.494,125.056 97.795,125.25 98.146,125.25C98.663,125.25 99.083,124.83 99.083,124.313C99.083,123.277 97.608,122.722 97.333,122.063C97.057,122.722 95.583,123.277 95.583,124.313C95.583,124.83 96.002,125.25 96.521,125.25Z" style="fill:rgb(201,49,18);fill-rule:nonzero;"/>
            <path d="M70.652,88.375L67.959,88.375L67.802,87.942C68.162,87.622 68.467,87.346 68.715,87.113C68.963,86.88 69.162,86.676 69.312,86.499C69.46,86.323 69.568,86.163 69.634,86.019C69.7,85.875 69.733,85.733 69.733,85.591C69.733,85.367 69.664,85.195 69.527,85.077C69.389,84.958 69.226,84.899 69.038,84.899C68.869,84.899 68.716,84.945 68.578,85.037C68.44,85.129 68.316,85.261 68.206,85.432L67.947,85.216C67.988,85.096 68.048,84.98 68.127,84.869C68.207,84.757 68.304,84.659 68.418,84.573C68.533,84.488 68.666,84.419 68.817,84.368C68.968,84.317 69.136,84.291 69.32,84.291C69.497,84.291 69.662,84.318 69.814,84.371C69.968,84.424 70.1,84.501 70.212,84.601C70.323,84.701 70.411,84.823 70.475,84.967C70.539,85.112 70.571,85.274 70.571,85.455C70.571,85.654 70.529,85.847 70.444,86.032C70.36,86.217 70.233,86.404 70.064,86.591C69.894,86.778 69.679,86.974 69.42,87.18C69.162,87.385 68.858,87.609 68.511,87.852L69.256,87.852C69.397,87.852 69.527,87.848 69.646,87.84C69.764,87.832 69.856,87.822 69.922,87.808L70.075,87.748L70.147,87.645L70.367,87.119L70.766,87.168C70.766,87.356 70.756,87.558 70.737,87.773C70.717,87.989 70.689,88.189 70.652,88.375Z" style="fill:rgb(201,49,18);fill-rule:nonzero;"/>
            <path d="M96.014,127.375L98.708,127.375L98.864,127.809C98.504,128.128 98.199,128.405 97.951,128.638C97.703,128.87 97.504,129.075 97.355,129.251C97.206,129.428 97.098,129.588 97.032,129.731C96.966,129.875 96.933,130.018 96.933,130.159C96.933,130.384 97.002,130.556 97.139,130.674C97.277,130.792 97.44,130.852 97.628,130.852C97.797,130.852 97.95,130.805 98.088,130.713C98.226,130.621 98.35,130.49 98.46,130.319L98.719,130.534C98.678,130.654 98.618,130.771 98.539,130.882C98.459,130.994 98.362,131.092 98.248,131.177C98.133,131.263 98.001,131.331 97.849,131.382C97.698,131.434 97.53,131.459 97.346,131.459C97.169,131.459 97.004,131.433 96.852,131.379C96.698,131.326 96.566,131.25 96.454,131.149C96.343,131.05 96.255,130.927 96.191,130.783C96.127,130.639 96.095,130.476 96.095,130.296C96.095,130.096 96.137,129.903 96.222,129.718C96.306,129.533 96.433,129.347 96.603,129.16C96.772,128.973 96.987,128.776 97.246,128.571C97.504,128.365 97.808,128.141 98.155,127.898L97.41,127.898C97.269,127.898 97.139,127.902 97.02,127.91C96.902,127.918 96.81,127.929 96.744,127.942L96.591,128.002L96.52,128.105L96.299,128.632L95.9,128.582C95.9,128.394 95.91,128.192 95.929,127.977C95.949,127.762 95.977,127.561 96.014,127.375Z" style="fill:rgb(201,49,18);fill-rule:nonzero;"/>
            <path d="M85.771,95.25C84.721,95.25 83.816,95.832 83.333,96.685C82.85,95.832 81.945,95.25 80.896,95.25C79.342,95.25 78.083,96.51 78.083,98.063C78.083,101.168 82.506,102.835 83.333,104.813C84.159,102.835 88.583,101.168 88.583,98.063C88.583,96.51 87.324,95.25 85.771,95.25Z" style="fill:rgb(201,49,18);fill-rule:nonzero;"/>
            <path d="M85.771,120.5C84.721,120.5 83.816,119.918 83.333,119.066C82.85,119.918 81.945,120.5 80.896,120.5C79.342,120.5 78.083,119.241 78.083,117.688C78.083,114.582 82.506,112.915 83.333,110.938C84.159,112.915 88.583,114.582 88.583,117.688C88.583,119.241 87.324,120.5 85.771,120.5Z" style="fill:rgb(201,49,18);fill-rule:nonzero;"/>
        </g>
    </g>
</svg>
