<?xml version="1.0" encoding="UTF-8" standalone="no"?>
<!DOCTYPE svg PUBLIC "-//W3C//DTD SVG 1.1//EN" "http://www.w3.org/Graphics/SVG/1.1/DTD/svg11.dtd">
<svg width="100%" height="100%" viewBox="0 0 41 56" version="1.1" xmlns="http://www.w3.org/2000/svg" xmlns:xlink="http://www.w3.org/1999/xlink" xml:space="preserve" xmlns:serif="http://www.serif.com/" style="fill-rule:evenodd;clip-rule:evenodd;stroke-linejoin:round;stroke-miterlimit:2;">
    <g transform="matrix(1,0,0,1,-63,-140)">
        <g>
            <path d="M100.833,196L65.833,196C64.452,196 63.333,194.881 63.333,193.5L63.333,142.5C63.333,141.119 64.452,140 65.833,140L100.833,140C102.214,140 103.333,141.119 103.333,142.5L103.333,193.5C103.333,194.881 102.214,196 100.833,196Z" style="fill:white;fill-rule:nonzero;"/>
            <path d="M69.333,149.688C69.062,150.376 67.708,150.629 67.708,151.688C67.708,152.171 68.099,152.563 68.583,152.563C68.837,152.563 69.064,152.452 69.224,152.278C69.194,152.574 69.097,152.923 68.833,153.188L68.833,153.313L69.833,153.313L69.833,153.188C69.569,152.923 69.471,152.574 69.441,152.279C69.601,152.452 69.828,152.563 70.083,152.563C70.565,152.563 70.958,152.171 70.958,151.688C70.958,150.629 69.603,150.376 69.333,149.688Z" style="fill:rgb(31,31,31);fill-rule:nonzero;"/>
            <path d="M97.334,185.813C97.604,185.124 98.959,184.871 98.959,183.813C98.959,183.329 98.566,182.938 98.084,182.938C97.829,182.938 97.602,183.048 97.441,183.222C97.472,182.926 97.569,182.577 97.833,182.313L97.833,182.188L96.833,182.188L96.833,182.313C97.097,182.577 97.194,182.926 97.225,183.221C97.064,183.048 96.838,182.938 96.584,182.938C96.1,182.938 95.709,183.329 95.709,183.813C95.709,184.871 97.063,185.124 97.334,185.813Z" style="fill:rgb(31,31,31);fill-rule:nonzero;"/>
            <path d="M70.652,148.25L67.959,148.25L67.802,147.816C68.162,147.497 68.467,147.22 68.715,146.987C68.963,146.755 69.162,146.55 69.312,146.374C69.46,146.197 69.568,146.037 69.634,145.894C69.7,145.75 69.733,145.607 69.733,145.466C69.733,145.241 69.664,145.069 69.527,144.951C69.389,144.833 69.226,144.773 69.038,144.773C68.869,144.773 68.716,144.82 68.578,144.912C68.44,145.004 68.316,145.135 68.206,145.306L67.947,145.091C67.988,144.971 68.048,144.854 68.127,144.743C68.207,144.631 68.304,144.533 68.418,144.448C68.533,144.362 68.666,144.294 68.817,144.243C68.968,144.191 69.136,144.166 69.32,144.166C69.497,144.166 69.662,144.192 69.814,144.246C69.968,144.299 70.1,144.375 70.212,144.476C70.323,144.575 70.411,144.698 70.475,144.842C70.539,144.986 70.571,145.149 70.571,145.329C70.571,145.529 70.529,145.722 70.444,145.907C70.36,146.092 70.233,146.278 70.064,146.465C69.894,146.652 69.679,146.849 69.42,147.054C69.162,147.26 68.858,147.484 68.511,147.727L69.256,147.727C69.397,147.727 69.527,147.723 69.646,147.715C69.764,147.707 69.856,147.696 69.922,147.683L70.075,147.623L70.147,147.52L70.367,146.993L70.766,147.043C70.766,147.231 70.756,147.433 70.737,147.648C70.717,147.863 70.689,148.064 70.652,148.25Z" style="fill:rgb(31,31,31);fill-rule:nonzero;"/>
            <path d="M96.014,187.25L98.708,187.25L98.864,187.684C98.504,188.003 98.199,188.28 97.951,188.513C97.703,188.745 97.504,188.95 97.355,189.126C97.206,189.303 97.098,189.463 97.032,189.606C96.966,189.75 96.933,189.893 96.933,190.034C96.933,190.259 97.002,190.431 97.139,190.549C97.277,190.667 97.44,190.727 97.628,190.727C97.797,190.727 97.95,190.68 98.088,190.588C98.226,190.496 98.35,190.365 98.46,190.194L98.719,190.409C98.678,190.529 98.618,190.646 98.539,190.757C98.459,190.869 98.362,190.967 98.248,191.052C98.133,191.138 98.001,191.206 97.849,191.257C97.698,191.309 97.53,191.334 97.346,191.334C97.169,191.334 97.004,191.308 96.852,191.254C96.698,191.201 96.566,191.125 96.454,191.024C96.343,190.925 96.255,190.802 96.191,190.658C96.127,190.514 96.095,190.351 96.095,190.171C96.095,189.971 96.137,189.778 96.222,189.593C96.306,189.408 96.433,189.222 96.603,189.035C96.772,188.848 96.987,188.651 97.246,188.446C97.504,188.24 97.808,188.016 98.155,187.773L97.41,187.773C97.269,187.773 97.139,187.777 97.02,187.785C96.902,187.793 96.81,187.804 96.744,187.817L96.591,187.877L96.52,187.98L96.299,188.507L95.9,188.457C95.9,188.269 95.91,188.067 95.929,187.852C95.949,187.637 95.977,187.436 96.014,187.25Z" style="fill:rgb(31,31,31);fill-rule:nonzero;"/>
            <path d="M83.332,153.063C82.519,155.13 78.457,155.886 78.457,159.063C78.457,160.512 79.632,161.688 81.082,161.688C81.845,161.688 82.527,161.355 83.007,160.835C82.917,161.721 82.626,162.77 81.833,163.563L81.833,163.938L84.833,163.938L84.833,163.563C84.041,162.771 83.749,161.723 83.658,160.837C84.138,161.357 84.818,161.688 85.582,161.688C87.031,161.688 88.207,160.512 88.207,159.063C88.207,155.886 84.144,155.13 83.332,153.063Z" style="fill:rgb(31,31,31);fill-rule:nonzero;"/>
            <path d="M83.332,182.438C82.519,180.37 78.457,179.614 78.457,176.438C78.457,174.988 79.632,173.813 81.082,173.813C81.845,173.813 82.527,174.145 83.007,174.665C82.917,173.779 82.626,172.73 81.833,171.938L81.833,171.563L84.833,171.563L84.833,171.938C84.041,172.729 83.749,173.777 83.658,174.663C84.138,174.143 84.818,173.813 85.582,173.813C87.031,173.813 88.207,174.988 88.207,176.438C88.207,179.614 84.144,180.37 83.332,182.438Z" style="fill:rgb(31,31,31);fill-rule:nonzero;"/>
        </g>
    </g>
</svg>
