<?xml version="1.0" encoding="UTF-8" standalone="no"?>
<!DOCTYPE svg PUBLIC "-//W3C//DTD SVG 1.1//EN" "http://www.w3.org/Graphics/SVG/1.1/DTD/svg11.dtd">
<svg width="100%" height="100%" viewBox="0 0 41 56" version="1.1" xmlns="http://www.w3.org/2000/svg" xmlns:xlink="http://www.w3.org/1999/xlink" xml:space="preserve" xmlns:serif="http://www.serif.com/" style="fill-rule:evenodd;clip-rule:evenodd;stroke-linejoin:round;stroke-miterlimit:2;">
    <g transform="matrix(1,0,0,1,-106,-200)">
        <g>
            <path d="M144.167,256L109.167,256C107.786,256 106.667,254.881 106.667,253.5L106.667,202.5C106.667,201.119 107.786,200 109.167,200L144.167,200C145.547,200 146.667,201.119 146.667,202.5L146.667,253.5C146.667,254.881 145.547,256 144.167,256Z" style="fill:white;fill-rule:nonzero;"/>
            <path d="M144.167,256L109.167,256C107.786,256 106.667,254.881 106.667,253.5L106.667,202.5C106.667,201.119 107.786,200 109.167,200L144.167,200C145.547,200 146.667,201.119 146.667,202.5L146.667,253.5C146.667,254.881 145.547,256 144.167,256ZM144.167,255.8L109.167,255.8C107.896,255.8 106.867,254.771 106.867,253.5L106.867,202.5C106.867,201.229 107.896,200.2 109.167,200.2L144.167,200.2C145.437,200.2 146.467,201.229 146.467,202.5L146.467,253.5C146.467,254.771 145.437,255.8 144.167,255.8Z" style="fill:rgb(204,204,204);"/>
            <path d="M112.667,213.375C112.217,212.673 111.619,212.075 110.917,211.625C111.619,211.175 112.217,210.577 112.667,209.875C113.117,210.577 113.714,211.175 114.417,211.625C113.714,212.075 113.117,212.673 112.667,213.375Z" style="fill:rgb(201,49,18);fill-rule:nonzero;"/>
            <path d="M140.667,241.875C141.117,242.577 141.714,243.175 142.417,243.625C141.714,244.075 141.117,244.673 140.667,245.375C140.217,244.673 139.619,244.075 138.917,243.625C139.619,243.175 140.217,242.577 140.667,241.875Z" style="fill:rgb(201,49,18);fill-rule:nonzero;"/>
            <path d="M114.045,206.964C114.045,207.146 114.005,207.314 113.923,207.468C113.842,207.621 113.731,207.751 113.592,207.86C113.452,207.969 113.288,208.054 113.099,208.115C112.91,208.176 112.709,208.207 112.498,208.207C112.207,208.207 111.951,208.156 111.729,208.054C111.506,207.952 111.33,207.837 111.198,207.709L111.398,207.427C111.522,207.51 111.663,207.58 111.82,207.635C111.977,207.69 112.149,207.718 112.335,207.718C112.449,207.718 112.559,207.704 112.662,207.676C112.766,207.647 112.857,207.604 112.934,207.544C113.012,207.485 113.074,207.408 113.122,207.313C113.169,207.218 113.194,207.104 113.196,206.97C113.2,206.753 113.138,206.577 113.011,206.443C112.884,206.31 112.716,206.23 112.507,206.205L112.286,206.257L112.067,206.298L111.968,205.935C112.112,205.903 112.247,205.863 112.375,205.813C112.501,205.762 112.612,205.701 112.706,205.63C112.8,205.56 112.875,205.477 112.93,205.383C112.985,205.289 113.013,205.183 113.013,205.064C113.013,204.921 112.962,204.8 112.86,204.703C112.758,204.604 112.622,204.556 112.451,204.556C112.283,204.556 112.125,204.598 111.98,204.684C111.834,204.769 111.712,204.864 111.614,204.969L111.378,204.742C111.494,204.544 111.665,204.377 111.89,204.243C112.115,204.108 112.382,204.041 112.693,204.041C112.844,204.041 112.989,204.061 113.126,204.1C113.264,204.14 113.384,204.198 113.487,204.275C113.59,204.352 113.672,204.447 113.733,204.562C113.794,204.676 113.825,204.807 113.825,204.954C113.825,205.082 113.798,205.202 113.746,205.315C113.693,205.427 113.625,205.528 113.541,205.616C113.457,205.704 113.361,205.78 113.256,205.843C113.15,205.906 113.045,205.953 112.94,205.984C113.063,205.982 113.189,206 113.32,206.036C113.451,206.073 113.569,206.132 113.676,206.212C113.783,206.293 113.871,206.396 113.941,206.521C114.011,206.646 114.045,206.793 114.045,206.964Z" style="fill:rgb(201,49,18);fill-rule:nonzero;"/>
            <path d="M139.288,248.285C139.288,248.104 139.328,247.936 139.41,247.782C139.491,247.629 139.602,247.498 139.741,247.39C139.881,247.281 140.045,247.196 140.234,247.135C140.423,247.074 140.624,247.043 140.835,247.043C141.126,247.043 141.382,247.094 141.604,247.196C141.827,247.298 142.003,247.413 142.135,247.541L141.935,247.823C141.811,247.74 141.67,247.67 141.513,247.615C141.356,247.561 141.184,247.532 140.998,247.532C140.884,247.532 140.774,247.547 140.671,247.574C140.567,247.603 140.476,247.646 140.399,247.705C140.321,247.765 140.259,247.842 140.211,247.937C140.164,248.031 140.139,248.146 140.137,248.279C140.133,248.497 140.195,248.673 140.322,248.807C140.449,248.94 140.617,249.02 140.826,249.045L141.047,248.992L141.266,248.952L141.365,249.315C141.221,249.347 141.086,249.387 140.958,249.438C140.832,249.488 140.721,249.549 140.627,249.619C140.533,249.69 140.458,249.773 140.403,249.867C140.348,249.961 140.32,250.066 140.32,250.186C140.32,250.329 140.371,250.449 140.473,250.547C140.575,250.646 140.711,250.694 140.882,250.694C141.05,250.694 141.208,250.652 141.353,250.566C141.499,250.48 141.621,250.387 141.719,250.281L141.955,250.508C141.839,250.706 141.668,250.873 141.443,251.008C141.218,251.143 140.951,251.209 140.64,251.209C140.489,251.209 140.344,251.189 140.207,251.15C140.069,251.109 139.949,251.052 139.846,250.975C139.743,250.898 139.661,250.803 139.6,250.688C139.539,250.574 139.508,250.443 139.508,250.296C139.508,250.168 139.535,250.048 139.587,249.936C139.64,249.822 139.708,249.723 139.792,249.635C139.876,249.546 139.972,249.471 140.077,249.407C140.183,249.344 140.288,249.297 140.393,249.266C140.271,249.268 140.144,249.25 140.013,249.214C139.882,249.177 139.764,249.118 139.657,249.037C139.55,248.957 139.462,248.854 139.392,248.729C139.322,248.604 139.288,248.457 139.288,248.285Z" style="fill:rgb(201,49,18);fill-rule:nonzero;"/>
            <path d="M125.684,216.925C124.514,215.099 122.959,213.545 121.134,212.375C122.959,211.205 124.514,209.651 125.684,207.825C126.854,209.651 128.408,211.205 130.233,212.375C128.408,213.545 126.854,215.099 125.684,216.925Z" style="fill:rgb(201,49,18);fill-rule:nonzero;"/>
            <path d="M125.684,231.925C124.514,230.1 122.959,228.545 121.134,227.375C122.959,226.205 124.514,224.651 125.684,222.825C126.854,224.651 128.408,226.205 130.233,227.375C128.408,228.545 126.854,230.1 125.684,231.925Z" style="fill:rgb(201,49,18);fill-rule:nonzero;"/>
            <path d="M130.233,242.875C128.408,244.045 126.854,245.6 125.684,247.425C124.514,245.6 122.959,244.045 121.134,242.875C122.959,241.705 124.514,240.15 125.684,238.325C126.854,240.15 128.408,241.705 130.233,242.875Z" style="fill:rgb(201,49,18);fill-rule:nonzero;"/>
        </g>
    </g>
</svg>
