<?xml version="1.0" encoding="UTF-8" standalone="no"?>
<!DOCTYPE svg PUBLIC "-//W3C//DTD SVG 1.1//EN" "http://www.w3.org/Graphics/SVG/1.1/DTD/svg11.dtd">
<svg width="100%" height="100%" viewBox="0 0 41 56" version="1.1" xmlns="http://www.w3.org/2000/svg" xmlns:xlink="http://www.w3.org/1999/xlink" xml:space="preserve" xmlns:serif="http://www.serif.com/" style="fill-rule:evenodd;clip-rule:evenodd;stroke-linejoin:round;stroke-miterlimit:2;">
    <g transform="matrix(1,0,0,1,-106,-80)">
        <g>
            <path d="M144.167,136L109.167,136C107.786,136 106.667,134.881 106.667,133.5L106.667,82.5C106.667,81.12 107.786,80 109.167,80L144.167,80C145.547,80 146.667,81.12 146.667,82.5L146.667,133.5C146.667,134.881 145.547,136 144.167,136Z" style="fill:white;fill-rule:nonzero;"/>
            <path d="M144.167,136L109.167,136C107.786,136 106.667,134.881 106.667,133.5L106.667,82.5C106.667,81.12 107.786,80 109.167,80L144.167,80C145.547,80 146.667,81.12 146.667,82.5L146.667,133.5C146.667,134.881 145.547,136 144.167,136ZM144.167,135.8L109.167,135.8C107.896,135.8 106.867,134.771 106.867,133.5L106.867,82.5C106.867,81.23 107.896,80.2 109.167,80.2L144.167,80.2C145.437,80.2 146.467,81.23 146.467,82.5L146.467,133.5C146.467,134.771 145.437,135.8 144.167,135.8Z" style="fill:rgb(204,204,204);"/>
            <path d="M113.479,90.5C113.129,90.5 112.828,90.694 112.667,90.978C112.505,90.694 112.204,90.5 111.854,90.5C111.336,90.5 110.917,90.92 110.917,91.438C110.917,92.473 112.391,93.029 112.667,93.688C112.942,93.029 114.417,92.473 114.417,91.438C114.417,90.92 113.997,90.5 113.479,90.5Z" style="fill:rgb(201,49,18);fill-rule:nonzero;"/>
            <path d="M139.854,125.25C140.204,125.25 140.505,125.056 140.667,124.772C140.828,125.056 141.129,125.25 141.479,125.25C141.997,125.25 142.417,124.83 142.417,124.313C142.417,123.277 140.942,122.722 140.667,122.063C140.391,122.722 138.917,123.277 138.917,124.313C138.917,124.83 139.336,125.25 139.854,125.25Z" style="fill:rgb(201,49,18);fill-rule:nonzero;"/>
            <path d="M114.045,87.215C114.045,87.397 114.005,87.565 113.923,87.718C113.842,87.871 113.731,88.002 113.592,88.111C113.452,88.219 113.288,88.304 113.099,88.365C112.91,88.426 112.709,88.457 112.498,88.457C112.207,88.457 111.951,88.406 111.729,88.304C111.506,88.203 111.33,88.087 111.198,87.959L111.398,87.677C111.522,87.761 111.663,87.83 111.82,87.885C111.977,87.94 112.149,87.968 112.335,87.968C112.449,87.968 112.559,87.954 112.662,87.926C112.766,87.898 112.857,87.854 112.934,87.795C113.012,87.736 113.074,87.659 113.122,87.564C113.169,87.469 113.194,87.354 113.196,87.221C113.2,87.003 113.138,86.828 113.011,86.694C112.884,86.56 112.716,86.481 112.507,86.456L112.286,86.508L112.067,86.548L111.968,86.185C112.112,86.154 112.247,86.113 112.375,86.063C112.501,86.012 112.612,85.952 112.706,85.881C112.8,85.81 112.875,85.728 112.93,85.634C112.985,85.54 113.013,85.434 113.013,85.315C113.013,85.171 112.962,85.051 112.86,84.953C112.758,84.855 112.622,84.806 112.451,84.806C112.283,84.806 112.125,84.849 111.98,84.934C111.834,85.019 111.712,85.114 111.614,85.219L111.378,84.992C111.494,84.794 111.665,84.628 111.89,84.493C112.115,84.358 112.382,84.291 112.693,84.291C112.844,84.291 112.989,84.311 113.126,84.351C113.264,84.391 113.384,84.449 113.487,84.525C113.59,84.602 113.672,84.697 113.733,84.812C113.794,84.926 113.825,85.057 113.825,85.205C113.825,85.332 113.798,85.453 113.746,85.565C113.693,85.678 113.625,85.778 113.541,85.866C113.457,85.955 113.361,86.03 113.256,86.093C113.15,86.156 113.045,86.204 112.94,86.234C113.063,86.232 113.189,86.25 113.32,86.287C113.451,86.324 113.569,86.382 113.676,86.463C113.783,86.543 113.871,86.646 113.941,86.771C114.011,86.896 114.045,87.044 114.045,87.215Z" style="fill:rgb(201,49,18);fill-rule:nonzero;"/>
            <path d="M139.288,128.536C139.288,128.354 139.328,128.186 139.41,128.032C139.491,127.879 139.602,127.749 139.741,127.64C139.881,127.531 140.045,127.446 140.234,127.385C140.423,127.324 140.624,127.293 140.835,127.293C141.126,127.293 141.382,127.344 141.604,127.446C141.827,127.548 142.003,127.663 142.135,127.791L141.935,128.073C141.811,127.99 141.67,127.92 141.513,127.865C141.356,127.81 141.184,127.782 140.998,127.782C140.884,127.782 140.774,127.796 140.671,127.824C140.567,127.853 140.476,127.896 140.399,127.956C140.321,128.015 140.259,128.092 140.211,128.187C140.164,128.282 140.139,128.396 140.137,128.53C140.133,128.747 140.195,128.923 140.322,129.057C140.449,129.19 140.617,129.27 140.826,129.295L141.047,129.243L141.266,129.202L141.365,129.565C141.221,129.597 141.086,129.637 140.958,129.688C140.832,129.738 140.721,129.799 140.627,129.87C140.533,129.94 140.458,130.023 140.403,130.117C140.348,130.211 140.32,130.317 140.32,130.436C140.32,130.579 140.371,130.7 140.473,130.797C140.575,130.896 140.711,130.944 140.882,130.944C141.05,130.944 141.208,130.902 141.353,130.816C141.499,130.731 141.621,130.636 141.719,130.531L141.955,130.758C141.839,130.956 141.668,131.123 141.443,131.257C141.218,131.392 140.951,131.459 140.64,131.459C140.489,131.459 140.344,131.439 140.207,131.4C140.069,131.36 139.949,131.302 139.846,131.225C139.743,131.148 139.661,131.053 139.6,130.938C139.539,130.824 139.508,130.693 139.508,130.546C139.508,130.418 139.535,130.298 139.587,130.185C139.64,130.073 139.708,129.972 139.792,129.884C139.876,129.796 139.972,129.72 140.077,129.657C140.183,129.594 140.288,129.547 140.393,129.516C140.271,129.518 140.144,129.5 140.013,129.464C139.882,129.427 139.764,129.368 139.657,129.288C139.55,129.207 139.462,129.104 139.392,128.979C139.322,128.854 139.288,128.707 139.288,128.536Z" style="fill:rgb(201,49,18);fill-rule:nonzero;"/>
            <path d="M127.796,89.05C126.887,89.05 126.103,89.555 125.684,90.293C125.265,89.555 124.481,89.05 123.571,89.05C122.225,89.05 121.134,90.142 121.134,91.488C121.134,94.18 124.967,95.624 125.684,97.338C126.4,95.624 130.233,94.18 130.233,91.488C130.233,90.142 129.142,89.05 127.796,89.05Z" style="fill:rgb(201,49,18);fill-rule:nonzero;"/>
            <path d="M127.796,104.05C126.887,104.05 126.103,104.554 125.684,105.293C125.265,104.554 124.481,104.05 123.571,104.05C122.225,104.05 121.134,105.141 121.134,106.487C121.134,109.179 124.967,110.624 125.684,112.337C126.4,110.624 130.233,109.179 130.233,106.487C130.233,105.141 129.142,104.05 127.796,104.05Z" style="fill:rgb(201,49,18);fill-rule:nonzero;"/>
            <path d="M127.796,126.7C126.887,126.7 126.103,126.196 125.684,125.457C125.265,126.196 124.481,126.7 123.571,126.7C122.225,126.7 121.134,125.609 121.134,124.263C121.134,121.571 124.967,120.126 125.684,118.413C126.4,120.126 130.233,121.571 130.233,124.263C130.233,125.609 129.142,126.7 127.796,126.7Z" style="fill:rgb(201,49,18);fill-rule:nonzero;"/>
        </g>
    </g>
</svg>
