<?xml version="1.0" encoding="UTF-8" standalone="no"?>
<!DOCTYPE svg PUBLIC "-//W3C//DTD SVG 1.1//EN" "http://www.w3.org/Graphics/SVG/1.1/DTD/svg11.dtd">
<svg width="100%" height="100%" viewBox="0 0 41 56" version="1.1" xmlns="http://www.w3.org/2000/svg" xmlns:xlink="http://www.w3.org/1999/xlink" xml:space="preserve" xmlns:serif="http://www.serif.com/" style="fill-rule:evenodd;clip-rule:evenodd;stroke-linejoin:round;stroke-miterlimit:2;">
    <g transform="matrix(1,0,0,1,-106,-140)">
        <g>
            <path d="M144.167,196L109.167,196C107.786,196 106.667,194.881 106.667,193.5L106.667,142.5C106.667,141.119 107.786,140 109.167,140L144.167,140C145.547,140 146.667,141.119 146.667,142.5L146.667,193.5C146.667,194.881 145.547,196 144.167,196Z" style="fill:white;fill-rule:nonzero;"/>
            <path d="M144.167,196L109.167,196C107.786,196 106.667,194.881 106.667,193.5L106.667,142.5C106.667,141.119 107.786,140 109.167,140L144.167,140C145.547,140 146.667,141.119 146.667,142.5L146.667,193.5C146.667,194.881 145.547,196 144.167,196ZM144.167,195.8L109.167,195.8C107.896,195.8 106.867,194.771 106.867,193.5L106.867,142.5C106.867,141.229 107.896,140.2 109.167,140.2L144.167,140.2C145.437,140.2 146.467,141.229 146.467,142.5L146.467,193.5C146.467,194.771 145.437,195.8 144.167,195.8Z" style="fill:rgb(204,204,204);"/>
            <path d="M112.666,149.688C112.396,150.376 111.041,150.629 111.041,151.688C111.041,152.171 111.433,152.563 111.916,152.563C112.171,152.563 112.398,152.452 112.558,152.278C112.528,152.574 112.431,152.923 112.167,153.188L112.167,153.313L113.167,153.313L113.167,153.188C112.903,152.923 112.805,152.574 112.775,152.279C112.935,152.452 113.162,152.563 113.416,152.563C113.899,152.563 114.291,152.171 114.291,151.688C114.291,150.629 112.937,150.376 112.666,149.688Z" style="fill:rgb(31,31,31);fill-rule:nonzero;"/>
            <path d="M140.667,185.813C140.938,185.124 142.292,184.871 142.292,183.813C142.292,183.329 141.9,182.938 141.417,182.938C141.163,182.938 140.935,183.048 140.775,183.222C140.805,182.926 140.902,182.577 141.167,182.313L141.167,182.188L140.167,182.188L140.167,182.313C140.431,182.577 140.528,182.926 140.558,183.221C140.398,183.048 140.171,182.938 139.917,182.938C139.434,182.938 139.042,183.329 139.042,183.813C139.042,184.871 140.396,185.124 140.667,185.813Z" style="fill:rgb(31,31,31);fill-rule:nonzero;"/>
            <path d="M114.045,147.089C114.045,147.271 114.005,147.439 113.923,147.593C113.842,147.746 113.731,147.876 113.592,147.985C113.452,148.094 113.288,148.179 113.099,148.24C112.91,148.301 112.709,148.332 112.498,148.332C112.207,148.332 111.951,148.281 111.729,148.179C111.506,148.077 111.33,147.962 111.198,147.834L111.398,147.552C111.522,147.635 111.663,147.705 111.82,147.76C111.977,147.815 112.149,147.843 112.335,147.843C112.449,147.843 112.559,147.829 112.662,147.801C112.766,147.772 112.857,147.729 112.934,147.669C113.012,147.61 113.074,147.533 113.122,147.438C113.169,147.343 113.194,147.229 113.196,147.095C113.2,146.878 113.138,146.702 113.011,146.568C112.884,146.435 112.716,146.355 112.507,146.33L112.286,146.382L112.067,146.423L111.968,146.06C112.112,146.028 112.247,145.988 112.375,145.938C112.501,145.887 112.612,145.826 112.706,145.755C112.8,145.685 112.875,145.602 112.93,145.508C112.985,145.414 113.013,145.308 113.013,145.189C113.013,145.046 112.962,144.925 112.86,144.828C112.758,144.729 112.622,144.681 112.451,144.681C112.283,144.681 112.125,144.723 111.98,144.809C111.834,144.894 111.712,144.989 111.614,145.094L111.378,144.867C111.494,144.669 111.665,144.502 111.89,144.368C112.115,144.233 112.382,144.166 112.693,144.166C112.844,144.166 112.989,144.186 113.126,144.225C113.264,144.265 113.384,144.323 113.487,144.4C113.59,144.477 113.672,144.572 113.733,144.687C113.794,144.801 113.825,144.932 113.825,145.079C113.825,145.207 113.798,145.327 113.746,145.44C113.693,145.552 113.625,145.653 113.541,145.741C113.457,145.829 113.361,145.905 113.256,145.968C113.15,146.031 113.045,146.078 112.94,146.109C113.063,146.107 113.189,146.125 113.32,146.161C113.451,146.198 113.569,146.257 113.676,146.337C113.783,146.418 113.871,146.521 113.941,146.646C114.011,146.771 114.045,146.918 114.045,147.089Z" style="fill:rgb(31,31,31);fill-rule:nonzero;"/>
            <path d="M139.288,188.411C139.288,188.229 139.328,188.061 139.41,187.907C139.491,187.754 139.602,187.624 139.741,187.515C139.881,187.406 140.045,187.321 140.234,187.26C140.423,187.199 140.624,187.168 140.835,187.168C141.126,187.168 141.382,187.219 141.604,187.321C141.827,187.423 142.003,187.538 142.135,187.666L141.935,187.948C141.811,187.865 141.67,187.795 141.513,187.74C141.356,187.685 141.184,187.657 140.998,187.657C140.884,187.657 140.774,187.671 140.671,187.699C140.567,187.728 140.476,187.771 140.399,187.831C140.321,187.89 140.259,187.967 140.211,188.062C140.164,188.157 140.139,188.271 140.137,188.405C140.133,188.622 140.195,188.798 140.322,188.932C140.449,189.065 140.617,189.145 140.826,189.17L141.047,189.118L141.266,189.077L141.365,189.44C141.221,189.472 141.086,189.512 140.958,189.563C140.832,189.613 140.721,189.674 140.627,189.745C140.533,189.815 140.458,189.898 140.403,189.992C140.348,190.086 140.32,190.192 140.32,190.311C140.32,190.454 140.371,190.575 140.473,190.672C140.575,190.771 140.711,190.819 140.882,190.819C141.05,190.819 141.208,190.777 141.353,190.691C141.499,190.606 141.621,190.511 141.719,190.406L141.955,190.633C141.839,190.831 141.668,190.998 141.443,191.132C141.218,191.267 140.951,191.334 140.64,191.334C140.489,191.334 140.344,191.314 140.207,191.275C140.069,191.235 139.949,191.177 139.846,191.1C139.743,191.023 139.661,190.928 139.6,190.813C139.539,190.699 139.508,190.568 139.508,190.421C139.508,190.293 139.535,190.173 139.587,190.06C139.64,189.948 139.708,189.847 139.792,189.759C139.876,189.671 139.972,189.595 140.077,189.532C140.183,189.469 140.288,189.422 140.393,189.391C140.271,189.393 140.144,189.375 140.013,189.339C139.882,189.302 139.764,189.243 139.657,189.163C139.55,189.082 139.462,188.979 139.392,188.854C139.322,188.729 139.288,188.582 139.288,188.411Z" style="fill:rgb(31,31,31);fill-rule:nonzero;"/>
            <path d="M125.683,147.138C124.978,148.929 121.458,149.584 121.458,152.337C121.458,153.594 122.476,154.612 123.732,154.612C124.395,154.612 124.985,154.325 125.401,153.874C125.323,154.642 125.071,155.55 124.384,156.237L124.384,156.563L126.984,156.563L126.984,156.237C126.297,155.551 126.044,154.644 125.965,153.875C126.381,154.326 126.971,154.612 127.632,154.612C128.889,154.612 129.907,153.594 129.907,152.337C129.907,149.584 126.387,148.929 125.683,147.138Z" style="fill:rgb(31,31,31);fill-rule:nonzero;"/>
            <path d="M125.683,162.138C124.978,163.929 121.458,164.584 121.458,167.337C121.458,168.594 122.476,169.612 123.732,169.612C124.395,169.612 124.985,169.325 125.401,168.874C125.323,169.642 125.071,170.55 124.384,171.237L124.384,171.563L126.984,171.563L126.984,171.237C126.297,170.551 126.044,169.644 125.965,168.875C126.381,169.326 126.971,169.612 127.632,169.612C128.889,169.612 129.907,168.594 129.907,167.337C129.907,164.584 126.387,163.929 125.683,162.138Z" style="fill:rgb(31,31,31);fill-rule:nonzero;"/>
            <path d="M125.683,188.362C124.978,186.571 121.458,185.916 121.458,183.163C121.458,181.906 122.476,180.888 123.732,180.888C124.395,180.888 124.985,181.175 125.401,181.626C125.323,180.858 125.071,179.95 124.384,179.263L124.384,178.938L126.984,178.938L126.984,179.263C126.297,179.949 126.044,180.856 125.965,181.625C126.381,181.174 126.971,180.888 127.632,180.888C128.889,180.888 129.907,181.906 129.907,183.163C129.907,185.916 126.387,186.571 125.683,188.362Z" style="fill:rgb(31,31,31);fill-rule:nonzero;"/>
        </g>
    </g>
</svg>
