<?xml version="1.0" encoding="UTF-8" standalone="no"?>
<!DOCTYPE svg PUBLIC "-//W3C//DTD SVG 1.1//EN" "http://www.w3.org/Graphics/SVG/1.1/DTD/svg11.dtd">
<svg width="100%" height="100%" viewBox="0 0 40 56" version="1.1" xmlns="http://www.w3.org/2000/svg" xmlns:xlink="http://www.w3.org/1999/xlink" xml:space="preserve" xmlns:serif="http://www.serif.com/" style="fill-rule:evenodd;clip-rule:evenodd;stroke-linejoin:round;stroke-miterlimit:2;">
    <g transform="matrix(1,0,0,1,-150,-20)">
        <g>
            <path d="M187.5,76L152.5,76C151.119,76 150,74.881 150,73.5L150,22.5C150,21.12 151.119,20 152.5,20L187.5,20C188.881,20 190,21.12 190,22.5L190,73.5C190,74.881 188.881,76 187.5,76Z" style="fill:white;fill-rule:nonzero;"/>
            <path d="M187.5,76L152.5,76C151.119,76 150,74.881 150,73.5L150,22.5C150,21.12 151.119,20 152.5,20L187.5,20C188.881,20 190,21.12 190,22.5L190,73.5C190,74.881 188.881,76 187.5,76ZM187.5,75.8L152.5,75.8C151.229,75.8 150.2,74.771 150.2,73.5L150.2,22.5C150.2,21.23 151.229,20.2 152.5,20.2L187.5,20.2C188.771,20.2 189.8,21.23 189.8,22.5C189.8,22.5 189.8,73.5 189.8,73.5C189.8,74.771 188.771,75.8 187.5,75.8Z" style="fill:rgb(204,204,204);"/>
            <path d="M157.53,31.533C157.237,31.24 156.763,31.24 156.47,31.533L156.147,31.854C156.229,31.566 156.393,31.418 156.53,31.281C156.823,30.988 156.823,30.513 156.53,30.22C156.384,30.074 156.193,30.001 156.002,30C155.811,30.001 155.616,30.074 155.47,30.22C155.177,30.513 155.177,30.988 155.47,31.281C155.606,31.418 155.771,31.566 155.852,31.854L155.53,31.533C155.237,31.24 154.763,31.24 154.47,31.533C154.177,31.826 154.177,32.3 154.47,32.593C154.763,32.886 155.237,32.886 155.53,32.593L155.901,32.223L155.902,32.244C155.909,32.568 155.857,33.081 155.5,33.438L155.5,33.563L156.5,33.563L156.5,33.438C156.145,33.082 156.091,32.574 156.097,32.249L156.099,32.223L156.47,32.593C156.763,32.886 157.237,32.886 157.53,32.593C157.823,32.3 157.823,31.826 157.53,31.533Z" style="fill:rgb(31,31,31);fill-rule:nonzero;"/>
            <path d="M182.47,64.468C182.763,64.761 183.237,64.761 183.53,64.468L183.852,64.146C183.771,64.435 183.606,64.583 183.47,64.72C183.177,65.013 183.177,65.488 183.47,65.781C183.616,65.927 183.807,66 183.998,66C184.189,66 184.384,65.927 184.53,65.781C184.823,65.488 184.823,65.013 184.53,64.72C184.394,64.583 184.229,64.435 184.147,64.146L184.47,64.468C184.763,64.761 185.237,64.761 185.53,64.468C185.823,64.175 185.823,63.701 185.53,63.408C185.237,63.115 184.763,63.115 184.47,63.408L184.099,63.778L184.098,63.757C184.091,63.433 184.143,62.92 184.5,62.563L184.5,62.438L183.5,62.438L183.5,62.563C183.855,62.918 183.909,63.427 183.903,63.752L183.901,63.778L183.53,63.408C183.237,63.115 182.763,63.115 182.47,63.408C182.177,63.701 182.177,64.175 182.47,64.468Z" style="fill:rgb(31,31,31);fill-rule:nonzero;"/>
            <path d="M157.607,27.753L156.976,27.753L156.976,28.5L156.249,28.5L156.249,27.753L154.5,27.753L154.306,27.372C154.588,26.914 154.864,26.442 155.132,25.955C155.399,25.468 155.656,24.969 155.902,24.457L156.601,24.457L156.706,24.625C156.519,24.971 156.348,25.283 156.19,25.562C156.034,25.842 155.885,26.092 155.746,26.313C155.606,26.534 155.469,26.73 155.335,26.902C155.202,27.074 155.065,27.226 154.925,27.357L156.26,27.299L156.333,26.359L156.976,26.325L156.976,27.267L157.607,27.241L157.607,27.753Z" style="fill:rgb(31,31,31);fill-rule:nonzero;"/>
            <path d="M182.392,68.248L183.023,68.248L183.023,67.5L183.751,67.5L183.751,68.248L185.499,68.248L185.694,68.629C185.411,69.087 185.136,69.559 184.868,70.046C184.6,70.533 184.343,71.032 184.097,71.544L183.399,71.544L183.294,71.375C183.48,71.03 183.652,70.718 183.809,70.438C183.966,70.159 184.114,69.909 184.254,69.688C184.394,69.467 184.53,69.27 184.664,69.099C184.798,68.927 184.935,68.775 185.074,68.644L183.739,68.702L183.667,69.642L183.023,69.676L183.023,68.734L182.392,68.76L182.392,68.248Z" style="fill:rgb(31,31,31);fill-rule:nonzero;"/>
            <path d="M166.061,30.565C165.475,29.979 164.525,29.979 163.939,30.565L163.295,31.208C163.457,30.631 163.787,30.335 164.061,30.061C164.646,29.475 164.646,28.525 164.061,27.94C163.769,27.648 163.386,27.501 163.004,27.5C162.621,27.501 162.231,27.648 161.939,27.94C161.354,28.525 161.354,29.475 161.939,30.061C162.213,30.335 162.543,30.631 162.705,31.208L162.061,30.565C161.475,29.979 160.525,29.979 159.939,30.565C159.354,31.151 159.354,32.101 159.939,32.686C160.525,33.272 161.475,33.272 162.061,32.686L162.802,31.945L162.804,31.986C162.817,32.636 162.715,33.661 162,34.375L162,34.625L164,34.625L164,34.375C163.289,33.665 163.183,32.647 163.194,31.997L163.198,31.945L163.939,32.686C164.525,33.272 165.475,33.272 166.061,32.686C166.646,32.101 166.646,31.15 166.061,30.565Z" style="fill:rgb(31,31,31);fill-rule:nonzero;"/>
            <path d="M180.061,30.565C179.475,29.979 178.525,29.979 177.939,30.565L177.295,31.208C177.457,30.631 177.787,30.335 178.061,30.061C178.646,29.475 178.646,28.525 178.061,27.94C177.769,27.648 177.386,27.501 177.004,27.5C176.621,27.501 176.231,27.648 175.939,27.94C175.354,28.525 175.354,29.475 175.939,30.061C176.213,30.335 176.543,30.631 176.705,31.208L176.061,30.565C175.475,29.979 174.525,29.979 173.939,30.565C173.354,31.151 173.354,32.101 173.939,32.686C174.525,33.272 175.475,33.272 176.061,32.686L176.802,31.945L176.804,31.986C176.817,32.636 176.714,33.661 176,34.375L176,34.625L178,34.625L178,34.375C177.289,33.665 177.183,32.647 177.194,31.997L177.198,31.945L177.939,32.686C178.525,33.272 179.475,33.272 180.061,32.686C180.646,32.101 180.646,31.15 180.061,30.565Z" style="fill:rgb(31,31,31);fill-rule:nonzero;"/>
            <path d="M166.367,65.53C165.722,66.174 164.678,66.174 164.033,65.53L163.325,64.821C163.503,65.457 163.865,65.782 164.167,66.084C164.811,66.728 164.811,67.773 164.167,68.417C163.846,68.738 163.425,68.899 163.004,68.9C162.583,68.899 162.154,68.738 161.833,68.417C161.189,67.773 161.189,66.728 161.833,66.084C162.135,65.782 162.497,65.457 162.675,64.821L161.967,65.53C161.322,66.174 160.278,66.174 159.633,65.53C158.989,64.885 158.989,63.841 159.633,63.196C160.278,62.552 161.322,62.552 161.967,63.196L162.782,64.012L162.784,63.966C162.799,63.251 162.686,62.124 161.9,61.338L161.9,61.063L164.1,61.063L164.1,61.338C163.318,62.12 163.201,63.239 163.214,63.954L163.218,64.012L164.033,63.196C164.678,62.552 165.722,62.552 166.367,63.196C167.011,63.841 167.011,64.885 166.367,65.53Z" style="fill:rgb(31,31,31);fill-rule:nonzero;"/>
            <path d="M180.061,65.436C179.475,66.022 178.525,66.022 177.939,65.436L177.295,64.792C177.457,65.37 177.787,65.666 178.061,65.94C178.646,66.526 178.646,67.476 178.061,68.061C177.769,68.353 177.386,68.499 177.004,68.5C176.621,68.499 176.231,68.353 175.939,68.061C175.354,67.476 175.354,66.526 175.939,65.94C176.213,65.666 176.543,65.37 176.705,64.792L176.061,65.436C175.475,66.022 174.525,66.022 173.939,65.436C173.354,64.85 173.354,63.9 173.939,63.315C174.525,62.729 175.475,62.729 176.061,63.315L176.802,64.056L176.804,64.015C176.817,63.365 176.714,62.34 176,61.625L176,61.375L178,61.375L178,61.625C177.289,62.336 177.183,63.353 177.194,64.004L177.198,64.056L177.939,63.315C178.525,62.729 179.475,62.729 180.061,63.315C180.646,63.9 180.646,64.851 180.061,65.436Z" style="fill:rgb(31,31,31);fill-rule:nonzero;"/>
        </g>
    </g>
</svg>
