<?xml version="1.0" encoding="UTF-8" standalone="no"?>
<!DOCTYPE svg PUBLIC "-//W3C//DTD SVG 1.1//EN" "http://www.w3.org/Graphics/SVG/1.1/DTD/svg11.dtd">
<svg width="100%" height="100%" viewBox="0 0 40 56" version="1.1" xmlns="http://www.w3.org/2000/svg" xmlns:xlink="http://www.w3.org/1999/xlink" xml:space="preserve" xmlns:serif="http://www.serif.com/" style="fill-rule:evenodd;clip-rule:evenodd;stroke-linejoin:round;stroke-miterlimit:2;">
    <g transform="matrix(1,0,0,1,-150,-200)">
        <g>
            <path d="M187.5,256L152.5,256C151.119,256 150,254.881 150,253.5L150,202.5C150,201.119 151.119,200 152.5,200L187.5,200C188.881,200 190,201.119 190,202.5L190,253.5C190,254.881 188.881,256 187.5,256Z" style="fill:white;fill-rule:nonzero;"/>
            <path d="M156,213.375C155.55,212.673 154.952,212.075 154.25,211.625C154.952,211.175 155.55,210.577 156,209.875C156.45,210.577 157.048,211.175 157.75,211.625C157.048,212.075 156.45,212.673 156,213.375Z" style="fill:rgb(201,49,18);fill-rule:nonzero;"/>
            <path d="M184,241.875C184.45,242.577 185.048,243.175 185.75,243.625C185.048,244.075 184.45,244.673 184,245.375C183.55,244.673 182.952,244.075 182.25,243.625C182.952,243.175 183.55,242.577 184,241.875Z" style="fill:rgb(201,49,18);fill-rule:nonzero;"/>
            <path d="M157.607,207.377L156.976,207.377L156.976,208.125L156.249,208.125L156.249,207.377L154.5,207.377L154.306,206.996C154.588,206.539 154.864,206.066 155.132,205.58C155.399,205.093 155.656,204.593 155.902,204.082L156.601,204.082L156.706,204.25C156.519,204.595 156.348,204.908 156.19,205.187C156.034,205.466 155.885,205.716 155.746,205.938C155.606,206.159 155.469,206.355 155.335,206.526C155.202,206.698 155.065,206.85 154.925,206.982L156.26,206.923L156.333,205.984L156.976,205.949L156.976,206.892L157.607,206.865L157.607,207.377Z" style="fill:rgb(201,49,18);fill-rule:nonzero;"/>
            <path d="M182.392,247.873L183.023,247.873L183.023,247.125L183.751,247.125L183.751,247.873L185.499,247.873L185.694,248.254C185.411,248.711 185.136,249.184 184.868,249.67C184.6,250.157 184.343,250.656 184.097,251.168L183.399,251.168L183.294,251C183.48,250.654 183.652,250.342 183.809,250.063C183.966,249.783 184.114,249.533 184.254,249.313C184.394,249.092 184.53,248.895 184.664,248.724C184.798,248.552 184.935,248.4 185.074,248.268L183.739,248.326L183.667,249.266L183.023,249.301L183.023,248.358L182.392,248.385L182.392,247.873Z" style="fill:rgb(201,49,18);fill-rule:nonzero;"/>
            <path d="M163,214.625C162.1,213.221 160.904,212.025 159.5,211.125C160.904,210.225 162.1,209.029 163,207.625C163.9,209.029 165.096,210.225 166.5,211.125C165.096,212.025 163.9,213.221 163,214.625Z" style="fill:rgb(201,49,18);fill-rule:nonzero;"/>
            <path d="M177,214.625C176.1,213.221 174.904,212.025 173.5,211.125C174.904,210.225 176.1,209.029 177,207.625C177.9,209.029 179.096,210.225 180.5,211.125C179.096,212.025 177.9,213.221 177,214.625Z" style="fill:rgb(201,49,18);fill-rule:nonzero;"/>
            <path d="M166.85,244.125C165.305,245.115 163.99,246.431 163,247.975C162.01,246.431 160.695,245.115 159.15,244.125C160.695,243.135 162.01,241.819 163,240.275C163.99,241.819 165.305,243.135 166.85,244.125Z" style="fill:rgb(201,49,18);fill-rule:nonzero;"/>
            <path d="M180.5,244.125C179.096,245.025 177.9,246.221 177,247.625C176.1,246.221 174.904,245.025 173.5,244.125C174.904,243.225 176.1,242.029 177,240.625C177.9,242.029 179.096,243.225 180.5,244.125Z" style="fill:rgb(201,49,18);fill-rule:nonzero;"/>
        </g>
    </g>
</svg>
