<?xml version="1.0" encoding="UTF-8" standalone="no"?>
<!DOCTYPE svg PUBLIC "-//W3C//DTD SVG 1.1//EN" "http://www.w3.org/Graphics/SVG/1.1/DTD/svg11.dtd">
<svg width="100%" height="100%" viewBox="0 0 40 56" version="1.1" xmlns="http://www.w3.org/2000/svg" xmlns:xlink="http://www.w3.org/1999/xlink" xml:space="preserve" xmlns:serif="http://www.serif.com/" style="fill-rule:evenodd;clip-rule:evenodd;stroke-linejoin:round;stroke-miterlimit:2;">
    <g transform="matrix(1,0,0,1,-150,-80)">
        <g>
            <path d="M187.5,136L152.5,136C151.119,136 150,134.881 150,133.5L150,82.5C150,81.12 151.119,80 152.5,80L187.5,80C188.881,80 190,81.12 190,82.5L190,133.5C190,134.881 188.881,136 187.5,136Z" style="fill:white;fill-rule:nonzero;"/>
            <path d="M187.5,136L152.5,136C151.119,136 150,134.881 150,133.5L150,82.5C150,81.12 151.119,80 152.5,80L187.5,80C188.881,80 190,81.12 190,82.5L190,133.5C190,134.881 188.881,136 187.5,136ZM187.5,135.8L152.5,135.8C151.229,135.8 150.2,134.771 150.2,133.5L150.2,82.5C150.2,81.23 151.229,80.2 152.5,80.2L187.5,80.2C188.771,80.2 189.8,81.23 189.8,82.5C189.8,82.5 189.8,133.5 189.8,133.5C189.8,134.771 188.771,135.8 187.5,135.8Z" style="fill:rgb(204,204,204);"/>
            <path d="M156.813,90.5C156.462,90.5 156.161,90.694 156,90.978C155.839,90.694 155.537,90.5 155.188,90.5C154.67,90.5 154.25,90.92 154.25,91.438C154.25,92.473 155.725,93.029 156,93.688C156.275,93.029 157.75,92.473 157.75,91.438C157.75,90.92 157.33,90.5 156.813,90.5Z" style="fill:rgb(201,49,18);fill-rule:nonzero;"/>
            <path d="M183.188,125.25C183.538,125.25 183.839,125.056 184,124.772C184.161,125.056 184.462,125.25 184.813,125.25C185.33,125.25 185.75,124.83 185.75,124.313C185.75,123.277 184.275,122.722 184,122.063C183.725,122.722 182.25,123.277 182.25,124.313C182.25,124.83 182.67,125.25 183.188,125.25Z" style="fill:rgb(201,49,18);fill-rule:nonzero;"/>
            <path d="M157.607,87.628L156.976,87.628L156.976,88.375L156.249,88.375L156.249,87.628L154.5,87.628L154.306,87.247C154.588,86.789 154.864,86.317 155.132,85.83C155.399,85.343 155.656,84.844 155.902,84.332L156.601,84.332L156.706,84.5C156.519,84.846 156.348,85.158 156.19,85.437C156.034,85.717 155.885,85.967 155.746,86.188C155.606,86.409 155.469,86.605 155.335,86.777C155.202,86.949 155.065,87.101 154.925,87.232L156.26,87.174L156.333,86.234L156.976,86.2L156.976,87.142L157.607,87.116L157.607,87.628Z" style="fill:rgb(201,49,18);fill-rule:nonzero;"/>
            <path d="M182.392,128.123L183.023,128.123L183.023,127.375L183.751,127.375L183.751,128.123L185.499,128.123L185.694,128.504C185.411,128.961 185.136,129.434 184.868,129.92C184.6,130.407 184.343,130.907 184.097,131.418L183.399,131.418L183.294,131.25C183.48,130.905 183.652,130.592 183.809,130.313C183.966,130.034 184.114,129.784 184.254,129.563C184.394,129.341 184.53,129.145 184.664,128.974C184.798,128.802 184.935,128.65 185.074,128.518L183.739,128.577L183.667,129.516L183.023,129.551L183.023,128.608L182.392,128.635L182.392,128.123Z" style="fill:rgb(201,49,18);fill-rule:nonzero;"/>
            <path d="M164.625,88.625C163.925,88.625 163.322,89.013 163,89.582C162.678,89.013 162.075,88.625 161.375,88.625C160.339,88.625 159.5,89.465 159.5,90.5C159.5,92.571 162.449,93.682 163,95C163.551,93.682 166.5,92.571 166.5,90.5C166.5,89.465 165.661,88.625 164.625,88.625Z" style="fill:rgb(201,49,18);fill-rule:nonzero;"/>
            <path d="M178.625,88.625C177.925,88.625 177.322,89.013 177,89.582C176.678,89.013 176.075,88.625 175.375,88.625C174.339,88.625 173.5,89.465 173.5,90.5C173.5,92.571 176.449,93.682 177,95C177.551,93.682 180.5,92.571 180.5,90.5C180.5,89.465 179.661,88.625 178.625,88.625Z" style="fill:rgb(201,49,18);fill-rule:nonzero;"/>
            <path d="M164.788,127.4C164.018,127.4 163.354,126.974 163,126.349C162.646,126.974 161.982,127.4 161.212,127.4C160.073,127.4 159.15,126.477 159.15,125.337C159.15,123.06 162.394,121.837 163,120.388C163.606,121.837 166.85,123.06 166.85,125.337C166.85,126.477 165.927,127.4 164.788,127.4Z" style="fill:rgb(201,49,18);fill-rule:nonzero;"/>
            <path d="M178.625,127.125C177.925,127.125 177.322,126.737 177,126.169C176.678,126.737 176.075,127.125 175.375,127.125C174.339,127.125 173.5,126.286 173.5,125.25C173.5,123.18 176.449,122.068 177,120.75C177.551,122.068 180.5,123.18 180.5,125.25C180.5,126.286 179.661,127.125 178.625,127.125Z" style="fill:rgb(201,49,18);fill-rule:nonzero;"/>
        </g>
    </g>
</svg>
