<?xml version="1.0" encoding="UTF-8" standalone="no"?>
<!DOCTYPE svg PUBLIC "-//W3C//DTD SVG 1.1//EN" "http://www.w3.org/Graphics/SVG/1.1/DTD/svg11.dtd">
<svg width="100%" height="100%" viewBox="0 0 41 56" version="1.1" xmlns="http://www.w3.org/2000/svg" xmlns:xlink="http://www.w3.org/1999/xlink" xml:space="preserve" xmlns:serif="http://www.serif.com/" style="fill-rule:evenodd;clip-rule:evenodd;stroke-linejoin:round;stroke-miterlimit:2;">
    <g transform="matrix(1,0,0,1,-193,-20)">
        <g>
            <path d="M230.833,76L195.833,76C194.453,76 193.333,74.881 193.333,73.5L193.333,22.5C193.333,21.12 194.453,20 195.833,20L230.833,20C232.214,20 233.333,21.12 233.333,22.5L233.333,73.5C233.333,74.881 232.214,76 230.833,76Z" style="fill:white;fill-rule:nonzero;"/>
            <path d="M230.833,76L195.833,76C194.453,76 193.333,74.881 193.333,73.5L193.333,22.5C193.333,21.12 194.453,20 195.833,20L230.833,20C232.214,20 233.333,21.12 233.333,22.5L233.333,73.5C233.333,74.881 232.214,76 230.833,76ZM230.833,75.8L195.833,75.8C194.563,75.8 193.533,74.771 193.533,73.5L193.533,22.5C193.533,21.23 194.563,20.2 195.833,20.2L230.833,20.2C232.104,20.2 233.133,21.23 233.133,22.5L233.133,73.5C233.133,74.771 232.104,75.8 230.833,75.8Z" style="fill:rgb(204,204,204);"/>
            <path d="M200.864,31.533C200.571,31.24 200.096,31.24 199.803,31.533L199.481,31.854C199.562,31.566 199.727,31.418 199.864,31.281C200.157,30.988 200.157,30.513 199.864,30.22C199.718,30.074 199.526,30.001 199.335,30C199.144,30.001 198.949,30.074 198.803,30.22C198.51,30.513 198.51,30.988 198.803,31.281C198.94,31.418 199.104,31.566 199.186,31.854L198.864,31.533C198.571,31.24 198.096,31.24 197.803,31.533C197.51,31.826 197.51,32.3 197.803,32.593C198.096,32.886 198.571,32.886 198.864,32.593L199.234,32.223L199.235,32.244C199.242,32.568 199.19,33.081 198.833,33.438L198.833,33.563L199.833,33.563L199.833,33.438C199.478,33.082 199.425,32.574 199.431,32.249L199.433,32.223L199.803,32.593C200.096,32.886 200.571,32.886 200.864,32.593C201.157,32.3 201.157,31.826 200.864,31.533Z" style="fill:rgb(31,31,31);fill-rule:nonzero;"/>
            <path d="M225.803,64.468C226.096,64.761 226.571,64.761 226.864,64.468L227.186,64.146C227.105,64.435 226.94,64.583 226.803,64.72C226.51,65.013 226.51,65.488 226.803,65.781C226.949,65.927 227.14,66 227.332,66C227.523,66 227.718,65.927 227.864,65.781C228.157,65.488 228.157,65.013 227.864,64.72C227.727,64.583 227.562,64.435 227.481,64.146L227.803,64.468C228.096,64.761 228.571,64.761 228.864,64.468C229.157,64.175 229.157,63.701 228.864,63.408C228.571,63.115 228.096,63.115 227.803,63.408L227.433,63.778L227.431,63.757C227.424,63.433 227.476,62.92 227.833,62.563L227.833,62.438L226.833,62.438L226.833,62.563C227.188,62.918 227.242,63.427 227.236,63.752L227.234,63.778L226.864,63.408C226.571,63.115 226.096,63.115 225.803,63.408C225.51,63.701 225.51,64.175 225.803,64.468Z" style="fill:rgb(31,31,31);fill-rule:nonzero;"/>
            <path d="M198.072,27.756C198.191,27.851 198.328,27.931 198.482,27.996C198.638,28.061 198.805,28.093 198.983,28.093C199.247,28.093 199.463,28.016 199.632,27.862C199.8,27.707 199.885,27.493 199.885,27.218C199.885,26.975 199.815,26.778 199.677,26.627C199.538,26.476 199.343,26.4 199.091,26.4C198.98,26.4 198.869,26.416 198.756,26.45C198.644,26.482 198.53,26.529 198.416,26.589L198.142,26.403L198.273,24.495L200.525,24.495L200.455,25.077L198.75,25.077L198.64,26.15C198.762,26.057 198.893,25.994 199.032,25.961C199.172,25.928 199.309,25.912 199.443,25.912C199.838,25.912 200.152,26.023 200.384,26.246C200.615,26.469 200.731,26.768 200.731,27.142C200.731,27.357 200.692,27.554 200.614,27.732C200.535,27.911 200.426,28.062 200.288,28.188C200.149,28.313 199.983,28.41 199.79,28.478C199.597,28.547 199.387,28.582 199.161,28.582C198.879,28.582 198.625,28.531 198.398,28.431C198.171,28.33 197.993,28.202 197.863,28.047L198.072,27.756Z" style="fill:rgb(31,31,31);fill-rule:nonzero;"/>
            <path d="M228.594,68.245C228.475,68.15 228.338,68.07 228.184,68.005C228.028,67.94 227.861,67.908 227.683,67.908C227.419,67.908 227.203,67.985 227.034,68.139C226.866,68.293 226.781,68.508 226.781,68.783C226.781,69.026 226.851,69.223 226.989,69.374C227.128,69.525 227.323,69.601 227.575,69.601C227.686,69.601 227.797,69.584 227.91,69.551C228.022,69.519 228.136,69.472 228.25,69.412L228.524,69.598L228.393,71.506L226.141,71.506L226.211,70.924L227.916,70.924L228.026,69.851C227.904,69.944 227.773,70.007 227.634,70.04C227.494,70.073 227.357,70.089 227.223,70.089C226.828,70.089 226.514,69.978 226.282,69.755C226.051,69.532 225.935,69.233 225.935,68.859C225.935,68.644 225.974,68.447 226.052,68.269C226.131,68.09 226.24,67.938 226.378,67.813C226.517,67.688 226.683,67.591 226.876,67.522C227.069,67.454 227.279,67.419 227.505,67.419C227.787,67.419 228.041,67.47 228.268,67.57C228.495,67.671 228.673,67.799 228.803,67.954L228.594,68.245Z" style="fill:rgb(31,31,31);fill-rule:nonzero;"/>
            <path d="M209.394,30.565C208.808,29.979 207.858,29.979 207.272,30.565L206.629,31.208C206.791,30.631 207.12,30.335 207.394,30.061C207.98,29.475 207.979,28.525 207.394,27.94C207.102,27.648 206.72,27.501 206.337,27.5C205.955,27.501 205.564,27.648 205.272,27.94C204.687,28.525 204.687,29.475 205.272,30.061C205.546,30.335 205.876,30.631 206.038,31.208L205.394,30.565C204.808,29.979 203.858,29.979 203.272,30.565C202.687,31.151 202.687,32.101 203.272,32.686C203.858,33.272 204.808,33.272 205.394,32.686L206.135,31.945L206.137,31.986C206.151,32.636 206.048,33.661 205.333,34.375L205.333,34.625L207.333,34.625L207.333,34.375C206.623,33.665 206.516,32.647 206.528,31.997L206.532,31.945L207.272,32.686C207.858,33.272 208.808,33.272 209.394,32.686C209.98,32.101 209.98,31.15 209.394,30.565Z" style="fill:rgb(31,31,31);fill-rule:nonzero;"/>
            <path d="M223.394,30.565C222.808,29.979 221.858,29.979 221.272,30.565L220.629,31.208C220.791,30.631 221.12,30.335 221.394,30.061C221.98,29.475 221.979,28.525 221.394,27.94C221.102,27.648 220.72,27.501 220.337,27.5C219.955,27.501 219.564,27.648 219.272,27.94C218.687,28.525 218.687,29.475 219.272,30.061C219.546,30.335 219.876,30.631 220.038,31.208L219.394,30.565C218.808,29.979 217.858,29.979 217.272,30.565C216.687,31.151 216.687,32.101 217.272,32.686C217.858,33.272 218.808,33.272 219.394,32.686L220.135,31.945L220.137,31.986C220.151,32.636 220.048,33.661 219.333,34.375L219.333,34.625L221.333,34.625L221.333,34.375C220.623,33.665 220.516,32.647 220.528,31.997L220.532,31.945L221.272,32.686C221.858,33.272 222.808,33.272 223.394,32.686C223.98,32.101 223.98,31.15 223.394,30.565Z" style="fill:rgb(31,31,31);fill-rule:nonzero;"/>
            <path d="M216.394,46.815C215.808,46.229 214.858,46.229 214.272,46.815L213.629,47.458C213.791,46.881 214.12,46.585 214.394,46.311C214.98,45.725 214.979,44.775 214.394,44.19C214.102,43.898 213.72,43.751 213.337,43.75C212.955,43.751 212.564,43.898 212.272,44.19C211.687,44.775 211.687,45.725 212.272,46.311C212.546,46.585 212.876,46.881 213.038,47.458L212.394,46.815C211.808,46.229 210.858,46.229 210.272,46.815C209.687,47.401 209.687,48.351 210.272,48.936C210.858,49.522 211.808,49.522 212.394,48.936L213.135,48.195L213.137,48.236C213.151,48.886 213.048,49.911 212.333,50.625L212.333,50.875L214.333,50.875L214.333,50.625C213.623,49.915 213.516,48.897 213.528,48.247L213.532,48.195L214.272,48.936C214.858,49.522 215.808,49.522 216.394,48.936C216.98,48.351 216.98,47.4 216.394,46.815Z" style="fill:rgb(31,31,31);fill-rule:nonzero;"/>
            <path d="M209.394,65.436C208.808,66.022 207.858,66.022 207.272,65.436L206.629,64.792C206.791,65.37 207.12,65.666 207.394,65.94C207.98,66.526 207.979,67.476 207.394,68.061C207.102,68.353 206.72,68.499 206.337,68.5C205.955,68.499 205.564,68.353 205.272,68.061C204.687,67.476 204.687,66.526 205.272,65.94C205.546,65.666 205.876,65.37 206.038,64.792L205.394,65.436C204.808,66.022 203.858,66.022 203.272,65.436C202.687,64.85 202.687,63.9 203.272,63.315C203.858,62.729 204.808,62.729 205.394,63.315L206.135,64.056L206.137,64.015C206.151,63.365 206.048,62.34 205.333,61.625L205.333,61.375L207.333,61.375L207.333,61.625C206.623,62.336 206.516,63.353 206.528,64.004L206.532,64.056L207.272,63.315C207.858,62.729 208.808,62.729 209.394,63.315C209.98,63.9 209.98,64.851 209.394,65.436Z" style="fill:rgb(31,31,31);fill-rule:nonzero;"/>
            <path d="M223.394,65.436C222.808,66.022 221.858,66.022 221.272,65.436L220.629,64.792C220.791,65.37 221.12,65.666 221.394,65.94C221.98,66.526 221.979,67.476 221.394,68.061C221.102,68.353 220.72,68.499 220.337,68.5C219.955,68.499 219.564,68.353 219.272,68.061C218.687,67.476 218.687,66.526 219.272,65.94C219.546,65.666 219.876,65.37 220.038,64.792L219.394,65.436C218.808,66.022 217.858,66.022 217.272,65.436C216.687,64.85 216.687,63.9 217.272,63.315C217.858,62.729 218.808,62.729 219.394,63.315L220.135,64.056L220.137,64.015C220.151,63.365 220.048,62.34 219.333,61.625L219.333,61.375L221.333,61.375L221.333,61.625C220.623,62.336 220.516,63.353 220.528,64.004L220.532,64.056L221.272,63.315C221.858,62.729 222.808,62.729 223.394,63.315C223.98,63.9 223.98,64.851 223.394,65.436Z" style="fill:rgb(31,31,31);fill-rule:nonzero;"/>
        </g>
    </g>
</svg>
