<?xml version="1.0" encoding="UTF-8" standalone="no"?>
<!DOCTYPE svg PUBLIC "-//W3C//DTD SVG 1.1//EN" "http://www.w3.org/Graphics/SVG/1.1/DTD/svg11.dtd">
<svg width="100%" height="100%" viewBox="0 0 41 56" version="1.1" xmlns="http://www.w3.org/2000/svg" xmlns:xlink="http://www.w3.org/1999/xlink" xml:space="preserve" xmlns:serif="http://www.serif.com/" style="fill-rule:evenodd;clip-rule:evenodd;stroke-linejoin:round;stroke-miterlimit:2;">
    <g transform="matrix(1,0,0,1,-193,-200)">
        <g>
            <path d="M230.833,256L195.833,256C194.453,256 193.333,254.881 193.333,253.5L193.333,202.5C193.333,201.119 194.453,200 195.833,200L230.833,200C232.214,200 233.333,201.119 233.333,202.5L233.333,253.5C233.333,254.881 232.214,256 230.833,256Z" style="fill:white;fill-rule:nonzero;"/>
            <path d="M230.833,256L195.833,256C194.453,256 193.333,254.881 193.333,253.5L193.333,202.5C193.333,201.119 194.453,200 195.833,200L230.833,200C232.214,200 233.333,201.119 233.333,202.5L233.333,253.5C233.333,254.881 232.214,256 230.833,256ZM230.833,255.8L195.833,255.8C194.563,255.8 193.533,254.771 193.533,253.5L193.533,202.5C193.533,201.229 194.563,200.2 195.833,200.2L230.833,200.2C232.104,200.2 233.133,201.229 233.133,202.5L233.133,253.5C233.133,254.771 232.104,255.8 230.833,255.8Z" style="fill:rgb(204,204,204);"/>
            <path d="M199.333,213.375C198.883,212.673 198.286,212.075 197.583,211.625C198.286,211.175 198.883,210.577 199.333,209.875C199.783,210.577 200.381,211.175 201.083,211.625C200.381,212.075 199.783,212.673 199.333,213.375Z" style="fill:rgb(201,49,18);fill-rule:nonzero;"/>
            <path d="M227.333,241.875C227.783,242.577 228.381,243.175 229.083,243.625C228.381,244.075 227.783,244.673 227.333,245.375C226.883,244.673 226.286,244.075 225.583,243.625C226.286,243.175 226.883,242.577 227.333,241.875Z" style="fill:rgb(201,49,18);fill-rule:nonzero;"/>
            <path d="M198.072,207.38C198.191,207.475 198.328,207.555 198.482,207.62C198.638,207.685 198.805,207.718 198.983,207.718C199.247,207.718 199.463,207.641 199.632,207.486C199.8,207.332 199.885,207.118 199.885,206.842C199.885,206.6 199.815,206.403 199.677,206.251C199.538,206.1 199.343,206.024 199.091,206.024C198.98,206.024 198.869,206.041 198.756,206.074C198.644,206.107 198.53,206.154 198.416,206.214L198.142,206.027L198.273,204.119L200.525,204.119L200.455,204.701L198.75,204.701L198.64,205.774C198.762,205.681 198.893,205.618 199.032,205.585C199.172,205.552 199.309,205.536 199.443,205.536C199.838,205.536 200.152,205.647 200.384,205.871C200.615,206.093 200.731,206.392 200.731,206.767C200.731,206.982 200.692,207.179 200.614,207.357C200.535,207.536 200.426,207.687 200.288,207.813C200.149,207.938 199.983,208.034 199.79,208.103C199.597,208.172 199.387,208.207 199.161,208.207C198.879,208.207 198.625,208.156 198.398,208.055C198.171,207.955 197.993,207.826 197.863,207.671L198.072,207.38Z" style="fill:rgb(201,49,18);fill-rule:nonzero;"/>
            <path d="M228.594,247.869C228.475,247.775 228.338,247.695 228.184,247.63C228.028,247.564 227.861,247.532 227.683,247.532C227.419,247.532 227.203,247.609 227.034,247.764C226.866,247.918 226.781,248.133 226.781,248.408C226.781,248.65 226.851,248.848 226.989,248.998C227.128,249.15 227.323,249.226 227.575,249.226C227.686,249.226 227.797,249.209 227.91,249.176C228.022,249.143 228.136,249.096 228.25,249.036L228.524,249.223L228.393,251.131L226.141,251.131L226.211,250.549L227.916,250.549L228.026,249.476C227.904,249.568 227.773,249.632 227.634,249.664C227.494,249.697 227.357,249.714 227.223,249.714C226.828,249.714 226.514,249.603 226.282,249.379C226.051,249.156 225.935,248.857 225.935,248.483C225.935,248.268 225.974,248.071 226.052,247.893C226.131,247.715 226.24,247.563 226.378,247.438C226.517,247.313 226.683,247.216 226.876,247.146C227.069,247.078 227.279,247.043 227.505,247.043C227.787,247.043 228.041,247.094 228.268,247.195C228.495,247.295 228.673,247.424 228.803,247.578L228.594,247.869Z" style="fill:rgb(201,49,18);fill-rule:nonzero;"/>
            <path d="M206.333,214.625C205.433,213.221 204.238,212.025 202.833,211.125C204.238,210.225 205.433,209.029 206.333,207.625C207.233,209.029 208.429,210.225 209.833,211.125C208.429,212.025 207.233,213.221 206.333,214.625Z" style="fill:rgb(201,49,18);fill-rule:nonzero;"/>
            <path d="M220.333,214.625C219.433,213.221 218.238,212.025 216.833,211.125C218.238,210.225 219.433,209.029 220.333,207.625C221.233,209.029 222.429,210.225 223.833,211.125C222.429,212.025 221.233,213.221 220.333,214.625Z" style="fill:rgb(201,49,18);fill-rule:nonzero;"/>
            <path d="M213.333,230.875C212.433,229.471 211.238,228.275 209.833,227.375C211.238,226.475 212.433,225.279 213.333,223.875C214.233,225.279 215.429,226.475 216.833,227.375C215.429,228.275 214.233,229.471 213.333,230.875Z" style="fill:rgb(201,49,18);fill-rule:nonzero;"/>
            <path d="M209.833,244.125C208.429,245.025 207.233,246.221 206.333,247.625C205.433,246.221 204.238,245.025 202.833,244.125C204.238,243.225 205.433,242.029 206.333,240.625C207.233,242.029 208.429,243.225 209.833,244.125Z" style="fill:rgb(201,49,18);fill-rule:nonzero;"/>
            <path d="M223.833,244.125C222.429,245.025 221.233,246.221 220.333,247.625C219.433,246.221 218.238,245.025 216.833,244.125C218.238,243.225 219.433,242.029 220.333,240.625C221.233,242.029 222.429,243.225 223.833,244.125Z" style="fill:rgb(201,49,18);fill-rule:nonzero;"/>
        </g>
    </g>
</svg>
