<?xml version="1.0" encoding="UTF-8" standalone="no"?>
<!DOCTYPE svg PUBLIC "-//W3C//DTD SVG 1.1//EN" "http://www.w3.org/Graphics/SVG/1.1/DTD/svg11.dtd">
<svg width="100%" height="100%" viewBox="0 0 41 56" version="1.1" xmlns="http://www.w3.org/2000/svg" xmlns:xlink="http://www.w3.org/1999/xlink" xml:space="preserve" xmlns:serif="http://www.serif.com/" style="fill-rule:evenodd;clip-rule:evenodd;stroke-linejoin:round;stroke-miterlimit:2;">
    <g transform="matrix(1,0,0,1,-193,-80)">
        <g>
            <path d="M230.833,136L195.833,136C194.453,136 193.333,134.881 193.333,133.5L193.333,82.5C193.333,81.12 194.453,80 195.833,80L230.833,80C232.214,80 233.333,81.12 233.333,82.5L233.333,133.5C233.333,134.881 232.214,136 230.833,136Z" style="fill:white;fill-rule:nonzero;"/>
            <path d="M200.146,90.5C199.796,90.5 199.495,90.694 199.333,90.978C199.172,90.694 198.871,90.5 198.521,90.5C198.003,90.5 197.583,90.92 197.583,91.438C197.583,92.473 199.058,93.029 199.333,93.688C199.609,93.029 201.083,92.473 201.083,91.438C201.083,90.92 200.664,90.5 200.146,90.5Z" style="fill:rgb(201,49,18);fill-rule:nonzero;"/>
            <path d="M226.521,125.25C226.871,125.25 227.172,125.056 227.333,124.772C227.495,125.056 227.796,125.25 228.146,125.25C228.664,125.25 229.083,124.83 229.083,124.313C229.083,123.277 227.609,122.722 227.333,122.063C227.058,122.722 225.583,123.277 225.583,124.313C225.583,124.83 226.003,125.25 226.521,125.25Z" style="fill:rgb(201,49,18);fill-rule:nonzero;"/>
            <path d="M198.072,87.631C198.191,87.726 198.328,87.806 198.482,87.871C198.638,87.936 198.805,87.968 198.983,87.968C199.247,87.968 199.463,87.891 199.632,87.737C199.8,87.582 199.885,87.368 199.885,87.093C199.885,86.85 199.815,86.653 199.677,86.502C199.538,86.351 199.343,86.275 199.091,86.275C198.98,86.275 198.869,86.291 198.756,86.325C198.644,86.357 198.53,86.404 198.416,86.464L198.142,86.278L198.273,84.37L200.525,84.37L200.455,84.952L198.75,84.952L198.64,86.025C198.762,85.932 198.893,85.869 199.032,85.836C199.172,85.803 199.309,85.787 199.443,85.787C199.838,85.787 200.152,85.898 200.384,86.121C200.615,86.344 200.731,86.643 200.731,87.017C200.731,87.232 200.692,87.429 200.614,87.607C200.535,87.786 200.426,87.937 200.288,88.063C200.149,88.188 199.983,88.285 199.79,88.353C199.597,88.422 199.387,88.457 199.161,88.457C198.879,88.457 198.625,88.406 198.398,88.306C198.171,88.205 197.993,88.077 197.863,87.922L198.072,87.631Z" style="fill:rgb(201,49,18);fill-rule:nonzero;"/>
            <path d="M228.594,128.12C228.475,128.025 228.338,127.945 228.184,127.88C228.028,127.815 227.861,127.782 227.683,127.782C227.419,127.782 227.203,127.859 227.034,128.014C226.866,128.168 226.781,128.382 226.781,128.658C226.781,128.9 226.851,129.097 226.989,129.249C227.128,129.4 227.323,129.476 227.575,129.476C227.686,129.476 227.797,129.459 227.91,129.426C228.022,129.393 228.136,129.346 228.25,129.286L228.524,129.473L228.393,131.381L226.141,131.381L226.211,130.799L227.916,130.799L228.026,129.726C227.904,129.819 227.773,129.882 227.634,129.915C227.494,129.948 227.357,129.964 227.223,129.964C226.828,129.964 226.514,129.853 226.282,129.629C226.051,129.407 225.935,129.108 225.935,128.733C225.935,128.518 225.974,128.321 226.052,128.143C226.131,127.964 226.24,127.813 226.378,127.688C226.517,127.563 226.683,127.466 226.876,127.397C227.069,127.328 227.279,127.293 227.505,127.293C227.787,127.293 228.041,127.344 228.268,127.445C228.495,127.545 228.673,127.674 228.803,127.829L228.594,128.12Z" style="fill:rgb(201,49,18);fill-rule:nonzero;"/>
            <path d="M207.958,88.625C207.259,88.625 206.655,89.013 206.333,89.582C206.011,89.013 205.408,88.625 204.708,88.625C203.673,88.625 202.833,89.465 202.833,90.5C202.833,92.571 205.782,93.682 206.333,95C206.884,93.682 209.833,92.571 209.833,90.5C209.833,89.465 208.994,88.625 207.958,88.625Z" style="fill:rgb(201,49,18);fill-rule:nonzero;"/>
            <path d="M221.958,88.625C221.259,88.625 220.655,89.013 220.333,89.582C220.011,89.013 219.408,88.625 218.708,88.625C217.673,88.625 216.833,89.465 216.833,90.5C216.833,92.571 219.782,93.682 220.333,95C220.884,93.682 223.833,92.571 223.833,90.5C223.833,89.465 222.994,88.625 221.958,88.625Z" style="fill:rgb(201,49,18);fill-rule:nonzero;"/>
            <path d="M214.958,104.875C214.259,104.875 213.655,105.263 213.333,105.831C213.011,105.263 212.408,104.875 211.708,104.875C210.673,104.875 209.833,105.714 209.833,106.75C209.833,108.82 212.782,109.932 213.333,111.25C213.884,109.932 216.833,108.82 216.833,106.75C216.833,105.714 215.994,104.875 214.958,104.875Z" style="fill:rgb(201,49,18);fill-rule:nonzero;"/>
            <path d="M207.958,127.125C207.259,127.125 206.655,126.737 206.333,126.169C206.011,126.737 205.408,127.125 204.708,127.125C203.673,127.125 202.833,126.286 202.833,125.25C202.833,123.18 205.782,122.068 206.333,120.75C206.884,122.068 209.833,123.18 209.833,125.25C209.833,126.286 208.994,127.125 207.958,127.125Z" style="fill:rgb(201,49,18);fill-rule:nonzero;"/>
            <path d="M221.958,127.125C221.259,127.125 220.655,126.737 220.333,126.169C220.011,126.737 219.408,127.125 218.708,127.125C217.673,127.125 216.833,126.286 216.833,125.25C216.833,123.18 219.782,122.068 220.333,120.75C220.884,122.068 223.833,123.18 223.833,125.25C223.833,126.286 222.994,127.125 221.958,127.125Z" style="fill:rgb(201,49,18);fill-rule:nonzero;"/>
        </g>
    </g>
</svg>
