<?xml version="1.0" encoding="UTF-8" standalone="no"?>
<!DOCTYPE svg PUBLIC "-//W3C//DTD SVG 1.1//EN" "http://www.w3.org/Graphics/SVG/1.1/DTD/svg11.dtd">
<svg width="100%" height="100%" viewBox="0 0 41 56" version="1.1" xmlns="http://www.w3.org/2000/svg" xmlns:xlink="http://www.w3.org/1999/xlink" xml:space="preserve" xmlns:serif="http://www.serif.com/" style="fill-rule:evenodd;clip-rule:evenodd;stroke-linejoin:round;stroke-miterlimit:2;">
    <g transform="matrix(1,0,0,1,-193,-140)">
        <g>
            <path d="M230.833,196L195.833,196C194.453,196 193.333,194.881 193.333,193.5L193.333,142.5C193.333,141.119 194.453,140 195.833,140L230.833,140C232.214,140 233.333,141.119 233.333,142.5L233.333,193.5C233.333,194.881 232.214,196 230.833,196Z" style="fill:white;fill-rule:nonzero;"/>
            <path d="M199.333,149.688C199.062,150.376 197.708,150.629 197.708,151.688C197.708,152.171 198.1,152.563 198.583,152.563C198.837,152.563 199.064,152.452 199.225,152.278C199.195,152.574 199.098,152.923 198.833,153.188L198.833,153.313L199.833,153.313L199.833,153.188C199.569,152.923 199.472,152.574 199.441,152.279C199.602,152.452 199.829,152.563 200.083,152.563C200.566,152.563 200.958,152.171 200.958,151.688C200.958,150.629 199.604,150.376 199.333,149.688Z" style="fill:rgb(31,31,31);fill-rule:nonzero;"/>
            <path d="M227.334,185.813C227.604,185.124 228.959,184.871 228.959,183.813C228.959,183.329 228.567,182.938 228.084,182.938C227.829,182.938 227.602,183.048 227.442,183.222C227.472,182.926 227.569,182.577 227.833,182.313L227.833,182.188L226.833,182.188L226.833,182.313C227.097,182.577 227.195,182.926 227.225,183.221C227.065,183.048 226.838,182.938 226.584,182.938C226.101,182.938 225.709,183.329 225.709,183.813C225.709,184.871 227.063,185.124 227.334,185.813Z" style="fill:rgb(31,31,31);fill-rule:nonzero;"/>
            <path d="M198.072,147.505C198.191,147.6 198.328,147.68 198.482,147.745C198.638,147.81 198.805,147.843 198.983,147.843C199.247,147.843 199.463,147.766 199.632,147.611C199.8,147.457 199.885,147.243 199.885,146.967C199.885,146.725 199.815,146.528 199.677,146.376C199.538,146.225 199.343,146.149 199.091,146.149C198.98,146.149 198.869,146.166 198.756,146.199C198.644,146.232 198.53,146.279 198.416,146.339L198.142,146.152L198.273,144.244L200.525,144.244L200.455,144.826L198.75,144.826L198.64,145.899C198.762,145.806 198.893,145.743 199.032,145.71C199.172,145.677 199.309,145.661 199.443,145.661C199.838,145.661 200.152,145.772 200.384,145.996C200.615,146.218 200.731,146.517 200.731,146.892C200.731,147.107 200.692,147.304 200.614,147.482C200.535,147.661 200.426,147.812 200.288,147.938C200.149,148.063 199.983,148.159 199.79,148.228C199.597,148.297 199.387,148.332 199.161,148.332C198.879,148.332 198.625,148.281 198.398,148.18C198.171,148.08 197.993,147.951 197.863,147.796L198.072,147.505Z" style="fill:rgb(31,31,31);fill-rule:nonzero;"/>
            <path d="M228.594,187.995C228.475,187.9 228.338,187.82 228.184,187.755C228.028,187.69 227.861,187.657 227.683,187.657C227.419,187.657 227.203,187.734 227.034,187.889C226.866,188.043 226.781,188.257 226.781,188.533C226.781,188.775 226.851,188.972 226.989,189.124C227.128,189.275 227.323,189.351 227.575,189.351C227.686,189.351 227.797,189.334 227.91,189.301C228.022,189.268 228.136,189.221 228.25,189.161L228.524,189.348L228.393,191.256L226.141,191.256L226.211,190.674L227.916,190.674L228.026,189.601C227.904,189.694 227.773,189.757 227.634,189.79C227.494,189.823 227.357,189.839 227.223,189.839C226.828,189.839 226.514,189.728 226.282,189.504C226.051,189.282 225.935,188.983 225.935,188.608C225.935,188.393 225.974,188.196 226.052,188.018C226.131,187.839 226.24,187.688 226.378,187.563C226.517,187.438 226.683,187.341 226.876,187.272C227.069,187.203 227.279,187.168 227.505,187.168C227.787,187.168 228.041,187.219 228.268,187.32C228.495,187.42 228.673,187.549 228.803,187.704L228.594,187.995Z" style="fill:rgb(31,31,31);fill-rule:nonzero;"/>
            <path d="M206.333,147.125C205.791,148.503 203.083,149.007 203.083,151.125C203.083,152.091 203.866,152.875 204.833,152.875C205.342,152.875 205.796,152.654 206.116,152.307C206.056,152.897 205.862,153.597 205.333,154.125L205.333,154.375L207.333,154.375L207.333,154.125C206.805,153.597 206.61,152.899 206.55,152.308C206.87,152.654 207.324,152.875 207.833,152.875C208.799,152.875 209.583,152.091 209.583,151.125C209.583,149.007 206.874,148.503 206.333,147.125Z" style="fill:rgb(31,31,31);fill-rule:nonzero;"/>
            <path d="M220.333,147.125C219.791,148.503 217.083,149.007 217.083,151.125C217.083,152.091 217.866,152.875 218.833,152.875C219.342,152.875 219.796,152.654 220.116,152.307C220.056,152.897 219.862,153.597 219.333,154.125L219.333,154.375L221.333,154.375L221.333,154.125C220.805,153.597 220.61,152.899 220.55,152.308C220.87,152.654 221.324,152.875 221.833,152.875C222.799,152.875 223.583,152.091 223.583,151.125C223.583,149.007 220.874,148.503 220.333,147.125Z" style="fill:rgb(31,31,31);fill-rule:nonzero;"/>
            <path d="M213.333,163.375C212.791,164.753 210.083,165.257 210.083,167.375C210.083,168.341 210.866,169.125 211.833,169.125C212.342,169.125 212.796,168.904 213.116,168.557C213.056,169.147 212.862,169.847 212.333,170.375L212.333,170.625L214.333,170.625L214.333,170.375C213.805,169.847 213.61,169.149 213.55,168.558C213.87,168.904 214.324,169.125 214.833,169.125C215.799,169.125 216.583,168.341 216.583,167.375C216.583,165.257 213.874,164.753 213.333,163.375Z" style="fill:rgb(31,31,31);fill-rule:nonzero;"/>
            <path d="M206.333,188.375C205.791,186.997 203.083,186.493 203.083,184.375C203.083,183.409 203.866,182.625 204.833,182.625C205.342,182.625 205.796,182.846 206.116,183.193C206.056,182.603 205.862,181.903 205.333,181.375L205.333,181.125L207.333,181.125L207.333,181.375C206.805,181.903 206.61,182.601 206.55,183.192C206.87,182.846 207.324,182.625 207.833,182.625C208.799,182.625 209.583,183.409 209.583,184.375C209.583,186.493 206.874,186.997 206.333,188.375Z" style="fill:rgb(31,31,31);fill-rule:nonzero;"/>
            <path d="M220.333,188.375C219.791,186.997 217.083,186.493 217.083,184.375C217.083,183.409 217.866,182.625 218.833,182.625C219.342,182.625 219.796,182.846 220.116,183.193C220.056,182.603 219.862,181.903 219.333,181.375L219.333,181.125L221.333,181.125L221.333,181.375C220.805,181.903 220.61,182.601 220.55,183.192C220.87,182.846 221.324,182.625 221.833,182.625C222.799,182.625 223.583,183.409 223.583,184.375C223.583,186.493 220.874,186.997 220.333,188.375Z" style="fill:rgb(31,31,31);fill-rule:nonzero;"/>
        </g>
    </g>
</svg>
