<?xml version="1.0" encoding="UTF-8" standalone="no"?>
<!DOCTYPE svg PUBLIC "-//W3C//DTD SVG 1.1//EN" "http://www.w3.org/Graphics/SVG/1.1/DTD/svg11.dtd">
<svg width="100%" height="100%" viewBox="0 0 41 56" version="1.1" xmlns="http://www.w3.org/2000/svg" xmlns:xlink="http://www.w3.org/1999/xlink" xml:space="preserve" xmlns:serif="http://www.serif.com/" style="fill-rule:evenodd;clip-rule:evenodd;stroke-linejoin:round;stroke-miterlimit:2;">
    <g transform="matrix(1,0,0,1,-236,-20)">
        <g>
            <path d="M274.167,76L239.167,76C237.786,76 236.667,74.881 236.667,73.5L236.667,22.5C236.667,21.12 237.786,20 239.167,20L274.167,20C275.547,20 276.667,21.12 276.667,22.5L276.667,73.5C276.667,74.881 275.547,76 274.167,76Z" style="fill:white;fill-rule:nonzero;"/>
            <path d="M274.167,76L239.167,76C237.786,76 236.667,74.881 236.667,73.5L236.667,22.5C236.667,21.12 237.786,20 239.167,20L274.167,20C275.547,20 276.667,21.12 276.667,22.5L276.667,73.5C276.667,74.881 275.547,76 274.167,76ZM274.167,75.8L239.167,75.8C237.896,75.8 236.867,74.771 236.867,73.5L236.867,22.5C236.867,21.23 237.896,20.2 239.167,20.2L274.167,20.2C275.437,20.2 276.467,21.23 276.467,22.5L276.467,73.5C276.467,74.771 275.437,75.8 274.167,75.8Z" style="fill:rgb(204,204,204);"/>
            <path d="M244.197,31.533C243.904,31.24 243.429,31.24 243.136,31.533L242.814,31.854C242.895,31.566 243.06,31.418 243.197,31.281C243.49,30.988 243.49,30.513 243.197,30.22C243.051,30.074 242.86,30.001 242.668,30C242.477,30.001 242.282,30.074 242.136,30.22C241.843,30.513 241.843,30.988 242.136,31.281C242.273,31.418 242.438,31.566 242.519,31.854L242.197,31.533C241.904,31.24 241.429,31.24 241.136,31.533C240.843,31.826 240.843,32.3 241.136,32.593C241.429,32.886 241.904,32.886 242.197,32.593L242.567,32.223L242.568,32.244C242.575,32.568 242.524,33.081 242.167,33.438L242.167,33.563L243.167,33.563L243.167,33.438C242.812,33.082 242.758,32.574 242.764,32.249L242.766,32.223L243.136,32.593C243.429,32.886 243.904,32.886 244.197,32.593C244.49,32.3 244.49,31.826 244.197,31.533Z" style="fill:rgb(31,31,31);fill-rule:nonzero;"/>
            <path d="M269.136,64.468C269.429,64.761 269.904,64.761 270.197,64.468L270.519,64.146C270.438,64.435 270.273,64.583 270.136,64.72C269.843,65.013 269.843,65.488 270.136,65.781C270.282,65.927 270.474,66 270.665,66C270.856,66 271.051,65.927 271.197,65.781C271.49,65.488 271.49,65.013 271.197,64.72C271.06,64.583 270.895,64.435 270.814,64.146L271.136,64.468C271.429,64.761 271.904,64.761 272.197,64.468C272.49,64.175 272.49,63.701 272.197,63.408C271.904,63.115 271.429,63.115 271.136,63.408L270.766,63.778L270.765,63.757C270.758,63.433 270.81,62.92 271.167,62.563L271.167,62.438L270.167,62.438L270.167,62.563C270.522,62.918 270.575,63.427 270.569,63.752L270.567,63.778L270.197,63.408C269.904,63.115 269.429,63.115 269.136,63.408C268.843,63.701 268.843,64.175 269.136,64.468Z" style="fill:rgb(31,31,31);fill-rule:nonzero;"/>
            <path d="M242.761,28.195C242.975,28.195 243.139,28.11 243.256,27.939C243.372,27.769 243.43,27.547 243.43,27.276C243.43,26.993 243.365,26.771 243.234,26.611C243.103,26.451 242.928,26.371 242.709,26.371C242.598,26.371 242.475,26.389 242.339,26.425C242.204,26.461 242.088,26.515 241.993,26.586L241.993,26.851C241.993,27.053 242.01,27.237 242.042,27.404C242.076,27.571 242.125,27.712 242.189,27.829C242.254,27.945 242.335,28.035 242.431,28.099C242.527,28.163 242.637,28.195 242.761,28.195ZM244.213,27.145C244.213,27.351 244.178,27.541 244.108,27.716C244.038,27.892 243.939,28.044 243.81,28.172C243.681,28.3 243.524,28.4 243.338,28.473C243.153,28.545 242.946,28.582 242.717,28.582C242.483,28.582 242.269,28.541 242.076,28.46C241.883,28.378 241.72,28.26 241.586,28.105C241.452,27.95 241.348,27.757 241.274,27.526C241.201,27.295 241.164,27.031 241.164,26.735C241.164,26.395 241.211,26.082 241.305,25.796C241.399,25.51 241.531,25.266 241.701,25.062C241.871,24.858 242.076,24.7 242.316,24.586C242.557,24.473 242.821,24.416 243.11,24.416C243.275,24.416 243.434,24.435 243.587,24.471C243.741,24.508 243.876,24.563 243.995,24.637L243.875,24.983C243.772,24.943 243.673,24.913 243.577,24.894C243.481,24.876 243.392,24.867 243.308,24.867C242.951,24.867 242.659,24.994 242.433,25.247C242.206,25.5 242.066,25.839 242.014,26.263C242.122,26.147 242.266,26.057 242.445,25.994C242.625,25.931 242.811,25.9 243.002,25.9C243.189,25.9 243.356,25.931 243.506,25.993C243.655,26.055 243.782,26.141 243.887,26.25C243.992,26.36 244.072,26.491 244.128,26.644C244.185,26.798 244.213,26.964 244.213,27.145Z" style="fill:rgb(31,31,31);fill-rule:nonzero;"/>
            <path d="M270.571,67.806C270.357,67.806 270.193,67.891 270.076,68.062C269.96,68.232 269.902,68.454 269.902,68.725C269.902,69.008 269.967,69.23 270.098,69.39C270.229,69.55 270.404,69.63 270.623,69.63C270.734,69.63 270.857,69.612 270.993,69.576C271.128,69.54 271.244,69.486 271.339,69.415L271.339,69.15C271.339,68.948 271.322,68.764 271.29,68.597C271.256,68.43 271.208,68.289 271.143,68.172C271.078,68.056 270.997,67.966 270.901,67.902C270.805,67.838 270.695,67.806 270.571,67.806ZM269.119,68.856C269.119,68.65 269.154,68.46 269.224,68.285C269.294,68.109 269.393,67.957 269.522,67.829C269.651,67.701 269.808,67.601 269.994,67.528C270.179,67.456 270.386,67.419 270.615,67.419C270.849,67.419 271.063,67.46 271.256,67.541C271.449,67.623 271.612,67.741 271.746,67.896C271.88,68.051 271.984,68.244 272.058,68.475C272.131,68.706 272.168,68.97 272.168,69.266C272.168,69.605 272.121,69.918 272.027,70.205C271.933,70.491 271.801,70.735 271.631,70.939C271.461,71.143 271.256,71.301 271.016,71.415C270.775,71.528 270.511,71.585 270.222,71.585C270.057,71.585 269.898,71.566 269.745,71.53C269.591,71.493 269.456,71.437 269.337,71.364L269.457,71.018C269.56,71.058 269.659,71.088 269.755,71.106C269.851,71.124 269.94,71.134 270.024,71.134C270.381,71.134 270.673,71.007 270.899,70.754C271.126,70.501 271.266,70.162 271.318,69.738C271.21,69.854 271.066,69.944 270.887,70.007C270.707,70.07 270.521,70.101 270.33,70.101C270.143,70.101 269.976,70.07 269.826,70.008C269.677,69.946 269.55,69.86 269.445,69.75C269.34,69.641 269.26,69.51 269.204,69.356C269.147,69.203 269.119,69.037 269.119,68.856Z" style="fill:rgb(31,31,31);fill-rule:nonzero;"/>
            <path d="M252.728,30.565C252.142,29.979 251.192,29.979 250.606,30.565L249.962,31.208C250.124,30.631 250.454,30.335 250.728,30.061C251.313,29.475 251.313,28.525 250.728,27.94C250.436,27.648 250.053,27.501 249.67,27.5C249.288,27.501 248.898,27.648 248.606,27.94C248.021,28.525 248.02,29.475 248.606,30.061C248.88,30.335 249.209,30.631 249.371,31.208L248.728,30.565C248.142,29.979 247.192,29.979 246.606,30.565C246.02,31.151 246.021,32.101 246.606,32.686C247.192,33.272 248.142,33.272 248.728,32.686L249.468,31.945L249.471,31.986C249.484,32.636 249.381,33.661 248.667,34.375L248.667,34.625L250.667,34.625L250.667,34.375C249.956,33.665 249.85,32.647 249.861,31.997L249.865,31.945L250.606,32.686C251.192,33.272 252.142,33.272 252.728,32.686C253.313,32.101 253.313,31.15 252.728,30.565Z" style="fill:rgb(31,31,31);fill-rule:nonzero;"/>
            <path d="M266.728,30.565C266.142,29.979 265.192,29.979 264.606,30.565L263.962,31.208C264.124,30.631 264.454,30.335 264.728,30.061C265.313,29.475 265.313,28.525 264.728,27.94C264.436,27.648 264.053,27.501 263.67,27.5C263.288,27.501 262.898,27.648 262.606,27.94C262.021,28.525 262.019,29.475 262.606,30.061C262.88,30.335 263.209,30.631 263.371,31.208L262.728,30.565C262.142,29.979 261.191,29.979 260.605,30.565C260.019,31.151 260.021,32.101 260.605,32.686C261.191,33.272 262.142,33.272 262.728,32.686L263.468,31.945L263.471,31.986C263.484,32.636 263.381,33.661 262.667,34.375L262.667,34.625L264.667,34.625L264.667,34.375C263.956,33.665 263.85,32.647 263.861,31.997L263.865,31.945L264.606,32.686C265.192,33.272 266.142,33.272 266.728,32.686C267.313,32.101 267.313,31.15 266.728,30.565Z" style="fill:rgb(31,31,31);fill-rule:nonzero;"/>
            <path d="M266.728,46.815C266.142,46.229 265.192,46.229 264.606,46.815L263.962,47.458C264.124,46.881 264.454,46.585 264.728,46.311C265.313,45.725 265.313,44.775 264.728,44.19C264.436,43.898 264.053,43.751 263.67,43.75C263.288,43.751 262.898,43.898 262.606,44.19C262.021,44.775 262.019,45.725 262.606,46.311C262.88,46.585 263.209,46.881 263.371,47.458L262.728,46.815C262.142,46.229 261.191,46.229 260.605,46.815C260.019,47.401 260.021,48.351 260.605,48.936C261.191,49.522 262.142,49.522 262.728,48.936L263.468,48.195L263.471,48.236C263.484,48.886 263.381,49.911 262.667,50.625L262.667,50.875L264.667,50.875L264.667,50.625C263.956,49.915 263.85,48.897 263.861,48.247L263.865,48.195L264.606,48.936C265.192,49.522 266.142,49.522 266.728,48.936C267.313,48.351 267.313,47.4 266.728,46.815Z" style="fill:rgb(31,31,31);fill-rule:nonzero;"/>
            <path d="M252.728,46.815C252.142,46.229 251.192,46.229 250.606,46.815L249.962,47.458C250.124,46.881 250.454,46.585 250.728,46.311C251.313,45.725 251.313,44.775 250.728,44.19C250.436,43.898 250.053,43.751 249.67,43.75C249.288,43.751 248.898,43.898 248.606,44.19C248.021,44.775 248.02,45.725 248.606,46.311C248.88,46.585 249.209,46.881 249.371,47.458L248.728,46.815C248.142,46.229 247.192,46.229 246.606,46.815C246.02,47.401 246.021,48.351 246.606,48.936C247.192,49.522 248.142,49.522 248.728,48.936L249.468,48.195L249.471,48.236C249.484,48.886 249.381,49.911 248.667,50.625L248.667,50.875L250.667,50.875L250.667,50.625C249.956,49.915 249.85,48.897 249.861,48.247L249.865,48.195L250.606,48.936C251.192,49.522 252.142,49.522 252.728,48.936C253.313,48.351 253.313,47.4 252.728,46.815Z" style="fill:rgb(31,31,31);fill-rule:nonzero;"/>
            <path d="M252.728,65.436C252.142,66.022 251.192,66.022 250.606,65.436L249.962,64.792C250.124,65.37 250.454,65.666 250.728,65.94C251.313,66.526 251.313,67.476 250.728,68.061C250.436,68.353 250.053,68.499 249.67,68.5C249.288,68.499 248.898,68.353 248.606,68.061C248.021,67.476 248.02,66.526 248.606,65.94C248.88,65.666 249.209,65.37 249.371,64.792L248.728,65.436C248.142,66.022 247.192,66.022 246.606,65.436C246.02,64.85 246.021,63.9 246.606,63.315C247.192,62.729 248.142,62.729 248.728,63.315L249.468,64.056L249.471,64.015C249.484,63.365 249.381,62.34 248.667,61.625L248.667,61.375L250.667,61.375L250.667,61.625C249.956,62.336 249.85,63.353 249.861,64.004L249.865,64.056L250.606,63.315C251.192,62.729 252.142,62.729 252.728,63.315C253.313,63.9 253.313,64.851 252.728,65.436Z" style="fill:rgb(31,31,31);fill-rule:nonzero;"/>
            <path d="M266.728,65.436C266.142,66.022 265.192,66.022 264.606,65.436L263.962,64.792C264.124,65.37 264.454,65.666 264.728,65.94C265.313,66.526 265.313,67.476 264.728,68.061C264.436,68.353 264.053,68.499 263.67,68.5C263.288,68.499 262.898,68.353 262.606,68.061C262.021,67.476 262.019,66.526 262.606,65.94C262.88,65.666 263.209,65.37 263.371,64.792L262.728,65.436C262.142,66.022 261.191,66.022 260.605,65.436C260.019,64.85 260.021,63.9 260.605,63.315C261.191,62.729 262.142,62.729 262.728,63.315L263.468,64.056L263.471,64.015C263.484,63.365 263.381,62.34 262.667,61.625L262.667,61.375L264.667,61.375L264.667,61.625C263.956,62.336 263.85,63.353 263.861,64.004L263.865,64.056L264.606,63.315C265.192,62.729 266.142,62.729 266.728,63.315C267.313,63.9 267.313,64.851 266.728,65.436Z" style="fill:rgb(31,31,31);fill-rule:nonzero;"/>
        </g>
    </g>
</svg>
