<?xml version="1.0" encoding="UTF-8" standalone="no"?>
<!DOCTYPE svg PUBLIC "-//W3C//DTD SVG 1.1//EN" "http://www.w3.org/Graphics/SVG/1.1/DTD/svg11.dtd">
<svg width="100%" height="100%" viewBox="0 0 41 56" version="1.1" xmlns="http://www.w3.org/2000/svg" xmlns:xlink="http://www.w3.org/1999/xlink" xml:space="preserve" xmlns:serif="http://www.serif.com/" style="fill-rule:evenodd;clip-rule:evenodd;stroke-linejoin:round;stroke-miterlimit:2;">
    <g transform="matrix(1,0,0,1,-236,-200)">
        <g>
            <path d="M274.167,256L239.167,256C237.786,256 236.667,254.881 236.667,253.5L236.667,202.5C236.667,201.119 237.786,200 239.167,200L274.167,200C275.547,200 276.667,201.119 276.667,202.5L276.667,253.5C276.667,254.881 275.547,256 274.167,256Z" style="fill:white;fill-rule:nonzero;"/>
            <path d="M242.667,213.375C242.216,212.673 241.619,212.075 240.917,211.625C241.619,211.175 242.216,210.577 242.667,209.875C243.117,210.577 243.714,211.175 244.417,211.625C243.714,212.075 243.117,212.673 242.667,213.375Z" style="fill:rgb(201,49,18);fill-rule:nonzero;"/>
            <path d="M270.667,241.875C271.117,242.577 271.714,243.175 272.417,243.625C271.714,244.075 271.117,244.673 270.667,245.375C270.217,244.673 269.619,244.075 268.917,243.625C269.619,243.175 270.217,242.577 270.667,241.875Z" style="fill:rgb(201,49,18);fill-rule:nonzero;"/>
            <path d="M242.761,207.819C242.975,207.819 243.139,207.734 243.256,207.563C243.372,207.393 243.43,207.172 243.43,206.9C243.43,206.617 243.365,206.396 243.234,206.235C243.103,206.076 242.928,205.996 242.709,205.996C242.598,205.996 242.475,206.014 242.339,206.049C242.204,206.085 242.088,206.139 241.993,206.211L241.993,206.476C241.993,206.677 242.01,206.861 242.042,207.028C242.076,207.195 242.125,207.336 242.189,207.453C242.254,207.569 242.335,207.66 242.431,207.724C242.527,207.788 242.637,207.819 242.761,207.819ZM244.213,206.77C244.213,206.975 244.178,207.166 244.108,207.341C244.038,207.517 243.939,207.668 243.81,207.796C243.681,207.924 243.524,208.024 243.338,208.097C243.153,208.17 242.946,208.207 242.717,208.207C242.483,208.207 242.269,208.166 242.076,208.084C241.883,208.003 241.72,207.885 241.586,207.729C241.452,207.574 241.348,207.381 241.274,207.15C241.201,206.92 241.164,206.656 241.164,206.359C241.164,206.02 241.211,205.707 241.305,205.421C241.399,205.135 241.531,204.89 241.701,204.687C241.871,204.483 242.076,204.324 242.316,204.211C242.557,204.097 242.821,204.041 243.11,204.041C243.275,204.041 243.434,204.059 243.587,204.096C243.741,204.133 243.876,204.188 243.995,204.262L243.875,204.608C243.772,204.567 243.673,204.538 243.577,204.519C243.481,204.501 243.392,204.492 243.308,204.492C242.951,204.492 242.659,204.618 242.433,204.871C242.206,205.125 242.066,205.463 242.014,205.888C242.122,205.771 242.266,205.682 242.445,205.619C242.625,205.556 242.811,205.524 243.002,205.524C243.189,205.524 243.356,205.555 243.506,205.617C243.655,205.68 243.782,205.765 243.887,205.875C243.992,205.984 244.072,206.116 244.128,206.269C244.185,206.422 244.213,206.589 244.213,206.77Z" style="fill:rgb(201,49,18);fill-rule:nonzero;"/>
            <path d="M270.571,247.431C270.357,247.431 270.193,247.516 270.076,247.687C269.96,247.857 269.902,248.078 269.902,248.35C269.902,248.633 269.967,248.854 270.098,249.015C270.229,249.174 270.404,249.254 270.623,249.254C270.734,249.254 270.857,249.236 270.993,249.201C271.128,249.164 271.244,249.111 271.339,249.039L271.339,248.774C271.339,248.572 271.322,248.389 271.29,248.222C271.256,248.055 271.208,247.914 271.143,247.797C271.078,247.681 270.997,247.59 270.901,247.526C270.805,247.463 270.695,247.431 270.571,247.431ZM269.119,248.48C269.119,248.275 269.154,248.084 269.224,247.909C269.294,247.733 269.393,247.582 269.522,247.453C269.651,247.326 269.808,247.226 269.994,247.152C270.179,247.08 270.386,247.043 270.615,247.043C270.849,247.043 271.063,247.084 271.256,247.166C271.449,247.247 271.612,247.365 271.746,247.521C271.88,247.676 271.984,247.869 272.058,248.1C272.131,248.33 272.168,248.594 272.168,248.891C272.168,249.23 272.121,249.543 272.027,249.829C271.933,250.115 271.801,250.359 271.631,250.563C271.461,250.768 271.256,250.926 271.016,251.039C270.775,251.152 270.511,251.209 270.222,251.209C270.057,251.209 269.898,251.191 269.745,251.154C269.591,251.117 269.456,251.063 269.337,250.988L269.457,250.643C269.56,250.683 269.659,250.713 269.755,250.73C269.851,250.749 269.94,250.758 270.024,250.758C270.381,250.758 270.673,250.632 270.899,250.379C271.126,250.125 271.266,249.787 271.318,249.362C271.21,249.479 271.066,249.568 270.887,249.631C270.707,249.694 270.521,249.726 270.33,249.726C270.143,249.726 269.976,249.695 269.826,249.633C269.677,249.57 269.55,249.484 269.445,249.375C269.34,249.266 269.26,249.135 269.204,248.98C269.147,248.828 269.119,248.661 269.119,248.48Z" style="fill:rgb(201,49,18);fill-rule:nonzero;"/>
            <path d="M249.667,214.625C248.767,213.221 247.571,212.025 246.167,211.125C247.571,210.225 248.767,209.029 249.667,207.625C250.567,209.029 251.762,210.225 253.167,211.125C251.762,212.025 250.567,213.221 249.667,214.625Z" style="fill:rgb(201,49,18);fill-rule:nonzero;"/>
            <path d="M263.667,214.625C262.767,213.221 261.571,212.025 260.167,211.125C261.571,210.225 262.767,209.029 263.667,207.625C264.567,209.029 265.762,210.225 267.167,211.125C265.762,212.025 264.567,213.221 263.667,214.625Z" style="fill:rgb(201,49,18);fill-rule:nonzero;"/>
            <path d="M263.667,230.875C262.767,229.471 261.571,228.275 260.167,227.375C261.571,226.475 262.767,225.279 263.667,223.875C264.567,225.279 265.762,226.475 267.167,227.375C265.762,228.275 264.567,229.471 263.667,230.875Z" style="fill:rgb(201,49,18);fill-rule:nonzero;"/>
            <path d="M249.667,230.875C248.767,229.471 247.571,228.275 246.167,227.375C247.571,226.475 248.767,225.279 249.667,223.875C250.567,225.279 251.762,226.475 253.167,227.375C251.762,228.275 250.567,229.471 249.667,230.875Z" style="fill:rgb(201,49,18);fill-rule:nonzero;"/>
            <path d="M253.167,244.125C251.762,245.025 250.567,246.221 249.667,247.625C248.767,246.221 247.571,245.025 246.167,244.125C247.571,243.225 248.767,242.029 249.667,240.625C250.567,242.029 251.762,243.225 253.167,244.125Z" style="fill:rgb(201,49,18);fill-rule:nonzero;"/>
            <path d="M267.167,244.125C265.762,245.025 264.567,246.221 263.667,247.625C262.767,246.221 261.571,245.025 260.167,244.125C261.571,243.225 262.767,242.029 263.667,240.625C264.567,242.029 265.762,243.225 267.167,244.125Z" style="fill:rgb(201,49,18);fill-rule:nonzero;"/>
        </g>
    </g>
</svg>
