<?xml version="1.0" encoding="UTF-8" standalone="no"?>
<!DOCTYPE svg PUBLIC "-//W3C//DTD SVG 1.1//EN" "http://www.w3.org/Graphics/SVG/1.1/DTD/svg11.dtd">
<svg width="100%" height="100%" viewBox="0 0 41 56" version="1.1" xmlns="http://www.w3.org/2000/svg" xmlns:xlink="http://www.w3.org/1999/xlink" xml:space="preserve" xmlns:serif="http://www.serif.com/" style="fill-rule:evenodd;clip-rule:evenodd;stroke-linejoin:round;stroke-miterlimit:2;">
    <g transform="matrix(1,0,0,1,-236,-80)">
        <g>
            <path d="M274.167,136L239.167,136C237.786,136 236.667,134.881 236.667,133.5L236.667,82.5C236.667,81.12 237.786,80 239.167,80L274.167,80C275.547,80 276.667,81.12 276.667,82.5L276.667,133.5C276.667,134.881 275.547,136 274.167,136Z" style="fill:white;fill-rule:nonzero;"/>
            <path d="M274.167,136L239.167,136C237.786,136 236.667,134.881 236.667,133.5L236.667,82.5C236.667,81.12 237.786,80 239.167,80L274.167,80C275.547,80 276.667,81.12 276.667,82.5L276.667,133.5C276.667,134.881 275.547,136 274.167,136ZM274.167,135.8L239.167,135.8C237.896,135.8 236.867,134.771 236.867,133.5L236.867,82.5C236.867,81.23 237.896,80.2 239.167,80.2L274.167,80.2C275.437,80.2 276.467,81.23 276.467,82.5L276.467,133.5C276.467,134.771 275.437,135.8 274.167,135.8Z" style="fill:rgb(204,204,204);"/>
            <path d="M243.479,90.5C243.129,90.5 242.828,90.694 242.667,90.978C242.505,90.694 242.204,90.5 241.854,90.5C241.336,90.5 240.917,90.92 240.917,91.438C240.917,92.473 242.391,93.029 242.667,93.688C242.942,93.029 244.417,92.473 244.417,91.438C244.417,90.92 243.997,90.5 243.479,90.5Z" style="fill:rgb(201,49,18);fill-rule:nonzero;"/>
            <path d="M269.854,125.25C270.204,125.25 270.505,125.056 270.667,124.772C270.828,125.056 271.129,125.25 271.479,125.25C271.997,125.25 272.417,124.83 272.417,124.313C272.417,123.277 270.942,122.722 270.667,122.063C270.391,122.722 268.917,123.277 268.917,124.313C268.917,124.83 269.336,125.25 269.854,125.25Z" style="fill:rgb(201,49,18);fill-rule:nonzero;"/>
            <path d="M242.761,88.07C242.975,88.07 243.139,87.985 243.256,87.814C243.372,87.644 243.43,87.422 243.43,87.151C243.43,86.868 243.365,86.646 243.234,86.486C243.103,86.326 242.928,86.246 242.709,86.246C242.598,86.246 242.475,86.264 242.339,86.3C242.204,86.336 242.088,86.39 241.993,86.461L241.993,86.726C241.993,86.928 242.01,87.112 242.042,87.279C242.076,87.446 242.125,87.587 242.189,87.704C242.254,87.82 242.335,87.91 242.431,87.974C242.527,88.038 242.637,88.07 242.761,88.07ZM244.213,87.02C244.213,87.226 244.178,87.416 244.108,87.591C244.038,87.767 243.939,87.919 243.81,88.047C243.681,88.175 243.524,88.275 243.338,88.348C243.153,88.42 242.946,88.457 242.717,88.457C242.483,88.457 242.269,88.416 242.076,88.335C241.883,88.253 241.72,88.135 241.586,87.98C241.452,87.825 241.348,87.632 241.274,87.401C241.201,87.17 241.164,86.906 241.164,86.61C241.164,86.27 241.211,85.957 241.305,85.671C241.399,85.385 241.531,85.141 241.701,84.937C241.871,84.733 242.076,84.575 242.316,84.461C242.557,84.348 242.821,84.291 243.11,84.291C243.275,84.291 243.434,84.31 243.587,84.346C243.741,84.383 243.876,84.438 243.995,84.512L243.875,84.858C243.772,84.818 243.673,84.788 243.577,84.769C243.481,84.751 243.392,84.742 243.308,84.742C242.951,84.742 242.659,84.869 242.433,85.122C242.206,85.375 242.066,85.714 242.014,86.138C242.122,86.022 242.266,85.932 242.445,85.869C242.625,85.806 242.811,85.775 243.002,85.775C243.189,85.775 243.356,85.806 243.506,85.868C243.655,85.93 243.782,86.016 243.887,86.125C243.992,86.235 244.072,86.366 244.128,86.519C244.185,86.673 244.213,86.839 244.213,87.02Z" style="fill:rgb(201,49,18);fill-rule:nonzero;"/>
            <path d="M270.571,127.681C270.357,127.681 270.193,127.766 270.076,127.937C269.96,128.107 269.902,128.328 269.902,128.6C269.902,128.883 269.967,129.104 270.098,129.265C270.229,129.424 270.404,129.504 270.623,129.504C270.734,129.504 270.857,129.486 270.993,129.451C271.128,129.415 271.244,129.361 271.339,129.289L271.339,129.024C271.339,128.823 271.322,128.639 271.29,128.472C271.256,128.305 271.208,128.164 271.143,128.047C271.078,127.931 270.997,127.84 270.901,127.776C270.805,127.712 270.695,127.681 270.571,127.681ZM269.119,128.73C269.119,128.525 269.154,128.334 269.224,128.159C269.294,127.983 269.393,127.832 269.522,127.704C269.651,127.576 269.808,127.476 269.994,127.403C270.179,127.33 270.386,127.293 270.615,127.293C270.849,127.293 271.063,127.334 271.256,127.416C271.449,127.497 271.612,127.615 271.746,127.771C271.88,127.926 271.984,128.119 272.058,128.35C272.131,128.58 272.168,128.844 272.168,129.141C272.168,129.48 272.121,129.793 272.027,130.079C271.933,130.365 271.801,130.61 271.631,130.813C271.461,131.017 271.256,131.176 271.016,131.289C270.775,131.403 270.511,131.459 270.222,131.459C270.057,131.459 269.898,131.441 269.745,131.404C269.591,131.367 269.456,131.312 269.337,131.238L269.457,130.892C269.56,130.933 269.659,130.962 269.755,130.981C269.851,130.999 269.94,131.008 270.024,131.008C270.381,131.008 270.673,130.882 270.899,130.629C271.126,130.375 271.266,130.037 271.318,129.612C271.21,129.729 271.066,129.818 270.887,129.881C270.707,129.944 270.521,129.976 270.33,129.976C270.143,129.976 269.976,129.945 269.826,129.883C269.677,129.82 269.55,129.735 269.445,129.625C269.34,129.516 269.26,129.384 269.204,129.231C269.147,129.078 269.119,128.911 269.119,128.73Z" style="fill:rgb(201,49,18);fill-rule:nonzero;"/>
            <path d="M251.292,88.625C250.592,88.625 249.989,89.013 249.667,89.582C249.345,89.013 248.741,88.625 248.042,88.625C247.006,88.625 246.167,89.465 246.167,90.5C246.167,92.571 249.116,93.682 249.667,95C250.218,93.682 253.167,92.571 253.167,90.5C253.167,89.465 252.327,88.625 251.292,88.625Z" style="fill:rgb(201,49,18);fill-rule:nonzero;"/>
            <path d="M265.292,88.625C264.592,88.625 263.989,89.013 263.667,89.582C263.345,89.013 262.741,88.625 262.042,88.625C261.006,88.625 260.167,89.465 260.167,90.5C260.167,92.571 263.116,93.682 263.667,95C264.218,93.682 267.167,92.571 267.167,90.5C267.167,89.465 266.327,88.625 265.292,88.625Z" style="fill:rgb(201,49,18);fill-rule:nonzero;"/>
            <path d="M265.292,104.875C264.592,104.875 263.989,105.263 263.667,105.831C263.345,105.263 262.741,104.875 262.042,104.875C261.006,104.875 260.167,105.714 260.167,106.75C260.167,108.82 263.116,109.932 263.667,111.25C264.218,109.932 267.167,108.82 267.167,106.75C267.167,105.714 266.327,104.875 265.292,104.875Z" style="fill:rgb(201,49,18);fill-rule:nonzero;"/>
            <path d="M251.292,104.875C250.592,104.875 249.989,105.263 249.667,105.831C249.345,105.263 248.741,104.875 248.042,104.875C247.006,104.875 246.167,105.714 246.167,106.75C246.167,108.82 249.116,109.932 249.667,111.25C250.218,109.932 253.167,108.82 253.167,106.75C253.167,105.714 252.327,104.875 251.292,104.875Z" style="fill:rgb(201,49,18);fill-rule:nonzero;"/>
            <path d="M251.292,127.125C250.592,127.125 249.989,126.737 249.667,126.169C249.345,126.737 248.741,127.125 248.042,127.125C247.006,127.125 246.167,126.286 246.167,125.25C246.167,123.18 249.116,122.068 249.667,120.75C250.218,122.068 253.167,123.18 253.167,125.25C253.167,126.286 252.327,127.125 251.292,127.125Z" style="fill:rgb(201,49,18);fill-rule:nonzero;"/>
            <path d="M265.292,127.125C264.592,127.125 263.989,126.737 263.667,126.169C263.345,126.737 262.741,127.125 262.042,127.125C261.006,127.125 260.167,126.286 260.167,125.25C260.167,123.18 263.116,122.068 263.667,120.75C264.218,122.068 267.167,123.18 267.167,125.25C267.167,126.286 266.327,127.125 265.292,127.125Z" style="fill:rgb(201,49,18);fill-rule:nonzero;"/>
        </g>
    </g>
</svg>
