<?xml version="1.0" encoding="UTF-8" standalone="no"?>
<!DOCTYPE svg PUBLIC "-//W3C//DTD SVG 1.1//EN" "http://www.w3.org/Graphics/SVG/1.1/DTD/svg11.dtd">
<svg width="100%" height="100%" viewBox="0 0 41 56" version="1.1" xmlns="http://www.w3.org/2000/svg" xmlns:xlink="http://www.w3.org/1999/xlink" xml:space="preserve" xmlns:serif="http://www.serif.com/" style="fill-rule:evenodd;clip-rule:evenodd;stroke-linejoin:round;stroke-miterlimit:2;">
    <g transform="matrix(1,0,0,1,-236,-140)">
        <g>
            <path d="M274.167,196L239.167,196C237.786,196 236.667,194.881 236.667,193.5L236.667,142.5C236.667,141.119 237.786,140 239.167,140L274.167,140C275.547,140 276.667,141.119 276.667,142.5L276.667,193.5C276.667,194.881 275.547,196 274.167,196Z" style="fill:white;fill-rule:nonzero;"/>
            <path d="M274.167,196L239.167,196C237.786,196 236.667,194.881 236.667,193.5L236.667,142.5C236.667,141.119 237.786,140 239.167,140L274.167,140C275.547,140 276.667,141.119 276.667,142.5L276.667,193.5C276.667,194.881 275.547,196 274.167,196ZM274.167,195.8L239.167,195.8C237.896,195.8 236.867,194.771 236.867,193.5L236.867,142.5C236.867,141.229 237.896,140.2 239.167,140.2L274.167,140.2C275.437,140.2 276.467,141.229 276.467,142.5L276.467,193.5C276.467,194.771 275.437,195.8 274.167,195.8Z" style="fill:rgb(204,204,204);"/>
            <path d="M242.666,149.688C242.396,150.376 241.041,150.629 241.041,151.688C241.041,152.171 241.433,152.563 241.916,152.563C242.171,152.563 242.398,152.452 242.558,152.278C242.528,152.574 242.431,152.923 242.167,153.188L242.167,153.313L243.167,153.313L243.167,153.188C242.903,152.923 242.805,152.574 242.775,152.279C242.935,152.452 243.162,152.563 243.416,152.563C243.899,152.563 244.291,152.171 244.291,151.688C244.291,150.629 242.937,150.376 242.666,149.688Z" style="fill:rgb(31,31,31);fill-rule:nonzero;"/>
            <path d="M270.667,185.813C270.938,185.124 272.292,184.871 272.292,183.813C272.292,183.329 271.9,182.938 271.417,182.938C271.163,182.938 270.935,183.048 270.775,183.222C270.805,182.926 270.902,182.577 271.167,182.313L271.167,182.188L270.167,182.188L270.167,182.313C270.431,182.577 270.528,182.926 270.558,183.221C270.398,183.048 270.171,182.938 269.917,182.938C269.434,182.938 269.042,183.329 269.042,183.813C269.042,184.871 270.396,185.124 270.667,185.813Z" style="fill:rgb(31,31,31);fill-rule:nonzero;"/>
            <path d="M242.761,147.944C242.975,147.944 243.139,147.859 243.256,147.688C243.372,147.518 243.43,147.297 243.43,147.025C243.43,146.742 243.365,146.521 243.234,146.36C243.103,146.201 242.928,146.121 242.709,146.121C242.598,146.121 242.475,146.139 242.339,146.174C242.204,146.21 242.088,146.264 241.993,146.336L241.993,146.601C241.993,146.802 242.01,146.986 242.042,147.153C242.076,147.32 242.125,147.461 242.189,147.578C242.254,147.694 242.335,147.785 242.431,147.849C242.527,147.913 242.637,147.944 242.761,147.944ZM244.213,146.895C244.213,147.1 244.178,147.291 244.108,147.466C244.038,147.642 243.939,147.793 243.81,147.921C243.681,148.049 243.524,148.149 243.338,148.222C243.153,148.295 242.946,148.332 242.717,148.332C242.483,148.332 242.269,148.291 242.076,148.209C241.883,148.128 241.72,148.01 241.586,147.854C241.452,147.699 241.348,147.506 241.274,147.275C241.201,147.045 241.164,146.781 241.164,146.484C241.164,146.145 241.211,145.832 241.305,145.546C241.399,145.26 241.531,145.015 241.701,144.812C241.871,144.608 242.076,144.449 242.316,144.336C242.557,144.222 242.821,144.166 243.11,144.166C243.275,144.166 243.434,144.184 243.587,144.221C243.741,144.258 243.876,144.313 243.995,144.387L243.875,144.733C243.772,144.692 243.673,144.663 243.577,144.644C243.481,144.626 243.392,144.617 243.308,144.617C242.951,144.617 242.659,144.743 242.433,144.996C242.206,145.25 242.066,145.588 242.014,146.013C242.122,145.896 242.266,145.807 242.445,145.744C242.625,145.681 242.811,145.649 243.002,145.649C243.189,145.649 243.356,145.68 243.506,145.742C243.655,145.805 243.782,145.89 243.887,146C243.992,146.109 244.072,146.241 244.128,146.394C244.185,146.547 244.213,146.714 244.213,146.895Z" style="fill:rgb(31,31,31);fill-rule:nonzero;"/>
            <path d="M270.571,187.556C270.357,187.556 270.193,187.641 270.076,187.812C269.96,187.982 269.902,188.203 269.902,188.475C269.902,188.758 269.967,188.979 270.098,189.14C270.229,189.299 270.404,189.379 270.623,189.379C270.734,189.379 270.857,189.361 270.993,189.326C271.128,189.29 271.244,189.236 271.339,189.164L271.339,188.899C271.339,188.698 271.322,188.514 271.29,188.347C271.256,188.18 271.208,188.039 271.143,187.922C271.078,187.806 270.997,187.715 270.901,187.651C270.805,187.587 270.695,187.556 270.571,187.556ZM269.119,188.605C269.119,188.4 269.154,188.209 269.224,188.034C269.294,187.858 269.393,187.707 269.522,187.579C269.651,187.451 269.808,187.351 269.994,187.278C270.179,187.205 270.386,187.168 270.615,187.168C270.849,187.168 271.063,187.209 271.256,187.291C271.449,187.372 271.612,187.49 271.746,187.646C271.88,187.801 271.984,187.994 272.058,188.225C272.131,188.455 272.168,188.719 272.168,189.016C272.168,189.355 272.121,189.668 272.027,189.954C271.933,190.24 271.801,190.485 271.631,190.688C271.461,190.892 271.256,191.051 271.016,191.164C270.775,191.278 270.511,191.334 270.222,191.334C270.057,191.334 269.898,191.316 269.745,191.279C269.591,191.242 269.456,191.187 269.337,191.113L269.457,190.767C269.56,190.808 269.659,190.837 269.755,190.856C269.851,190.874 269.94,190.883 270.024,190.883C270.381,190.883 270.673,190.757 270.899,190.504C271.126,190.25 271.266,189.912 271.318,189.487C271.21,189.604 271.066,189.693 270.887,189.756C270.707,189.819 270.521,189.851 270.33,189.851C270.143,189.851 269.976,189.82 269.826,189.758C269.677,189.695 269.55,189.61 269.445,189.5C269.34,189.391 269.26,189.259 269.204,189.106C269.147,188.953 269.119,188.786 269.119,188.605Z" style="fill:rgb(31,31,31);fill-rule:nonzero;"/>
            <path d="M249.666,147.125C249.124,148.503 246.416,149.007 246.416,151.125C246.416,152.091 247.199,152.875 248.166,152.875C248.675,152.875 249.129,152.654 249.449,152.307C249.389,152.897 249.195,153.597 248.667,154.125L248.667,154.375L250.667,154.375L250.667,154.125C250.139,153.597 249.944,152.899 249.883,152.308C250.203,152.654 250.657,152.875 251.166,152.875C252.132,152.875 252.916,152.091 252.916,151.125C252.916,149.007 250.208,148.503 249.666,147.125Z" style="fill:rgb(31,31,31);fill-rule:nonzero;"/>
            <path d="M263.666,147.125C263.124,148.503 260.415,149.007 260.415,151.125C260.415,152.091 261.199,152.875 262.166,152.875C262.675,152.875 263.129,152.654 263.449,152.307C263.389,152.897 263.195,153.597 262.667,154.125L262.667,154.375L264.667,154.375L264.667,154.125C264.139,153.597 263.944,152.899 263.883,152.308C264.203,152.654 264.657,152.875 265.166,152.875C266.132,152.875 266.916,152.091 266.916,151.125C266.916,149.007 264.208,148.503 263.666,147.125Z" style="fill:rgb(31,31,31);fill-rule:nonzero;"/>
            <path d="M263.666,163.375C263.124,164.753 260.415,165.257 260.415,167.375C260.415,168.341 261.199,169.125 262.166,169.125C262.675,169.125 263.129,168.904 263.449,168.557C263.389,169.147 263.195,169.847 262.667,170.375L262.667,170.625L264.667,170.625L264.667,170.375C264.139,169.847 263.944,169.149 263.883,168.558C264.203,168.904 264.657,169.125 265.166,169.125C266.132,169.125 266.916,168.341 266.916,167.375C266.916,165.257 264.208,164.753 263.666,163.375Z" style="fill:rgb(31,31,31);fill-rule:nonzero;"/>
            <path d="M249.666,163.375C249.124,164.753 246.416,165.257 246.416,167.375C246.416,168.341 247.199,169.125 248.166,169.125C248.675,169.125 249.129,168.904 249.449,168.557C249.389,169.147 249.195,169.847 248.667,170.375L248.667,170.625L250.667,170.625L250.667,170.375C250.139,169.847 249.944,169.149 249.883,168.558C250.203,168.904 250.657,169.125 251.166,169.125C252.132,169.125 252.916,168.341 252.916,167.375C252.916,165.257 250.208,164.753 249.666,163.375Z" style="fill:rgb(31,31,31);fill-rule:nonzero;"/>
            <path d="M249.666,188.375C249.124,186.997 246.416,186.493 246.416,184.375C246.416,183.409 247.199,182.625 248.166,182.625C248.675,182.625 249.129,182.846 249.449,183.193C249.389,182.603 249.195,181.903 248.667,181.375L248.667,181.125L250.667,181.125L250.667,181.375C250.139,181.903 249.944,182.601 249.883,183.192C250.203,182.846 250.657,182.625 251.166,182.625C252.132,182.625 252.916,183.409 252.916,184.375C252.916,186.493 250.208,186.997 249.666,188.375Z" style="fill:rgb(31,31,31);fill-rule:nonzero;"/>
            <path d="M263.666,188.375C263.124,186.997 260.415,186.493 260.415,184.375C260.415,183.409 261.199,182.625 262.166,182.625C262.675,182.625 263.129,182.846 263.449,183.193C263.389,182.603 263.195,181.903 262.667,181.375L262.667,181.125L264.667,181.125L264.667,181.375C264.139,181.903 263.944,182.601 263.883,183.192C264.203,182.846 264.657,182.625 265.166,182.625C266.132,182.625 266.916,183.409 266.916,184.375C266.916,186.493 264.208,186.997 263.666,188.375Z" style="fill:rgb(31,31,31);fill-rule:nonzero;"/>
        </g>
    </g>
</svg>
