<?xml version="1.0" encoding="UTF-8" standalone="no"?>
<!DOCTYPE svg PUBLIC "-//W3C//DTD SVG 1.1//EN" "http://www.w3.org/Graphics/SVG/1.1/DTD/svg11.dtd">
<svg width="100%" height="100%" viewBox="0 0 40 56" version="1.1" xmlns="http://www.w3.org/2000/svg" xmlns:xlink="http://www.w3.org/1999/xlink" xml:space="preserve" xmlns:serif="http://www.serif.com/" style="fill-rule:evenodd;clip-rule:evenodd;stroke-linejoin:round;stroke-miterlimit:2;">
    <g transform="matrix(1,0,0,1,-280,-20)">
        <g>
            <path d="M317.5,76L282.5,76C281.119,76 280,74.881 280,73.5L280,22.5C280,21.12 281.119,20 282.5,20L317.5,20C318.881,20 320,21.12 320,22.5L320,73.5C320,74.881 318.881,76 317.5,76Z" style="fill:white;fill-rule:nonzero;"/>
            <path d="M317.5,76L282.5,76C281.119,76 280,74.881 280,73.5L280,22.5C280,21.12 281.119,20 282.5,20L317.5,20C318.881,20 320,21.12 320,22.5L320,73.5C320,74.881 318.881,76 317.5,76ZM317.5,75.8L282.5,75.8C281.229,75.8 280.2,74.771 280.2,73.5L280.2,22.5C280.2,21.23 281.229,20.2 282.5,20.2L317.5,20.2C318.771,20.2 319.8,21.23 319.8,22.5C319.8,22.5 319.8,73.5 319.8,73.5C319.8,74.771 318.771,75.8 317.5,75.8Z" style="fill:rgb(204,204,204);"/>
            <path d="M287.53,31.533C287.237,31.24 286.763,31.24 286.47,31.533L286.147,31.854C286.229,31.566 286.393,31.418 286.53,31.281C286.823,30.988 286.823,30.513 286.53,30.22C286.384,30.074 286.193,30.001 286.002,30C285.811,30.001 285.616,30.074 285.47,30.22C285.177,30.513 285.177,30.988 285.47,31.281C285.606,31.418 285.771,31.566 285.852,31.854L285.53,31.533C285.237,31.24 284.763,31.24 284.47,31.533C284.177,31.826 284.177,32.3 284.47,32.593C284.763,32.886 285.237,32.886 285.53,32.593L285.901,32.223L285.902,32.244C285.909,32.568 285.857,33.081 285.5,33.438L285.5,33.563L286.5,33.563L286.5,33.438C286.145,33.082 286.091,32.574 286.097,32.249L286.099,32.223L286.47,32.593C286.763,32.886 287.237,32.886 287.53,32.593C287.823,32.3 287.823,31.826 287.53,31.533Z" style="fill:rgb(31,31,31);fill-rule:nonzero;"/>
            <path d="M312.47,64.468C312.763,64.761 313.237,64.761 313.53,64.468L313.853,64.146C313.771,64.435 313.606,64.583 313.47,64.72C313.177,65.013 313.177,65.488 313.47,65.781C313.615,65.927 313.807,66 313.998,66C314.189,66 314.385,65.927 314.53,65.781C314.823,65.488 314.823,65.013 314.53,64.72C314.394,64.583 314.229,64.435 314.147,64.146L314.47,64.468C314.763,64.761 315.237,64.761 315.53,64.468C315.823,64.175 315.823,63.701 315.53,63.408C315.237,63.115 314.763,63.115 314.47,63.408L314.099,63.778L314.098,63.757C314.091,63.433 314.143,62.92 314.5,62.563L314.5,62.438L313.5,62.438L313.5,62.563C313.855,62.918 313.908,63.427 313.902,63.752L313.9,63.778L313.53,63.408C313.237,63.115 312.763,63.115 312.47,63.408C312.177,63.701 312.177,64.175 312.47,64.468Z" style="fill:rgb(31,31,31);fill-rule:nonzero;"/>
            <path d="M287.018,25.01L286.154,25.01C286.009,25.01 285.875,25.015 285.754,25.024C285.633,25.034 285.536,25.047 285.462,25.065L285.334,25.114L285.261,25.228L285.049,25.873L284.639,25.879C284.625,25.644 284.626,25.407 284.642,25.165C284.657,24.924 284.681,24.7 284.714,24.495L287.353,24.495L287.545,24.919C287.188,25.379 286.887,25.899 286.642,26.478C286.396,27.059 286.246,27.732 286.192,28.5L285.482,28.5L285.363,28.358C285.392,28.042 285.456,27.727 285.553,27.413C285.651,27.098 285.774,26.798 285.921,26.511C286.069,26.224 286.236,25.952 286.425,25.695C286.613,25.437 286.811,25.209 287.018,25.01Z" style="fill:rgb(31,31,31);fill-rule:nonzero;"/>
            <path d="M312.98,70.991L313.844,70.991C313.99,70.991 314.123,70.986 314.244,70.977C314.365,70.967 314.463,70.954 314.537,70.936L314.664,70.887L314.737,70.773L314.949,70.127L315.359,70.122C315.373,70.356 315.373,70.594 315.357,70.836C315.342,71.077 315.317,71.301 315.284,71.506L312.646,71.506L312.453,71.082C312.811,70.622 313.111,70.102 313.357,69.522C313.603,68.942 313.752,68.269 313.807,67.5L314.517,67.5L314.636,67.643C314.606,67.959 314.543,68.274 314.445,68.588C314.348,68.903 314.225,69.203 314.077,69.49C313.93,69.777 313.762,70.049 313.574,70.306C313.386,70.563 313.188,70.791 312.98,70.991Z" style="fill:rgb(31,31,31);fill-rule:nonzero;"/>
            <path d="M296.061,30.565C295.475,29.979 294.525,29.979 293.939,30.565L293.295,31.208C293.457,30.631 293.787,30.335 294.061,30.061C294.646,29.475 294.646,28.525 294.061,27.94C293.769,27.648 293.386,27.501 293.004,27.5C292.621,27.501 292.231,27.648 291.939,27.94C291.354,28.525 291.354,29.475 291.939,30.061C292.213,30.335 292.543,30.631 292.705,31.208L292.061,30.565C291.475,29.979 290.525,29.979 289.939,30.565C289.354,31.151 289.354,32.101 289.939,32.686C290.525,33.272 291.475,33.272 292.061,32.686L292.802,31.945L292.804,31.986C292.817,32.636 292.714,33.661 292,34.375L292,34.625L294,34.625L294,34.375C293.289,33.665 293.183,32.647 293.194,31.997L293.198,31.945L293.939,32.686C294.525,33.272 295.475,33.272 296.061,32.686C296.646,32.101 296.646,31.15 296.061,30.565Z" style="fill:rgb(31,31,31);fill-rule:nonzero;"/>
            <path d="M303.061,38.815C302.475,38.229 301.525,38.229 300.939,38.815L300.295,39.458C300.457,38.881 300.787,38.585 301.061,38.311C301.646,37.725 301.646,36.775 301.061,36.19C300.769,35.898 300.386,35.751 300.004,35.75C299.621,35.751 299.231,35.898 298.939,36.19C298.354,36.775 298.354,37.725 298.939,38.311C299.213,38.585 299.543,38.881 299.705,39.458L299.061,38.815C298.475,38.229 297.525,38.229 296.939,38.815C296.354,39.401 296.354,40.351 296.939,40.936C297.525,41.522 298.475,41.522 299.061,40.936L299.802,40.195L299.804,40.236C299.817,40.886 299.714,41.911 299,42.625L299,42.875L301,42.875L301,42.625C300.289,41.915 300.183,40.897 300.194,40.247L300.198,40.195L300.939,40.936C301.525,41.522 302.475,41.522 303.061,40.936C303.646,40.351 303.646,39.4 303.061,38.815Z" style="fill:rgb(31,31,31);fill-rule:nonzero;"/>
            <path d="M310.061,30.565C309.475,29.979 308.525,29.979 307.939,30.565L307.296,31.208C307.457,30.631 307.787,30.335 308.061,30.061C308.646,29.475 308.646,28.525 308.061,27.94C307.769,27.648 307.387,27.501 307.004,27.5C306.621,27.501 306.231,27.648 305.939,27.94C305.354,28.525 305.354,29.475 305.939,30.061C306.213,30.335 306.543,30.631 306.704,31.208L306.061,30.565C305.475,29.979 304.525,29.979 303.939,30.565C303.354,31.151 303.354,32.101 303.939,32.686C304.525,33.272 305.475,33.272 306.061,32.686L306.802,31.945L306.804,31.986C306.817,32.636 306.715,33.661 306,34.375L306,34.625L308,34.625L308,34.375C307.289,33.665 307.183,32.647 307.194,31.997L307.198,31.945L307.939,32.686C308.525,33.272 309.475,33.272 310.061,32.686C310.646,32.101 310.646,31.15 310.061,30.565Z" style="fill:rgb(31,31,31);fill-rule:nonzero;"/>
            <path d="M310.061,46.815C309.475,46.229 308.525,46.229 307.939,46.815L307.296,47.458C307.457,46.881 307.787,46.585 308.061,46.311C308.646,45.725 308.646,44.775 308.061,44.19C307.769,43.898 307.387,43.751 307.004,43.75C306.621,43.751 306.231,43.898 305.939,44.19C305.354,44.775 305.354,45.725 305.939,46.311C306.213,46.585 306.543,46.881 306.704,47.458L306.061,46.815C305.475,46.229 304.525,46.229 303.939,46.815C303.354,47.401 303.354,48.351 303.939,48.936C304.525,49.522 305.475,49.522 306.061,48.936L306.802,48.195L306.804,48.236C306.817,48.886 306.715,49.911 306,50.625L306,50.875L308,50.875L308,50.625C307.289,49.915 307.183,48.897 307.194,48.247L307.198,48.195L307.939,48.936C308.525,49.522 309.475,49.522 310.061,48.936C310.646,48.351 310.646,47.4 310.061,46.815Z" style="fill:rgb(31,31,31);fill-rule:nonzero;"/>
            <path d="M296.061,46.815C295.475,46.229 294.525,46.229 293.939,46.815L293.295,47.458C293.457,46.881 293.787,46.585 294.061,46.311C294.646,45.725 294.646,44.775 294.061,44.19C293.769,43.898 293.386,43.751 293.004,43.75C292.621,43.751 292.231,43.898 291.939,44.19C291.354,44.775 291.354,45.725 291.939,46.311C292.213,46.585 292.543,46.881 292.705,47.458L292.061,46.815C291.475,46.229 290.525,46.229 289.939,46.815C289.354,47.401 289.354,48.351 289.939,48.936C290.525,49.522 291.475,49.522 292.061,48.936L292.802,48.195L292.804,48.236C292.817,48.886 292.714,49.911 292,50.625L292,50.875L294,50.875L294,50.625C293.289,49.915 293.183,48.897 293.194,48.247L293.198,48.195L293.939,48.936C294.525,49.522 295.475,49.522 296.061,48.936C296.646,48.351 296.646,47.4 296.061,46.815Z" style="fill:rgb(31,31,31);fill-rule:nonzero;"/>
            <path d="M296.061,65.436C295.475,66.022 294.525,66.022 293.939,65.436L293.295,64.792C293.457,65.37 293.787,65.666 294.061,65.94C294.646,66.526 294.646,67.476 294.061,68.061C293.769,68.353 293.386,68.499 293.004,68.5C292.621,68.499 292.231,68.353 291.939,68.061C291.354,67.476 291.354,66.526 291.939,65.94C292.213,65.666 292.543,65.37 292.705,64.792L292.061,65.436C291.475,66.022 290.525,66.022 289.939,65.436C289.354,64.85 289.354,63.9 289.939,63.315C290.525,62.729 291.475,62.729 292.061,63.315L292.802,64.056L292.804,64.015C292.817,63.365 292.714,62.34 292,61.625L292,61.375L294,61.375L294,61.625C293.289,62.336 293.183,63.353 293.194,64.004L293.198,64.056L293.939,63.315C294.525,62.729 295.475,62.729 296.061,63.315C296.646,63.9 296.646,64.851 296.061,65.436Z" style="fill:rgb(31,31,31);fill-rule:nonzero;"/>
            <path d="M310.061,65.436C309.475,66.022 308.525,66.022 307.939,65.436L307.296,64.792C307.457,65.37 307.787,65.666 308.061,65.94C308.646,66.526 308.646,67.476 308.061,68.061C307.769,68.353 307.387,68.499 307.004,68.5C306.621,68.499 306.231,68.353 305.939,68.061C305.354,67.476 305.354,66.526 305.939,65.94C306.213,65.666 306.543,65.37 306.704,64.792L306.061,65.436C305.475,66.022 304.525,66.022 303.939,65.436C303.354,64.85 303.354,63.9 303.939,63.315C304.525,62.729 305.475,62.729 306.061,63.315L306.802,64.056L306.804,64.015C306.817,63.365 306.715,62.34 306,61.625L306,61.375L308,61.375L308,61.625C307.289,62.336 307.183,63.353 307.194,64.004L307.198,64.056L307.939,63.315C308.525,62.729 309.475,62.729 310.061,63.315C310.646,63.9 310.646,64.851 310.061,65.436Z" style="fill:rgb(31,31,31);fill-rule:nonzero;"/>
        </g>
    </g>
</svg>
