<?xml version="1.0" encoding="UTF-8" standalone="no"?>
<!DOCTYPE svg PUBLIC "-//W3C//DTD SVG 1.1//EN" "http://www.w3.org/Graphics/SVG/1.1/DTD/svg11.dtd">
<svg width="100%" height="100%" viewBox="0 0 40 56" version="1.1" xmlns="http://www.w3.org/2000/svg" xmlns:xlink="http://www.w3.org/1999/xlink" xml:space="preserve" xmlns:serif="http://www.serif.com/" style="fill-rule:evenodd;clip-rule:evenodd;stroke-linejoin:round;stroke-miterlimit:2;">
    <g transform="matrix(1,0,0,1,-280,-200)">
        <g>
            <path d="M317.5,256L282.5,256C281.119,256 280,254.881 280,253.5L280,202.5C280,201.119 281.119,200 282.5,200L317.5,200C318.881,200 320,201.119 320,202.5L320,253.5C320,254.881 318.881,256 317.5,256Z" style="fill:white;fill-rule:nonzero;"/>
            <path d="M317.5,256L282.5,256C281.119,256 280,254.881 280,253.5L280,202.5C280,201.119 281.119,200 282.5,200L317.5,200C318.881,200 320,201.119 320,202.5L320,253.5C320,254.881 318.881,256 317.5,256ZM317.5,255.8L282.5,255.8C281.229,255.8 280.2,254.771 280.2,253.5L280.2,202.5C280.2,201.229 281.229,200.2 282.5,200.2L317.5,200.2C318.771,200.2 319.8,201.229 319.8,202.5C319.8,202.5 319.8,253.5 319.8,253.5C319.8,254.771 318.771,255.8 317.5,255.8Z" style="fill:rgb(204,204,204);"/>
            <path d="M286,213.375C285.55,212.673 284.952,212.075 284.25,211.625C284.952,211.175 285.55,210.577 286,209.875C286.45,210.577 287.048,211.175 287.75,211.625C287.048,212.075 286.45,212.673 286,213.375Z" style="fill:rgb(201,49,18);fill-rule:nonzero;"/>
            <path d="M314,241.875C314.45,242.577 315.048,243.175 315.75,243.625C315.048,244.075 314.45,244.673 314,245.375C313.55,244.673 312.952,244.075 312.25,243.625C312.952,243.175 313.55,242.577 314,241.875Z" style="fill:rgb(201,49,18);fill-rule:nonzero;"/>
            <path d="M287.018,204.634L286.154,204.634C286.009,204.634 285.875,204.639 285.754,204.648C285.633,204.658 285.536,204.672 285.462,204.689L285.334,204.739L285.261,204.852L285.049,205.498L284.639,205.504C284.625,205.269 284.626,205.031 284.642,204.79C284.657,204.548 284.681,204.325 284.714,204.119L287.353,204.119L287.545,204.544C287.188,205.003 286.887,205.523 286.642,206.103C286.396,206.683 286.246,207.357 286.192,208.125L285.482,208.125L285.363,207.982C285.392,207.667 285.456,207.351 285.553,207.037C285.651,206.723 285.774,206.422 285.921,206.135C286.069,205.848 286.236,205.576 286.425,205.319C286.613,205.062 286.811,204.834 287.018,204.634Z" style="fill:rgb(201,49,18);fill-rule:nonzero;"/>
            <path d="M312.98,250.615L313.844,250.615C313.99,250.615 314.123,250.611 314.244,250.602C314.365,250.592 314.463,250.578 314.537,250.561L314.664,250.512L314.737,250.398L314.949,249.752L315.359,249.746C315.373,249.98 315.373,250.219 315.357,250.461C315.342,250.701 315.317,250.926 315.284,251.131L312.646,251.131L312.453,250.706C312.811,250.246 313.111,249.727 313.357,249.146C313.603,248.566 313.752,247.893 313.807,247.125L314.517,247.125L314.636,247.268C314.606,247.584 314.543,247.898 314.445,248.213C314.348,248.527 314.225,248.828 314.077,249.115C313.93,249.402 313.762,249.674 313.574,249.931C313.386,250.188 313.188,250.416 312.98,250.615Z" style="fill:rgb(201,49,18);fill-rule:nonzero;"/>
            <path d="M293,214.625C292.1,213.221 290.904,212.025 289.5,211.125C290.904,210.225 292.1,209.029 293,207.625C293.9,209.029 295.096,210.225 296.5,211.125C295.096,212.025 293.9,213.221 293,214.625Z" style="fill:rgb(201,49,18);fill-rule:nonzero;"/>
            <path d="M300,222.875C299.1,221.471 297.904,220.275 296.5,219.375C297.904,218.475 299.1,217.279 300,215.875C300.9,217.279 302.096,218.475 303.5,219.375C302.096,220.275 300.9,221.471 300,222.875Z" style="fill:rgb(201,49,18);fill-rule:nonzero;"/>
            <path d="M307,214.625C306.1,213.221 304.904,212.025 303.5,211.125C304.904,210.225 306.1,209.029 307,207.625C307.9,209.029 309.096,210.225 310.5,211.125C309.096,212.025 307.9,213.221 307,214.625Z" style="fill:rgb(201,49,18);fill-rule:nonzero;"/>
            <path d="M307,230.875C306.1,229.471 304.904,228.275 303.5,227.375C304.904,226.475 306.1,225.279 307,223.875C307.9,225.279 309.096,226.475 310.5,227.375C309.096,228.275 307.9,229.471 307,230.875Z" style="fill:rgb(201,49,18);fill-rule:nonzero;"/>
            <path d="M293,230.875C292.1,229.471 290.904,228.275 289.5,227.375C290.904,226.475 292.1,225.279 293,223.875C293.9,225.279 295.096,226.475 296.5,227.375C295.096,228.275 293.9,229.471 293,230.875Z" style="fill:rgb(201,49,18);fill-rule:nonzero;"/>
            <path d="M296.5,244.125C295.096,245.025 293.9,246.221 293,247.625C292.1,246.221 290.904,245.025 289.5,244.125C290.904,243.225 292.1,242.029 293,240.625C293.9,242.029 295.096,243.225 296.5,244.125Z" style="fill:rgb(201,49,18);fill-rule:nonzero;"/>
            <path d="M310.5,244.125C309.096,245.025 307.9,246.221 307,247.625C306.1,246.221 304.904,245.025 303.5,244.125C304.904,243.225 306.1,242.029 307,240.625C307.9,242.029 309.096,243.225 310.5,244.125Z" style="fill:rgb(201,49,18);fill-rule:nonzero;"/>
        </g>
    </g>
</svg>
