<?xml version="1.0" encoding="UTF-8" standalone="no"?>
<!DOCTYPE svg PUBLIC "-//W3C//DTD SVG 1.1//EN" "http://www.w3.org/Graphics/SVG/1.1/DTD/svg11.dtd">
<svg width="100%" height="100%" viewBox="0 0 40 56" version="1.1" xmlns="http://www.w3.org/2000/svg" xmlns:xlink="http://www.w3.org/1999/xlink" xml:space="preserve" xmlns:serif="http://www.serif.com/" style="fill-rule:evenodd;clip-rule:evenodd;stroke-linejoin:round;stroke-miterlimit:2;">
    <g transform="matrix(1,0,0,1,-280,-80)">
        <g>
            <path d="M317.5,136L282.5,136C281.119,136 280,134.881 280,133.5L280,82.5C280,81.12 281.119,80 282.5,80L317.5,80C318.881,80 320,81.12 320,82.5L320,133.5C320,134.881 318.881,136 317.5,136Z" style="fill:white;fill-rule:nonzero;"/>
            <path d="M317.5,136L282.5,136C281.119,136 280,134.881 280,133.5L280,82.5C280,81.12 281.119,80 282.5,80L317.5,80C318.881,80 320,81.12 320,82.5L320,133.5C320,134.881 318.881,136 317.5,136ZM317.5,135.8L282.5,135.8C281.229,135.8 280.2,134.771 280.2,133.5L280.2,82.5C280.2,81.23 281.229,80.2 282.5,80.2L317.5,80.2C318.771,80.2 319.8,81.23 319.8,82.5C319.8,82.5 319.8,133.5 319.8,133.5C319.8,134.771 318.771,135.8 317.5,135.8Z" style="fill:rgb(204,204,204);"/>
            <path d="M286.813,90.5C286.462,90.5 286.161,90.694 286,90.978C285.839,90.694 285.537,90.5 285.188,90.5C284.67,90.5 284.25,90.92 284.25,91.438C284.25,92.473 285.725,93.029 286,93.688C286.275,93.029 287.75,92.473 287.75,91.438C287.75,90.92 287.33,90.5 286.813,90.5Z" style="fill:rgb(201,49,18);fill-rule:nonzero;"/>
            <path d="M313.188,125.25C313.537,125.25 313.839,125.056 314,124.772C314.161,125.056 314.463,125.25 314.813,125.25C315.33,125.25 315.75,124.83 315.75,124.313C315.75,123.277 314.275,122.722 314,122.063C313.725,122.722 312.25,123.277 312.25,124.313C312.25,124.83 312.67,125.25 313.188,125.25Z" style="fill:rgb(201,49,18);fill-rule:nonzero;"/>
            <path d="M287.018,84.885L286.154,84.885C286.009,84.885 285.875,84.89 285.754,84.899C285.633,84.909 285.536,84.922 285.462,84.94L285.334,84.989L285.261,85.103L285.049,85.748L284.639,85.754C284.625,85.519 284.626,85.282 284.642,85.04C284.657,84.799 284.681,84.575 284.714,84.37L287.353,84.37L287.545,84.794C287.188,85.254 286.887,85.774 286.642,86.353C286.396,86.934 286.246,87.607 286.192,88.375L285.482,88.375L285.363,88.233C285.392,87.917 285.456,87.602 285.553,87.288C285.651,86.973 285.774,86.673 285.921,86.386C286.069,86.099 286.236,85.827 286.425,85.57C286.613,85.312 286.811,85.084 287.018,84.885Z" style="fill:rgb(201,49,18);fill-rule:nonzero;"/>
            <path d="M312.98,130.866L313.844,130.866C313.99,130.866 314.123,130.861 314.244,130.852C314.365,130.842 314.463,130.828 314.537,130.811L314.664,130.761L314.737,130.648L314.949,130.002L315.359,129.996C315.373,130.231 315.373,130.469 315.357,130.71C315.342,130.952 315.317,131.175 315.284,131.381L312.646,131.381L312.453,130.956C312.811,130.497 313.111,129.977 313.357,129.397C313.603,128.817 313.752,128.143 313.807,127.375L314.517,127.375L314.636,127.518C314.606,127.833 314.543,128.149 314.445,128.463C314.348,128.777 314.225,129.078 314.077,129.365C313.93,129.652 313.762,129.924 313.574,130.181C313.386,130.438 313.188,130.666 312.98,130.866Z" style="fill:rgb(201,49,18);fill-rule:nonzero;"/>
            <path d="M294.625,88.625C293.925,88.625 293.322,89.013 293,89.582C292.678,89.013 292.075,88.625 291.375,88.625C290.339,88.625 289.5,89.465 289.5,90.5C289.5,92.571 292.449,93.682 293,95C293.551,93.682 296.5,92.571 296.5,90.5C296.5,89.465 295.661,88.625 294.625,88.625Z" style="fill:rgb(201,49,18);fill-rule:nonzero;"/>
            <path d="M301.625,96.875C300.925,96.875 300.322,97.263 300,97.832C299.678,97.263 299.075,96.875 298.375,96.875C297.339,96.875 296.5,97.715 296.5,98.75C296.5,100.82 299.449,101.932 300,103.25C300.551,101.932 303.5,100.82 303.5,98.75C303.5,97.715 302.66,96.875 301.625,96.875Z" style="fill:rgb(201,49,18);fill-rule:nonzero;"/>
            <path d="M308.625,88.625C307.925,88.625 307.322,89.013 307,89.582C306.678,89.013 306.075,88.625 305.375,88.625C304.34,88.625 303.5,89.465 303.5,90.5C303.5,92.571 306.449,93.682 307,95C307.551,93.682 310.5,92.571 310.5,90.5C310.5,89.465 309.66,88.625 308.625,88.625Z" style="fill:rgb(201,49,18);fill-rule:nonzero;"/>
            <path d="M308.625,104.875C307.925,104.875 307.322,105.263 307,105.831C306.678,105.263 306.075,104.875 305.375,104.875C304.34,104.875 303.5,105.714 303.5,106.75C303.5,108.82 306.449,109.932 307,111.25C307.551,109.932 310.5,108.82 310.5,106.75C310.5,105.714 309.66,104.875 308.625,104.875Z" style="fill:rgb(201,49,18);fill-rule:nonzero;"/>
            <path d="M294.625,104.875C293.925,104.875 293.322,105.263 293,105.831C292.678,105.263 292.075,104.875 291.375,104.875C290.339,104.875 289.5,105.714 289.5,106.75C289.5,108.82 292.449,109.932 293,111.25C293.551,109.932 296.5,108.82 296.5,106.75C296.5,105.714 295.661,104.875 294.625,104.875Z" style="fill:rgb(201,49,18);fill-rule:nonzero;"/>
            <path d="M294.625,127.125C293.925,127.125 293.322,126.737 293,126.169C292.678,126.737 292.075,127.125 291.375,127.125C290.339,127.125 289.5,126.286 289.5,125.25C289.5,123.18 292.449,122.068 293,120.75C293.551,122.068 296.5,123.18 296.5,125.25C296.5,126.286 295.661,127.125 294.625,127.125Z" style="fill:rgb(201,49,18);fill-rule:nonzero;"/>
            <path d="M308.625,127.125C307.925,127.125 307.322,126.737 307,126.169C306.678,126.737 306.075,127.125 305.375,127.125C304.34,127.125 303.5,126.286 303.5,125.25C303.5,123.18 306.449,122.068 307,120.75C307.551,122.068 310.5,123.18 310.5,125.25C310.5,126.286 309.66,127.125 308.625,127.125Z" style="fill:rgb(201,49,18);fill-rule:nonzero;"/>
        </g>
    </g>
</svg>
