<?xml version="1.0" encoding="UTF-8" standalone="no"?>
<!DOCTYPE svg PUBLIC "-//W3C//DTD SVG 1.1//EN" "http://www.w3.org/Graphics/SVG/1.1/DTD/svg11.dtd">
<svg width="100%" height="100%" viewBox="0 0 40 56" version="1.1" xmlns="http://www.w3.org/2000/svg" xmlns:xlink="http://www.w3.org/1999/xlink" xml:space="preserve" xmlns:serif="http://www.serif.com/" style="fill-rule:evenodd;clip-rule:evenodd;stroke-linejoin:round;stroke-miterlimit:2;">
    <g transform="matrix(1,0,0,1,-280,-140)">
        <g>
            <path d="M317.5,196L282.5,196C281.119,196 280,194.881 280,193.5L280,142.5C280,141.119 281.119,140 282.5,140L317.5,140C318.881,140 320,141.119 320,142.5L320,193.5C320,194.881 318.881,196 317.5,196Z" style="fill:white;fill-rule:nonzero;"/>
            <path d="M317.5,196L282.5,196C281.119,196 280,194.881 280,193.5L280,142.5C280,141.119 281.119,140 282.5,140L317.5,140C318.881,140 320,141.119 320,142.5L320,193.5C320,194.881 318.881,196 317.5,196ZM317.5,195.8L282.5,195.8C281.229,195.8 280.2,194.771 280.2,193.5L280.2,142.5C280.2,141.229 281.229,140.2 282.5,140.2L317.5,140.2C318.771,140.2 319.8,141.229 319.8,142.5C319.8,142.5 319.8,193.5 319.8,193.5C319.8,194.771 318.771,195.8 317.5,195.8Z" style="fill:rgb(204,204,204);"/>
            <path d="M286,149.688C285.729,150.376 284.375,150.629 284.375,151.688C284.375,152.171 284.766,152.563 285.25,152.563C285.504,152.563 285.731,152.452 285.891,152.278C285.861,152.574 285.764,152.923 285.5,153.188L285.5,153.313L286.5,153.313L286.5,153.188C286.236,152.923 286.139,152.574 286.108,152.279C286.268,152.452 286.495,152.563 286.75,152.563C287.233,152.563 287.625,152.171 287.625,151.688C287.625,150.629 286.271,150.376 286,149.688Z" style="fill:rgb(31,31,31);fill-rule:nonzero;"/>
            <path d="M314.001,185.813C314.271,185.124 315.626,184.871 315.626,183.813C315.626,183.329 315.233,182.938 314.751,182.938C314.496,182.938 314.269,183.048 314.108,183.222C314.139,182.926 314.235,182.577 314.5,182.313L314.5,182.188L313.5,182.188L313.5,182.313C313.764,182.577 313.861,182.926 313.892,183.221C313.731,183.048 313.505,182.938 313.251,182.938C312.768,182.938 312.376,183.329 312.376,183.813C312.376,184.871 313.729,185.124 314.001,185.813Z" style="fill:rgb(31,31,31);fill-rule:nonzero;"/>
            <path d="M287.018,144.759L286.154,144.759C286.009,144.759 285.875,144.764 285.754,144.773C285.633,144.783 285.536,144.797 285.462,144.814L285.334,144.864L285.261,144.977L285.049,145.623L284.639,145.629C284.625,145.394 284.626,145.156 284.642,144.915C284.657,144.673 284.681,144.45 284.714,144.244L287.353,144.244L287.545,144.669C287.188,145.128 286.887,145.648 286.642,146.228C286.396,146.808 286.246,147.482 286.192,148.25L285.482,148.25L285.363,148.107C285.392,147.792 285.456,147.476 285.553,147.162C285.651,146.848 285.774,146.547 285.921,146.26C286.069,145.973 286.236,145.701 286.425,145.444C286.613,145.187 286.811,144.959 287.018,144.759Z" style="fill:rgb(31,31,31);fill-rule:nonzero;"/>
            <path d="M312.98,190.741L313.844,190.741C313.99,190.741 314.123,190.736 314.244,190.727C314.365,190.717 314.463,190.703 314.537,190.686L314.664,190.636L314.737,190.523L314.949,189.877L315.359,189.871C315.373,190.106 315.373,190.344 315.357,190.585C315.342,190.827 315.317,191.05 315.284,191.256L312.646,191.256L312.453,190.831C312.811,190.372 313.111,189.852 313.357,189.272C313.603,188.692 313.752,188.018 313.807,187.25L314.517,187.25L314.636,187.393C314.606,187.708 314.543,188.024 314.445,188.338C314.348,188.652 314.225,188.953 314.077,189.24C313.93,189.527 313.762,189.799 313.574,190.056C313.386,190.313 313.188,190.541 312.98,190.741Z" style="fill:rgb(31,31,31);fill-rule:nonzero;"/>
            <path d="M292.999,147.125C292.458,148.503 289.749,149.007 289.749,151.125C289.749,152.091 290.533,152.875 291.499,152.875C292.008,152.875 292.463,152.654 292.783,152.307C292.723,152.897 292.528,153.597 292,154.125L292,154.375L294,154.375L294,154.125C293.472,153.597 293.277,152.899 293.217,152.308C293.537,152.654 293.99,152.875 294.499,152.875C295.465,152.875 296.249,152.091 296.249,151.125C296.249,149.007 293.541,148.503 292.999,147.125Z" style="fill:rgb(31,31,31);fill-rule:nonzero;"/>
            <path d="M299.999,155.375C299.458,156.753 296.749,157.257 296.749,159.375C296.749,160.341 297.533,161.125 298.499,161.125C299.008,161.125 299.463,160.904 299.783,160.557C299.723,161.147 299.528,161.847 299,162.375L299,162.625L301,162.625L301,162.375C300.472,161.847 300.277,161.149 300.217,160.558C300.537,160.904 300.99,161.125 301.499,161.125C302.466,161.125 303.249,160.341 303.249,159.375C303.249,157.257 300.541,156.753 299.999,155.375Z" style="fill:rgb(31,31,31);fill-rule:nonzero;"/>
            <path d="M306.999,147.125C306.457,148.503 303.749,149.007 303.749,151.125C303.749,152.091 304.532,152.875 305.499,152.875C306.008,152.875 306.463,152.654 306.782,152.307C306.723,152.897 306.528,153.597 306,154.125L306,154.375L308,154.375L308,154.125C307.472,153.597 307.277,152.899 307.217,152.308C307.536,152.654 307.99,152.875 308.499,152.875C309.466,152.875 310.249,152.091 310.249,151.125C310.249,149.007 307.541,148.503 306.999,147.125Z" style="fill:rgb(31,31,31);fill-rule:nonzero;"/>
            <path d="M306.999,163.375C306.457,164.753 303.749,165.257 303.749,167.375C303.749,168.341 304.532,169.125 305.499,169.125C306.008,169.125 306.463,168.904 306.782,168.557C306.723,169.147 306.528,169.847 306,170.375L306,170.625L308,170.625L308,170.375C307.472,169.847 307.277,169.149 307.217,168.558C307.536,168.904 307.99,169.125 308.499,169.125C309.466,169.125 310.249,168.341 310.249,167.375C310.249,165.257 307.541,164.753 306.999,163.375Z" style="fill:rgb(31,31,31);fill-rule:nonzero;"/>
            <path d="M292.999,163.375C292.458,164.753 289.749,165.257 289.749,167.375C289.749,168.341 290.533,169.125 291.499,169.125C292.008,169.125 292.463,168.904 292.783,168.557C292.723,169.147 292.528,169.847 292,170.375L292,170.625L294,170.625L294,170.375C293.472,169.847 293.277,169.149 293.217,168.558C293.537,168.904 293.99,169.125 294.499,169.125C295.465,169.125 296.249,168.341 296.249,167.375C296.249,165.257 293.541,164.753 292.999,163.375Z" style="fill:rgb(31,31,31);fill-rule:nonzero;"/>
            <path d="M292.999,188.375C292.458,186.997 289.749,186.493 289.749,184.375C289.749,183.409 290.533,182.625 291.499,182.625C292.008,182.625 292.463,182.846 292.783,183.193C292.723,182.603 292.528,181.903 292,181.375L292,181.125L294,181.125L294,181.375C293.472,181.903 293.277,182.601 293.217,183.192C293.537,182.846 293.99,182.625 294.499,182.625C295.465,182.625 296.249,183.409 296.249,184.375C296.249,186.493 293.541,186.997 292.999,188.375Z" style="fill:rgb(31,31,31);fill-rule:nonzero;"/>
            <path d="M306.999,188.375C306.457,186.997 303.749,186.493 303.749,184.375C303.749,183.409 304.532,182.625 305.499,182.625C306.008,182.625 306.463,182.846 306.782,183.193C306.723,182.603 306.528,181.903 306,181.375L306,181.125L308,181.125L308,181.375C307.472,181.903 307.277,182.601 307.217,183.192C307.536,182.846 307.99,182.625 308.499,182.625C309.466,182.625 310.249,183.409 310.249,184.375C310.249,186.493 307.541,186.997 306.999,188.375Z" style="fill:rgb(31,31,31);fill-rule:nonzero;"/>
        </g>
    </g>
</svg>
