<?xml version="1.0" encoding="UTF-8" standalone="no"?>
<!DOCTYPE svg PUBLIC "-//W3C//DTD SVG 1.1//EN" "http://www.w3.org/Graphics/SVG/1.1/DTD/svg11.dtd">
<svg width="100%" height="100%" viewBox="0 0 41 56" version="1.1" xmlns="http://www.w3.org/2000/svg" xmlns:xlink="http://www.w3.org/1999/xlink" xml:space="preserve" xmlns:serif="http://www.serif.com/" style="fill-rule:evenodd;clip-rule:evenodd;stroke-linejoin:round;stroke-miterlimit:2;">
    <g transform="matrix(1,0,0,1,-323,-80)">
        <g>
            <path d="M360.833,136L325.833,136C324.452,136 323.333,134.881 323.333,133.5L323.333,82.5C323.333,81.12 324.452,80 325.833,80L360.833,80C362.214,80 363.333,81.12 363.333,82.5L363.333,133.5C363.333,134.881 362.214,136 360.833,136Z" style="fill:white;fill-rule:nonzero;"/>
            <path d="M330.113,90.556C329.777,90.556 329.488,90.742 329.333,91.014C329.179,90.742 328.889,90.556 328.553,90.556C328.057,90.556 327.653,90.958 327.653,91.456C327.653,92.449 329.068,92.983 329.333,93.616C329.598,92.983 331.014,92.449 331.014,91.456C331.014,90.958 330.61,90.556 330.113,90.556Z" style="fill:rgb(201,49,18);fill-rule:nonzero;"/>
            <path d="M356.521,125.25C356.871,125.25 357.172,125.056 357.333,124.772C357.494,125.056 357.796,125.25 358.146,125.25C358.663,125.25 359.083,124.83 359.083,124.313C359.083,123.277 357.608,122.722 357.333,122.063C357.058,122.722 355.583,123.277 355.583,124.313C355.583,124.83 356.003,125.25 356.521,125.25Z" style="fill:rgb(201,49,18);fill-rule:nonzero;"/>
            <path d="M328.708,85.181C328.708,85.28 328.73,85.369 328.774,85.447L328.958,85.663C329.035,85.728 329.127,85.789 329.232,85.846C329.339,85.903 329.451,85.96 329.571,86.016C329.719,85.921 329.826,85.811 329.892,85.685C329.958,85.559 329.99,85.429 329.99,85.295C329.99,85.089 329.93,84.931 329.808,84.819C329.686,84.707 329.525,84.652 329.327,84.652C329.132,84.652 328.979,84.702 328.871,84.802C328.762,84.901 328.708,85.028 328.708,85.181ZM329.354,88.084C329.578,88.084 329.754,88.027 329.88,87.912C330.006,87.796 330.069,87.651 330.069,87.477C330.069,87.364 330.044,87.266 329.992,87.183L329.787,86.959C329.702,86.893 329.602,86.832 329.487,86.777C329.373,86.722 328.994,86.539 328.967,86.525C328.815,86.62 328.702,86.737 328.628,86.876C328.553,87.015 328.516,87.163 328.516,87.319C328.516,87.447 328.538,87.56 328.584,87.655C328.63,87.751 328.69,87.831 328.768,87.894C328.844,87.957 328.934,88.004 329.035,88.037C329.137,88.068 329.243,88.084 329.354,88.084ZM329.304,88.457C329.085,88.457 328.882,88.433 328.696,88.384C328.51,88.336 328.35,88.267 328.216,88.176C328.082,88.086 327.978,87.975 327.902,87.842C327.826,87.709 327.788,87.558 327.788,87.389C327.788,87.147 327.864,86.933 328.017,86.747C328.169,86.56 328.374,86.424 328.632,86.339C328.46,86.23 328.311,86.098 328.186,85.94C328.061,85.784 327.998,85.589 327.998,85.359C327.998,85.2 328.031,85.054 328.097,84.922C328.163,84.79 328.256,84.678 328.376,84.585C328.496,84.492 328.641,84.419 328.81,84.368C328.979,84.317 329.165,84.291 329.371,84.291C329.563,84.291 329.74,84.314 329.902,84.359C330.063,84.405 330.202,84.469 330.318,84.551C330.434,84.634 330.523,84.733 330.589,84.848C330.653,84.964 330.686,85.091 330.686,85.231C330.686,85.444 330.614,85.637 330.471,85.808C330.327,85.98 330.146,86.107 329.93,86.191C330.056,86.255 330.176,86.323 330.29,86.394C330.404,86.466 330.505,86.546 330.59,86.634C330.675,86.723 330.743,86.823 330.795,86.936C330.847,87.048 330.872,87.176 330.872,87.319C330.872,87.494 330.834,87.652 330.757,87.792C330.681,87.933 330.574,88.052 330.438,88.15C330.301,88.248 330.135,88.324 329.941,88.377C329.747,88.43 329.535,88.457 329.304,88.457Z" style="fill:rgb(201,49,18);fill-rule:nonzero;"/>
            <path d="M357.957,130.569C357.957,130.47 357.935,130.381 357.891,130.303L357.707,130.088C357.629,130.023 357.537,129.961 357.432,129.904C357.326,129.847 357.213,129.791 357.094,129.734C356.945,129.829 356.839,129.94 356.773,130.066C356.707,130.192 356.674,130.322 356.674,130.456C356.674,130.661 356.735,130.82 356.857,130.931C356.979,131.043 357.14,131.099 357.338,131.099C357.533,131.099 357.686,131.049 357.794,130.949C357.902,130.849 357.957,130.722 357.957,130.569ZM357.311,127.666C357.086,127.666 356.91,127.724 356.785,127.839C356.658,127.955 356.596,128.099 356.596,128.274C356.596,128.386 356.621,128.484 356.673,128.568L356.878,128.792C356.963,128.857 357.063,128.918 357.178,128.974C357.292,129.029 357.671,129.211 357.698,129.225C357.85,129.13 357.963,129.013 358.037,128.875C358.111,128.736 358.148,128.588 358.148,128.431C358.148,128.303 358.127,128.191 358.08,128.095C358.035,127.999 357.975,127.919 357.897,127.856C357.82,127.793 357.731,127.746 357.63,127.714C357.527,127.682 357.422,127.666 357.311,127.666ZM357.361,127.293C357.58,127.293 357.783,127.318 357.969,127.366C358.154,127.415 358.314,127.484 358.449,127.574C358.582,127.665 358.688,127.776 358.763,127.909C358.838,128.042 358.877,128.192 358.877,128.361C358.877,128.604 358.801,128.818 358.648,129.004C358.496,129.19 358.291,129.326 358.033,129.411C358.205,129.52 358.354,129.653 358.479,129.81C358.604,129.967 358.667,130.161 358.667,130.392C358.667,130.551 358.634,130.696 358.568,130.828C358.502,130.96 358.409,131.072 358.289,131.166C358.168,131.259 358.023,131.331 357.855,131.382C357.687,131.434 357.5,131.459 357.294,131.459C357.102,131.459 356.925,131.437 356.763,131.391C356.602,131.345 356.463,131.281 356.347,131.199C356.231,131.117 356.141,131.018 356.076,130.902C356.012,130.787 355.979,130.659 355.979,130.52C355.979,130.306 356.051,130.114 356.194,129.942C356.338,129.771 356.518,129.643 356.735,129.56C356.609,129.496 356.488,129.428 356.375,129.356C356.26,129.284 356.16,129.204 356.074,129.116C355.99,129.028 355.922,128.927 355.869,128.815C355.818,128.703 355.793,128.575 355.793,128.431C355.793,128.256 355.831,128.099 355.908,127.958C355.984,127.818 356.091,127.698 356.228,127.601C356.364,127.502 356.529,127.427 356.724,127.374C356.918,127.32 357.13,127.293 357.361,127.293Z" style="fill:rgb(201,49,18);fill-rule:nonzero;"/>
            <path d="M337.958,88.625C337.259,88.625 336.655,89.013 336.333,89.582C336.011,89.013 335.408,88.625 334.708,88.625C333.673,88.625 332.833,89.465 332.833,90.5C332.833,92.571 335.782,93.682 336.333,95C336.885,93.682 339.833,92.571 339.833,90.5C339.833,89.465 338.994,88.625 337.958,88.625Z" style="fill:rgb(201,49,18);fill-rule:nonzero;"/>
            <path d="M344.958,96.875C344.259,96.875 343.655,97.263 343.333,97.832C343.011,97.263 342.408,96.875 341.708,96.875C340.673,96.875 339.833,97.715 339.833,98.75C339.833,100.82 342.782,101.932 343.333,103.25C343.885,101.932 346.833,100.82 346.833,98.75C346.833,97.715 345.994,96.875 344.958,96.875Z" style="fill:rgb(201,49,18);fill-rule:nonzero;"/>
            <path d="M344.958,118.875C344.259,118.875 343.655,118.487 343.333,117.919C343.011,118.487 342.408,118.875 341.708,118.875C340.673,118.875 339.833,118.036 339.833,117C339.833,114.93 342.782,113.818 343.333,112.5C343.885,113.818 346.833,114.93 346.833,117C346.833,118.036 345.994,118.875 344.958,118.875Z" style="fill:rgb(201,49,18);fill-rule:nonzero;"/>
            <path d="M351.958,88.625C351.259,88.625 350.655,89.013 350.333,89.582C350.011,89.013 349.408,88.625 348.708,88.625C347.673,88.625 346.833,89.465 346.833,90.5C346.833,92.571 349.782,93.682 350.333,95C350.885,93.682 353.833,92.571 353.833,90.5C353.833,89.465 352.994,88.625 351.958,88.625Z" style="fill:rgb(201,49,18);fill-rule:nonzero;"/>
            <path d="M351.958,104.875C351.259,104.875 350.655,105.263 350.333,105.831C350.011,105.263 349.408,104.875 348.708,104.875C347.673,104.875 346.833,105.714 346.833,106.75C346.833,108.82 349.782,109.932 350.333,111.25C350.885,109.932 353.833,108.82 353.833,106.75C353.833,105.714 352.994,104.875 351.958,104.875Z" style="fill:rgb(201,49,18);fill-rule:nonzero;"/>
            <path d="M337.958,104.875C337.259,104.875 336.655,105.263 336.333,105.831C336.011,105.263 335.408,104.875 334.708,104.875C333.673,104.875 332.833,105.714 332.833,106.75C332.833,108.82 335.782,109.932 336.333,111.25C336.885,109.932 339.833,108.82 339.833,106.75C339.833,105.714 338.994,104.875 337.958,104.875Z" style="fill:rgb(201,49,18);fill-rule:nonzero;"/>
            <path d="M337.958,127.125C337.259,127.125 336.655,126.737 336.333,126.169C336.011,126.737 335.408,127.125 334.708,127.125C333.673,127.125 332.833,126.286 332.833,125.25C332.833,123.18 335.782,122.068 336.333,120.75C336.885,122.068 339.833,123.18 339.833,125.25C339.833,126.286 338.994,127.125 337.958,127.125Z" style="fill:rgb(201,49,18);fill-rule:nonzero;"/>
            <path d="M351.958,127.125C351.259,127.125 350.655,126.737 350.333,126.169C350.011,126.737 349.408,127.125 348.708,127.125C347.673,127.125 346.833,126.286 346.833,125.25C346.833,123.18 349.782,122.068 350.333,120.75C350.885,122.068 353.833,123.18 353.833,125.25C353.833,126.286 352.994,127.125 351.958,127.125Z" style="fill:rgb(201,49,18);fill-rule:nonzero;"/>
        </g>
    </g>
</svg>
