<?xml version="1.0" encoding="UTF-8" standalone="no"?>
<!DOCTYPE svg PUBLIC "-//W3C//DTD SVG 1.1//EN" "http://www.w3.org/Graphics/SVG/1.1/DTD/svg11.dtd">
<svg width="100%" height="100%" viewBox="0 0 41 56" version="1.1" xmlns="http://www.w3.org/2000/svg" xmlns:xlink="http://www.w3.org/1999/xlink" xml:space="preserve" xmlns:serif="http://www.serif.com/" style="fill-rule:evenodd;clip-rule:evenodd;stroke-linejoin:round;stroke-miterlimit:2;">
    <g transform="matrix(1,0,0,1,-323,-140)">
        <g>
            <path d="M360.833,196L325.833,196C324.452,196 323.333,194.881 323.333,193.5L323.333,142.5C323.333,141.119 324.452,140 325.833,140L360.833,140C362.214,140 363.333,141.119 363.333,142.5L363.333,193.5C363.333,194.881 362.214,196 360.833,196Z" style="fill:white;fill-rule:nonzero;"/>
            <path d="M329.333,149.77C329.073,150.432 327.772,150.674 327.772,151.69C327.772,152.154 328.148,152.53 328.613,152.53C328.857,152.53 329.075,152.424 329.229,152.257C329.2,152.541 329.106,152.876 328.854,153.13L328.854,153.25L329.813,153.25L329.813,153.13C329.56,152.876 329.466,152.542 329.438,152.258C329.591,152.424 329.809,152.53 330.053,152.53C330.517,152.53 330.893,152.154 330.893,151.69C330.893,150.674 329.593,150.432 329.333,149.77Z" style="fill:rgb(31,31,31);fill-rule:nonzero;"/>
            <path d="M357.334,185.813C357.604,185.124 358.959,184.871 358.959,183.813C358.959,183.329 358.567,182.938 358.084,182.938C357.829,182.938 357.602,183.048 357.442,183.222C357.472,182.926 357.569,182.577 357.833,182.313L357.833,182.188L356.833,182.188L356.833,182.313C357.098,182.577 357.194,182.926 357.225,183.221C357.065,183.048 356.838,182.938 356.584,182.938C356.101,182.938 355.709,183.329 355.709,183.813C355.709,184.871 357.063,185.124 357.334,185.813Z" style="fill:rgb(31,31,31);fill-rule:nonzero;"/>
            <path d="M328.708,145.056C328.708,145.155 328.73,145.244 328.774,145.322L328.958,145.537C329.035,145.602 329.127,145.664 329.232,145.721C329.339,145.778 329.451,145.834 329.571,145.891C329.719,145.796 329.826,145.685 329.892,145.559C329.958,145.433 329.99,145.303 329.99,145.169C329.99,144.964 329.93,144.805 329.808,144.694C329.686,144.582 329.525,144.526 329.327,144.526C329.132,144.526 328.979,144.576 328.871,144.676C328.762,144.776 328.708,144.903 328.708,145.056ZM329.354,147.959C329.578,147.959 329.754,147.901 329.88,147.786C330.006,147.67 330.069,147.526 330.069,147.351C330.069,147.239 330.044,147.141 329.992,147.057L329.787,146.833C329.702,146.768 329.602,146.707 329.487,146.651C329.373,146.596 328.994,146.414 328.967,146.4C328.815,146.495 328.702,146.612 328.628,146.75C328.553,146.889 328.516,147.037 328.516,147.194C328.516,147.322 328.538,147.434 328.584,147.53C328.63,147.626 328.69,147.706 328.768,147.769C328.844,147.832 328.934,147.879 329.035,147.911C329.137,147.943 329.243,147.959 329.354,147.959ZM329.304,148.332C329.085,148.332 328.882,148.307 328.696,148.259C328.51,148.21 328.35,148.141 328.216,148.051C328.082,147.96 327.978,147.849 327.902,147.716C327.826,147.583 327.788,147.433 327.788,147.264C327.788,147.021 327.864,146.807 328.017,146.621C328.169,146.435 328.374,146.299 328.632,146.214C328.46,146.105 328.311,145.972 328.186,145.815C328.061,145.658 327.998,145.464 327.998,145.233C327.998,145.074 328.031,144.929 328.097,144.797C328.163,144.665 328.256,144.553 328.376,144.459C328.496,144.366 328.641,144.294 328.81,144.243C328.979,144.191 329.165,144.166 329.371,144.166C329.563,144.166 329.74,144.188 329.902,144.234C330.063,144.28 330.202,144.344 330.318,144.426C330.434,144.508 330.523,144.607 330.589,144.723C330.653,144.838 330.686,144.966 330.686,145.105C330.686,145.319 330.614,145.511 330.471,145.683C330.327,145.854 330.146,145.982 329.93,146.065C330.056,146.129 330.176,146.197 330.29,146.269C330.404,146.341 330.505,146.421 330.59,146.509C330.675,146.597 330.743,146.698 330.795,146.81C330.847,146.922 330.872,147.05 330.872,147.194C330.872,147.369 330.834,147.526 330.757,147.667C330.681,147.807 330.574,147.927 330.438,148.024C330.301,148.123 330.135,148.198 329.941,148.251C329.747,148.305 329.535,148.332 329.304,148.332Z" style="fill:rgb(31,31,31);fill-rule:nonzero;"/>
            <path d="M357.957,190.444C357.957,190.345 357.935,190.256 357.891,190.178L357.707,189.963C357.629,189.898 357.537,189.836 357.432,189.779C357.326,189.722 357.213,189.666 357.094,189.609C356.945,189.704 356.839,189.815 356.773,189.941C356.707,190.067 356.674,190.197 356.674,190.331C356.674,190.536 356.735,190.695 356.857,190.806C356.979,190.918 357.14,190.974 357.338,190.974C357.533,190.974 357.686,190.924 357.794,190.824C357.902,190.724 357.957,190.597 357.957,190.444ZM357.311,187.541C357.086,187.541 356.91,187.599 356.785,187.714C356.658,187.83 356.596,187.974 356.596,188.149C356.596,188.261 356.621,188.359 356.673,188.443L356.878,188.667C356.963,188.732 357.063,188.793 357.178,188.849C357.292,188.904 357.671,189.086 357.698,189.1C357.85,189.005 357.963,188.888 358.037,188.75C358.111,188.611 358.148,188.463 358.148,188.306C358.148,188.178 358.127,188.066 358.08,187.97C358.035,187.874 357.975,187.794 357.897,187.731C357.82,187.668 357.731,187.621 357.63,187.589C357.527,187.557 357.422,187.541 357.311,187.541ZM357.361,187.168C357.58,187.168 357.783,187.193 357.969,187.241C358.154,187.29 358.314,187.359 358.449,187.449C358.582,187.54 358.688,187.651 358.763,187.784C358.838,187.917 358.877,188.067 358.877,188.236C358.877,188.479 358.801,188.693 358.648,188.879C358.496,189.065 358.291,189.201 358.033,189.286C358.205,189.395 358.354,189.528 358.479,189.685C358.604,189.842 358.667,190.036 358.667,190.267C358.667,190.426 358.634,190.571 358.568,190.703C358.502,190.835 358.409,190.947 358.289,191.041C358.168,191.134 358.023,191.206 357.855,191.257C357.687,191.309 357.5,191.334 357.294,191.334C357.102,191.334 356.925,191.312 356.763,191.266C356.602,191.22 356.463,191.156 356.347,191.074C356.231,190.992 356.141,190.893 356.076,190.777C356.012,190.662 355.979,190.534 355.979,190.395C355.979,190.181 356.051,189.989 356.194,189.817C356.338,189.646 356.518,189.518 356.735,189.435C356.609,189.371 356.488,189.303 356.375,189.231C356.26,189.159 356.16,189.079 356.074,188.991C355.99,188.903 355.922,188.802 355.869,188.69C355.818,188.578 355.793,188.45 355.793,188.306C355.793,188.131 355.831,187.974 355.908,187.833C355.984,187.693 356.091,187.573 356.228,187.476C356.364,187.377 356.529,187.302 356.724,187.249C356.918,187.195 357.13,187.168 357.361,187.168Z" style="fill:rgb(31,31,31);fill-rule:nonzero;"/>
            <path d="M336.332,147.125C335.791,148.503 333.082,149.007 333.082,151.125C333.082,152.091 333.866,152.875 334.832,152.875C335.342,152.875 335.796,152.654 336.116,152.307C336.056,152.897 335.861,153.597 335.333,154.125L335.333,154.375L337.333,154.375L337.333,154.125C336.806,153.597 336.61,152.899 336.55,152.308C336.87,152.654 337.323,152.875 337.832,152.875C338.799,152.875 339.582,152.091 339.582,151.125C339.582,149.007 336.874,148.503 336.332,147.125Z" style="fill:rgb(31,31,31);fill-rule:nonzero;"/>
            <path d="M343.332,155.375C342.791,156.753 340.082,157.257 340.082,159.375C340.082,160.341 340.866,161.125 341.832,161.125C342.342,161.125 342.796,160.904 343.116,160.557C343.056,161.147 342.861,161.847 342.333,162.375L342.333,162.625L344.333,162.625L344.333,162.375C343.806,161.847 343.61,161.149 343.55,160.558C343.87,160.904 344.323,161.125 344.832,161.125C345.799,161.125 346.582,160.341 346.582,159.375C346.582,157.257 343.874,156.753 343.332,155.375Z" style="fill:rgb(31,31,31);fill-rule:nonzero;"/>
            <path d="M343.332,180.125C342.791,178.747 340.082,178.243 340.082,176.125C340.082,175.159 340.866,174.375 341.832,174.375C342.342,174.375 342.796,174.596 343.116,174.943C343.056,174.353 342.861,173.653 342.333,173.125L342.333,172.875L344.333,172.875L344.333,173.125C343.806,173.653 343.61,174.351 343.55,174.942C343.87,174.596 344.323,174.375 344.832,174.375C345.799,174.375 346.582,175.159 346.582,176.125C346.582,178.243 343.874,178.747 343.332,180.125Z" style="fill:rgb(31,31,31);fill-rule:nonzero;"/>
            <path d="M350.332,147.125C349.791,148.503 347.082,149.007 347.082,151.125C347.082,152.091 347.866,152.875 348.832,152.875C349.342,152.875 349.796,152.654 350.116,152.307C350.056,152.897 349.861,153.597 349.333,154.125L349.333,154.375L351.333,154.375L351.333,154.125C350.806,153.597 350.61,152.899 350.55,152.308C350.87,152.654 351.323,152.875 351.832,152.875C352.799,152.875 353.582,152.091 353.582,151.125C353.582,149.007 350.874,148.503 350.332,147.125Z" style="fill:rgb(31,31,31);fill-rule:nonzero;"/>
            <path d="M350.332,163.375C349.791,164.753 347.082,165.257 347.082,167.375C347.082,168.341 347.866,169.125 348.832,169.125C349.342,169.125 349.796,168.904 350.116,168.557C350.056,169.147 349.861,169.847 349.333,170.375L349.333,170.625L351.333,170.625L351.333,170.375C350.806,169.847 350.61,169.149 350.55,168.558C350.87,168.904 351.323,169.125 351.832,169.125C352.799,169.125 353.582,168.341 353.582,167.375C353.582,165.257 350.874,164.753 350.332,163.375Z" style="fill:rgb(31,31,31);fill-rule:nonzero;"/>
            <path d="M336.332,163.375C335.791,164.753 333.082,165.257 333.082,167.375C333.082,168.341 333.866,169.125 334.832,169.125C335.342,169.125 335.796,168.904 336.116,168.557C336.056,169.147 335.861,169.847 335.333,170.375L335.333,170.625L337.333,170.625L337.333,170.375C336.806,169.847 336.61,169.149 336.55,168.558C336.87,168.904 337.323,169.125 337.832,169.125C338.799,169.125 339.582,168.341 339.582,167.375C339.582,165.257 336.874,164.753 336.332,163.375Z" style="fill:rgb(31,31,31);fill-rule:nonzero;"/>
            <path d="M336.332,188.375C335.791,186.997 333.082,186.493 333.082,184.375C333.082,183.409 333.866,182.625 334.832,182.625C335.342,182.625 335.796,182.846 336.116,183.193C336.056,182.603 335.861,181.903 335.333,181.375L335.333,181.125L337.333,181.125L337.333,181.375C336.806,181.903 336.61,182.601 336.55,183.192C336.87,182.846 337.323,182.625 337.832,182.625C338.799,182.625 339.582,183.409 339.582,184.375C339.582,186.493 336.874,186.997 336.332,188.375Z" style="fill:rgb(31,31,31);fill-rule:nonzero;"/>
            <path d="M350.332,188.375C349.791,186.997 347.082,186.493 347.082,184.375C347.082,183.409 347.866,182.625 348.832,182.625C349.342,182.625 349.796,182.846 350.116,183.193C350.056,182.603 349.861,181.903 349.333,181.375L349.333,181.125L351.333,181.125L351.333,181.375C350.806,181.903 350.61,182.601 350.55,183.192C350.87,182.846 351.323,182.625 351.832,182.625C352.799,182.625 353.582,183.409 353.582,184.375C353.582,186.493 350.874,186.997 350.332,188.375Z" style="fill:rgb(31,31,31);fill-rule:nonzero;"/>
        </g>
    </g>
</svg>
