<?xml version="1.0" encoding="UTF-8" standalone="no"?>
<!DOCTYPE svg PUBLIC "-//W3C//DTD SVG 1.1//EN" "http://www.w3.org/Graphics/SVG/1.1/DTD/svg11.dtd">
<svg width="100%" height="100%" viewBox="0 0 41 56" version="1.1" xmlns="http://www.w3.org/2000/svg" xmlns:xlink="http://www.w3.org/1999/xlink" xml:space="preserve" xmlns:serif="http://www.serif.com/" style="fill-rule:evenodd;clip-rule:evenodd;stroke-linejoin:round;stroke-miterlimit:2;">
    <g transform="matrix(1,0,0,1,-366,-200)">
        <g>
            <path d="M404.167,256L369.167,256C367.786,256 366.667,254.881 366.667,253.5L366.667,202.5C366.667,201.119 367.786,200 369.167,200L404.167,200C405.548,200 406.667,201.119 406.667,202.5L406.667,253.5C406.667,254.881 405.548,256 404.167,256Z" style="fill:white;fill-rule:nonzero;"/>
            <path d="M372.667,213.375C372.217,212.673 371.619,212.075 370.917,211.625C371.619,211.175 372.217,210.577 372.667,209.875C373.116,210.577 373.715,211.175 374.417,211.625C373.715,212.075 373.116,212.673 372.667,213.375Z" style="fill:rgb(201,49,18);fill-rule:nonzero;"/>
            <path d="M400.667,241.875C401.116,242.577 401.715,243.175 402.417,243.625C401.715,244.075 401.116,244.673 400.667,245.375C400.217,244.673 399.619,244.075 398.917,243.625C399.619,243.175 400.217,242.577 400.667,241.875Z" style="fill:rgb(201,49,18);fill-rule:nonzero;"/>
            <path d="M372.629,206.249C372.739,206.249 372.861,206.23 372.994,206.193C373.127,206.157 373.241,206.105 373.336,206.039L373.336,205.777C373.336,205.589 373.319,205.412 373.286,205.247C373.254,205.081 373.205,204.937 373.141,204.816C373.077,204.695 372.996,204.599 372.898,204.529C372.8,204.459 372.688,204.425 372.56,204.425C372.45,204.425 372.354,204.448 372.271,204.496L372.063,204.691C372.008,204.773 371.966,204.871 371.938,204.983C371.91,205.096 371.896,205.218 371.896,205.35C371.896,205.627 371.961,205.846 372.091,206.007C372.221,206.168 372.4,206.249 372.629,206.249ZM372.326,208.207C372.131,208.207 371.942,208.179 371.761,208.125C371.579,208.071 371.431,207.994 371.314,207.895L371.457,207.563C371.544,207.612 371.649,207.655 371.772,207.693C371.896,207.731 372.029,207.75 372.175,207.75C372.479,207.75 372.736,207.63 372.946,207.391C373.155,207.151 373.28,206.805 373.321,206.354C373.217,206.462 373.075,206.55 372.898,206.618C372.721,206.686 372.535,206.72 372.341,206.72C372.149,206.72 371.977,206.689 371.824,206.627C371.673,206.565 371.544,206.479 371.44,206.369C371.337,206.26 371.257,206.129 371.2,205.977C371.145,205.824 371.116,205.659 371.116,205.48C371.116,205.275 371.151,205.083 371.221,204.906C371.291,204.729 371.39,204.576 371.518,204.449C371.646,204.322 371.803,204.223 371.987,204.15C372.173,204.077 372.381,204.041 372.611,204.041C372.847,204.041 373.06,204.081 373.252,204.161C373.443,204.242 373.607,204.361 373.742,204.519C373.877,204.677 373.98,204.874 374.055,205.11C374.128,205.345 374.165,205.617 374.165,205.926C374.165,206.279 374.12,206.597 374.029,206.88C373.939,207.163 373.813,207.402 373.651,207.597C373.489,207.792 373.296,207.942 373.069,208.048C372.844,208.154 372.596,208.207 372.326,208.207Z" style="fill:rgb(201,49,18);fill-rule:nonzero;"/>
            <path d="M400.702,249.002C400.592,249.002 400.471,249.02 400.338,249.057C400.205,249.094 400.09,249.145 399.995,249.211L399.995,249.473C399.995,249.66 400.012,249.838 400.045,250.004C400.078,250.17 400.127,250.313 400.19,250.434C400.254,250.555 400.336,250.65 400.434,250.721C400.531,250.791 400.645,250.825 400.771,250.825C400.881,250.825 400.977,250.802 401.061,250.754L401.268,250.559C401.323,250.477 401.365,250.379 401.393,250.267C401.422,250.154 401.436,250.032 401.436,249.9C401.436,249.623 401.371,249.404 401.24,249.242C401.11,249.082 400.932,249.002 400.702,249.002ZM401.005,247.043C401.201,247.043 401.389,247.07 401.57,247.125C401.752,247.18 401.9,247.256 402.018,247.355L401.875,247.687C401.787,247.639 401.682,247.595 401.559,247.557C401.436,247.52 401.302,247.5 401.156,247.5C400.852,247.5 400.595,247.62 400.385,247.859C400.176,248.1 400.051,248.445 400.01,248.896C400.115,248.788 400.256,248.699 400.434,248.632C400.611,248.564 400.797,248.53 400.99,248.53C401.182,248.53 401.354,248.561 401.507,248.623C401.658,248.686 401.787,248.771 401.891,248.881C401.994,248.99 402.074,249.121 402.131,249.273C402.188,249.426 402.215,249.591 402.215,249.77C402.215,249.975 402.18,250.166 402.11,250.344C402.041,250.521 401.941,250.674 401.813,250.801C401.686,250.928 401.529,251.027 401.344,251.1C401.158,251.173 400.951,251.209 400.72,251.209C400.484,251.209 400.271,251.169 400.08,251.089C399.888,251.008 399.725,250.889 399.59,250.73C399.455,250.572 399.351,250.376 399.277,250.141C399.203,249.904 399.166,249.633 399.166,249.324C399.166,248.971 399.211,248.653 399.302,248.37C399.392,248.087 399.518,247.848 399.68,247.652C399.842,247.458 400.035,247.308 400.262,247.202C400.487,247.096 400.735,247.043 401.005,247.043Z" style="fill:rgb(201,49,18);fill-rule:nonzero;"/>
            <path d="M379.667,214.625C378.767,213.221 377.571,212.025 376.167,211.125C377.571,210.225 378.767,209.029 379.667,207.625C380.566,209.029 381.763,210.225 383.167,211.125C381.763,212.025 380.566,213.221 379.667,214.625Z" style="fill:rgb(201,49,18);fill-rule:nonzero;"/>
            <path d="M393.667,214.625C392.767,213.221 391.571,212.025 390.167,211.125C391.571,210.225 392.767,209.029 393.667,207.625C394.566,209.029 395.763,210.225 397.167,211.125C395.763,212.025 394.566,213.221 393.667,214.625Z" style="fill:rgb(201,49,18);fill-rule:nonzero;"/>
            <path d="M386.667,231.125C385.767,229.721 384.571,228.525 383.167,227.625C384.571,226.725 385.767,225.529 386.667,224.125C387.566,225.529 388.763,226.725 390.167,227.625C388.763,228.525 387.566,229.721 386.667,231.125Z" style="fill:rgb(201,49,18);fill-rule:nonzero;"/>
            <path d="M379.667,225.625C378.767,224.221 377.571,223.025 376.167,222.125C377.571,221.225 378.767,220.029 379.667,218.625C380.566,220.029 381.763,221.225 383.167,222.125C381.763,223.025 380.566,224.221 379.667,225.625Z" style="fill:rgb(201,49,18);fill-rule:nonzero;"/>
            <path d="M393.667,225.625C392.767,224.221 391.571,223.025 390.167,222.125C391.571,221.225 392.767,220.029 393.667,218.625C394.566,220.029 395.763,221.225 397.167,222.125C395.763,223.025 394.566,224.221 393.667,225.625Z" style="fill:rgb(201,49,18);fill-rule:nonzero;"/>
            <path d="M383.167,244.125C381.763,245.025 380.566,246.221 379.667,247.625C378.767,246.221 377.571,245.025 376.167,244.125C377.571,243.225 378.767,242.029 379.667,240.625C380.566,242.029 381.763,243.225 383.167,244.125Z" style="fill:rgb(201,49,18);fill-rule:nonzero;"/>
            <path d="M397.167,244.125C395.763,245.025 394.566,246.221 393.667,247.625C392.767,246.221 391.571,245.025 390.167,244.125C391.571,243.225 392.767,242.029 393.667,240.625C394.566,242.029 395.763,243.225 397.167,244.125Z" style="fill:rgb(201,49,18);fill-rule:nonzero;"/>
            <path d="M383.167,233.125C381.763,234.025 380.566,235.221 379.667,236.625C378.767,235.221 377.571,234.025 376.167,233.125C377.571,232.225 378.767,231.029 379.667,229.625C380.566,231.029 381.763,232.225 383.167,233.125Z" style="fill:rgb(201,49,18);fill-rule:nonzero;"/>
            <path d="M397.167,233.125C395.763,234.025 394.566,235.221 393.667,236.625C392.767,235.221 391.571,234.025 390.167,233.125C391.571,232.225 392.767,231.029 393.667,229.625C394.566,231.029 395.763,232.225 397.167,233.125Z" style="fill:rgb(201,49,18);fill-rule:nonzero;"/>
        </g>
    </g>
</svg>
