<?xml version="1.0" encoding="UTF-8" standalone="no"?>
<!DOCTYPE svg PUBLIC "-//W3C//DTD SVG 1.1//EN" "http://www.w3.org/Graphics/SVG/1.1/DTD/svg11.dtd">
<svg width="100%" height="100%" viewBox="0 0 41 56" version="1.1" xmlns="http://www.w3.org/2000/svg" xmlns:xlink="http://www.w3.org/1999/xlink" xml:space="preserve" xmlns:serif="http://www.serif.com/" style="fill-rule:evenodd;clip-rule:evenodd;stroke-linejoin:round;stroke-miterlimit:2;">
    <g transform="matrix(1,0,0,1,-366,-80)">
        <g>
            <path d="M404.167,136L369.167,136C367.786,136 366.667,134.881 366.667,133.5L366.667,82.5C366.667,81.12 367.786,80 369.167,80L404.167,80C405.548,80 406.667,81.12 406.667,82.5L406.667,133.5C406.667,134.881 405.548,136 404.167,136Z" style="fill:white;fill-rule:nonzero;"/>
            <path d="M404.167,136L369.167,136C367.786,136 366.667,134.881 366.667,133.5L366.667,82.5C366.667,81.12 367.786,80 369.167,80L404.167,80C405.548,80 406.667,81.12 406.667,82.5L406.667,133.5C406.667,134.881 405.548,136 404.167,136ZM404.167,135.8L369.167,135.8C367.896,135.8 366.867,134.771 366.867,133.5L366.867,82.5C366.867,81.23 367.896,80.2 369.167,80.2L404.167,80.2C405.438,80.2 406.467,81.23 406.467,82.5L406.467,133.5C406.467,134.771 405.438,135.8 404.167,135.8Z" style="fill:rgb(204,204,204);"/>
            <path d="M373.479,90.5C373.129,90.5 372.827,90.694 372.667,90.978C372.506,90.694 372.204,90.5 371.854,90.5C371.336,90.5 370.917,90.92 370.917,91.438C370.917,92.473 372.391,93.029 372.667,93.688C372.942,93.029 374.417,92.473 374.417,91.438C374.417,90.92 373.997,90.5 373.479,90.5Z" style="fill:rgb(201,49,18);fill-rule:nonzero;"/>
            <path d="M399.854,125.25C400.204,125.25 400.506,125.056 400.667,124.772C400.828,125.056 401.129,125.25 401.479,125.25C401.997,125.25 402.417,124.83 402.417,124.313C402.417,123.277 400.942,122.722 400.667,122.063C400.391,122.722 398.917,123.277 398.917,124.313C398.917,124.83 399.336,125.25 399.854,125.25Z" style="fill:rgb(201,49,18);fill-rule:nonzero;"/>
            <path d="M372.629,86.499C372.739,86.499 372.861,86.481 372.994,86.444C373.127,86.407 373.241,86.355 373.336,86.29L373.336,86.028C373.336,85.84 373.319,85.663 373.286,85.497C373.254,85.331 373.205,85.187 373.141,85.066C373.077,84.945 372.996,84.85 372.898,84.78C372.8,84.71 372.688,84.675 372.56,84.675C372.45,84.675 372.354,84.699 372.271,84.747L372.063,84.941C372.008,85.024 371.966,85.121 371.938,85.234C371.91,85.346 371.896,85.468 371.896,85.6C371.896,85.877 371.961,86.097 372.091,86.258C372.221,86.418 372.4,86.499 372.629,86.499ZM372.326,88.457C372.131,88.457 371.942,88.43 371.761,88.375C371.579,88.321 371.431,88.245 371.314,88.145L371.457,87.814C371.544,87.862 371.649,87.906 371.772,87.943C371.896,87.981 372.029,88 372.175,88C372.479,88 372.736,87.88 372.946,87.641C373.155,87.401 373.28,87.056 373.321,86.604C373.217,86.712 373.075,86.801 372.898,86.869C372.721,86.936 372.535,86.97 372.341,86.97C372.149,86.97 371.977,86.939 371.824,86.877C371.673,86.815 371.544,86.729 371.44,86.62C371.337,86.51 371.257,86.379 371.2,86.227C371.145,86.075 371.116,85.91 371.116,85.731C371.116,85.525 371.151,85.334 371.221,85.157C371.291,84.979 371.39,84.827 371.518,84.7C371.646,84.573 371.803,84.473 371.987,84.4C372.173,84.328 372.381,84.291 372.611,84.291C372.847,84.291 373.06,84.332 373.252,84.412C373.443,84.492 373.607,84.612 373.742,84.769C373.877,84.928 373.98,85.124 374.055,85.36C374.128,85.596 374.165,85.868 374.165,86.176C374.165,86.529 374.12,86.847 374.029,87.13C373.939,87.414 373.813,87.652 373.651,87.848C373.489,88.042 373.296,88.193 373.069,88.298C372.844,88.404 372.596,88.457 372.326,88.457Z" style="fill:rgb(201,49,18);fill-rule:nonzero;"/>
            <path d="M400.702,129.251C400.592,129.251 400.471,129.27 400.338,129.307C400.205,129.343 400.09,129.395 399.995,129.461L399.995,129.723C399.995,129.911 400.012,130.088 400.045,130.253C400.078,130.419 400.127,130.563 400.19,130.684C400.254,130.805 400.336,130.901 400.434,130.971C400.531,131.041 400.645,131.075 400.771,131.075C400.881,131.075 400.977,131.052 401.061,131.004L401.268,130.809C401.323,130.727 401.365,130.629 401.393,130.517C401.422,130.404 401.436,130.282 401.436,130.15C401.436,129.873 401.371,129.654 401.24,129.493C401.11,129.332 400.932,129.251 400.702,129.251ZM401.005,127.293C401.201,127.293 401.389,127.321 401.57,127.375C401.752,127.429 401.9,127.506 402.018,127.605L401.875,127.937C401.787,127.888 401.682,127.845 401.559,127.807C401.436,127.769 401.302,127.75 401.156,127.75C400.852,127.75 400.595,127.87 400.385,128.109C400.176,128.349 400.051,128.695 400.01,129.146C400.115,129.038 400.256,128.95 400.434,128.882C400.611,128.814 400.797,128.78 400.99,128.78C401.182,128.78 401.354,128.811 401.507,128.873C401.658,128.935 401.787,129.021 401.891,129.131C401.994,129.24 402.074,129.371 402.131,129.523C402.188,129.676 402.215,129.841 402.215,130.02C402.215,130.225 402.18,130.417 402.11,130.594C402.041,130.771 401.941,130.924 401.813,131.051C401.686,131.178 401.529,131.277 401.344,131.35C401.158,131.423 400.951,131.459 400.72,131.459C400.484,131.459 400.271,131.419 400.08,131.339C399.888,131.258 399.725,131.139 399.59,130.981C399.455,130.823 399.351,130.626 399.277,130.39C399.203,130.155 399.166,129.883 399.166,129.574C399.166,129.221 399.211,128.903 399.302,128.62C399.392,128.337 399.518,128.098 399.68,127.903C399.842,127.708 400.035,127.558 400.262,127.452C400.487,127.346 400.735,127.293 401.005,127.293Z" style="fill:rgb(201,49,18);fill-rule:nonzero;"/>
            <path d="M381.292,88.625C380.592,88.625 379.989,89.013 379.667,89.582C379.345,89.013 378.741,88.625 378.042,88.625C377.006,88.625 376.167,89.465 376.167,90.5C376.167,92.571 379.115,93.682 379.667,95C380.218,93.682 383.167,92.571 383.167,90.5C383.167,89.465 382.327,88.625 381.292,88.625Z" style="fill:rgb(201,49,18);fill-rule:nonzero;"/>
            <path d="M395.292,88.625C394.592,88.625 393.989,89.013 393.667,89.582C393.345,89.013 392.741,88.625 392.042,88.625C391.006,88.625 390.167,89.465 390.167,90.5C390.167,92.571 393.115,93.682 393.667,95C394.218,93.682 397.167,92.571 397.167,90.5C397.167,89.465 396.327,88.625 395.292,88.625Z" style="fill:rgb(201,49,18);fill-rule:nonzero;"/>
            <path d="M388.292,105.125C387.592,105.125 386.989,105.513 386.667,106.081C386.345,105.513 385.741,105.125 385.042,105.125C384.006,105.125 383.167,105.964 383.167,107C383.167,109.07 386.115,110.182 386.667,111.5C387.218,110.182 390.167,109.07 390.167,107C390.167,105.964 389.327,105.125 388.292,105.125Z" style="fill:rgb(201,49,18);fill-rule:nonzero;"/>
            <path d="M381.292,99.625C380.592,99.625 379.989,100.013 379.667,100.581C379.345,100.013 378.741,99.625 378.042,99.625C377.006,99.625 376.167,100.464 376.167,101.5C376.167,103.57 379.115,104.682 379.667,106C380.218,104.682 383.167,103.57 383.167,101.5C383.167,100.464 382.327,99.625 381.292,99.625Z" style="fill:rgb(201,49,18);fill-rule:nonzero;"/>
            <path d="M395.292,99.625C394.592,99.625 393.989,100.013 393.667,100.581C393.345,100.013 392.741,99.625 392.042,99.625C391.006,99.625 390.167,100.464 390.167,101.5C390.167,103.57 393.115,104.682 393.667,106C394.218,104.682 397.167,103.57 397.167,101.5C397.167,100.464 396.327,99.625 395.292,99.625Z" style="fill:rgb(201,49,18);fill-rule:nonzero;"/>
            <path d="M381.292,127.125C380.592,127.125 379.989,126.737 379.667,126.169C379.345,126.737 378.741,127.125 378.042,127.125C377.006,127.125 376.167,126.286 376.167,125.25C376.167,123.18 379.115,122.068 379.667,120.75C380.218,122.068 383.167,123.18 383.167,125.25C383.167,126.286 382.327,127.125 381.292,127.125Z" style="fill:rgb(201,49,18);fill-rule:nonzero;"/>
            <path d="M395.292,127.125C394.592,127.125 393.989,126.737 393.667,126.169C393.345,126.737 392.741,127.125 392.042,127.125C391.006,127.125 390.167,126.286 390.167,125.25C390.167,123.18 393.115,122.068 393.667,120.75C394.218,122.068 397.167,123.18 397.167,125.25C397.167,126.286 396.327,127.125 395.292,127.125Z" style="fill:rgb(201,49,18);fill-rule:nonzero;"/>
            <path d="M381.292,116.125C380.592,116.125 379.989,115.737 379.667,115.169C379.345,115.737 378.741,116.125 378.042,116.125C377.006,116.125 376.167,115.286 376.167,114.25C376.167,112.18 379.115,111.068 379.667,109.75C380.218,111.068 383.167,112.18 383.167,114.25C383.167,115.286 382.327,116.125 381.292,116.125Z" style="fill:rgb(201,49,18);fill-rule:nonzero;"/>
            <path d="M395.292,116.125C394.592,116.125 393.989,115.737 393.667,115.169C393.345,115.737 392.741,116.125 392.042,116.125C391.006,116.125 390.167,115.286 390.167,114.25C390.167,112.18 393.115,111.068 393.667,109.75C394.218,111.068 397.167,112.18 397.167,114.25C397.167,115.286 396.327,116.125 395.292,116.125Z" style="fill:rgb(201,49,18);fill-rule:nonzero;"/>
        </g>
    </g>
</svg>
