<?xml version="1.0" encoding="UTF-8" standalone="no"?>
<!DOCTYPE svg PUBLIC "-//W3C//DTD SVG 1.1//EN" "http://www.w3.org/Graphics/SVG/1.1/DTD/svg11.dtd">
<svg width="100%" height="100%" viewBox="0 0 40 56" version="1.1" xmlns="http://www.w3.org/2000/svg" xmlns:xlink="http://www.w3.org/1999/xlink" xml:space="preserve" xmlns:serif="http://www.serif.com/" style="fill-rule:evenodd;clip-rule:evenodd;stroke-linejoin:round;stroke-miterlimit:2;">
    <g transform="matrix(1,0,0,1,-410,-20)">
        <g>
            <path d="M447.5,76L412.5,76C411.119,76 410,74.881 410,73.5L410,22.5C410,21.12 411.119,20 412.5,20L447.5,20C448.881,20 450,21.12 450,22.5L450,73.5C450,74.881 448.881,76 447.5,76Z" style="fill:white;fill-rule:nonzero;"/>
            <path d="M447.5,76L412.5,76C411.119,76 410,74.881 410,73.5L410,22.5C410,21.12 411.119,20 412.5,20L447.5,20C448.881,20 450,21.12 450,22.5L450,73.5C450,74.881 448.881,76 447.5,76ZM447.5,75.8L412.5,75.8C411.229,75.8 410.2,74.771 410.2,73.5L410.2,22.5C410.2,21.23 411.229,20.2 412.5,20.2L447.5,20.2C448.771,20.2 449.8,21.23 449.8,22.5C449.8,22.5 449.8,73.5 449.8,73.5C449.8,74.771 448.771,75.8 447.5,75.8Z" style="fill:rgb(204,204,204);"/>
            <path d="M417.53,31.533C417.237,31.24 416.763,31.24 416.47,31.533L416.147,31.854C416.229,31.566 416.394,31.418 416.53,31.281C416.823,30.988 416.823,30.513 416.53,30.22C416.384,30.074 416.193,30.001 416.002,30C415.811,30.001 415.615,30.074 415.47,30.22C415.177,30.513 415.177,30.988 415.47,31.281C415.606,31.418 415.771,31.566 415.853,31.854L415.53,31.533C415.237,31.24 414.763,31.24 414.47,31.533C414.177,31.826 414.177,32.3 414.47,32.593C414.763,32.886 415.237,32.886 415.53,32.593L415.9,32.223L415.902,32.244C415.908,32.568 415.857,33.081 415.5,33.438L415.5,33.563L416.5,33.563L416.5,33.438C416.145,33.082 416.091,32.574 416.097,32.249L416.099,32.223L416.47,32.593C416.763,32.886 417.237,32.886 417.53,32.593C417.823,32.3 417.823,31.826 417.53,31.533Z" style="fill:rgb(31,31,31);fill-rule:nonzero;"/>
            <path d="M442.47,64.468C442.763,64.761 443.237,64.761 443.53,64.468L443.853,64.146C443.771,64.435 443.606,64.583 443.47,64.72C443.177,65.013 443.177,65.488 443.47,65.781C443.615,65.927 443.807,66 443.998,66C444.189,66 444.385,65.927 444.53,65.781C444.823,65.488 444.823,65.013 444.53,64.72C444.394,64.583 444.229,64.435 444.147,64.146L444.47,64.468C444.763,64.761 445.237,64.761 445.53,64.468C445.823,64.175 445.823,63.701 445.53,63.408C445.237,63.115 444.763,63.115 444.47,63.408L444.099,63.778L444.098,63.757C444.091,63.433 444.143,62.92 444.5,62.563L444.5,62.438L443.5,62.438L443.5,62.563C443.855,62.918 443.908,63.427 443.902,63.752L443.9,63.778L443.53,63.408C443.237,63.115 442.763,63.115 442.47,63.408C442.177,63.701 442.177,64.175 442.47,64.468Z" style="fill:rgb(31,31,31);fill-rule:nonzero;"/>
            <path d="M414.585,24.483L414.585,27.901L414.624,28.018L414.736,28.07L415.323,28.166L415.323,28.5L412.99,28.5L412.99,28.166L413.665,28.07L413.787,28.016L413.834,27.901L413.834,25.207L413.67,25.252L413.456,25.299L413.229,25.338L413.028,25.362L412.958,25.004C413.065,24.978 413.176,24.945 413.29,24.902C413.404,24.859 413.516,24.811 413.623,24.759C413.73,24.707 413.833,24.65 413.929,24.589C414.024,24.528 414.108,24.468 414.181,24.407L414.585,24.483Z" style="fill:rgb(31,31,31);fill-rule:nonzero;"/>
            <path d="M417.371,24.794C417.115,24.794 416.934,24.925 416.826,25.186C416.718,25.446 416.664,25.844 416.664,26.377C416.664,26.951 416.718,27.396 416.826,27.713C416.934,28.031 417.132,28.189 417.421,28.189C417.675,28.189 417.856,28.058 417.965,27.796C418.073,27.535 418.128,27.138 418.128,26.606C418.128,26.031 418.074,25.584 417.966,25.269C417.858,24.953 417.66,24.794 417.371,24.794ZM417.351,28.573C417.061,28.573 416.816,28.519 416.619,28.412C416.423,28.304 416.265,28.158 416.146,27.974C416.028,27.79 415.943,27.574 415.892,27.325C415.841,27.077 415.815,26.813 415.815,26.534C415.815,26.179 415.854,25.868 415.932,25.602C416.009,25.335 416.118,25.114 416.26,24.94C416.401,24.765 416.573,24.634 416.775,24.547C416.977,24.46 417.199,24.416 417.444,24.416C417.733,24.416 417.976,24.47 418.173,24.576C418.369,24.683 418.527,24.828 418.646,25.011C418.767,25.194 418.851,25.41 418.901,25.658C418.952,25.907 418.978,26.17 418.978,26.45C418.978,26.809 418.938,27.122 418.86,27.389C418.783,27.657 418.674,27.878 418.532,28.052C418.391,28.227 418.22,28.357 418.019,28.444C417.818,28.53 417.596,28.573 417.351,28.573Z" style="fill:rgb(31,31,31);fill-rule:nonzero;"/>
            <path d="M445.412,71.518L445.412,68.1L445.373,67.983L445.262,67.931L444.674,67.835L444.674,67.5L447.007,67.5L447.007,67.835L446.332,67.931L446.21,67.985L446.163,68.1L446.163,70.793L446.328,70.748L446.541,70.702L446.768,70.663L446.969,70.639L447.039,70.997C446.932,71.022 446.822,71.056 446.707,71.099C446.593,71.142 446.482,71.189 446.374,71.242C446.267,71.294 446.164,71.351 446.068,71.412C445.973,71.473 445.889,71.533 445.816,71.594L445.412,71.518Z" style="fill:rgb(31,31,31);fill-rule:nonzero;"/>
            <path d="M442.626,71.207C442.882,71.207 443.064,71.076 443.172,70.815C443.279,70.555 443.333,70.157 443.333,69.624C443.333,69.05 443.279,68.604 443.172,68.288C443.064,67.97 442.865,67.811 442.576,67.811C442.322,67.811 442.141,67.943 442.033,68.205C441.924,68.466 441.869,68.863 441.869,69.394C441.869,69.97 441.924,70.416 442.031,70.732C442.139,71.048 442.337,71.207 442.626,71.207ZM442.646,67.428C442.938,67.428 443.182,67.481 443.378,67.589C443.574,67.697 443.732,67.843 443.851,68.027C443.969,68.211 444.054,68.427 444.105,68.676C444.156,68.924 444.182,69.188 444.182,69.467C444.182,69.822 444.144,70.133 444.066,70.399C443.988,70.666 443.879,70.887 443.737,71.061C443.596,71.236 443.424,71.367 443.223,71.454C443.021,71.541 442.798,71.585 442.553,71.585C442.264,71.585 442.021,71.531 441.824,71.425C441.628,71.318 441.47,71.173 441.351,70.99C441.23,70.807 441.146,70.591 441.096,70.343C441.045,70.094 441.02,69.831 441.02,69.551C441.02,69.192 441.059,68.879 441.137,68.612C441.215,68.344 441.324,68.123 441.465,67.949C441.607,67.774 441.777,67.644 441.979,67.557C442.18,67.471 442.402,67.428 442.646,67.428Z" style="fill:rgb(31,31,31);fill-rule:nonzero;"/>
            <path d="M426.061,30.565C425.475,29.979 424.525,29.979 423.939,30.565L423.296,31.208C423.457,30.631 423.787,30.335 424.061,30.061C424.646,29.475 424.646,28.525 424.061,27.94C423.769,27.648 423.387,27.501 423.004,27.5C422.621,27.501 422.231,27.648 421.939,27.94C421.354,28.525 421.354,29.475 421.939,30.061C422.213,30.335 422.543,30.631 422.704,31.208L422.061,30.565C421.475,29.979 420.525,29.979 419.939,30.565C419.354,31.151 419.354,32.101 419.939,32.686C420.525,33.272 421.475,33.272 422.061,32.686L422.802,31.945L422.804,31.986C422.817,32.636 422.715,33.661 422,34.375L422,34.625L424,34.625L424,34.375C423.289,33.665 423.183,32.647 423.194,31.997L423.198,31.945L423.939,32.686C424.525,33.272 425.475,33.272 426.061,32.686C426.646,32.101 426.646,31.15 426.061,30.565Z" style="fill:rgb(31,31,31);fill-rule:nonzero;"/>
            <path d="M440.061,30.565C439.475,29.979 438.525,29.979 437.939,30.565L437.296,31.208C437.457,30.631 437.787,30.335 438.061,30.061C438.646,29.475 438.646,28.525 438.061,27.94C437.769,27.648 437.387,27.501 437.004,27.5C436.621,27.501 436.231,27.648 435.939,27.94C435.354,28.525 435.354,29.475 435.939,30.061C436.213,30.335 436.543,30.631 436.704,31.208L436.061,30.565C435.475,29.979 434.525,29.979 433.939,30.565C433.354,31.151 433.354,32.101 433.939,32.686C434.525,33.272 435.475,33.272 436.061,32.686L436.802,31.945L436.804,31.986C436.817,32.636 436.715,33.661 436,34.375L436,34.625L438,34.625L438,34.375C437.289,33.665 437.183,32.647 437.194,31.997L437.198,31.945L437.939,32.686C438.525,33.272 439.475,33.272 440.061,32.686C440.646,32.101 440.646,31.15 440.061,30.565Z" style="fill:rgb(31,31,31);fill-rule:nonzero;"/>
            <path d="M433.061,36.315C432.475,35.729 431.525,35.729 430.939,36.315L430.296,36.958C430.457,36.381 430.787,36.085 431.061,35.811C431.646,35.225 431.646,34.275 431.061,33.69C430.769,33.398 430.387,33.251 430.004,33.25C429.621,33.251 429.231,33.398 428.939,33.69C428.354,34.275 428.354,35.225 428.939,35.811C429.213,36.085 429.543,36.381 429.704,36.958L429.061,36.315C428.475,35.729 427.525,35.729 426.939,36.315C426.354,36.901 426.354,37.851 426.939,38.436C427.525,39.022 428.475,39.022 429.061,38.436L429.802,37.695L429.804,37.736C429.817,38.386 429.715,39.411 429,40.125L429,40.375L431,40.375L431,40.125C430.289,39.415 430.183,38.397 430.194,37.747L430.198,37.695L430.939,38.436C431.525,39.022 432.475,39.022 433.061,38.436C433.646,37.851 433.646,36.9 433.061,36.315Z" style="fill:rgb(31,31,31);fill-rule:nonzero;"/>
            <path d="M426.061,41.565C425.475,40.979 424.525,40.979 423.939,41.565L423.296,42.208C423.457,41.631 423.787,41.335 424.061,41.061C424.646,40.475 424.646,39.525 424.061,38.94C423.769,38.648 423.387,38.501 423.004,38.5C422.621,38.501 422.231,38.648 421.939,38.94C421.354,39.525 421.354,40.475 421.939,41.061C422.213,41.335 422.543,41.631 422.704,42.208L422.061,41.565C421.475,40.979 420.525,40.979 419.939,41.565C419.354,42.151 419.354,43.101 419.939,43.686C420.525,44.272 421.475,44.272 422.061,43.686L422.802,42.945L422.804,42.986C422.817,43.636 422.715,44.661 422,45.375L422,45.625L424,45.625L424,45.375C423.289,44.665 423.183,43.647 423.194,42.997L423.198,42.945L423.939,43.686C424.525,44.272 425.475,44.272 426.061,43.686C426.646,43.101 426.646,42.15 426.061,41.565Z" style="fill:rgb(31,31,31);fill-rule:nonzero;"/>
            <path d="M440.061,41.565C439.475,40.979 438.525,40.979 437.939,41.565L437.296,42.208C437.457,41.631 437.787,41.335 438.061,41.061C438.646,40.475 438.646,39.525 438.061,38.94C437.769,38.648 437.387,38.501 437.004,38.5C436.621,38.501 436.231,38.648 435.939,38.94C435.354,39.525 435.354,40.475 435.939,41.061C436.213,41.335 436.543,41.631 436.704,42.208L436.061,41.565C435.475,40.979 434.525,40.979 433.939,41.565C433.354,42.151 433.354,43.101 433.939,43.686C434.525,44.272 435.475,44.272 436.061,43.686L436.802,42.945L436.804,42.986C436.817,43.636 436.715,44.661 436,45.375L436,45.625L438,45.625L438,45.375C437.289,44.665 437.183,43.647 437.194,42.997L437.198,42.945L437.939,43.686C438.525,44.272 439.475,44.272 440.061,43.686C440.646,43.101 440.646,42.15 440.061,41.565Z" style="fill:rgb(31,31,31);fill-rule:nonzero;"/>
            <path d="M426.061,65.436C425.475,66.022 424.525,66.022 423.939,65.436L423.296,64.792C423.457,65.37 423.787,65.666 424.061,65.94C424.646,66.526 424.646,67.476 424.061,68.061C423.769,68.353 423.387,68.499 423.004,68.5C422.621,68.499 422.231,68.353 421.939,68.061C421.354,67.476 421.354,66.526 421.939,65.94C422.213,65.666 422.543,65.37 422.704,64.792L422.061,65.436C421.475,66.022 420.525,66.022 419.939,65.436C419.354,64.85 419.354,63.9 419.939,63.315C420.525,62.729 421.475,62.729 422.061,63.315L422.802,64.056L422.804,64.015C422.817,63.365 422.715,62.34 422,61.625L422,61.375L424,61.375L424,61.625C423.289,62.336 423.183,63.353 423.194,64.004L423.198,64.056L423.939,63.315C424.525,62.729 425.475,62.729 426.061,63.315C426.646,63.9 426.646,64.851 426.061,65.436Z" style="fill:rgb(31,31,31);fill-rule:nonzero;"/>
            <path d="M440.061,65.436C439.475,66.022 438.525,66.022 437.939,65.436L437.296,64.792C437.457,65.37 437.787,65.666 438.061,65.94C438.646,66.526 438.646,67.476 438.061,68.061C437.769,68.353 437.387,68.499 437.004,68.5C436.621,68.499 436.231,68.353 435.939,68.061C435.354,67.476 435.354,66.526 435.939,65.94C436.213,65.666 436.543,65.37 436.704,64.792L436.061,65.436C435.475,66.022 434.525,66.022 433.939,65.436C433.354,64.85 433.354,63.9 433.939,63.315C434.525,62.729 435.475,62.729 436.061,63.315L436.802,64.056L436.804,64.015C436.817,63.365 436.715,62.34 436,61.625L436,61.375L438,61.375L438,61.625C437.289,62.336 437.183,63.353 437.194,64.004L437.198,64.056L437.939,63.315C438.525,62.729 439.475,62.729 440.061,63.315C440.646,63.9 440.646,64.851 440.061,65.436Z" style="fill:rgb(31,31,31);fill-rule:nonzero;"/>
            <path d="M433.061,59.686C432.475,60.272 431.525,60.272 430.939,59.686L430.296,59.042C430.457,59.62 430.787,59.916 431.061,60.19C431.646,60.776 431.646,61.726 431.061,62.311C430.769,62.603 430.387,62.749 430.004,62.75C429.621,62.749 429.231,62.603 428.939,62.311C428.354,61.726 428.354,60.776 428.939,60.19C429.213,59.916 429.543,59.62 429.704,59.042L429.061,59.686C428.475,60.272 427.525,60.272 426.939,59.686C426.354,59.1 426.354,58.15 426.939,57.565C427.525,56.979 428.475,56.979 429.061,57.565L429.802,58.306L429.804,58.265C429.817,57.615 429.715,56.59 429,55.875L429,55.625L431,55.625L431,55.875C430.289,56.586 430.183,57.603 430.194,58.254L430.198,58.306L430.939,57.565C431.525,56.979 432.475,56.979 433.061,57.565C433.646,58.15 433.646,59.101 433.061,59.686Z" style="fill:rgb(31,31,31);fill-rule:nonzero;"/>
            <path d="M426.061,54.436C425.475,55.022 424.525,55.022 423.939,54.436L423.296,53.792C423.457,54.37 423.787,54.666 424.061,54.94C424.646,55.526 424.646,56.476 424.061,57.061C423.769,57.353 423.387,57.499 423.004,57.5C422.621,57.499 422.231,57.353 421.939,57.061C421.354,56.476 421.354,55.526 421.939,54.94C422.213,54.666 422.543,54.37 422.704,53.792L422.061,54.436C421.475,55.022 420.525,55.022 419.939,54.436C419.354,53.85 419.354,52.9 419.939,52.315C420.525,51.729 421.475,51.729 422.061,52.315L422.802,53.056L422.804,53.015C422.817,52.365 422.715,51.34 422,50.625L422,50.375L424,50.375L424,50.625C423.289,51.336 423.183,52.353 423.194,53.004L423.198,53.056L423.939,52.315C424.525,51.729 425.475,51.729 426.061,52.315C426.646,52.9 426.646,53.851 426.061,54.436Z" style="fill:rgb(31,31,31);fill-rule:nonzero;"/>
            <path d="M440.061,54.436C439.475,55.022 438.525,55.022 437.939,54.436L437.296,53.792C437.457,54.37 437.787,54.666 438.061,54.94C438.646,55.526 438.646,56.476 438.061,57.061C437.769,57.353 437.387,57.499 437.004,57.5C436.621,57.499 436.231,57.353 435.939,57.061C435.354,56.476 435.354,55.526 435.939,54.94C436.213,54.666 436.543,54.37 436.704,53.792L436.061,54.436C435.475,55.022 434.525,55.022 433.939,54.436C433.354,53.85 433.354,52.9 433.939,52.315C434.525,51.729 435.475,51.729 436.061,52.315L436.802,53.056L436.804,53.015C436.817,52.365 436.715,51.34 436,50.625L436,50.375L438,50.375L438,50.625C437.289,51.336 437.183,52.353 437.194,53.004L437.198,53.056L437.939,52.315C438.525,51.729 439.475,51.729 440.061,52.315C440.646,52.9 440.646,53.851 440.061,54.436Z" style="fill:rgb(31,31,31);fill-rule:nonzero;"/>
        </g>
    </g>
</svg>
