<?xml version="1.0" encoding="UTF-8" standalone="no"?>
<!DOCTYPE svg PUBLIC "-//W3C//DTD SVG 1.1//EN" "http://www.w3.org/Graphics/SVG/1.1/DTD/svg11.dtd">
<svg width="100%" height="100%" viewBox="0 0 40 56" version="1.1" xmlns="http://www.w3.org/2000/svg" xmlns:xlink="http://www.w3.org/1999/xlink" xml:space="preserve" xmlns:serif="http://www.serif.com/" style="fill-rule:evenodd;clip-rule:evenodd;stroke-linejoin:round;stroke-miterlimit:2;">
    <g transform="matrix(1,0,0,1,-410,-200)">
        <g>
            <path d="M447.5,256L412.5,256C411.119,256 410,254.881 410,253.5L410,202.5C410,201.119 411.119,200 412.5,200L447.5,200C448.881,200 450,201.119 450,202.5L450,253.5C450,254.881 448.881,256 447.5,256Z" style="fill:white;fill-rule:nonzero;"/>
            <path d="M416,213.375C415.55,212.673 414.952,212.075 414.25,211.625C414.952,211.175 415.55,210.577 416,209.875C416.45,210.577 417.048,211.175 417.75,211.625C417.048,212.075 416.45,212.673 416,213.375Z" style="fill:rgb(201,49,18);fill-rule:nonzero;"/>
            <path d="M444,241.875C444.45,242.577 445.048,243.175 445.75,243.625C445.048,244.075 444.45,244.673 444,245.375C443.55,244.673 442.952,244.075 442.25,243.625C442.952,243.175 443.55,242.577 444,241.875Z" style="fill:rgb(201,49,18);fill-rule:nonzero;"/>
            <path d="M414.585,204.107L414.585,207.526L414.624,207.642L414.736,207.694L415.323,207.791L415.323,208.125L412.99,208.125L412.99,207.791L413.665,207.694L413.787,207.641L413.834,207.526L413.834,204.832L413.67,204.877L413.456,204.923L413.229,204.963L413.028,204.986L412.958,204.628C413.065,204.603 413.176,204.569 413.29,204.526C413.404,204.484 413.516,204.436 413.623,204.384C413.73,204.332 413.833,204.275 413.929,204.214C414.024,204.153 414.108,204.092 414.181,204.032L414.585,204.107Z" style="fill:rgb(201,49,18);fill-rule:nonzero;"/>
            <path d="M417.371,204.419C417.115,204.419 416.934,204.549 416.826,204.81C416.718,205.071 416.664,205.468 416.664,206.001C416.664,206.576 416.718,207.021 416.826,207.338C416.934,207.655 417.132,207.814 417.421,207.814C417.675,207.814 417.856,207.683 417.965,207.421C418.073,207.159 418.128,206.763 418.128,206.231C418.128,205.655 418.074,205.209 417.966,204.893C417.858,204.577 417.66,204.419 417.371,204.419ZM417.351,208.198C417.061,208.198 416.816,208.144 416.619,208.036C416.423,207.929 416.265,207.783 416.146,207.599C416.028,207.414 415.943,207.198 415.892,206.95C415.841,206.702 415.815,206.438 415.815,206.159C415.815,205.804 415.854,205.493 415.932,205.226C416.009,204.959 416.118,204.739 416.26,204.564C416.401,204.39 416.573,204.259 416.775,204.171C416.977,204.084 417.199,204.041 417.444,204.041C417.733,204.041 417.976,204.094 418.173,204.201C418.369,204.307 418.527,204.452 418.646,204.636C418.767,204.819 418.851,205.035 418.901,205.283C418.952,205.531 418.978,205.795 418.978,206.074C418.978,206.433 418.938,206.746 418.86,207.014C418.783,207.281 418.674,207.502 418.532,207.677C418.391,207.852 418.22,207.982 418.019,208.068C417.818,208.155 417.596,208.198 417.351,208.198Z" style="fill:rgb(201,49,18);fill-rule:nonzero;"/>
            <path d="M445.412,251.143L445.412,247.725L445.373,247.607L445.262,247.556L444.674,247.459L444.674,247.125L447.007,247.125L447.007,247.459L446.332,247.556L446.21,247.609L446.163,247.725L446.163,250.418L446.328,250.373L446.541,250.326L446.768,250.287L446.969,250.264L447.039,250.621C446.932,250.646 446.822,250.681 446.707,250.724C446.593,250.766 446.482,250.814 446.374,250.866C446.267,250.918 446.164,250.975 446.068,251.036C445.973,251.098 445.889,251.158 445.816,251.219L445.412,251.143Z" style="fill:rgb(201,49,18);fill-rule:nonzero;"/>
            <path d="M442.626,250.831C442.882,250.831 443.064,250.701 443.172,250.439C443.279,250.18 443.333,249.781 443.333,249.248C443.333,248.674 443.279,248.229 443.172,247.912C443.064,247.595 442.865,247.436 442.576,247.436C442.322,247.436 442.141,247.567 442.033,247.829C441.924,248.091 441.869,248.487 441.869,249.02C441.869,249.595 441.924,250.041 442.031,250.357C442.139,250.673 442.337,250.831 442.626,250.831ZM442.646,247.053C442.938,247.053 443.182,247.105 443.378,247.214C443.574,247.321 443.732,247.467 443.851,247.651C443.969,247.836 444.054,248.052 444.105,248.301C444.156,248.549 444.182,248.813 444.182,249.092C444.182,249.446 444.144,249.758 444.066,250.023C443.988,250.291 443.879,250.512 443.737,250.686C443.596,250.86 443.424,250.991 443.223,251.078C443.021,251.166 442.798,251.209 442.553,251.209C442.264,251.209 442.021,251.156 441.824,251.049C441.628,250.943 441.47,250.798 441.351,250.614C441.23,250.432 441.146,250.215 441.096,249.967C441.045,249.719 441.02,249.455 441.02,249.176C441.02,248.816 441.059,248.504 441.137,248.236C441.215,247.969 441.324,247.748 441.465,247.573C441.607,247.398 441.777,247.268 441.979,247.182C442.18,247.096 442.402,247.053 442.646,247.053Z" style="fill:rgb(201,49,18);fill-rule:nonzero;"/>
            <path d="M423,214.625C422.1,213.221 420.904,212.025 419.5,211.125C420.904,210.225 422.1,209.029 423,207.625C423.9,209.029 425.096,210.225 426.5,211.125C425.096,212.025 423.9,213.221 423,214.625Z" style="fill:rgb(201,49,18);fill-rule:nonzero;"/>
            <path d="M437,214.625C436.1,213.221 434.904,212.025 433.5,211.125C434.904,210.225 436.1,209.029 437,207.625C437.9,209.029 439.096,210.225 440.5,211.125C439.096,212.025 437.9,213.221 437,214.625Z" style="fill:rgb(201,49,18);fill-rule:nonzero;"/>
            <path d="M430,220.375C429.1,218.971 427.904,217.775 426.5,216.875C427.904,215.975 429.1,214.779 430,213.375C430.9,214.779 432.096,215.975 433.5,216.875C432.096,217.775 430.9,218.971 430,220.375Z" style="fill:rgb(201,49,18);fill-rule:nonzero;"/>
            <path d="M423,225.625C422.1,224.221 420.904,223.025 419.5,222.125C420.904,221.225 422.1,220.029 423,218.625C423.9,220.029 425.096,221.225 426.5,222.125C425.096,223.025 423.9,224.221 423,225.625Z" style="fill:rgb(201,49,18);fill-rule:nonzero;"/>
            <path d="M437,225.625C436.1,224.221 434.904,223.025 433.5,222.125C434.904,221.225 436.1,220.029 437,218.625C437.9,220.029 439.096,221.225 440.5,222.125C439.096,223.025 437.9,224.221 437,225.625Z" style="fill:rgb(201,49,18);fill-rule:nonzero;"/>
            <path d="M426.5,244.125C425.096,245.025 423.9,246.221 423,247.625C422.1,246.221 420.904,245.025 419.5,244.125C420.904,243.225 422.1,242.029 423,240.625C423.9,242.029 425.096,243.225 426.5,244.125Z" style="fill:rgb(201,49,18);fill-rule:nonzero;"/>
            <path d="M440.5,244.125C439.096,245.025 437.9,246.221 437,247.625C436.1,246.221 434.904,245.025 433.5,244.125C434.904,243.225 436.1,242.029 437,240.625C437.9,242.029 439.096,243.225 440.5,244.125Z" style="fill:rgb(201,49,18);fill-rule:nonzero;"/>
            <path d="M433.5,238.375C432.096,239.275 430.9,240.471 430,241.875C429.1,240.471 427.904,239.275 426.5,238.375C427.904,237.475 429.1,236.279 430,234.875C430.9,236.279 432.096,237.475 433.5,238.375Z" style="fill:rgb(201,49,18);fill-rule:nonzero;"/>
            <path d="M426.5,233.125C425.096,234.025 423.9,235.221 423,236.625C422.1,235.221 420.904,234.025 419.5,233.125C420.904,232.225 422.1,231.029 423,229.625C423.9,231.029 425.096,232.225 426.5,233.125Z" style="fill:rgb(201,49,18);fill-rule:nonzero;"/>
            <path d="M440.5,233.125C439.096,234.025 437.9,235.221 437,236.625C436.1,235.221 434.904,234.025 433.5,233.125C434.904,232.225 436.1,231.029 437,229.625C437.9,231.029 439.096,232.225 440.5,233.125Z" style="fill:rgb(201,49,18);fill-rule:nonzero;"/>
        </g>
    </g>
</svg>
