<?xml version="1.0" encoding="UTF-8" standalone="no"?>
<!DOCTYPE svg PUBLIC "-//W3C//DTD SVG 1.1//EN" "http://www.w3.org/Graphics/SVG/1.1/DTD/svg11.dtd">
<svg width="100%" height="100%" viewBox="0 0 40 56" version="1.1" xmlns="http://www.w3.org/2000/svg" xmlns:xlink="http://www.w3.org/1999/xlink" xml:space="preserve" xmlns:serif="http://www.serif.com/" style="fill-rule:evenodd;clip-rule:evenodd;stroke-linejoin:round;stroke-miterlimit:2;">
    <g transform="matrix(1,0,0,1,-410,-80)">
        <g>
            <path d="M447.5,136L412.5,136C411.119,136 410,134.881 410,133.5L410,82.5C410,81.12 411.119,80 412.5,80L447.5,80C448.881,80 450,81.12 450,82.5L450,133.5C450,134.881 448.881,136 447.5,136Z" style="fill:white;fill-rule:nonzero;"/>
            <path d="M447.5,136L412.5,136C411.119,136 410,134.881 410,133.5L410,82.5C410,81.12 411.119,80 412.5,80L447.5,80C448.881,80 450,81.12 450,82.5L450,133.5C450,134.881 448.881,136 447.5,136ZM447.5,135.8L412.5,135.8C411.229,135.8 410.2,134.771 410.2,133.5L410.2,82.5C410.2,81.23 411.229,80.2 412.5,80.2L447.5,80.2C448.771,80.2 449.8,81.23 449.8,82.5C449.8,82.5 449.8,133.5 449.8,133.5C449.8,134.771 448.771,135.8 447.5,135.8Z" style="fill:rgb(204,204,204);"/>
            <path d="M416.813,90.5C416.463,90.5 416.161,90.694 416,90.978C415.839,90.694 415.537,90.5 415.188,90.5C414.67,90.5 414.25,90.92 414.25,91.438C414.25,92.473 415.725,93.029 416,93.688C416.275,93.029 417.75,92.473 417.75,91.438C417.75,90.92 417.33,90.5 416.813,90.5Z" style="fill:rgb(201,49,18);fill-rule:nonzero;"/>
            <path d="M443.188,125.25C443.537,125.25 443.839,125.056 444,124.772C444.161,125.056 444.463,125.25 444.813,125.25C445.33,125.25 445.75,124.83 445.75,124.313C445.75,123.277 444.275,122.722 444,122.063C443.725,122.722 442.25,123.277 442.25,124.313C442.25,124.83 442.67,125.25 443.188,125.25Z" style="fill:rgb(201,49,18);fill-rule:nonzero;"/>
            <path d="M414.585,84.358L414.585,87.776L414.624,87.893L414.736,87.945L415.323,88.041L415.323,88.375L412.99,88.375L412.99,88.041L413.665,87.945L413.787,87.891L413.834,87.776L413.834,85.082L413.67,85.127L413.456,85.174L413.229,85.213L413.028,85.237L412.958,84.879C413.065,84.853 413.176,84.82 413.29,84.777C413.404,84.734 413.516,84.686 413.623,84.634C413.73,84.582 413.833,84.525 413.929,84.464C414.024,84.403 414.108,84.343 414.181,84.282L414.585,84.358Z" style="fill:rgb(201,49,18);fill-rule:nonzero;"/>
            <path d="M417.371,84.669C417.115,84.669 416.934,84.8 416.826,85.061C416.718,85.321 416.664,85.719 416.664,86.252C416.664,86.826 416.718,87.271 416.826,87.588C416.934,87.906 417.132,88.064 417.421,88.064C417.675,88.064 417.856,87.933 417.965,87.671C418.073,87.41 418.128,87.013 418.128,86.481C418.128,85.906 418.074,85.459 417.966,85.144C417.858,84.828 417.66,84.669 417.371,84.669ZM417.351,88.448C417.061,88.448 416.816,88.394 416.619,88.287C416.423,88.179 416.265,88.033 416.146,87.849C416.028,87.665 415.943,87.449 415.892,87.2C415.841,86.952 415.815,86.688 415.815,86.409C415.815,86.054 415.854,85.743 415.932,85.477C416.009,85.21 416.118,84.989 416.26,84.815C416.401,84.64 416.573,84.509 416.775,84.422C416.977,84.335 417.199,84.291 417.444,84.291C417.733,84.291 417.976,84.345 418.173,84.451C418.369,84.558 418.527,84.703 418.646,84.886C418.767,85.069 418.851,85.285 418.901,85.533C418.952,85.782 418.978,86.045 418.978,86.325C418.978,86.684 418.938,86.997 418.86,87.264C418.783,87.532 418.674,87.753 418.532,87.927C418.391,88.102 418.22,88.232 418.019,88.319C417.818,88.405 417.596,88.448 417.351,88.448Z" style="fill:rgb(201,49,18);fill-rule:nonzero;"/>
            <path d="M445.412,131.393L445.412,127.974L445.373,127.858L445.262,127.806L444.674,127.709L444.674,127.375L447.007,127.375L447.007,127.709L446.332,127.806L446.21,127.859L446.163,127.974L446.163,130.668L446.328,130.623L446.541,130.577L446.768,130.537L446.969,130.514L447.039,130.872C446.932,130.897 446.822,130.931 446.707,130.974C446.593,131.016 446.482,131.064 446.374,131.116C446.267,131.168 446.164,131.225 446.068,131.286C445.973,131.347 445.889,131.408 445.816,131.468L445.412,131.393Z" style="fill:rgb(201,49,18);fill-rule:nonzero;"/>
            <path d="M442.626,131.081C442.882,131.081 443.064,130.951 443.172,130.69C443.279,130.429 443.333,130.032 443.333,129.499C443.333,128.924 443.279,128.479 443.172,128.162C443.064,127.845 442.865,127.686 442.576,127.686C442.322,127.686 442.141,127.817 442.033,128.079C441.924,128.341 441.869,128.737 441.869,129.269C441.869,129.845 441.924,130.291 442.031,130.607C442.139,130.923 442.337,131.081 442.626,131.081ZM442.646,127.302C442.938,127.302 443.182,127.356 443.378,127.464C443.574,127.571 443.732,127.717 443.851,127.901C443.969,128.086 444.054,128.302 444.105,128.55C444.156,128.798 444.182,129.063 444.182,129.341C444.182,129.696 444.144,130.007 444.066,130.274C443.988,130.541 443.879,130.761 443.737,130.936C443.596,131.11 443.424,131.241 443.223,131.329C443.021,131.416 442.798,131.459 442.553,131.459C442.264,131.459 442.021,131.406 441.824,131.299C441.628,131.193 441.47,131.048 441.351,130.864C441.23,130.681 441.146,130.465 441.096,130.217C441.045,129.969 441.02,129.705 441.02,129.426C441.02,129.067 441.059,128.754 441.137,128.486C441.215,128.219 441.324,127.998 441.465,127.823C441.607,127.648 441.777,127.518 441.979,127.432C442.18,127.345 442.402,127.302 442.646,127.302Z" style="fill:rgb(201,49,18);fill-rule:nonzero;"/>
            <path d="M424.625,88.625C423.925,88.625 423.322,89.013 423,89.582C422.678,89.013 422.075,88.625 421.375,88.625C420.34,88.625 419.5,89.465 419.5,90.5C419.5,92.571 422.449,93.682 423,95C423.551,93.682 426.5,92.571 426.5,90.5C426.5,89.465 425.66,88.625 424.625,88.625Z" style="fill:rgb(201,49,18);fill-rule:nonzero;"/>
            <path d="M438.625,88.625C437.925,88.625 437.322,89.013 437,89.582C436.678,89.013 436.075,88.625 435.375,88.625C434.34,88.625 433.5,89.465 433.5,90.5C433.5,92.571 436.449,93.682 437,95C437.551,93.682 440.5,92.571 440.5,90.5C440.5,89.465 439.66,88.625 438.625,88.625Z" style="fill:rgb(201,49,18);fill-rule:nonzero;"/>
            <path d="M431.625,94.375C430.925,94.375 430.322,94.763 430,95.332C429.678,94.763 429.075,94.375 428.375,94.375C427.34,94.375 426.5,95.215 426.5,96.25C426.5,98.321 429.449,99.432 430,100.75C430.551,99.432 433.5,98.321 433.5,96.25C433.5,95.215 432.66,94.375 431.625,94.375Z" style="fill:rgb(201,49,18);fill-rule:nonzero;"/>
            <path d="M424.625,99.625C423.925,99.625 423.322,100.013 423,100.581C422.678,100.013 422.075,99.625 421.375,99.625C420.34,99.625 419.5,100.464 419.5,101.5C419.5,103.57 422.449,104.682 423,106C423.551,104.682 426.5,103.57 426.5,101.5C426.5,100.464 425.66,99.625 424.625,99.625Z" style="fill:rgb(201,49,18);fill-rule:nonzero;"/>
            <path d="M438.625,99.625C437.925,99.625 437.322,100.013 437,100.581C436.678,100.013 436.075,99.625 435.375,99.625C434.34,99.625 433.5,100.464 433.5,101.5C433.5,103.57 436.449,104.682 437,106C437.551,104.682 440.5,103.57 440.5,101.5C440.5,100.464 439.66,99.625 438.625,99.625Z" style="fill:rgb(201,49,18);fill-rule:nonzero;"/>
            <path d="M424.625,127.125C423.925,127.125 423.322,126.737 423,126.169C422.678,126.737 422.075,127.125 421.375,127.125C420.34,127.125 419.5,126.286 419.5,125.25C419.5,123.18 422.449,122.068 423,120.75C423.551,122.068 426.5,123.18 426.5,125.25C426.5,126.286 425.66,127.125 424.625,127.125Z" style="fill:rgb(201,49,18);fill-rule:nonzero;"/>
            <path d="M438.625,127.125C437.925,127.125 437.322,126.737 437,126.169C436.678,126.737 436.075,127.125 435.375,127.125C434.34,127.125 433.5,126.286 433.5,125.25C433.5,123.18 436.449,122.068 437,120.75C437.551,122.068 440.5,123.18 440.5,125.25C440.5,126.286 439.66,127.125 438.625,127.125Z" style="fill:rgb(201,49,18);fill-rule:nonzero;"/>
            <path d="M431.625,121.375C430.925,121.375 430.322,120.987 430,120.419C429.678,120.987 429.075,121.375 428.375,121.375C427.34,121.375 426.5,120.536 426.5,119.5C426.5,117.43 429.449,116.318 430,115C430.551,116.318 433.5,117.43 433.5,119.5C433.5,120.536 432.66,121.375 431.625,121.375Z" style="fill:rgb(201,49,18);fill-rule:nonzero;"/>
            <path d="M424.625,116.125C423.925,116.125 423.322,115.737 423,115.169C422.678,115.737 422.075,116.125 421.375,116.125C420.34,116.125 419.5,115.286 419.5,114.25C419.5,112.18 422.449,111.068 423,109.75C423.551,111.068 426.5,112.18 426.5,114.25C426.5,115.286 425.66,116.125 424.625,116.125Z" style="fill:rgb(201,49,18);fill-rule:nonzero;"/>
            <path d="M438.625,116.125C437.925,116.125 437.322,115.737 437,115.169C436.678,115.737 436.075,116.125 435.375,116.125C434.34,116.125 433.5,115.286 433.5,114.25C433.5,112.18 436.449,111.068 437,109.75C437.551,111.068 440.5,112.18 440.5,114.25C440.5,115.286 439.66,116.125 438.625,116.125Z" style="fill:rgb(201,49,18);fill-rule:nonzero;"/>
        </g>
    </g>
</svg>
