<?xml version="1.0" encoding="UTF-8" standalone="no"?>
<!DOCTYPE svg PUBLIC "-//W3C//DTD SVG 1.1//EN" "http://www.w3.org/Graphics/SVG/1.1/DTD/svg11.dtd">
<svg width="100%" height="100%" viewBox="0 0 40 56" version="1.1" xmlns="http://www.w3.org/2000/svg" xmlns:xlink="http://www.w3.org/1999/xlink" xml:space="preserve" xmlns:serif="http://www.serif.com/" style="fill-rule:evenodd;clip-rule:evenodd;stroke-linejoin:round;stroke-miterlimit:2;">
    <g transform="matrix(1,0,0,1,-410,-140)">
        <g>
            <path d="M447.5,196L412.5,196C411.119,196 410,194.881 410,193.5L410,142.5C410,141.119 411.119,140 412.5,140L447.5,140C448.881,140 450,141.119 450,142.5L450,193.5C450,194.881 448.881,196 447.5,196Z" style="fill:white;fill-rule:nonzero;"/>
            <path d="M415.999,149.688C415.729,150.376 414.374,150.629 414.374,151.688C414.374,152.171 414.767,152.563 415.249,152.563C415.504,152.563 415.731,152.452 415.892,152.278C415.861,152.574 415.764,152.923 415.5,153.188L415.5,153.313L416.5,153.313L416.5,153.188C416.236,152.923 416.139,152.574 416.108,152.279C416.269,152.452 416.495,152.563 416.749,152.563C417.232,152.563 417.624,152.171 417.624,151.688C417.624,150.629 416.271,150.376 415.999,149.688Z" style="fill:rgb(31,31,31);fill-rule:nonzero;"/>
            <path d="M444,185.813C444.271,185.124 445.625,184.871 445.625,183.813C445.625,183.329 445.233,182.938 444.75,182.938C444.496,182.938 444.269,183.048 444.108,183.222C444.139,182.926 444.235,182.577 444.5,182.313L444.5,182.188L443.5,182.188L443.5,182.313C443.764,182.577 443.861,182.926 443.892,183.221C443.731,183.048 443.505,182.938 443.25,182.938C442.768,182.938 442.375,183.329 442.375,183.813C442.375,184.871 443.729,185.124 444,185.813Z" style="fill:rgb(31,31,31);fill-rule:nonzero;"/>
            <path d="M414.585,144.232L414.585,147.651L414.624,147.767L414.736,147.819L415.323,147.916L415.323,148.25L412.99,148.25L412.99,147.916L413.665,147.819L413.787,147.766L413.834,147.651L413.834,144.957L413.67,145.002L413.456,145.048L413.229,145.088L413.028,145.111L412.958,144.753C413.065,144.728 413.176,144.694 413.29,144.651C413.404,144.609 413.516,144.561 413.623,144.509C413.73,144.457 413.833,144.4 413.929,144.339C414.024,144.278 414.108,144.217 414.181,144.157L414.585,144.232Z" style="fill:rgb(31,31,31);fill-rule:nonzero;"/>
            <path d="M417.371,144.544C417.115,144.544 416.934,144.674 416.826,144.935C416.718,145.196 416.664,145.593 416.664,146.126C416.664,146.701 416.718,147.146 416.826,147.463C416.934,147.78 417.132,147.939 417.421,147.939C417.675,147.939 417.856,147.808 417.965,147.546C418.073,147.284 418.128,146.888 418.128,146.356C418.128,145.78 418.074,145.334 417.966,145.018C417.858,144.702 417.66,144.544 417.371,144.544ZM417.351,148.323C417.061,148.323 416.816,148.269 416.619,148.161C416.423,148.054 416.265,147.908 416.146,147.724C416.028,147.539 415.943,147.323 415.892,147.075C415.841,146.827 415.815,146.563 415.815,146.284C415.815,145.929 415.854,145.618 415.932,145.351C416.009,145.084 416.118,144.864 416.26,144.689C416.401,144.515 416.573,144.384 416.775,144.296C416.977,144.209 417.199,144.166 417.444,144.166C417.733,144.166 417.976,144.219 418.173,144.326C418.369,144.432 418.527,144.577 418.646,144.761C418.767,144.944 418.851,145.16 418.901,145.408C418.952,145.656 418.978,145.92 418.978,146.199C418.978,146.558 418.938,146.871 418.86,147.139C418.783,147.406 418.674,147.627 418.532,147.802C418.391,147.977 418.22,148.107 418.019,148.193C417.818,148.28 417.596,148.323 417.351,148.323Z" style="fill:rgb(31,31,31);fill-rule:nonzero;"/>
            <path d="M445.412,191.268L445.412,187.849L445.373,187.733L445.262,187.681L444.674,187.584L444.674,187.25L447.007,187.25L447.007,187.584L446.332,187.681L446.21,187.734L446.163,187.849L446.163,190.543L446.328,190.498L446.541,190.452L446.768,190.412L446.969,190.389L447.039,190.747C446.932,190.772 446.822,190.806 446.707,190.849C446.593,190.891 446.482,190.939 446.374,190.991C446.267,191.043 446.164,191.1 446.068,191.161C445.973,191.222 445.889,191.283 445.816,191.343L445.412,191.268Z" style="fill:rgb(31,31,31);fill-rule:nonzero;"/>
            <path d="M442.626,190.956C442.882,190.956 443.064,190.826 443.172,190.565C443.279,190.304 443.333,189.907 443.333,189.374C443.333,188.799 443.279,188.354 443.172,188.037C443.064,187.72 442.865,187.561 442.576,187.561C442.322,187.561 442.141,187.692 442.033,187.954C441.924,188.216 441.869,188.612 441.869,189.144C441.869,189.72 441.924,190.166 442.031,190.482C442.139,190.798 442.337,190.956 442.626,190.956ZM442.646,187.177C442.938,187.177 443.182,187.231 443.378,187.339C443.574,187.446 443.732,187.592 443.851,187.776C443.969,187.961 444.054,188.177 444.105,188.425C444.156,188.673 444.182,188.938 444.182,189.216C444.182,189.571 444.144,189.882 444.066,190.149C443.988,190.416 443.879,190.636 443.737,190.811C443.596,190.985 443.424,191.116 443.223,191.204C443.021,191.291 442.798,191.334 442.553,191.334C442.264,191.334 442.021,191.281 441.824,191.174C441.628,191.068 441.47,190.923 441.351,190.739C441.23,190.556 441.146,190.34 441.096,190.092C441.045,189.844 441.02,189.58 441.02,189.301C441.02,188.942 441.059,188.629 441.137,188.361C441.215,188.094 441.324,187.873 441.465,187.698C441.607,187.523 441.777,187.393 441.979,187.307C442.18,187.22 442.402,187.177 442.646,187.177Z" style="fill:rgb(31,31,31);fill-rule:nonzero;"/>
            <path d="M422.999,147.125C422.457,148.503 419.749,149.007 419.749,151.125C419.749,152.091 420.532,152.875 421.499,152.875C422.008,152.875 422.463,152.654 422.782,152.307C422.723,152.897 422.528,153.597 422,154.125L422,154.375L424,154.375L424,154.125C423.472,153.597 423.277,152.899 423.217,152.308C423.536,152.654 423.99,152.875 424.499,152.875C425.466,152.875 426.249,152.091 426.249,151.125C426.249,149.007 423.541,148.503 422.999,147.125Z" style="fill:rgb(31,31,31);fill-rule:nonzero;"/>
            <path d="M436.999,147.125C436.457,148.503 433.749,149.007 433.749,151.125C433.749,152.091 434.532,152.875 435.499,152.875C436.008,152.875 436.463,152.654 436.782,152.307C436.723,152.897 436.528,153.597 436,154.125L436,154.375L438,154.375L438,154.125C437.472,153.597 437.277,152.899 437.217,152.308C437.536,152.654 437.99,152.875 438.499,152.875C439.466,152.875 440.249,152.091 440.249,151.125C440.249,149.007 437.541,148.503 436.999,147.125Z" style="fill:rgb(31,31,31);fill-rule:nonzero;"/>
            <path d="M429.999,152.875C429.457,154.253 426.749,154.757 426.749,156.875C426.749,157.841 427.532,158.625 428.499,158.625C429.008,158.625 429.463,158.404 429.782,158.057C429.723,158.647 429.528,159.347 429,159.875L429,160.125L431,160.125L431,159.875C430.472,159.347 430.277,158.649 430.217,158.058C430.536,158.404 430.99,158.625 431.499,158.625C432.466,158.625 433.249,157.841 433.249,156.875C433.249,154.757 430.541,154.253 429.999,152.875Z" style="fill:rgb(31,31,31);fill-rule:nonzero;"/>
            <path d="M422.999,158.125C422.457,159.503 419.749,160.007 419.749,162.125C419.749,163.091 420.532,163.875 421.499,163.875C422.008,163.875 422.463,163.654 422.782,163.307C422.723,163.897 422.528,164.597 422,165.125L422,165.375L424,165.375L424,165.125C423.472,164.597 423.277,163.899 423.217,163.308C423.536,163.654 423.99,163.875 424.499,163.875C425.466,163.875 426.249,163.091 426.249,162.125C426.249,160.007 423.541,159.503 422.999,158.125Z" style="fill:rgb(31,31,31);fill-rule:nonzero;"/>
            <path d="M436.999,158.125C436.457,159.503 433.749,160.007 433.749,162.125C433.749,163.091 434.532,163.875 435.499,163.875C436.008,163.875 436.463,163.654 436.782,163.307C436.723,163.897 436.528,164.597 436,165.125L436,165.375L438,165.375L438,165.125C437.472,164.597 437.277,163.899 437.217,163.308C437.536,163.654 437.99,163.875 438.499,163.875C439.466,163.875 440.249,163.091 440.249,162.125C440.249,160.007 437.541,159.503 436.999,158.125Z" style="fill:rgb(31,31,31);fill-rule:nonzero;"/>
            <path d="M422.999,188.375C422.457,186.997 419.749,186.493 419.749,184.375C419.749,183.409 420.532,182.625 421.499,182.625C422.008,182.625 422.463,182.846 422.782,183.193C422.723,182.603 422.528,181.903 422,181.375L422,181.125L424,181.125L424,181.375C423.472,181.903 423.277,182.601 423.217,183.192C423.536,182.846 423.99,182.625 424.499,182.625C425.466,182.625 426.249,183.409 426.249,184.375C426.249,186.493 423.541,186.997 422.999,188.375Z" style="fill:rgb(31,31,31);fill-rule:nonzero;"/>
            <path d="M436.999,188.375C436.457,186.997 433.749,186.493 433.749,184.375C433.749,183.409 434.532,182.625 435.499,182.625C436.008,182.625 436.463,182.846 436.782,183.193C436.723,182.603 436.528,181.903 436,181.375L436,181.125L438,181.125L438,181.375C437.472,181.903 437.277,182.601 437.217,183.192C437.536,182.846 437.99,182.625 438.499,182.625C439.466,182.625 440.249,183.409 440.249,184.375C440.249,186.493 437.541,186.997 436.999,188.375Z" style="fill:rgb(31,31,31);fill-rule:nonzero;"/>
            <path d="M429.999,182.625C429.457,181.247 426.749,180.743 426.749,178.625C426.749,177.659 427.532,176.875 428.499,176.875C429.008,176.875 429.463,177.096 429.782,177.443C429.723,176.853 429.528,176.153 429,175.625L429,175.375L431,175.375L431,175.625C430.472,176.153 430.277,176.851 430.217,177.442C430.536,177.096 430.99,176.875 431.499,176.875C432.466,176.875 433.249,177.659 433.249,178.625C433.249,180.743 430.541,181.247 429.999,182.625Z" style="fill:rgb(31,31,31);fill-rule:nonzero;"/>
            <path d="M422.999,177.375C422.457,175.997 419.749,175.493 419.749,173.375C419.749,172.409 420.532,171.625 421.499,171.625C422.008,171.625 422.463,171.846 422.782,172.193C422.723,171.603 422.528,170.903 422,170.375L422,170.125L424,170.125L424,170.375C423.472,170.903 423.277,171.601 423.217,172.192C423.536,171.846 423.99,171.625 424.499,171.625C425.466,171.625 426.249,172.409 426.249,173.375C426.249,175.493 423.541,175.997 422.999,177.375Z" style="fill:rgb(31,31,31);fill-rule:nonzero;"/>
            <path d="M436.999,177.375C436.457,175.997 433.749,175.493 433.749,173.375C433.749,172.409 434.532,171.625 435.499,171.625C436.008,171.625 436.463,171.846 436.782,172.193C436.723,171.603 436.528,170.903 436,170.375L436,170.125L438,170.125L438,170.375C437.472,170.903 437.277,171.601 437.217,172.192C437.536,171.846 437.99,171.625 438.499,171.625C439.466,171.625 440.249,172.409 440.249,173.375C440.249,175.493 437.541,175.997 436.999,177.375Z" style="fill:rgb(31,31,31);fill-rule:nonzero;"/>
        </g>
    </g>
</svg>
