<?xml version="1.0" encoding="UTF-8" standalone="no"?>
<!DOCTYPE svg PUBLIC "-//W3C//DTD SVG 1.1//EN" "http://www.w3.org/Graphics/SVG/1.1/DTD/svg11.dtd">
<svg width="100%" height="100%" viewBox="0 0 41 56" version="1.1" xmlns="http://www.w3.org/2000/svg" xmlns:xlink="http://www.w3.org/1999/xlink" xml:space="preserve" xmlns:serif="http://www.serif.com/" style="fill-rule:evenodd;clip-rule:evenodd;stroke-linejoin:round;stroke-miterlimit:2;">
    <g transform="matrix(1,0,0,1,-453,-20)">
        <g>
            <path d="M490.833,76L455.833,76C454.452,76 453.333,74.881 453.333,73.5L453.333,22.5C453.333,21.12 454.452,20 455.833,20L490.833,20C492.214,20 493.333,21.12 493.333,22.5L493.333,73.5C493.333,74.881 492.214,76 490.833,76Z" style="fill:white;fill-rule:nonzero;"/>
            <path d="M460.863,31.533C460.57,31.24 460.096,31.24 459.803,31.533L459.481,31.854C459.562,31.566 459.727,31.418 459.863,31.281C460.156,30.988 460.156,30.513 459.863,30.22C459.718,30.074 459.526,30.001 459.335,30C459.144,30.001 458.949,30.074 458.803,30.22C458.51,30.513 458.51,30.988 458.803,31.281C458.939,31.418 459.104,31.566 459.186,31.854L458.863,31.533C458.57,31.24 458.096,31.24 457.803,31.533C457.51,31.826 457.51,32.3 457.803,32.593C458.096,32.886 458.57,32.886 458.863,32.593L459.234,32.223L459.235,32.244C459.242,32.568 459.19,33.081 458.833,33.438L458.833,33.563L459.833,33.563L459.833,33.438C459.478,33.082 459.425,32.574 459.431,32.249L459.433,32.223L459.803,32.593C460.096,32.886 460.57,32.886 460.863,32.593C461.156,32.3 461.156,31.826 460.863,31.533Z" style="fill:rgb(31,31,31);fill-rule:nonzero;"/>
            <path d="M485.803,64.468C486.096,64.761 486.57,64.761 486.863,64.468L487.186,64.146C487.104,64.435 486.939,64.583 486.803,64.72C486.51,65.013 486.51,65.488 486.803,65.781C486.949,65.927 487.14,66 487.331,66C487.522,66 487.718,65.927 487.863,65.781C488.156,65.488 488.156,65.013 487.863,64.72C487.727,64.583 487.562,64.435 487.481,64.146L487.803,64.468C488.096,64.761 488.57,64.761 488.863,64.468C489.156,64.175 489.156,63.701 488.863,63.408C488.57,63.115 488.096,63.115 487.803,63.408L487.433,63.778L487.432,63.757C487.425,63.433 487.476,62.92 487.833,62.563L487.833,62.438L486.833,62.438L486.833,62.563C487.188,62.918 487.242,63.427 487.236,63.752L487.234,63.778L486.863,63.408C486.57,63.115 486.096,63.115 485.803,63.408C485.51,63.701 485.51,64.175 485.803,64.468Z" style="fill:rgb(31,31,31);fill-rule:nonzero;"/>
            <path d="M459.894,24.393L459.784,24.454L459.748,24.57L459.748,27.337C459.748,27.674 459.729,27.962 459.692,28.201C459.656,28.439 459.583,28.645 459.473,28.819C459.363,28.993 459.208,29.144 459.008,29.273C458.807,29.402 458.544,29.526 458.218,29.646L458.055,29.303C458.241,29.183 458.393,29.067 458.51,28.956C458.627,28.844 458.718,28.721 458.782,28.585C458.846,28.449 458.89,28.291 458.913,28.111C458.937,27.93 458.948,27.713 458.948,27.459L458.948,24.57L458.911,24.453L458.803,24.393L458.343,24.303L458.343,23.957L460.298,23.957L460.298,24.303L459.894,24.393Z" style="fill:rgb(31,31,31);fill-rule:nonzero;"/>
            <path d="M486.771,71.608L486.879,71.547L486.916,71.431L486.916,68.664C486.916,68.327 486.935,68.039 486.971,67.8C487.008,67.561 487.081,67.355 487.191,67.182C487.301,67.008 487.455,66.857 487.656,66.728C487.857,66.599 488.12,66.475 488.446,66.354L488.609,66.698C488.423,66.818 488.271,66.934 488.154,67.045C488.037,67.157 487.945,67.28 487.882,67.416C487.818,67.552 487.773,67.71 487.751,67.89C487.728,68.071 487.716,68.288 487.716,68.542L487.716,71.431L487.752,71.548L487.861,71.608L488.32,71.698L488.32,72.044L486.366,72.044L486.366,71.698L486.771,71.608Z" style="fill:rgb(31,31,31);fill-rule:nonzero;"/>
            <path d="M486.893,28.565C486.307,27.979 485.357,27.979 484.771,28.565L484.128,29.208C484.289,28.631 484.619,28.335 484.893,28.061C485.479,27.475 485.479,26.525 484.893,25.94C484.601,25.648 484.219,25.501 483.836,25.5C483.453,25.501 483.063,25.648 482.771,25.94C482.186,26.525 482.186,27.475 482.771,28.061C483.045,28.335 483.375,28.631 483.536,29.208L482.893,28.565C482.307,27.979 481.357,27.979 480.771,28.565C480.186,29.151 480.186,30.101 480.771,30.686C481.357,31.272 482.307,31.272 482.893,30.686L483.634,29.945L483.636,29.986C483.649,30.636 483.547,31.661 482.832,32.375L482.832,32.625L484.832,32.625L484.832,32.375C484.121,31.665 484.015,30.647 484.026,29.997L484.03,29.945L484.771,30.686C485.357,31.272 486.307,31.272 486.893,30.686C487.479,30.101 487.479,29.15 486.893,28.565Z" style="fill:rgb(31,31,31);fill-rule:nonzero;"/>
            <path d="M465.893,67.439C465.308,68.024 464.357,68.024 463.771,67.439L463.128,66.795C463.289,67.373 463.619,67.668 463.893,67.942C464.479,68.528 464.479,69.478 463.893,70.064C463.601,70.356 463.219,70.502 462.836,70.503C462.453,70.502 462.063,70.356 461.771,70.064C461.186,69.478 461.186,68.528 461.771,67.942C462.046,67.668 462.375,67.373 462.537,66.795L461.893,67.439C461.308,68.024 460.357,68.024 459.771,67.439C459.186,66.853 459.186,65.903 459.771,65.317C460.357,64.731 461.308,64.731 461.893,65.317L462.634,66.059L462.637,66.017C462.649,65.367 462.547,64.343 461.832,63.628L461.832,63.378L463.832,63.378L463.832,63.628C463.122,64.339 463.015,65.356 463.026,66.006L463.03,66.059L463.771,65.317C464.357,64.731 465.308,64.731 465.893,65.317C466.479,65.903 466.479,66.853 465.893,67.439Z" style="fill:rgb(31,31,31);fill-rule:nonzero;"/>
            <path d="M457.332,36L457.332,71.75L457.582,72L482.332,72L482.332,71.5L457.832,71.5L457.832,36L457.332,36ZM489.332,60L488.832,60L488.832,24.5L464.332,24.5L464.332,24L489.082,24L489.332,24.25L489.332,60Z" style="fill:rgb(31,31,31);fill-rule:nonzero;"/>
            <path d="M476.2,69.11C475.68,69.431 475.05,69.61 474.38,69.661C474.54,68.69 475.51,67.811 476.05,67.391L476.2,69.11Z" style="fill:rgb(201,49,18);fill-rule:nonzero;"/>
            <path d="M475.42,67.26C474.93,67.681 474.33,68.311 474.03,69.061L473.28,67.05C474.521,67.354 475.314,67.26 475.42,67.26Z" style="fill:rgb(201,49,18);fill-rule:nonzero;"/>
            <path d="M473.73,69.681C472.591,69.628 471.489,69.23 470.65,68.67L472.77,67.101L473.73,69.681Z" style="fill:rgb(201,49,18);fill-rule:nonzero;"/>
            <path d="M470.71,68C470.86,67.23 470.71,66.391 470.53,65.77C470.89,66.04 471.27,66.27 471.67,66.471L471.75,66.52L471.76,66.51C471.96,66.61 472.16,66.69 472.37,66.77L470.71,68Z" style="fill:rgb(201,49,18);fill-rule:nonzero;"/>
            <path d="M470.11,68.26C469.52,67.75 469.11,67.141 468.93,66.491L469.89,65.46C470.12,66.061 470.48,67.331 470.11,68.26Z" style="fill:rgb(201,49,18);fill-rule:nonzero;"/>
            <path d="M476.04,66.42C476.04,67.292 471.586,66.707 472.13,63.01C472.42,60.951 472.44,59.92 471.4,59.331C471.79,59.221 472.17,59.34 472.56,59.701C473.994,61.053 471.923,64.047 473.48,65.15C474.28,65.721 474.96,66.02 475.62,66.101C475.9,66.13 476.05,66.29 476.04,66.42Z" style="fill:rgb(249,203,25);fill-rule:nonzero;"/>
            <path d="M472.82,66.32C470.307,65.483 470.626,62.572 471.52,60.081C471.87,60.54 471.86,61.311 471.63,62.94C471.41,64.491 472.01,65.51 472.55,66.081L472.82,66.32Z" style="fill:rgb(249,203,25);fill-rule:nonzero;"/>
            <path d="M470.69,65.061C469.097,63.467 469.604,61.088 471.1,59.79C470.68,60.9 469.96,63.311 470.69,65.061Z" style="fill:rgb(249,203,25);fill-rule:nonzero;"/>
            <path d="M481.92,42.25L481.92,48.471C481.819,48.458 481.798,48.46 480.92,48.46C480.92,42.708 480.91,44.682 480.91,44.25C481.17,43.36 481.32,42.451 481.35,41.54C481.708,41.623 481.92,41.933 481.92,42.25Z" style="fill:rgb(249,203,25);fill-rule:nonzero;"/>
            <rect x="480.92" y="52.28" width="1" height="8.89" style="fill:rgb(249,203,25);fill-rule:nonzero;"/>
            <path d="M478.82,53.36C478.69,55.32 476.39,57.46 473.88,58.71L473.86,58.721C473.58,58.851 473.31,59.02 473.05,59.221C473.31,57.76 474.58,56.51 477.44,54.86C478.07,54.55 478.55,54.02 478.82,53.36Z" style="fill:rgb(35,75,194);fill-rule:nonzero;"/>
            <path d="M473.75,56.94C473.04,57.69 472.66,58.44 472.54,59.26C471.91,58.73 471.21,58.661 470.55,59.07C470.15,58.951 468.21,58.311 466.56,56.73C466.49,54.78 466.96,52.96 467.79,51.32C468.73,54.07 470.98,56.21 473.75,56.94Z" style="fill:rgb(201,49,18);fill-rule:nonzero;"/>
            <path d="M478.44,53C477.682,55.349 474.382,55.055 472.35,53.53C474.52,52.5 476.39,51.05 477.84,49.36C478.72,51.11 478.66,52.3 478.44,53Z" style="fill:rgb(201,49,18);fill-rule:nonzero;"/>
            <path d="M475.92,55.21C475.21,55.67 474.63,56.11 474.15,56.54C471.27,55.88 468.91,53.621 468.11,50.71C468.46,50.09 468.87,49.5 469.32,48.94C469.41,50.05 469.74,51.081 470.28,51.98L470.29,52L470.29,52.03L470.34,52.09C471.606,54.098 473.779,55.23 475.73,55.23L475.92,55.21Z" style="fill:rgb(249,203,25);fill-rule:nonzero;"/>
            <path d="M476.88,47.63C475.53,49.17 473.87,50.431 472.16,51.331L476.14,44.581C476.61,45.491 476.87,46.52 476.88,47.63Z" style="fill:rgb(35,75,194);fill-rule:nonzero;"/>
            <path d="M474.51,44.681L470.52,51.42C470.05,50.52 469.8,49.48 469.78,48.371C471.14,46.831 472.8,45.57 474.51,44.681Z" style="fill:rgb(201,49,18);fill-rule:nonzero;"/>
            <path d="M480.11,39.27C480.18,41.221 479.71,43.05 478.88,44.69C477.94,41.931 475.68,39.8 472.91,39.061C473.63,38.311 474.01,37.57 474.13,36.75C474.822,37.328 475.474,37.332 476.12,36.931C476.53,37.05 478.46,37.69 480.11,39.27Z" style="fill:rgb(35,75,194);fill-rule:nonzero;"/>
            <path d="M478.56,45.29C478.21,45.911 477.8,46.5 477.35,47.061C477.186,45.033 476.38,44.105 476.38,44L476.38,43.971C476.19,43.781 475.698,42.721 474.22,41.79C473.11,41.081 471.87,40.75 470.76,40.79C471.46,40.331 472.04,39.9 472.51,39.471C475.4,40.121 477.75,42.38 478.56,45.29Z" style="fill:rgb(249,203,25);fill-rule:nonzero;"/>
            <path d="M473.62,36.78C473.36,38.25 472.09,39.491 469.23,41.141C468.59,41.451 468.12,41.98 467.84,42.641C467.97,40.681 470.28,38.55 472.79,37.29L472.8,37.28C473.09,37.15 473.36,36.98 473.62,36.78Z" style="fill:rgb(201,49,18);fill-rule:nonzero;"/>
            <path d="M474.31,42.471C472.14,43.51 470.27,44.951 468.82,46.641C467.95,44.891 468.01,43.701 468.23,43C469.007,40.633 472.305,40.967 474.31,42.471Z" style="fill:rgb(35,75,194);fill-rule:nonzero;"/>
            <path d="M465.76,51.75C465.5,52.641 465.35,53.55 465.31,54.471C465.19,54.431 465.08,54.38 464.98,54.29C464.664,53.996 464.75,54.255 464.75,47.54C464.909,47.54 464.589,47.55 465.75,47.55L465.75,51.741L465.76,51.75Z" style="fill:rgb(249,203,25);fill-rule:nonzero;"/>
            <rect x="464.75" y="34.831" width="1" height="8.899" style="fill:rgb(249,203,25);fill-rule:nonzero;"/>
            <path d="M475.57,36.21C475.98,35.101 476.71,32.69 475.98,30.94C477.522,32.48 477.092,34.912 475.57,36.21Z" style="fill:rgb(249,203,25);fill-rule:nonzero;"/>
            <path d="M475.14,35.92C474.8,35.46 474.8,34.69 475.03,33.07C475.26,31.51 474.66,30.5 474.12,29.92L473.84,29.681C474.05,29.76 474.26,29.84 474.46,29.94C476.59,31.15 475.67,34.48 475.14,35.92Z" style="fill:rgb(249,203,25);fill-rule:nonzero;"/>
            <path d="M475.27,36.681C474.88,36.79 474.5,36.661 474.11,36.3C472.668,34.958 474.753,31.971 473.18,30.851C472.38,30.28 471.71,29.98 471.05,29.911C470.445,29.827 470.464,29.307 471.19,29.23C473.418,29.23 474.838,30.87 474.54,33C474.25,35.061 474.22,36.081 475.27,36.681Z" style="fill:rgb(249,203,25);fill-rule:nonzero;"/>
            <path d="M477.73,29.51L476.77,30.55C476.55,29.94 476.19,28.67 476.55,27.741C477.14,28.25 477.56,28.86 477.73,29.51Z" style="fill:rgb(201,49,18);fill-rule:nonzero;"/>
            <path d="M476.14,30.221C475.432,29.698 474.992,29.553 474.92,29.48L474.91,29.48C474.72,29.391 474.51,29.3 474.31,29.221L475.96,28C475.81,28.77 475.96,29.61 476.14,30.221Z" style="fill:rgb(201,49,18);fill-rule:nonzero;"/>
            <path d="M476.02,27.331L473.9,28.9L472.94,26.331C474.082,26.383 475.193,26.779 476.02,27.331Z" style="fill:rgb(201,49,18);fill-rule:nonzero;"/>
            <path d="M473.38,28.951C472.647,28.773 472.086,28.732 471.451,28.732L471.24,28.75C471.73,28.331 472.33,27.69 472.64,26.94L473.38,28.951Z" style="fill:rgb(201,49,18);fill-rule:nonzero;"/>
            <path d="M472.29,26.34C472.12,27.311 471.16,28.201 470.62,28.61L470.47,26.891C470.99,26.57 471.61,26.391 472.29,26.34Z" style="fill:rgb(201,49,18);fill-rule:nonzero;"/>
            <path d="M474.458,43.811L474.216,43.374L473.777,43.618L474.021,44.055L474.458,43.811ZM470.408,46.005L470.043,46.349L470.385,46.713C470.61,46.501 470.533,46.574 470.751,46.369L470.408,46.005ZM468.983,47.479L469.359,47.809C469.561,47.58 469.495,47.653 469.69,47.432L469.314,47.102L468.983,47.479ZM471.906,45.41L471.6,45.016L471.203,45.324L471.511,45.718C471.759,45.525 471.659,45.603 471.906,45.41ZM473.145,44.558L472.874,44.138L472.452,44.41L472.723,44.83C472.984,44.661 472.891,44.722 473.145,44.558ZM466.588,51.45L467.05,51.64C467.17,51.349 467.126,51.456 467.24,51.175L466.778,50.986L466.588,51.45ZM466.12,52.935L466.604,53.063C466.679,52.782 466.655,52.868 466.732,52.579L466.25,52.45L466.12,52.935ZM468.041,48.71L468.449,49C468.63,48.746 468.565,48.837 468.739,48.591L468.332,48.301L468.041,48.71ZM467.235,50.037L467.673,50.28C467.757,50.128 467.83,49.998 467.917,49.842L467.479,49.599L467.235,50.037ZM465.861,54.478L466.358,54.525L466.406,54.026L465.908,53.979L465.861,54.478ZM475.476,63.932C475.614,63.93 475.725,63.817 475.724,63.679C475.721,63.491 475.721,63.491 475.719,63.304C475.718,63.166 475.604,63.055 475.466,63.057C475.328,63.058 475.218,63.171 475.219,63.31C475.221,63.497 475.221,63.497 475.224,63.685C475.225,63.822 475.338,63.933 475.476,63.932ZM472.209,52.192L472.451,52.629L472.89,52.386L472.646,51.949L472.209,52.192ZM480.547,43.069L480.064,42.94C479.982,43.244 480.013,43.132 479.935,43.425L480.418,43.554L480.547,43.069ZM478.626,47.293L478.219,47.003C478.037,47.259 478.104,47.165 477.928,47.413L478.335,47.702L478.626,47.293ZM477.684,48.524L477.308,48.195C477.103,48.429 477.176,48.345 476.977,48.572L477.353,48.902L477.684,48.524ZM480.08,44.554L479.617,44.364C479.498,44.655 479.542,44.548 479.427,44.828L479.89,45.018L480.08,44.554ZM479.432,45.966L478.995,45.723C478.847,45.989 478.895,45.904 478.751,46.162L479.188,46.405L479.432,45.966ZM476.259,49.998L476.624,49.655L476.282,49.29C476.055,49.504 476.137,49.427 475.916,49.634L476.259,49.998ZM474.761,50.594L475.068,50.988L475.464,50.679L475.156,50.285C474.908,50.478 475,50.407 474.761,50.594ZM473.522,51.445L473.793,51.866L474.215,51.594L473.944,51.173C473.68,51.344 473.786,51.275 473.522,51.445ZM480.828,41.555L480.338,41.457L480.239,41.948L480.729,42.046L480.828,41.555ZM485.189,54.644L484.448,55.139C485.462,56.096 483.649,57.491 482.667,57.09L482.667,57.625L484.504,57.625L484.504,57.125C484.504,56.987 484.615,56.875 484.754,56.875C484.892,56.875 485.004,56.987 485.004,57.125L485.004,57.625L485.754,57.625C485.892,57.625 486.004,57.737 486.004,57.875C486.004,58.013 485.892,58.125 485.754,58.125L485.004,58.125L485.004,58.625C485.004,58.763 484.892,58.875 484.754,58.875C484.615,58.875 484.504,58.763 484.504,58.625L484.504,58.125L482.667,58.125L482.667,58.661C483.649,58.256 485.458,59.657 484.448,60.61L485.189,61.105C486.859,59.541 486.858,56.207 485.189,54.644ZM482.667,52.026L482.667,52.374C482.788,52.357 482.892,52.33 482.973,52.295C483.283,52.162 483.365,51.935 483.07,51.745C482.874,51.61 482.15,51.568 481.9,51.567C481.762,51.567 481.65,51.455 481.651,51.317C481.651,51.179 481.764,51.067 481.901,51.067C482.286,51.069 482.998,51.117 483.327,51.317C483.37,51.112 483.246,50.96 483.07,50.847C482.859,50.707 482.402,50.671 482.15,50.67C482.012,50.669 481.9,50.558 481.901,50.419C481.901,50.281 482.014,50.169 482.151,50.17C482.527,50.171 483.018,50.225 483.334,50.423C483.338,50.247 483.221,50.121 483.07,50.024C482.856,49.884 482.537,49.794 482.401,49.795C482.263,49.795 482.151,49.683 482.151,49.545C482.151,49.407 482.263,49.295 482.401,49.295C482.634,49.295 482.948,49.394 483.183,49.514L483.133,49.287C483.081,49.203 482.928,49.128 482.832,49.091C482.639,49.017 482.342,48.957 481.917,48.957L478.705,48.957C479.222,49.937 479.614,51.053 479.578,52.156C479.858,52.612 480.211,53.042 480.667,53.326L480.667,52.026L480.917,51.776L482.417,51.776L482.667,52.026ZM482.167,52.276L481.167,52.276L481.167,61.17L482.167,61.17L482.167,52.276ZM479.322,53.394C479.04,54.07 478.548,54.57 477.935,54.866C476.729,55.561 475.797,56.192 475.108,56.798C474.354,57.462 473.727,58.229 473.547,59.212C473.807,59.009 474.077,58.844 474.372,58.711C475.365,58.208 476.236,57.633 476.999,56.986C478.055,56.094 479.216,54.775 479.322,53.394ZM475.6,58.921C475.022,58.92 474.229,59.216 473.557,59.865C474.439,61.496 472.942,63.97 474.022,64.744C475.319,65.665 475.812,65.533 476.183,65.657L476.308,65.457C476.341,65.342 476.395,65.117 476.344,65.008C476.201,64.717 474.96,65.089 474.389,64.373C474.303,64.265 474.319,64.108 474.428,64.021C474.535,63.935 474.692,63.953 474.779,64.061C475.137,64.506 475.991,64.246 476.494,64.494C476.405,64.192 476.204,63.869 476.374,63.357C476.536,62.866 476.771,62.524 477.065,62.113C476.441,61.928 476.452,61.933 476.441,61.928C476.452,61.93 476.095,61.849 475.796,61.519C475.55,61.248 475.441,60.95 475.344,60.804L475.279,60.862C475.182,60.959 475.023,60.959 474.926,60.862C474.828,60.764 474.828,60.606 474.926,60.508L475.123,60.349C475.268,60.265 475.432,60.248 475.573,60.336C475.928,60.55 475.93,61.255 476.603,61.455C476.619,61.253 476.673,61.062 476.776,60.885C476.644,60.861 476.52,60.852 476.384,60.861C476.246,60.871 476.126,60.767 476.116,60.629C476.107,60.492 476.211,60.372 476.349,60.362C476.747,60.334 476.675,60.438 476.543,60.251C476.24,59.822 476.545,59.245 476.281,59.053C476.122,58.937 475.795,58.921 475.6,58.921ZM476.548,67.392C475.836,67.939 475,68.789 474.855,69.673C475.526,69.625 476.159,69.443 476.695,69.11L476.548,67.392ZM475.907,67.269C475.552,67.285 475.462,67.29 475.216,67.269C474.726,67.248 474.249,67.18 473.79,67.07L474.523,69.038C474.804,68.354 475.35,67.749 475.907,67.269ZM474.229,69.68L473.268,67.101L471.148,68.67C472.068,69.28 473.182,69.63 474.229,69.68ZM471.028,65.78C471.233,66.479 471.36,67.271 471.228,67.99L472.857,66.783C472.384,66.602 472.257,66.513 472.252,66.523C472.052,66.414 471.617,66.216 471.028,65.78ZM470.947,65.079C470.279,63.515 470.765,61.336 471.362,59.756C470.553,60.446 469.962,61.624 469.962,62.772C469.963,63.59 470.252,64.351 470.856,65L470.947,65.079ZM470.395,65.456L469.436,66.489C469.621,67.194 470.065,67.794 470.63,68.279C470.956,67.449 470.703,66.292 470.395,65.456ZM475.228,66.769C475.508,66.782 475.604,66.776 475.706,66.774C475.906,66.759 476.181,66.694 476.271,66.515C476.321,66.415 476.288,66.314 476.206,66.235C475.898,65.943 475.38,66.321 473.733,65.152C472.159,64.042 474.26,61.066 472.807,59.703C472.473,59.391 472.089,59.202 471.651,59.327C472.081,59.569 472.359,59.899 472.479,60.429C472.642,61.142 472.488,62.23 472.378,63.006C472.248,63.921 472.417,64.792 472.965,65.51C473.513,66.228 474.376,66.685 475.228,66.769ZM471.883,62.936C471.983,62.232 472.146,61.105 471.977,60.478C471.931,60.31 471.866,60.181 471.779,60.07C471.027,62.132 470.553,65.001 472.477,66.075C472.658,66.163 472.844,66.243 473.033,66.315C472.131,65.508 471.684,64.333 471.883,62.936ZM471.029,59.068C471.67,58.66 472.368,58.68 473.035,59.239C473.171,58.34 473.612,57.611 474.229,56.953C471.566,56.239 469.24,54.197 468.269,51.332C467.429,53.018 466.987,54.834 467.055,56.731C468.246,57.866 469.829,58.716 471.029,59.068ZM475.286,43.977C474.994,43.546 474.654,43.16 474.255,42.809C469.454,45.016 465.578,49.595 465.547,54.795C465.837,55.32 466.178,55.789 466.548,56.206C466.621,50.899 470.501,46.276 475.286,43.977ZM465.5,47.547C464.688,47.547 464.658,47.549 464.5,47.54L464.5,53.751C464.5,54.096 464.73,54.387 465.054,54.475C465.087,53.525 465.241,52.598 465.5,51.704L465.5,47.547ZM466,47.547L466,50.305C466.415,49.332 466.952,48.408 467.587,47.547L466,47.547ZM464.75,47.047L467.963,47.047C467.446,46.067 467.053,44.951 467.089,43.848C466.809,43.392 466.456,42.962 466,42.678L466,43.978L465.75,44.228L464.25,44.228L464,43.978L464,43.629C463.805,43.657 463.549,43.73 463.446,43.898C463.36,44.04 463.458,44.169 463.597,44.259C463.626,44.278 463.702,44.31 463.799,44.334C464.071,44.404 464.489,44.436 464.768,44.436C464.905,44.436 465.017,44.549 465.017,44.687C465.016,44.825 464.903,44.936 464.766,44.936C464.395,44.935 463.673,44.889 463.34,44.687C463.314,44.81 463.349,44.916 463.426,45.011C463.574,45.188 463.792,45.257 464.019,45.293C464.191,45.323 464.377,45.333 464.518,45.333C464.655,45.334 464.767,45.446 464.767,45.584C464.766,45.722 464.653,45.834 464.516,45.833C464.142,45.832 463.65,45.779 463.333,45.581L463.426,45.834C463.605,46.05 464.063,46.209 464.267,46.208C464.404,46.208 464.517,46.32 464.517,46.458C464.517,46.597 464.404,46.708 464.267,46.708C464.027,46.708 463.712,46.605 463.484,46.49L463.498,46.629L463.619,46.8C463.896,47.002 464.409,47.047 464.75,47.047ZM464,38.914L464,38.379L462.164,38.379L462.164,38.879C462.164,39.017 462.052,39.129 461.914,39.129C461.775,39.129 461.664,39.017 461.664,38.879L461.664,38.379L460.914,38.379C460.775,38.379 460.664,38.267 460.664,38.129C460.664,37.991 460.775,37.879 460.914,37.879L461.664,37.879L461.664,37.379C461.664,37.241 461.775,37.129 461.914,37.129C462.052,37.129 462.164,37.241 462.164,37.379L462.164,37.879L464,37.879L464,37.342C463.026,37.744 461.2,36.354 462.219,35.393L461.478,34.898C459.801,36.469 459.813,39.8 461.478,41.36L462.219,40.864C462.037,40.692 461.921,40.484 461.923,40.228C461.923,39.384 463.247,38.604 464,38.914ZM464.5,43.728L465.5,43.728L465.5,34.833L464.5,34.833L464.5,43.728ZM467.345,42.609C467.627,41.934 468.119,41.433 468.732,41.138C469.938,40.442 470.87,39.811 471.559,39.205C472.314,38.54 472.94,37.773 473.121,36.791C472.868,36.989 472.596,37.157 472.295,37.293C471.341,37.782 470.498,38.313 469.668,39.017C468.614,39.909 467.452,41.227 467.345,42.609ZM471.067,37.082C471.645,37.083 472.438,36.788 473.111,36.139C472.229,34.512 473.723,32.032 472.645,31.259C471.35,30.34 470.855,30.471 470.484,30.346L470.359,30.546C470.326,30.661 470.272,30.886 470.323,30.996C470.467,31.287 471.707,30.915 472.278,31.631C472.365,31.738 472.348,31.896 472.239,31.982C472.132,32.068 471.975,32.051 471.889,31.943C471.53,31.498 470.676,31.758 470.173,31.509C470.261,31.809 470.463,32.133 470.293,32.646C470.132,33.137 469.896,33.48 469.602,33.891C470.227,34.076 470.215,34.071 470.226,34.076C470.216,34.074 470.572,34.155 470.871,34.485C471.117,34.755 471.226,35.053 471.323,35.2L471.388,35.142C471.485,35.044 471.644,35.044 471.741,35.142C471.839,35.24 471.839,35.398 471.741,35.496L471.544,35.654C471.382,35.75 471.22,35.745 471.094,35.667C470.739,35.453 470.737,34.748 470.064,34.549C470.048,34.75 469.994,34.941 469.892,35.118C470.035,35.145 470.158,35.151 470.284,35.143C470.422,35.133 470.541,35.237 470.551,35.374C470.561,35.512 470.456,35.632 470.318,35.641C469.92,35.668 469.993,35.566 470.124,35.752C470.426,36.18 470.124,36.76 470.387,36.951C470.545,37.066 470.872,37.082 471.067,37.082ZM470.119,28.611C470.828,28.067 471.667,27.217 471.812,26.331C471.141,26.378 470.508,26.561 469.972,26.894L470.119,28.611ZM470.76,28.735C471.1,28.72 471.197,28.71 471.451,28.732C471.94,28.754 472.418,28.824 472.878,28.934L472.145,26.965C471.864,27.646 471.319,28.252 470.76,28.735ZM472.438,26.324L473.399,28.902L475.519,27.333C474.604,26.727 473.492,26.373 472.438,26.324ZM475.64,30.224C475.435,29.525 475.307,28.733 475.44,28.013L473.81,29.221C474.283,29.401 474.41,29.491 474.416,29.481C474.579,29.57 475.038,29.778 475.64,30.224ZM475.72,30.925C476.389,32.488 475.902,34.667 475.305,36.248C476.114,35.558 476.705,34.379 476.705,33.231C476.705,32.419 476.418,31.656 475.812,31.003L475.72,30.925ZM476.272,30.548L477.231,29.514C477.046,28.81 476.603,28.209 476.037,27.725C475.711,28.555 475.964,29.711 476.272,30.548ZM471.439,29.234C471.159,29.222 471.063,29.227 470.962,29.229C470.762,29.245 470.486,29.31 470.396,29.488C470.346,29.589 470.38,29.69 470.461,29.768C470.77,30.06 471.287,29.683 472.934,30.852C474.506,31.959 472.409,34.939 473.86,36.301C474.193,36.612 474.578,36.802 475.016,36.677C474.577,36.429 474.307,36.095 474.188,35.574C474.025,34.862 474.179,33.773 474.289,32.998C474.419,32.085 474.252,31.214 473.703,30.493C473.154,29.775 472.291,29.319 471.439,29.234ZM474.784,33.068C474.685,33.771 474.521,34.898 474.69,35.526C474.736,35.694 474.801,35.822 474.889,35.934C475.641,33.872 476.114,31.002 474.19,29.929C474.009,29.841 473.823,29.761 473.634,29.689C474.534,30.493 474.983,31.667 474.784,33.068ZM475.638,36.935C474.996,37.345 474.298,37.323 473.632,36.764C473.496,37.664 473.055,38.392 472.438,39.051C475.101,39.764 477.427,41.807 478.398,44.671C479.239,42.983 479.68,41.165 479.613,39.273C478.422,38.138 476.838,37.287 475.638,36.935ZM478.69,53.537C479.44,52.308 478.998,50.652 478.353,49.365C476.848,51.109 474.936,52.545 472.848,53.543C473.928,54.336 475.162,54.723 476.232,54.723C477.23,54.723 478.165,54.396 478.69,53.537ZM469.806,48.934C469.358,49.496 468.969,50.063 468.601,50.71C469.445,53.758 471.879,55.914 474.647,56.541C475.122,56.107 475.702,55.672 476.397,55.219C475.198,55.26 473.971,54.862 472.955,54.222C471.194,53.114 469.995,51.27 469.806,48.934ZM475.009,44.674C473.226,45.606 471.593,46.87 470.278,48.367C470.293,49.552 470.57,50.571 471.021,51.426L475.009,44.674ZM475.647,44.577L471.658,51.329C473.441,50.397 475.074,49.134 476.389,47.636C476.374,46.451 476.097,45.433 475.647,44.577ZM470.436,41.281C469.436,41.28 468.502,41.608 467.977,42.467C467.227,43.696 467.669,45.352 468.314,46.639C469.819,44.895 471.731,43.458 473.819,42.46C472.738,41.665 471.503,41.28 470.436,41.281ZM476.862,47.07C477.304,46.513 477.694,45.948 478.066,45.293C477.223,42.246 474.789,40.09 472.02,39.462C471.545,39.897 470.965,40.332 470.27,40.785C471.469,40.744 472.696,41.142 473.713,41.781C475.473,42.89 476.672,44.733 476.862,47.07ZM479.08,48.457L480.667,48.457L480.667,45.699C480.252,46.671 479.715,47.596 479.08,48.457ZM471.381,52.027C471.673,52.457 472.013,52.843 472.413,53.195C477.213,50.988 481.089,46.409 481.12,41.209C480.831,40.684 480.489,40.215 480.119,39.798C480.046,45.097 476.176,49.722 471.381,52.027ZM481.167,48.457C482.002,48.457 482.018,48.455 482.167,48.463L482.167,42.252C482.167,41.908 481.937,41.617 481.614,41.529C481.581,42.478 481.426,43.405 481.167,44.3L481.167,48.457ZM480.667,57.041C480.434,57.153 480.104,57.203 479.716,57.119L479.527,57.625L480.667,57.625L480.667,57.041ZM480.667,58.125L479.527,58.125L479.716,58.63C480.032,58.562 480.375,58.569 480.667,58.709L480.667,58.125ZM466,38.962C466.233,38.851 466.563,38.801 466.951,38.885L467.14,38.379L466,38.379L466,38.962ZM466,37.879L467.14,37.879L466.951,37.373C466.634,37.441 466.292,37.434 466,37.294L466,37.879ZM486.16,60.704C485.768,61.316 485.374,61.607 485.355,61.621L485.069,61.626L483.871,60.826L483.891,60.398C484.171,60.248 484.333,60.055 484.19,59.773C483.97,59.336 483.217,58.978 482.862,59.119C482.786,59.149 482.733,59.2 482.7,59.291C482.653,59.42 482.667,59.406 482.667,61.42L482.417,61.67L480.917,61.67L480.667,61.42L480.667,59.519C480.667,59.42 480.646,59.328 480.58,59.253C480.392,59.039 479.932,59.061 479.649,59.167L479.328,59.02C478.923,57.935 478.933,57.97 478.933,57.959L478.933,57.79C478.933,57.79 478.922,57.816 479.328,56.728L479.649,56.582C479.918,56.683 480.345,56.71 480.552,56.524C480.622,56.462 480.667,56.374 480.667,56.231L480.667,53.895C480.35,53.743 480.077,53.538 479.827,53.288C479.763,55.374 477.64,57.305 475.873,58.432C476.336,58.47 476.746,58.623 476.863,59.076C476.964,59.467 476.802,59.871 477.006,60.017C477.143,60.113 477.151,60.322 477.004,60.425C477.099,60.449 477.318,60.511 477.392,60.576C477.497,60.669 477.504,60.825 477.413,60.927C477.35,60.998 477.26,61.003 477.171,61.207C477.124,61.314 477.094,61.452 477.098,61.601L477.543,61.732L477.677,62.115C477.326,62.62 477.029,62.967 476.849,63.514C476.696,63.978 477.037,64.192 477.036,64.76C477.037,65.175 476.833,65.586 476.604,65.928C476.79,66.141 476.852,66.428 476.736,66.698L477.008,66.912L477.207,69.216L477.099,69.444C474.411,71.28 469.563,69.488 468.916,66.471L468.978,66.248L470.175,64.957C469.974,64.681 469.817,64.394 469.705,64.1C469.091,62.501 469.715,60.645 470.857,59.539C470.206,59.343 469.321,58.956 468.493,58.452C467.09,57.597 465.872,56.444 465.082,54.989C464.472,54.906 464,54.385 464,53.751L464,47.478C463.676,47.41 463.292,47.266 463.112,46.985C462.958,46.738 462.944,46.396 463.061,46.174C462.786,45.863 462.776,45.466 462.938,45.175C462.774,44.876 462.81,44.532 462.976,44.291C462.771,43.835 463.071,43.223 464,43.124L464,39.762C463.997,39.489 463.897,39.342 463.621,39.343C463.072,39.339 462.181,39.98 462.488,40.421C462.538,40.491 462.627,40.572 462.776,40.653L462.796,41.081L461.598,41.881L461.312,41.874C461.294,41.861 460.899,41.571 460.507,40.958C459.462,39.33 459.463,36.926 460.507,35.3C460.899,34.687 461.294,34.396 461.312,34.383L461.598,34.377L462.796,35.177L462.776,35.605C462.627,35.686 462.538,35.767 462.488,35.837C462.085,36.414 463.743,37.326 463.967,36.713C464.014,36.584 464,36.597 464,34.584L464.25,34.334L465.75,34.334L466,34.584L466,36.485C466,36.583 466.021,36.676 466.087,36.75C466.274,36.964 466.735,36.942 467.018,36.836L467.34,36.983C467.744,38.069 467.734,38.034 467.734,38.044L467.734,38.214C467.734,38.224 467.745,38.187 467.34,39.275L467.018,39.421C466.748,39.32 466.322,39.294 466.115,39.479C466.046,39.541 466.001,39.629 466,39.772L466,42.108C466.316,42.26 466.589,42.465 466.841,42.716C466.905,40.629 469.027,38.699 470.794,37.571C470.328,37.533 469.92,37.378 469.804,36.927C469.706,36.544 469.863,36.131 469.661,35.987C469.524,35.891 469.516,35.682 469.663,35.579L469.311,35.454C469.148,35.354 469.154,35.119 469.313,35.026C469.498,34.916 469.574,34.618 469.57,34.403L469.125,34.271L468.99,33.889C469.345,33.379 469.639,33.034 469.818,32.49C469.87,32.331 469.87,32.207 469.832,32.063C469.717,31.629 469.344,31.15 470.063,30.076C469.877,29.863 469.815,29.576 469.932,29.306L469.659,29.092L469.46,26.788L469.568,26.56C472.27,24.714 477.107,26.535 477.751,29.533L477.689,29.755L476.493,31.046C477.419,32.319 477.396,33.896 476.691,35.265C476.453,35.727 476.149,36.136 475.81,36.464C477.201,36.883 478.914,37.868 480.036,38.986C480.613,39.549 481.153,40.22 481.585,41.015C482.195,41.097 482.667,41.619 482.667,42.252L482.667,48.526C482.992,48.593 483.376,48.738 483.555,49.019C483.71,49.267 483.723,49.609 483.607,49.83C483.873,50.131 483.897,50.526 483.729,50.828C483.893,51.127 483.857,51.472 483.691,51.712C483.896,52.167 483.597,52.781 482.667,52.879L482.667,56.242C482.669,56.384 482.698,56.473 482.733,56.526C482.959,56.868 483.845,56.512 484.146,56.052C484.313,55.802 484.293,55.568 483.891,55.351L483.871,54.923L485.069,54.123L485.355,54.129C485.374,54.142 485.768,54.433 486.16,55.045C487.205,56.673 487.204,59.077 486.16,60.704ZM471.444,32.319C471.446,32.506 471.446,32.506 471.448,32.694C471.449,32.832 471.339,32.945 471.201,32.947C471.063,32.948 470.949,32.838 470.948,32.7C470.946,32.512 470.946,32.512 470.944,32.325C470.942,32.186 471.053,32.073 471.191,32.072C471.329,32.07 471.442,32.181 471.444,32.319Z" style="fill:rgb(31,31,31);fill-rule:nonzero;"/>
        </g>
    </g>
</svg>
