<?xml version="1.0" encoding="UTF-8" standalone="no"?>
<!DOCTYPE svg PUBLIC "-//W3C//DTD SVG 1.1//EN" "http://www.w3.org/Graphics/SVG/1.1/DTD/svg11.dtd">
<svg width="100%" height="100%" viewBox="0 0 41 56" version="1.1" xmlns="http://www.w3.org/2000/svg" xmlns:xlink="http://www.w3.org/1999/xlink" xml:space="preserve" xmlns:serif="http://www.serif.com/" style="fill-rule:evenodd;clip-rule:evenodd;stroke-linejoin:round;stroke-miterlimit:2;">
    <g transform="matrix(1,0,0,1,-453,-200)">
        <g>
            <path d="M490.833,256L455.833,256C454.452,256 453.333,254.881 453.333,253.5L453.333,202.5C453.333,201.119 454.452,200 455.833,200L490.833,200C492.214,200 493.333,201.119 493.333,202.5L493.333,253.5C493.333,254.881 492.214,256 490.833,256Z" style="fill:white;fill-rule:nonzero;"/>
            <path d="M490.833,256L455.833,256C454.452,256 453.333,254.881 453.333,253.5L453.333,202.5C453.333,201.119 454.452,200 455.833,200L490.833,200C492.214,200 493.333,201.119 493.333,202.5L493.333,253.5C493.333,254.881 492.214,256 490.833,256ZM490.833,255.8L455.833,255.8C454.562,255.8 453.533,254.771 453.533,253.5L453.533,202.5C453.533,201.229 454.562,200.2 455.833,200.2L490.833,200.2C492.104,200.2 493.133,201.229 493.133,202.5L493.133,253.5C493.133,254.771 492.104,255.8 490.833,255.8Z" style="fill:rgb(204,204,204);"/>
            <path d="M459.333,213.375C458.883,212.673 458.285,212.075 457.583,211.625C458.285,211.175 458.883,210.577 459.333,209.875C459.783,210.577 460.381,211.175 461.083,211.625C460.381,212.075 459.783,212.673 459.333,213.375Z" style="fill:rgb(201,49,18);fill-rule:nonzero;"/>
            <path d="M487.333,241.875C487.783,242.577 488.381,243.175 489.083,243.625C488.381,244.075 487.783,244.673 487.333,245.375C486.883,244.673 486.285,244.075 485.583,243.625C486.285,243.175 486.883,242.577 487.333,241.875Z" style="fill:rgb(201,49,18);fill-rule:nonzero;"/>
            <path d="M459.894,204.018L459.784,204.079L459.748,204.195L459.748,206.961C459.748,207.299 459.729,207.587 459.692,207.825C459.656,208.064 459.583,208.27 459.473,208.443C459.363,208.617 459.208,208.769 459.008,208.897C458.807,209.026 458.544,209.151 458.218,209.271L458.055,208.928C458.241,208.808 458.393,208.692 458.51,208.58C458.627,208.469 458.718,208.345 458.782,208.209C458.846,208.074 458.89,207.916 458.913,207.735C458.937,207.555 458.948,207.337 458.948,207.083L458.948,204.195L458.911,204.077L458.803,204.018L458.343,203.927L458.343,203.581L460.298,203.581L460.298,203.927L459.894,204.018Z" style="fill:rgb(201,49,18);fill-rule:nonzero;"/>
            <path d="M486.771,251.232L486.879,251.172L486.916,251.055L486.916,248.289C486.916,247.951 486.935,247.663 486.971,247.425C487.008,247.186 487.081,246.98 487.191,246.807C487.301,246.633 487.455,246.481 487.656,246.353C487.857,246.224 488.12,246.1 488.446,245.979L488.609,246.322C488.423,246.442 488.271,246.559 488.154,246.67C488.037,246.781 487.945,246.904 487.882,247.041C487.818,247.176 487.773,247.334 487.751,247.515C487.728,247.695 487.716,247.912 487.716,248.166L487.716,251.055L487.752,251.173L487.861,251.232L488.32,251.322L488.32,251.669L486.366,251.669L486.366,251.322L486.771,251.232Z" style="fill:rgb(201,49,18);fill-rule:nonzero;"/>
            <path d="M483.832,212.999C482.932,211.594 481.736,210.399 480.332,209.499C481.736,208.599 482.932,207.403 483.832,205.999C484.732,207.403 485.928,208.599 487.332,209.499C485.928,210.399 484.732,211.594 483.832,212.999Z" style="fill:rgb(201,49,18);fill-rule:nonzero;"/>
            <path d="M466.333,246.501C464.929,247.401 463.733,248.597 462.833,250.001C461.934,248.597 460.737,247.401 459.333,246.501C460.737,245.602 461.934,244.405 462.833,243.001C463.733,244.405 464.929,245.602 466.333,246.501Z" style="fill:rgb(201,49,18);fill-rule:nonzero;"/>
            <path d="M457.332,216L457.332,251.75L457.582,252L482.332,252L482.332,251.5L457.832,251.5L457.832,216L457.332,216ZM489.332,240L488.832,240L488.832,204.5L464.332,204.5L464.332,204L489.082,204L489.332,204.25L489.332,240Z" style="fill:rgb(31,31,31);fill-rule:nonzero;"/>
            <path d="M476.02,246.44C472.286,246.609 471.44,243.312 471.44,239.56C471.44,238.92 471.86,238.24 472.43,237.94C473.377,237.433 474.341,238.369 473.97,239.21C473.8,239.6 473.35,239.76 473.02,239.69C472.48,239.6 472.885,238.85 473.2,239.03C473.488,239.174 473.711,238.726 473.42,238.58C472.951,238.355 472.26,238.702 472.26,239.42C472.26,242.42 472.26,245.82 476.11,245.82C476.596,245.82 476.473,246.356 476.02,246.44Z" style="fill:rgb(249,203,25);fill-rule:nonzero;"/>
            <path d="M472.62,245.76C470.69,244.71 470.26,241.81 470.26,239.45C470.26,239.11 470.42,238.76 470.67,238.56C470.84,238.42 471.06,238.37 471.29,238.36C471.07,238.73 470.94,239.15 470.94,239.56C470.94,242.53 471.5,244.58 472.62,245.76Z" style="fill:rgb(249,203,25);fill-rule:nonzero;"/>
            <path d="M471.03,244.95C469.74,244.01 469.26,241.92 469.26,240.2C469.26,239.84 469.44,239.44 469.78,239.23L469.76,239.45C469.76,241.88 470.19,243.72 471.03,244.95Z" style="fill:rgb(249,203,25);fill-rule:nonzero;"/>
            <path d="M476.67,248.94C475.78,249.25 474.929,249.389 474.118,249.398L474.34,246.85C474.57,246.89 474.79,246.92 475.01,246.93L475.11,246.95L475.13,246.94C475.31,246.95 475.48,246.95 475.64,246.95L475.66,246.96L475.77,246.94C475.87,246.93 475.98,246.93 476.08,246.92L476.67,248.94Z" style="fill:rgb(201,49,18);fill-rule:nonzero;"/>
            <path d="M473.85,246.76L473.62,249.38C472.55,249.31 471.55,248.98 470.61,248.39L471.91,246.13C472.651,246.456 473.387,246.665 473.85,246.76Z" style="fill:rgb(201,49,18);fill-rule:nonzero;"/>
            <path d="M471.45,245.93L470.18,248.12C469.54,247.66 468.93,247.07 468.33,246.35L469.98,245.02C470.436,245.376 470.968,245.68 471.45,245.93Z" style="fill:rgb(201,49,18);fill-rule:nonzero;"/>
            <path d="M475.4,234.91C471.794,237.645 472.065,237.459 471.94,237.49C471.75,237.59 471.58,237.73 471.43,237.88L471.42,237.88C470.681,237.728 470.067,238.023 469.73,238.63C469.13,238.75 468.74,239.21 468.59,239.72C468.02,239.44 467.43,239.08 466.92,238.63C468.56,236.22 472.17,234.98 475.18,234.9L475.4,234.91Z" style="fill:rgb(249,203,25);fill-rule:nonzero;"/>
            <path d="M481.65,230.77C481.682,230.77 481.785,230.771 481.92,230.778L481.92,230.38C481.828,230.375 481.736,230.37 481.65,230.37C481.319,230.37 481.318,229.87 481.65,229.87C481.696,229.87 481.795,229.872 481.92,229.879L481.92,229.517C481.819,229.507 481.725,229.5 481.65,229.5C481.319,229.5 481.318,229 481.65,229C481.711,229 481.808,229.007 481.92,229.019L481.92,228.678C481.831,228.672 481.755,228.66 481.65,228.66C481.319,228.66 481.318,228.16 481.65,228.16C481.75,228.16 481.83,228.17 481.92,228.17L481.92,219.14L480.92,219.14L480.92,231.77C481.08,232.055 481.446,232.305 481.65,232.57C482.181,233.253 481.765,233.83 481.25,233.83C481.127,233.83 481.02,233.785 480.92,233.76C480.92,236.185 480.945,236.684 480.84,236.79L480.83,236.8L479.91,237.62L480.83,238.44L480.84,238.45L480.92,238.63L480.92,240.12L481.92,240.12L481.92,231.28C481.828,231.274 481.736,231.27 481.65,231.27C481.319,231.27 481.318,230.77 481.65,230.77Z" style="fill:rgb(249,203,25);fill-rule:nonzero;"/>
            <path d="M475.89,227.91L475.89,234.4C475.68,234.39 475.47,234.39 475.26,234.4C472.563,234.128 469.956,231.832 469.8,228.33C472.215,229.136 473.74,227.012 475.89,227.91Z" style="fill:rgb(201,49,18);fill-rule:nonzero;"/>
            <path d="M465.83,217.26C465.718,217.091 465.75,216.811 465.75,215.58L464.75,215.58L464.75,224.427C464.841,224.433 464.933,224.438 465.02,224.44C465.16,224.44 465.27,224.55 465.27,224.69C465.27,224.82 465.15,224.94 465.02,224.94C464.972,224.94 464.873,224.938 464.75,224.932L464.75,225.32C464.841,225.325 464.933,225.33 465.02,225.33C465.348,225.33 465.351,225.83 465.02,225.83C464.972,225.83 464.873,225.829 464.75,225.823L464.75,226.193C464.85,226.203 464.944,226.21 465.02,226.21C465.354,226.21 465.347,226.71 465.02,226.71C464.96,226.71 464.862,226.703 464.75,226.692L464.75,227.032C464.84,227.038 464.916,227.05 465.02,227.05C465.15,227.05 465.27,227.16 465.27,227.3C465.27,227.43 465.15,227.55 465.02,227.55C464.92,227.55 464.84,227.54 464.75,227.53L464.75,236.57L465.75,236.57L465.75,223.94C465.565,223.644 465.243,223.426 465.01,223.13C464.458,222.416 464.978,221.809 465.5,221.88L465.75,221.95C465.75,219.406 465.719,219.032 465.83,218.92L465.83,218.91L466.76,218.08L465.83,217.26Z" style="fill:rgb(249,203,25);fill-rule:nonzero;"/>
            <path d="M481.17,228.02L479.21,229.97C478.79,228.82 478.18,228.02 477.39,227.58C477.35,225.37 476.46,223.87 475.58,222.92C478,222.34 479.99,221.19 481.16,219.7C481.176,219.793 481.17,219.33 481.17,228.02Z" style="fill:rgb(201,49,18);fill-rule:nonzero;"/>
            <path d="M471.08,232.79C468.65,233.37 466.67,234.52 465.51,236C465.494,235.906 465.5,236.395 465.5,227.69L467.46,225.73C467.88,226.89 468.49,227.69 469.28,228.12C469.32,230.34 470.21,231.84 471.08,232.79Z" style="fill:rgb(35,75,194);fill-rule:nonzero;"/>
            <path d="M476.87,227.38C476,227.09 474.96,227.16 473.74,227.62C472.56,228.07 471.57,228.12 470.78,227.8L470.78,221.31C472.366,221.31 473.722,221.864 474.84,222.88C475.73,223.69 476.77,225.13 476.87,227.38Z" style="fill:rgb(249,203,25);fill-rule:nonzero;"/>
            <path d="M479.74,217.08C478.056,219.565 474.261,220.8 471.27,220.8L474.61,218.26L474.62,218.25C474.811,218.187 475.073,217.997 475.24,217.83C475.34,217.83 475.329,217.87 475.62,217.87C476.189,217.87 476.673,217.566 476.93,217.08C477.53,216.95 477.93,216.5 478.08,215.99C478.65,216.27 479.23,216.63 479.74,217.08Z" style="fill:rgb(35,75,194);fill-rule:nonzero;"/>
            <path d="M477.41,215.5C477.41,215.87 477.23,216.27 476.88,216.48L476.91,216.25C476.91,213.83 476.47,211.98 475.64,210.76C476.93,211.7 477.41,213.79 477.41,215.5Z" style="fill:rgb(249,203,25);fill-rule:nonzero;"/>
            <path d="M476.41,216.25C476.41,216.791 476.054,217.34 475.37,217.34C475.6,216.98 475.73,216.56 475.73,216.15C475.73,213.18 475.17,211.13 474.05,209.95C475.98,211 476.41,213.9 476.41,216.25Z" style="fill:rgb(249,203,25);fill-rule:nonzero;"/>
            <path d="M475.23,216.15C475.23,217.215 474.057,218.375 473.09,217.73C472.157,217.097 472.736,215.816 473.65,216.01C474.173,216.133 473.811,216.826 473.47,216.68C473.174,216.532 472.963,216.986 473.25,217.13C473.87,217.378 474.41,216.877 474.41,216.28C474.41,213.28 474.41,209.88 470.55,209.88C470.069,209.88 470.212,209.335 470.65,209.27C470.87,209.25 471.1,209.25 471.35,209.27C473.95,209.46 475.23,211.71 475.23,216.15Z" style="fill:rgb(249,203,25);fill-rule:nonzero;"/>
            <path d="M478.33,209.36L476.69,210.69C476.156,210.272 476.051,210.28 475.95,210.18L475.94,210.18C475.71,210.04 475.46,209.9 475.22,209.78L476.48,207.58C477.13,208.05 477.74,208.64 478.33,209.36Z" style="fill:rgb(201,49,18);fill-rule:nonzero;"/>
            <path d="M476.06,207.32L474.76,209.57C474.001,209.245 473.522,209.096 472.82,208.94L473.05,206.33C474.11,206.4 475.11,206.73 476.06,207.32Z" style="fill:rgb(201,49,18);fill-rule:nonzero;"/>
            <path d="M472.55,206.309L472.33,208.85C472.006,208.798 471.618,208.76 471.57,208.76L471.55,208.77C471.129,208.732 471.149,208.76 471.03,208.76L471,208.75L470.9,208.77C470.8,208.77 470.68,208.77 470.59,208.79L470,206.76C470.89,206.46 471.729,206.319 472.55,206.309Z" style="fill:rgb(201,49,18);fill-rule:nonzero;"/>
            <path d="M486.517,237.626C486.517,236.416 486.281,234.891 485.381,234.081C485.335,234.443 485.234,234.765 485.097,235.047C485.661,236.485 485.659,238.77 485.097,240.206C485.234,240.487 485.335,240.809 485.381,241.171C486.28,240.363 486.517,238.841 486.517,237.626ZM485.014,237.376C484.994,236.64 484.894,236.053 484.754,235.587C484.243,236.227 483.466,236.661 482.666,236.864L482.666,237.376L485.014,237.376ZM485.014,237.876L482.666,237.876L482.666,238.388C483.455,238.589 484.239,239.02 484.754,239.664C484.894,239.198 484.994,238.611 485.014,237.876ZM482.666,231.729L482.666,232.077C482.787,232.061 482.891,232.033 482.973,231.998C483.283,231.865 483.364,231.639 483.069,231.448C482.873,231.313 482.149,231.271 481.899,231.271C481.762,231.271 481.649,231.158 481.65,231.02C481.65,230.882 481.763,230.771 481.901,230.771C482.287,230.771 482.997,230.819 483.326,231.02C483.369,230.815 483.245,230.663 483.069,230.551C482.873,230.415 482.149,230.374 481.899,230.373C481.762,230.373 481.649,230.261 481.65,230.122C481.65,229.984 481.763,229.873 481.901,229.873C482.288,229.874 483.006,229.923 483.334,230.126C483.339,229.95 483.219,229.823 483.069,229.727C482.87,229.595 482.188,229.498 481.899,229.498C481.762,229.498 481.649,229.386 481.65,229.247C481.65,229.109 481.763,228.998 481.901,228.998C482.235,228.999 482.845,229.085 483.182,229.225C483.19,229.132 483.163,229.034 483.133,228.99C483.111,228.954 483.025,228.866 482.83,228.793C482.636,228.72 482.335,228.659 481.9,228.66C481.762,228.66 481.65,228.548 481.65,228.41C481.65,228.271 481.762,228.16 481.9,228.16C481.994,228.16 482.082,228.163 482.166,228.168L482.166,219.139L481.166,219.139L481.166,231.777C481.394,232.146 481.859,232.382 482.072,232.851C482.314,233.391 481.942,233.831 481.502,233.831C481.406,233.831 481.259,233.799 481.166,233.777C481.166,236.735 481.169,236.624 481.159,236.666L481.12,236.754C481.095,236.79 481.094,236.787 480.158,237.622C481.091,238.45 481.094,238.448 481.12,238.485L481.159,238.573C481.169,238.614 481.166,238.529 481.166,240.123L482.166,240.123L482.166,231.729C482.166,231.591 482.278,231.479 482.416,231.479C482.555,231.479 482.666,231.591 482.666,231.729ZM481.48,233.329L481.502,233.331L481.65,233.188C481.651,233.09 481.568,232.96 481.507,232.882C481.288,232.598 480.944,232.395 480.718,232.002L480.666,231.851L480.666,228.727L478.928,230.465C479.369,231.717 480.171,233.146 481.48,233.329ZM480.666,228.02C480.666,219.333 480.669,219.849 480.661,219.704C479.339,221.38 477.15,222.417 475.086,222.923C476.283,224.219 476.855,225.839 476.887,227.576C477.801,228.08 478.354,228.993 478.713,229.973L480.666,228.02ZM478.391,230.583C478.115,229.667 477.671,228.721 476.891,228.169C476.891,234.989 476.897,234.643 476.885,234.705L476.793,234.855C476.788,234.865 476.821,234.835 473.546,237.322C474.014,237.424 474.427,237.755 474.632,238.139L478.391,235.283L478.391,230.583ZM474.8,238.725C474.814,238.961 474.771,239.195 474.678,239.41C474.393,240.064 473.586,240.355 473.009,240.134C473.04,243.066 473.331,245.245 476.209,245.319L476.308,245.159C476.34,245.045 476.395,244.82 476.344,244.711C476.2,244.42 474.959,244.791 474.388,244.076C474.302,243.968 474.319,243.811 474.427,243.725C474.535,243.638 474.692,243.655 474.778,243.764C475.136,244.209 475.991,243.948 476.493,244.197C476.405,243.898 476.203,243.573 476.373,243.06C476.535,242.569 476.771,242.228 477.064,241.815C476.374,241.611 476.264,241.602 475.871,241.369C475.566,241.188 475.287,240.969 475.041,241.211L474.96,241.338C474.918,241.469 474.777,241.541 474.646,241.498C474.515,241.456 474.442,241.315 474.484,241.184C474.596,240.839 474.94,240.604 475.294,240.604C475.771,240.604 476.078,241.003 476.602,241.157C476.619,240.957 476.672,240.767 476.775,240.588C476.632,240.562 476.509,240.556 476.383,240.564C476.245,240.573 476.126,240.47 476.116,240.332C476.106,240.194 476.21,240.075 476.349,240.065C476.485,240.056 476.554,240.062 476.646,240.068C476.357,239.806 476.398,239.482 476.398,239.123C476.399,238.858 476.358,238.748 476.104,238.678C475.741,238.576 475.199,238.632 474.8,238.725ZM476.58,246.918L476.342,246.942L476.133,246.953C475.701,246.967 475.264,246.927 474.84,246.86L474.617,249.409C475.433,249.4 476.281,249.243 477.165,248.942L476.58,246.918ZM475.575,246.441C475.837,246.459 476.034,246.463 476.292,246.444C476.527,246.399 476.67,246.219 476.668,246.05C476.668,245.882 476.53,245.823 476.361,245.823C474.562,245.823 473.372,245.111 472.858,243.392C472.507,242.214 472.506,240.662 472.506,239.423C472.503,238.739 473.171,238.336 473.665,238.578C473.79,238.639 473.841,238.788 473.78,238.912C473.72,239.036 473.569,239.088 473.445,239.027C473.287,238.949 473.008,239.104 473.006,239.423L473.101,239.622C473.164,239.671 473.278,239.708 473.415,239.707C474.301,239.71 474.679,238.562 473.821,237.978C472.868,237.332 471.691,238.482 471.691,239.561C471.691,241.268 471.873,243.451 472.818,244.879C473.458,245.846 474.365,246.356 475.575,246.441ZM474.347,246.77C473.703,246.631 473.039,246.42 472.401,246.142L471.099,248.402C472.077,249.018 473.085,249.332 474.118,249.398L474.347,246.77ZM470.684,248.121L471.947,245.929C471.377,245.645 470.917,245.353 470.482,245.019L468.834,246.35C469.431,247.074 470.047,247.661 470.684,248.121ZM471.278,244.969C470.247,243.475 470.01,241.277 470.01,239.454L470.024,239.233C469.692,239.439 469.509,239.834 469.51,240.204C469.509,241.848 469.937,244.007 471.278,244.969ZM471.191,239.561C471.191,239.128 471.332,238.699 471.56,238.338C470.911,238.335 470.508,238.894 470.51,239.454C470.509,241.725 470.89,244.734 472.907,245.784C471.451,244.294 471.191,241.644 471.191,239.561ZM470.229,238.622C470.587,237.98 471.271,237.726 471.927,237.878C472.118,237.688 472.334,237.536 472.577,237.431L475.891,234.913L475.667,234.895C472.742,234.979 469.061,236.206 467.413,238.634C467.89,239.051 468.462,239.414 469.081,239.72C469.243,239.179 469.653,238.743 470.229,238.622ZM467.047,238.282C468.57,236.107 471.547,234.902 474.157,234.526C473.37,234.227 472.635,233.777 472,233.2C469.782,233.689 467.357,234.815 466.119,236.698C466.287,237.31 466.615,237.824 467.047,238.282ZM466.006,236.002C467.328,234.326 469.516,233.288 471.581,232.783C470.383,231.486 469.812,229.867 469.779,228.13C468.865,227.627 468.312,226.713 467.953,225.733L466,227.687C466,236.373 465.998,235.857 466.006,236.002ZM465.949,223.705L466,223.855L466,226.979L467.738,225.242C467.297,223.988 466.495,222.561 465.187,222.376L465.165,222.375L465.017,222.518C465.016,222.616 465.098,222.746 465.159,222.824C465.373,223.102 465.725,223.316 465.949,223.705ZM465.5,223.929C465.322,223.64 465.01,223.445 464.765,223.131C464.187,222.386 464.737,221.809 465.256,221.881L465.5,221.929L465.5,219.096L465.561,218.934C465.585,218.907 465.498,218.985 466.509,218.084C465.504,217.192 465.585,217.266 465.562,217.239L465.504,217.111C465.499,217.074 465.5,217.206 465.5,215.583L464.5,215.583L464.5,223.978C464.5,224.115 464.389,224.228 464.25,224.228C464.112,224.228 464,224.115 464,223.978L464,223.628C463.805,223.656 463.549,223.73 463.446,223.898C463.36,224.039 463.458,224.168 463.597,224.258C463.626,224.278 463.702,224.31 463.799,224.333C464.071,224.404 464.49,224.435 464.768,224.436C464.905,224.436 465.017,224.548 465.017,224.687C465.016,224.824 464.903,224.936 464.766,224.936C464.396,224.934 463.673,224.888 463.34,224.687C463.297,224.892 463.422,225.043 463.597,225.156C463.626,225.175 463.702,225.207 463.799,225.231C464.07,225.301 464.489,225.333 464.767,225.333C464.905,225.333 465.017,225.446 465.017,225.583C465.016,225.722 464.903,225.833 464.766,225.833C464.445,225.832 463.993,225.797 463.675,225.716C463.341,225.628 463.332,225.552 463.332,225.59C463.332,225.761 463.453,225.886 463.597,225.979C463.802,226.115 464.5,226.207 464.767,226.208C464.905,226.208 465.017,226.32 465.017,226.459C465.016,226.597 464.903,226.708 464.766,226.708C464.439,226.707 463.826,226.623 463.485,226.481C463.477,226.574 463.504,226.672 463.534,226.716C463.556,226.752 463.642,226.84 463.836,226.913C464.03,226.986 464.331,227.047 464.767,227.047C464.904,227.047 465.017,227.158 465.017,227.297C465.017,227.435 464.904,227.547 464.767,227.547C464.673,227.546 464.585,227.543 464.5,227.538L464.5,236.567L465.5,236.567L465.5,223.929ZM464,218.842L464,218.33L461.653,218.33C461.672,219.066 461.773,219.653 461.913,220.119C462.424,219.479 463.2,219.044 464,218.842ZM461.57,215.5C461.433,215.219 461.332,214.897 461.286,214.535C460.387,215.342 460.15,216.866 460.149,218.08C460.15,219.291 460.385,220.816 461.286,221.625C461.332,221.263 461.433,220.941 461.57,220.659C461.006,219.221 461.007,216.937 461.57,215.5ZM461.653,217.83L464,217.83L464,217.318C463.212,217.117 462.427,216.687 461.912,216.042C461.772,216.508 461.672,217.094 461.653,217.83ZM468.275,225.123C468.552,226.039 468.996,226.985 469.775,227.537C469.775,220.768 469.77,221.063 469.781,221.001L469.874,220.851C469.879,220.841 469.846,220.872 473.121,218.383C472.653,218.283 472.24,217.952 472.034,217.567L468.275,220.423L468.275,225.123ZM471.867,216.981C471.853,216.742 471.896,216.508 471.989,216.296C472.275,215.638 473.084,215.352 473.658,215.572C473.627,212.643 473.336,210.461 470.458,210.387L470.359,210.547C470.326,210.662 470.272,210.886 470.323,210.996C470.466,211.286 471.708,210.915 472.278,211.63C472.365,211.738 472.348,211.896 472.239,211.981C472.132,212.068 471.975,212.05 471.889,211.942C471.53,211.497 470.676,211.757 470.173,211.509C470.263,211.813 470.463,212.134 470.293,212.646C470.132,213.137 469.896,213.479 469.602,213.89C470.293,214.095 470.403,214.104 470.796,214.336C471.099,214.517 471.38,214.737 471.625,214.496L471.706,214.369C471.748,214.237 471.89,214.165 472.021,214.208C472.152,214.25 472.225,214.391 472.182,214.522C472.07,214.868 471.726,215.103 471.373,215.103C470.896,215.103 470.589,214.703 470.064,214.549C470.048,214.75 469.994,214.94 469.892,215.118C470.036,215.145 470.159,215.15 470.284,215.142C470.422,215.132 470.541,215.236 470.551,215.374C470.561,215.512 470.456,215.631 470.318,215.641C470.181,215.65 470.113,215.645 470.021,215.638C470.31,215.9 470.268,216.224 470.268,216.583C470.268,216.849 470.31,216.958 470.563,217.028C470.926,217.13 471.469,217.074 471.867,216.981ZM470.087,208.788L470.324,208.764L470.534,208.753C470.967,208.739 471.398,208.778 471.826,208.845L472.049,206.296C471.234,206.306 470.386,206.463 469.502,206.764L470.087,208.788ZM471.088,209.264C470.827,209.247 470.632,209.243 470.375,209.262C470.14,209.306 469.997,209.487 469.998,209.657C469.999,209.835 470.148,209.882 470.327,209.883C474.076,209.877 474.161,213.051 474.161,216.283C474.163,216.966 473.496,217.371 473.001,217.128C472.877,217.067 472.826,216.918 472.887,216.794C472.947,216.67 473.097,216.619 473.221,216.679C473.377,216.756 473.659,216.605 473.661,216.283L473.566,216.083C473.503,216.036 473.389,215.999 473.251,215.999C472.364,215.997 471.989,217.146 472.845,217.729C473.799,218.374 474.976,217.224 474.976,216.146C474.976,214.438 474.793,212.255 473.849,210.828C473.189,209.83 472.262,209.346 471.088,209.264ZM472.32,208.937C472.965,209.075 473.629,209.287 474.265,209.564L475.568,207.304C474.588,206.688 473.581,206.375 472.55,206.309L472.32,208.937ZM475.983,207.584L474.72,209.778C475.295,210.064 475.753,210.355 476.185,210.688L477.833,209.356C477.236,208.632 476.619,208.044 475.983,207.584ZM475.388,210.737C476.42,212.231 476.656,214.429 476.657,216.252L476.643,216.472C476.973,216.267 477.158,215.873 477.157,215.502C477.157,213.855 476.729,211.699 475.388,210.737ZM475.476,216.146C475.475,216.573 475.34,216.997 475.107,217.369C475.759,217.371 476.159,216.809 476.157,216.252C476.157,213.981 475.776,210.972 473.759,209.922C475.215,211.413 475.475,214.063 475.476,216.146ZM476.438,217.084C476.078,217.727 475.395,217.98 474.739,217.829C474.548,218.017 474.333,218.17 474.09,218.275L470.776,220.792L470.999,220.812C473.924,220.727 477.606,219.5 479.254,217.073C478.777,216.655 478.205,216.292 477.585,215.986C477.423,216.529 477.011,216.963 476.438,217.084ZM473.423,228.087C472.418,228.472 471.304,228.688 470.286,228.351C470.417,231.061 472.009,233.123 474.222,234.015C474.713,234.213 475.211,234.338 475.689,234.394C475.953,234.386 476.158,234.389 476.391,234.396L476.391,227.893C475.454,227.507 474.373,227.723 473.423,228.087ZM476.381,227.355C476.25,224.646 474.657,222.583 472.444,221.691C471.954,221.494 471.456,221.368 470.978,221.313C470.714,221.32 470.509,221.318 470.275,221.31L470.275,227.813C471.213,228.198 472.294,227.983 473.244,227.619C474.249,227.234 475.363,227.019 476.381,227.355ZM479.62,217.424C478.096,219.6 475.118,220.804 472.51,221.18C473.296,221.479 474.031,221.929 474.667,222.506C476.885,222.017 479.31,220.89 480.548,219.008C480.382,218.406 480.06,217.891 479.62,217.424ZM487.017,237.626C487.018,239.336 486.604,240.393 486.169,241.021C485.735,241.65 485.288,241.844 485.255,241.857L484.91,241.626C484.909,241.033 484.757,240.577 484.531,240.212C484.123,239.556 483.409,239.124 482.666,238.906L482.666,240.373L482.416,240.623L480.916,240.623L480.666,240.373L480.666,238.741C479.506,237.711 479.602,237.801 479.573,237.757C479.51,237.661 479.521,237.531 479.605,237.446C479.633,237.419 479.84,237.235 480.666,236.498L480.666,233.599C479.863,233.214 479.296,232.452 478.891,231.652L478.891,235.407L478.792,235.606L475.474,238.127C475.914,238.11 476.469,238.154 476.733,238.507C477.062,238.941 476.752,239.538 477.006,239.72C477.143,239.816 477.151,240.025 477.004,240.128L477.372,240.263C477.484,240.344 477.508,240.502 477.428,240.612C477.374,240.687 477.333,240.672 477.255,240.769C477.165,240.879 477.092,241.072 477.097,241.304L477.542,241.436L477.677,241.818C477.497,242.076 477.331,242.294 477.192,242.512C477.044,242.744 476.808,243.177 476.808,243.451C476.808,243.908 477.351,244.31 476.759,245.378C476.737,245.416 476.735,245.384 476.835,245.444C477.21,245.671 477.277,246.18 476.992,246.563C477.002,246.568 476.944,246.377 477.711,249.032L477.557,249.336C474.003,250.634 470.898,249.763 468.286,246.468L468.325,246.118L470.207,244.598C469.33,243.419 469.016,241.696 469.01,240.24C467.599,239.569 466.227,238.551 465.71,237.067L464.25,237.067L464,236.817L464,227.478C463.67,227.409 463.294,227.266 463.112,226.984C462.966,226.751 462.938,226.408 463.061,226.174C462.786,225.862 462.775,225.467 462.938,225.175C462.775,224.875 462.81,224.532 462.976,224.291C462.771,223.835 463.07,223.222 464,223.124L464,219.36C463.269,219.574 462.558,220 462.146,220.648C461.914,221.017 461.758,221.478 461.757,222.08L461.412,222.312C461.378,222.298 460.932,222.104 460.497,221.475C460.063,220.846 459.649,219.79 459.649,218.08C459.649,216.37 460.063,215.314 460.497,214.685C460.932,214.056 461.378,213.862 461.412,213.849L461.757,214.08C461.758,214.673 461.909,215.129 462.136,215.494C462.544,216.15 463.258,216.582 464,216.8L464,215.333L464.25,215.083L465.75,215.083L466,215.333L466,216.964C467.146,217.982 467.064,217.903 467.094,217.949C467.157,218.047 467.145,218.176 467.061,218.26C467.033,218.288 466.83,218.467 466,219.208L466,222.107C466.803,222.492 467.37,223.254 467.775,224.054L467.775,220.299L467.875,220.1L471.193,217.579C470.753,217.595 470.198,217.552 469.934,217.2C469.605,216.766 469.914,216.167 469.661,215.987C469.524,215.89 469.516,215.681 469.663,215.578C469.571,215.555 469.363,215.493 469.294,215.443C469.205,215.379 469.169,215.263 469.207,215.156C469.252,215.03 469.328,215.042 469.412,214.938C469.501,214.828 469.575,214.634 469.57,214.402L469.125,214.271L468.99,213.888C469.17,213.63 469.335,213.412 469.475,213.194C469.623,212.962 469.858,212.53 469.859,212.255C469.858,211.794 469.314,211.398 469.908,210.328C469.929,210.29 469.932,210.323 469.831,210.261C469.457,210.035 469.39,209.526 469.674,209.144C469.664,209.137 469.723,209.329 468.955,206.674L469.11,206.37C472.663,205.072 475.769,205.943 478.38,209.238L478.342,209.588L476.46,211.108C477.337,212.287 477.651,214.01 477.656,215.466C479.075,216.14 480.442,217.16 480.956,218.639L482.416,218.639L482.666,218.889L482.666,228.229C482.997,228.297 483.373,228.44 483.555,228.722C483.71,228.971 483.722,229.313 483.606,229.532C483.877,229.84 483.894,230.235 483.729,230.531C483.893,230.831 483.856,231.176 483.69,231.415C483.896,231.871 483.596,232.484 482.666,232.582L482.666,236.346C483.399,236.132 484.109,235.706 484.52,235.058C484.753,234.689 484.909,234.229 484.91,233.626L485.255,233.395C485.288,233.408 485.735,233.602 486.169,234.231C486.604,234.86 487.018,235.916 487.017,237.626ZM466.882,236.705C466.784,236.803 466.784,236.961 466.882,237.059C466.979,237.156 467.138,237.156 467.235,237.059C467.333,236.962 467.333,236.803 467.235,236.705C467.139,236.608 466.979,236.607 466.882,236.705ZM470.691,234.827C470.821,234.778 470.886,234.634 470.837,234.505C470.789,234.375 470.645,234.311 470.516,234.359C470.386,234.408 470.321,234.552 470.369,234.682C470.419,234.811 470.563,234.876 470.691,234.827ZM468.259,236.13C468.369,236.048 468.392,235.891 468.31,235.78C468.227,235.67 468.07,235.646 467.959,235.729C467.849,235.813 467.826,235.969 467.909,236.079C467.991,236.19 468.148,236.213 468.259,236.13ZM469.427,235.396C469.549,235.331 469.595,235.18 469.53,235.058C469.466,234.936 469.314,234.889 469.192,234.954C469.07,235.019 469.024,235.17 469.089,235.292C469.153,235.414 469.305,235.46 469.427,235.396ZM471.957,234.418C472.095,234.418 472.207,234.306 472.207,234.168C472.207,234.029 472.095,233.918 471.957,233.918C471.819,233.918 471.707,234.029 471.707,234.168C471.707,234.306 471.819,234.418 471.957,234.418ZM474.809,236.935C474.671,236.935 474.559,237.046 474.559,237.185C474.559,237.322 474.67,237.435 474.809,237.435C474.946,237.435 475.059,237.322 475.059,237.185C475.059,237.047 474.946,236.935 474.809,236.935ZM476.937,235.254C476.826,235.337 476.805,235.494 476.889,235.604C476.972,235.714 477.129,235.735 477.238,235.652C477.349,235.568 477.37,235.411 477.286,235.302C477.203,235.191 477.046,235.17 476.937,235.254ZM477.641,232.598C477.503,232.598 477.391,232.71 477.391,232.848C477.391,232.985 477.503,233.098 477.641,233.098C477.779,233.098 477.891,232.985 477.891,232.848C477.891,232.71 477.779,232.598 477.641,232.598ZM477.641,234.028C477.503,234.028 477.391,234.141 477.391,234.278C477.391,234.417 477.503,234.528 477.641,234.528C477.779,234.528 477.891,234.417 477.891,234.278C477.891,234.141 477.779,234.028 477.641,234.028ZM475.797,236.119C475.687,236.203 475.665,236.359 475.749,236.47C475.832,236.579 475.989,236.601 476.1,236.518C476.209,236.434 476.23,236.277 476.147,236.167C476.063,236.058 475.906,236.036 475.797,236.119ZM477.641,231.167C477.503,231.167 477.391,231.278 477.391,231.417C477.391,231.555 477.503,231.667 477.641,231.667C477.779,231.667 477.891,231.555 477.891,231.417C477.891,231.278 477.779,231.167 477.641,231.167ZM477.641,230.235C477.778,230.235 477.891,230.124 477.891,229.985C477.891,229.848 477.778,229.735 477.641,229.735C477.503,229.735 477.391,229.848 477.391,229.985C477.391,230.124 477.503,230.235 477.641,230.235ZM475.476,243.635C475.613,243.633 475.724,243.52 475.723,243.382C475.721,243.194 475.721,243.194 475.719,243.007C475.717,242.869 475.604,242.758 475.466,242.76C475.327,242.761 475.217,242.874 475.219,243.013C475.221,243.2 475.221,243.2 475.223,243.388C475.225,243.525 475.337,243.636 475.476,243.635ZM479.785,219C479.882,218.903 479.882,218.745 479.785,218.647C479.688,218.55 479.528,218.549 479.432,218.647C479.334,218.745 479.334,218.903 479.432,219C479.528,219.098 479.688,219.098 479.785,219ZM475.975,220.879C475.846,220.928 475.78,221.072 475.829,221.202C475.878,221.331 476.022,221.396 476.151,221.347C476.28,221.298 476.346,221.154 476.297,221.025C476.248,220.896 476.104,220.831 475.975,220.879ZM477.24,220.311C477.118,220.375 477.071,220.526 477.136,220.648C477.201,220.771 477.353,220.817 477.474,220.752C477.596,220.688 477.643,220.536 477.578,220.414C477.514,220.292 477.362,220.246 477.24,220.311ZM478.408,219.576C478.298,219.659 478.274,219.815 478.357,219.926C478.439,220.037 478.597,220.059 478.707,219.977C478.817,219.894 478.841,219.737 478.758,219.626C478.675,219.516 478.519,219.493 478.408,219.576ZM474.709,221.289C474.571,221.289 474.459,221.4 474.459,221.539C474.459,221.676 474.571,221.789 474.709,221.789C474.847,221.789 474.959,221.677 474.959,221.539C474.959,221.401 474.848,221.289 474.709,221.289ZM471.858,218.772C471.996,218.772 472.108,218.66 472.108,218.522C472.108,218.384 471.996,218.272 471.858,218.272C471.721,218.272 471.608,218.384 471.608,218.522C471.608,218.66 471.721,218.772 471.858,218.772ZM469.73,220.453C469.84,220.369 469.861,220.212 469.778,220.102C469.694,219.992 469.538,219.971 469.428,220.054C469.318,220.138 469.297,220.294 469.38,220.404C469.464,220.515 469.62,220.536 469.73,220.453ZM470.87,219.587C470.979,219.503 471.001,219.346 470.918,219.236C470.834,219.126 470.677,219.105 470.567,219.188C470.457,219.272 470.436,219.429 470.52,219.539C470.603,219.649 470.76,219.67 470.87,219.587ZM469.025,224.539C469.164,224.539 469.275,224.427 469.275,224.289C469.275,224.151 469.164,224.039 469.025,224.039C468.888,224.039 468.775,224.151 468.775,224.289C468.775,224.427 468.888,224.539 469.025,224.539ZM469.025,223.108C469.164,223.108 469.275,222.997 469.275,222.858C469.275,222.72 469.164,222.608 469.025,222.608C468.888,222.608 468.775,222.72 468.775,222.858C468.775,222.997 468.888,223.108 469.025,223.108ZM469.025,221.677C469.164,221.677 469.275,221.565 469.275,221.427C469.275,221.29 469.164,221.177 469.025,221.177C468.888,221.177 468.775,221.29 468.775,221.427C468.775,221.565 468.888,221.677 469.025,221.677ZM469.025,225.47C468.888,225.47 468.775,225.582 468.775,225.72C468.775,225.858 468.888,225.97 469.025,225.97C469.163,225.97 469.275,225.858 469.275,225.72C469.275,225.583 469.164,225.47 469.025,225.47ZM471.444,212.319C471.446,212.506 471.446,212.506 471.448,212.694C471.449,212.832 471.339,212.945 471.201,212.946C471.063,212.948 470.949,212.837 470.948,212.699C470.946,212.512 470.946,212.512 470.944,212.324C470.942,212.186 471.053,212.073 471.191,212.071C471.329,212.07 471.442,212.181 471.444,212.319Z" style="fill:rgb(31,31,31);fill-rule:nonzero;"/>
        </g>
    </g>
</svg>
