<?xml version="1.0" encoding="UTF-8" standalone="no"?>
<!DOCTYPE svg PUBLIC "-//W3C//DTD SVG 1.1//EN" "http://www.w3.org/Graphics/SVG/1.1/DTD/svg11.dtd">
<svg width="100%" height="100%" viewBox="0 0 41 56" version="1.1" xmlns="http://www.w3.org/2000/svg" xmlns:xlink="http://www.w3.org/1999/xlink" xml:space="preserve" xmlns:serif="http://www.serif.com/" style="fill-rule:evenodd;clip-rule:evenodd;stroke-linejoin:round;stroke-miterlimit:2;">
    <g transform="matrix(1,0,0,1,-453,-80)">
        <g>
            <path d="M490.833,136L455.833,136C454.452,136 453.333,134.881 453.333,133.5L453.333,82.5C453.333,81.12 454.452,80 455.833,80L490.833,80C492.214,80 493.333,81.12 493.333,82.5L493.333,133.5C493.333,134.881 492.214,136 490.833,136Z" style="fill:white;fill-rule:nonzero;"/>
            <path d="M490.833,136L455.833,136C454.452,136 453.333,134.881 453.333,133.5L453.333,82.5C453.333,81.12 454.452,80 455.833,80L490.833,80C492.214,80 493.333,81.12 493.333,82.5L493.333,133.5C493.333,134.881 492.214,136 490.833,136ZM490.833,135.8L455.833,135.8C454.562,135.8 453.533,134.771 453.533,133.5L453.533,82.5C453.533,81.23 454.562,80.2 455.833,80.2L490.833,80.2C492.104,80.2 493.133,81.23 493.133,82.5L493.133,133.5C493.133,134.771 492.104,135.8 490.833,135.8Z" style="fill:rgb(204,204,204);"/>
            <path d="M460.146,90.5C459.796,90.5 459.494,90.694 459.333,90.978C459.172,90.694 458.87,90.5 458.521,90.5C458.003,90.5 457.583,90.92 457.583,91.438C457.583,92.473 459.058,93.029 459.333,93.688C459.608,93.029 461.083,92.473 461.083,91.438C461.083,90.92 460.663,90.5 460.146,90.5Z" style="fill:rgb(201,49,18);fill-rule:nonzero;"/>
            <path d="M486.521,125.25C486.87,125.25 487.172,125.056 487.333,124.772C487.494,125.056 487.796,125.25 488.146,125.25C488.663,125.25 489.083,124.83 489.083,124.313C489.083,123.277 487.608,122.722 487.333,122.063C487.058,122.722 485.583,123.277 485.583,124.313C485.583,124.83 486.003,125.25 486.521,125.25Z" style="fill:rgb(201,49,18);fill-rule:nonzero;"/>
            <path d="M459.894,84.268L459.784,84.329L459.748,84.445L459.748,87.212C459.748,87.549 459.729,87.837 459.692,88.076C459.656,88.314 459.583,88.52 459.473,88.694C459.363,88.868 459.208,89.019 459.008,89.148C458.807,89.277 458.544,89.401 458.218,89.521L458.055,89.178C458.241,89.058 458.393,88.942 458.51,88.831C458.627,88.719 458.718,88.596 458.782,88.46C458.846,88.324 458.89,88.166 458.913,87.986C458.937,87.805 458.948,87.588 458.948,87.334L458.948,84.445L458.911,84.328L458.803,84.268L458.343,84.178L458.343,83.832L460.298,83.832L460.298,84.178L459.894,84.268Z" style="fill:rgb(201,49,18);fill-rule:nonzero;"/>
            <path d="M486.771,131.482L486.879,131.421L486.916,131.305L486.916,128.539C486.916,128.201 486.935,127.913 486.971,127.675C487.008,127.436 487.081,127.23 487.191,127.057C487.301,126.883 487.455,126.731 487.656,126.603C487.857,126.474 488.12,126.349 488.446,126.229L488.609,126.572C488.423,126.692 488.271,126.808 488.154,126.92C488.037,127.031 487.945,127.155 487.882,127.291C487.818,127.426 487.773,127.584 487.751,127.765C487.728,127.945 487.716,128.163 487.716,128.417L487.716,131.305L487.752,131.423L487.861,131.482L488.32,131.573L488.32,131.919L486.366,131.919L486.366,131.573L486.771,131.482Z" style="fill:rgb(201,49,18);fill-rule:nonzero;"/>
            <path d="M485.457,86.75C484.757,86.75 484.154,87.138 483.832,87.707C483.51,87.138 482.907,86.75 482.207,86.75C481.172,86.75 480.332,87.59 480.332,88.625C480.332,90.696 483.281,91.807 483.832,93.125C484.383,91.807 487.332,90.696 487.332,88.625C487.332,87.59 486.492,86.75 485.457,86.75Z" style="fill:rgb(201,49,18);fill-rule:nonzero;"/>
            <path d="M464.457,129.252C463.758,129.252 463.154,128.865 462.832,128.296C462.51,128.865 461.907,129.252 461.207,129.252C460.172,129.252 459.332,128.413 459.332,127.377C459.332,125.307 462.281,124.196 462.832,122.877C463.384,124.196 466.332,125.307 466.332,127.377C466.332,128.413 465.493,129.252 464.457,129.252Z" style="fill:rgb(201,49,18);fill-rule:nonzero;"/>
            <path d="M457.332,96L457.332,131.75L457.582,132L482.332,132L482.332,131.5L457.832,131.5L457.832,96L457.332,96ZM489.332,120L488.832,120L488.832,84.5L464.332,84.5L464.332,84L489.082,84L489.332,84.25L489.332,120Z" style="fill:rgb(31,31,31);fill-rule:nonzero;"/>
            <path d="M474.53,127.25C474.64,127.74 474.92,128.71 475.52,129.08C475.72,129.21 475.95,129.22 476.2,129.18L476.03,127.21C475.606,127.275 474.938,127.284 474.53,127.25Z" style="fill:rgb(249,203,25);fill-rule:nonzero;"/>
            <path d="M474.22,127.97C474.1,128.53 473.88,129.17 473.43,129.55C474.01,129.6 474.61,129.59 475.22,129.47C474.71,129.14 474.4,128.51 474.22,127.97Z" style="fill:rgb(201,49,18);fill-rule:nonzero;"/>
            <path d="M473.14,127.02C472.544,126.901 472.259,126.713 471.95,126.61C471.65,127.08 471.18,128.03 471.38,128.67C471.55,129.205 472.042,129.263 472.45,129.38C473.443,129.466 473.771,128.089 473.82,127.16C473.59,127.12 473.37,127.07 473.14,127.02Z" style="fill:rgb(249,203,25);fill-rule:nonzero;"/>
            <path d="M469.56,127.47L469.4,127.46C469.84,127.97 470.34,128.39 470.89,128.72C470.74,128.09 470.99,127.36 471.25,126.84C470.8,127.14 470.17,127.47 469.56,127.47Z" style="fill:rgb(201,49,18);fill-rule:nonzero;"/>
            <path d="M471.24,126.24C470.801,125.989 470.363,125.664 469.99,125.35L468.82,126.61C468.99,126.79 469.17,126.92 469.4,126.96C470.06,127.05 470.82,126.56 471.24,126.24Z" style="fill:rgb(249,203,25);fill-rule:nonzero;"/>
            <path d="M472.79,126.31L472.67,126.19C471.61,125.04 471.36,123.23 471.47,122.02C471.49,121.76 471.49,121.52 471.46,121.3C471.28,121.37 471.09,121.39 470.91,121.37C470.74,123.01 470.86,125.44 472.79,126.31Z" style="fill:rgb(35,75,194);fill-rule:nonzero;"/>
            <path d="M470.98,125.29C470.4,124.23 470.31,122.89 470.37,121.79C470.24,121.84 470.11,121.87 469.97,121.87L469.94,121.86C469.72,122.76 469.95,124.47 470.98,125.29Z" style="fill:rgb(35,75,194);fill-rule:nonzero;"/>
            <path d="M469.4,122.09C469.41,121.96 469.43,121.85 469.46,121.74C469.17,121.6 468.99,121.35 468.95,121.06C468.664,121.279 468.556,121.83 468.86,122.02C469.02,122.12 469.21,122.13 469.4,122.09Z" style="fill:rgb(35,75,194);fill-rule:nonzero;"/>
            <path d="M469.43,120.95C469.43,121.317 470.036,121.554 470.42,121.17C470.059,120.908 469.906,120.48 469.98,120.11C469.681,120.179 469.43,120.361 469.43,120.95Z" style="fill:rgb(35,75,194);fill-rule:nonzero;"/>
            <path d="M475.49,126.77C476.214,126.692 476.189,126.171 475.62,126.09C475.01,126.02 474.12,125.84 473.45,125.12C472.506,124.118 472.7,122.723 472.7,121.43C472.64,120 472.21,119.39 471.26,119.39C470.94,119.39 470.46,119.75 470.46,120.26C470.46,120.695 470.845,121.038 471.36,120.78C471.31,120.65 471.26,120.53 471.19,120.42C471.005,120.165 471.42,119.864 471.61,120.15C471.92,120.62 472.04,121.27 471.97,122.07C471.89,122.95 472.03,124.75 473.04,125.85C473.704,126.577 474.531,126.77 475.49,126.77Z" style="fill:rgb(35,75,194);fill-rule:nonzero;"/>
            <path d="M478.93,112.82C478.719,114.246 477.629,115.064 476.17,115.19C475.534,115.19 474.834,115.591 474.34,116.03L474.73,117.95C476.96,117.58 478.75,116.19 480.04,113.82C479.6,113.58 479.24,113.23 478.93,112.82Z" style="fill:rgb(35,75,194);fill-rule:nonzero;"/>
            <rect x="480.92" y="112.27" width="1" height="8.9" style="fill:rgb(249,203,25);"/>
            <path d="M480.92,108.45C482.115,108.45 481.742,108.46 481.92,108.46L481.92,103.78C481.67,104.32 481.34,104.87 480.92,105.44L480.92,108.45Z" style="fill:rgb(249,203,25);fill-rule:nonzero;"/>
            <path d="M478.09,110.36C478.35,109.31 477.81,108.22 476.67,107.41C476.54,107.61 476.43,107.75 476.38,107.83C476.33,108.64 475.66,109.29 474.83,109.29C474.1,109.29 473.48,108.77 473.32,108.08L472.4,108.44C472.541,112.243 477.356,113.324 478.09,110.36Z" style="fill:rgb(201,49,18);fill-rule:nonzero;"/>
            <path d="M469.32,109C468.17,110.76 465.19,116.16 468.86,120.22C469.039,119.891 469.219,119.63 469.9,119.59C470.445,118.674 471.604,118.713 472.26,119.37C472.466,117.243 473.578,115.75 474.76,115.12C472.025,114.623 469.635,112.363 469.32,109Z" style="fill:rgb(249,203,25);fill-rule:nonzero;"/>
            <path d="M468.72,109.01C468.39,108.77 468.1,108.52 467.87,108.25C463.464,112.164 462.08,116.01 467.27,118.75C465.49,115 467.61,110.8 468.72,109.01Z" style="fill:rgb(201,49,18);fill-rule:nonzero;"/>
            <path d="M468.58,105.64C468.32,106.69 468.85,107.78 470,108.59C470.13,108.39 470.23,108.25 470.29,108.17C470.34,107.36 471.01,106.71 471.83,106.71C472.57,106.71 473.19,107.23 473.35,107.92L474.27,107.56C474.128,103.739 469.278,102.689 468.58,105.64Z" style="fill:rgb(35,75,194);fill-rule:nonzero;"/>
            <path d="M465.75,107.55C464.555,107.55 464.928,107.54 464.75,107.54L464.75,112.22C465,111.68 465.33,111.13 465.75,110.56L465.75,107.55Z" style="fill:rgb(249,203,25);fill-rule:nonzero;"/>
            <rect x="464.75" y="94.831" width="1" height="8.899" style="fill:rgb(249,203,25);"/>
            <path d="M477.94,106.99C478.27,107.23 478.56,107.48 478.8,107.75C483.205,103.838 484.566,99.978 479.4,97.25C481.18,101 479.06,105.2 477.94,106.99Z" style="fill:rgb(35,75,194);fill-rule:nonzero;"/>
            <path d="M477.35,107C478.5,105.24 481.48,99.84 477.8,95.78C477.647,96.116 477.402,96.383 476.76,96.42C476.208,97.326 475.054,97.284 474.4,96.63C474.24,98.28 473.59,99.451 472.81,100.21L472.79,100.22C472.51,100.49 472.21,100.71 471.92,100.88C474.587,101.373 477.031,103.597 477.35,107Z" style="fill:rgb(249,203,25);fill-rule:nonzero;"/>
            <path d="M467.73,103.18C467.941,101.861 468.901,100.948 470.5,100.81C471.125,100.81 471.831,100.412 472.32,99.971L471.94,98.05C469.7,98.42 467.92,99.811 466.63,102.18C467.06,102.42 467.43,102.77 467.73,103.18Z" style="fill:rgb(201,49,18);fill-rule:nonzero;"/>
            <path d="M477.27,93.911C477.26,94.04 477.24,94.15 477.21,94.26C477.49,94.4 477.68,94.65 477.72,94.94C478.007,94.721 478.118,94.157 477.8,93.98C477.65,93.88 477.46,93.871 477.27,93.911Z" style="fill:rgb(35,75,194);fill-rule:nonzero;"/>
            <path d="M477.24,95.05C477.24,94.687 476.637,94.444 476.25,94.831C476.611,95.092 476.764,95.52 476.69,95.891C476.999,95.813 477.24,95.606 477.24,95.05Z" style="fill:rgb(35,75,194);fill-rule:nonzero;"/>
            <path d="M475.69,90.71C476.27,91.78 476.36,93.11 476.29,94.221C476.43,94.161 476.58,94.13 476.73,94.13C476.94,93.23 476.72,91.53 475.69,90.71Z" style="fill:rgb(35,75,194);fill-rule:nonzero;"/>
            <path d="M473.87,89.701L474,89.811C475.05,90.96 475.3,92.77 475.2,93.98C475.17,94.241 475.18,94.48 475.2,94.701C475.39,94.63 475.57,94.61 475.76,94.63C475.92,92.991 475.81,90.561 473.87,89.701Z" style="fill:rgb(35,75,194);fill-rule:nonzero;"/>
            <path d="M471.19,89.23C470.81,89.27 470.63,89.431 470.62,89.581C470.62,90.159 472.055,89.646 473.22,90.88C474.252,91.989 473.928,93.716 473.97,94.57C474.03,96 474.46,96.61 475.4,96.61C475.73,96.61 476.21,96.25 476.21,95.741C476.21,95.295 475.808,94.958 475.31,95.221C475.35,95.351 475.41,95.471 475.48,95.581C475.655,95.856 475.251,96.117 475.06,95.851C474.75,95.38 474.63,94.73 474.7,93.931C474.78,93.05 474.64,91.25 473.63,90.15C472.963,89.421 472.157,89.23 471.19,89.23Z" style="fill:rgb(35,75,194);fill-rule:nonzero;"/>
            <path d="M475.43,89.76C475.864,90.008 476.359,90.373 476.67,90.65L477.85,89.391C477.68,89.21 477.49,89.081 477.26,89.04C476.62,88.951 475.85,89.451 475.43,89.76Z" style="fill:rgb(249,203,25);fill-rule:nonzero;"/>
            <path d="M477.27,88.55C476.83,88.03 476.32,87.61 475.78,87.28C475.93,87.911 475.68,88.641 475.41,89.161C475.91,88.831 476.6,88.48 477.27,88.55Z" style="fill:rgb(201,49,18);fill-rule:nonzero;"/>
            <path d="M473.53,88.98C473.943,89.063 474.493,89.292 474.71,89.4C475.01,88.92 475.49,87.971 475.28,87.331C475.126,86.846 474.706,86.733 474.21,86.621C473.234,86.532 472.906,87.871 472.84,88.831C473.07,88.871 473.3,88.92 473.53,88.98Z" style="fill:rgb(249,203,25);fill-rule:nonzero;"/>
            <path d="M472.45,88.03C472.56,87.471 472.79,86.831 473.24,86.451C472.66,86.391 472.06,86.411 471.45,86.53C471.95,86.86 472.27,87.491 472.45,88.03Z" style="fill:rgb(201,49,18);fill-rule:nonzero;"/>
            <path d="M471.45,88.73L471.45,88.741C471.551,88.741 471.556,88.711 472.14,88.75C472.03,88.26 471.74,87.29 471.15,86.92C470.95,86.79 470.71,86.78 470.46,86.82L470.63,88.79C470.794,88.771 471.427,88.73 471.45,88.73Z" style="fill:rgb(249,203,25);fill-rule:nonzero;"/>
            <path d="M486.136,118.667C486.135,116.873 485.508,115.566 484.271,114.293L483.542,115.383C483.707,115.496 483.851,115.638 483.962,115.804C484.645,116.82 483.926,118.229 482.667,118.229L482.667,118.417L484.943,118.417C484.921,117.926 484.834,117.48 484.689,117.066C484.645,116.936 484.713,116.793 484.844,116.748C484.974,116.702 485.116,116.771 485.162,116.901C485.553,118.021 485.539,119.352 485.162,120.432C485.116,120.563 484.974,120.631 484.844,120.586C484.713,120.541 484.645,120.397 484.689,120.267C484.834,119.853 484.921,119.407 484.943,118.917L482.667,118.917L482.667,119.104C483.926,119.105 484.645,120.513 483.962,121.529C483.851,121.695 483.707,121.838 483.542,121.95L484.271,123.04C485.509,121.767 486.135,120.458 486.136,118.667ZM482.667,112.022L482.667,112.372C482.787,112.354 482.892,112.327 482.973,112.292C483.284,112.159 483.364,111.932 483.07,111.742C482.874,111.607 482.15,111.565 481.899,111.564C481.762,111.564 481.65,111.452 481.65,111.313C481.651,111.176 481.764,111.064 481.901,111.064C482.283,111.066 482.996,111.113 483.327,111.313C483.37,111.109 483.245,110.958 483.07,110.844C482.859,110.704 482.402,110.667 482.149,110.667C482.012,110.667 481.9,110.554 481.9,110.416C481.901,110.278 482.014,110.167 482.151,110.167C482.525,110.168 483.017,110.221 483.334,110.42C483.338,110.243 483.22,110.117 483.07,110.021C482.855,109.88 482.537,109.791 482.4,109.792C482.263,109.792 482.15,109.68 482.15,109.542C482.15,109.404 482.263,109.292 482.4,109.292C482.634,109.292 482.948,109.391 483.183,109.511L483.133,109.284C483.08,109.2 482.928,109.125 482.831,109.088C482.639,109.014 482.342,108.954 481.917,108.954L479.01,108.954C479.22,109.603 479.194,110.251 478.959,110.842C479.294,111.764 479.837,112.806 480.667,113.322L480.667,112.022L480.917,111.772L482.417,111.772L482.667,112.022ZM482.167,112.272L481.167,112.272L481.167,121.167L482.167,121.167L482.167,112.272ZM480.54,113.826C480.098,113.583 479.75,113.249 479.438,112.835C479.197,114.342 477.979,115.145 476.45,115.214C475.994,115.271 475.405,115.518 474.842,116.016L475.229,117.963C477.638,117.563 479.359,115.997 480.54,113.826ZM473.259,120.186C473.662,121.45 473.253,122.605 473.547,123.786C473.737,124.555 474.221,125.083 474.948,125.369C475.535,125.6 475.891,125.555 476.185,125.655C476.211,125.609 476.242,125.569 476.308,125.454C476.341,125.337 476.395,125.114 476.344,125.004C476.201,124.714 474.957,125.083 474.389,124.37C474.302,124.262 474.319,124.104 474.428,124.019C474.535,123.932 474.692,123.95 474.778,124.058C475.137,124.503 475.99,124.242 476.494,124.491C476.405,124.192 476.204,123.867 476.374,123.354C476.535,122.863 476.771,122.521 477.065,122.11C476.132,121.833 476.435,121.921 475.893,121.778C475.585,121.696 475.264,121.612 475.085,121.377C474.916,121.159 474.937,120.878 475.087,120.641C475.161,120.524 475.315,120.49 475.433,120.564C475.549,120.638 475.583,120.793 475.509,120.909L475.477,120.975L475.482,121.075C475.589,121.215 476.058,121.291 476.602,121.451C476.619,121.251 476.672,121.06 476.775,120.882C476.634,120.856 476.511,120.849 476.383,120.858C476.245,120.868 476.126,120.764 476.116,120.626C476.106,120.488 476.211,120.369 476.349,120.359C476.485,120.35 476.554,120.355 476.646,120.362C476.358,120.1 476.399,119.777 476.399,119.417C476.399,119.15 476.357,119.042 476.104,118.971C475.99,118.94 475.825,118.918 475.6,118.918C474.919,118.917 473.973,119.321 473.259,120.186ZM476.532,127.213C475.988,127.28 475.486,127.285 475.031,127.254C475.244,128.199 475.746,129.372 476.704,129.205L476.532,127.213ZM475.727,129.483C475.223,129.154 474.913,128.554 474.717,127.982C474.599,128.565 474.371,129.206 473.912,129.582C474.477,129.634 475.065,129.612 475.727,129.483ZM473.586,129.205C474.092,128.804 474.277,127.821 474.323,127.173C474.091,127.136 473.862,127.088 473.638,127.03C473.324,126.965 473.039,126.87 472.78,126.75C472.67,126.707 472.561,126.66 472.452,126.612C472.248,126.937 472.056,127.319 471.943,127.681C471.698,128.464 471.823,129.047 472.601,129.309C472.955,129.427 473.294,129.437 473.586,129.205ZM471.748,126.843C471.21,127.202 470.533,127.523 469.895,127.459C470.328,127.968 470.829,128.4 471.384,128.741C471.227,128.125 471.462,127.415 471.748,126.843ZM471.731,126.243C471.25,125.962 470.882,125.688 470.494,125.345L469.308,126.624C469.923,127.333 470.984,126.805 471.731,126.243ZM470.273,123.756C470.441,124.357 470.742,124.931 471.24,125.311C470.661,124.274 470.552,122.975 470.625,121.79C470.471,121.849 470.33,121.87 470.179,121.865C470.071,122.34 470.078,123.057 470.273,123.756ZM470.666,121.182C470.321,120.934 470.169,120.522 470.221,120.101C469.823,120.2 469.679,120.541 469.679,120.947C469.681,121.337 470.306,121.539 470.666,121.182ZM469.667,121.731C469.405,121.588 469.223,121.349 469.186,121.056C468.99,121.208 468.926,121.448 468.926,121.697C468.927,122.019 469.313,122.178 469.634,122.109C469.68,121.68 469.724,121.761 469.667,121.731ZM474.419,116.451C473.845,117.133 473.377,118.113 473.257,119.457C473.708,119.035 474.248,118.708 474.834,118.537L474.419,116.451ZM475.53,126.773L475.541,126.774L475.706,126.771C475.905,126.756 476.181,126.691 476.271,126.512C476.321,126.412 476.287,126.311 476.206,126.232C476.142,126.171 476.033,126.114 475.87,126.094C475.024,125.995 474.274,125.738 473.695,125.116C473.061,124.436 472.933,123.552 472.933,122.631C472.933,121.939 473.075,120.508 472.515,119.811C472.265,119.499 471.916,119.392 471.513,119.391C471.271,119.389 470.934,119.596 470.785,119.919C470.508,120.523 471.021,121.106 471.619,120.802C471.562,120.627 471.495,120.508 471.439,120.423C471.364,120.307 471.396,120.152 471.512,120.077C471.628,120.001 471.782,120.034 471.858,120.149C472.22,120.702 472.276,121.407 472.218,122.067C472.166,122.657 472.217,123.396 472.389,124.073C472.806,125.723 473.821,126.771 475.53,126.773ZM471.698,122.528C471.698,122.007 471.769,121.773 471.722,121.303C471.523,121.378 471.341,121.397 471.16,121.375C470.992,123.011 471.146,124.975 472.447,125.971C472.65,126.126 472.884,126.255 473.038,126.313C472.088,125.375 471.699,123.863 471.698,122.528ZM469.343,120.206C469.558,119.791 469.942,119.595 470.404,119.574C470.639,119.186 471.077,118.892 471.513,118.891C471.989,118.891 472.426,119.019 472.765,119.346C472.936,117.608 473.733,115.973 475.231,115.124C473.229,114.749 471.315,113.347 470.39,111.271C470.09,110.599 469.888,109.843 469.812,109.011C469.562,109.389 469.228,109.935 468.894,110.598C467.222,113.918 466.871,117.469 469.343,120.206ZM467.764,118.754C466.274,115.639 467.369,111.946 469.216,109.012C468.875,108.772 468.59,108.516 468.355,108.249C463.958,112.162 462.604,116.018 467.764,118.754ZM464.5,107.54L464.5,112.184C464.773,111.604 465.118,111.064 465.5,110.553L465.5,107.546C464.665,107.546 464.649,107.548 464.5,107.54ZM464.75,107.046L467.657,107.046C467.446,106.397 467.473,105.749 467.707,105.158C467.374,104.241 466.832,103.196 466,102.677L466,103.978L465.75,104.228L464.25,104.228L464,103.978L464,103.628C463.805,103.656 463.549,103.73 463.446,103.898C463.36,104.039 463.458,104.168 463.597,104.258C463.626,104.278 463.702,104.31 463.799,104.333C464.071,104.403 464.489,104.435 464.768,104.436C464.905,104.436 465.017,104.548 465.017,104.687C465.016,104.824 464.903,104.936 464.766,104.936C464.4,104.934 463.674,104.889 463.34,104.687C463.314,104.809 463.348,104.916 463.426,105.01C463.574,105.188 463.792,105.256 464.019,105.293C464.191,105.322 464.377,105.333 464.518,105.333C464.655,105.333 464.767,105.446 464.767,105.584C464.766,105.722 464.653,105.833 464.516,105.833C464.142,105.832 463.65,105.779 463.333,105.58C463.33,105.678 463.363,105.758 463.426,105.833C463.607,106.051 464.066,106.209 464.267,106.208C464.404,106.208 464.517,106.32 464.517,106.458C464.517,106.596 464.404,106.708 464.267,106.708C464.028,106.708 463.713,106.605 463.484,106.489C463.479,106.582 463.505,106.673 463.534,106.716C463.586,106.8 463.739,106.875 463.836,106.912C464.028,106.986 464.325,107.046 464.75,107.046ZM464,97.771L464,97.584L461.724,97.584C461.746,98.074 461.833,98.52 461.978,98.934C462.022,99.064 461.954,99.207 461.823,99.253C461.693,99.298 461.551,99.229 461.505,99.099C461.115,97.982 461.127,96.652 461.505,95.568C461.551,95.438 461.693,95.369 461.823,95.415C461.954,95.46 462.022,95.603 461.978,95.733C461.833,96.147 461.746,96.593 461.724,97.084L464,97.084L464,96.896C462.741,96.895 462.021,95.488 462.705,94.471C462.816,94.305 462.96,94.163 463.125,94.05L462.396,92.96C461.158,94.234 460.532,95.542 460.531,97.334C460.532,99.124 461.156,100.431 462.396,101.707L463.125,100.617C462.96,100.504 462.816,100.362 462.705,100.196C462.022,99.181 462.74,97.772 464,97.771ZM464.5,103.728L465.5,103.728L465.5,94.833L464.5,94.833L464.5,103.728ZM466.127,102.174C466.569,102.417 466.917,102.751 467.229,103.165C467.473,101.644 468.704,100.854 470.218,100.786C470.674,100.729 471.263,100.481 471.825,99.984L471.438,98.038C469.029,98.438 467.308,100.003 466.127,102.174ZM473.408,95.815C472.902,94.23 473.709,92.41 472.606,91.226C472.108,90.692 471.457,90.487 470.739,90.403C470.648,90.392 470.563,90.373 470.484,90.346L470.359,90.546C470.326,90.661 470.272,90.886 470.323,90.996C470.466,91.286 471.71,90.917 472.278,91.631C472.365,91.738 472.348,91.896 472.239,91.982C472.132,92.068 471.975,92.051 471.889,91.943C471.53,91.498 470.676,91.758 470.173,91.509C470.261,91.809 470.463,92.133 470.293,92.646C470.132,93.137 469.896,93.48 469.602,93.891C470.535,94.167 470.232,94.079 470.774,94.223C471.081,94.304 471.402,94.388 471.582,94.623C471.748,94.838 471.732,95.117 471.58,95.359C471.506,95.476 471.352,95.51 471.235,95.436C471.118,95.363 471.084,95.208 471.157,95.091L471.19,95.025L471.185,94.926C471.078,94.785 470.599,94.707 470.064,94.549C470.048,94.75 469.994,94.941 469.892,95.118C470.035,95.145 470.158,95.151 470.284,95.143C470.422,95.133 470.541,95.237 470.551,95.374C470.561,95.512 470.456,95.632 470.318,95.641C470.181,95.65 470.114,95.645 470.021,95.638C470.31,95.901 470.268,96.224 470.268,96.583C470.268,96.848 470.309,96.958 470.563,97.029C470.677,97.061 470.842,97.082 471.067,97.082C471.748,97.083 472.694,96.679 473.408,95.815ZM470.135,88.788C470.687,88.719 471.188,88.716 471.636,88.746C471.423,87.799 470.92,86.628 469.963,86.796L470.135,88.788ZM470.94,86.517C471.446,86.848 471.755,87.45 471.95,88.019C472.067,87.436 472.295,86.795 472.755,86.418C472.177,86.366 471.587,86.392 470.94,86.517ZM473.081,86.796C472.575,87.197 472.39,88.18 472.344,88.827C472.576,88.865 472.805,88.912 473.029,88.97C473.343,89.036 473.628,89.131 473.887,89.25C473.997,89.294 474.106,89.34 474.215,89.389C474.419,89.063 474.611,88.682 474.724,88.319C474.968,87.54 474.846,86.954 474.065,86.691C473.714,86.574 473.374,86.563 473.081,86.796ZM474.919,89.157C475.452,88.802 476.131,88.477 476.771,88.541C476.338,88.033 475.838,87.6 475.283,87.259C475.44,87.875 475.204,88.586 474.919,89.157ZM474.936,89.758C475.418,90.039 475.788,90.315 476.173,90.656L477.359,89.377C476.744,88.668 475.683,89.195 474.936,89.758ZM476.394,92.244C476.226,91.644 475.926,91.07 475.427,90.689C476.007,91.728 476.114,93.029 476.042,94.21C476.193,94.152 476.333,94.13 476.487,94.135C476.596,93.661 476.589,92.943 476.394,92.244ZM476.001,94.819C476.345,95.066 476.498,95.477 476.446,95.899C476.844,95.8 476.988,95.46 476.988,95.053C476.986,94.664 476.361,94.461 476.001,94.819ZM477,94.269C477.261,94.412 477.444,94.651 477.481,94.945C477.677,94.792 477.741,94.553 477.741,94.303C477.74,93.982 477.355,93.822 477.033,93.892C476.987,94.32 476.943,94.239 477,94.269ZM472.248,99.55C472.822,98.867 473.29,97.888 473.41,96.544C472.96,96.965 472.42,97.292 471.833,97.464L472.248,99.55ZM471.137,89.228L471.125,89.227C471.031,89.227 471.051,89.227 470.961,89.229C470.762,89.245 470.486,89.31 470.396,89.488C470.346,89.588 470.379,89.689 470.461,89.768C470.525,89.83 470.634,89.887 470.797,89.906C471.642,90.005 472.393,90.263 472.972,90.885C473.606,91.564 473.734,92.448 473.734,93.37C473.734,94.061 473.592,95.492 474.152,96.189C474.402,96.501 474.751,96.609 475.154,96.609C475.396,96.611 475.733,96.405 475.882,96.081C476.16,95.475 475.644,94.896 475.048,95.198C475.105,95.373 475.172,95.493 475.228,95.578C475.303,95.693 475.271,95.848 475.155,95.924C475.039,95.999 474.884,95.967 474.809,95.851C474.446,95.297 474.391,94.589 474.449,93.933C474.501,93.344 474.45,92.605 474.278,91.928C473.861,90.278 472.846,89.229 471.137,89.228ZM474.969,93.472C474.969,93.982 474.898,94.23 474.945,94.698C475.145,94.622 475.326,94.603 475.507,94.626C475.675,92.989 475.521,91.025 474.22,90.029C474.018,89.875 473.785,89.746 473.629,89.687C474.577,90.623 474.968,92.134 474.969,93.472ZM477.324,95.794C477.113,96.204 476.734,96.405 476.263,96.426C476.028,96.815 475.59,97.109 475.154,97.109C474.678,97.11 474.241,96.982 473.902,96.655C473.73,98.403 472.927,100.031 471.436,100.876C473.436,101.25 475.351,102.651 476.277,104.729C476.577,105.401 476.779,106.157 476.855,106.989C477.105,106.611 477.439,106.065 477.772,105.402C479.444,102.083 479.796,98.532 477.324,95.794ZM478.799,108.454L480.667,108.454L480.667,106.075C480.11,106.735 479.431,107.426 478.616,108.149C478.67,108.23 478.715,108.293 478.799,108.454ZM470.276,108.271C470.277,111.163 471.903,113.375 474.223,114.309C474.908,114.585 475.672,114.748 476.419,114.715L476.6,114.703C478.1,114.571 479.048,113.667 478.977,112.11C478.854,111.883 478.743,111.649 478.646,111.417C477.664,112.799 475.852,112.89 474.359,111.951C473.151,111.19 472.391,109.883 472.392,108.27C472.391,107.683 471.915,107.213 471.334,107.213C470.745,107.213 470.276,107.69 470.276,108.271ZM467.868,107.546L466,107.546L466,109.925C466.557,109.265 467.236,108.574 468.051,107.851C467.997,107.77 467.952,107.706 467.868,107.546ZM469.488,108.593C469.623,108.395 469.725,108.255 469.78,108.181C469.827,107.362 470.504,106.713 471.334,106.713C472.073,106.713 472.691,107.229 472.851,107.92L473.772,107.56C473.74,106.693 473.468,105.986 473.064,105.428C472.357,104.453 471.227,103.928 470.273,103.929C468.159,103.929 466.849,106.72 469.488,108.593ZM475.333,109.287C474.594,109.287 473.976,108.771 473.816,108.08L472.895,108.44C472.927,109.307 473.199,110.014 473.603,110.572C474.308,111.546 475.438,112.072 476.394,112.071C478.505,112.071 479.821,109.282 477.179,107.407C477.044,107.605 476.942,107.745 476.886,107.819C476.839,108.638 476.163,109.287 475.333,109.287ZM476.391,107.729C476.388,100.867 467.478,99.299 467.69,103.889C467.813,104.117 467.924,104.351 468.021,104.583C469.522,102.471 472.824,103.47 473.896,105.875C474.136,106.411 474.276,107.033 474.275,107.729C474.276,108.665 475.413,109.144 476.081,108.478C476.272,108.285 476.391,108.022 476.391,107.729ZM481.167,105.447L481.167,108.454C482.001,108.454 482.017,108.452 482.167,108.46L482.167,103.816C481.893,104.396 481.548,104.938 481.167,105.447ZM478.903,97.247C480.398,100.372 479.287,104.07 477.451,106.988C477.792,107.228 478.077,107.484 478.312,107.751C482.688,103.856 484.079,99.992 478.903,97.247ZM480.667,118.123C480.195,117.991 479.875,117.762 479.577,117.367C479.586,117.459 479.601,117.554 479.601,117.67C479.604,117.959 479.496,118.198 479.316,118.417L480.667,118.417L480.667,118.123ZM480.667,118.917L479.336,118.917C479.58,119.188 479.714,119.476 479.68,119.84C479.948,119.523 480.241,119.33 480.667,119.21L480.667,118.917ZM466,97.878C466.423,97.996 466.721,98.192 466.986,98.504C466.953,98.14 467.088,97.855 467.331,97.584L466,97.584L466,97.878ZM466,97.084L467.351,97.084C467.171,96.865 467.063,96.626 467.066,96.337C467.066,96.22 467.081,96.126 467.09,96.032C466.798,96.421 466.484,96.655 466,96.79L466,97.084ZM486.028,121.458C485.639,122.263 485.079,122.957 484.406,123.612L484.023,123.571L482.976,122.003L483.085,121.634C483.46,121.473 483.725,121.1 483.726,120.662C483.725,120.037 483.186,119.582 482.667,119.604L482.667,121.417L482.417,121.667L480.917,121.667L480.667,121.417L480.667,119.735C480.229,119.895 480.018,120.178 479.762,120.585L479.404,120.655C479.233,120.533 479.136,120.369 479.137,120.16C479.139,119.793 479.437,119.52 478.521,118.87C478.381,118.769 478.383,118.563 478.521,118.463C478.795,118.269 478.939,118.108 479.013,117.984C479.113,117.812 479.11,117.693 479.089,117.499C479.069,117.317 479.054,117.149 479.144,116.971C479.198,116.86 479.287,116.762 479.404,116.678L479.762,116.748C480.012,117.146 480.225,117.437 480.667,117.599L480.667,114.608C479.461,116.57 477.768,117.986 475.497,118.422C475.93,118.403 476.476,118.457 476.733,118.8C477.062,119.235 476.752,119.833 477.006,120.013C477.143,120.11 477.151,120.319 477.004,120.421L477.373,120.557L477.41,120.589L477.439,120.629C477.498,120.728 477.485,120.86 477.396,120.942L477.255,121.062C477.166,121.172 477.092,121.367 477.097,121.598L477.542,121.729L477.677,122.112C477.497,122.37 477.332,122.588 477.192,122.806C477.044,123.038 476.809,123.47 476.808,123.745C476.809,124.123 477.182,124.468 476.973,125.178C476.892,125.452 476.72,125.763 476.603,125.924C476.786,126.133 476.854,126.42 476.735,126.695L477.008,126.908L477.221,129.374C477.039,129.659 477.061,129.628 477.048,129.633C473.629,130.877 470.445,129.581 468.768,126.733L468.799,126.437L470.224,124.901C469.815,124.228 469.62,123.4 469.61,122.618C469.004,122.683 468.425,122.295 468.426,121.697C468.425,121.232 468.603,120.808 469.004,120.577C468.691,120.234 468.422,119.882 468.193,119.524C465.66,118.352 463.542,116.496 464,113.732L464,107.477C463.434,107.359 462.987,107.095 462.983,106.516C462.983,106.398 463.005,106.279 463.061,106.173C462.792,105.869 462.77,105.477 462.938,105.175C462.778,104.881 462.805,104.539 462.976,104.291C462.76,103.813 463.102,103.219 464,103.124L464,98.271C463.773,98.261 463.471,98.362 463.251,98.582C462.72,99.114 462.9,100.008 463.582,100.301L463.591,100.603L463.691,100.669L462.643,102.238L462.261,102.278C461.588,101.623 461.028,100.929 460.639,100.125C459.824,98.447 459.825,96.218 460.639,94.542C461.028,93.738 461.588,93.044 462.261,92.389L462.643,92.429L463.691,93.998L463.528,94.106L463.582,94.366C462.9,94.659 462.72,95.554 463.251,96.086C463.468,96.302 463.769,96.406 464,96.395L464,94.584L464.25,94.334L465.75,94.334L466,94.584L466,96.266C466.442,96.104 466.655,95.813 466.905,95.415L467.263,95.345C467.38,95.429 467.469,95.527 467.523,95.638C467.788,96.166 467.165,96.435 468.145,97.13C468.286,97.231 468.284,97.438 468.145,97.538C467.864,97.737 467.481,98.048 467.48,98.394C467.48,98.642 467.683,99.022 467.263,99.322L466.905,99.252C466.651,98.849 466.439,98.562 466,98.402L466,101.392C467.206,99.431 468.899,98.014 471.17,97.579C470.583,97.604 469.951,97.497 469.804,96.927C469.706,96.544 469.863,96.131 469.661,95.987C469.524,95.891 469.516,95.682 469.663,95.579C469.568,95.555 469.349,95.492 469.275,95.427C469.144,95.31 469.175,95.107 469.313,95.026C469.498,94.916 469.574,94.618 469.57,94.403L469.125,94.271L468.99,93.889C469.345,93.379 469.639,93.034 469.818,92.49C469.87,92.331 469.87,92.207 469.832,92.063C469.717,91.629 469.344,91.15 470.063,90.076C469.881,89.868 469.813,89.581 469.932,89.306L469.659,89.092L469.446,86.627C469.628,86.341 469.605,86.372 469.619,86.367C473.04,85.122 476.222,86.42 477.899,89.267L477.867,89.564L476.443,91.099C476.852,91.772 477.047,92.6 477.057,93.382C477.667,93.317 478.242,93.709 478.241,94.303C478.242,94.768 478.064,95.193 477.663,95.424C477.976,95.766 478.245,96.118 478.474,96.477C481.019,97.655 483.124,99.513 482.667,102.268L482.667,108.523C483.23,108.64 483.68,108.904 483.684,109.484C483.684,109.602 483.662,109.721 483.606,109.827C483.873,110.129 483.897,110.521 483.729,110.825C483.89,111.12 483.861,111.462 483.691,111.709C483.905,112.185 483.567,112.781 482.667,112.876L482.667,117.729C482.894,117.739 483.196,117.638 483.415,117.419C483.948,116.885 483.766,115.992 483.085,115.699L482.934,115.469L482.976,115.331L484.023,113.762L484.406,113.722C485.079,114.377 485.639,115.071 486.028,115.875C486.843,117.553 486.842,119.783 486.028,121.458ZM478.039,113.347C478.177,113.347 478.289,113.234 478.289,113.097C478.289,112.959 478.177,112.847 478.039,112.847C477.901,112.847 477.789,112.958 477.789,113.097C477.789,113.234 477.901,113.347 478.039,113.347ZM472.404,111.615C472.518,111.537 472.547,111.381 472.469,111.267C472.391,111.153 472.235,111.124 472.121,111.202C472.008,111.28 471.979,111.436 472.057,111.55C472.135,111.664 472.29,111.693 472.404,111.615ZM473.604,112.758C473.687,112.647 473.665,112.491 473.556,112.407C473.445,112.324 473.289,112.345 473.205,112.455C473.122,112.564 473.143,112.721 473.253,112.805C473.362,112.889 473.52,112.867 473.604,112.758ZM471.489,109.671C471.356,109.71 471.28,109.849 471.318,109.981C471.356,110.114 471.495,110.19 471.628,110.152C471.761,110.113 471.837,109.975 471.799,109.842C471.761,109.709 471.622,109.633 471.489,109.671ZM476.508,113.889C476.646,113.881 476.752,113.764 476.744,113.626C476.737,113.488 476.619,113.382 476.481,113.389C476.344,113.396 476.237,113.514 476.245,113.652C476.252,113.79 476.37,113.896 476.508,113.889ZM474.78,113.626C474.911,113.671 475.053,113.602 475.099,113.471C475.144,113.341 475.074,113.199 474.943,113.153C474.813,113.108 474.671,113.177 474.626,113.308C474.581,113.438 474.649,113.581 474.78,113.626ZM471.511,108.447C471.607,108.35 471.607,108.191 471.511,108.094C471.413,107.996 471.254,107.996 471.157,108.094C471.06,108.191 471.06,108.35 471.157,108.447C471.254,108.544 471.413,108.545 471.511,108.447ZM475.476,123.929C475.613,123.927 475.725,123.814 475.723,123.676C475.721,123.488 475.721,123.488 475.719,123.301C475.717,123.163 475.604,123.052 475.466,123.054C475.328,123.055 475.218,123.168 475.219,123.306C475.221,123.494 475.221,123.494 475.223,123.681C475.225,123.819 475.338,123.93 475.476,123.929ZM468.628,102.653C468.49,102.653 468.378,102.765 468.378,102.903C468.378,103.041 468.49,103.153 468.628,103.153C468.766,103.153 468.878,103.042 468.878,102.903C468.878,102.766 468.766,102.653 468.628,102.653ZM475.178,106.329C475.311,106.29 475.387,106.151 475.349,106.019C475.311,105.886 475.172,105.81 475.039,105.848C474.906,105.887 474.83,106.025 474.868,106.158C474.906,106.291 475.045,106.367 475.178,106.329ZM473.063,103.242C472.98,103.353 473.001,103.509 473.111,103.593C473.221,103.676 473.378,103.655 473.462,103.545C473.545,103.436 473.523,103.278 473.414,103.195C473.304,103.111 473.147,103.133 473.063,103.242ZM470.159,102.111C470.021,102.119 469.915,102.236 469.923,102.374C469.93,102.512 470.048,102.618 470.186,102.611C470.323,102.604 470.429,102.486 470.422,102.348C470.415,102.21 470.297,102.104 470.159,102.111ZM471.887,102.374C471.756,102.329 471.614,102.398 471.568,102.529C471.523,102.659 471.593,102.801 471.724,102.847C471.854,102.892 471.996,102.823 472.041,102.692C472.086,102.562 472.018,102.419 471.887,102.374ZM474.198,104.733C474.276,104.847 474.432,104.875 474.546,104.798C474.659,104.72 474.688,104.564 474.61,104.45C474.532,104.336 474.377,104.307 474.263,104.385C474.149,104.463 474.12,104.619 474.198,104.733ZM475.156,107.553C475.06,107.65 475.059,107.809 475.156,107.906C475.254,108.004 475.412,108.004 475.51,107.906C475.607,107.809 475.607,107.65 475.51,107.553C475.413,107.456 475.254,107.455 475.156,107.553ZM471.444,92.319C471.446,92.506 471.446,92.506 471.448,92.694C471.449,92.832 471.339,92.945 471.201,92.947C471.063,92.948 470.949,92.838 470.948,92.7C470.946,92.512 470.946,92.512 470.944,92.325C470.942,92.186 471.053,92.073 471.191,92.072C471.329,92.07 471.442,92.181 471.444,92.319Z" style="fill:rgb(31,31,31);fill-rule:nonzero;"/>
        </g>
    </g>
</svg>
