<?xml version="1.0" encoding="UTF-8" standalone="no"?>
<!DOCTYPE svg PUBLIC "-//W3C//DTD SVG 1.1//EN" "http://www.w3.org/Graphics/SVG/1.1/DTD/svg11.dtd">
<svg width="100%" height="100%" viewBox="0 0 41 56" version="1.1" xmlns="http://www.w3.org/2000/svg" xmlns:xlink="http://www.w3.org/1999/xlink" xml:space="preserve" xmlns:serif="http://www.serif.com/" style="fill-rule:evenodd;clip-rule:evenodd;stroke-linejoin:round;stroke-miterlimit:2;">
    <g transform="matrix(1,0,0,1,-496,-80)">
        <g>
            <path d="M534.167,136L499.167,136C497.786,136 496.667,134.881 496.667,133.5L496.667,82.5C496.667,81.12 497.786,80 499.167,80L534.167,80C535.548,80 536.667,81.12 536.667,82.5L536.667,133.5C536.667,134.881 535.548,136 534.167,136Z" style="fill:white;fill-rule:nonzero;"/>
            <path d="M534.167,136L499.167,136C497.786,136 496.667,134.881 496.667,133.5L496.667,82.5C496.667,81.12 497.786,80 499.167,80L534.167,80C535.548,80 536.667,81.12 536.667,82.5L536.667,133.5C536.667,134.881 535.548,136 534.167,136ZM534.167,135.8L499.167,135.8C497.896,135.8 496.867,134.771 496.867,133.5L496.867,82.5C496.867,81.23 497.896,80.2 499.167,80.2L534.167,80.2C535.438,80.2 536.467,81.23 536.467,82.5L536.467,133.5C536.467,134.771 535.438,135.8 534.167,135.8Z" style="fill:rgb(204,204,204);"/>
            <path d="M503.479,90.5C503.129,90.5 502.827,90.694 502.666,90.978C502.506,90.694 502.204,90.5 501.854,90.5C501.336,90.5 500.916,90.92 500.916,91.438C500.916,92.473 502.391,93.029 502.666,93.688C502.942,93.029 504.416,92.473 504.416,91.438C504.416,90.92 503.997,90.5 503.479,90.5Z" style="fill:rgb(201,49,18);fill-rule:nonzero;"/>
            <path d="M529.854,125.25C530.204,125.25 530.506,125.056 530.667,124.772C530.827,125.056 531.129,125.25 531.479,125.25C531.997,125.25 532.417,124.83 532.417,124.313C532.417,123.277 530.942,122.722 530.667,122.063C530.391,122.722 528.917,123.277 528.917,124.313C528.917,124.83 529.336,125.25 529.854,125.25Z" style="fill:rgb(201,49,18);fill-rule:nonzero;"/>
            <path d="M502.674,84.131C502.314,84.131 502.037,84.29 501.842,84.61C501.646,84.929 501.548,85.432 501.548,86.118C501.548,86.781 501.641,87.273 501.824,87.594C502.009,87.915 502.285,88.076 502.653,88.076C503.012,88.076 503.29,87.915 503.486,87.593C503.684,87.271 503.782,86.767 503.782,86.08C503.782,85.417 503.689,84.926 503.506,84.608C503.322,84.29 503.045,84.131 502.674,84.131ZM504.338,89.591C504.127,89.591 503.945,89.547 503.794,89.457C503.643,89.369 503.503,89.263 503.375,89.142C503.247,89.021 503.119,88.896 502.992,88.768C502.865,88.64 502.721,88.538 502.558,88.46C502.241,88.456 501.965,88.4 501.727,88.291C501.489,88.183 501.293,88.03 501.138,87.833C500.982,87.636 500.866,87.397 500.789,87.117C500.711,86.837 500.672,86.525 500.672,86.182C500.672,85.798 500.72,85.455 500.814,85.152C500.91,84.85 501.047,84.595 501.224,84.389C501.401,84.182 501.619,84.024 501.877,83.915C502.135,83.805 502.424,83.75 502.744,83.75C503.065,83.75 503.348,83.803 503.589,83.91C503.83,84.017 504.029,84.168 504.188,84.365C504.346,84.562 504.465,84.801 504.545,85.082C504.624,85.364 504.664,85.678 504.664,86.025C504.664,86.638 504.54,87.146 504.293,87.549C504.045,87.953 503.707,88.222 503.275,88.358C503.381,88.397 503.479,88.443 503.571,88.496C503.664,88.549 503.756,88.606 503.85,88.666C503.996,88.767 504.143,88.852 504.285,88.919C504.43,88.987 504.588,89.021 504.763,89.021L504.92,89.016L505.057,88.998L505.135,89.298C505.068,89.362 504.963,89.427 504.816,89.493C504.67,89.559 504.51,89.591 504.338,89.591Z" style="fill:rgb(201,49,18);fill-rule:nonzero;"/>
            <path d="M530.656,131.619C531.016,131.619 531.293,131.46 531.488,131.141C531.684,130.822 531.782,130.319 531.782,129.632C531.782,128.969 531.689,128.477 531.506,128.156C531.321,127.835 531.045,127.675 530.677,127.675C530.318,127.675 530.04,127.835 529.844,128.158C529.646,128.479 529.548,128.984 529.548,129.67C529.548,130.333 529.641,130.824 529.824,131.142C530.008,131.46 530.285,131.619 530.656,131.619ZM528.992,126.159C529.203,126.159 529.385,126.204 529.536,126.293C529.688,126.382 529.827,126.487 529.955,126.608C530.083,126.729 530.211,126.854 530.338,126.982C530.465,127.11 530.609,127.213 530.772,127.291C531.089,127.294 531.365,127.351 531.604,127.459C531.841,127.568 532.037,127.721 532.192,127.917C532.348,128.114 532.464,128.353 532.541,128.633C532.619,128.914 532.658,129.225 532.658,129.568C532.658,129.953 532.61,130.296 532.516,130.598C532.42,130.901 532.283,131.155 532.106,131.362C531.929,131.568 531.711,131.727 531.453,131.836C531.195,131.946 530.906,132 530.586,132C530.265,132 529.982,131.947 529.741,131.84C529.5,131.734 529.301,131.582 529.143,131.385C528.984,131.188 528.865,130.949 528.785,130.668C528.706,130.387 528.666,130.073 528.666,129.726C528.666,129.113 528.79,128.604 529.037,128.201C529.285,127.798 529.623,127.528 530.055,127.393C529.949,127.354 529.852,127.308 529.759,127.254C529.666,127.201 529.574,127.144 529.48,127.084C529.334,126.983 529.188,126.899 529.045,126.831C528.9,126.763 528.742,126.729 528.567,126.729L528.41,126.735L528.273,126.752L528.195,126.453C528.262,126.389 528.367,126.324 528.514,126.258C528.66,126.192 528.82,126.159 528.992,126.159Z" style="fill:rgb(201,49,18);fill-rule:nonzero;"/>
            <path d="M528.791,86.75C528.092,86.75 527.488,87.138 527.166,87.707C526.845,87.138 526.241,86.75 525.541,86.75C524.506,86.75 523.666,87.59 523.666,88.625C523.666,90.696 526.615,91.807 527.166,93.125C527.718,91.807 530.666,90.696 530.666,88.625C530.666,87.59 529.827,86.75 528.791,86.75Z" style="fill:rgb(201,49,18);fill-rule:nonzero;"/>
            <path d="M507.792,129.252C507.092,129.252 506.489,128.865 506.167,128.296C505.845,128.865 505.241,129.252 504.542,129.252C503.506,129.252 502.667,128.413 502.667,127.377C502.667,125.307 505.615,124.196 506.167,122.877C506.718,124.196 509.667,125.307 509.667,127.377C509.667,128.413 508.827,129.252 507.792,129.252Z" style="fill:rgb(201,49,18);fill-rule:nonzero;"/>
            <path d="M500.667,96L500.667,131.75L500.917,132L525.667,132L525.667,131.5L501.167,131.5L501.167,96L500.667,96ZM532.667,120L532.167,120L532.167,84.5L507.667,84.5L507.667,84L532.417,84L532.667,84.25L532.667,120Z" style="fill:rgb(31,31,31);fill-rule:nonzero;"/>
            <path d="M518.83,127.76C518.789,128.13 518.78,128.49 518.8,128.83C518.262,128.494 517.593,128.516 517.01,129.08C516.274,128.022 515.748,128.068 514.62,128.7C514.02,127.6 513.599,127.24 512.4,127.77C512.229,127.083 511.786,126.702 511.21,126.62C511.47,126.38 511.75,126.07 512,125.71C513.82,127.291 516.224,128.103 518.83,127.76Z" style="fill:rgb(249,203,25);fill-rule:nonzero;"/>
            <path d="M519.039,112.2C518.38,112.6 517.7,113.12 517.02,113.78C516.9,113.74 516.77,113.72 516.63,113.72C516.992,113.72 511.801,113.529 510.88,115.37C510.38,116.343 511.071,117.552 511.35,118.67C510.77,118.27 509.81,117.48 509.02,116.27C508.54,115.56 508.35,114.73 508.45,113.87C508.771,111.114 515.713,109.377 519.039,112.2Z" style="fill:rgb(201,49,18);fill-rule:nonzero;"/>
            <path d="M517.36,118.53L517.03,116.74C517.874,115.891 518.32,114.759 517.49,114.02C519.2,112.4 520.9,111.76 522.49,111.36C523.164,115.699 519.627,116.574 517.36,118.53Z" style="fill:rgb(35,75,194);fill-rule:nonzero;"/>
            <path d="M519.31,125.88C519.32,125.96 519.28,126.1 519.11,126.14C515.524,126.677 514.672,123.438 514.64,119.88C514.62,116.599 516.682,116.153 515.74,114.25C516.099,114.23 516.479,114.22 516.88,114.22C517.547,114.22 517.886,114.831 517.539,115.58C517.106,116.526 515.242,117.443 515.27,120.48C515.27,120.755 515.31,121.048 515.31,121.24C515.51,124.17 516.74,125.67 519,125.67C519.169,125.67 519.31,125.709 519.31,125.88Z" style="fill:rgb(249,203,25);fill-rule:nonzero;"/>
            <path d="M515.969,125.83C513.81,124.896 513.662,122.234 513.53,119.85C513.326,117.046 514.224,115.723 513.419,114.57C513.93,114.45 514.52,114.35 515.21,114.3C516.109,116.212 514.12,116.353 514.14,119.89C514.158,121.954 514.406,124.491 515.969,125.83Z" style="fill:rgb(249,203,25);fill-rule:nonzero;"/>
            <path d="M514.25,125.13C512.719,124.21 512.542,122.282 512.37,120.52C512.224,118.888 512.136,118.617 511.81,117.64C511.28,116.051 511.135,115.3 512.9,114.72C513.731,115.696 512.822,116.908 513.03,119.88C513.125,121.604 513.252,123.761 514.25,125.13Z" style="fill:rgb(249,203,25);fill-rule:nonzero;"/>
            <path d="M527.52,116.8C527.33,116.99 527,116.99 526.81,116.8C526.69,116.68 526.31,116.02 525.81,115.09C526.92,115.68 527.42,116 527.52,116.09C527.71,116.28 527.71,116.6 527.52,116.8Z" style="fill:rgb(249,203,25);fill-rule:nonzero;"/>
            <path d="M525.01,116.31C524.854,116.7 524.267,116.733 524.09,116.31C524.039,116.18 524.039,116.05 524.09,115.92C524.13,115.81 524.4,115.51 525.02,114.99C525.08,115.78 525.06,116.19 525.01,116.31Z" style="fill:rgb(249,203,25);fill-rule:nonzero;"/>
            <path d="M509.37,100.06C509.32,100.17 509.05,100.48 508.44,101C508.35,99.971 508.43,99.721 508.45,99.681C508.571,99.392 508.897,99.31 509.1,99.411C509.35,99.51 509.47,99.811 509.37,100.06Z" style="fill:rgb(249,203,25);fill-rule:nonzero;"/>
            <path d="M507.64,100.89C506.53,100.3 506.03,99.991 505.94,99.9C505.471,99.432 506.173,98.713 506.65,99.19C506.74,99.28 507.05,99.79 507.64,100.89Z" style="fill:rgb(249,203,25);fill-rule:nonzero;"/>
            <path d="M525.53,110.02C525.009,110.888 524.203,110.76 522.88,110.8C522.69,110.23 521.909,108.64 519.08,108.01C521.02,107.73 523.21,107.21 525.62,106.45C525.98,108 525.98,109.28 525.53,110.02Z" style="fill:rgb(249,203,25);fill-rule:nonzero;"/>
            <path d="M514.4,107.97C512.46,108.25 510.26,108.77 507.83,109.54C507.47,107.99 507.48,106.7 507.92,105.96C508.372,105.221 509.085,105.21 509.92,105.21C510.07,105.2 510.25,105.19 510.57,105.19C510.77,105.76 511.55,107.34 514.4,107.97Z" style="fill:rgb(249,203,25);fill-rule:nonzero;"/>
            <path d="M525.01,102.12C524.687,104.867 517.745,106.611 514.409,103.78C515.08,103.38 515.75,102.87 516.43,102.21C516.958,102.342 517.773,102.21 518.36,102.21L518.4,102.2C519.734,102.102 521.961,101.801 522.58,100.61C523.104,99.606 522.307,98.297 522.11,97.311C522.68,97.721 523.64,98.51 524.44,99.71C524.91,100.43 525.11,101.26 525.01,102.12Z" style="fill:rgb(35,75,194);fill-rule:nonzero;"/>
            <path d="M515.71,100.2C515.354,100.979 515.565,101.654 515.96,101.96C514.25,103.58 512.56,104.22 510.97,104.62C510.295,100.296 513.827,99.417 516.099,97.451L516.43,99.241C516.037,99.633 515.768,100.08 515.71,100.2Z" style="fill:rgb(201,49,18);fill-rule:nonzero;"/>
            <path d="M520.56,101.27C519.689,100.27 520.679,99.093 520.4,95.741C520.28,94.02 520.15,92.141 519.2,90.86C521.32,91.922 520.879,95.76 521.409,97.59C521.925,99.504 522.747,100.541 520.56,101.27Z" style="fill:rgb(249,203,25);fill-rule:nonzero;"/>
            <path d="M520.03,101.41C519.53,101.54 518.93,101.63 518.25,101.69C517.33,99.851 519.34,99.555 519.32,96.101C519.302,94.041 519.046,91.494 517.49,90.161C519.703,91.106 519.734,93.785 519.93,96.141C520.136,98.972 519.231,100.239 520.03,101.41Z" style="fill:rgb(249,203,25);fill-rule:nonzero;"/>
            <path d="M517.71,101.73C517.36,101.75 516.979,101.76 516.58,101.77C516.68,101.77 516.155,101.831 515.9,101.43C515.729,101.17 515.74,100.8 515.919,100.41C516.03,100.16 516.26,99.911 516.52,99.61C517.952,97.977 518.242,96.973 518.15,94.811C518.076,94.662 518.198,90.311 514.46,90.311C513.992,90.311 514.112,89.897 514.34,89.84C517.968,89.496 518.786,92.415 518.82,96.101C518.84,99.389 516.773,99.857 517.71,101.73Z" style="fill:rgb(249,203,25);fill-rule:nonzero;"/>
            <path d="M522.25,89.36C521.99,89.601 521.7,89.92 521.45,90.28C519.56,88.641 517.06,87.891 514.62,88.23C514.659,87.86 514.68,87.491 514.659,87.161C515.307,87.538 515.919,87.415 516.45,86.9C517.19,87.98 517.74,87.9 518.83,87.29C519.44,88.391 519.849,88.75 521.06,88.221C521.219,88.842 521.625,89.301 522.25,89.36Z" style="fill:rgb(249,203,25);fill-rule:nonzero;"/>
            <path d="M509.06,111.128C509.06,111.266 508.947,111.378 508.81,111.378C508.671,111.378 508.56,111.266 508.56,111.128C508.56,110.99 508.671,110.878 508.81,110.878C508.947,110.878 509.06,110.991 509.06,111.128ZM517.542,109.401C517.565,109.266 517.695,109.175 517.831,109.2C517.969,109.225 518.059,109.355 518.033,109.491C518.008,109.626 517.879,109.717 517.742,109.692C517.607,109.667 517.517,109.537 517.542,109.401ZM514.445,109.338C514.435,109.2 514.536,109.079 514.674,109.067C514.81,109.055 514.932,109.157 514.943,109.294C514.956,109.432 514.854,109.553 514.716,109.565C514.578,109.577 514.458,109.476 514.445,109.338ZM509.957,110.518C509.904,110.391 509.965,110.244 510.092,110.191C510.22,110.138 510.366,110.198 510.419,110.326C510.472,110.453 510.412,110.6 510.284,110.653C510.157,110.706 510.011,110.646 509.957,110.518ZM519.046,109.774C519.098,109.646 519.242,109.583 519.372,109.635C519.5,109.687 519.562,109.832 519.51,109.96C519.459,110.088 519.313,110.15 519.185,110.099C519.057,110.047 518.995,109.902 519.046,109.774ZM512.914,109.589C512.888,109.454 512.977,109.322 513.111,109.295C513.247,109.269 513.379,109.357 513.405,109.492C513.432,109.628 513.344,109.759 513.208,109.786C513.073,109.813 512.94,109.725 512.914,109.589ZM511.413,109.979C511.374,109.847 511.45,109.708 511.582,109.669C511.715,109.63 511.854,109.707 511.893,109.839C511.932,109.971 511.855,110.11 511.723,110.149C511.59,110.188 511.451,110.112 511.413,109.979ZM515.995,109.275C516,109.137 516.117,109.029 516.255,109.035C516.393,109.04 516.5,109.156 516.495,109.294C516.49,109.432 516.375,109.54 516.236,109.534C516.099,109.529 515.991,109.413 515.995,109.275ZM520.374,110.629C520.374,110.491 520.486,110.379 520.624,110.379C520.762,110.379 520.874,110.492 520.874,110.629C520.874,110.767 520.762,110.879 520.624,110.879C520.485,110.879 520.374,110.767 520.374,110.629ZM518.271,123.479C518.271,123.35 518.271,123.221 518.27,123.093C518.268,122.955 518.379,122.842 518.518,122.841C518.655,122.839 518.768,122.95 518.77,123.088C518.771,123.217 518.771,123.346 518.771,123.475C518.773,123.613 518.663,123.726 518.524,123.727C518.387,123.728 518.273,123.617 518.271,123.479ZM524.397,104.857C524.397,104.719 524.51,104.607 524.647,104.607C524.785,104.607 524.897,104.719 524.897,104.857C524.897,104.995 524.785,105.107 524.647,105.107C524.51,105.107 524.397,104.995 524.397,104.857ZM515.914,106.584C515.89,106.72 515.76,106.81 515.624,106.785C515.487,106.761 515.396,106.63 515.422,106.495C515.447,106.359 515.577,106.269 515.714,106.293C515.849,106.318 515.939,106.448 515.914,106.584ZM514.409,106.212C514.357,106.34 514.213,106.402 514.085,106.35C513.956,106.299 513.895,106.153 513.945,106.025C513.998,105.897 514.143,105.835 514.271,105.887C514.399,105.938 514.461,106.083 514.409,106.212ZM517.46,106.71C517.455,106.848 517.339,106.956 517.201,106.951C517.063,106.946 516.955,106.83 516.961,106.692C516.966,106.554 517.081,106.446 517.219,106.451C517.357,106.456 517.465,106.572 517.46,106.71ZM520.542,106.396C520.568,106.532 520.479,106.663 520.344,106.69C520.209,106.717 520.078,106.628 520.051,106.493C520.024,106.357 520.112,106.226 520.248,106.199C520.383,106.172 520.515,106.261 520.542,106.396ZM519.01,106.647C519.021,106.785 518.919,106.906 518.783,106.918C518.646,106.93 518.524,106.829 518.512,106.691C518.5,106.554 518.602,106.432 518.739,106.42C518.877,106.408 518.998,106.51 519.01,106.647ZM522.044,106.006C522.081,106.138 522.007,106.277 521.874,106.316C521.741,106.355 521.603,106.279 521.563,106.146C521.525,106.014 521.601,105.875 521.732,105.836C521.866,105.797 522.005,105.874 522.044,106.006ZM523.499,105.467C523.552,105.595 523.491,105.741 523.364,105.794C523.236,105.847 523.09,105.787 523.037,105.66C522.984,105.532 523.044,105.386 523.172,105.333C523.3,105.28 523.445,105.34 523.499,105.467ZM513.083,105.356C513.083,105.494 512.971,105.606 512.833,105.606C512.693,105.606 512.583,105.494 512.583,105.356C512.583,105.218 512.693,105.106 512.833,105.106C512.971,105.106 513.083,105.218 513.083,105.356ZM515.184,92.507C515.185,92.636 515.185,92.765 515.188,92.893C515.188,93.031 515.077,93.144 514.939,93.145C514.801,93.146 514.688,93.035 514.688,92.897C514.685,92.769 514.685,92.64 514.684,92.511C514.682,92.373 514.794,92.26 514.932,92.259C515.068,92.258 515.182,92.369 515.184,92.507ZM528.262,120.356C528.053,120.368 527.95,120.617 528.089,120.772C528.21,120.908 528.214,121.116 528.08,121.25C527.943,121.387 527.723,121.387 527.586,121.25L527.534,121.174C527.397,120.938 527.233,120.44 527.154,120.181C527.468,120.084 528.1,119.88 528.362,119.685C528.509,119.738 528.593,119.87 528.593,120.013C528.593,120.2 528.444,120.346 528.262,120.356ZM526.843,121.763C526.655,121.762 526.51,121.614 526.499,121.431C526.487,121.223 526.239,121.12 526.083,121.258C525.948,121.378 525.741,121.384 525.605,121.25C525.469,121.113 525.469,120.892 525.605,120.755L525.682,120.703C525.917,120.567 526.415,120.404 526.675,120.323C526.771,120.637 526.976,121.27 527.171,121.531C527.117,121.679 526.984,121.762 526.843,121.763ZM525.093,120.013C525.094,119.824 525.242,119.679 525.425,119.668C525.633,119.657 525.736,119.408 525.597,119.252C525.476,119.117 525.473,118.909 525.605,118.775C525.743,118.638 525.964,118.638 526.101,118.775L526.152,118.851C526.289,119.086 526.452,119.584 526.532,119.844C526.22,119.94 525.587,120.145 525.324,120.34C525.177,120.287 525.094,120.154 525.093,120.013ZM525.875,114.478C525.578,114.527 525.081,114.481 524.802,114.416C524.462,114.179 523.799,113.313 523.552,112.983C523.61,112.416 523.578,111.866 523.49,111.298C524.039,111.289 524.103,111.268 524.582,111.264L526.069,111.28C526.364,111.28 526.545,111.347 526.64,111.416L526.756,111.604C526.42,111.458 526.018,111.474 525.657,111.538C525.521,111.563 525.431,111.692 525.455,111.828C525.479,111.964 525.609,112.055 525.745,112.03C526.014,111.982 526.434,111.949 526.652,112.114L526.752,112.274C526.41,112.127 525.999,112.146 525.632,112.215C525.496,112.24 525.406,112.371 525.432,112.507C525.457,112.643 525.588,112.732 525.724,112.707C525.997,112.656 526.429,112.618 526.652,112.787L526.752,112.947C526.413,112.801 526.005,112.819 525.64,112.886C525.504,112.911 525.414,113.042 525.439,113.177C525.465,113.313 525.595,113.403 525.73,113.378C526.983,113.147 526.954,113.911 526.344,113.957C526.097,113.717 525.719,113.611 525.372,113.584L525.156,112.903C525.114,112.771 524.974,112.698 524.842,112.74C524.71,112.782 524.638,112.922 524.679,113.054L524.948,113.902L525.186,114.076C525.501,114.077 525.74,114.149 525.886,114.234L526.031,114.354L526.058,114.41L526.05,114.422L525.875,114.478ZM525.261,116.307C525.18,116.501 524.993,116.616 524.799,116.616C524.443,116.616 524.201,116.253 524.337,115.924C524.419,115.716 525.096,115.132 525.266,114.988C525.285,115.212 525.35,116.101 525.261,116.307ZM523.382,110.799C523.351,110.709 523.306,110.596 523.239,110.463C522.562,109.106 521.07,108.356 519.57,108.017C521.392,107.759 523.557,107.266 526.134,106.449C526.595,108.429 526.624,110.747 524.581,110.764C524.057,110.769 524.038,110.791 523.382,110.799ZM517.854,118.509L517.53,116.742C517.797,116.44 518.089,116.12 518.242,115.785C518.537,115.144 518.497,114.445 517.989,114.018C519.504,112.578 521.054,111.843 522.992,111.359C523.684,115.729 520.078,116.601 517.854,118.509ZM518.912,119.138L519.203,119.203L519.268,119.439C519.289,119.727 519.224,120.134 519.562,120.375L519.38,120.37C519.242,120.374 519.133,120.489 519.137,120.626C519.141,120.765 519.255,120.874 519.393,120.87C519.507,120.867 519.619,120.879 519.729,120.903C519.65,121.046 519.607,121.2 519.594,121.367C519.465,121.335 519.331,121.411 519.294,121.54C519.255,121.673 519.333,121.812 519.466,121.85L520.02,122.009C519.685,122.503 519.309,123.139 519.31,123.744C519.31,123.891 519.328,124.02 519.348,124.14C518.969,124.016 518.409,124.039 518.104,123.869C517.984,123.802 517.833,123.846 517.766,123.967C517.698,124.088 517.742,124.24 517.864,124.307C518.323,124.559 518.966,124.502 519.258,124.641C519.351,124.685 519.382,124.731 519.386,124.839C519.375,124.938 519.354,125.048 519.323,125.173L519.293,125.172C516.992,125.183 516.19,123.488 516.046,121.188L516.318,120.558C516.604,119.888 518.12,119.136 518.912,119.138ZM519.405,127.249C516.971,127.637 514.556,126.867 512.765,125.284C512.873,125.077 512.961,124.856 513.018,124.625C513.443,125.03 513.749,125.233 514.085,125.465L514.103,125.476C514.848,125.952 515.679,126.297 516.554,126.5L516.623,126.517C517.628,126.74 518.633,126.767 519.583,126.625C519.437,127.127 519.435,127.127 519.405,127.249ZM519.297,128.829C518.718,128.471 518.08,128.535 517.507,129.082C516.784,128.019 516.229,128.075 515.123,128.698C514.518,127.593 514.085,127.243 512.896,127.769C512.732,127.133 512.339,126.7 511.709,126.622C512.008,126.34 512.263,126.054 512.499,125.716C514.375,127.342 516.852,128.111 519.315,127.77C519.276,128.121 519.274,128.476 519.297,128.829ZM512.533,119.665C512.386,118.417 512.222,118.191 511.9,117.159C511.757,116.701 511.611,116.151 511.771,115.717C511.97,115.179 512.607,114.889 513.151,114.709C513.906,115.581 513.247,116.636 513.247,118.996C513.247,119.73 513.37,121.265 513.443,121.88C513.578,123.026 513.833,124.226 514.517,125.144C512.729,124.061 512.773,121.693 512.533,119.665ZM513.669,114.561C514.159,114.441 514.75,114.349 515.452,114.29C515.597,114.58 515.734,114.835 515.735,115.186C515.735,116.208 514.36,117.099 514.39,119.888C514.406,121.925 514.674,124.555 516.229,125.862C514.687,125.221 514.19,123.714 513.971,122.065C513.877,121.371 513.747,119.724 513.747,118.996C513.747,116.761 514.396,115.61 513.669,114.561ZM517.44,119.03C516.935,119.265 516.362,119.626 516.031,120.069C516.097,118.924 516.453,118.067 517.112,117.236L517.44,119.03ZM516.145,117.788C515.786,118.45 515.521,119.3 515.521,120.426C515.521,126.244 519.128,125.576 519.432,125.695C519.521,125.731 519.565,125.804 519.565,125.896C519.565,126.021 519.487,126.127 519.346,126.152C519.202,126.17 518.882,126.201 518.781,126.201C517.718,126.201 516.807,125.885 516.138,125.058C515.091,123.767 514.901,121.54 514.89,119.884C514.862,116.58 516.937,116.144 515.992,114.253C516.393,114.231 516.867,114.219 517.133,114.219C517.771,114.221 518.146,114.795 517.789,115.576C517.544,116.117 516.723,116.716 516.145,117.788ZM509.516,116.272C509.041,115.553 508.848,114.711 508.946,113.868C509.276,111.045 516.32,109.435 519.562,112.188C518.892,112.59 518.206,113.104 517.524,113.772C517.387,113.733 517.26,113.719 517.12,113.719C515.568,113.731 512.709,113.875 511.643,115C510.686,116.011 511.534,117.394 511.858,118.681C511.286,118.277 510.309,117.476 509.516,116.272ZM507.445,110.022C510.346,109.102 513.825,108.242 516.857,108.242C518.852,108.242 521.302,108.635 522.51,110.235C522.656,110.43 522.786,110.648 522.875,110.874C521.856,111.127 520.943,111.438 520.021,111.929C516.847,109.031 509.893,110.229 508.632,113.144C508.153,112.144 507.733,111.08 507.445,110.022ZM508.875,105.221C509.399,105.217 509.418,105.195 510.074,105.186C510.105,105.276 510.15,105.39 510.218,105.522C510.895,106.879 512.386,107.629 513.885,107.969C512.064,108.226 509.9,108.72 507.323,109.537C506.861,107.557 506.832,105.238 508.875,105.221ZM507.387,104.705C507.129,104.706 506.715,104.638 506.7,104.382C507.036,104.527 507.439,104.512 507.799,104.447C507.936,104.423 508.025,104.293 508.001,104.157C507.978,104.021 507.847,103.931 507.711,103.955C507.558,103.983 507.423,103.995 507.308,103.995C507.079,103.995 506.727,103.935 506.704,103.711C507.045,103.857 507.456,103.839 507.824,103.771C507.96,103.745 508.05,103.614 508.024,103.479C507.999,103.343 507.868,103.253 507.732,103.279C507.57,103.309 507.429,103.322 507.308,103.322C507.079,103.322 506.727,103.262 506.704,103.038C507.043,103.184 507.45,103.167 507.816,103.099C507.952,103.074 508.042,102.944 508.017,102.808C507.992,102.672 507.861,102.583 507.726,102.607C506.485,102.836 506.489,102.076 507.112,102.028C507.36,102.269 507.737,102.374 508.084,102.401L508.301,103.083C508.343,103.214 508.482,103.287 508.614,103.245C508.746,103.204 508.819,103.063 508.777,102.931L508.508,102.083L508.271,101.909C507.956,101.909 507.716,101.836 507.57,101.751L507.425,101.631L507.398,101.575C507.455,101.496 507.788,101.486 507.886,101.486C508.152,101.486 508.464,101.525 508.655,101.57C509.006,101.816 509.666,102.688 509.903,103C509.847,103.566 509.877,104.116 509.967,104.688C509.409,104.697 509.371,104.717 508.874,104.721L507.387,104.705ZM505.689,99.896C505.494,99.701 505.494,99.384 505.689,99.189C505.885,98.994 506.201,98.994 506.396,99.189C506.569,99.35 507.305,100.725 507.394,100.893C507.184,100.781 505.853,100.068 505.689,99.896ZM506.924,96.139C507.235,96.043 507.869,95.838 508.132,95.643C508.279,95.696 508.363,95.829 508.363,95.971C508.362,96.159 508.215,96.304 508.031,96.314C507.823,96.326 507.721,96.575 507.859,96.73C507.98,96.866 507.984,97.074 507.851,97.208C507.714,97.345 507.493,97.345 507.355,97.208L507.304,97.132C507.168,96.897 507.005,96.4 506.924,96.139ZM506.613,97.721C506.426,97.72 506.28,97.572 506.27,97.389C506.258,97.181 506.01,97.078 505.854,97.217C505.718,97.338 505.51,97.341 505.376,97.208C505.239,97.071 505.239,96.85 505.376,96.713L505.452,96.662C505.688,96.525 506.186,96.362 506.445,96.281C506.541,96.594 506.746,97.227 506.941,97.489C506.888,97.637 506.755,97.72 506.613,97.721ZM504.863,95.971C504.864,95.782 505.013,95.637 505.194,95.627C505.403,95.615 505.506,95.366 505.367,95.21C505.246,95.075 505.242,94.868 505.376,94.733C505.513,94.597 505.733,94.597 505.871,94.733L505.923,94.809C506.059,95.045 506.223,95.542 506.303,95.802C505.989,95.899 505.356,96.103 505.095,96.298C504.947,96.245 504.863,96.112 504.863,95.971ZM506.613,94.221C506.802,94.221 506.946,94.37 506.957,94.552C506.969,94.761 507.218,94.863 507.373,94.725C507.509,94.603 507.717,94.601 507.851,94.733C507.987,94.87 507.987,95.091 507.851,95.228L507.774,95.28C507.539,95.416 507.041,95.58 506.781,95.66C506.686,95.347 506.48,94.714 506.285,94.452C506.339,94.305 506.471,94.221 506.613,94.221ZM508.195,99.679C508.276,99.485 508.463,99.37 508.657,99.37C509.012,99.37 509.256,99.73 509.119,100.061C509.039,100.268 508.36,100.854 508.19,100.997C508.172,100.775 508.106,99.885 508.195,99.679ZM515.603,97.477L515.926,99.243C515.659,99.545 515.367,99.866 515.213,100.201C514.867,100.954 515.037,101.606 515.466,101.968C513.952,103.407 512.403,104.143 510.463,104.626C509.772,100.254 513.378,99.384 515.603,97.477ZM514.544,96.848L514.253,96.783L514.188,96.546C514.168,96.264 514.232,95.852 513.896,95.611L514.075,95.616C514.214,95.613 514.322,95.498 514.318,95.36C514.315,95.222 514.202,95.113 514.063,95.116C513.956,95.118 513.849,95.109 513.727,95.083C513.807,94.939 513.848,94.786 513.862,94.619C513.992,94.65 514.125,94.575 514.162,94.446C514.2,94.313 514.123,94.174 513.991,94.136L513.437,93.977C513.771,93.482 514.146,92.846 514.146,92.242C514.146,92.095 514.128,91.966 514.109,91.846C514.487,91.97 515.047,91.946 515.351,92.117C515.472,92.184 515.624,92.14 515.69,92.019C515.757,91.898 515.713,91.746 515.593,91.679C515.13,91.426 514.491,91.484 514.197,91.345C514.104,91.301 514.073,91.255 514.07,91.146C514.081,91.048 514.102,90.937 514.133,90.812L514.164,90.813C516.473,90.802 517.267,92.513 517.409,94.799L517.137,95.428C516.852,96.097 515.336,96.85 514.544,96.848ZM514.051,88.737C516.485,88.348 518.9,89.119 520.69,90.702C520.584,90.909 520.495,91.129 520.438,91.36C520.004,90.948 519.682,90.735 519.372,90.52L519.354,90.51C518.609,90.034 517.776,89.688 516.903,89.485L516.833,89.469C515.899,89.262 514.905,89.207 513.874,89.36C513.99,88.96 514.02,88.867 514.051,88.737ZM514.158,87.157C514.74,87.516 515.378,87.45 515.948,86.904C516.676,87.974 517.232,87.906 518.333,87.288C518.94,88.397 519.375,88.741 520.56,88.217C520.723,88.851 521.115,89.285 521.748,89.364C521.447,89.647 521.19,89.934 520.956,90.27C519.077,88.64 516.599,87.875 514.141,88.216C514.18,87.863 514.182,87.508 514.158,87.157ZM520.922,96.321C521.07,97.568 521.235,97.797 521.556,98.827C521.697,99.28 521.844,99.833 521.685,100.268C521.486,100.806 520.849,101.096 520.305,101.276C519.549,100.404 520.21,99.35 520.209,96.99C520.209,96.248 520.085,94.715 520.013,94.105C519.878,92.959 519.623,91.76 518.939,90.842C520.724,91.925 520.682,94.29 520.922,96.321ZM519.787,101.424C519.297,101.544 518.706,101.637 518.004,101.695C517.859,101.407 517.722,101.151 517.721,100.799C517.722,99.762 519.078,98.941 519.065,96.098C519.051,94.066 518.784,91.432 517.227,90.123C518.771,90.765 519.266,92.272 519.486,93.92C519.578,94.611 519.709,96.256 519.709,96.99C519.709,99.225 519.06,100.375 519.787,101.424ZM516.015,96.956C516.521,96.721 517.094,96.36 517.424,95.916C517.359,97.061 517.003,97.918 516.344,98.749L516.015,96.956ZM517.313,98.197C517.669,97.536 517.935,96.686 517.935,95.56C517.935,92.692 517.05,90.313 514.208,90.313L514.023,90.29C513.934,90.254 513.891,90.181 513.891,90.089C513.891,89.964 513.969,89.859 514.11,89.833C514.255,89.815 514.573,89.784 514.674,89.784C515.739,89.785 516.648,90.101 517.318,90.928C518.364,92.219 518.554,94.446 518.565,96.102C518.568,96.683 518.518,97.242 518.364,97.815C517.888,99.596 516.711,100.225 517.464,101.732C517.063,101.754 516.588,101.767 516.322,101.767C515.859,101.765 515.531,101.462 515.529,100.984C515.529,100.038 516.565,99.581 517.313,98.197ZM523.94,99.713C524.415,100.432 524.608,101.274 524.51,102.118C524.181,104.931 517.146,106.56 513.895,103.797C514.564,103.395 515.249,102.881 515.932,102.213C516.07,102.252 516.197,102.267 516.334,102.267C517.886,102.254 520.747,102.111 521.813,100.986C522.771,99.975 521.921,98.585 521.598,97.305C522.169,97.709 523.146,98.51 523.94,99.713ZM526.011,105.963C523.107,106.885 519.63,107.743 516.599,107.743C514.604,107.743 512.153,107.35 510.946,105.75C510.799,105.555 510.67,105.336 510.58,105.112C511.598,104.859 512.51,104.549 513.435,104.056C516.611,106.956 523.564,105.754 524.824,102.842C525.295,103.824 525.719,104.891 526.011,105.963ZM527.767,116.09C527.962,116.286 527.962,116.601 527.767,116.797C527.571,116.992 527.255,116.992 527.06,116.797C526.888,116.637 526.174,115.302 526.063,115.093C526.272,115.205 527.605,115.917 527.767,116.09ZM526.843,118.263C527.031,118.263 527.177,118.412 527.187,118.594C527.198,118.803 527.447,118.905 527.603,118.766C527.739,118.645 527.947,118.642 528.081,118.775C528.217,118.912 528.217,119.133 528.08,119.27L528.005,119.322C527.77,119.458 527.272,119.621 527.012,119.702C526.914,119.387 526.71,118.755 526.516,118.494C526.568,118.347 526.701,118.263 526.843,118.263ZM528.647,119.266C528.84,118.623 528.242,118.012 527.588,118.214C527.349,117.76 526.778,117.627 526.363,117.912C526.268,117.397 526.237,116.867 526.236,116.442C526.338,116.618 526.563,117.006 526.706,117.15C526.9,117.345 527.158,117.444 527.413,117.443C528.306,117.444 528.745,116.36 528.12,115.736C527.878,115.497 526.765,114.901 526.442,114.729C526.513,114.64 526.551,114.553 526.557,114.431C527.117,114.301 527.413,113.761 527.169,113.308C527.278,113.1 527.288,112.856 527.169,112.636C527.279,112.426 527.287,112.181 527.17,111.964C527.438,111.453 527.104,110.764 526.034,110.78C527.224,109.779 526.941,107.587 526.557,106.074C526.371,105.252 525.832,103.698 525.014,102.097C525.109,101.121 524.862,100.201 524.358,99.438C523.263,97.78 521.862,96.86 521.466,96.62C521.266,95.244 521.286,93.548 520.68,92.157C520.81,92.124 520.898,91.995 520.87,91.858C520.892,91.053 521.516,90.265 522.104,89.715C522.276,89.554 522.492,89.372 522.685,89.233L522.61,88.788C522.599,88.785 522.612,88.787 522.461,88.79C521.659,89.048 521.112,88.759 520.992,87.822L520.633,87.63C520.405,87.744 520.211,87.828 520.051,87.881C519.396,88.099 519.209,87.874 518.651,86.827L518.306,86.728C517.302,87.311 517.018,87.401 516.612,86.949C516.49,86.814 516.354,86.621 516.197,86.367L515.791,86.339C515.195,87.066 514.581,87.039 514.03,86.388L513.593,86.587C513.635,86.862 513.674,87.221 513.674,87.604C513.674,88.359 513.539,88.718 513.393,89.221C513.347,89.382 513.383,89.562 513.502,89.694C513.31,90.015 513.37,90.425 513.658,90.651C513.53,91.134 513.541,91.45 513.604,91.862C513.651,92.153 513.677,92.334 513.58,92.635C513.416,93.145 513.137,93.531 512.828,93.981L512.966,94.362L513.366,94.477C513.372,94.655 513.32,94.888 513.164,94.971C513.021,95.047 512.984,95.248 513.107,95.37C513.188,95.448 513.448,95.53 513.557,95.557C513.38,95.657 513.391,95.915 513.573,96L513.623,96.033C513.74,96.155 513.61,96.61 513.781,96.974C513.987,97.406 514.578,97.387 515.047,97.288C513.286,98.682 510.657,99.658 510.018,102.325C509.798,102.044 509.161,101.241 508.833,101.101C509.061,100.896 509.471,100.518 509.581,100.252C509.854,99.594 509.368,98.87 508.657,98.87C508.224,98.87 507.848,99.151 507.72,99.527C507.717,99.037 507.681,98.416 507.548,97.808C508.138,97.846 508.589,97.288 508.411,96.715C509.014,96.398 509.011,95.546 508.418,95.224C508.609,94.581 508.012,93.97 507.358,94.172C507.04,93.569 506.188,93.574 505.866,94.166C505.225,93.975 504.612,94.571 504.815,95.226C504.212,95.544 504.216,96.396 504.809,96.717C504.617,97.36 505.215,97.971 505.868,97.769C506.109,98.226 506.681,98.353 507.092,98.072C507.188,98.587 507.219,99.118 507.22,99.543C507.117,99.366 506.893,98.979 506.75,98.835C506.127,98.211 505.042,98.649 505.043,99.542C505.043,99.797 505.142,100.054 505.336,100.249C505.578,100.488 506.69,101.083 507.014,101.256C506.944,101.345 506.905,101.432 506.9,101.554C506.339,101.685 506.044,102.224 506.287,102.677C506.178,102.885 506.168,103.13 506.287,103.35C506.18,103.555 506.167,103.797 506.287,104.021C506.014,104.54 506.362,105.218 507.422,105.205C506.094,106.323 506.584,108.936 507.09,110.594C507.416,111.663 507.88,112.789 508.442,113.889C508.348,114.863 508.593,115.783 509.098,116.548C510.193,118.206 511.593,119.125 511.989,119.366C512.19,120.742 512.169,122.438 512.776,123.829C512.651,123.86 512.557,123.986 512.585,124.128C512.564,124.933 511.941,125.72 511.353,126.271C511.179,126.433 510.965,126.614 510.771,126.752L510.846,127.198C510.856,127.201 510.843,127.199 510.995,127.196C511.793,126.938 512.341,127.223 512.463,128.164L512.822,128.356C513.051,128.242 513.244,128.158 513.405,128.104C514.047,127.89 514.237,128.093 514.805,129.159L515.15,129.258C515.45,129.084 516.008,128.749 516.338,128.75C516.546,128.751 516.698,128.874 516.844,129.037C516.966,129.172 517.104,129.365 517.26,129.62L517.666,129.646C518.255,128.926 518.87,128.941 519.426,129.598L519.862,129.398C519.82,129.124 519.783,128.765 519.783,128.381C519.781,127.626 519.914,127.271 520.063,126.765C520.109,126.604 520.073,126.425 519.953,126.292C520.143,125.976 520.09,125.564 519.799,125.335C520.072,124.295 519.667,124.004 519.875,123.352C520.039,122.841 520.32,122.455 520.627,122.005L520.489,121.624L520.09,121.509C520.085,121.331 520.136,121.098 520.292,121.015C520.438,120.936 520.472,120.734 520.347,120.614C520.266,120.537 520.005,120.456 519.9,120.429C520.076,120.329 520.065,120.071 519.882,119.985L519.833,119.953C519.716,119.831 519.844,119.373 519.674,119.012C519.469,118.581 518.879,118.598 518.409,118.698C520.169,117.304 522.799,116.328 523.439,113.66C523.661,113.944 524.296,114.745 524.623,114.885C524.421,115.067 524.117,115.351 523.963,115.577C523.62,116.077 523.83,116.797 524.416,117.04C524.959,117.264 525.563,116.969 525.736,116.459C525.739,116.949 525.775,117.567 525.907,118.175C525.313,118.137 524.869,118.7 525.045,119.268C524.441,119.586 524.447,120.438 525.039,120.759C524.847,121.404 525.446,122.013 526.099,121.811C526.414,122.41 527.266,122.415 527.59,121.817C528.237,122.01 528.843,121.408 528.642,120.757C529.241,120.441 529.244,119.589 528.647,119.266Z" style="fill:rgb(31,31,31);fill-rule:nonzero;"/>
        </g>
    </g>
</svg>
