<?xml version="1.0" encoding="UTF-8" standalone="no"?>
<!DOCTYPE svg PUBLIC "-//W3C//DTD SVG 1.1//EN" "http://www.w3.org/Graphics/SVG/1.1/DTD/svg11.dtd">
<svg width="100%" height="100%" viewBox="0 0 40 56" version="1.1" xmlns="http://www.w3.org/2000/svg" xmlns:xlink="http://www.w3.org/1999/xlink" xml:space="preserve" xmlns:serif="http://www.serif.com/" style="fill-rule:evenodd;clip-rule:evenodd;stroke-linejoin:round;stroke-miterlimit:2;">
    <g transform="matrix(1,0,0,1,-540,-20)">
        <g>
            <path d="M577.5,76L542.5,76C541.119,76 540,74.881 540,73.5L540,22.5C540,21.12 541.119,20 542.5,20L577.5,20C578.881,20 580,21.12 580,22.5L580,73.5C580,74.881 578.881,76 577.5,76Z" style="fill:white;fill-rule:nonzero;"/>
            <path d="M547.53,31.533C547.237,31.24 546.763,31.24 546.47,31.533L546.147,31.854C546.229,31.566 546.394,31.418 546.53,31.281C546.823,30.988 546.823,30.513 546.53,30.22C546.384,30.074 546.193,30.001 546.002,30C545.811,30.001 545.615,30.074 545.47,30.22C545.177,30.513 545.177,30.988 545.47,31.281C545.606,31.418 545.771,31.566 545.853,31.854L545.53,31.533C545.237,31.24 544.763,31.24 544.47,31.533C544.177,31.826 544.177,32.3 544.47,32.593C544.763,32.886 545.237,32.886 545.53,32.593L545.9,32.223L545.902,32.244C545.908,32.568 545.857,33.081 545.5,33.438L545.5,33.563L546.5,33.563L546.5,33.438C546.145,33.082 546.091,32.574 546.097,32.249L546.099,32.223L546.47,32.593C546.763,32.886 547.237,32.886 547.53,32.593C547.823,32.3 547.823,31.826 547.53,31.533Z" style="fill:rgb(31,31,31);fill-rule:nonzero;"/>
            <path d="M572.47,64.468C572.763,64.761 573.237,64.761 573.53,64.468L573.853,64.146C573.771,64.435 573.606,64.583 573.47,64.72C573.177,65.013 573.177,65.488 573.47,65.781C573.615,65.927 573.807,66 573.998,66C574.189,66 574.384,65.927 574.53,65.781C574.823,65.488 574.823,65.013 574.53,64.72C574.394,64.583 574.229,64.435 574.147,64.146L574.47,64.468C574.763,64.761 575.237,64.761 575.53,64.468C575.823,64.175 575.823,63.701 575.53,63.408C575.237,63.115 574.763,63.115 574.47,63.408L574.099,63.778L574.098,63.757C574.091,63.433 574.143,62.92 574.5,62.563L574.5,62.438L573.5,62.438L573.5,62.563C573.855,62.918 573.908,63.427 573.902,63.752L573.9,63.778L573.53,63.408C573.237,63.115 572.763,63.115 572.47,63.408C572.177,63.701 572.177,64.175 572.47,64.468Z" style="fill:rgb(31,31,31);fill-rule:nonzero;"/>
            <path d="M546.016,28.163L546.016,28.5L543.982,28.5L543.982,28.163L544.437,28.076L544.548,28.019L544.588,27.904L544.588,24.57L544.55,24.453L544.439,24.393L543.982,24.303L543.982,23.957L545.993,23.957L545.993,24.303L545.53,24.393L545.423,24.453L545.385,24.57L545.385,26.4L547.096,24.401L546.571,24.303L546.571,23.957L548.221,23.957L548.221,24.303L547.79,24.393L547.688,24.429L547.602,24.495L546.473,25.751C546.575,25.872 546.673,26.003 546.764,26.147C546.854,26.29 546.959,26.464 547.078,26.668L547.782,27.869L547.89,28.013L548.044,28.087L548.352,28.163L548.352,28.5L547.308,28.5C547.235,28.5 547.16,28.445 547.079,28.333C546.999,28.222 546.908,28.071 546.808,27.881C546.808,27.881 546.2,26.733 546.14,26.624C546.078,26.516 546.018,26.416 545.958,26.328L545.385,26.976L545.385,27.91L545.426,28.025L545.539,28.079L546.016,28.163Z" style="fill:rgb(31,31,31);fill-rule:nonzero;"/>
            <path d="M573.98,67.838L573.98,67.5L576.014,67.5L576.014,67.838L575.561,67.925L575.448,67.982L575.408,68.097L575.408,71.431L575.447,71.548L575.557,71.608L576.014,71.698L576.014,72.044L574.004,72.044L574.004,71.698L574.467,71.608L574.574,71.548L574.611,71.431L574.611,69.601L572.9,71.6L573.425,71.698L573.425,72.044L571.775,72.044L571.775,71.698L572.206,71.608L572.309,71.572L572.395,71.506L573.523,70.249C573.421,70.129 573.324,69.998 573.232,69.854C573.142,69.71 573.037,69.537 572.918,69.333L572.215,68.132L572.107,67.988L571.953,67.914L571.645,67.838L571.645,67.5L572.689,67.5C572.761,67.5 572.836,67.556 572.917,67.668C572.998,67.779 573.088,67.93 573.189,68.12C573.189,68.12 573.796,69.268 573.857,69.377C573.918,69.485 573.979,69.584 574.039,69.673L574.611,69.025L574.611,68.091L574.57,67.976L574.457,67.922L573.98,67.838Z" style="fill:rgb(31,31,31);fill-rule:nonzero;"/>
            <path d="M573.562,28.565C572.976,27.979 572.026,27.979 571.44,28.565L570.797,29.208C570.958,28.631 571.288,28.335 571.562,28.061C572.147,27.475 572.147,26.525 571.562,25.94C571.27,25.648 570.888,25.501 570.505,25.5C570.122,25.501 569.732,25.648 569.44,25.94C568.854,26.525 568.854,27.475 569.44,28.061C569.714,28.335 570.044,28.631 570.205,29.208L569.562,28.565C568.976,27.979 568.026,27.979 567.44,28.565C566.854,29.151 566.854,30.101 567.44,30.686C568.026,31.272 568.976,31.272 569.562,30.686L570.303,29.945L570.305,29.986C570.318,30.636 570.216,31.661 569.501,32.375L569.501,32.625L571.501,32.625L571.501,32.375C570.79,31.665 570.684,30.647 570.695,29.997L570.699,29.945L571.44,30.686C572.026,31.272 572.976,31.272 573.562,30.686C574.147,30.101 574.147,29.15 573.562,28.565Z" style="fill:rgb(31,31,31);fill-rule:nonzero;"/>
            <path d="M552.562,67.439C551.977,68.024 551.026,68.024 550.44,67.439L549.797,66.795C549.958,67.373 550.288,67.668 550.562,67.942C551.147,68.528 551.147,69.478 550.562,70.064C550.27,70.356 549.888,70.502 549.505,70.503C549.122,70.502 548.732,70.356 548.44,70.064C547.854,69.478 547.854,68.528 548.44,67.942C548.715,67.668 549.044,67.373 549.206,66.795L548.562,67.439C547.977,68.024 547.026,68.024 546.44,67.439C545.854,66.853 545.854,65.903 546.44,65.317C547.026,64.731 547.977,64.731 548.562,65.317L549.303,66.059L549.306,66.017C549.318,65.367 549.216,64.343 548.501,63.628L548.501,63.378L550.501,63.378L550.501,63.628C549.791,64.339 549.685,65.356 549.695,66.006L549.699,66.059L550.44,65.317C551.026,64.731 551.977,64.731 552.562,65.317C553.147,65.903 553.147,66.853 552.562,67.439Z" style="fill:rgb(31,31,31);fill-rule:nonzero;"/>
            <path d="M544.001,36L544.001,71.75L544.251,72L569.001,72L569.001,71.5L544.501,71.5L544.501,36L544.001,36ZM576.001,60L575.501,60L575.501,24.5L551.001,24.5L551.001,24L575.751,24L576.001,24.25L576.001,60Z" style="fill:rgb(31,31,31);fill-rule:nonzero;"/>
            <path d="M562.98,69.32C563.08,69.32 561.951,69.426 560.83,68.621C560.95,68.42 561.08,68.23 561.19,68.01L560.73,67.8C560.21,68.931 559.4,69.63 558.26,69.94C557.37,69.161 556.95,68.17 556.99,66.92L556.49,66.911C556.48,67.15 556.51,67.38 556.54,67.61C555.76,67.951 554.97,68.01 554.15,67.8C554.933,66.933 555.138,66.358 555.37,65.661C557.667,65.469 558.918,65.287 562.24,66.891C562.32,67.831 562.73,68.811 562.98,69.32Z" style="fill:rgb(249,203,25);fill-rule:nonzero;"/>
            <path d="M571.36,59.73C571.22,59.59 571,59.311 570.64,58.78L570.19,58.88C570.06,59.601 569.77,60.3 569.35,60.9C568.92,60.3 568.63,59.601 568.5,58.88L568.05,58.78C567.69,59.311 567.47,59.581 567.33,59.721C567.484,58.792 567.873,57.984 568.74,57.59L568.53,57.13C568.39,57.201 568.25,57.29 568.12,57.38C567.999,56.533 568.637,55.92 569.35,55.92C570.04,55.92 570.6,56.48 570.6,57.17L570.57,57.38C570.44,57.29 570.3,57.201 570.16,57.13L569.95,57.59C570.818,57.985 571.214,58.803 571.36,59.73Z" style="fill:rgb(249,203,25);fill-rule:nonzero;"/>
            <path d="M569.91,51.971L569.91,55.52C569.521,55.391 569.19,55.384 568.78,55.52L568.78,51.971L569.91,51.971Z" style="fill:rgb(249,203,25);fill-rule:nonzero;"/>
            <path d="M567.92,53.101C566.431,54.03 565.341,54.933 564.35,55.88C564.01,55.78 563.64,55.721 563.24,55.71C564.4,54.601 565.67,53.621 567.06,52.79C567.33,52.94 567.62,53.05 567.92,53.101Z" style="fill:rgb(35,75,194);fill-rule:nonzero;"/>
            <path d="M558.95,65.141C558.75,65.11 558.55,65.081 558.36,65.061C558.63,64.11 558.13,63.121 556.99,62.451C555.93,61.82 554.63,60.851 554.79,59.351C555.308,61.29 557.601,61.555 558.6,62.92C559.06,63.561 559.18,64.411 558.95,65.141Z" style="fill:rgb(249,203,25);fill-rule:nonzero;"/>
            <path d="M557.85,65.02C557.62,65.01 557.39,65.01 557.18,65.02C557.481,63.313 554.609,62.88 554.65,60.931C555.03,61.63 555.72,62.28 556.74,62.88C557.7,63.451 558.12,64.27 557.85,65.02Z" style="fill:rgb(249,203,25);fill-rule:nonzero;"/>
            <path d="M556.66,65.05C556.48,65.061 556.29,65.081 556.12,65.101C555.46,64.661 554.856,63.241 554.63,62.391C555.446,63.505 556.959,64.037 556.66,65.05Z" style="fill:rgb(249,203,25);fill-rule:nonzero;"/>
            <path d="M566.6,52.491C565.1,53.411 563.71,54.5 562.48,55.75C559.899,56.054 557.299,58.067 556.55,60.94C556.09,60.65 555.66,60.331 555.35,59.911C554.98,59.42 554.86,58.79 555.04,58.32C557.91,55.121 561.76,52.82 565.96,51.82C566.16,52.081 566.37,52.3 566.6,52.491Z" style="fill:rgb(201,49,18);fill-rule:nonzero;"/>
            <path d="M556.05,53.451C556.166,52.677 556.069,52.193 555.88,51.681L556.34,51.491C556.613,52.159 556.656,52.9 556.54,53.54L556.05,53.451ZM554.98,55.871L554.7,55.46C555.077,55.209 555.381,54.894 555.59,54.57L556.01,54.84C555.717,55.281 555.323,55.647 554.98,55.871ZM552.99,54.991C551.81,54.991 550.86,54.031 550.86,52.852L551.357,52.852C551.357,53.762 552.09,54.491 552.99,54.491C553.89,54.491 554.62,53.762 554.62,52.852L555.122,52.852C555.122,54.031 554.17,54.991 552.99,54.991ZM552.3,56.4L552.39,55.911C552.79,55.991 553.19,55.991 553.58,55.911L553.68,56.4C553.25,56.494 552.73,56.494 552.3,56.4ZM551,55.871C550.605,55.614 550.218,55.241 549.97,54.84L550.39,54.57C550.601,54.896 550.904,55.21 551.28,55.46L551,55.871ZM549.93,53.451L549.44,53.54C549.325,52.908 549.364,52.165 549.64,51.491L550.1,51.681C549.934,52.133 549.783,52.716 549.93,53.451ZM552.83,46.221L553.15,46.221C553.98,46.92 555.12,48.141 555.83,49.911L555.36,50.09C554.74,48.53 553.76,47.42 552.99,46.741C552.22,47.42 551.24,48.53 550.62,50.09L550.15,49.911C550.86,48.141 552,46.92 552.83,46.221ZM552.99,44.701C552.24,45.201 548.397,48.031 548.397,53.302C548.397,55.731 550.41,57.621 552.99,57.621C555.57,57.621 557.58,55.73 557.58,53.3C557.58,48.02 553.74,45.201 552.99,44.701Z" style="fill:rgb(249,203,25);fill-rule:nonzero;"/>
            <path d="M563.48,49.55C561.54,50.25 559.71,51.23 558.04,52.44C558,51.931 557.93,51.431 557.82,50.96L561.38,45.641C561.85,47.27 562.67,48.581 563.48,49.55Z" style="fill:rgb(35,75,194);fill-rule:nonzero;"/>
            <path d="M562.21,44.98L558.66,50.311C558.18,48.67 557.37,47.371 556.56,46.391C558.5,45.69 560.32,44.721 561.99,43.5C562.03,44.02 562.11,44.51 562.21,44.98Z" style="fill:rgb(201,49,18);fill-rule:nonzero;"/>
            <path d="M570.39,44.451L569.93,44.26C570.121,43.831 570.234,43.14 570.1,42.5L570.59,42.4C570.722,43.004 570.678,43.747 570.39,44.451ZM567.21,49.73L566.88,49.73C566.05,49.02 564.91,47.811 564.21,46.04L564.67,45.851C565.29,47.411 566.28,48.52 567.04,49.21C567.81,48.52 568.79,47.42 569.42,45.851L569.88,46.04C569.17,47.811 568.04,49.02 567.21,49.73ZM563.7,44.451C563.414,43.751 563.368,43.009 563.5,42.4L563.99,42.5C563.856,43.133 563.969,43.829 564.16,44.26L563.7,44.451ZM565.06,40.07L565.33,40.491C565,40.704 564.687,41.011 564.44,41.38L564.03,41.101C564.285,40.708 564.656,40.32 565.06,40.07ZM567.04,40.96C568.22,40.96 569.18,41.911 569.18,43.091L568.68,43.091C568.68,42.19 567.95,41.46 567.04,41.46C566.14,41.46 565.41,42.19 565.41,43.091L564.91,43.091C564.91,41.911 565.87,40.96 567.04,40.96ZM567.74,39.54L567.64,40.03C567.25,39.96 566.84,39.96 566.45,40.03L566.35,39.54C566.81,39.46 567.28,39.46 567.74,39.54ZM569.03,40.07C569.438,40.343 569.769,40.652 570.06,41.101L569.65,41.38C569.401,41.008 569.088,40.703 568.76,40.491L569.03,40.07ZM567.04,38.32C564.47,38.32 562.45,40.221 562.45,42.641C562.45,47.931 566.29,50.741 567.04,51.241C567.8,50.741 571.64,47.922 571.64,42.642C571.64,40.222 569.62,38.32 567.04,38.32Z" style="fill:rgb(249,203,25);fill-rule:nonzero;"/>
            <path d="M565,37.621C562.12,40.831 558.28,43.13 554.08,44.121C553.88,43.86 553.66,43.641 553.43,43.46C554.94,42.53 556.33,41.44 557.56,40.19C560.178,39.882 562.742,37.841 563.48,35.01C563.94,35.29 564.38,35.61 564.69,36.03C565.06,36.53 565.17,37.15 565,37.621Z" style="fill:rgb(35,75,194);fill-rule:nonzero;"/>
            <path d="M556.8,40.23C555.64,41.34 554.36,42.331 552.98,43.15C552.71,43.01 552.42,42.9 552.11,42.84C553.484,41.983 554.593,41.11 555.69,40.061C556.04,40.161 556.41,40.221 556.8,40.23Z" style="fill:rgb(201,49,18);fill-rule:nonzero;"/>
            <path d="M551.25,40.42L551.25,43.971L550.13,43.971L550.13,40.42C550.526,40.553 550.846,40.555 551.25,40.42Z" style="fill:rgb(249,203,25);fill-rule:nonzero;"/>
            <path d="M552.7,36.221C552.68,36.411 552.61,36.681 552.49,37.03C552.29,37.61 551.84,38.11 551.3,38.36L551.5,38.811C551.65,38.75 551.78,38.661 551.92,38.57C552.039,39.405 551.405,40.02 550.69,40.02C549.979,40.02 549.34,39.41 549.46,38.57C549.59,38.661 549.73,38.75 549.87,38.811L550.08,38.36C549.231,37.968 548.823,37.138 548.67,36.221C548.81,36.36 549.04,36.63 549.39,37.161L549.85,37.061C549.98,36.34 550.27,35.65 550.69,35.05C551.11,35.65 551.4,36.34 551.53,37.061L551.98,37.161C552.34,36.63 552.57,36.36 552.7,36.221Z" style="fill:rgb(249,203,25);fill-rule:nonzero;"/>
            <path d="M565.41,33.561C564.549,32.394 563.074,31.894 563.37,30.891C563.56,30.88 563.74,30.86 563.91,30.84C564.568,31.28 565.185,32.713 565.41,33.561Z" style="fill:rgb(249,203,25);fill-rule:nonzero;"/>
            <path d="M565.39,35.01C565,34.32 564.31,33.67 563.3,33.07C562.33,32.491 561.91,31.67 562.19,30.911C562.679,30.948 562.659,30.92 562.86,30.92C562.544,32.602 565.41,33.086 565.39,35.01Z" style="fill:rgb(249,203,25);fill-rule:nonzero;"/>
            <path d="M565.24,36.601C564.719,34.646 562.459,34.412 561.44,33.02C560.97,32.391 560.85,31.54 561.08,30.8C561.29,30.84 561.49,30.86 561.68,30.88C561.4,31.84 561.9,32.82 563.04,33.5C564.1,34.121 565.4,35.101 565.24,36.601Z" style="fill:rgb(249,203,25);fill-rule:nonzero;"/>
            <path d="M565.88,28.15C565.095,28.999 564.886,29.636 564.67,30.28C561.878,30.746 560.039,30.118 557.79,29.05C557.71,28.11 557.3,27.13 557.05,26.621C557.164,26.621 558.17,26.567 559.21,27.331C559.08,27.52 558.95,27.71 558.85,27.94L559.3,28.15C559.82,27.02 560.63,26.311 561.78,26C562.67,26.79 563.08,27.78 563.05,29.02L563.55,29.03C563.55,28.79 563.52,28.561 563.49,28.331C564.28,28 565.06,27.931 565.88,28.15Z" style="fill:rgb(249,203,25);fill-rule:nonzero;"/>
            <path d="M564.449,51.175L564.305,50.696L563.825,50.84L563.969,51.319L564.449,51.175ZM560.811,52.813L560.552,52.385C560.3,52.537 560.387,52.484 560.122,52.644L560.381,53.072L560.811,52.813ZM563.204,51.627L563.007,51.167C562.718,51.291 562.824,51.246 562.546,51.364L562.742,51.824L563.204,51.627ZM561.986,52.179L561.759,51.734C561.496,51.868 561.587,51.821 561.312,51.962L561.54,52.407L561.986,52.179ZM559.679,53.535L559.401,53.119L558.984,53.397L559.262,53.813L559.679,53.535ZM569.146,41.377L569.563,41.102C569.3,40.704 568.95,40.347 568.533,40.072L568.258,40.489C568.61,40.722 568.914,41.027 569.146,41.377ZM569.431,44.263L569.895,44.451C570.149,43.822 570.23,43.11 570.093,42.401L569.602,42.496C569.714,43.075 569.662,43.692 569.431,44.263ZM563.487,42.496L562.997,42.401C562.864,43.084 562.931,43.798 563.195,44.451L563.658,44.263C563.434,43.708 563.372,43.093 563.487,42.496ZM564.831,40.489L564.556,40.072C564.155,40.337 563.8,40.688 563.526,41.102L563.943,41.377C564.174,41.029 564.478,40.723 564.831,40.489ZM565.854,39.542L565.949,40.034C566.339,39.958 566.744,39.957 567.14,40.034L567.235,39.542C566.78,39.455 566.311,39.455 565.854,39.542ZM564.411,43.091L564.91,43.091C564.91,42.195 565.636,41.457 566.545,41.457C567.44,41.457 568.179,42.181 568.179,43.091L568.68,43.091C568.679,41.912 567.724,40.957 566.545,40.957C565.366,40.957 564.411,41.912 564.411,43.091ZM566.545,49.207C565.802,48.543 564.801,47.43 564.171,45.851L563.706,46.037C564.426,47.835 565.589,49.053 566.383,49.729L566.707,49.729C567.5,49.053 568.664,47.835 569.383,46.037L568.919,45.851C568.288,47.43 567.287,48.543 566.545,49.207ZM561.708,64.185C561.847,64.18 561.955,64.065 561.951,63.927C561.947,63.794 561.943,63.662 561.938,63.529C561.935,63.391 561.819,63.283 561.682,63.287C561.543,63.291 561.435,63.406 561.439,63.544C561.443,63.677 561.447,63.81 561.451,63.942C561.455,64.08 561.57,64.188 561.708,64.185ZM556.217,45.091L556.051,44.619L555.578,44.785L555.743,45.257L556.217,45.091ZM557.488,44.581L557.292,44.121L556.831,44.318L557.027,44.778C557.315,44.655 557.211,44.7 557.488,44.581ZM558.723,43.983L558.494,43.538L558.048,43.767L558.275,44.212C558.555,44.069 558.453,44.121 558.723,43.983ZM559.912,43.302L559.654,42.873L559.224,43.132L559.482,43.561C559.75,43.399 559.654,43.457 559.912,43.302ZM561.05,42.548L560.772,42.132L560.355,42.41L560.633,42.826L561.05,42.548ZM550.889,54.568L550.471,54.843C550.735,55.244 551.086,55.6 551.501,55.873L551.776,55.456C551.425,55.224 551.12,54.918 550.889,54.568ZM550.604,51.683L550.14,51.495C549.877,52.143 549.809,52.858 549.941,53.545L550.433,53.45C550.32,52.869 550.372,52.253 550.604,51.683ZM556.547,53.45L557.038,53.545C557.171,52.854 557.102,52.142 556.839,51.495L556.376,51.683C556.601,52.238 556.662,52.852 556.547,53.45ZM555.203,55.456L555.479,55.873C555.876,55.611 556.232,55.261 556.508,54.843L556.091,54.568C555.86,54.918 555.555,55.224 555.203,55.456ZM554.18,56.403L554.085,55.912C553.701,55.986 553.297,55.99 552.895,55.912L552.8,56.403C553.246,56.489 553.715,56.493 554.18,56.403ZM555.624,52.852L555.122,52.852C555.121,53.748 554.399,54.488 553.489,54.489C552.594,54.488 551.856,53.761 551.855,52.852L551.357,52.852C551.358,54.03 552.311,54.988 553.489,54.989C554.668,54.988 555.623,54.03 555.624,52.852ZM553.489,46.739C554.232,47.402 555.233,48.515 555.863,50.094L556.328,49.909C555.608,48.11 554.445,46.893 553.651,46.217L553.327,46.217C552.534,46.893 551.37,48.11 550.651,49.909L551.116,50.094C551.746,48.515 552.747,47.402 553.489,46.739ZM571.609,59.725C571.575,59.472 571.482,59.16 571.397,58.917C571.195,58.338 570.744,57.834 570.203,57.588L570.41,57.134C570.557,57.201 570.695,57.282 570.826,57.374C570.957,56.617 570.367,55.922 569.596,55.922C568.829,55.922 568.233,56.611 568.364,57.374C568.495,57.282 568.634,57.201 568.78,57.134L568.987,57.588C568.446,57.834 567.995,58.338 567.793,58.917C567.708,59.158 567.616,59.47 567.583,59.721C567.817,59.482 568.111,59.064 568.3,58.785L568.753,58.881C568.882,59.603 569.173,60.297 569.596,60.897C570.018,60.297 570.309,59.603 570.438,58.881L570.891,58.785C571.081,59.066 571.373,59.483 571.609,59.725ZM569.034,51.973L569.034,55.516C569.403,55.391 569.788,55.391 570.156,55.516L570.156,51.973L569.034,51.973ZM568.784,51.473L570.406,51.473L570.656,51.723L570.656,52.1C570.914,52.07 571.343,51.976 571.495,51.768L571.486,51.561C571.218,51.225 570.318,51.182 569.888,51.181C569.75,51.181 569.639,51.068 569.639,50.93C569.639,50.792 569.751,50.681 569.89,50.681C570.414,50.682 571.149,50.735 571.596,51.009C571.694,50.861 571.646,50.709 571.515,50.586C571.189,50.283 570.563,50.227 570.117,50.209C569.979,50.204 569.872,50.088 569.877,49.95C569.883,49.812 569.999,49.705 570.137,49.71C570.349,49.718 570.589,49.737 570.823,49.775C571.237,49.845 571.438,49.935 571.627,50.051C571.715,49.811 571.483,49.634 571.254,49.519C571.031,49.406 570.687,49.334 570.439,49.298C570.303,49.278 570.209,49.151 570.229,49.015C570.248,48.878 570.375,48.784 570.512,48.804C570.805,48.846 571.142,48.92 571.414,49.042L571.366,48.735C571.107,48.419 570.467,48.295 570.053,48.269C569.202,49.646 568.036,50.834 566.906,51.604C567.332,52.133 567.861,52.512 568.534,52.62L568.534,51.723L568.784,51.473ZM568.399,53.104C568.088,53.048 567.8,52.943 567.538,52.799C566.159,53.626 564.88,54.603 563.733,55.704C564.122,55.713 564.499,55.769 564.854,55.875C565.889,54.878 567.052,53.951 568.399,53.104ZM561.599,60.299C561.84,60.782 561.671,61.354 562.436,61.704C562.569,61.764 562.702,61.825 562.836,61.885C563.774,61.474 563.118,60.566 561.599,60.299ZM557.482,61.204C558.138,61.599 558.794,62.004 559.25,62.627C559.785,63.361 559.973,64.346 559.713,65.237C560.617,65.436 561.391,65.725 562.166,66.071L562.282,65.872C562.308,65.764 562.354,65.525 562.304,65.427L562.265,65.389L562.012,65.327C561.283,65.236 561.446,65.288 560.714,65.016C560.584,64.968 560.518,64.824 560.566,64.694C560.614,64.565 560.758,64.499 560.888,64.547L561.277,64.692C561.681,64.841 562.1,64.786 562.412,64.907C562.41,63.907 562.408,63.491 563.204,62.602C562.879,62.455 562.229,62.159 562.229,62.159C561.162,61.674 561.346,60.769 561.116,60.463C560.958,60.248 560.652,60.166 560.424,60.24C560.18,60.318 559.992,60.575 559.993,60.831C559.993,60.998 560.07,61.138 560.198,61.249L559.869,61.626C559.059,60.919 559.669,59.664 560.662,59.716C561.553,59.728 562.661,59.909 563.325,60.51C563.896,60.207 564.052,59.535 564.021,58.887C563.966,57.745 564.517,57.181 565.585,56.78C563.304,55.123 558.44,57.153 557.482,61.204ZM560.95,66.116C559.946,65.757 559.374,65.69 559.297,65.663C558.011,65.423 557.102,65.512 555.864,65.662C555.67,66.461 555.209,67.19 554.653,67.795C555.453,68.008 556.231,67.961 557.019,67.63C556.99,67.374 556.982,67.144 556.988,66.91L557.488,66.924C557.454,68.175 557.875,69.16 558.758,69.944C559.873,69.638 560.699,68.957 561.232,67.797L561.687,68.006C561.584,68.229 561.469,68.44 561.342,68.639C561.999,69.113 562.718,69.329 563.484,69.324C563.127,68.592 562.803,67.7 562.733,66.885C562.142,66.605 561.553,66.332 560.95,66.116ZM556.363,65.099C556.541,65.079 556.727,65.061 556.919,65.046C557.214,64.039 555.704,63.515 554.881,62.407C555.062,63.105 555.343,63.744 555.66,64.259C555.822,64.525 556.105,64.927 556.363,65.099ZM554.761,58.444C554.828,58.341 555.213,57.918 555.293,57.831C554.324,58.162 553.261,58.204 552.301,57.999C553.043,58.62 553.536,59.218 554.179,60.793C554.189,60.014 554.356,59.208 554.761,58.444ZM550.006,56.162C551.655,57.975 554.713,58.104 556.563,56.552L556.826,56.314C557.621,55.528 558.084,54.46 558.084,53.303C558.084,50.812 557.236,48.604 555.747,46.781C554.792,45.613 553.829,44.924 553.489,44.701C551.941,45.721 550.437,47.483 549.634,49.458C549.19,50.548 548.896,51.826 548.896,53.303C548.896,54.398 549.313,55.404 550.006,56.162ZM549.981,47.676C550.831,46.301 551.995,45.114 553.128,44.341C552.702,43.813 552.173,43.433 551.5,43.326L551.5,44.223L551.25,44.473L549.628,44.473L549.378,44.223L549.378,43.846C549.122,43.875 548.691,43.969 548.539,44.178L548.548,44.384C548.816,44.72 549.714,44.764 550.146,44.765C550.284,44.765 550.396,44.877 550.396,45.015C550.396,45.153 550.283,45.265 550.146,45.265C549.62,45.263 548.885,45.21 548.438,44.937C548.339,45.085 548.39,45.237 548.521,45.359C548.845,45.663 549.472,45.719 549.917,45.736C550.055,45.741 550.162,45.857 550.157,45.996C550.152,46.133 550.036,46.241 549.897,46.235C549.686,46.227 549.445,46.208 549.211,46.17C548.797,46.101 548.597,46.01 548.407,45.894C548.319,46.135 548.551,46.311 548.78,46.426C549.003,46.539 549.348,46.611 549.595,46.647C549.731,46.667 549.826,46.794 549.806,46.931C549.786,47.067 549.659,47.162 549.522,47.142C549.229,47.099 548.893,47.025 548.62,46.903L548.668,47.21C548.927,47.527 549.568,47.65 549.981,47.676ZM549.878,40.43L549.878,43.973L551,43.973L551,40.43C550.617,40.559 550.232,40.55 549.878,40.43ZM550.439,40.023C551.208,40.023 551.801,39.331 551.67,38.572C551.539,38.664 551.4,38.745 551.254,38.812L551.047,38.357C551.589,38.111 552.039,37.607 552.241,37.028C552.326,36.788 552.418,36.477 552.451,36.224C552.217,36.462 551.922,36.882 551.734,37.16L551.281,37.064C551.152,36.342 550.861,35.648 550.439,35.048C550.017,35.648 549.726,36.342 549.597,37.064L549.144,37.16C548.954,36.88 548.661,36.462 548.425,36.221C548.46,36.474 548.552,36.788 548.637,37.028C548.839,37.607 549.29,38.111 549.831,38.357L549.624,38.811C549.478,38.745 549.339,38.664 549.208,38.572C549.078,39.33 549.668,40.023 550.439,40.023ZM551.636,42.842C551.947,42.898 552.234,43.003 552.496,43.146C553.875,42.319 555.154,41.342 556.302,40.242C555.912,40.232 555.535,40.176 555.18,40.07C554.148,41.065 552.985,41.993 551.636,42.842ZM557.377,35.298C557.641,35.444 557.994,35.569 558.436,35.647C558.194,35.163 558.364,34.591 557.599,34.242C557.465,34.182 557.332,34.121 557.198,34.06C556.499,34.367 556.704,34.926 557.377,35.298ZM562.553,34.742C561.896,34.347 561.24,33.942 560.785,33.318C560.248,32.584 560.062,31.599 560.321,30.709C559.415,30.509 558.643,30.22 557.868,29.874L557.752,30.073C557.728,30.181 557.681,30.42 557.731,30.519L557.77,30.557L558.022,30.618C558.751,30.709 558.588,30.658 559.321,30.93C559.45,30.978 559.517,31.122 559.469,31.251C559.42,31.38 559.276,31.447 559.147,31.398L558.757,31.254C558.355,31.104 557.934,31.159 557.622,31.039C557.624,32.043 557.623,32.458 556.83,33.343C557.155,33.491 557.806,33.787 557.806,33.787C558.873,34.271 558.688,35.177 558.918,35.482C559.075,35.697 559.381,35.78 559.61,35.706C559.855,35.628 560.042,35.371 560.041,35.115C560.041,34.946 559.963,34.807 559.837,34.696L560.165,34.32C560.977,35.026 560.365,36.282 559.373,36.229C558.48,36.218 557.373,36.036 556.71,35.436C556.139,35.739 555.981,36.413 556.014,37.059C556.067,38.205 555.513,38.767 554.449,39.166C556.747,40.834 561.598,38.774 562.553,34.742ZM559.084,29.83C560.088,30.188 560.66,30.255 560.737,30.283C562.023,30.522 562.933,30.434 564.17,30.283C564.365,29.482 564.828,28.752 565.381,28.15C564.585,27.939 563.806,27.982 563.016,28.315C563.044,28.567 563.052,28.796 563.046,29.035L562.546,29.021C562.581,27.771 562.159,26.785 561.277,26.001C560.159,26.308 559.334,26.991 558.803,28.148L558.348,27.939C558.45,27.717 558.565,27.505 558.692,27.307C558.035,26.832 557.328,26.621 556.55,26.621C556.907,27.352 557.231,28.245 557.301,29.061C557.893,29.341 558.481,29.614 559.084,29.83ZM563.671,30.846C563.493,30.866 563.308,30.884 563.115,30.899C562.82,31.906 564.327,32.427 565.153,33.539C565.047,33.128 564.902,32.715 564.7,32.289C564.487,31.849 564.077,31.117 563.671,30.846ZM565.274,37.502C565.208,37.602 564.821,38.027 564.741,38.115C565.708,37.784 566.771,37.741 567.733,37.946C566.782,37.152 566.358,36.384 565.855,35.152C565.845,35.931 565.679,36.738 565.274,37.502ZM556.078,46.399C557.038,47.554 557.75,48.863 558.165,50.3L561.703,44.994C561.601,44.528 561.525,44.038 561.484,43.522C559.828,44.726 558.003,45.699 556.078,46.399ZM554.094,44.514C554.643,44.917 555.202,45.418 555.727,45.993C557.775,45.269 559.714,44.228 561.454,42.923C561.436,42.186 561.511,41.519 561.841,40.758C559.539,42.502 556.892,43.793 554.094,44.514ZM558.581,53.022C558.599,53.774 558.52,54.438 558.193,55.187C560.496,53.443 563.143,52.153 565.94,51.432C565.392,51.028 564.832,50.527 564.309,49.952C562.259,50.677 560.32,51.717 558.581,53.022ZM563.956,49.547C562.993,48.387 562.283,47.077 561.869,45.645L558.331,50.952C558.435,51.418 558.509,51.908 558.55,52.423C560.206,51.219 562.031,50.247 563.956,49.547ZM563,35.016C562.249,37.872 559.627,39.901 557.051,40.205C555.828,41.441 554.448,42.534 552.95,43.455C553.19,43.649 553.404,43.875 553.593,44.123C557.019,43.309 560.234,41.616 562.862,39.27C562.999,39.135 563.61,38.627 564.492,37.645C564.704,37.119 564.52,36.477 564.189,36.033C563.877,35.612 563.442,35.296 563,35.016ZM562.596,30.927C562.376,30.933 562.175,30.933 561.932,30.922C561.765,31.384 561.857,31.842 562.131,32.248C562.633,32.993 563.276,33.074 564.218,33.89C564.568,34.194 564.904,34.56 565.146,34.996C565.175,33.093 562.302,32.619 562.596,30.927ZM561.419,30.886C561.224,30.866 561.022,30.839 560.814,30.805C560.578,31.558 560.735,32.405 561.188,33.023C562.167,34.363 564.468,34.688 564.995,36.56C565.121,35.178 563.994,34.207 562.794,33.499C561.814,32.92 561.113,31.968 561.419,30.886ZM557.034,60.929C557.785,58.073 560.407,56.044 562.984,55.741C564.206,54.504 565.586,53.412 567.084,52.491C566.844,52.296 566.63,52.07 566.441,51.823C563.016,52.637 559.8,54.329 557.172,56.675C557.036,56.809 556.412,57.332 555.542,58.3C555.331,58.824 555.515,59.468 555.845,59.912C556.157,60.333 556.592,60.649 557.034,60.929ZM557.438,65.019C557.658,65.013 557.86,65.013 558.103,65.023C558.271,64.561 558.177,64.103 557.903,63.697C557.402,62.954 556.756,62.87 555.816,62.056C555.466,61.751 555.13,61.386 554.889,60.95C554.859,62.852 557.732,63.326 557.438,65.019ZM558.616,65.06C558.811,65.08 559.012,65.106 559.22,65.141C559.456,64.386 559.298,63.539 558.846,62.922C557.868,61.584 555.566,61.257 555.039,59.386C554.913,60.769 556.044,61.741 557.24,62.446C558.225,63.028 558.92,63.98 558.616,65.06ZM570.028,39.784C568.38,37.966 565.315,37.847 563.471,39.393L563.208,39.631C562.413,40.418 561.95,41.486 561.95,42.643C561.95,45.138 562.801,47.346 564.287,49.164C565.242,50.332 566.206,51.021 566.545,51.245C568.101,50.219 569.601,48.455 570.4,46.487C570.844,45.397 571.139,44.119 571.14,42.643C571.139,41.547 570.722,40.541 570.028,39.784ZM571.869,58.751C571.979,59.066 572.121,59.547 572.122,59.882C572.122,60.351 571.785,60.484 571.461,60.258C571.232,60.096 570.97,59.756 570.798,59.523C570.595,60.23 570.252,60.896 569.79,61.47L569.4,61.47C568.938,60.896 568.596,60.229 568.393,59.522C568.11,59.905 567.616,60.576 567.239,60.297C567.104,60.201 567.072,60.04 567.07,59.874C567.071,59.542 567.211,59.066 567.321,58.751C567.455,58.374 567.669,58.027 567.942,57.739C567.689,57.014 567.944,56.234 568.534,55.783C568.533,55.772 568.534,55.833 568.534,53.609C567.383,54.344 566.341,55.16 565.371,56.073C565.698,56.229 565.998,56.437 566.257,56.698L566.155,57.112C565.842,57.212 565.569,57.313 565.347,57.427C564.742,57.734 564.485,58.127 564.521,58.863C564.56,59.679 564.337,60.479 563.643,60.904C563.874,61.332 563.798,61.804 563.386,62.135C563.499,62.187 563.612,62.238 563.726,62.29L563.804,62.689C562.855,63.696 562.912,63.913 562.912,64.934C562.911,65.403 562.888,65.892 562.629,66.283C562.779,66.353 562.929,66.424 563.078,66.495L563.221,66.71C563.257,67.555 563.69,68.705 564.104,69.433L563.908,69.805C562.804,69.902 561.861,69.63 561.049,69.044C560.442,69.792 559.658,70.243 558.752,70.463L558.532,70.412C557.756,69.762 557.303,68.997 557.104,68.134C556.156,68.505 555.16,68.533 554.102,68.146L554.021,67.724C554.6,67.192 555.182,66.356 555.372,65.572L555.421,65.375C555.444,65.277 555.527,65.199 555.634,65.186L555.712,65.177C554.449,63.762 553.961,60.876 552.873,59.332C551.949,58.017 550.554,57.607 549.489,56.33C548.779,55.476 548.397,54.412 548.397,53.302C548.397,51.516 548.809,49.782 549.705,48.151C549.2,48.088 548.603,47.918 548.281,47.527C548.096,47.299 548.042,46.958 548.164,46.697L548.18,46.621C547.825,46.292 547.814,45.857 548.026,45.546C547.812,45.226 547.855,44.843 548.081,44.582C547.951,44.343 547.982,44.085 548.14,43.878C548.403,43.526 548.938,43.387 549.378,43.343C549.378,40.112 549.377,40.173 549.378,40.163C548.789,39.712 548.533,38.933 548.786,38.207C548.44,37.841 548.177,37.399 547.988,36.597C547.913,36.274 547.827,35.825 548.08,35.643C548.171,35.575 548.3,35.555 548.441,35.614C548.717,35.728 549.058,36.18 549.236,36.422C549.44,35.715 549.782,35.049 550.244,34.476L550.634,34.476C551.096,35.049 551.438,35.716 551.642,36.423C551.798,36.211 552.008,35.94 552.207,35.767C552.319,35.671 552.447,35.585 552.596,35.584C552.725,35.582 552.85,35.657 552.912,35.792C553.011,36.011 552.947,36.348 552.889,36.601C552.702,37.395 552.439,37.839 552.092,38.207C552.346,38.933 552.089,39.712 551.5,40.163C551.501,40.173 551.5,40.112 551.5,42.336C552.652,41.602 553.692,40.787 554.663,39.872C554.336,39.716 554.037,39.509 553.777,39.248L553.879,38.833C554.325,38.692 554.899,38.488 555.212,38.138C555.586,37.718 555.51,37.201 555.51,36.9C555.509,36.147 555.754,35.431 556.392,35.042C556.161,34.616 556.235,34.143 556.648,33.81C556.535,33.758 556.422,33.707 556.309,33.655L556.23,33.256C556.418,33.057 556.603,32.857 556.752,32.651C557.087,32.187 557.125,31.891 557.124,31.341C557.124,30.755 557.089,30.141 557.405,29.662C557.255,29.592 557.105,29.521 556.956,29.451L556.813,29.235C556.776,28.364 556.319,27.198 555.931,26.513L556.126,26.14C557.203,26.045 558.152,26.3 558.985,26.901C559.565,26.186 560.331,25.713 561.282,25.482L561.502,25.534C562.279,26.185 562.731,26.951 562.93,27.811C563.882,27.438 564.878,27.415 565.933,27.8L566.014,28.221C565.438,28.751 564.854,29.586 564.662,30.374L564.613,30.57C564.59,30.668 564.507,30.747 564.4,30.759L564.322,30.769C565.586,32.186 566.073,35.069 567.161,36.613C568.075,37.915 569.464,38.341 570.511,39.576C571.249,40.441 571.64,41.524 571.64,42.642C571.64,44.431 571.224,46.167 570.329,47.794C571.06,47.886 571.933,48.205 571.936,48.94C571.936,49.069 571.906,49.196 571.836,49.31C572.2,49.634 572.231,50.07 572.008,50.399C572.221,50.717 572.182,51.099 571.953,51.363C572.125,51.68 572.039,52.084 571.553,52.353C571.321,52.48 571.021,52.566 570.656,52.602C570.656,55.812 570.657,55.772 570.656,55.783C571.244,56.232 571.502,57.011 571.248,57.739C571.521,58.027 571.736,58.374 571.869,58.751ZM558.583,32.003L558.596,32.401C558.6,32.539 558.491,32.654 558.353,32.659C558.215,32.663 558.1,32.554 558.096,32.416C558.092,32.284 558.088,32.151 558.083,32.019C558.079,31.88 558.188,31.765 558.326,31.761C558.464,31.757 558.579,31.865 558.583,32.003Z" style="fill:rgb(31,31,31);fill-rule:nonzero;"/>
        </g>
    </g>
</svg>
