<?xml version="1.0" encoding="UTF-8" standalone="no"?>
<!DOCTYPE svg PUBLIC "-//W3C//DTD SVG 1.1//EN" "http://www.w3.org/Graphics/SVG/1.1/DTD/svg11.dtd">
<svg width="100%" height="100%" viewBox="0 0 40 56" version="1.1" xmlns="http://www.w3.org/2000/svg" xmlns:xlink="http://www.w3.org/1999/xlink" xml:space="preserve" xmlns:serif="http://www.serif.com/" style="fill-rule:evenodd;clip-rule:evenodd;stroke-linejoin:round;stroke-miterlimit:2;">
    <g transform="matrix(1,0,0,1,-540,-200)">
        <g>
            <path d="M577.5,256L542.5,256C541.119,256 540,254.881 540,253.5L540,202.5C540,201.119 541.119,200 542.5,200L577.5,200C578.881,200 580,201.119 580,202.5L580,253.5C580,254.881 578.881,256 577.5,256Z" style="fill:white;fill-rule:nonzero;"/>
            <path d="M577.5,256L542.5,256C541.119,256 540,254.881 540,253.5L540,202.5C540,201.119 541.119,200 542.5,200L577.5,200C578.881,200 580,201.119 580,202.5L580,253.5C580,254.881 578.881,256 577.5,256ZM577.5,255.8L542.5,255.8C541.229,255.8 540.2,254.771 540.2,253.5L540.2,202.5C540.2,201.229 541.229,200.2 542.5,200.2L577.5,200.2C578.771,200.2 579.8,201.229 579.8,202.5C579.8,202.5 579.8,253.5 579.8,253.5C579.8,254.771 578.771,255.8 577.5,255.8Z" style="fill:rgb(204,204,204);"/>
            <path d="M546,213.375C545.55,212.673 544.952,212.075 544.25,211.625C544.952,211.175 545.55,210.577 546,209.875C546.45,210.577 547.048,211.175 547.75,211.625C547.048,212.075 546.45,212.673 546,213.375Z" style="fill:rgb(201,49,18);fill-rule:nonzero;"/>
            <path d="M574,241.875C574.45,242.577 575.048,243.175 575.75,243.625C575.048,244.075 574.45,244.673 574,245.375C573.55,244.673 572.952,244.075 572.25,243.625C572.952,243.175 573.55,242.577 574,241.875Z" style="fill:rgb(201,49,18);fill-rule:nonzero;"/>
            <path d="M546.016,207.788L546.016,208.125L543.982,208.125L543.982,207.788L544.437,207.7L544.548,207.644L544.588,207.529L544.588,204.195L544.55,204.077L544.439,204.018L543.982,203.927L543.982,203.581L545.993,203.581L545.993,203.927L545.53,204.018L545.423,204.077L545.385,204.195L545.385,206.024L547.096,204.026L546.571,203.927L546.571,203.581L548.221,203.581L548.221,203.927L547.79,204.018L547.688,204.054L547.602,204.119L546.473,205.376C546.575,205.496 546.673,205.628 546.764,205.771C546.854,205.915 546.959,206.089 547.078,206.292L547.782,207.494L547.89,207.638L548.044,207.712L548.352,207.788L548.352,208.125L547.308,208.125C547.235,208.125 547.16,208.069 547.079,207.958C546.999,207.846 546.908,207.695 546.808,207.505C546.808,207.505 546.2,206.357 546.14,206.249C546.078,206.14 546.018,206.041 545.958,205.952L545.385,206.601L545.385,207.535L545.426,207.649L545.539,207.703L546.016,207.788Z" style="fill:rgb(201,49,18);fill-rule:nonzero;"/>
            <path d="M573.98,247.463L573.98,247.125L576.014,247.125L576.014,247.463L575.561,247.55L575.448,247.606L575.408,247.721L575.408,251.055L575.447,251.173L575.557,251.232L576.014,251.322L576.014,251.669L574.004,251.669L574.004,251.322L574.467,251.232L574.574,251.173L574.611,251.055L574.611,249.226L572.9,251.225L573.425,251.322L573.425,251.669L571.775,251.669L571.775,251.322L572.206,251.232L572.309,251.196L572.395,251.131L573.523,249.874C573.421,249.754 573.324,249.622 573.232,249.479C573.142,249.335 573.037,249.161 572.918,248.957L572.215,247.756L572.107,247.612L571.953,247.538L571.645,247.463L571.645,247.125L572.689,247.125C572.761,247.125 572.836,247.181 572.917,247.293C572.998,247.404 573.088,247.555 573.189,247.744C573.189,247.744 573.796,248.893 573.857,249.002C573.918,249.109 573.979,249.209 574.039,249.298L574.611,248.649L574.611,247.715L574.57,247.601L574.457,247.547L573.98,247.463Z" style="fill:rgb(201,49,18);fill-rule:nonzero;"/>
            <path d="M570.501,212.999C569.601,211.594 568.405,210.399 567.001,209.499C568.405,208.599 569.601,207.403 570.501,205.999C571.401,207.403 572.597,208.599 574.001,209.499C572.597,210.399 571.401,211.594 570.501,212.999Z" style="fill:rgb(201,49,18);fill-rule:nonzero;"/>
            <path d="M553.001,246.501C551.597,247.401 550.401,248.597 549.501,250.001C548.602,248.597 547.405,247.401 546.001,246.501C547.405,245.602 548.602,244.405 549.501,243.001C550.401,244.405 551.597,245.602 553.001,246.501Z" style="fill:rgb(201,49,18);fill-rule:nonzero;"/>
            <path d="M544.001,216L544.001,251.75L544.251,252L569.001,252L569.001,251.5L544.501,251.5L544.501,216L544.001,216ZM576.001,240L575.501,240L575.501,204.5L551.001,204.5L551.001,204L575.751,204L576.001,204.25L576.001,240Z" style="fill:rgb(31,31,31);fill-rule:nonzero;"/>
            <path d="M569.35,232.48C569.35,232.359 569.456,232.24 569.61,232.24C569.676,232.24 569.771,232.242 569.87,232.246L569.87,231.769C569.777,231.765 569.685,231.76 569.6,231.76C569.271,231.76 569.264,231.26 569.61,231.26C569.676,231.26 569.771,231.263 569.87,231.267L569.87,230.824C569.776,230.816 569.683,230.81 569.6,230.81C569.271,230.81 569.264,230.31 569.61,230.31L569.87,230.323L569.87,229.877C569.751,229.857 569.622,229.838 569.48,229.82C569.34,229.8 569.25,229.68 569.26,229.54C569.305,229.251 569.605,229.332 569.87,229.38L569.87,225.6C569.48,225.92 569.09,226.29 568.75,226.69C568.75,235.34 568.688,233.352 568.93,234.08C569,234.29 568.96,234.52 568.82,234.7L568.75,234.75C568.75,237.788 568.781,237.607 568.68,237.81C568.46,238.02 568.24,238.21 568,238.38C568.12,238.47 568.24,238.57 568.35,238.67C568.949,238.285 569.667,238.282 570.27,238.67C570.38,238.57 570.5,238.47 570.62,238.38C570.464,238.27 569.999,237.907 569.92,237.75C569.848,237.605 569.87,238.214 569.87,232.748C569.777,232.744 569.685,232.74 569.6,232.74C569.47,232.74 569.35,232.62 569.35,232.48Z" style="fill:rgb(249,203,25);fill-rule:nonzero;"/>
            <path d="M570.62,241.88C570.12,242.25 569.68,242.69 569.31,243.19C568.95,242.69 568.5,242.25 568,241.88C568.18,241.76 568.33,241.61 568.49,241.46L568.54,241.44C568.54,241.354 568.868,241.193 569.31,240.57C569.452,240.762 569.989,241.39 570.13,241.46C570.29,241.61 570.44,241.75 570.62,241.88Z" style="fill:rgb(249,203,25);fill-rule:nonzero;"/>
            <path d="M562.26,248.29C561.358,247.63 560.65,247.92 560.41,248.77L560.38,248.78C559.925,247.801 558.934,247.789 558.3,248.77C558.05,247.644 557.155,247.331 556.38,248.04L556.37,248.03C556.448,247.188 555.883,246.636 554.85,246.9C555.06,246.52 555.23,246.12 555.34,245.66C556.788,245.563 557.935,245.211 560.45,246.12C561.05,246.33 561.64,246.61 562.21,246.87C562.16,247.37 562.17,247.84 562.26,248.29Z" style="fill:rgb(249,203,25);fill-rule:nonzero;"/>
            <path d="M558.56,245.08C558.35,245.06 558.14,245.04 557.94,245.03C557.89,243.51 557.43,242.36 556.55,241.73C555.601,241.034 553.99,240.886 553.16,241.67C553.482,241.024 554.685,240.71 555.46,240.71C557.46,240.71 558.49,242.19 558.56,245.08Z" style="fill:rgb(249,203,25);fill-rule:nonzero;"/>
            <path d="M557.44,245.02C556.907,245.02 557.052,245.044 557.02,244.98C556.286,244.18 556.086,241.443 553.63,241.94C554.203,241.51 555.428,241.526 556.26,242.13C556.99,242.66 557.39,243.69 557.44,245.02Z" style="fill:rgb(249,203,25);fill-rule:nonzero;"/>
            <path d="M556.48,245.06C556.32,245.08 556.16,245.09 556.01,245.11C554.602,244.284 555.07,242.979 554.02,242.4C555.619,242.289 555.771,244.037 556.48,245.06Z" style="fill:rgb(249,203,25);fill-rule:nonzero;"/>
            <path d="M566.57,234.31C565.49,235.2 564.49,236.21 563.61,237.29C563.4,237.1 563.13,236.95 562.81,236.85C563.907,235.438 564.818,234.576 565.93,233.65C566.11,233.89 566.33,234.11 566.57,234.31Z" style="fill:rgb(249,203,25);fill-rule:nonzero;"/>
            <path d="M565.64,233.23C564.567,234.088 563.323,235.336 562.26,236.72C560.382,236.502 558.022,237.576 557.02,239.52C556.93,238.86 556.71,238.02 556.24,237.12C558.834,234.61 561.889,232.951 565.07,232.06C565.22,232.45 565.4,232.85 565.64,233.23Z" style="fill:rgb(201,49,18);fill-rule:nonzero;"/>
            <path d="M556.58,240.47C555.567,240.032 554.171,240.171 553.24,240.71C553.78,239.75 554.82,238.54 555.87,237.49C556.5,238.78 556.59,239.92 556.58,240.47Z" style="fill:rgb(35,75,194);fill-rule:nonzero;"/>
            <path d="M570.32,224.47C569.15,225.23 567.27,226.73 567.13,228.57C563.104,229.265 559.302,231.146 556.47,233.72C560.24,228.47 565.42,225 570.32,224.47Z" style="fill:rgb(249,203,25);fill-rule:nonzero;"/>
            <path d="M554.57,235.62C553.48,236.83 552.53,238.12 552.37,239.05C548.67,238.84 548.05,233.51 547.96,232.12C550.86,232.86 553.09,234.04 554.57,235.62Z" style="fill:rgb(35,75,194);fill-rule:nonzero;"/>
            <path d="M572.08,223.82C569.17,223.08 566.95,221.9 565.47,220.32C566.55,219.12 567.5,217.82 567.67,216.9C571.36,217.11 571.98,222.44 572.08,223.82Z" style="fill:rgb(201,49,18);fill-rule:nonzero;"/>
            <path d="M563.57,222.22C559.8,227.47 554.62,230.95 549.72,231.47C550.89,230.71 552.76,229.21 552.9,227.37C556.942,226.685 560.751,224.783 563.57,222.22Z" style="fill:rgb(249,203,25);fill-rule:nonzero;"/>
            <path d="M551.68,217.27C551.085,217.674 550.298,217.641 549.77,217.27C549.65,217.37 549.54,217.47 549.42,217.56C549.65,217.74 549.88,217.93 550.09,218.13L550.09,218.14C550.193,218.243 550.16,218.234 550.16,223.201C550.249,223.205 550.336,223.21 550.43,223.21C550.761,223.21 550.762,223.71 550.43,223.71C550.362,223.71 550.264,223.707 550.16,223.703L550.16,224.178C550.249,224.183 550.336,224.188 550.43,224.19C550.765,224.19 550.757,224.69 550.43,224.69C550.362,224.688 550.264,224.684 550.16,224.679L550.16,225.125C550.255,225.133 550.349,225.14 550.43,225.14C550.761,225.14 550.762,225.64 550.43,225.64C550.348,225.64 550.253,225.633 550.16,225.626L550.16,226.063C550.278,226.083 550.407,226.102 550.55,226.12C550.875,226.166 550.823,226.62 550.52,226.62C550.492,226.62 550.26,226.579 550.16,226.57L550.16,230.34C550.55,230.03 550.95,229.66 551.28,229.25C551.28,220.75 551.348,222.552 551.1,221.87C551.03,221.66 551.08,221.42 551.22,221.25L551.28,221.2C551.28,218.285 551.243,218.256 551.36,218.14L551.36,218.13C551.57,217.93 551.79,217.74 552.03,217.56C551.91,217.47 551.8,217.37 551.68,217.27Z" style="fill:rgb(249,203,25);fill-rule:nonzero;"/>
            <path d="M552.03,214.06C551.86,214.19 551.7,214.34 551.55,214.48L551.5,214.5L551.49,214.53C551.21,214.79 550.95,215.06 550.72,215.37C550.315,214.8 549.95,214.58 549.95,214.5L549.9,214.48C549.74,214.34 549.59,214.19 549.42,214.06C549.91,213.7 550.36,213.25 550.72,212.75C551.09,213.25 551.53,213.7 552.03,214.06Z" style="fill:rgb(249,203,25);fill-rule:nonzero;"/>
            <path d="M563.79,218.83C561.213,221.321 558.139,222.987 554.96,223.89C554.82,223.5 554.63,223.09 554.4,222.71C555.618,221.684 556.656,220.673 557.78,219.21C559.719,219.453 562.045,218.325 563.01,216.43C563.1,217.08 563.32,217.92 563.79,218.83Z" style="fill:rgb(35,75,194);fill-rule:nonzero;"/>
            <path d="M557.23,219.09C556.233,220.372 555.229,221.367 554.11,222.3C553.92,222.05 553.71,221.83 553.46,221.64C554.55,220.74 555.55,219.74 556.43,218.65C556.64,218.84 556.92,218.99 557.23,219.09Z" style="fill:rgb(249,203,25);fill-rule:nonzero;"/>
            <path d="M566.8,215.24C566.25,216.2 565.21,217.41 564.17,218.46C563.53,217.17 563.44,216.02 563.45,215.48C564.519,215.908 565.86,215.758 566.8,215.24Z" style="fill:rgb(201,49,18);fill-rule:nonzero;"/>
            <path d="M566.01,213.54C564.471,213.662 564.278,212.021 563.56,210.88C563.72,210.87 563.87,210.85 564.03,210.83C565.422,211.657 564.964,212.985 566.01,213.54Z" style="fill:rgb(249,203,25);fill-rule:nonzero;"/>
            <path d="M566.41,214C565.661,214.518 564.468,214.319 563.77,213.81C563.05,213.29 562.64,212.26 562.6,210.93C562.74,210.93 562.86,210.92 563,210.91C563.156,211.223 563.113,210.938 563.58,212C564.209,213.416 564.817,214.318 566.41,214Z" style="fill:rgb(249,203,25);fill-rule:nonzero;"/>
            <path d="M566.87,214.27C566.533,214.944 565.329,215.23 564.57,215.23C562.57,215.23 561.54,213.75 561.47,210.85C561.69,210.88 561.9,210.9 562.09,210.91C562.18,213.66 563.622,214.8 565.35,214.8C566.042,214.8 566.545,214.577 566.87,214.27Z" style="fill:rgb(249,203,25);fill-rule:nonzero;"/>
            <path d="M563.66,207.91C562.845,208.663 561.95,208.214 561.74,207.18C561.138,208.115 560.14,208.172 559.65,207.17L559.62,207.17C559.349,208.13 558.582,208.249 557.77,207.64C557.86,208.1 557.88,208.57 557.83,209.07C560.337,210.257 561.887,210.681 564.69,210.28C564.8,209.83 564.97,209.42 565.18,209.05C564.094,209.306 563.602,208.72 563.66,207.91Z" style="fill:rgb(249,203,25);fill-rule:nonzero;"/>
            <path d="M570.93,224.02C569.74,224.18 568.54,224.51 567.35,224.98C566.06,224.43 564.86,223.74 563.69,222.91C564.2,222.21 564.7,221.48 565.16,220.73C566.53,222.16 568.46,223.26 570.93,224.02Z" style="fill:rgb(35,75,194);fill-rule:nonzero;"/>
            <path d="M566.72,225.24C565.89,225.61 565.07,226.05 564.27,226.55C563.34,226.08 562.49,225.59 561.8,225.17C562.35,224.58 562.87,223.96 563.38,223.3C564.45,224.07 565.55,224.71 566.72,225.24Z" style="fill:rgb(201,49,18);fill-rule:nonzero;"/>
            <path d="M563.78,226.86C563.09,227.32 562.41,227.82 561.75,228.37C561.38,228.17 560.01,227.4 559.69,227.23C560.29,226.7 560.88,226.14 561.45,225.55C562.1,225.93 562.9,226.4 563.78,226.86Z" style="fill:rgb(35,75,194);fill-rule:nonzero;"/>
            <path d="M560.35,228.72C559.74,229.24 559.15,229.8 558.58,230.4C557.94,230.01 557.14,229.55 556.26,229.09C556.95,228.63 557.63,228.12 558.29,227.57C558.66,227.78 560.03,228.54 560.35,228.72Z" style="fill:rgb(201,49,18);fill-rule:nonzero;"/>
            <path d="M558.23,230.77C557.69,231.36 557.16,231.99 556.66,232.64C555.58,231.88 554.48,231.24 553.31,230.7C554.14,230.34 554.96,229.9 555.77,229.39C556.7,229.87 557.54,230.36 558.23,230.77Z" style="fill:rgb(35,75,194);fill-rule:nonzero;"/>
            <path d="M556.35,233.04C555.83,233.73 555.34,234.46 554.87,235.22C553.51,233.79 551.57,232.68 549.11,231.92C550.29,231.76 551.49,231.43 552.68,230.96C553.98,231.52 555.18,232.2 556.35,233.04Z" style="fill:rgb(201,49,18);fill-rule:nonzero;"/>
            <path d="M566.429,230.567C566.566,230.567 566.679,230.456 566.679,230.317C566.679,230.18 566.566,230.067 566.429,230.067C566.291,230.067 566.179,230.18 566.179,230.317C566.179,230.455 566.291,230.567 566.429,230.567ZM562.271,232.042C562.396,231.983 562.448,231.834 562.389,231.709C562.33,231.585 562.181,231.531 562.056,231.591C561.932,231.649 561.878,231.799 561.938,231.924C561.996,232.049 562.146,232.102 562.271,232.042ZM557.314,235.327C557.416,235.234 557.424,235.076 557.331,234.974C557.237,234.872 557.08,234.864 556.978,234.957C556.875,235.05 556.868,235.208 556.961,235.311C557.054,235.412 557.212,235.42 557.314,235.327ZM554.841,237.131C554.75,237.235 554.761,237.394 554.864,237.484C554.969,237.575 555.127,237.564 555.218,237.46C555.309,237.356 555.298,237.198 555.193,237.107C555.09,237.017 554.932,237.027 554.841,237.131ZM559.67,233.505C559.785,233.43 559.817,233.274 559.742,233.159C559.666,233.044 559.511,233.012 559.396,233.087C559.28,233.163 559.248,233.318 559.324,233.434C559.399,233.549 559.555,233.581 559.67,233.505ZM556.233,236.012C556.135,235.914 555.977,235.916 555.88,236.015C555.782,236.112 555.784,236.271 555.882,236.368C555.98,236.465 556.139,236.463 556.235,236.365C556.333,236.267 556.331,236.108 556.233,236.012ZM565.048,230.954C565.18,230.913 565.253,230.773 565.212,230.642C565.171,230.51 565.03,230.437 564.898,230.478C564.767,230.519 564.693,230.659 564.734,230.79C564.775,230.922 564.916,230.996 565.048,230.954ZM560.945,232.729C561.065,232.661 561.108,232.509 561.04,232.389C560.973,232.268 560.82,232.226 560.7,232.293C560.579,232.36 560.537,232.513 560.604,232.634C560.672,232.754 560.824,232.797 560.945,232.729ZM558.452,234.368C558.563,234.284 558.583,234.127 558.5,234.018C558.416,233.907 558.259,233.887 558.149,233.97C558.039,234.054 558.019,234.211 558.102,234.32C558.186,234.431 558.343,234.451 558.452,234.368ZM563.64,231.449C563.769,231.399 563.832,231.254 563.781,231.126C563.731,230.997 563.586,230.934 563.458,230.984C563.329,231.034 563.266,231.18 563.316,231.308C563.366,231.437 563.512,231.5 563.64,231.449ZM554.081,238.222C553.943,238.222 553.831,238.334 553.831,238.472C553.831,238.609 553.943,238.722 554.081,238.722C554.219,238.722 554.331,238.609 554.331,238.472C554.331,238.334 554.22,238.222 554.081,238.222ZM570.939,231.871C570.614,231.789 570.189,231.761 569.854,231.76C569.716,231.76 569.604,231.647 569.604,231.509C569.604,231.371 569.717,231.26 569.854,231.26C570.236,231.261 570.693,231.294 571.062,231.387C571.294,231.445 571.434,231.508 571.593,231.605C571.681,231.365 571.449,231.188 571.22,231.074C570.883,230.902 570.234,230.809 569.854,230.809C569.716,230.808 569.604,230.695 569.604,230.558C569.604,230.42 569.717,230.308 569.854,230.309C570.313,230.31 570.957,230.409 571.379,230.599L571.332,230.29C571.113,230.012 570.084,229.867 569.731,229.822C569.594,229.806 569.497,229.681 569.515,229.543C569.531,229.406 569.656,229.31 569.794,229.326C569.897,229.34 570.009,229.355 570.122,229.372L570.122,225.599C569.721,225.925 569.332,226.289 569,226.693L569,233.726C569.111,233.882 569.216,234.092 569.215,234.284C569.215,234.459 569.145,234.636 569,234.767C569,238.594 569.001,237.393 569,237.633L568.926,237.81C568.716,238.017 568.489,238.208 568.251,238.382C568.374,238.473 568.493,238.566 568.609,238.665C569.189,238.287 569.933,238.288 570.513,238.665C570.629,238.566 570.748,238.473 570.871,238.382C570.633,238.208 570.406,238.017 570.196,237.81C570.09,237.704 570.122,237.783 570.122,233.277C570.122,233.14 570.234,233.027 570.372,233.027C570.51,233.027 570.622,233.14 570.622,233.277L570.622,233.654C570.88,233.625 571.309,233.531 571.461,233.322L571.452,233.116C571.184,232.78 570.285,232.736 569.854,232.735C569.716,232.735 569.604,232.623 569.604,232.485C569.604,232.347 569.717,232.235 569.854,232.235C570.38,232.237 571.115,232.29 571.562,232.563C571.775,232.245 571.312,231.965 570.939,231.871ZM568.6,240.929C568.882,240.647 569.134,240.335 569.351,239.997L569.771,239.997C569.987,240.335 570.24,240.647 570.522,240.929C570.938,240.429 570.899,239.704 570.445,239.248C569.956,238.76 569.167,238.76 568.677,239.248C568.222,239.704 568.186,240.43 568.6,240.929ZM570.871,241.882C570.382,241.524 569.936,241.085 569.561,240.572C569.323,240.897 569.054,241.198 568.757,241.469C568.707,241.512 568.535,241.674 568.251,241.882C568.752,242.249 569.194,242.69 569.561,243.192C569.928,242.69 570.369,242.249 570.871,241.882ZM568.565,234.434C568.668,234.434 568.74,234.334 568.708,234.236C568.519,233.666 567.688,233.495 567.528,232.397C567.508,232.261 567.603,232.134 567.739,232.114C567.876,232.095 568.003,232.189 568.022,232.326C568.059,232.57 568.158,232.807 568.311,232.997L568.5,233.199L568.5,227.426C568.268,227.849 568.119,228.299 568.119,228.782L568.024,231.307L567.815,231.544C567.222,231.643 566.633,231.77 566.05,231.92C566.371,232.763 566.884,233.647 567.658,234.115C567.979,234.31 568.347,234.419 568.565,234.434ZM567.058,234.3C566.784,234.079 566.6,233.875 566.423,233.646C565.274,234.593 564.239,235.643 563.295,236.84C563.597,236.933 563.87,237.069 564.104,237.28C564.972,236.213 565.956,235.213 567.058,234.3ZM563.031,237.283C562.111,237.051 560.965,237.295 560.091,237.721C558.864,238.318 557.905,239.35 557.596,240.729C558.968,241.632 559.296,243.51 559.321,245.158C560.358,245.344 561.273,245.671 562.194,246.084C562.351,245.968 562.446,245.854 562.507,245.745L562.575,245.495C562.527,245.416 562.197,245.37 562.106,245.358C561.27,245.24 561.374,245.261 560.714,245.016C560.584,244.968 560.518,244.823 560.565,244.694C560.614,244.564 560.758,244.499 560.887,244.547L561.277,244.691C561.673,244.839 562.183,244.829 562.565,244.939C562.435,244.212 562.208,243.715 563.203,242.604C562.757,242.403 562.232,242.168 561.802,241.937C561.506,241.777 561.187,241.591 560.964,241.343C560.669,241.013 560.613,240.643 560.756,240.264L561.217,240.245C561.27,240.357 561.334,240.442 561.454,240.472C561.863,240.568 562.612,240.064 563.34,240.383C563.605,240.016 563.797,239.683 563.925,239.385C564.406,238.261 564.035,237.537 563.031,237.283ZM562.811,240.774C562.316,240.772 561.78,241.097 561.281,240.94C561.443,241.167 561.789,241.362 562.038,241.495C562.311,241.642 562.624,241.791 562.905,241.92C563.125,241.896 563.365,241.721 563.467,241.53C563.667,241.163 563.265,240.774 562.811,240.774ZM559.023,245.615C557.83,245.432 556.97,245.527 555.858,245.663C555.752,246.094 555.599,246.503 555.389,246.884C556.37,246.647 556.935,247.156 556.853,248.024L556.866,248.03C557.65,247.306 558.572,247.689 558.804,248.74C559.401,247.819 560.421,247.79 560.888,248.764L560.9,248.762C561.148,247.898 561.897,247.643 562.755,248.292C562.671,247.848 562.65,247.378 562.702,246.87C561.44,246.273 560.417,245.837 559.023,245.615ZM561.195,249.325C561.096,249.226 560.939,249.229 560.842,249.325C560.744,249.423 560.744,249.58 560.842,249.679C560.941,249.777 561.098,249.775 561.195,249.679C561.293,249.58 561.293,249.424 561.195,249.325ZM558.89,249.325C558.79,249.226 558.633,249.229 558.536,249.325C558.438,249.423 558.438,249.58 558.536,249.679C558.636,249.777 558.792,249.775 558.89,249.679C558.987,249.58 558.987,249.424 558.89,249.325ZM556.646,248.479C556.479,248.396 556.284,248.517 556.284,248.702C556.283,248.896 556.496,249.018 556.664,248.916C556.831,248.814 556.822,248.567 556.646,248.479ZM556.246,245.112C556.396,245.095 556.549,245.079 556.708,245.064C556.031,244.017 555.846,242.241 554.256,242.389C555.332,242.947 554.84,244.279 556.246,245.112ZM555.388,242.114C556.146,242.541 556.467,243.429 556.82,244.204C557.124,244.876 557.247,244.936 557.297,245.024C557.429,245.019 557.563,245.015 557.703,245.015C557.667,243.942 557.379,242.763 556.512,242.133C555.803,241.618 554.559,241.438 553.875,241.941C554.393,241.834 554.916,241.848 555.388,242.114ZM553.387,241.703C554.2,240.874 555.85,241.036 556.805,241.729C557.819,242.464 558.166,243.785 558.204,245.028C558.402,245.039 558.607,245.057 558.82,245.082C558.783,243.395 558.403,241.474 556.818,240.894C556.125,240.641 555.281,240.673 554.586,240.884C554.146,241.018 553.58,241.286 553.387,241.703ZM556.373,237.477C555.499,238.348 554.35,239.63 553.74,240.698C554.662,240.184 556.041,240.04 557.087,240.463C557.1,239.564 556.877,238.496 556.373,237.477ZM557.521,239.492C557.899,238.768 558.447,238.179 559.107,237.719C560.272,236.911 561.668,236.59 562.752,236.725C563.753,235.422 564.875,234.27 566.138,233.232C565.905,232.858 565.717,232.456 565.566,232.053C562.982,232.787 560.54,234.019 558.406,235.652C557.951,236.001 557.361,236.516 556.746,237.109C557.213,238.004 557.427,238.837 557.521,239.492ZM553.336,240.397C554.318,238.71 556.657,236.363 558.103,235.256C560.856,233.146 564.111,231.691 567.532,231.088L567.607,229.083C564.273,229.673 561.095,231.094 558.406,233.152C556.95,234.268 554.132,237.071 553.471,238.746C553.38,238.974 553.336,239.172 553.336,239.319L553.336,240.397ZM555.075,235.619C553.817,234.275 551.777,232.961 548.453,232.113C548.586,234.102 549.185,236.724 550.622,238.092C551.254,238.693 551.997,239.016 552.86,239.063C553.045,237.974 554.34,236.436 555.075,235.619ZM549.211,231.474C554.718,230.897 559.793,226.744 563.062,222.233C560.263,224.782 556.437,226.682 552.407,227.373C552.28,229.076 550.647,230.537 549.211,231.474ZM550.303,226.122C550.44,226.14 550.537,226.265 550.52,226.401C550.503,226.538 550.378,226.636 550.24,226.618C550.137,226.605 550.025,226.59 549.912,226.572L549.912,230.346C550.318,230.016 550.704,229.652 551.034,229.251L551.034,222.219C550.959,222.113 550.896,221.995 550.853,221.867C550.773,221.631 550.833,221.36 551.034,221.179C551.034,218.092 551.021,218.276 551.064,218.196L551.108,218.134C551.318,217.928 551.545,217.737 551.783,217.563C551.66,217.473 551.541,217.378 551.425,217.28C550.845,217.657 550.102,217.657 549.521,217.28C549.405,217.378 549.286,217.473 549.163,217.563C549.401,217.737 549.628,217.928 549.838,218.135L549.879,218.19C549.928,218.276 549.912,218.049 549.912,222.667C549.912,222.805 549.8,222.917 549.662,222.917C549.524,222.917 549.412,222.805 549.412,222.667L549.412,222.29C549.156,222.32 548.726,222.413 548.573,222.622L548.582,222.828C548.851,223.165 549.75,223.208 550.181,223.209C550.318,223.209 550.431,223.321 550.43,223.459C550.43,223.598 550.317,223.709 550.18,223.709C549.652,223.708 548.918,223.654 548.473,223.381C548.259,223.7 548.722,223.98 549.095,224.073C549.419,224.155 549.844,224.185 550.181,224.185C550.318,224.186 550.431,224.297 550.43,224.436C550.43,224.574 550.317,224.686 550.18,224.685C549.798,224.684 549.341,224.651 548.973,224.558C548.74,224.5 548.601,224.437 548.441,224.339C548.354,224.579 548.584,224.756 548.814,224.871C549.151,225.042 549.801,225.136 550.181,225.137C550.318,225.137 550.431,225.249 550.43,225.387C550.43,225.525 550.317,225.637 550.18,225.637C549.722,225.635 549.077,225.536 548.655,225.346L548.702,225.654C548.921,225.933 549.951,226.078 550.303,226.122ZM551.435,215.016C551.152,215.298 550.9,215.61 550.684,215.947L550.263,215.947C550.047,215.61 549.794,215.298 549.512,215.016C549.097,215.516 549.135,216.241 549.59,216.696C550.078,217.185 550.867,217.185 551.357,216.696C551.813,216.24 551.849,215.515 551.435,215.016ZM549.163,214.063C549.664,214.429 550.107,214.872 550.474,215.372C550.711,215.047 550.979,214.748 551.276,214.478C551.358,214.406 551.511,214.262 551.783,214.063C551.282,213.696 550.84,213.254 550.474,212.753C550.106,213.254 549.665,213.696 549.163,214.063ZM551.469,221.511C551.366,221.511 551.294,221.612 551.326,221.708C551.516,222.279 552.347,222.451 552.506,223.547C552.526,223.684 552.432,223.811 552.295,223.831C552.158,223.85 552.031,223.755 552.012,223.619C551.977,223.375 551.876,223.138 551.724,222.948L551.534,222.745L551.534,228.52C551.768,228.095 551.916,227.645 551.916,227.163L552.01,224.638L552.219,224.4C552.813,224.302 553.401,224.175 553.984,224.024C553.663,223.182 553.15,222.298 552.376,221.83C552.056,221.636 551.689,221.526 551.469,221.511ZM552.977,221.645C553.25,221.865 553.434,222.069 553.611,222.299C554.755,221.355 555.792,220.307 556.739,219.105C556.438,219.012 556.164,218.875 555.93,218.665C555.063,219.732 554.078,220.731 552.977,221.645ZM557.003,218.661C557.923,218.894 559.069,218.65 559.943,218.224C561.17,217.626 562.129,216.595 562.438,215.215C561.066,214.313 560.738,212.435 560.713,210.787C559.676,210.602 558.761,210.274 557.84,209.861C557.684,209.977 557.588,210.09 557.527,210.199L557.459,210.45C557.507,210.529 557.835,210.574 557.928,210.587C558.758,210.704 558.652,210.681 559.321,210.929C559.45,210.978 559.517,211.121 559.469,211.25C559.42,211.38 559.276,211.446 559.147,211.398L558.757,211.253C558.36,211.105 557.853,211.116 557.469,211.005C557.536,211.382 557.646,211.758 557.555,212.127C557.438,212.599 557.153,212.981 556.831,213.341C557.278,213.542 557.802,213.777 558.233,214.009C558.527,214.167 558.848,214.354 559.07,214.602C559.363,214.93 559.422,215.3 559.278,215.681L558.818,215.699C558.765,215.587 558.7,215.502 558.58,215.473C558.172,215.376 557.421,215.88 556.694,215.563C556.429,215.929 556.237,216.262 556.109,216.56C555.618,217.708 556.023,218.414 557.003,218.661ZM557.224,215.171C557.705,215.172 558.263,214.851 558.753,215.004C558.591,214.777 558.245,214.583 557.996,214.449C557.724,214.303 557.41,214.154 557.129,214.025C556.909,214.049 556.669,214.224 556.567,214.414C556.366,214.782 556.771,215.171 557.224,215.171ZM561.011,210.329C562.204,210.513 563.064,210.417 564.176,210.282C564.282,209.851 564.436,209.441 564.646,209.061C563.667,209.296 563.098,208.791 563.182,207.92L563.168,207.915C562.383,208.641 561.461,208.253 561.23,207.205C560.636,208.12 559.616,208.16 559.146,207.181L559.134,207.183C558.887,208.043 558.141,208.305 557.279,207.653C557.368,208.121 557.382,208.592 557.332,209.075C558.587,209.668 559.605,210.104 561.011,210.329ZM558.839,206.62C558.938,206.718 559.094,206.717 559.192,206.62C559.291,206.521 559.289,206.364 559.192,206.267C559.093,206.168 558.937,206.169 558.839,206.267C558.74,206.366 558.742,206.522 558.839,206.62ZM561.145,206.62C561.244,206.718 561.4,206.717 561.498,206.62C561.597,206.521 561.596,206.364 561.498,206.267C561.399,206.168 561.243,206.169 561.145,206.267C561.046,206.366 561.048,206.522 561.145,206.62ZM563.389,207.466C563.556,207.549 563.75,207.428 563.75,207.243C563.75,207.048 563.537,206.927 563.37,207.029C563.203,207.131 563.212,207.377 563.389,207.466ZM563.788,210.832C563.639,210.85 563.485,210.866 563.326,210.881C564.005,211.931 564.188,213.703 565.778,213.557C564.702,212.998 565.194,211.666 563.788,210.832ZM566.159,214.003C565.641,214.11 565.118,214.097 564.646,213.83C563.89,213.404 563.567,212.517 563.214,211.741C562.907,211.063 562.786,211.007 562.737,210.92C562.605,210.926 562.471,210.93 562.331,210.93C562.367,212.002 562.655,213.182 563.522,213.812C564.231,214.326 565.475,214.507 566.159,214.003ZM566.647,214.241C565.834,215.069 564.186,214.909 563.229,214.216C562.215,213.481 561.868,212.16 561.83,210.917C561.632,210.906 561.427,210.889 561.214,210.862C561.251,212.55 561.631,214.471 563.216,215.051C563.909,215.305 564.753,215.272 565.447,215.061C565.889,214.927 566.454,214.658 566.647,214.241ZM563.661,218.468C564.537,217.593 565.68,216.323 566.294,215.247C565.37,215.761 563.993,215.905 562.947,215.482C562.936,216.391 563.16,217.455 563.661,218.468ZM562.514,216.453C562.134,217.179 561.586,217.767 560.927,218.226C559.762,219.034 558.366,219.355 557.282,219.22C556.281,220.522 555.159,221.675 553.896,222.712C554.129,223.086 554.317,223.489 554.468,223.892C557.052,223.158 559.495,221.926 561.628,220.292C562.083,219.943 562.673,219.429 563.288,218.835C562.821,217.941 562.606,217.108 562.514,216.453ZM566.698,215.547C565.716,217.235 563.377,219.582 561.932,220.689C559.178,222.798 555.922,224.253 552.502,224.857L552.427,226.862C555.761,226.272 558.939,224.851 561.628,222.792C563.084,221.677 565.902,218.874 566.563,217.199C566.654,216.971 566.698,216.772 566.698,216.625L566.698,215.547ZM564.959,220.326C566.217,221.669 568.257,222.983 571.581,223.832C571.449,221.859 570.855,219.227 569.412,217.853C568.78,217.251 568.037,216.929 567.174,216.882C566.989,217.971 565.694,219.509 564.959,220.326ZM558.78,227.57C558.112,228.126 557.47,228.61 556.76,229.083C557.582,229.511 558.35,229.956 559.086,230.4C559.65,229.813 560.237,229.249 560.846,228.72C560.154,228.337 559.47,227.95 558.78,227.57ZM560.948,225.545C560.384,226.133 559.797,226.695 559.188,227.225C559.88,227.607 560.564,227.995 561.254,228.375C561.902,227.835 562.547,227.347 563.274,226.862C562.452,226.434 561.685,225.988 560.948,225.545ZM566.828,224.974C567.994,224.507 569.189,224.179 570.397,224.018C567.661,223.171 565.851,221.982 564.662,220.739C564.206,221.48 563.711,222.207 563.182,222.913C564.198,223.639 565.385,224.351 566.828,224.974ZM562.879,223.311C562.38,223.953 561.852,224.575 561.299,225.172C562.077,225.64 562.89,226.105 563.759,226.548C564.552,226.05 565.366,225.611 566.197,225.24C564.905,224.646 563.819,223.983 562.879,223.311ZM553.206,230.971C552.04,231.438 550.845,231.766 549.637,231.927C552.373,232.773 554.184,233.963 555.372,235.206C555.828,234.465 556.323,233.738 556.853,233.032C555.835,232.306 554.649,231.594 553.206,230.971ZM557.155,232.634C557.654,231.992 558.183,231.37 558.735,230.772C557.957,230.305 557.145,229.839 556.275,229.396C555.482,229.895 554.668,230.334 553.837,230.704C555.129,231.298 556.215,231.961 557.155,232.634ZM570.823,224.471C565.316,225.047 560.241,229.201 556.973,233.711C559.771,231.165 563.596,229.263 567.627,228.571C567.754,226.873 569.385,225.409 570.823,224.471ZM563.075,249.243C563.075,249.381 563.187,249.492 563.325,249.493C563.464,249.492 563.574,249.381 563.575,249.243C563.574,249.104 563.463,248.993 563.325,248.993C563.187,248.993 563.075,249.104 563.075,249.243ZM554.638,247.506C554.539,247.408 554.382,247.409 554.284,247.506C554.186,247.605 554.188,247.762 554.284,247.859C554.384,247.958 554.54,247.957 554.638,247.859C554.735,247.761 554.735,247.604 554.638,247.506ZM556.959,206.702C556.959,206.563 556.848,206.452 556.709,206.452C556.571,206.452 556.46,206.564 556.459,206.702C556.46,206.841 556.571,206.952 556.709,206.952C556.848,206.952 556.959,206.84 556.959,206.702ZM565.396,208.438C565.496,208.537 565.652,208.535 565.75,208.438C565.849,208.339 565.847,208.183 565.75,208.085C565.65,207.986 565.494,207.988 565.396,208.085C565.298,208.185 565.3,208.341 565.396,208.438ZM571.919,232.918C572.091,233.235 572.004,233.64 571.519,233.908C571.287,234.035 570.987,234.121 570.622,234.157L570.622,237.523C570.875,237.765 571.15,237.982 571.446,238.172L571.446,238.593C571.253,238.717 571.068,238.853 570.893,238.998C571.453,239.656 571.447,240.615 570.895,241.266C571.069,241.411 571.253,241.548 571.446,241.672L571.446,242.093C570.774,242.523 570.202,243.096 569.771,243.768L569.351,243.768C568.92,243.096 568.348,242.523 567.676,242.093L567.676,241.672C567.869,241.548 568.053,241.411 568.228,241.266C567.676,240.616 567.668,239.657 568.229,238.998C568.054,238.853 567.869,238.717 567.676,238.593L567.676,238.172C567.972,237.982 568.247,237.765 568.5,237.523L568.5,234.93C568.21,234.9 567.833,234.787 567.486,234.594C566.338,235.534 565.317,236.568 564.426,237.677C564.959,238.613 564.38,239.797 563.749,240.671C564.181,241.143 564.093,241.79 563.517,242.195L563.726,242.29L563.804,242.688C563.471,243.042 562.944,243.601 562.944,244.121C562.942,244.702 563.444,245.572 562.693,246.313C563.104,246.506 563.104,246.501 563.146,246.544L563.22,246.716C563.222,246.811 563.068,247.588 563.314,248.493C563.739,248.487 564.075,248.83 564.075,249.243C564.075,249.657 563.739,249.992 563.325,249.993C562.75,249.992 562.392,249.372 562.671,248.876C562.429,248.644 562,248.326 561.689,248.457C561.535,248.524 561.447,248.693 561.395,248.854C561.618,248.983 561.769,249.225 561.769,249.502C561.769,249.916 561.433,250.251 561.019,250.252C560.372,250.251 560.036,249.492 560.452,249.012C560.162,248.368 559.637,248.414 559.248,248.978C559.711,249.449 559.376,250.251 558.713,250.252C558.298,250.251 557.963,249.916 557.963,249.502C557.963,249.231 558.105,248.996 558.319,248.864C558.183,248.219 557.733,247.918 557.215,248.389C557.314,248.605 557.303,248.841 557.205,249.037C557.02,249.408 556.568,249.559 556.198,249.373C555.583,249.066 555.67,248.144 556.355,247.976C556.381,247.702 556.336,247.453 556.075,247.36C555.811,247.27 555.44,247.371 555.181,247.475C555.32,247.958 554.956,248.433 554.461,248.433C554.048,248.434 553.711,248.098 553.711,247.683C553.711,247.154 554.245,246.789 554.739,246.986C555.063,246.52 555.279,245.99 555.407,245.402L555.436,245.331L555.537,245.219C555.303,245.015 555.129,244.795 554.998,244.575C554.372,243.523 554.689,242.673 553.17,242.674C553.075,242.673 552.983,242.617 552.942,242.525C552.827,242.267 552.8,242.028 552.836,241.803L552.836,239.563C549.727,239.394 548.428,236.089 548.037,232.997C548.015,232.82 547.911,231.867 547.944,231.73C547.998,231.503 548.19,231.61 549.412,230.729L549.412,226.479C549.042,226.397 548.555,226.26 548.315,225.972C548.131,225.744 548.075,225.404 548.198,225.141L548.214,225.065C547.858,224.735 547.85,224.3 548.061,223.991C547.841,223.663 547.896,223.281 548.115,223.026C547.943,222.71 548.029,222.306 548.516,222.037C548.747,221.909 549.047,221.824 549.412,221.788L549.412,218.421C549.159,218.18 548.884,217.962 548.588,217.773L548.588,217.352C548.781,217.229 548.966,217.092 549.142,216.946C548.581,216.289 548.587,215.33 549.14,214.679C548.965,214.533 548.781,214.396 548.588,214.273L548.588,213.852C549.26,213.421 549.832,212.85 550.263,212.178L550.684,212.178C551.114,212.85 551.687,213.421 552.358,213.852L552.358,214.273C552.165,214.396 551.981,214.533 551.807,214.679C552.359,215.33 552.365,216.289 551.805,216.946C551.98,217.092 552.165,217.229 552.358,217.352L552.358,217.773C552.063,217.962 551.787,218.18 551.534,218.421L551.534,221.016C551.829,221.045 552.206,221.16 552.548,221.352C553.696,220.411 554.717,219.376 555.608,218.268C555.076,217.331 555.652,216.15 556.285,215.274C555.856,214.807 555.937,214.158 556.519,213.749L556.309,213.655L556.23,213.256C556.573,212.892 556.951,212.486 557.069,212.007C557.211,211.434 556.514,210.447 557.341,209.631C556.943,209.445 556.932,209.445 556.887,209.4L556.814,209.229C556.813,209.137 556.964,208.352 556.72,207.452C556.508,207.455 556.316,207.37 556.179,207.232C555.71,206.765 556.041,205.952 556.709,205.952C557.282,205.952 557.644,206.57 557.363,207.069C557.606,207.302 558.035,207.618 558.345,207.487C558.499,207.421 558.587,207.252 558.64,207.091C558.398,206.951 558.266,206.701 558.266,206.443C558.266,205.773 559.079,205.444 559.546,205.913C559.82,206.187 559.844,206.632 559.583,206.933C559.873,207.578 560.398,207.529 560.786,206.968C560.326,206.499 560.654,205.693 561.321,205.693C561.735,205.693 562.072,206.029 562.071,206.443C562.072,206.692 561.947,206.937 561.715,207.081C561.852,207.728 562.302,208.026 562.819,207.556C562.655,207.198 562.795,206.792 563.111,206.601C563.61,206.299 564.25,206.657 564.25,207.243C564.251,207.574 564.029,207.883 563.679,207.97C563.653,208.246 563.7,208.493 563.959,208.584C564.224,208.675 564.592,208.575 564.854,208.47C564.714,207.987 565.077,207.512 565.573,207.512C566.243,207.512 566.572,208.325 566.104,208.792C565.895,209.001 565.578,209.071 565.295,208.958C564.736,209.764 564.665,210.497 564.599,210.613L564.497,210.726C565.353,211.472 565.346,212.375 565.708,212.859C565.969,213.208 566.424,213.271 566.864,213.271C566.959,213.271 567.051,213.328 567.092,213.419C567.208,213.677 567.234,213.917 567.198,214.142L567.198,216.382C570.309,216.551 571.606,219.858 571.997,222.948C572.012,223.064 572.129,224.088 572.085,224.229C572.018,224.446 571.831,224.343 570.622,225.216L570.622,229.465C570.994,229.548 571.479,229.686 571.719,229.973C571.937,230.241 571.953,230.621 571.802,230.864C572.165,231.188 572.198,231.624 571.974,231.954C572.191,232.279 572.141,232.661 571.919,232.918ZM561.708,244.185C561.847,244.18 561.955,244.064 561.951,243.927C561.947,243.794 561.942,243.661 561.938,243.529C561.935,243.391 561.819,243.282 561.682,243.286C561.543,243.291 561.435,243.406 561.438,243.544C561.443,243.677 561.447,243.81 561.451,243.941C561.455,244.08 561.57,244.188 561.708,244.185ZM553.605,225.377C553.468,225.377 553.355,225.489 553.355,225.627C553.355,225.765 553.468,225.877 553.605,225.877C553.743,225.877 553.855,225.765 553.855,225.627C553.855,225.489 553.743,225.377 553.605,225.377ZM554.986,224.99C554.854,225.031 554.781,225.171 554.822,225.303C554.863,225.435 555.004,225.509 555.136,225.467C555.268,225.426 555.341,225.286 555.3,225.154C555.259,225.022 555.118,224.949 554.986,224.99ZM565.193,218.813C565.284,218.709 565.273,218.552 565.17,218.461C565.065,218.37 564.907,218.38 564.816,218.484C564.726,218.588 564.736,218.746 564.841,218.837C564.944,218.928 565.103,218.917 565.193,218.813ZM562.72,220.618C562.618,220.711 562.61,220.869 562.703,220.971C562.796,221.073 562.954,221.081 563.057,220.988C563.158,220.895 563.166,220.737 563.073,220.634C562.98,220.532 562.822,220.525 562.72,220.618ZM563.801,219.933C563.899,220.03 564.058,220.029 564.154,219.931C564.252,219.832 564.25,219.674 564.152,219.577C564.054,219.48 563.896,219.481 563.798,219.58C563.701,219.678 563.703,219.836 563.801,219.933ZM559.089,223.216C558.969,223.284 558.926,223.436 558.994,223.557C559.062,223.677 559.214,223.72 559.334,223.652C559.455,223.584 559.497,223.432 559.43,223.312C559.362,223.191 559.21,223.148 559.089,223.216ZM560.364,222.44C560.249,222.516 560.217,222.67 560.292,222.786C560.368,222.901 560.523,222.933 560.639,222.857C560.754,222.782 560.786,222.626 560.71,222.511C560.635,222.396 560.479,222.364 560.364,222.44ZM561.582,221.577C561.472,221.661 561.451,221.817 561.534,221.927C561.618,222.037 561.775,222.059 561.885,221.975C561.995,221.891 562.016,221.734 561.933,221.625C561.849,221.515 561.691,221.493 561.582,221.577ZM556.395,224.495C556.266,224.545 556.202,224.69 556.253,224.819C556.303,224.948 556.448,225.011 556.576,224.96C556.705,224.91 556.769,224.765 556.718,224.637C556.668,224.508 556.522,224.445 556.395,224.495ZM557.764,223.902C557.639,223.962 557.586,224.111 557.646,224.235C557.704,224.36 557.854,224.413 557.979,224.354C558.103,224.295 558.156,224.146 558.097,224.021C558.038,223.896 557.889,223.843 557.764,223.902ZM565.953,217.723C566.091,217.723 566.203,217.611 566.203,217.473C566.203,217.335 566.091,217.223 565.953,217.223C565.815,217.223 565.703,217.335 565.703,217.473C565.703,217.611 565.814,217.723 565.953,217.723ZM558.583,212.003L558.596,212.4C558.6,212.539 558.491,212.654 558.353,212.658C558.215,212.662 558.1,212.554 558.096,212.416C558.092,212.283 558.088,212.15 558.083,212.018C558.079,211.88 558.188,211.765 558.326,211.761C558.464,211.756 558.579,211.865 558.583,212.003Z" style="fill:rgb(31,31,31);fill-rule:nonzero;"/>
        </g>
    </g>
</svg>
