<?xml version="1.0" encoding="UTF-8" standalone="no"?>
<!DOCTYPE svg PUBLIC "-//W3C//DTD SVG 1.1//EN" "http://www.w3.org/Graphics/SVG/1.1/DTD/svg11.dtd">
<svg width="100%" height="100%" viewBox="0 0 40 56" version="1.1" xmlns="http://www.w3.org/2000/svg" xmlns:xlink="http://www.w3.org/1999/xlink" xml:space="preserve" xmlns:serif="http://www.serif.com/" style="fill-rule:evenodd;clip-rule:evenodd;stroke-linejoin:round;stroke-miterlimit:2;">
    <g transform="matrix(1,0,0,1,-540,-80)">
        <g>
            <path d="M577.5,136L542.5,136C541.119,136 540,134.881 540,133.5L540,82.5C540,81.12 541.119,80 542.5,80L577.5,80C578.881,80 580,81.12 580,82.5L580,133.5C580,134.881 578.881,136 577.5,136Z" style="fill:white;fill-rule:nonzero;"/>
            <path d="M577.5,136L542.5,136C541.119,136 540,134.881 540,133.5L540,82.5C540,81.12 541.119,80 542.5,80L577.5,80C578.881,80 580,81.12 580,82.5L580,133.5C580,134.881 578.881,136 577.5,136ZM577.5,135.8L542.5,135.8C541.229,135.8 540.2,134.771 540.2,133.5L540.2,82.5C540.2,81.23 541.229,80.2 542.5,80.2L577.5,80.2C578.771,80.2 579.8,81.23 579.8,82.5C579.8,82.5 579.8,133.5 579.8,133.5C579.8,134.771 578.771,135.8 577.5,135.8Z" style="fill:rgb(204,204,204);"/>
            <path d="M546.813,90.5C546.463,90.5 546.161,90.694 546,90.978C545.839,90.694 545.537,90.5 545.188,90.5C544.67,90.5 544.25,90.92 544.25,91.438C544.25,92.473 545.725,93.029 546,93.688C546.275,93.029 547.75,92.473 547.75,91.438C547.75,90.92 547.33,90.5 546.813,90.5Z" style="fill:rgb(201,49,18);fill-rule:nonzero;"/>
            <path d="M573.188,125.25C573.537,125.25 573.839,125.056 574,124.772C574.161,125.056 574.463,125.25 574.813,125.25C575.33,125.25 575.75,124.83 575.75,124.313C575.75,123.277 574.275,122.722 574,122.063C573.725,122.722 572.25,123.277 572.25,124.313C572.25,124.83 572.67,125.25 573.188,125.25Z" style="fill:rgb(201,49,18);fill-rule:nonzero;"/>
            <path d="M546.016,88.038L546.016,88.375L543.982,88.375L543.982,88.038L544.437,87.951L544.548,87.894L544.588,87.779L544.588,84.445L544.55,84.328L544.439,84.268L543.982,84.178L543.982,83.832L545.993,83.832L545.993,84.178L545.53,84.268L545.423,84.328L545.385,84.445L545.385,86.275L547.096,84.276L546.571,84.178L546.571,83.832L548.221,83.832L548.221,84.178L547.79,84.268L547.688,84.304L547.602,84.37L546.473,85.626C546.575,85.747 546.673,85.878 546.764,86.022C546.854,86.165 546.959,86.339 547.078,86.543L547.782,87.744L547.89,87.888L548.044,87.962L548.352,88.038L548.352,88.375L547.308,88.375C547.235,88.375 547.16,88.32 547.079,88.208C546.999,88.097 546.908,87.946 546.808,87.756C546.808,87.756 546.2,86.608 546.14,86.499C546.078,86.391 546.018,86.291 545.958,86.203L545.385,86.851L545.385,87.785L545.426,87.9L545.539,87.954L546.016,88.038Z" style="fill:rgb(201,49,18);fill-rule:nonzero;"/>
            <path d="M573.98,127.712L573.98,127.375L576.014,127.375L576.014,127.712L575.561,127.8L575.448,127.856L575.408,127.971L575.408,131.305L575.447,131.423L575.557,131.482L576.014,131.573L576.014,131.919L574.004,131.919L574.004,131.573L574.467,131.482L574.574,131.423L574.611,131.305L574.611,129.476L572.9,131.474L573.425,131.573L573.425,131.919L571.775,131.919L571.775,131.573L572.206,131.482L572.309,131.446L572.395,131.381L573.523,130.124C573.421,130.004 573.324,129.872 573.232,129.729C573.142,129.585 573.037,129.411 572.918,129.208L572.215,128.006L572.107,127.862L571.953,127.788L571.645,127.712L571.645,127.375L572.689,127.375C572.761,127.375 572.836,127.431 572.917,127.542C572.998,127.654 573.088,127.805 573.189,127.995C573.189,127.995 573.796,129.143 573.857,129.251C573.918,129.36 573.979,129.459 574.039,129.548L574.611,128.899L574.611,127.965L574.57,127.851L574.457,127.797L573.98,127.712Z" style="fill:rgb(201,49,18);fill-rule:nonzero;"/>
            <path d="M572.126,86.75C571.426,86.75 570.823,87.138 570.501,87.707C570.179,87.138 569.576,86.75 568.876,86.75C567.841,86.75 567.001,87.59 567.001,88.625C567.001,90.696 569.95,91.807 570.501,93.125C571.052,91.807 574.001,90.696 574.001,88.625C574.001,87.59 573.161,86.75 572.126,86.75Z" style="fill:rgb(201,49,18);fill-rule:nonzero;"/>
            <path d="M551.126,129.252C550.427,129.252 549.823,128.865 549.501,128.296C549.179,128.865 548.576,129.252 547.876,129.252C546.841,129.252 546.001,128.413 546.001,127.377C546.001,125.307 548.95,124.196 549.501,122.877C550.053,124.196 553.001,125.307 553.001,127.377C553.001,128.413 552.162,129.252 551.126,129.252Z" style="fill:rgb(201,49,18);fill-rule:nonzero;"/>
            <path d="M544.001,96L544.001,131.75L544.251,132L569.001,132L569.001,131.5L544.501,131.5L544.501,96L544.001,96ZM576.001,120L575.501,120L575.501,84.5L551.001,84.5L551.001,84L575.751,84L576.001,84.25L576.001,120Z" style="fill:rgb(31,31,31);fill-rule:nonzero;"/>
            <path d="M562.24,128.69C561.687,128.435 561.135,128.552 560.69,128.96C560.68,128.65 560.67,128.22 560.71,127.65C560.734,127.305 560.22,127.292 560.22,127.61C560.18,128.14 560.18,128.55 560.19,128.87C559.57,128.33 559.1,128.41 558.4,128.88L558.68,127.54C558.748,127.243 558.264,127.096 558.19,127.44L557.89,128.87C557.36,128.19 556.94,127.94 556.22,128.24C556.35,127.96 556.52,127.61 556.7,127.17C556.826,126.841 556.354,126.682 556.24,126.98C556,127.56 555.78,128 555.64,128.29C555.334,127.698 554.933,127.49 554.38,127.49C554.71,127.06 555.11,126.42 555.32,125.72C558.085,125.295 559.659,125.759 562.16,126.92C562.16,127.021 562.02,127.627 562.24,128.69Z" style="fill:rgb(249,203,25);fill-rule:nonzero;"/>
            <path d="M558.89,125.2C558.66,125.16 558.43,125.13 558.22,125.11C558.949,121.753 555.361,121.078 554.85,119.06C557.087,120.858 559.704,120.895 558.89,125.2Z" style="fill:rgb(35,75,194);fill-rule:nonzero;"/>
            <path d="M557.71,125.08C557.48,125.07 557.26,125.07 557.04,125.08C556.925,122.894 554.929,122.126 554.58,119.77C555.565,121.593 558.388,122.262 557.71,125.08Z" style="fill:rgb(35,75,194);fill-rule:nonzero;"/>
            <path d="M556.53,125.11C556.38,125.12 556.23,125.14 556.09,125.15C555.455,124.751 554.426,122.937 554.4,120.97C555.136,122.721 556.444,123.433 556.53,125.11Z" style="fill:rgb(35,75,194);fill-rule:nonzero;"/>
            <path d="M569.87,115L569.87,122.8L569.31,124.53L568.75,122.8L568.75,115L569.87,115Z" style="fill:rgb(249,203,25);fill-rule:nonzero;"/>
            <rect x="568.75" y="113.35" width="1.12" height="1.15" style="fill:rgb(201,49,18);"/>
            <path d="M571.95,110.4C571.72,110.45 571.5,110.52 571.27,110.58L571.22,110.59C569.5,111.06 567.83,111.75 566.27,112.63L566.25,112.63C566.25,112.73 564.66,113.384 562.48,115.32C558.998,116.243 556.843,119.73 556.79,119.89C556.404,119.633 555.557,119.213 554.82,118.58C557.78,115.19 561.81,112.78 566.21,111.81L566.41,111.56C566.399,110.996 566.31,110.037 566.31,110.14L566.3,110.13C566.23,109.52 566.12,108.99 565.97,108.54C567.517,109.609 569.632,109.573 571.18,108.19L571.95,110.4Z" style="fill:rgb(249,203,25);fill-rule:nonzero;"/>
            <path d="M565.79,109.98C562.78,110.5 560.35,111.53 558.37,112.73L555.1,109.46C555.25,109.48 555.4,109.52 555.56,109.52C556.77,109.52 558.2,108.86 559.6,108.23C563.138,106.615 565.229,106.021 565.79,109.98Z" style="fill:rgb(201,49,18);fill-rule:nonzero;"/>
            <path d="M557.93,113C555.86,114.33 554.3,115.85 553.13,117.15C552.14,116.67 551.32,116.01 550.7,115.21C552.65,115.17 554.27,113.83 554.73,112.02L554.75,111.96C555.042,110.793 554.75,110.066 554.75,109.96C554.75,109.764 553.91,108.98 557.93,113Z" style="fill:rgb(35,75,194);fill-rule:nonzero;"/>
            <path d="M555.15,112.21C553.966,115.534 549.297,115.541 548.11,112.21L555.15,112.21Z" style="fill:rgb(249,203,25);fill-rule:nonzero;"/>
            <path d="M555.15,109.71L553.38,109.71L553.38,107.67C554.2,108.11 554.83,108.83 555.15,109.71Z" style="fill:rgb(249,203,25);fill-rule:nonzero;"/>
            <path d="M549.88,107.67L549.88,109.71L548.11,109.71C548.43,108.83 549.06,108.11 549.88,107.67Z" style="fill:rgb(249,203,25);fill-rule:nonzero;"/>
            <path d="M571.89,106.29C571.57,107.17 570.94,107.89 570.12,108.33L570.12,106.29L571.89,106.29Z" style="fill:rgb(249,203,25);fill-rule:nonzero;"/>
            <path d="M566.62,106.29L566.62,108.33C565.8,107.89 565.17,107.17 564.85,106.29L566.62,106.29Z" style="fill:rgb(249,203,25);fill-rule:nonzero;"/>
            <path d="M571.89,103.79L564.85,103.79C566.034,100.466 570.703,100.459 571.89,103.79Z" style="fill:rgb(249,203,25);fill-rule:nonzero;"/>
            <path d="M565.25,104.04C564.958,105.208 565.25,105.932 565.25,106.04C565.25,106.218 566.102,107.019 562.07,103C564.15,101.67 565.7,100.15 566.87,98.851C567.86,99.331 568.68,99.991 569.3,100.79C567.35,100.83 565.73,102.17 565.27,103.98L565.25,104.04Z" style="fill:rgb(35,75,194);fill-rule:nonzero;"/>
            <path d="M564.9,106.54C561.179,105.939 555.167,112.766 554.21,106.02C557.22,105.5 559.65,104.47 561.63,103.27L564.9,106.54Z" style="fill:rgb(249,203,25);fill-rule:nonzero;"/>
            <path d="M553.79,104.19L553.59,104.44C553.609,105.409 553.734,106.573 554.03,107.46C552.483,106.391 550.368,106.427 548.82,107.81L548.05,105.6C551.299,104.862 554.807,103.089 557.52,100.68C561.002,99.757 563.157,96.27 563.21,96.11C563.6,96.371 564.443,96.787 565.18,97.42C562.22,100.81 558.19,103.22 553.79,104.19Z" style="fill:rgb(201,49,18);fill-rule:nonzero;"/>
            <rect x="550.13" y="101.5" width="1.12" height="1.15" style="fill:rgb(201,49,18);"/>
            <path d="M551.25,93.201L551.25,101L550.13,101L550.13,93.201L550.69,91.471L551.25,93.201Z" style="fill:rgb(249,203,25);fill-rule:nonzero;"/>
            <path d="M565.6,95.03C564.864,93.28 563.556,92.567 563.47,90.891C563.62,90.88 563.76,90.86 563.91,90.84C564.543,91.239 565.574,93.064 565.6,95.03Z" style="fill:rgb(35,75,194);fill-rule:nonzero;"/>
            <path d="M565.42,96.23C564.434,94.408 561.612,93.739 562.29,90.92C562.497,90.92 562.472,90.948 562.96,90.911C563.076,93.119 565.072,93.876 565.42,96.23Z" style="fill:rgb(35,75,194);fill-rule:nonzero;"/>
            <path d="M565.15,96.94C562.929,95.154 560.298,95.109 561.1,90.811C561.34,90.851 561.57,90.871 561.78,90.891C561.06,94.28 564.634,94.902 565.15,96.94Z" style="fill:rgb(35,75,194);fill-rule:nonzero;"/>
            <path d="M565.62,88.51C565.29,88.94 564.89,89.581 564.68,90.28C563.179,90.512 562.114,90.462 561.21,90.28C561.063,90.251 560.71,90.232 559.58,89.831C558.98,89.61 558.4,89.34 557.84,89.081C557.84,88.978 557.98,88.372 557.76,87.311C558.312,87.565 558.863,87.45 559.31,87.04C559.32,87.351 559.33,87.78 559.29,88.351C559.266,88.7 559.78,88.699 559.78,88.391C559.82,87.86 559.82,87.451 559.81,87.13C560.43,87.67 560.9,87.59 561.6,87.121L561.32,88.46C561.247,88.776 561.755,88.89 561.81,88.561L562.11,87.13C562.64,87.811 563.06,88.061 563.78,87.76C563.65,88.04 563.48,88.391 563.3,88.831C563.177,89.152 563.637,89.329 563.76,89.02C564,88.44 564.22,88 564.36,87.71C564.666,88.303 565.067,88.51 565.62,88.51Z" style="fill:rgb(249,203,25);fill-rule:nonzero;"/>
            <path d="M565.507,111.358C565.645,111.358 565.757,111.247 565.757,111.108C565.757,110.971 565.646,110.858 565.507,110.858C565.369,110.858 565.257,110.971 565.257,111.108C565.257,111.247 565.369,111.358 565.507,111.358ZM558.668,114.459C558.781,114.381 558.81,114.225 558.73,114.112C558.652,113.998 558.496,113.97 558.383,114.048C558.27,114.127 558.241,114.283 558.319,114.396C558.398,114.51 558.554,114.538 558.668,114.459ZM564.102,111.765C564.232,111.723 564.305,111.582 564.262,111.45C564.22,111.319 564.079,111.247 563.947,111.289C563.816,111.332 563.744,111.472 563.786,111.604C563.829,111.735 563.97,111.808 564.102,111.765ZM557.447,115.369C557.555,115.283 557.572,115.125 557.485,115.018C557.399,114.91 557.242,114.893 557.135,114.979C557.026,115.065 557.009,115.223 557.096,115.331C557.182,115.438 557.339,115.456 557.447,115.369ZM556.291,116.361C556.393,116.268 556.399,116.109 556.307,116.008C556.213,115.906 556.055,115.899 555.953,115.993C555.852,116.086 555.845,116.245 555.938,116.346C556.031,116.448 556.189,116.455 556.291,116.361ZM562.672,112.286C562.8,112.234 562.861,112.088 562.81,111.96C562.757,111.832 562.611,111.771 562.483,111.823C562.355,111.875 562.294,112.021 562.346,112.149C562.398,112.276 562.544,112.338 562.672,112.286ZM559.949,113.638C560.067,113.568 560.106,113.415 560.037,113.296C559.967,113.177 559.813,113.138 559.694,113.208C559.575,113.278 559.536,113.432 559.606,113.55C559.677,113.669 559.83,113.708 559.949,113.638ZM561.285,112.912C561.409,112.85 561.46,112.7 561.398,112.577C561.337,112.453 561.187,112.403 561.063,112.464C560.939,112.525 560.889,112.675 560.95,112.799C561.012,112.923 561.162,112.973 561.285,112.912ZM555.273,117.256C555.273,117.119 555.162,117.006 555.023,117.006C554.886,117.006 554.773,117.118 554.773,117.256C554.773,117.394 554.886,117.506 555.023,117.506C555.161,117.506 555.273,117.394 555.273,117.256ZM554.493,104.641C554.355,104.641 554.243,104.753 554.243,104.891C554.243,105.029 554.355,105.141 554.493,105.141C554.631,105.141 554.743,105.029 554.743,104.891C554.743,104.753 554.631,104.641 554.493,104.641ZM561.332,101.541C561.219,101.619 561.19,101.775 561.27,101.888C561.348,102.002 561.504,102.03 561.617,101.952C561.73,101.873 561.759,101.717 561.681,101.604C561.602,101.49 561.446,101.462 561.332,101.541ZM555.898,104.235C555.768,104.277 555.695,104.418 555.737,104.55C555.78,104.681 555.921,104.753 556.053,104.711C556.184,104.668 556.256,104.527 556.214,104.396C556.171,104.265 556.03,104.192 555.898,104.235ZM558.715,103.088C558.591,103.149 558.54,103.3 558.602,103.423C558.663,103.547 558.813,103.597 558.937,103.536C559.061,103.475 559.11,103.325 559.05,103.201C558.988,103.077 558.838,103.027 558.715,103.088ZM563.709,99.639C563.607,99.733 563.601,99.891 563.693,99.993C563.787,100.094 563.945,100.101 564.047,100.007C564.148,99.914 564.155,99.756 564.062,99.654C563.969,99.553 563.811,99.546 563.709,99.639ZM560.051,102.362C559.933,102.432 559.893,102.585 559.963,102.704C560.033,102.823 560.187,102.862 560.306,102.792C560.425,102.722 560.464,102.568 560.394,102.45C560.323,102.331 560.17,102.292 560.051,102.362ZM562.553,100.631C562.445,100.717 562.428,100.875 562.515,100.982C562.601,101.09 562.758,101.107 562.865,101.021C562.974,100.935 562.991,100.777 562.904,100.669C562.818,100.562 562.661,100.544 562.553,100.631ZM557.328,103.714C557.2,103.766 557.139,103.912 557.19,104.04C557.243,104.168 557.389,104.229 557.517,104.177C557.645,104.125 557.706,103.979 557.653,103.851C557.602,103.724 557.456,103.662 557.328,103.714ZM564.727,98.744C564.727,98.882 564.839,98.994 564.977,98.994C565.114,98.994 565.227,98.882 565.227,98.744C565.227,98.607 565.114,98.494 564.977,98.494C564.839,98.494 564.727,98.606 564.727,98.744ZM566.119,105.285L567.119,105.285C567.257,105.285 567.369,105.173 567.369,105.035C567.369,104.897 567.257,104.785 567.119,104.785L566.119,104.785C565.981,104.785 565.869,104.897 565.869,105.035C565.869,105.173 565.981,105.285 566.119,105.285ZM568.369,105.285L569.369,105.285C569.507,105.285 569.619,105.173 569.619,105.035C569.619,104.897 569.507,104.785 569.369,104.785L568.369,104.785C568.231,104.785 568.119,104.897 568.119,105.035C568.119,105.173 568.231,105.285 568.369,105.285ZM570.619,105.285L571.619,105.285C571.757,105.285 571.869,105.173 571.869,105.035C571.869,104.897 571.757,104.785 571.619,104.785L570.619,104.785C570.481,104.785 570.369,104.897 570.369,105.035C570.369,105.173 570.481,105.285 570.619,105.285ZM561.674,124.239C561.813,124.235 561.921,124.12 561.917,123.982C561.912,123.849 561.908,123.717 561.904,123.584C561.9,123.446 561.785,123.337 561.647,123.342C561.509,123.346 561.4,123.461 561.405,123.599L561.417,123.997C561.421,124.135 561.536,124.244 561.674,124.239ZM553.881,110.715L552.881,110.715C552.743,110.715 552.631,110.827 552.631,110.965C552.631,111.103 552.743,111.215 552.881,111.215L553.881,111.215C554.019,111.215 554.131,111.103 554.131,110.965C554.131,110.827 554.019,110.715 553.881,110.715ZM551.631,110.715L550.631,110.715C550.493,110.715 550.381,110.827 550.381,110.965C550.381,111.103 550.493,111.215 550.631,111.215L551.631,111.215C551.769,111.215 551.881,111.103 551.881,110.965C551.881,110.827 551.769,110.715 551.631,110.715ZM549.381,110.715L548.381,110.715C548.243,110.715 548.131,110.827 548.131,110.965C548.131,111.103 548.243,111.215 548.381,111.215L549.381,111.215C549.519,111.215 549.631,111.103 549.631,110.965C549.631,110.827 549.519,110.715 549.381,110.715ZM571.69,108.212C570.215,109.523 568.063,109.629 566.478,108.548C566.783,109.467 566.885,110.588 566.91,111.556L566.715,111.806C562.321,112.779 558.254,115.198 555.299,118.591C555.925,119.116 556.624,119.489 557.32,119.906C557.423,119.711 557.548,119.512 557.672,119.327C558.89,117.518 560.813,115.909 562.978,115.321C564.144,114.288 565.42,113.38 566.777,112.616L566.805,112.6C568.523,111.636 570.426,110.874 572.446,110.397L571.69,108.212ZM571.94,111.501C572.004,111.33 571.91,111.199 571.764,111.089C571.597,111.135 571.43,111.184 571.264,111.234C571.535,111.294 571.749,111.384 571.94,111.501ZM571.961,112.293C571.961,112.099 571.741,111.952 571.567,111.865C571.242,111.701 570.86,111.656 570.451,111.655L570.262,111.566C569.242,111.934 568.252,112.381 567.3,112.899C567.63,113.282 568.017,113.581 568.5,113.737L568.5,113.102L568.75,112.852L570.372,112.852L570.622,113.102L570.622,113.573C570.918,113.573 571.265,113.578 571.58,113.475C571.705,113.435 571.923,113.336 571.927,113.204C571.927,113.06 571.702,112.908 571.568,112.841C571.242,112.677 570.86,112.632 570.451,112.631C570.313,112.631 570.202,112.519 570.202,112.381C570.202,112.243 570.314,112.131 570.453,112.131C570.965,112.133 571.471,112.197 571.909,112.459L571.92,112.446L571.961,112.293ZM570.122,113.352L569,113.352L569,114.503L570.122,114.503L570.122,113.352ZM570.122,115.003L569,115.003L569,122.796L569.561,124.526L570.122,122.797L570.122,115.003ZM563.167,115.787C561.781,116.15 560.619,116.914 559.729,117.721C558.804,118.558 558.063,119.553 557.746,120.171C559.383,121.233 560.15,122.548 559.642,125.283C560.554,125.48 561.348,125.776 562.132,126.126L562.248,125.928L562.273,125.729C562.272,125.592 562.234,125.535 562.128,125.482C561.807,125.32 561.115,125.361 560.675,124.918L560.382,124.623C560.284,124.524 560.285,124.366 560.383,124.269C560.481,124.172 560.64,124.172 560.736,124.271L561.03,124.566C561.343,124.881 561.967,124.829 562.377,125.049C562.379,124.619 562.357,124.229 562.445,123.873C562.563,123.4 562.849,123.016 563.17,122.657C562.308,122.265 561.692,122.013 561.209,121.673C560.92,121.469 560.604,121.181 560.605,120.826C560.605,120.53 560.717,120.151 560.836,119.893C560.896,119.768 561.044,119.715 561.169,119.774C561.282,119.828 561.353,119.963 561.282,120.121L561.218,120.285L561.229,120.301C561.346,120.434 561.792,120.52 561.965,120.547C562.436,120.622 563.044,120.644 563.519,120.638L563.677,120.359C564.114,119.375 564.4,117.116 563.858,116.185C563.601,115.739 563.274,115.818 563.167,115.787ZM563.446,121.139C562.827,121.142 561.659,121.105 561.105,120.817C561.104,120.925 561.242,121.06 561.323,121.13C561.515,121.297 561.858,121.512 562.401,121.758C562.996,122.028 563.495,121.535 563.446,121.139ZM559.348,125.733L559.264,125.717C557.974,125.478 557.063,125.567 555.823,125.718C555.634,126.356 555.272,126.97 554.875,127.495C555.445,127.473 555.88,127.755 556.15,128.261C556.302,127.962 556.508,127.528 556.739,126.976C556.793,126.848 556.939,126.788 557.066,126.841C557.193,126.895 557.254,127.041 557.2,127.168C557.023,127.592 556.86,127.948 556.724,128.23C557.465,127.926 557.898,128.229 558.396,128.862L558.688,127.439C558.717,127.304 558.849,127.217 558.984,127.245C559.119,127.273 559.206,127.405 559.179,127.541L558.903,128.875C559.58,128.417 560.075,128.324 560.688,128.867C560.673,128.457 560.687,128.024 560.716,127.61C560.726,127.472 560.845,127.368 560.982,127.378C561.12,127.388 561.224,127.507 561.215,127.645C561.185,128.068 561.17,128.532 561.193,128.959C561.66,128.521 562.205,128.452 562.737,128.691C562.621,128.112 562.571,127.507 562.661,126.922C561.581,126.411 560.605,125.979 559.348,125.733ZM556.329,125.154C556.48,125.137 556.637,125.121 556.798,125.108C556.715,123.436 555.347,122.679 554.646,121.005C554.671,122.864 555.68,124.72 556.329,125.154ZM554.814,119.763C555.172,122.135 557.184,122.862 557.296,125.078C557.546,125.068 557.729,125.067 557.974,125.075C558.644,122.259 555.774,121.554 554.814,119.763ZM558.48,125.105C558.695,125.125 558.918,125.152 559.15,125.19C559.954,120.866 557.261,120.82 555.073,119.052C555.539,121.017 559.216,121.745 558.48,125.105ZM554.926,118.258C557.907,114.837 561.983,112.391 566.403,111.365C566.392,111.049 566.373,110.751 566.346,110.475C563,111.062 560.383,112.292 558.36,113.645C556.399,114.956 554.998,116.379 554.031,117.443C554.33,117.715 554.628,117.986 554.926,118.258ZM553.618,117.154C555.068,115.553 556.569,114.194 558.431,113.001L555.213,109.784C555.43,110.532 555.431,111.304 555.249,112.017C554.786,113.838 553.146,115.188 551.186,115.213C551.813,116.032 552.655,116.689 553.618,117.154ZM553.782,113.617C554.174,113.225 554.479,112.748 554.667,112.215L547.595,112.215C548.505,114.789 551.814,115.583 553.782,113.617ZM547.456,111.715L554.806,111.715C554.906,111.221 554.906,110.708 554.806,110.215L552.631,110.215L552.381,109.965L552.381,107.429C551.571,107.143 550.687,107.144 549.878,107.43L549.878,109.965L549.628,110.215L547.456,110.215C547.355,110.709 547.355,111.221 547.456,111.715ZM547.595,109.715L549.378,109.715L549.378,107.65C548.532,108.098 547.903,108.843 547.595,109.715ZM548.31,107.788C549.772,106.487 551.925,106.362 553.522,107.452C553.216,106.532 553.115,105.41 553.09,104.444L553.285,104.194C557.679,103.221 561.746,100.802 564.701,97.409C564.074,96.884 563.375,96.511 562.68,96.094C562.577,96.29 562.449,96.493 562.328,96.673C561.109,98.483 559.188,100.091 557.022,100.679C555.856,101.712 554.58,102.619 553.223,103.384L553.195,103.399C551.65,104.267 550.001,104.946 548.293,105.414C548.256,105.43 547.691,105.57 547.554,105.603L548.31,107.788ZM548.06,104.499C547.996,104.67 548.091,104.801 548.236,104.911C548.403,104.865 548.57,104.816 548.736,104.766C548.463,104.705 548.249,104.615 548.06,104.499ZM549.798,103.619C549.798,103.757 549.686,103.869 549.547,103.868C549.034,103.867 548.529,103.803 548.091,103.541L548.08,103.554L548.039,103.707C548.039,103.901 548.258,104.048 548.432,104.135C548.757,104.299 549.14,104.344 549.549,104.345L549.738,104.434C550.758,104.066 551.748,103.619 552.7,103.101C552.369,102.717 551.982,102.419 551.5,102.263L551.5,102.898L551.25,103.148L549.628,103.148L549.378,102.898L549.378,102.427C549.082,102.427 548.734,102.422 548.42,102.525C548.295,102.565 548.077,102.664 548.073,102.796C548.073,102.94 548.298,103.091 548.432,103.159C548.757,103.323 549.14,103.368 549.549,103.369C549.687,103.369 549.798,103.481 549.798,103.619ZM549.878,102.648L551,102.648L551,101.497L549.878,101.497L549.878,102.648ZM549.878,100.997L551,100.997L551,93.205L550.439,91.475L549.878,93.204L549.878,100.997ZM556.873,100.202C558.243,99.835 559.389,99.08 560.271,98.279C561.196,97.442 561.938,96.447 562.254,95.83C560.626,94.773 559.844,93.482 560.358,90.717C559.448,90.52 558.655,90.226 557.868,89.874L557.752,90.073L557.727,90.271C557.728,90.408 557.767,90.465 557.872,90.519C557.984,90.575 558.165,90.611 558.29,90.638C559.121,90.811 559.171,90.926 559.618,91.378C559.716,91.476 559.715,91.634 559.617,91.731C559.519,91.829 559.36,91.828 559.264,91.73C558.94,91.404 558.89,91.303 558.508,91.199C558.203,91.116 557.892,91.096 557.623,90.951C557.618,91.93 557.692,92.38 556.83,93.343C557.692,93.736 558.307,93.987 558.791,94.327C559.08,94.531 559.396,94.819 559.395,95.174C559.395,95.471 559.283,95.85 559.164,96.107C559.104,96.232 558.956,96.286 558.831,96.227C558.706,96.167 558.652,96.019 558.712,95.894L558.781,95.716L558.77,95.7C558.655,95.566 558.209,95.48 558.034,95.454C557.54,95.375 556.946,95.361 556.624,95.361C556.135,95.968 555.666,98.755 556.284,99.816C556.42,100.051 556.599,100.191 556.873,100.202ZM556.554,94.861C557.174,94.858 558.341,94.895 558.895,95.183C558.896,95.076 558.758,94.94 558.677,94.871C558.484,94.703 558.142,94.489 557.599,94.242C557.01,93.975 556.505,94.46 556.554,94.861ZM560.652,90.268L560.735,90.283C562.024,90.522 562.93,90.434 564.177,90.282C564.366,89.645 564.727,89.031 565.125,88.506C564.55,88.528 564.118,88.242 563.85,87.74C563.698,88.039 563.492,88.472 563.261,89.025C563.207,89.152 563.061,89.212 562.934,89.159C562.807,89.106 562.746,88.959 562.8,88.832C562.977,88.409 563.14,88.052 563.276,87.77C562.534,88.075 562.1,87.769 561.604,87.139L561.311,88.561C561.283,88.696 561.151,88.783 561.016,88.755C560.881,88.727 560.794,88.595 560.821,88.46L561.096,87.126C560.424,87.581 559.927,87.679 559.312,87.134C559.327,87.545 559.313,87.977 559.284,88.391C559.274,88.528 559.155,88.632 559.018,88.622C558.88,88.613 558.776,88.493 558.785,88.355C558.815,87.932 558.829,87.469 558.807,87.041C558.339,87.48 557.794,87.548 557.263,87.31C557.41,88.045 557.41,88.617 557.339,89.079C558.415,89.587 559.394,90.021 560.652,90.268ZM563.671,90.846C563.52,90.863 563.363,90.879 563.202,90.893C563.284,92.564 564.652,93.319 565.354,94.995C565.329,93.136 564.32,91.28 563.671,90.846ZM565.186,96.237C564.827,93.865 562.816,93.14 562.703,90.923C562.451,90.933 562.269,90.934 562.026,90.926C561.356,93.741 564.226,94.446 565.186,96.237ZM561.52,90.895C561.305,90.876 561.082,90.848 560.85,90.81C560.046,95.135 562.741,95.183 564.927,96.949C564.46,94.982 560.783,94.257 561.52,90.895ZM565.074,97.742C562.093,101.163 558.017,103.609 553.597,104.635C553.608,104.951 553.627,105.249 553.654,105.525C557,104.938 559.617,103.708 561.64,102.355C563.601,101.044 565.002,99.621 565.969,98.558C565.67,98.286 565.372,98.014 565.074,97.742ZM566.382,98.846C564.931,100.448 563.432,101.805 561.57,102.998L564.786,106.213C564.01,103.519 566.012,100.822 568.814,100.787C568.188,99.968 567.345,99.311 566.382,98.846ZM566.218,102.383C565.826,102.775 565.521,103.252 565.333,103.785L572.405,103.785C571.495,101.211 568.186,100.417 566.218,102.383ZM567.119,108.352L567.119,106.285L565.333,106.285C565.644,107.162 566.273,107.905 567.119,108.352ZM555.621,109.485L558.866,112.729C560.824,111.542 563.271,110.502 566.286,109.978C566.177,109.197 565.958,108.263 565.456,107.657C563.494,105.287 558.657,109.935 555.621,109.485ZM552.881,107.648L552.881,109.715L554.667,109.715C554.356,108.838 553.727,108.095 552.881,107.648ZM564.382,106.516L561.136,103.27C559.177,104.458 556.73,105.497 553.713,106.022C553.823,106.803 554.042,107.737 554.544,108.343C556.502,110.709 561.354,106.063 564.382,106.516ZM572.544,104.285L565.194,104.285C565.094,104.779 565.094,105.292 565.194,105.785L567.369,105.785L567.619,106.035L567.619,108.571C568.428,108.857 569.313,108.856 570.122,108.57L570.122,106.035L570.372,105.785L572.544,105.785C572.645,105.291 572.645,104.778 572.544,104.285ZM572.405,106.285L570.622,106.285L570.622,108.35C571.459,107.907 572.094,107.166 572.405,106.285ZM572.082,107.815L573.009,110.495L572.827,110.821C572.655,110.858 572.484,110.901 572.313,110.943C572.516,111.235 572.505,111.581 572.321,111.85C572.534,112.167 572.489,112.538 572.286,112.792C572.542,113.153 572.456,113.603 571.96,113.857C571.544,114.069 571.06,114.073 570.622,114.073L570.622,114.503L572.561,114.503C572.699,114.503 572.811,114.615 572.811,114.753C572.811,114.891 572.699,115.003 572.561,115.003L570.622,115.003L570.622,122.837C570.604,122.947 570.699,122.637 569.799,125.413L569.323,125.413L568.512,122.913C568.494,122.797 568.5,123.438 568.5,115.003L566.561,115.003C566.423,115.003 566.311,114.891 566.311,114.753C566.311,114.615 566.423,114.503 566.561,114.503L568.5,114.503L568.5,114.258C567.834,114.083 567.298,113.686 566.854,113.149C565.731,113.794 564.666,114.541 563.678,115.377C565.254,116.001 564.615,120.047 563.914,120.944C564.051,121.425 563.77,121.938 563.332,122.182C563.452,122.236 563.571,122.291 563.691,122.345L563.77,122.744C563.427,123.108 563.049,123.514 562.931,123.993C562.772,124.621 563.057,125.639 562.595,126.338C563.024,126.539 563.049,126.55 563.078,126.57L563.182,126.727C563.218,126.906 562.911,127.601 563.372,129.182L562.964,129.437C562.331,128.861 561.716,128.923 561.225,129.715L560.818,129.741C560.646,129.529 560.497,129.366 560.366,129.249C559.89,128.821 559.63,128.926 558.681,129.658L558.324,129.604C558.118,129.314 557.756,128.792 557.46,128.657C557.263,128.567 557.065,128.622 556.862,128.713C556.697,128.786 556.496,128.904 556.255,129.067L555.873,128.924C555.634,128.018 555.059,127.791 554.291,128.156C554.141,128.178 554.153,128.178 554.143,128.177L554.003,127.754C554.201,127.547 554.412,127.286 554.583,127.049C555.036,126.42 555.259,125.906 555.388,125.426L555.463,125.303L555.678,125.232C555.361,124.877 555.081,124.409 554.874,123.98C554.071,122.32 553.843,120.334 554.639,118.673C554.271,118.338 553.906,118.004 553.539,117.67C552.326,117.112 551.271,116.267 550.544,115.174C548.475,114.888 546.881,113.113 546.881,110.965C546.881,109.902 547.272,108.931 547.918,108.185L546.991,105.505L547.173,105.179C547.345,105.142 547.516,105.099 547.687,105.057C547.479,104.757 547.502,104.409 547.679,104.15C547.468,103.836 547.508,103.465 547.714,103.208C547.521,102.936 547.536,102.636 547.704,102.413C548.004,102.012 548.677,101.928 549.178,101.927L549.378,101.927L549.378,101.497L547.439,101.497C547.301,101.497 547.189,101.385 547.189,101.247C547.189,101.109 547.301,100.997 547.439,100.997L549.378,100.997C549.378,92.572 549.372,93.201 549.391,93.086L550.201,90.587L550.677,90.587C551.577,93.363 551.482,93.054 551.5,93.165L551.5,100.997L553.439,100.997C553.577,100.997 553.689,101.109 553.689,101.247C553.689,101.385 553.577,101.497 553.439,101.497L551.5,101.497L551.5,101.742C552.169,101.917 552.704,102.316 553.146,102.851C554.287,102.195 555.369,101.435 556.371,100.581C554.975,99.872 555.503,96.244 556.137,95.191C555.896,94.686 556.184,94.09 556.668,93.819C556.548,93.764 556.429,93.71 556.309,93.655L556.23,93.256C556.573,92.893 556.951,92.487 557.069,92.007C557.228,91.376 556.942,90.362 557.405,89.663C556.947,89.449 556.908,89.442 556.855,89.362L556.818,89.274C556.782,89.095 557.089,88.399 556.628,86.819L557.036,86.564C557.668,87.138 558.283,87.079 558.775,86.286L559.182,86.26C559.354,86.472 559.503,86.635 559.634,86.751C560.111,87.181 560.373,87.072 561.319,86.343L561.676,86.395C561.882,86.686 562.244,87.207 562.54,87.343C562.736,87.434 562.935,87.379 563.138,87.288C563.303,87.214 563.504,87.097 563.745,86.934L564.127,87.077C564.366,87.982 564.94,88.21 565.709,87.844C565.859,87.822 565.847,87.822 565.857,87.824L565.997,88.247C565.799,88.453 565.588,88.715 565.417,88.952C564.962,89.583 564.734,90.11 564.612,90.575L564.537,90.698L564.322,90.769C564.639,91.123 564.918,91.591 565.126,92.02C565.92,93.663 566.164,95.653 565.361,97.328C565.729,97.662 566.094,97.996 566.462,98.331C567.674,98.889 568.729,99.734 569.456,100.826C571.252,101.075 572.634,102.449 572.988,103.985C573.318,105.286 573.027,106.723 572.082,107.815ZM558.583,92.003C558.587,92.136 558.591,92.269 558.596,92.401C558.6,92.539 558.491,92.654 558.353,92.659C558.215,92.663 558.1,92.554 558.096,92.416C558.092,92.284 558.087,92.151 558.083,92.019C558.079,91.88 558.188,91.766 558.326,91.761C558.464,91.757 558.579,91.866 558.583,92.003Z" style="fill:rgb(31,31,31);fill-rule:nonzero;"/>
        </g>
    </g>
</svg>
