<?xml version="1.0" encoding="UTF-8" standalone="no"?>
<!DOCTYPE svg PUBLIC "-//W3C//DTD SVG 1.1//EN" "http://www.w3.org/Graphics/SVG/1.1/DTD/svg11.dtd">
<svg width="100%" height="100%" viewBox="0 0 40 56" version="1.1" xmlns="http://www.w3.org/2000/svg" xmlns:xlink="http://www.w3.org/1999/xlink" xml:space="preserve" xmlns:serif="http://www.serif.com/" style="fill-rule:evenodd;clip-rule:evenodd;stroke-linejoin:round;stroke-miterlimit:2;">
    <g transform="matrix(1,0,0,1,-540,-140)">
        <g>
            <path d="M577.5,196L542.5,196C541.119,196 540,194.881 540,193.5L540,142.5C540,141.119 541.119,140 542.5,140L577.5,140C578.881,140 580,141.119 580,142.5L580,193.5C580,194.881 578.881,196 577.5,196Z" style="fill:white;fill-rule:nonzero;"/>
            <path d="M577.5,196L542.5,196C541.119,196 540,194.881 540,193.5L540,142.5C540,141.119 541.119,140 542.5,140L577.5,140C578.881,140 580,141.119 580,142.5L580,193.5C580,194.881 578.881,196 577.5,196ZM577.5,195.8L542.5,195.8C541.229,195.8 540.2,194.771 540.2,193.5L540.2,142.5C540.2,141.229 541.229,140.2 542.5,140.2L577.5,140.2C578.771,140.2 579.8,141.229 579.8,142.5C579.8,142.5 579.8,193.5 579.8,193.5C579.8,194.771 578.771,195.8 577.5,195.8Z" style="fill:rgb(204,204,204);"/>
            <path d="M545.999,149.688C545.729,150.376 544.374,150.629 544.374,151.688C544.374,152.171 544.766,152.563 545.249,152.563C545.504,152.563 545.731,152.452 545.891,152.278C545.861,152.574 545.764,152.923 545.5,153.188L545.5,153.313L546.5,153.313L546.5,153.188C546.235,152.923 546.139,152.574 546.108,152.279C546.269,152.452 546.495,152.563 546.749,152.563C547.232,152.563 547.624,152.171 547.624,151.688C547.624,150.629 546.271,150.376 545.999,149.688Z" style="fill:rgb(31,31,31);fill-rule:nonzero;"/>
            <path d="M574,185.813C574.271,185.124 575.625,184.871 575.625,183.813C575.625,183.329 575.233,182.938 574.75,182.938C574.496,182.938 574.269,183.048 574.108,183.222C574.139,182.926 574.235,182.577 574.5,182.313L574.5,182.188L573.5,182.188L573.5,182.313C573.764,182.577 573.861,182.926 573.892,183.221C573.731,183.048 573.505,182.938 573.25,182.938C572.767,182.938 572.375,183.329 572.375,183.813C572.375,184.871 573.729,185.124 574,185.813Z" style="fill:rgb(31,31,31);fill-rule:nonzero;"/>
            <path d="M546.016,147.913L546.016,148.25L543.982,148.25L543.982,147.913L544.437,147.825L544.548,147.769L544.588,147.654L544.588,144.32L544.55,144.202L544.439,144.143L543.982,144.052L543.982,143.706L545.993,143.706L545.993,144.052L545.53,144.143L545.423,144.202L545.385,144.32L545.385,146.149L547.096,144.151L546.571,144.052L546.571,143.706L548.221,143.706L548.221,144.052L547.79,144.143L547.688,144.179L547.602,144.244L546.473,145.501C546.575,145.621 546.673,145.753 546.764,145.896C546.854,146.04 546.959,146.214 547.078,146.417L547.782,147.619L547.89,147.763L548.044,147.837L548.352,147.913L548.352,148.25L547.308,148.25C547.235,148.25 547.16,148.194 547.079,148.083C546.999,147.971 546.908,147.82 546.808,147.63C546.808,147.63 546.2,146.482 546.14,146.374C546.078,146.265 546.018,146.166 545.958,146.077L545.385,146.726L545.385,147.66L545.426,147.774L545.539,147.828L546.016,147.913Z" style="fill:rgb(31,31,31);fill-rule:nonzero;"/>
            <path d="M573.98,187.587L573.98,187.25L576.014,187.25L576.014,187.587L575.561,187.675L575.448,187.731L575.408,187.846L575.408,191.18L575.447,191.298L575.557,191.357L576.014,191.448L576.014,191.794L574.004,191.794L574.004,191.448L574.467,191.357L574.574,191.298L574.611,191.18L574.611,189.351L572.9,191.349L573.425,191.448L573.425,191.794L571.775,191.794L571.775,191.448L572.206,191.357L572.309,191.321L572.395,191.256L573.523,189.999C573.421,189.879 573.324,189.747 573.232,189.604C573.142,189.46 573.037,189.286 572.918,189.083L572.215,187.881L572.107,187.737L571.953,187.663L571.645,187.587L571.645,187.25L572.689,187.25C572.761,187.25 572.836,187.306 572.917,187.417C572.998,187.529 573.088,187.68 573.189,187.87C573.189,187.87 573.796,189.018 573.857,189.126C573.918,189.235 573.979,189.334 574.039,189.423L574.611,188.774L574.611,187.84L574.57,187.726L574.457,187.672L573.98,187.587Z" style="fill:rgb(31,31,31);fill-rule:nonzero;"/>
            <path d="M570.5,145.375C569.958,146.753 567.25,147.257 567.25,149.375C567.25,150.341 568.033,151.125 569,151.125C569.51,151.125 569.964,150.904 570.283,150.557C570.224,151.147 570.029,151.847 569.501,152.375L569.501,152.625L571.501,152.625L571.501,152.375C570.973,151.847 570.778,151.149 570.718,150.558C571.037,150.904 571.491,151.125 572,151.125C572.967,151.125 573.75,150.341 573.75,149.375C573.75,147.257 571.042,146.753 570.5,145.375Z" style="fill:rgb(31,31,31);fill-rule:nonzero;"/>
            <path d="M549.5,190.627C548.959,189.25 546.25,188.745 546.25,186.627C546.25,185.661 547.034,184.877 548,184.877C548.51,184.877 548.964,185.099 549.284,185.446C549.224,184.855 549.029,184.156 548.501,183.627L548.501,183.377L550.501,183.377L550.501,183.627C549.974,184.156 549.778,184.854 549.718,185.445C550.038,185.098 550.491,184.877 551,184.877C551.967,184.877 552.75,185.661 552.75,186.627C552.75,188.745 550.042,189.25 549.5,190.627Z" style="fill:rgb(31,31,31);fill-rule:nonzero;"/>
            <path d="M544.001,156L544.001,191.75L544.251,192L569.001,192L569.001,191.5L544.501,191.5L544.501,156L544.001,156ZM576.001,180L575.501,180L575.501,144.5L551.001,144.5L551.001,144L575.751,144L576.001,144.25L576.001,180Z" style="fill:rgb(31,31,31);fill-rule:nonzero;"/>
            <path d="M567.561,168.933C565.092,170.263 562.433,170.182 560.211,169.033L561.641,166.883L561.551,166.533C560.451,165.913 559.241,165.563 558.011,165.483C560.221,164.693 562.291,163.543 564.151,162.083C563.167,165.089 565.006,168.096 567.561,168.933Z" style="fill:rgb(201,49,18);fill-rule:nonzero;"/>
            <path d="M562.25,189.18C559.932,190.622 557.004,190.026 555.366,187.93C557.676,187.92 559.99,188.34 562.25,189.18Z" style="fill:rgb(201,49,18);fill-rule:nonzero;"/>
            <path d="M562.769,188.838C560.219,187.848 557.602,187.372 555.012,187.432C555.574,186.647 555.688,186.143 555.83,185.719C557.195,185.492 558.361,185.549 559.302,185.727C559.557,185.727 560.624,186.068 560.92,186.17C561.52,186.39 562.101,186.661 562.661,186.921C562.661,187.021 562.504,187.697 562.769,188.838Z" style="fill:rgb(249,203,25);fill-rule:nonzero;"/>
            <path d="M558.89,185.2C558.66,185.16 558.44,185.13 558.24,185.11C558.23,184.08 557.95,182.74 557.14,181.82C556.186,180.77 554.199,180.868 554.95,179.06C555.194,181.013 559.895,178.718 558.89,185.2Z" style="fill:rgb(35,75,194);fill-rule:nonzero;"/>
            <path d="M557.74,185.08C557.47,185.07 557.23,185.07 556.99,185.08C556.479,182.123 554.752,182.308 554.64,180.72C555.227,181.385 556.29,181.619 556.76,182.15C557.47,182.95 557.72,184.14 557.74,185.08Z" style="fill:rgb(35,75,194);fill-rule:nonzero;"/>
            <path d="M556.49,185.12C556.35,185.13 556.22,185.14 556.09,185.15C555.618,184.854 554.72,183.508 554.47,181.8C555.017,182.701 556.097,182.948 556.49,185.12Z" style="fill:rgb(35,75,194);fill-rule:nonzero;"/>
            <path d="M569.35,171.99C569.35,171.861 569.455,171.74 569.61,171.74C569.676,171.74 569.771,171.742 569.87,171.746L569.87,171.269C569.777,171.264 569.685,171.26 569.6,171.26C569.271,171.26 569.264,170.76 569.61,170.76C569.676,170.76 569.771,170.763 569.87,170.767L569.87,170.324C569.776,170.317 569.683,170.31 569.6,170.31C569.271,170.31 569.264,169.81 569.61,169.81L569.87,169.823L569.87,169.235C569.155,169.055 569.11,169.162 568.75,169.19C568.75,174.991 568.692,173.366 568.93,174.08C569,174.29 568.96,174.53 568.82,174.7C568.72,174.8 568.75,174.175 568.75,179.06C568.85,179.02 568.96,179 569.08,178.98C569.21,178.95 569.34,179.06 569.36,179.19C569.38,179.33 569.28,179.46 569.14,179.48C568.53,179.56 568.06,180.09 568.06,180.71C568.1,180.84 568.7,182.02 569.31,183.18C569.92,182.02 570.52,180.84 570.57,180.67C570.56,180.29 570.35,179.89 569.99,179.66C569.823,179.56 569.87,179.912 569.87,172.248C569.777,172.244 569.685,172.24 569.6,172.24C569.47,172.24 569.35,172.12 569.35,171.99Z" style="fill:rgb(249,203,25);fill-rule:nonzero;"/>
            <path d="M566.4,174.17C565.65,174.73 564.93,175.34 564.24,176C563.88,175.92 563.48,175.9 563.06,175.91C563.805,175.165 564.4,174.52 565.81,173.49C565.98,173.74 566.18,173.97 566.4,174.17Z" style="fill:rgb(35,75,194);fill-rule:nonzero;"/>
            <path d="M565.54,173.07C564.377,173.917 563.303,174.881 562.31,175.97C559.94,176.32 557.55,177.8 556.38,179.65L556.24,179.61C555.137,179.329 554.696,179.227 555.86,177.46C558.42,174.93 561.62,173.08 565.09,172.1C565.21,172.42 565.36,172.75 565.54,173.07Z" style="fill:rgb(249,203,25);fill-rule:nonzero;"/>
            <path d="M555.35,172.8C555.433,172.369 555.428,171.917 555.35,171.51L555.84,171.42C555.929,171.848 555.938,172.41 555.84,172.9L555.35,172.8ZM554.85,170.3C554.621,169.938 554.253,169.569 553.89,169.34L554.17,168.92C554.541,169.156 554.977,169.581 555.27,170.02L554.85,170.3ZM554.17,175.39L553.89,174.98C554.253,174.731 554.612,174.386 554.85,174.01L555.27,174.29C554.957,174.759 554.547,175.15 554.17,175.39ZM552.03,174.54C550.72,174.54 549.65,173.47 549.65,172.16C549.65,170.84 550.72,169.77 552.03,169.77C553.35,169.77 554.42,170.84 554.42,172.16C554.42,173.47 553.35,174.54 552.03,174.54ZM551.29,175.96L551.39,175.47C551.81,175.55 552.26,175.55 552.68,175.47L552.77,175.96C552.349,176.048 551.785,176.059 551.29,175.96ZM549.9,175.39C549.49,175.129 549.077,174.726 548.8,174.29L549.22,174.01C549.453,174.379 549.81,174.726 550.18,174.98L549.9,175.39ZM548.72,172.8L548.23,172.9C548.132,172.407 548.142,171.844 548.23,171.42L548.72,171.51C548.642,171.921 548.639,172.372 548.72,172.8ZM549.9,168.92L550.18,169.34C549.811,169.573 549.464,169.928 549.21,170.3L548.8,170.02C549.066,169.602 549.508,169.169 549.9,168.92ZM552.77,168.35L552.68,168.84C552.26,168.76 551.81,168.76 551.39,168.84L551.29,168.35C551.78,168.26 552.29,168.26 552.77,168.35ZM552.03,167.23C549.19,167.23 547.28,169.77 547.28,172.16C547.28,174.54 549.19,177.09 552.03,177.09C554.88,177.09 556.78,174.54 556.78,172.16C556.78,169.77 554.88,167.23 552.03,167.23Z" style="fill:rgb(249,203,25);fill-rule:nonzero;"/>
            <path d="M571.31,163.14L571.8,163.05C571.912,163.59 571.9,164.026 571.8,164.53C570.877,164.342 571.591,164.684 571.31,163.14ZM570.82,161.93C570.54,161.51 570.262,161.245 569.86,160.97L570.13,160.55C570.632,160.893 571.007,161.293 571.24,161.66L570.82,161.93ZM570.13,167.03L569.86,166.61C570.26,166.336 570.539,166.071 570.82,165.65L571.24,165.92C570.938,166.364 570.606,166.705 570.13,167.03ZM568,166.18C566.68,166.18 565.61,165.11 565.61,163.79C565.61,162.47 566.68,161.4 568,161.4C569.32,161.4 570.39,162.47 570.39,163.79C570.39,165.11 569.32,166.18 568,166.18ZM567.26,167.59L567.35,167.1C567.78,167.18 568.22,167.18 568.65,167.1L568.74,167.59C568.291,167.684 567.71,167.684 567.26,167.59ZM565.87,167.03C565.394,166.705 565.063,166.364 564.76,165.92L565.18,165.65C565.46,166.07 565.738,166.335 566.14,166.61L565.87,167.03ZM564.69,164.43L564.2,164.53C564.1,164.028 564.087,163.592 564.2,163.05C565.132,163.221 564.397,162.891 564.69,164.43ZM565.87,160.55L566.14,160.97C565.74,161.244 565.461,161.509 565.18,161.93L564.76,161.66C564.994,161.293 565.368,160.892 565.87,160.55ZM568.74,159.98L568.64,160.48C568.22,160.39 567.78,160.39 567.36,160.48L567.26,159.98C567.74,159.89 568.26,159.89 568.74,159.98ZM568,158.86C565.16,158.86 563.25,161.41 563.25,163.79C563.25,166.17 565.16,168.72 568,168.72C570.84,168.72 572.75,166.17 572.75,163.79C572.75,161.41 570.84,158.86 568,158.86Z" style="fill:rgb(249,203,25);fill-rule:nonzero;"/>
            <path d="M556,173.82C556.986,170.861 555.159,167.812 552.59,166.97C555.031,165.654 557.738,165.726 559.95,166.87L558.52,169.02L558.6,169.38C559.71,170 560.92,170.34 562.16,170.42C559.95,171.21 557.87,172.36 556,173.82Z" style="fill:rgb(35,75,194);fill-rule:nonzero;"/>
            <path d="M564.17,158.48C561.61,161.01 558.42,162.87 554.95,163.84C554.82,163.52 554.67,163.2 554.49,162.88C555.776,161.943 556.798,160.994 557.72,159.98C560.09,159.63 562.48,158.15 563.66,156.3C564.99,156.632 565.312,156.746 564.17,158.48Z" style="fill:rgb(249,203,25);fill-rule:nonzero;"/>
            <path d="M556.96,160.04C556.179,160.913 555.159,161.762 554.22,162.46C554.05,162.21 553.86,161.97 553.63,161.77C554.39,161.21 555.11,160.6 555.79,159.94C556.119,160.014 556.629,160.095 556.96,160.04Z" style="fill:rgb(201,49,18);fill-rule:nonzero;"/>
            <path d="M565.57,154.15C565.002,153.234 563.946,153.002 563.55,150.83C563.69,150.82 563.81,150.8 563.94,150.79C564.422,151.079 565.338,152.526 565.57,154.15Z" style="fill:rgb(35,75,194);fill-rule:nonzero;"/>
            <path d="M565.4,155.23C564.844,154.6 563.711,154.308 563.27,153.79C562.56,152.99 562.31,151.8 562.3,150.86C562.516,150.881 562.824,150.865 563.04,150.85C563.571,153.845 565.263,153.604 565.4,155.23Z" style="fill:rgb(35,75,194);fill-rule:nonzero;"/>
            <path d="M565.08,156.88C564.834,154.916 560.144,157.244 561.15,150.75C561.37,150.79 561.59,150.82 561.8,150.84C561.81,151.87 562.09,153.21 562.9,154.12C563.777,155.148 565.844,155.042 565.08,156.88Z" style="fill:rgb(35,75,194);fill-rule:nonzero;"/>
            <path d="M565.52,148.51C564.916,149.396 564.839,149.815 564.7,150.23C562.311,150.429 561.283,150.637 557.87,149.02L557.88,149.01C557.98,148.35 557.89,147.67 557.77,147.11C560.31,148.1 562.93,148.57 565.52,148.51Z" style="fill:rgb(249,203,25);fill-rule:nonzero;"/>
            <path d="M565.16,148.01C562.85,148.02 560.54,147.6 558.28,146.76C560.683,145.295 563.572,145.957 565.16,148.01Z" style="fill:rgb(201,49,18);fill-rule:nonzero;"/>
            <path d="M550.89,156.47C551.51,156.39 551.97,155.85 551.97,155.23C551.93,155.1 551.33,153.93 550.72,152.77C550.11,153.93 549.52,155.11 549.47,155.27C549.47,155.66 549.69,156.05 550.05,156.28C550.193,156.375 550.16,156.066 550.16,163.701C550.249,163.705 550.336,163.71 550.43,163.71C550.761,163.71 550.762,164.21 550.43,164.21C550.362,164.21 550.264,164.207 550.16,164.203L550.16,164.678C550.249,164.683 550.336,164.688 550.43,164.69C550.765,164.69 550.757,165.19 550.43,165.19C550.362,165.188 550.264,165.184 550.16,165.179L550.16,165.625C550.255,165.633 550.349,165.64 550.43,165.64C550.761,165.64 550.762,166.14 550.43,166.14C550.348,166.14 550.253,166.133 550.16,166.126L550.16,166.703C550.793,166.864 550.931,166.804 551.28,166.75L551.28,162.2C551.063,161.889 550.96,161.566 551.22,161.25C551.306,161.121 551.28,161.837 551.28,156.89L550.92,156.97C550.622,156.97 550.582,156.514 550.89,156.47Z" style="fill:rgb(249,203,25);fill-rule:nonzero;"/>
            <path d="M569.89,163.79C569.89,164.83 569.04,165.68 568,165.68C566.96,165.68 566.11,164.83 566.11,163.79C566.11,162.75 566.96,161.9 568,161.9C569.04,161.9 569.89,162.75 569.89,163.79Z" style="fill:rgb(35,75,194);fill-rule:nonzero;"/>
            <path d="M553.922,172.158C553.922,173.198 553.08,174.04 552.03,174.04C550.99,174.04 550.15,173.2 550.15,172.16C550.15,171.11 550.99,170.27 552.03,170.27C553.08,170.27 553.922,171.108 553.922,172.158Z" style="fill:rgb(201,49,18);fill-rule:nonzero;"/>
            <path d="M554.992,164.696L555.113,165.181L555.599,165.059L555.478,164.574L554.992,164.696ZM557.796,163.724L557.998,164.182C558.269,164.063 558.174,164.104 558.457,163.979L558.256,163.521L557.796,163.724ZM560.451,162.375L560.712,162.801C560.979,162.638 560.883,162.696 561.14,162.54L560.88,162.113L560.451,162.375ZM556.407,164.263L556.577,164.733C556.869,164.627 556.767,164.664 557.05,164.562L556.879,164.092L556.407,164.263ZM559.146,163.093L559.378,163.537C559.654,163.392 559.555,163.444 559.822,163.304L559.591,162.861L559.146,163.093ZM564.029,159.712L564.373,160.075C564.6,159.861 564.518,159.938 564.737,159.73L564.394,159.367L564.029,159.712ZM561.705,161.57L561.993,161.978C562.139,161.875 562.261,161.789 562.403,161.688L562.114,161.28L561.705,161.57ZM562.899,160.682L563.217,161.068C563.458,160.871 563.371,160.942 563.605,160.75L563.288,160.364L562.899,160.682ZM565.45,159L565.792,158.634L565.427,158.292L565.084,158.659L565.45,159ZM549.678,169.337L549.402,168.919C548.965,169.208 548.587,169.586 548.298,170.023L548.715,170.299C548.966,169.918 549.297,169.588 549.678,169.337ZM554.354,170.299L554.771,170.023C554.486,169.594 554.11,169.212 553.666,168.919L553.391,169.337C553.771,169.587 554.102,169.917 554.354,170.299ZM552.179,168.843L552.274,168.352C551.786,168.257 551.283,168.257 550.794,168.352L550.89,168.843C551.314,168.76 551.754,168.76 552.179,168.843ZM552.87,170.82C552.132,170.083 550.938,170.082 550.198,170.82C549.461,171.559 549.46,172.752 550.198,173.492C550.937,174.229 552.131,174.23 552.87,173.492C553.607,172.753 553.608,171.56 552.87,170.82ZM553.922,172.158C553.922,173.478 552.854,174.544 551.534,174.545C550.215,174.544 549.146,173.475 549.146,172.156C549.146,170.836 550.215,169.767 551.534,169.767C552.854,169.767 553.922,170.838 553.922,172.158ZM548.715,174.013L548.298,174.288C548.577,174.711 548.951,175.095 549.402,175.392L549.678,174.975C549.296,174.723 548.966,174.393 548.715,174.013ZM548.221,171.511L547.73,171.416C547.639,171.889 547.633,172.394 547.73,172.896L548.221,172.801C548.139,172.375 548.139,171.937 548.221,171.511ZM555.338,172.896C555.43,172.423 555.436,171.92 555.338,171.416L554.848,171.511C554.928,171.927 554.932,172.365 554.848,172.801L555.338,172.896ZM554.354,174.013C554.102,174.394 553.771,174.724 553.391,174.975L553.666,175.392C554.096,175.109 554.478,174.733 554.771,174.288L554.354,174.013ZM550.89,175.469L550.794,175.96C551.282,176.054 551.786,176.055 552.274,175.96L552.179,175.469C551.755,175.551 551.316,175.552 550.89,175.469ZM558.36,151.706C558.222,151.709 558.113,151.825 558.118,151.963C558.122,152.096 558.126,152.228 558.13,152.36C558.134,152.499 558.249,152.607 558.387,152.603C558.525,152.599 558.634,152.483 558.63,152.346C558.625,152.213 558.621,152.081 558.617,151.948C558.613,151.81 558.498,151.701 558.36,151.706ZM565.042,171.249L564.921,170.764L564.436,170.886L564.557,171.371L565.042,171.249ZM563.627,171.682L563.457,171.212C563.16,171.319 563.279,171.276 562.984,171.383L563.155,171.853L563.627,171.682ZM559.583,173.57L559.322,173.144C559.057,173.306 559.152,173.248 558.894,173.405L559.155,173.832L559.583,173.57ZM560.888,172.851L560.656,172.408C560.378,172.554 560.48,172.5 560.212,172.641L560.443,173.083L560.888,172.851ZM562.238,172.221L562.036,171.763C561.753,171.888 561.852,171.845 561.577,171.965L561.778,172.423L562.238,172.221ZM558.329,174.375L558.041,173.967C557.786,174.147 557.877,174.083 557.631,174.257L557.92,174.665L558.329,174.375ZM556.005,176.232L555.661,175.87C555.433,176.086 555.517,176.006 555.297,176.215L555.641,176.578L556.005,176.232ZM557.135,175.263L556.817,174.876C556.577,175.073 556.662,175.003 556.43,175.194L556.746,175.581L557.135,175.263ZM554.584,176.945L554.242,177.311L554.607,177.652L554.949,177.286L554.584,176.945ZM570.356,166.608L570.633,167.025C571.068,166.737 571.447,166.359 571.736,165.921L571.319,165.646C571.071,166.021 570.744,166.353 570.356,166.608ZM565.681,165.646L565.264,165.921C565.553,166.359 565.931,166.737 566.367,167.025L566.644,166.608C566.27,166.361 565.937,166.033 565.681,165.646ZM567.855,167.102L567.76,167.593C568.248,167.688 568.751,167.688 569.24,167.593L569.145,167.102C568.727,167.183 568.288,167.186 567.855,167.102ZM569.836,162.453C569.098,161.716 567.903,161.715 567.164,162.453C566.427,163.191 566.426,164.385 567.164,165.125C567.902,165.862 569.097,165.863 569.836,165.125C570.573,164.386 570.574,163.192 569.836,162.453ZM570.889,163.789C570.889,165.108 569.819,166.178 568.5,166.178C567.181,166.178 566.11,165.109 566.11,163.79C566.11,162.47 567.181,161.4 568.5,161.4C569.819,161.4 570.889,162.47 570.889,163.789ZM573.25,163.789C573.25,161.96 572.134,160.097 570.414,159.286C569.202,158.714 567.788,158.718 566.586,159.286C564.879,160.092 563.749,161.945 563.75,163.789C563.749,165.618 564.865,167.48 566.586,168.292C567.798,168.864 569.212,168.86 570.414,168.292C572.121,167.486 573.251,165.633 573.25,163.789ZM569.425,169.134C569.385,169.135 569.295,169.164 569,169.193L569,173.726C569.111,173.882 569.216,174.091 569.215,174.284C569.215,174.459 569.145,174.636 569,174.766L569,179.057C569.104,179.021 569.214,178.995 569.326,178.98C569.463,178.962 569.589,179.058 569.607,179.195C569.626,179.332 569.529,179.458 569.393,179.476C568.794,179.556 568.326,180.062 568.313,180.688C568.423,180.989 569.523,183.105 569.561,183.177C569.731,182.852 570.681,181.038 570.81,180.689C570.801,180.258 570.576,179.882 570.236,179.663C570.146,179.604 570.106,179.496 570.13,179.396C570.118,179.346 570.122,179.814 570.122,172.777C570.122,172.639 570.234,172.527 570.372,172.527C570.51,172.527 570.622,172.639 570.622,172.777L570.622,173.155C570.88,173.125 571.309,173.031 571.461,172.823L571.452,172.617C571.184,172.28 570.285,172.237 569.854,172.236C569.716,172.235 569.604,172.123 569.604,171.985C569.604,171.847 569.717,171.735 569.854,171.736C570.383,171.737 571.116,171.791 571.562,172.063C571.775,171.745 571.312,171.464 570.939,171.371C570.614,171.289 570.189,171.26 569.854,171.26C569.716,171.259 569.604,171.147 569.604,171.009C569.604,170.871 569.717,170.759 569.854,170.76C570.236,170.761 570.693,170.794 571.062,170.886C571.295,170.945 571.434,171.009 571.593,171.105C571.682,170.865 571.448,170.688 571.22,170.574C570.882,170.402 570.232,170.309 569.854,170.308C569.716,170.308 569.604,170.196 569.604,170.058C569.604,169.919 569.717,169.808 569.854,169.808C570.313,169.81 570.957,169.909 571.379,170.099L571.332,169.791C571.086,169.483 569.98,169.133 569.425,169.134ZM568.565,174.434L568.715,174.284L568.571,173.984C568.397,173.761 568.131,173.572 567.92,173.309C567.577,172.879 567.443,172.313 567.538,171.793C567.563,171.658 567.693,171.568 567.829,171.593C567.965,171.618 568.055,171.748 568.029,171.883C567.958,172.274 568.067,172.694 568.311,172.997L568.5,173.2L568.5,169.219C568.212,169.219 567.931,169.195 567.659,169.149C567.069,169.521 566.443,169.817 565.747,170.042C566.439,170.792 566.867,171.422 566.867,171.422L566.715,171.806C566.497,171.854 566.281,171.907 566.066,171.962C566.387,172.787 566.894,173.653 567.658,174.115C567.979,174.31 568.347,174.418 568.565,174.434ZM566.898,174.164C566.652,173.941 566.49,173.747 566.305,173.485C565.272,174.247 564.374,175.047 563.565,175.893C563.965,175.88 564.359,175.906 564.754,175.992C565.428,175.337 566.145,174.727 566.898,174.164ZM563.006,181.208C562.957,181.113 562.875,181.058 562.781,181.006C562.518,180.861 562.046,180.688 561.762,180.592C561.773,181.165 561.866,181.542 562.392,181.754C562.803,181.92 563.148,181.492 563.006,181.208ZM557.371,179.79C558.119,180.03 558.737,180.392 559.171,181.052C559.935,182.21 559.848,183.917 559.634,185.282C560.55,185.479 561.346,185.775 562.132,186.126L562.248,185.927L562.258,185.616C562.146,185.4 561.165,185.5 560.35,184.773C560.247,184.681 560.237,184.523 560.329,184.42C560.421,184.317 560.579,184.308 560.683,184.399C561.308,184.956 561.95,184.896 562.377,185.091C562.377,185.057 562.376,184.77 562.376,184.659C562.378,183.863 562.475,183.434 563.17,182.657C562.845,182.509 562.194,182.213 562.194,182.213C561.321,181.857 561.245,181.141 561.264,180.244L561.583,180.009C561.94,180.114 562.794,180.411 563.135,180.636C563.221,180.598 563.321,180.564 563.456,180.453C563.859,180.121 564.038,179.463 564.131,178.945C564.191,178.613 564.349,178.32 564.633,178.128C565.146,177.781 565.877,177.872 566.466,178.056C566.343,177.709 566.145,177.384 565.868,177.105C564.163,175.389 559.295,176.933 557.371,179.79ZM559.302,185.727L559.259,185.717C557.975,185.479 557.068,185.568 555.83,185.719C555.71,186.21 555.474,186.767 555.012,187.432C557.524,187.374 560.114,187.804 562.769,188.838C562.631,188.215 562.563,187.552 562.661,186.921C561.578,186.409 560.498,185.933 559.302,185.727ZM562.278,189.186C559.979,188.331 557.686,187.917 555.366,187.93C557.021,190.069 560.006,190.594 562.278,189.186ZM556.185,185.037L556.329,185.154C556.463,185.139 556.602,185.125 556.743,185.113C556.351,182.95 555.288,182.721 554.711,181.794C554.925,183.22 555.635,184.523 556.185,185.037ZM556.868,179.645C558.097,177.713 560.582,176.289 562.82,175.96C563.765,174.918 564.817,173.958 566.036,173.063C565.856,172.75 565.706,172.421 565.581,172.092C562.124,173.065 558.919,174.933 556.365,177.456C556.128,177.815 555.677,178.535 555.679,178.963C555.679,179.071 555.704,179.154 555.776,179.23C555.963,179.431 556.507,179.549 556.868,179.645ZM557.011,182.151C556.531,181.607 555.449,181.37 554.885,180.729C554.908,181.02 554.977,181.237 555.072,181.422C555.538,182.317 556.814,182.61 557.244,185.08C557.516,185.068 557.728,185.066 557.997,185.075C557.978,184.073 557.682,182.909 557.011,182.151ZM558.497,185.107C558.704,185.126 558.919,185.153 559.143,185.189C560.156,178.687 555.401,181 555.187,179.079C555.026,179.47 554.935,179.892 555.15,180.251C555.543,180.901 556.767,181.123 557.386,181.82C558.147,182.683 558.483,183.97 558.497,185.107ZM554.926,178.258C557.967,174.77 562.016,172.419 566.236,171.404C565.925,170.991 565.567,170.573 565.206,170.196C565.108,170.22 565.012,170.243 564.915,170.264C561.668,171.055 558.614,172.634 556.077,174.811C555.528,175.8 554.695,176.622 553.665,177.11C554.087,177.493 554.507,177.875 554.926,178.258ZM553.448,176.659C555.159,175.852 556.285,173.996 556.284,172.156C556.285,170.328 555.169,168.464 553.448,167.653C552.236,167.081 550.822,167.085 549.62,167.653C547.913,168.458 546.783,170.312 546.784,172.156C546.784,173.984 547.9,175.847 549.62,176.659C550.832,177.231 552.246,177.227 553.448,176.659ZM550.609,166.81C550.648,166.81 550.744,166.78 551.034,166.752L551.034,162.219C550.924,162.063 550.818,161.854 550.818,161.661C550.818,161.485 550.89,161.309 551.034,161.179L551.034,156.888C550.93,156.923 550.82,156.949 550.708,156.964C550.571,156.983 550.445,156.887 550.427,156.75C550.408,156.613 550.505,156.487 550.642,156.469C551.24,156.389 551.708,155.883 551.722,155.257C551.611,154.956 550.51,152.838 550.474,152.768C550.3,153.099 549.356,154.902 549.225,155.256C549.233,155.687 549.458,156.063 549.798,156.282C549.889,156.341 549.928,156.449 549.904,156.549C549.916,156.599 549.912,156.131 549.912,163.167C549.912,163.305 549.8,163.417 549.662,163.417C549.524,163.417 549.412,163.305 549.412,163.167L549.412,162.79C549.156,162.82 548.726,162.913 548.573,163.122L548.582,163.328C548.851,163.665 549.75,163.708 550.181,163.709C550.318,163.709 550.431,163.821 550.43,163.959C550.43,164.098 550.317,164.209 550.18,164.209C549.65,164.208 548.918,164.154 548.473,163.881C548.26,164.199 548.721,164.48 549.095,164.573C549.42,164.655 549.845,164.685 550.181,164.685C550.318,164.686 550.431,164.797 550.43,164.936C550.43,165.074 550.317,165.186 550.18,165.185C549.798,165.184 549.341,165.151 548.973,165.058C548.74,165 548.601,164.937 548.441,164.839C548.354,165.079 548.585,165.256 548.814,165.371C549.151,165.542 549.8,165.636 550.181,165.637C550.318,165.637 550.431,165.749 550.43,165.887C550.43,166.025 550.317,166.137 550.18,166.137C549.722,166.135 549.077,166.036 548.655,165.846L548.702,166.154C548.952,166.466 550.065,166.811 550.609,166.81ZM551.469,161.511L551.318,161.661L551.463,161.96C551.637,162.185 551.902,162.371 552.114,162.636C552.458,163.067 552.591,163.634 552.496,164.151C552.472,164.287 552.342,164.377 552.206,164.352C552.069,164.327 551.979,164.197 552.005,164.061C552.076,163.669 551.965,163.249 551.724,162.948L551.534,162.745L551.534,166.726C551.822,166.726 552.104,166.75 552.375,166.796C552.973,166.419 553.6,166.125 554.287,165.903C553.595,165.153 553.167,164.523 553.167,164.523L553.319,164.139C553.537,164.091 553.753,164.038 553.968,163.983C553.647,163.157 553.14,162.292 552.376,161.83C552.057,161.636 551.689,161.526 551.469,161.511ZM553.136,161.781C553.382,162.004 553.545,162.199 553.729,162.46C554.758,161.701 555.656,160.901 556.469,160.052C556.07,160.064 555.676,160.039 555.28,159.953C554.606,160.608 553.889,161.218 553.136,161.781ZM557.028,154.737C557.077,154.832 557.16,154.888 557.253,154.938C557.517,155.083 557.987,155.256 558.272,155.353C558.261,154.774 558.166,154.403 557.643,154.191C557.229,154.024 556.887,154.455 557.028,154.737ZM562.663,156.155C561.915,155.915 561.297,155.553 560.863,154.893C560.1,153.734 560.187,152.028 560.4,150.663C559.486,150.466 558.689,150.17 557.902,149.819L557.786,150.017L557.776,150.329C557.888,150.545 558.869,150.444 559.685,151.172C559.787,151.264 559.797,151.422 559.705,151.525C559.613,151.628 559.455,151.637 559.352,151.545C558.727,150.988 558.083,151.049 557.657,150.853C557.657,150.888 557.658,151.175 557.658,151.285C557.656,152.074 557.564,152.506 556.864,153.288C557.189,153.436 557.84,153.731 557.84,153.731C558.394,153.958 558.669,154.354 558.746,154.95C558.777,155.193 558.775,155.453 558.771,155.7L558.451,155.936C558.093,155.831 557.241,155.534 556.899,155.309C556.813,155.347 556.713,155.38 556.578,155.492C556.175,155.824 555.996,156.481 555.903,157C555.843,157.332 555.686,157.625 555.401,157.817C554.889,158.164 554.157,158.073 553.568,157.889C553.691,158.235 553.89,158.561 554.166,158.839C555.871,160.556 560.739,159.011 562.663,156.155ZM560.729,150.215L560.774,150.228C562.063,150.467 562.975,150.377 564.204,150.228C564.324,149.735 564.561,149.175 565.021,148.511C562.508,148.569 559.922,148.143 557.266,147.108C557.403,147.729 557.471,148.391 557.373,149.023C558.455,149.535 559.533,150.008 560.729,150.215ZM557.756,146.759C560.055,147.614 562.353,148.027 564.673,148.015C563.021,145.88 560.033,145.348 557.756,146.759ZM563.85,150.907L563.705,150.791C563.571,150.806 563.433,150.819 563.291,150.832C563.684,152.995 564.746,153.224 565.323,154.15C565.108,152.721 564.396,151.419 563.85,150.907ZM563.166,156.3C561.938,158.231 559.452,159.656 557.214,159.984C556.281,161.013 555.232,161.975 553.998,162.882C554.178,163.195 554.328,163.523 554.454,163.853C557.91,162.879 561.115,161.012 563.67,158.489C563.906,158.129 564.357,157.409 564.355,156.981C564.354,156.874 564.33,156.791 564.258,156.714C564.071,156.514 563.527,156.395 563.166,156.3ZM563.023,153.793C563.504,154.338 564.584,154.573 565.149,155.215C565.017,153.598 563.308,153.841 562.79,150.865C562.52,150.876 562.309,150.879 562.037,150.87C562.057,151.872 562.353,153.036 563.023,153.793ZM561.537,150.838C561.33,150.819 561.115,150.792 560.892,150.756C559.878,157.256 564.633,154.946 564.848,156.866C565.007,156.478 565.101,156.055 564.884,155.693C564.489,155.041 563.269,154.823 562.648,154.125C561.886,153.261 561.551,151.973 561.537,150.838ZM556.516,173.808C558.356,172.368 560.426,171.22 562.625,170.43C561.374,170.346 560.172,169.979 559.103,169.378L559.018,169.021L560.448,166.875C558.11,165.664 555.364,165.716 553.069,166.968C555.676,167.81 557.48,170.852 556.516,173.808ZM563.519,162.137C561.679,163.577 559.608,164.725 557.409,165.515C558.66,165.599 559.862,165.966 560.932,166.566L561.017,166.923L559.586,169.07C560.681,169.637 561.91,169.948 563.179,169.948C564.482,169.948 565.789,169.619 566.965,168.977C564.298,168.115 562.573,165.034 563.519,162.137ZM565.108,157.687C562.129,161.105 558.102,163.505 553.798,164.541C554.109,164.954 554.466,165.371 554.828,165.749C554.926,165.724 555.023,165.702 555.121,165.681C558.367,164.889 561.42,163.311 563.957,161.134C564.54,160.083 565.399,159.294 566.369,158.835C565.947,158.451 565.527,158.069 565.108,157.687ZM570.468,168.815C570.752,168.899 571.033,169.005 571.268,169.131C571.644,169.336 571.899,169.569 571.901,169.995C571.901,170.125 571.872,170.251 571.802,170.364C572.165,170.687 572.198,171.125 571.974,171.454C572.192,171.779 572.141,172.162 571.919,172.418C572.092,172.736 572.003,173.14 571.519,173.408C571.287,173.535 570.987,173.621 570.622,173.657L570.622,179.324C571.04,179.643 571.311,180.147 571.311,180.714C571.31,180.928 570.751,181.958 569.561,184.25C569.41,183.963 567.877,181.082 567.816,180.771L567.811,180.714C567.811,180.184 568.05,179.668 568.5,179.324L568.5,174.929C568.178,174.897 567.767,174.766 567.399,174.543L567.31,174.483C566.608,175 565.939,175.561 565.307,176.16C566.294,176.554 566.899,177.422 567.076,178.416L567.079,178.463L567.073,178.511L567.058,178.558L567.041,178.587L567.015,178.623L566.979,178.656L566.942,178.679L566.87,178.704L566.823,178.707L566.774,178.701C566.725,178.689 565.676,178.197 565.031,178.477C564.791,178.583 564.671,178.773 564.623,179.034C564.479,179.833 564.198,180.675 563.474,181.032C563.637,181.417 563.48,181.85 563.149,182.098C563.33,182.181 563.511,182.263 563.691,182.345L563.77,182.744C563.427,183.108 563.049,183.514 562.931,183.993C562.771,184.627 563.06,185.635 562.595,186.338C563.069,186.56 563.094,186.562 563.145,186.638C563.253,186.802 563.114,186.902 563.114,187.546C563.114,188.157 563.252,188.77 563.372,189.182L563.036,189.482L562.848,189.407C560.24,191.264 556.579,190.636 554.755,187.943L554.514,187.952L554.307,187.546C555.493,186.064 555.235,185.398 555.523,185.264L555.678,185.232C554.849,184.302 554.145,182.548 554.144,180.929C554.144,180.184 554.285,179.412 554.639,178.673C554.143,178.221 553.649,177.771 553.151,177.318C551.955,177.728 550.6,177.675 549.406,177.111C547.503,176.212 546.285,174.171 546.284,172.156C546.285,170.093 547.562,167.992 549.566,167.13C549.282,167.046 549.001,166.939 548.767,166.813C548.396,166.611 548.135,166.378 548.133,165.95C548.133,165.82 548.162,165.693 548.232,165.581C547.869,165.258 547.836,164.82 548.061,164.491C547.843,164.167 547.893,163.784 548.115,163.526C547.985,163.287 548.017,163.03 548.173,162.822C548.438,162.472 548.971,162.332 549.412,162.288L549.412,156.621C548.994,156.302 548.724,155.797 548.724,155.23C548.725,155.042 549.021,154.492 550.474,151.695C550.681,152.088 552.059,154.688 552.201,155.112L552.224,155.23C552.224,155.761 551.984,156.277 551.534,156.621L551.534,161.016C551.855,161.048 552.267,161.179 552.635,161.402L552.725,161.461C553.426,160.944 554.095,160.384 554.728,159.785C553.731,159.387 553.13,158.505 552.959,157.532L552.957,157.514L552.958,157.458L552.971,157.404L552.977,157.387L553.001,157.343L553.033,157.307L553.305,157.258C553.714,157.437 554.162,157.553 554.528,157.552C555.004,157.553 555.326,157.375 555.411,156.91C555.556,156.111 555.837,155.269 556.561,154.913C556.396,154.526 556.557,154.093 556.885,153.846C556.704,153.764 556.523,153.682 556.343,153.6L556.265,153.201C557.022,152.396 557.159,152.118 557.158,151.285C557.158,150.682 557.125,150.082 557.439,149.606L556.979,149.388L556.859,149.242C556.837,149.169 556.852,149.122 556.881,148.931C556.987,148.24 556.859,147.438 556.662,146.763L556.998,146.462L557.187,146.538C559.794,144.681 563.455,145.309 565.28,148.001L565.521,147.993L565.729,148.398C564.723,149.653 564.703,150.417 564.629,150.566L564.488,150.691L564.356,150.713C564.673,151.067 564.953,151.536 565.16,151.965C565.96,153.618 566.195,155.602 565.396,157.272C565.892,157.724 566.385,158.174 566.883,158.626C567.386,158.455 567.928,158.359 568.5,158.359C572.4,158.358 575.23,162.922 572.905,166.68C572.328,167.612 571.493,168.374 570.468,168.815ZM570.633,160.553L570.356,160.97C570.731,161.217 571.063,161.545 571.319,161.932L571.736,161.657C571.448,161.22 571.069,160.841 570.633,160.553ZM572.304,163.049L571.813,163.144C571.894,163.558 571.897,163.996 571.813,164.434L572.304,164.529C572.396,164.056 572.401,163.553 572.304,163.049ZM564.696,163.049C564.604,163.521 564.599,164.025 564.696,164.529L565.187,164.434C565.104,164.005 565.105,163.566 565.187,163.144L564.696,163.049ZM566.644,160.97L566.367,160.553C565.931,160.841 565.553,161.219 565.264,161.657L565.681,161.932C565.927,161.56 566.254,161.227 566.644,160.97ZM569.145,160.476L569.24,159.985C568.752,159.89 568.249,159.89 567.76,159.985L567.855,160.476C568.275,160.395 568.714,160.392 569.145,160.476ZM561.417,183.997C561.413,183.864 561.408,183.732 561.404,183.599C561.4,183.461 561.509,183.346 561.647,183.342C561.785,183.337 561.9,183.446 561.904,183.584C561.908,183.717 561.912,183.849 561.917,183.982C561.921,184.12 561.813,184.235 561.674,184.239C561.536,184.244 561.421,184.135 561.417,183.997Z" style="fill:rgb(31,31,31);fill-rule:nonzero;"/>
        </g>
    </g>
</svg>
