<?xml version="1.0" encoding="UTF-8" standalone="no"?>
<!DOCTYPE svg PUBLIC "-//W3C//DTD SVG 1.1//EN" "http://www.w3.org/Graphics/SVG/1.1/DTD/svg11.dtd">
<svg width="100%" height="100%" viewBox="0 0 40 56" version="1.1" xmlns="http://www.w3.org/2000/svg" xmlns:xlink="http://www.w3.org/1999/xlink" xml:space="preserve" xmlns:serif="http://www.serif.com/" style="fill-rule:evenodd;clip-rule:evenodd;stroke-linejoin:round;stroke-miterlimit:2;">
    <g transform="matrix(1,0,0,1,-20,-20)">
        <g>
            <path d="M57.5,76L22.5,76C21.119,76 20,74.881 20,73.5L20,22.5C20,21.12 21.119,20 22.5,20L57.5,20C58.88,20 60,21.12 60,22.5L60,73.5C60,74.881 58.88,76 57.5,76Z" style="fill:white;fill-rule:nonzero;"/>
            <path d="M57.5,76L22.5,76C21.119,76 20,74.881 20,73.5L20,22.5C20,21.12 21.119,20 22.5,20L57.5,20C58.88,20 60,21.12 60,22.5L60,73.5C60,74.881 58.88,76 57.5,76ZM57.5,75.8L22.5,75.8C21.229,75.8 20.2,74.771 20.2,73.5L20.2,22.5C20.2,21.23 21.229,20.2 22.5,20.2L57.5,20.2C58.77,20.2 59.8,21.23 59.8,22.5C59.8,22.5 59.8,73.5 59.8,73.5C59.8,74.771 58.77,75.8 57.5,75.8Z" style="fill:rgb(204,204,204);"/>
            <path d="M27.53,31.533C27.237,31.24 26.762,31.24 26.469,31.533L26.147,31.854C26.228,31.566 26.393,31.418 26.53,31.281C26.823,30.988 26.823,30.513 26.53,30.22C26.384,30.074 26.193,30.001 26.002,30C25.81,30.001 25.615,30.074 25.469,30.22C25.176,30.513 25.176,30.988 25.469,31.281C25.606,31.418 25.771,31.566 25.852,31.854L25.53,31.533C25.237,31.24 24.762,31.24 24.469,31.533C24.176,31.826 24.176,32.3 24.469,32.593C24.762,32.886 25.237,32.886 25.53,32.593L25.9,32.223L25.901,32.244C25.908,32.568 25.857,33.081 25.5,33.438L25.5,33.563L26.5,33.563L26.5,33.438C26.144,33.082 26.091,32.574 26.097,32.249L26.099,32.223L26.469,32.593C26.762,32.886 27.237,32.886 27.53,32.593C27.823,32.3 27.823,31.826 27.53,31.533Z" style="fill:rgb(31,31,31);fill-rule:nonzero;"/>
            <path d="M52.469,64.468C52.762,64.761 53.237,64.761 53.53,64.468L53.852,64.146C53.771,64.435 53.606,64.583 53.469,64.72C53.176,65.013 53.176,65.488 53.469,65.781C53.615,65.927 53.807,66 53.998,66C54.189,66 54.384,65.927 54.53,65.781C54.823,65.488 54.823,65.013 54.53,64.72C54.393,64.583 54.228,64.435 54.147,64.146L54.469,64.468C54.762,64.761 55.237,64.761 55.53,64.468C55.823,64.175 55.823,63.701 55.53,63.408C55.237,63.115 54.762,63.115 54.469,63.408L54.099,63.778L54.098,63.757C54.091,63.433 54.142,62.92 54.5,62.563L54.5,62.438L53.5,62.438L53.5,62.563C53.855,62.918 53.908,63.427 53.902,63.752L53.9,63.778L53.53,63.408C53.237,63.115 52.762,63.115 52.469,63.408C52.176,63.701 52.176,64.175 52.469,64.468Z" style="fill:rgb(31,31,31);fill-rule:nonzero;"/>
            <path d="M26.641,26.729L25.926,24.6L25.245,26.729L26.641,26.729ZM25.387,28.163L25.387,28.5L23.811,28.5L23.811,28.163L24.183,28.073L24.288,28.023L24.349,27.924L25.713,23.942L26.476,23.942L27.883,27.924L27.944,28.022L28.049,28.073L28.393,28.163L28.393,28.5L26.519,28.5L26.519,28.163L27.086,28.061L26.775,27.133L25.117,27.133L24.82,28.061L25.387,28.163Z" style="fill:rgb(31,31,31);fill-rule:nonzero;"/>
            <path d="M53.358,69.272L54.074,71.401L54.755,69.272L53.358,69.272ZM54.612,67.838L54.612,67.5L56.189,67.5L56.189,67.838L55.816,67.928L55.712,67.978L55.651,68.077L54.286,72.059L53.524,72.059L52.116,68.077L52.055,67.979L51.95,67.928L51.607,67.838L51.607,67.5L53.481,67.5L53.481,67.838L52.913,67.94L53.225,68.868L54.883,68.868L55.179,67.94L54.612,67.838Z" style="fill:rgb(31,31,31);fill-rule:nonzero;"/>
            <path d="M46.121,46.128C44.949,44.956 43.049,44.956 41.878,46.128L40.59,47.415C40.914,46.26 41.573,45.668 42.121,45.121C43.292,43.949 43.292,42.049 42.121,40.878C41.537,40.294 40.772,40.001 40.007,39.999L39.992,39.999C39.227,40.001 38.462,40.294 37.878,40.878C36.707,42.049 36.706,43.949 37.878,45.121C38.426,45.668 39.085,46.26 39.408,47.415L38.121,46.128C36.949,44.957 35.05,44.956 33.878,46.128C32.706,47.299 32.707,49.199 33.878,50.371C35.049,51.542 36.949,51.542 38.121,50.371L39.603,48.888L39.607,48.971C39.634,50.271 39.428,52.32 37.999,53.749L37.999,54.249L41.999,54.249L41.999,53.749C40.578,52.328 40.365,50.293 40.388,48.993L40.396,48.888L41.878,50.371C43.05,51.542 44.949,51.542 46.121,50.371C47.292,49.199 47.292,47.299 46.121,46.128Z" style="fill:rgb(31,31,31);fill-rule:nonzero;"/>
        </g>
    </g>
</svg>
