<?xml version="1.0" encoding="UTF-8" standalone="no"?>
<!DOCTYPE svg PUBLIC "-//W3C//DTD SVG 1.1//EN" "http://www.w3.org/Graphics/SVG/1.1/DTD/svg11.dtd">
<svg width="100%" height="100%" viewBox="0 0 40 56" version="1.1" xmlns="http://www.w3.org/2000/svg" xmlns:xlink="http://www.w3.org/1999/xlink" xml:space="preserve" xmlns:serif="http://www.serif.com/" style="fill-rule:evenodd;clip-rule:evenodd;stroke-linejoin:round;stroke-miterlimit:2;">
    <g transform="matrix(1,0,0,1,-20,-200)">
        <g>
            <path d="M57.5,256L22.5,256C21.119,256 20,254.881 20,253.5L20,202.5C20,201.119 21.119,200 22.5,200L57.5,200C58.88,200 60,201.119 60,202.5L60,253.5C60,254.881 58.88,256 57.5,256Z" style="fill:white;fill-rule:nonzero;"/>
            <path d="M57.5,256L22.5,256C21.119,256 20,254.881 20,253.5L20,202.5C20,201.119 21.119,200 22.5,200L57.5,200C58.88,200 60,201.119 60,202.5L60,253.5C60,254.881 58.88,256 57.5,256ZM57.5,255.8L22.5,255.8C21.229,255.8 20.2,254.771 20.2,253.5L20.2,202.5C20.2,201.229 21.229,200.2 22.5,200.2L57.5,200.2C58.77,200.2 59.8,201.229 59.8,202.5C59.8,202.5 59.8,253.5 59.8,253.5C59.8,254.771 58.77,255.8 57.5,255.8Z" style="fill:rgb(204,204,204);"/>
            <path d="M26,213.375C25.549,212.673 24.952,212.075 24.25,211.625C24.952,211.175 25.549,210.577 26,209.875C26.45,210.577 27.047,211.175 27.75,211.625C27.047,212.075 26.45,212.673 26,213.375Z" style="fill:rgb(201,49,18);fill-rule:nonzero;"/>
            <path d="M54,241.875C54.45,242.577 55.047,243.175 55.75,243.625C55.047,244.075 54.45,244.673 54,245.375C53.549,244.673 52.952,244.075 52.25,243.625C52.952,243.175 53.549,242.577 54,241.875Z" style="fill:rgb(201,49,18);fill-rule:nonzero;"/>
            <path d="M26.641,206.354L25.926,204.224L25.245,206.354L26.641,206.354ZM25.387,207.788L25.387,208.125L23.811,208.125L23.811,207.788L24.183,207.697L24.288,207.648L24.349,207.549L25.713,203.566L26.476,203.566L27.883,207.549L27.944,207.646L28.049,207.697L28.393,207.788L28.393,208.125L26.519,208.125L26.519,207.788L27.086,207.686L26.775,206.758L25.117,206.758L24.82,207.686L25.387,207.788Z" style="fill:rgb(201,49,18);fill-rule:nonzero;"/>
            <path d="M53.358,248.896L54.074,251.025L54.755,248.896L53.358,248.896ZM54.612,247.463L54.612,247.125L56.189,247.125L56.189,247.463L55.816,247.553L55.712,247.602L55.651,247.701L54.286,251.684L53.524,251.684L52.116,247.701L52.055,247.604L51.95,247.553L51.607,247.463L51.607,247.125L53.481,247.125L53.481,247.463L52.913,247.564L53.225,248.492L54.883,248.492L55.179,247.564L54.612,247.463Z" style="fill:rgb(201,49,18);fill-rule:nonzero;"/>
            <path d="M39.999,234.624C38.199,231.815 35.808,229.424 32.999,227.624C35.808,225.824 38.199,223.433 39.999,220.624C41.799,223.433 44.19,225.824 46.999,227.624C44.19,229.424 41.799,231.815 39.999,234.624Z" style="fill:rgb(201,49,18);fill-rule:nonzero;"/>
        </g>
    </g>
</svg>
