<?xml version="1.0" encoding="UTF-8" standalone="no"?>
<!DOCTYPE svg PUBLIC "-//W3C//DTD SVG 1.1//EN" "http://www.w3.org/Graphics/SVG/1.1/DTD/svg11.dtd">
<svg width="100%" height="100%" viewBox="0 0 40 56" version="1.1" xmlns="http://www.w3.org/2000/svg" xmlns:xlink="http://www.w3.org/1999/xlink" xml:space="preserve" xmlns:serif="http://www.serif.com/" style="fill-rule:evenodd;clip-rule:evenodd;stroke-linejoin:round;stroke-miterlimit:2;">
    <g transform="matrix(1,0,0,1,-20,-80)">
        <g>
            <path d="M57.5,136L22.5,136C21.119,136 20,134.881 20,133.5L20,82.5C20,81.12 21.119,80 22.5,80L57.5,80C58.88,80 60,81.12 60,82.5L60,133.5C60,134.881 58.88,136 57.5,136Z" style="fill:white;fill-rule:nonzero;"/>
            <path d="M26.812,90.5C26.462,90.5 26.161,90.694 26,90.978C25.838,90.694 25.537,90.5 25.187,90.5C24.669,90.5 24.25,90.92 24.25,91.438C24.25,92.473 25.724,93.029 26,93.688C26.275,93.029 27.75,92.473 27.75,91.438C27.75,90.92 27.33,90.5 26.812,90.5Z" style="fill:rgb(201,49,18);fill-rule:nonzero;"/>
            <path d="M53.187,125.25C53.537,125.25 53.838,125.056 54,124.772C54.161,125.056 54.462,125.25 54.812,125.25C55.33,125.25 55.75,124.83 55.75,124.313C55.75,123.277 54.275,122.722 54,122.063C53.724,122.722 52.25,123.277 52.25,124.313C52.25,124.83 52.669,125.25 53.187,125.25Z" style="fill:rgb(201,49,18);fill-rule:nonzero;"/>
            <path d="M26.641,86.604L25.926,84.475L25.245,86.604L26.641,86.604ZM25.387,88.038L25.387,88.375L23.811,88.375L23.811,88.038L24.183,87.948L24.288,87.898L24.349,87.799L25.713,83.817L26.476,83.817L27.883,87.799L27.944,87.897L28.049,87.948L28.393,88.038L28.393,88.375L26.519,88.375L26.519,88.038L27.086,87.936L26.775,87.008L25.117,87.008L24.82,87.936L25.387,88.038Z" style="fill:rgb(201,49,18);fill-rule:nonzero;"/>
            <path d="M53.358,129.146L54.074,131.276L54.755,129.146L53.358,129.146ZM54.612,127.712L54.612,127.375L56.189,127.375L56.189,127.712L55.816,127.803L55.712,127.852L55.651,127.951L54.286,131.934L53.524,131.934L52.116,127.951L52.055,127.854L51.95,127.803L51.607,127.712L51.607,127.375L53.481,127.375L53.481,127.712L52.913,127.814L53.225,128.742L54.883,128.742L55.179,127.814L54.612,127.712Z" style="fill:rgb(201,49,18);fill-rule:nonzero;"/>
            <path d="M43.249,102.374C41.85,102.374 40.644,103.149 39.999,104.286C39.355,103.149 38.149,102.374 36.749,102.374C34.678,102.374 32.999,104.053 32.999,106.124C32.999,110.265 38.897,112.487 39.999,115.124C41.101,112.487 46.999,110.265 46.999,106.124C46.999,104.053 45.32,102.374 43.249,102.374Z" style="fill:rgb(201,49,18);fill-rule:nonzero;"/>
        </g>
    </g>
</svg>
