<?xml version="1.0" encoding="UTF-8" standalone="no"?>
<!DOCTYPE svg PUBLIC "-//W3C//DTD SVG 1.1//EN" "http://www.w3.org/Graphics/SVG/1.1/DTD/svg11.dtd">
<svg width="100%" height="100%" viewBox="0 0 40 56" version="1.1" xmlns="http://www.w3.org/2000/svg" xmlns:xlink="http://www.w3.org/1999/xlink" xml:space="preserve" xmlns:serif="http://www.serif.com/" style="fill-rule:evenodd;clip-rule:evenodd;stroke-linejoin:round;stroke-miterlimit:2;">
    <g transform="matrix(1,0,0,1,-20,-140)">
        <g>
            <path d="M57.5,196L22.5,196C21.119,196 20,194.881 20,193.5L20,142.5C20,141.119 21.119,140 22.5,140L57.5,140C58.88,140 60,141.119 60,142.5L60,193.5C60,194.881 58.88,196 57.5,196Z" style="fill:white;fill-rule:nonzero;"/>
            <path d="M25.999,149.688C25.728,150.376 24.374,150.629 24.374,151.688C24.374,152.171 24.766,152.563 25.249,152.563C25.504,152.563 25.731,152.452 25.891,152.278C25.861,152.574 25.764,152.923 25.5,153.188L25.5,153.313L26.5,153.313L26.5,153.188C26.235,152.923 26.138,152.574 26.108,152.279C26.268,152.452 26.495,152.563 26.749,152.563C27.232,152.563 27.624,152.171 27.624,151.688C27.624,150.629 26.27,150.376 25.999,149.688Z" style="fill:rgb(31,31,31);fill-rule:nonzero;"/>
            <path d="M54,185.813C54.271,185.124 55.625,184.871 55.625,183.813C55.625,183.329 55.233,182.938 54.75,182.938C54.496,182.938 54.268,183.048 54.108,183.222C54.138,182.926 54.235,182.577 54.5,182.313L54.5,182.188L53.5,182.188L53.5,182.313C53.764,182.577 53.861,182.926 53.891,183.221C53.731,183.048 53.504,182.938 53.25,182.938C52.767,182.938 52.375,183.329 52.375,183.813C52.375,184.871 53.729,185.124 54,185.813Z" style="fill:rgb(31,31,31);fill-rule:nonzero;"/>
            <path d="M26.641,146.479L25.926,144.349L25.245,146.479L26.641,146.479ZM25.387,147.913L25.387,148.25L23.811,148.25L23.811,147.913L24.183,147.822L24.288,147.773L24.349,147.674L25.713,143.691L26.476,143.691L27.883,147.674L27.944,147.771L28.049,147.822L28.393,147.913L28.393,148.25L26.519,148.25L26.519,147.913L27.086,147.811L26.775,146.883L25.117,146.883L24.82,147.811L25.387,147.913Z" style="fill:rgb(31,31,31);fill-rule:nonzero;"/>
            <path d="M53.358,189.021L54.074,191.151L54.755,189.021L53.358,189.021ZM54.612,187.587L54.612,187.25L56.189,187.25L56.189,187.587L55.816,187.678L55.712,187.727L55.651,187.826L54.286,191.809L53.524,191.809L52.116,187.826L52.055,187.729L51.95,187.678L51.607,187.587L51.607,187.25L53.481,187.25L53.481,187.587L52.913,187.689L53.225,188.617L54.883,188.617L55.179,187.689L54.612,187.587Z" style="fill:rgb(31,31,31);fill-rule:nonzero;"/>
            <path d="M39.997,159.499C38.914,162.255 33.497,163.264 33.497,167.499C33.497,169.432 35.064,170.999 36.997,170.999C38.016,170.999 38.925,170.556 39.564,169.862C39.445,171.044 39.056,172.442 37.999,173.499L37.999,173.999L41.999,173.999L41.999,173.499C40.943,172.442 40.554,171.046 40.433,169.865C41.072,170.558 41.98,170.999 42.997,170.999C44.93,170.999 46.497,169.432 46.497,167.499C46.497,163.264 41.081,162.255 39.997,159.499Z" style="fill:rgb(31,31,31);fill-rule:nonzero;"/>
        </g>
    </g>
</svg>
