<?xml version="1.0" encoding="UTF-8" standalone="no"?>
<!DOCTYPE svg PUBLIC "-//W3C//DTD SVG 1.1//EN" "http://www.w3.org/Graphics/SVG/1.1/DTD/svg11.dtd">
<svg width="100%" height="100%" viewBox="0 0 41 56" version="1.1" xmlns="http://www.w3.org/2000/svg" xmlns:xlink="http://www.w3.org/1999/xlink" xml:space="preserve" xmlns:serif="http://www.serif.com/" style="fill-rule:evenodd;clip-rule:evenodd;stroke-linejoin:round;stroke-miterlimit:2;">
    <g transform="matrix(1,0,0,1,-496,-260)">
        <g>
            <path d="M534.167,316L499.167,316C497.786,316 496.667,314.881 496.667,313.5L496.667,262.5C496.667,261.119 497.786,260 499.167,260L534.167,260C535.548,260 536.667,261.119 536.667,262.5L536.667,313.5C536.667,314.881 535.548,316 534.167,316Z" style="fill:white;fill-rule:nonzero;"/>
            <path d="M534.167,316L499.167,316C497.786,316 496.667,314.881 496.667,313.5L496.667,262.5C496.667,261.119 497.786,260 499.167,260L534.167,260C535.548,260 536.667,261.119 536.667,262.5L536.667,313.5C536.667,314.881 535.548,316 534.167,316ZM534.167,315.8L499.167,315.8C497.896,315.8 496.867,314.771 496.867,313.5L496.867,262.5C496.867,261.229 497.896,260.2 499.167,260.2L534.167,260.2C535.438,260.2 536.467,261.229 536.467,262.5L536.467,313.5C536.467,314.771 535.438,315.8 534.167,315.8Z" style="fill:rgb(204,204,204);"/>
            <path d="M501.004,264.42L500.923,264.465L500.896,264.553L500.896,266.627C500.896,266.881 500.881,267.096 500.854,267.275C500.826,267.454 500.771,267.609 500.688,267.738C500.606,267.869 500.49,267.982 500.34,268.079C500.189,268.176 499.992,268.27 499.747,268.359L499.625,268.102C499.765,268.012 499.879,267.926 499.967,267.842C500.055,267.758 500.123,267.665 500.171,267.563C500.219,267.461 500.252,267.343 500.269,267.207C500.286,267.072 500.295,266.91 500.295,266.719L500.295,264.553L500.268,264.464L500.186,264.42L499.841,264.352L499.841,264.092L501.308,264.092L501.308,264.352L501.004,264.42Z" style="fill:rgb(31,31,31);fill-rule:nonzero;"/>
            <path d="M503.213,264.316C502.943,264.316 502.735,264.438 502.59,264.679C502.443,264.92 502.37,265.297 502.37,265.807C502.37,266.3 502.438,266.668 502.575,266.911C502.712,267.154 502.919,267.275 503.195,267.275C503.463,267.275 503.67,267.153 503.816,266.91C503.964,266.666 504.037,266.289 504.037,265.778C504.037,265.285 503.969,264.918 503.832,264.678C503.695,264.438 503.489,264.316 503.213,264.316ZM503.147,267.563C502.905,267.563 502.694,267.523 502.515,267.443C502.334,267.363 502.184,267.25 502.064,267.104C501.945,266.956 501.856,266.777 501.798,266.564C501.738,266.354 501.709,266.117 501.709,265.855C501.709,265.565 501.745,265.307 501.816,265.079C501.888,264.852 501.989,264.66 502.123,264.506C502.256,264.353 502.419,264.234 502.612,264.153C502.806,264.072 503.022,264.031 503.263,264.031C503.504,264.031 503.716,264.07 503.896,264.15C504.077,264.229 504.228,264.342 504.346,264.489C504.465,264.637 504.554,264.815 504.613,265.027C504.673,265.238 504.702,265.475 504.702,265.737C504.702,266.025 504.667,266.283 504.596,266.511C504.524,266.738 504.422,266.93 504.289,267.084C504.156,267.239 503.993,267.357 503.8,267.439C503.605,267.521 503.389,267.563 503.147,267.563Z" style="fill:rgb(31,31,31);fill-rule:nonzero;"/>
            <path d="M506.657,267.247L506.657,267.5L505.132,267.5L505.132,267.247L505.473,267.182L505.557,267.139L505.586,267.053L505.586,264.553L505.558,264.464L505.475,264.42L505.132,264.352L505.132,264.092L506.64,264.092L506.64,264.352L506.293,264.42L506.212,264.464L506.184,264.553L506.184,265.925L507.467,264.426L507.074,264.352L507.074,264.092L508.312,264.092L508.312,264.352L507.988,264.42L507.911,264.447L507.847,264.496L507,265.438C507.077,265.528 507.149,265.627 507.218,265.734C507.286,265.843 507.365,265.973 507.454,266.125L507.981,267.026L508.063,267.135L508.178,267.189L508.409,267.247L508.409,267.5L507.626,267.5L507.455,267.375C507.395,267.291 507.326,267.178 507.251,267.035L506.75,266.093L506.613,265.87L506.184,266.357L506.184,267.057L506.215,267.143L506.3,267.184L506.657,267.247Z" style="fill:rgb(31,31,31);fill-rule:nonzero;"/>
            <path d="M511.149,264.961L510.857,264.961L510.752,264.551L510.707,264.467L510.626,264.417L510.444,264.38L510.2,264.367L509.714,264.367L509.714,265.604L510.735,265.568L510.735,265.939L509.714,265.914L509.714,267.203L510.313,267.203L510.571,267.191L510.766,267.153L510.842,267.104L510.888,267.02L511.058,266.522L511.348,266.568C511.347,266.72 511.339,266.873 511.324,267.029C511.31,267.185 511.288,267.342 511.261,267.5L508.66,267.5L508.66,267.247L509.005,267.184L509.087,267.139L509.114,267.051L509.114,264.553L509.087,264.464L509.005,264.42L508.66,264.352L508.66,264.092L511.147,264.092C511.162,264.232 511.169,264.375 511.169,264.519C511.169,264.662 511.162,264.809 511.149,264.961Z" style="fill:rgb(31,31,31);fill-rule:nonzero;"/>
            <path d="M512.81,264.352L512.81,265.748L512.945,265.754L513.086,265.757L513.301,265.757C513.471,265.756 513.611,265.694 513.721,265.573C513.83,265.453 513.886,265.262 513.886,265.002C513.886,264.777 513.833,264.609 513.729,264.496C513.625,264.383 513.442,264.326 513.181,264.326L512.968,264.336L512.81,264.352ZM513.283,267.247L513.283,267.5L511.758,267.5L511.758,267.247L512.099,267.182L512.182,267.139L512.211,267.053L512.211,264.551L512.182,264.463L512.101,264.42L511.758,264.352L511.758,264.092L512.504,264.092C512.63,264.092 512.75,264.087 512.865,264.076C512.979,264.066 513.11,264.062 513.257,264.062C513.711,264.062 514.034,264.135 514.229,264.281C514.425,264.427 514.521,264.656 514.521,264.969C514.521,265.135 514.499,265.274 514.453,265.389C514.406,265.502 514.348,265.594 514.276,265.666L514.038,265.833L513.784,265.925C513.88,265.979 513.961,266.047 514.03,266.127C514.099,266.209 514.164,266.314 514.228,266.443L514.524,267.039L514.603,267.147L514.708,267.192L514.938,267.247L514.938,267.5L514.177,267.5C514.111,267.5 514.05,267.454 513.995,267.362C513.94,267.271 513.88,267.15 513.812,267L513.593,266.5C513.544,266.396 513.498,266.303 513.451,266.219L513.31,266.019C513.218,266.019 512.878,266.017 512.81,266.017L512.81,267.057L512.841,267.143L512.926,267.184L513.283,267.247Z" style="fill:rgb(31,31,31);fill-rule:nonzero;"/>
            <path d="M532.328,311.58L532.41,311.535L532.438,311.447L532.438,309.373C532.438,309.119 532.451,308.904 532.479,308.725C532.506,308.546 532.561,308.391 532.644,308.262C532.726,308.131 532.842,308.018 532.992,307.921C533.143,307.824 533.34,307.73 533.585,307.641L533.707,307.898C533.567,307.988 533.453,308.074 533.365,308.158C533.277,308.242 533.209,308.335 533.162,308.437C533.113,308.539 533.08,308.657 533.063,308.793C533.046,308.928 533.037,309.09 533.037,309.281L533.037,311.447L533.064,311.536L533.146,311.58L533.491,311.648L533.491,311.908L532.025,311.908L532.025,311.648L532.328,311.58Z" style="fill:rgb(31,31,31);fill-rule:nonzero;"/>
            <path d="M530.119,311.684C530.389,311.684 530.597,311.563 530.742,311.321C530.889,311.08 530.962,310.703 530.962,310.193C530.962,309.7 530.894,309.332 530.757,309.089C530.62,308.846 530.414,308.725 530.137,308.725C529.869,308.725 529.662,308.847 529.516,309.09C529.369,309.334 529.295,309.711 529.295,310.222C529.295,310.715 529.363,311.082 529.5,311.322C529.637,311.563 529.844,311.684 530.119,311.684ZM530.186,308.437C530.427,308.437 530.638,308.477 530.818,308.557C530.998,308.637 531.148,308.75 531.268,308.896C531.387,309.044 531.477,309.223 531.535,309.436C531.594,309.646 531.623,309.883 531.623,310.145C531.623,310.435 531.588,310.693 531.516,310.921C531.445,311.148 531.343,311.34 531.209,311.494C531.076,311.647 530.913,311.766 530.72,311.847C530.526,311.928 530.31,311.969 530.07,311.969C529.828,311.969 529.617,311.93 529.436,311.85C529.255,311.771 529.105,311.658 528.986,311.511C528.867,311.363 528.779,311.185 528.719,310.973C528.66,310.762 528.63,310.525 528.63,310.263C528.63,309.975 528.666,309.717 528.736,309.489C528.808,309.262 528.91,309.07 529.043,308.916C529.176,308.761 529.34,308.643 529.533,308.561C529.727,308.479 529.943,308.437 530.186,308.437Z" style="fill:rgb(31,31,31);fill-rule:nonzero;"/>
            <path d="M526.675,308.753L526.675,308.5L528.2,308.5L528.2,308.753L527.859,308.818L527.775,308.861L527.746,308.947L527.746,311.447L527.774,311.536L527.857,311.58L528.2,311.648L528.2,311.908L526.692,311.908L526.692,311.648L527.039,311.58L527.12,311.536L527.148,311.447L527.148,310.075L525.865,311.574L526.258,311.648L526.258,311.908L525.021,311.908L525.021,311.648L525.344,311.58L525.422,311.553L525.486,311.504L526.332,310.563C526.256,310.472 526.183,310.373 526.114,310.266C526.046,310.157 525.967,310.027 525.879,309.875L525.351,308.974L525.27,308.865L525.154,308.811L524.923,308.753L524.923,308.5L525.706,308.5L525.877,308.625C525.938,308.709 526.006,308.822 526.082,308.965L526.582,309.907L526.719,310.13L527.148,309.643L527.148,308.943L527.117,308.857L527.033,308.816L526.675,308.753Z" style="fill:rgb(31,31,31);fill-rule:nonzero;"/>
            <path d="M522.182,311.039L522.474,311.039L522.58,311.449L522.625,311.533L522.706,311.583L522.888,311.62L523.132,311.633L523.619,311.633L523.619,310.396L522.598,310.432L522.598,310.061L523.619,310.086L523.619,308.797L523.018,308.797L522.761,308.809L522.565,308.847L522.49,308.896L522.445,308.98L522.274,309.478L521.984,309.432C521.986,309.28 521.994,309.127 522.008,308.971C522.023,308.815 522.044,308.658 522.07,308.5L524.672,308.5L524.672,308.753L524.328,308.816L524.245,308.861L524.219,308.949L524.219,311.447L524.245,311.536L524.328,311.58L524.672,311.648L524.672,311.908L522.185,311.908C522.169,311.768 522.163,311.625 522.163,311.481C522.163,311.338 522.169,311.191 522.182,311.039Z" style="fill:rgb(31,31,31);fill-rule:nonzero;"/>
            <path d="M520.521,311.648L520.521,310.252L520.387,310.246L520.245,310.243L520.031,310.243C519.861,310.244 519.721,310.306 519.611,310.427C519.502,310.547 519.447,310.738 519.447,310.998C519.447,311.223 519.499,311.391 519.604,311.504C519.706,311.617 519.89,311.674 520.151,311.674L520.364,311.664L520.521,311.648ZM520.049,308.753L520.049,308.5L521.573,308.5L521.573,308.753L521.234,308.818L521.15,308.861L521.12,308.947L521.12,311.449L521.15,311.537L521.231,311.58L521.573,311.648L521.573,311.908L520.828,311.908C520.701,311.908 520.581,311.913 520.466,311.924C520.353,311.934 520.223,311.938 520.075,311.938C519.62,311.938 519.297,311.865 519.102,311.719C518.906,311.573 518.81,311.344 518.81,311.031C518.81,310.865 518.833,310.726 518.879,310.611C518.926,310.498 518.984,310.406 519.057,310.334L519.294,310.167L519.547,310.075C519.453,310.021 519.37,309.953 519.302,309.873C519.232,309.791 519.167,309.686 519.104,309.557L518.807,308.961L518.729,308.853L518.625,308.808L518.395,308.753L518.395,308.5L519.154,308.5C519.221,308.5 519.281,308.546 519.336,308.638C519.391,308.729 519.453,308.85 519.521,309L519.739,309.5C519.787,309.604 519.834,309.697 519.88,309.781L520.023,309.981C520.114,309.981 520.453,309.983 520.521,309.983L520.521,308.943L520.492,308.857L520.406,308.816L520.049,308.753Z" style="fill:rgb(31,31,31);fill-rule:nonzero;"/>
            <path d="M522.543,303.44C522.323,304.6 521.833,305.44 521.073,305.89C519.653,306.75 517.742,306.07 517.724,306.06L516.253,305.53C515.959,305.417 515.758,305.875 516.083,306L516.862,306.28C515.909,307.975 512.987,306.73 511.684,308.62L511.674,308.61C511.604,306.193 514.55,306.854 514.354,304.44C514.301,304.071 513.831,304.178 513.854,304.48C513.883,304.86 513.793,305.13 513.653,305.35C511.193,303.79 511.163,301.9 512.033,299.22C512.167,300.507 512.935,301.563 513.033,301.76L513.043,301.75C514.377,303.686 516.336,304.476 518.703,304.5C520.172,305.273 521.724,305.081 522.503,303.43L522.543,303.44Z" style="fill:rgb(201,49,18);fill-rule:nonzero;"/>
            <path d="M521.174,293.92C519.594,295.13 518.583,295.09 518.133,294.98C520.583,292.37 522.253,289.97 523.133,287.84C523.213,289.45 523.094,292.45 521.174,293.92Z" style="fill:rgb(201,49,18);fill-rule:nonzero;"/>
            <path d="M514.163,293.62L514.112,293.67C513.354,294.66 511.883,294.95 510.674,294.36C510.569,294.256 508.262,293.352 509.224,289.64L513.583,288.77C515.653,292.294 514.021,293.62 514.163,293.62Z" style="fill:rgb(201,49,18);fill-rule:nonzero;"/>
            <path d="M515.203,281.03C512.753,283.64 511.083,286.03 510.203,288.16C510.113,286.55 510.243,283.55 512.163,282.08C513.742,280.87 514.753,280.91 515.203,281.03Z" style="fill:rgb(201,49,18);fill-rule:nonzero;"/>
            <path d="M524.112,286.36L519.753,287.23C518.174,284.54 518.703,283.04 519.184,282.38L519.224,282.33C520.002,281.302 521.505,281.071 522.703,281.67C524.163,282.42 524.684,284.17 524.112,286.36Z" style="fill:rgb(201,49,18);fill-rule:nonzero;"/>
            <path d="M521.304,276.79C521.149,275.454 520.39,274.422 520.304,274.25C518.99,272.346 516.94,271.51 514.633,271.51C514.393,271.37 513.293,270.84 512.232,271.2C511.633,271.4 511.163,271.87 510.833,272.57L510.793,272.57C511.014,271.4 511.493,270.57 512.253,270.11C513.674,269.26 515.583,269.93 515.604,269.94L517.083,270.48C517.406,270.579 517.56,270.117 517.253,270L516.474,269.72C517.435,268.009 520.387,269.265 521.643,267.38L521.663,267.39C521.731,269.778 518.789,269.168 518.982,271.56C519.008,271.884 519.507,271.857 519.482,271.52C519.453,271.14 519.533,270.87 519.674,270.65C522.143,272.21 522.163,274.11 521.304,276.79Z" style="fill:rgb(201,49,18);fill-rule:nonzero;"/>
            <path d="M501.865,278.228C502.642,278.532 503.344,279.002 503.923,279.603C504.227,278.826 504.696,278.123 505.298,277.545C504.521,277.24 503.818,276.771 503.24,276.17C502.936,276.946 502.466,277.649 501.865,278.228Z" style="fill:rgb(201,49,18);fill-rule:nonzero;"/>
            <path d="M509.801,278.558C509.683,277.601 508.374,277.429 508.008,278.313C507.612,279.269 508.762,280.347 508.764,281.062C509.271,280.558 510.846,280.608 511.242,279.652C511.607,278.769 510.563,277.964 509.801,278.558Z" style="fill:rgb(201,49,18);fill-rule:nonzero;"/>
            <path d="M529.411,296.4C529.106,297.177 528.637,297.88 528.036,298.458C528.813,298.763 529.516,299.232 530.094,299.833C530.398,299.057 530.868,298.354 531.469,297.775C530.692,297.471 529.99,297.001 529.411,296.4Z" style="fill:rgb(201,49,18);fill-rule:nonzero;"/>
            <path d="M525.326,297.69C525.722,296.733 524.572,295.656 524.57,294.941C524.063,295.445 522.487,295.395 522.091,296.351C521.727,297.232 522.77,298.04 523.533,297.444C523.651,298.402 524.96,298.574 525.326,297.69Z" style="fill:rgb(201,49,18);fill-rule:nonzero;"/>
            <path d="M518.945,292.983C519.083,292.983 519.195,292.872 519.195,292.733C519.195,292.596 519.084,292.483 518.945,292.483C518.807,292.483 518.695,292.596 518.695,292.733C518.695,292.871 518.807,292.983 518.945,292.983ZM517.834,291.979C517.701,291.942 517.563,292.021 517.526,292.154C517.491,292.287 517.568,292.425 517.703,292.461C517.836,292.497 517.974,292.419 518.01,292.285C518.046,292.152 517.966,292.015 517.834,291.979ZM516.494,291.802C516.356,291.802 516.244,291.914 516.244,292.052C516.244,292.189 516.354,292.302 516.494,292.302C516.632,292.302 516.744,292.19 516.744,292.052C516.744,291.914 516.632,291.802 516.494,291.802ZM527.298,295.693C527.101,295.497 526.786,295.498 526.591,295.693C526.394,295.891 526.396,296.205 526.591,296.4C526.787,296.596 527.102,296.595 527.298,296.4C527.494,296.203 527.492,295.889 527.298,295.693ZM526.501,295.151C526.656,295.074 526.815,295.041 526.99,295.049C526.678,293.533 526.434,292.003 526.258,290.466L526.211,290.049C526.197,289.911 526.297,289.788 526.434,289.774C526.571,289.76 526.694,289.859 526.709,289.996L526.727,290.157C526.929,290.127 527.293,290.04 527.409,289.872L527.42,289.785L527.335,289.713C527.094,289.569 526.675,289.6 526.399,289.65C526.264,289.675 526.133,289.585 526.108,289.449C526.083,289.313 526.173,289.184 526.309,289.158C526.668,289.092 527.078,289.077 527.419,289.203C527.379,288.99 527.038,288.936 526.817,288.936C526.697,288.936 526.556,288.948 526.393,288.979C526.257,289.004 526.126,288.915 526.101,288.778C526.075,288.644 526.165,288.513 526.301,288.487C526.668,288.419 527.079,288.399 527.421,288.547C527.398,288.322 527.046,288.263 526.817,288.263C526.702,288.263 526.567,288.274 526.414,288.303C526.278,288.327 526.148,288.236 526.124,288.101C526.1,287.965 526.189,287.835 526.326,287.811C526.686,287.746 527.089,287.73 527.425,287.876L527.401,287.79C527.232,287.473 526.505,287.57 526.226,287.548C526.123,287.54 526.04,287.472 526.01,287.379C525.972,287.268 525.831,284.364 526.041,281.21C525.877,281.234 525.715,281.223 525.544,281.159C525.354,283.975 525.385,286.859 525.692,289.889C525.831,290.153 526.044,290.566 526.184,290.881C526.27,291.075 526.329,291.21 526.329,291.356C526.329,291.594 526.187,291.824 525.939,291.917C526.093,293 526.28,294.079 526.501,295.151ZM525.824,291.326C525.727,291.016 525.225,290.085 525.209,290.033C525.186,289.957 525.051,288.444 524.991,287.239C524.659,287.105 524.343,286.998 524.054,286.91C524.162,287.761 524.188,288.751 524.104,289.687C524.248,289.728 524.218,289.792 524.772,290.461C525.055,290.802 525.351,291.124 525.659,291.428C525.732,291.501 525.855,291.426 525.824,291.326ZM525.533,280.571C525.727,280.77 526.042,280.772 526.24,280.58C526.438,280.387 526.441,280.071 526.25,279.873C526.057,279.676 525.74,279.672 525.543,279.864C525.344,280.058 525.341,280.373 525.533,280.571ZM518.722,282.328C517.666,283.706 518.362,285.735 519.242,287.232L523.612,286.363C524.928,281.354 520.306,280.266 518.722,282.328ZM523.635,287.849C522.825,289.807 521.265,292.175 518.636,294.984C519.63,295.243 520.851,294.546 521.669,293.919C523.386,292.607 523.75,290.004 523.635,287.849ZM516.573,297.605C516.393,297.96 516.278,298.396 516.278,298.938C516.278,300.352 516.671,302.036 517.861,302.788C518.242,303.027 518.711,303.178 519.302,303.196C519.45,303.01 519.564,302.844 519.646,302.695C519.7,302.557 519.793,302.302 519.802,302.155C519.413,302.144 518.296,302.549 517.463,301.36C517.383,301.247 517.409,301.091 517.523,301.012C517.636,300.933 517.792,300.96 517.872,301.072C518.521,301.994 519.292,301.648 519.799,301.655C519.723,301.436 519.642,301.251 519.642,300.998C519.641,300.607 519.896,300.115 520.104,299.789C520.198,299.644 520.297,299.504 520.398,299.362L519.776,299.178C519.643,299.139 519.568,299 519.607,298.867C519.645,298.744 519.771,298.655 519.935,298.704C519.952,298.51 520.002,298.324 520.102,298.147C519.5,298.055 518.794,298.163 518.291,298.538C518.181,298.62 518.023,298.598 517.94,298.486C517.857,298.376 517.882,298.219 517.992,298.137C518.56,297.714 519.309,297.566 519.999,297.631C519.5,297.207 519.905,296.515 519.614,296.302L519.438,296.224C519.27,296.177 519.098,296.179 519.038,296.173C518.115,296.143 517.046,296.681 516.573,297.605ZM519.206,304.5C517,304.483 515.028,303.748 513.7,301.997C513.098,301.204 512.638,300.197 512.524,299.234C511.635,301.988 511.734,303.829 514.171,305.368C514.341,305.098 514.378,304.8 514.352,304.48C514.34,304.343 514.44,304.222 514.578,304.21C514.716,304.199 514.838,304.301 514.849,304.438C515.051,306.843 512.088,306.227 512.164,308.605L512.177,308.612C512.307,308.423 512.468,308.257 512.646,308.114C513.841,307.171 515.351,307.59 516.573,306.987C516.899,306.828 517.193,306.604 517.37,306.285L516.581,305.998C516.452,305.95 516.386,305.807 516.432,305.678C516.479,305.548 516.623,305.48 516.753,305.528C518.297,306.09 518.297,306.104 518.693,306.193C519.552,306.387 520.534,306.4 521.338,306.021C522.353,305.54 522.841,304.566 523.052,303.457L523.003,303.449C522.567,304.369 521.844,304.93 520.834,304.928C520.265,304.928 519.659,304.741 519.206,304.5ZM522.856,302.824C523.052,303.021 523.367,303.02 523.563,302.825C523.76,302.628 523.758,302.313 523.563,302.117C523.367,301.922 523.052,301.923 522.856,302.117C522.659,302.314 522.661,302.629 522.856,302.824ZM512.125,309.172C511.928,308.976 511.613,308.977 511.418,309.172C511.222,309.368 511.224,309.683 511.418,309.879C511.615,310.074 511.93,310.073 512.125,309.879C512.32,309.682 512.318,309.367 512.125,309.172ZM512.364,298.673C512.641,298.673 512.862,298.449 512.864,298.173C512.862,297.896 512.64,297.673 512.364,297.673C512.086,297.673 511.864,297.896 511.864,298.173C511.864,298.449 512.088,298.673 512.364,298.673ZM514.559,295.496C514.607,295.035 514.616,295.064 514.624,294.386C514.164,294.789 513.602,295.034 513.004,295.122C513.695,295.343 514.254,295.449 514.559,295.496ZM514.611,293.674C515.672,292.291 514.965,290.256 514.09,288.768L509.721,289.637C508.403,294.648 513.026,295.736 514.611,293.674ZM509.699,288.154C510.509,286.195 512.068,283.827 514.698,281.018C513.703,280.76 512.482,281.457 511.664,282.083C509.946,283.397 509.583,286.005 509.699,288.154ZM516.76,278.397C516.94,278.042 517.056,277.606 517.056,277.064C517.056,275.651 516.663,273.967 515.473,273.215C515.091,272.976 514.623,272.824 514.031,272.807C513.883,272.992 513.77,273.159 513.687,273.307C513.633,273.445 513.541,273.7 513.531,273.848C513.922,273.859 515.037,273.454 515.87,274.643C515.951,274.756 515.924,274.911 515.81,274.991C515.697,275.07 515.542,275.043 515.461,274.931C514.813,274.011 514.054,274.354 513.534,274.348C513.609,274.563 513.692,274.75 513.692,275.005C513.692,275.395 513.438,275.887 513.229,276.214C513.136,276.359 513.036,276.498 512.935,276.641L513.557,276.824C513.689,276.863 513.766,277.003 513.727,277.135C513.689,277.259 513.563,277.348 513.396,277.299C513.382,277.49 513.33,277.682 513.232,277.855C513.838,277.948 514.542,277.838 515.043,277.465C515.153,277.383 515.31,277.405 515.393,277.517C515.474,277.627 515.452,277.783 515.341,277.866C514.771,278.289 514.023,278.436 513.335,278.371C513.833,278.796 513.429,279.488 513.719,279.7L513.896,279.778C514.064,279.825 514.236,279.824 514.296,279.83C515.221,279.859 516.289,279.319 516.76,278.397ZM518.054,277.06C518.054,274.76 517.104,272.3 514.413,272.3C514.362,272.3 514.318,272.149 514.393,272.05L514.492,272.021C514.349,272.014 514.208,272.002 514.063,272.002L513.914,272.037C513.818,272.104 513.852,272.274 513.905,272.3C513.961,272.313 514.627,272.266 515.352,272.586C516.986,273.307 517.556,275.293 517.556,277.064C517.556,278.757 516.518,279.899 515.057,280.248C515.478,280.771 515.547,281.68 515.557,282.35C516.104,282.519 516.762,282.653 517.331,282.569C516.959,282.56 516.547,282.502 516.063,282.35C516.043,281.31 515.873,280.64 515.533,280.24C516.623,279.99 518.054,279.1 518.054,277.06ZM515.06,282.517C515.06,282.161 515.043,281.787 514.987,281.44C514.301,282.178 513.69,282.883 513.149,283.556C514.227,284.813 516.109,285.302 517.794,284.989C517.656,284.311 517.643,283.615 517.846,282.959C517.038,283.243 516.047,283.042 515.231,282.771C515.034,282.501 515.06,282.543 515.06,282.517ZM518.724,287.336C518.344,286.669 518.08,286.048 517.913,285.475C516.078,285.824 514.05,285.306 512.835,283.954C511.275,285.961 510.35,287.674 509.881,289.095L518.724,287.336ZM520.499,292.048C522.06,290.04 522.985,288.326 523.453,286.905L514.607,288.664C514.987,289.332 515.254,289.954 515.421,290.527C517.25,290.179 519.281,290.694 520.499,292.048ZM518.347,294.563C519.033,293.825 519.643,293.12 520.185,292.447C519.107,291.189 517.224,290.701 515.539,291.014C515.677,291.692 515.69,292.388 515.487,293.044C516.296,292.759 517.287,292.961 518.103,293.231C518.292,293.5 518.273,293.469 518.273,293.485C518.273,293.841 518.291,294.214 518.347,294.563ZM518.943,303.95L518.875,303.983C519.008,303.989 519.138,304 519.271,304C519.396,304 519.479,303.958 519.479,303.833L519.429,303.702C519.367,303.689 518.709,303.738 517.982,303.417C516.348,302.695 515.778,300.709 515.778,298.938C515.778,297.243 516.818,296.103 518.276,295.755C517.856,295.231 517.786,294.324 517.776,293.652C517.231,293.484 516.578,293.35 516.011,293.432C516.382,293.441 516.791,293.499 517.273,293.65C517.293,294.69 517.463,295.36 517.793,295.76C516.713,296.02 515.283,296.91 515.283,298.94C515.283,301.24 516.232,303.7 518.913,303.7C518.972,303.7 519.021,303.848 518.943,303.95ZM514.128,271.503C516.334,271.52 518.306,272.255 519.633,274.005C520.236,274.799 520.695,275.806 520.81,276.769C521.689,274.044 521.619,272.186 519.162,270.634C519.026,270.849 518.948,271.121 518.982,271.521C518.994,271.659 518.893,271.78 518.755,271.792C518.617,271.804 518.495,271.702 518.484,271.564C518.279,269.166 521.245,269.771 521.169,267.397L521.156,267.391C521.026,267.579 520.866,267.746 520.687,267.888C519.495,268.83 517.981,268.414 516.76,269.016C516.435,269.175 516.141,269.398 515.963,269.718L516.752,270.005C516.882,270.052 516.948,270.195 516.901,270.325C516.854,270.455 516.711,270.521 516.581,270.475C515.036,269.913 515.036,269.897 514.64,269.809C513.781,269.616 512.799,269.603 511.996,269.981C510.981,270.463 510.492,271.437 510.282,272.545L510.331,272.553C510.766,271.635 511.488,271.073 512.5,271.074C513.068,271.075 513.675,271.262 514.128,271.503ZM510.478,273.178C510.28,272.981 509.966,272.983 509.771,273.178C509.574,273.375 509.576,273.689 509.771,273.885C509.968,274.081 510.282,274.08 510.478,273.885C510.674,273.688 510.672,273.373 510.478,273.178ZM521.209,266.831C521.405,267.027 521.719,267.026 521.916,266.831C522.112,266.634 522.11,266.319 521.916,266.124C521.719,265.928 521.404,265.93 521.209,266.124C521.013,266.321 521.015,266.636 521.209,266.831ZM520.969,277.33C520.693,277.33 520.471,277.554 520.469,277.83C520.471,278.106 520.693,278.33 520.969,278.33C521.247,278.33 521.469,278.106 521.469,277.83C521.469,277.553 521.245,277.33 520.969,277.33ZM518.775,280.507C518.732,280.887 518.716,280.967 518.705,281.621C519.164,281.214 519.731,280.969 520.33,280.88C519.638,280.66 519.078,280.554 518.775,280.507ZM509.28,289.093C509.172,288.238 509.146,287.247 509.229,286.315C509.085,286.274 509.112,286.207 508.562,285.542C508.279,285.201 507.983,284.879 507.675,284.574L507.505,284.646C507.505,284.78 508.107,285.927 508.114,285.942C508.182,286.098 508.329,288.483 508.343,288.764C508.675,288.896 508.99,289.005 509.28,289.093ZM507.801,295.432C507.607,295.233 507.292,295.229 507.094,295.422C506.896,295.615 506.892,295.931 507.084,296.129C507.277,296.327 507.594,296.331 507.791,296.139C507.99,295.944 507.992,295.629 507.801,295.432ZM507.203,288.481L507.324,288.624C507.359,288.727 507.507,291.578 507.292,294.793C507.457,294.768 507.619,294.78 507.79,294.844C507.978,292.045 507.95,289.161 507.642,286.114C507.503,285.85 507.29,285.437 507.15,285.122C507.063,284.927 507.005,284.792 507.005,284.646C507.005,284.407 507.147,284.179 507.394,284.086C507.241,283.002 507.054,281.924 506.832,280.852C506.678,280.929 506.518,280.962 506.344,280.954C506.656,282.47 506.9,284 507.076,285.537L507.122,285.954C507.137,286.091 507.037,286.214 506.9,286.229C506.763,286.243 506.64,286.144 506.625,286.006L506.607,285.846C506.405,285.876 506.041,285.963 505.925,286.131L505.914,286.218L505.998,286.289C506.24,286.433 506.659,286.403 506.935,286.353C507.07,286.327 507.201,286.418 507.226,286.554C507.251,286.689 507.161,286.819 507.025,286.845C506.666,286.91 506.257,286.926 505.914,286.799C505.954,287.013 506.298,287.067 506.517,287.067C506.637,287.067 506.778,287.055 506.941,287.023C507.077,286.998 507.208,287.088 507.233,287.224C507.259,287.359 507.169,287.49 507.033,287.516C506.666,287.584 506.255,287.603 505.912,287.456C505.936,287.68 506.288,287.739 506.517,287.739C506.632,287.739 506.767,287.728 506.92,287.7C507.056,287.676 507.186,287.767 507.21,287.902C507.234,288.038 507.144,288.168 507.008,288.192C506.647,288.257 506.245,288.272 505.909,288.127C505.924,288.383 506.338,288.45 506.596,288.45C507.095,288.45 507.13,288.443 507.203,288.481ZM506.036,280.31C506.233,280.506 506.548,280.505 506.743,280.31C506.939,280.112 506.938,279.798 506.743,279.603C506.547,279.406 506.231,279.408 506.036,279.603C505.84,279.8 505.842,280.114 506.036,280.31ZM527.944,296.047C527.944,296.599 527.496,297.047 526.944,297.047C526.173,297.046 525.701,296.214 526.073,295.555C525.814,294.336 525.6,293.107 525.429,291.874L525.308,291.784C524.825,291.308 524.418,290.837 524.026,290.328C523.794,291.875 523.206,293.374 521.974,294.316C521.07,295.007 519.857,295.678 518.731,295.513C518.854,295.631 518.984,295.676 519.151,295.678C520.741,295.778 519.992,297.02 520.34,297.266C520.484,297.369 520.479,297.586 520.328,297.681C520.431,297.703 520.646,297.756 520.724,297.825L520.802,298.069C520.761,298.247 520.619,298.191 520.504,298.457C520.456,298.565 520.427,298.704 520.431,298.851L520.875,298.982L521.011,299.364C520.656,299.874 520.362,300.219 520.182,300.764C520.03,301.227 520.37,301.443 520.37,302.01C520.37,302.495 520.091,302.979 519.802,303.367C520.007,303.583 520.052,303.966 519.848,304.237C520.112,304.335 520.468,304.429 520.834,304.428C521.659,304.427 522.205,303.971 522.555,303.226C521.856,302.618 522.291,301.471 523.21,301.472C523.762,301.471 524.21,301.919 524.21,302.472C524.21,302.896 523.943,303.259 523.568,303.403C523.401,304.404 523.06,305.14 522.61,305.664C521.46,307.011 519.505,307.062 517.846,306.458C517.671,306.807 517.396,307.075 517.073,307.28C515.711,308.144 514.073,307.621 512.956,308.507C512.801,308.63 512.669,308.772 512.57,308.925C513.063,309.581 512.597,310.525 511.771,310.525C510.878,310.524 510.44,309.44 511.064,308.818C511.221,308.661 511.431,308.557 511.663,308.531C511.651,306.748 513.111,306.322 513.827,305.742C512.375,304.804 511.505,303.607 511.507,301.887C511.507,301.008 511.726,300.088 512.037,299.117C511.646,298.981 511.364,298.61 511.364,298.173C511.363,297.622 511.811,297.173 512.364,297.173C512.916,297.173 513.364,297.62 513.364,298.173C513.364,298.473 513.229,298.754 513.002,298.943C513.02,299.337 513.115,299.741 513.244,300.112C513.393,299.108 513.945,298.489 514.333,296.851C514.427,296.434 514.471,296.186 514.5,295.993C513.919,295.904 512.455,295.613 510.877,294.765C510.138,294.378 509.596,293.755 509.289,292.985C508.863,291.918 508.934,290.709 509.215,289.595C508.952,289.518 508.667,289.424 508.367,289.31C508.445,291.29 508.412,293.243 508.268,295.216C508.544,295.62 508.487,296.159 508.14,296.497C507.946,296.686 507.693,296.78 507.442,296.78C506.528,296.781 506.094,295.65 506.775,295.037C506.928,292.924 506.943,290.932 506.85,288.95C506.561,288.948 506.232,288.97 505.904,288.819C505.436,288.605 505.296,288.146 505.495,287.767C505.376,287.545 505.388,287.301 505.496,287.095C505.382,286.885 505.388,286.657 505.478,286.46C505.252,286.068 505.502,285.501 506.552,285.349C506.368,283.808 506.115,282.274 505.792,280.757C505.526,280.558 505.39,280.259 505.39,279.956C505.39,279.063 506.474,278.625 507.097,279.249C507.413,279.564 507.482,280.054 507.26,280.447C507.519,281.667 507.734,282.895 507.905,284.129L508.026,284.219C508.502,284.688 508.91,285.157 509.307,285.675C509.539,284.127 510.127,282.629 511.36,281.687C512.263,280.996 513.477,280.325 514.603,280.489C514.479,280.372 514.349,280.327 514.182,280.324C513.697,280.294 513.258,280.147 513.138,279.677C513.039,279.293 513.195,278.881 512.994,278.736C512.849,278.634 512.854,278.417 513.005,278.321C512.904,278.3 512.687,278.246 512.607,278.177C512.479,278.061 512.507,277.858 512.646,277.775C512.831,277.667 512.908,277.368 512.903,277.152L512.458,277.021L512.323,276.638C512.671,276.139 512.971,275.787 513.151,275.239C513.203,275.08 513.203,274.957 513.164,274.813C513.051,274.38 512.623,273.853 513.531,272.636C513.32,272.414 513.286,272.03 513.486,271.765C513.221,271.667 512.866,271.574 512.5,271.574C511.673,271.575 511.129,272.032 510.779,272.777C511.219,273.159 511.24,273.831 510.831,274.238C510.442,274.629 509.808,274.63 509.417,274.238C508.909,273.731 509.086,272.861 509.765,272.599C510.152,270.273 511.536,269.177 513.487,269.177C514.479,269.178 515.262,269.463 515.276,269.469L515.487,269.545C515.662,269.196 515.935,268.928 516.26,268.723C517.623,267.859 519.258,268.381 520.377,267.496C520.533,267.372 520.664,267.23 520.763,267.078C520.638,266.91 520.563,266.702 520.563,266.478C520.563,265.584 521.646,265.146 522.27,265.771C522.865,266.365 522.498,267.382 521.671,267.472C521.682,269.255 520.211,269.688 519.507,270.261C520.956,271.199 521.828,272.395 521.827,274.116C521.826,274.995 521.607,275.915 521.297,276.886C521.998,277.128 522.195,278.02 521.677,278.537C521.056,279.159 519.971,278.727 519.969,277.83C519.969,277.527 520.104,277.247 520.331,277.06C520.314,276.665 520.219,276.262 520.09,275.891C519.942,276.884 519.401,277.504 519.013,279.103C518.951,279.372 518.879,279.715 518.834,280.01C519.416,280.098 520.88,280.39 522.456,281.238C523.214,281.633 523.745,282.266 524.044,283.018C524.471,284.084 524.4,285.293 524.119,286.408C524.382,286.485 524.667,286.579 524.967,286.692C524.886,284.653 524.926,282.697 525.066,280.786C524.615,280.127 525.086,279.222 525.892,279.223C526.805,279.222 527.24,280.353 526.559,280.966C526.408,283.045 526.389,285.04 526.484,287.052C526.773,287.055 527.102,287.032 527.43,287.184C527.9,287.398 528.036,287.859 527.838,288.235C527.957,288.456 527.947,288.699 527.838,288.908C527.951,289.118 527.947,289.344 527.856,289.543C528.082,289.935 527.831,290.502 526.782,290.654C526.966,292.195 527.219,293.728 527.542,295.246C527.808,295.445 527.944,295.744 527.944,296.047ZM518.81,301.182C518.947,301.18 519.057,301.066 519.057,300.929C519.055,300.74 519.055,300.74 519.052,300.554C519.051,300.415 518.938,300.305 518.8,300.307C518.661,300.308 518.551,300.421 518.552,300.559C518.555,300.746 518.555,300.746 518.557,300.934C518.557,301.072 518.671,301.183 518.81,301.182ZM514.388,283.019C514.25,283.019 514.138,283.131 514.138,283.269C514.138,283.407 514.25,283.519 514.388,283.519C514.526,283.519 514.638,283.407 514.638,283.269C514.638,283.131 514.526,283.019 514.388,283.019ZM515.5,284.023C515.633,284.061 515.771,283.981 515.807,283.849C515.843,283.715 515.765,283.578 515.63,283.541C515.498,283.505 515.36,283.584 515.323,283.717C515.288,283.851 515.366,283.987 515.5,284.023ZM516.84,284.2C516.978,284.2 517.09,284.089 517.09,283.95C517.09,283.813 516.979,283.7 516.84,283.7C516.702,283.7 516.59,283.813 516.59,283.95C516.59,284.088 516.702,284.2 516.84,284.2ZM514.776,275.068C514.779,275.256 514.779,275.256 514.781,275.443C514.783,275.582 514.672,275.695 514.534,275.696C514.396,275.698 514.283,275.587 514.281,275.449C514.279,275.262 514.279,275.262 514.276,275.074C514.276,274.937 514.387,274.823 514.524,274.821C514.663,274.82 514.775,274.931 514.776,275.068Z" style="fill:rgb(31,31,31);fill-rule:nonzero;"/>
            <path d="M507.029,276.148L507.32,276.584C507.551,276.929 508.016,277.021 508.36,276.791C508.705,276.561 508.798,276.095 508.567,275.751C508.337,275.406 507.871,275.313 507.527,275.544L507.148,275.797C507.284,275.529 507.475,275.416 507.636,275.309C507.98,275.078 508.073,274.612 507.843,274.269C507.609,273.92 507.142,273.835 506.803,274.062C506.458,274.291 506.365,274.757 506.596,275.102C506.703,275.263 506.836,275.44 506.858,275.739L506.605,275.36C506.376,275.016 505.91,274.924 505.565,275.153C505.221,275.384 505.129,275.85 505.358,276.193C505.589,276.538 506.055,276.631 506.398,276.4L506.835,276.109C506.741,276.764 506.395,277.097 506.204,277.224L506.18,277.346L507.161,277.541L507.186,277.418C506.903,276.997 506.949,276.438 507.029,276.148Z" style="fill:rgb(31,31,31);fill-rule:nonzero;"/>
            <path d="M502.89,280.213C502.902,280.953 501.748,281.704 502.153,282.683C502.456,283.413 503.505,283.399 503.781,282.648C503.866,282.933 503.91,283.293 503.768,283.638L503.815,283.753L504.739,283.37L504.691,283.255C504.346,283.112 504.123,282.827 503.981,282.565C504.706,282.9 505.459,282.171 505.156,281.438C504.751,280.461 503.403,280.746 502.89,280.213Z" style="fill:rgb(31,31,31);fill-rule:nonzero;"/>
            <path d="M526.935,299.602L526.499,299.893C526.6,299.204 526.972,298.885 527.13,298.779L527.154,298.656L526.173,298.462L526.148,298.584C526.43,299.005 526.385,299.567 526.305,299.854L526.014,299.419C525.783,299.074 525.317,298.981 524.974,299.212C524.629,299.441 524.536,299.907 524.767,300.252C524.997,300.597 525.462,300.689 525.807,300.459L526.186,300.206C526.05,300.474 525.859,300.586 525.698,300.694C525.145,301.064 525.316,301.922 525.967,302.053C526.626,302.183 527.107,301.453 526.738,300.901C526.631,300.74 526.498,300.563 526.475,300.264L526.728,300.643C526.958,300.986 527.424,301.079 527.769,300.849C528.112,300.619 528.205,300.153 527.976,299.809C527.745,299.464 527.279,299.372 526.935,299.602Z" style="fill:rgb(31,31,31);fill-rule:nonzero;"/>
            <path d="M530.444,295.79C530.431,295.049 531.586,294.298 531.181,293.32C530.878,292.589 529.828,292.604 529.553,293.354C529.468,293.07 529.424,292.71 529.566,292.365L529.519,292.249L528.595,292.632L528.643,292.747C528.987,292.891 529.211,293.176 529.353,293.437C528.627,293.102 527.875,293.832 528.178,294.563C528.583,295.542 529.931,295.257 530.444,295.79Z" style="fill:rgb(31,31,31);fill-rule:nonzero;"/>
        </g>
    </g>
</svg>
