<?xml version="1.0" encoding="UTF-8" standalone="no"?>
<!DOCTYPE svg PUBLIC "-//W3C//DTD SVG 1.1//EN" "http://www.w3.org/Graphics/SVG/1.1/DTD/svg11.dtd">
<svg width="100%" height="100%" viewBox="0 0 40 56" version="1.1" xmlns="http://www.w3.org/2000/svg" xmlns:xlink="http://www.w3.org/1999/xlink" xml:space="preserve" xmlns:serif="http://www.serif.com/" style="fill-rule:evenodd;clip-rule:evenodd;stroke-linejoin:round;stroke-miterlimit:2;">
    <g transform="matrix(1,0,0,1,-540,-260)">
        <g>
            <path d="M577.5,316L542.5,316C541.119,316 540,314.881 540,313.5L540,262.5C540,261.119 541.119,260 542.5,260L577.5,260C578.881,260 580,261.119 580,262.5L580,313.5C580,314.881 578.881,316 577.5,316Z" style="fill:white;fill-rule:nonzero;"/>
            <path d="M577.5,316L542.5,316C541.119,316 540,314.881 540,313.5L540,262.5C540,261.119 541.119,260 542.5,260L577.5,260C578.881,260 580,261.119 580,262.5L580,313.5C580,314.881 578.881,316 577.5,316ZM577.5,315.8L542.5,315.8C541.229,315.8 540.2,314.771 540.2,313.5L540.2,262.5C540.2,261.229 541.229,260.2 542.5,260.2L577.5,260.2C578.771,260.2 579.8,261.229 579.8,262.5C579.8,262.5 579.8,313.5 579.8,313.5C579.8,314.771 578.771,315.8 577.5,315.8Z" style="fill:rgb(140,140,140);"/>
            <path d="M545.49,310.5L546.01,310.5L546.01,310L545.49,310L545.49,310.5ZM546,267.545L546,267.025L545.5,267.025L545.5,267.545L546,267.545ZM546,269.079L546,268.56L545.5,268.56L545.5,269.079L546,269.079ZM546,270.614L546,270.094L545.5,270.094L545.5,270.614L546,270.614ZM546,272.148L546,271.629L545.5,271.629L545.5,272.148L546,272.148ZM546,273.683L546,273.163L545.5,273.163L545.5,273.683L546,273.683ZM546,275.217L546,274.697L545.5,274.697L545.5,275.217L546,275.217ZM546,276.752L546,276.232L545.5,276.232L545.5,276.752L546,276.752ZM546,278.286L546,277.767L545.5,277.767L545.5,278.286L546,278.286ZM546,279.82L546,279.301L545.5,279.301L545.5,279.82L546,279.82ZM546,281.355L546,280.835L545.5,280.835L545.5,281.355L546,281.355ZM546,282.89L546,282.37L545.5,282.37L545.5,282.89L546,282.89ZM546,284.424L546,283.904L545.5,283.904L545.5,284.424L546,284.424ZM546,285.959L546,285.438L545.5,285.438L545.5,285.959L546,285.959ZM546,287.493L546,286.974L545.5,286.974L545.5,287.493L546,287.493ZM546,289.027L546,288.508L545.5,288.508L545.5,289.027L546,289.027ZM546,290.562L546,290.042L545.5,290.042L545.5,290.562L546,290.562ZM546,292.097L546,291.577L545.5,291.577L545.5,292.097L546,292.097ZM546,293.631L546,293.111L545.5,293.111L545.5,293.631L546,293.631ZM546,295.165L546,294.646L545.5,294.646L545.5,295.165L546,295.165ZM546,296.7L546,296.18L545.5,296.18L545.5,296.7L546,296.7ZM546,298.234L546,297.715L545.5,297.715L545.5,298.234L546,298.234ZM546,299.769L546,299.249L545.5,299.249L545.5,299.769L546,299.769ZM546,301.303L546,300.783L545.5,300.783L545.5,301.303L546,301.303ZM546,302.838L546,302.318L545.5,302.318L545.5,302.838L546,302.838ZM546,304.372L546,303.853L545.5,303.853L545.5,304.372L546,304.372ZM546,305.906L546,305.387L545.5,305.387L545.5,305.906L546,305.906ZM545.5,308.456L545.5,308.976L546,308.976L546,308.456L545.5,308.456ZM546,307.441L546,306.922L545.5,306.922L545.5,307.441L546,307.441ZM545.49,266L546.01,266L546.01,265.5L545.49,265.5L545.49,266ZM547,309L573,309L573,267L547,267L547,309ZM547.073,266L547.594,266L547.594,265.5L547.073,265.5L547.073,266ZM548.656,266L549.177,266L549.177,265.5L548.656,265.5L548.656,266ZM550.24,266L550.761,266L550.761,265.5L550.24,265.5L550.24,266ZM551.823,266L552.344,266L552.344,265.5L551.823,265.5L551.823,266ZM553.406,266L553.927,266L553.927,265.5L553.406,265.5L553.406,266ZM554.99,266L555.511,266L555.511,265.5L554.99,265.5L554.99,266ZM556.573,266L557.094,266L557.094,265.5L556.573,265.5L556.573,266ZM558.156,266L558.677,266L558.677,265.5L558.156,265.5L558.156,266ZM559.74,266L560.261,266L560.261,265.5L559.74,265.5L559.74,266ZM561.323,266L561.844,266L561.844,265.5L561.323,265.5L561.323,266ZM562.906,266L563.427,266L563.427,265.5L562.906,265.5L562.906,266ZM564.49,266L565.011,266L565.011,265.5L564.49,265.5L564.49,266ZM566.073,266L566.594,266L566.594,265.5L566.073,265.5L566.073,266ZM567.657,266L568.177,266L568.177,265.5L567.657,265.5L567.657,266ZM569.24,266L569.761,266L569.761,265.5L569.24,265.5L569.24,266ZM570.823,266L571.344,266L571.344,265.5L570.823,265.5L570.823,266ZM572.407,266L572.927,266L572.927,265.5L572.407,265.5L572.407,266ZM573.99,310.5L574.51,310.5L574.51,310L573.99,310L573.99,310.5ZM574.5,267.544L574.5,267.024L574,267.024L574,267.544L574.5,267.544ZM574.5,269.078L574.5,268.559L574,268.559L574,269.078L574.5,269.078ZM574.5,270.613L574.5,270.094L574,270.094L574,270.613L574.5,270.613ZM574.5,272.147L574.5,271.628L574,271.628L574,272.147L574.5,272.147ZM574.5,273.682L574.5,273.162L574,273.162L574,273.682L574.5,273.682ZM574.5,275.217L574.5,274.696L574,274.696L574,275.217L574.5,275.217ZM574.5,276.751L574.5,276.231L574,276.231L574,276.751L574.5,276.751ZM574.5,278.285L574.5,277.766L574,277.766L574,278.285L574.5,278.285ZM574.5,279.819L574.5,279.3L574,279.3L574,279.819L574.5,279.819ZM574.5,281.354L574.5,280.835L574,280.835L574,281.354L574.5,281.354ZM574.5,282.889L574.5,282.369L574,282.369L574,282.889L574.5,282.889ZM574.5,284.423L574.5,283.903L574,283.903L574,284.423L574.5,284.423ZM574.5,285.958L574.5,285.438L574,285.438L574,285.958L574.5,285.958ZM574.5,287.492L574.5,286.973L574,286.973L574,287.492L574.5,287.492ZM574.5,289.026L574.5,288.507L574,288.507L574,289.026L574.5,289.026ZM574.5,290.562L574.5,290.041L574,290.041L574,290.562L574.5,290.562ZM574.5,292.096L574.5,291.576L574,291.576L574,292.096L574.5,292.096ZM574.5,293.63L574.5,293.11L574,293.11L574,293.63L574.5,293.63ZM574.5,295.165L574.5,294.645L574,294.645L574,295.165L574.5,295.165ZM574.5,296.699L574.5,296.18L574,296.18L574,296.699L574.5,296.699ZM574.5,298.233L574.5,297.714L574,297.714L574,298.233L574.5,298.233ZM574.5,299.768L574.5,299.248L574,299.248L574,299.768L574.5,299.768ZM574.5,301.303L574.5,300.782L574,300.782L574,301.303L574.5,301.303ZM574.5,302.837L574.5,302.317L574,302.317L574,302.837L574.5,302.837ZM574.5,304.371L574.5,303.852L574,303.852L574,304.371L574.5,304.371ZM574.5,305.906L574.5,305.386L574,305.386L574,305.906L574.5,305.906ZM574,308.455L574,308.975L574.5,308.975L574.5,308.455L574,308.455ZM574.5,307.44L574.5,306.921L574,306.921L574,307.44L574.5,307.44ZM573.99,266L574.51,266L574.51,265.5L573.99,265.5L573.99,266ZM572.927,310L572.406,310L572.406,310.5L572.927,310.5L572.927,310ZM571.344,310L570.823,310L570.823,310.5L571.344,310.5L571.344,310ZM569.76,310L569.239,310L569.239,310.5L569.76,310.5L569.76,310ZM568.177,310L567.656,310L567.656,310.5L568.177,310.5L568.177,310ZM566.594,310L566.073,310L566.073,310.5L566.594,310.5L566.594,310ZM565.01,310L564.489,310L564.489,310.5L565.01,310.5L565.01,310ZM563.427,310L562.906,310L562.906,310.5L563.427,310.5L563.427,310ZM561.844,310L561.323,310L561.323,310.5L561.844,310.5L561.844,310ZM560.26,310L559.739,310L559.739,310.5L560.26,310.5L560.26,310ZM558.677,310L558.156,310L558.156,310.5L558.677,310.5L558.677,310ZM557.094,310L556.573,310L556.573,310.5L557.094,310.5L557.094,310ZM555.51,310L554.989,310L554.989,310.5L555.51,310.5L555.51,310ZM553.927,310L553.406,310L553.406,310.5L553.927,310.5L553.927,310ZM552.343,310L551.823,310L551.823,310.5L552.343,310.5L552.343,310ZM550.76,310L550.239,310L550.239,310.5L550.76,310.5L550.76,310ZM549.177,310L548.656,310L548.656,310.5L549.177,310.5L549.177,310ZM547.593,310L547.073,310L547.073,310.5L547.593,310.5L547.593,310ZM544.5,264.5L575.5,264.5L575.5,311.5L544.5,311.5L544.5,264.5ZM576,264.25L575.75,264L544.25,264L544,264.25L544,311.75L544.25,312L575.75,312L576,311.75L576,264.25ZM578.5,262.5L578.5,313.5C578.5,314.052 578.052,314.5 577.5,314.5L542.5,314.5C541.948,314.5 541.5,314.052 541.5,313.5L541.5,262.5C541.5,261.948 541.948,261.5 542.5,261.5L577.5,261.5C578.052,261.5 578.5,261.948 578.5,262.5ZM557.786,283.009C556.904,283.026 556.224,283.292 555.758,283.758C555.292,284.224 555.026,284.904 555.009,285.786C555.552,285.347 556.084,284.946 556.6,284.6C556.946,284.084 557.347,283.552 557.786,283.009ZM555.525,288C556.336,288.727 557.175,289.04 557.949,289.041C558.192,289.041 558.429,289.007 558.657,288.951C558.847,288.381 559.173,287.877 559.601,287.471C559.117,287.157 558.556,286.958 557.949,286.959C557.175,286.96 556.335,287.273 555.525,288ZM548,305.5L548.25,305.75C549.354,305.752 550.248,306.646 550.25,307.75L550.5,308L569.5,308L569.75,307.75C569.752,306.646 570.646,305.752 571.75,305.75L572,305.5L572,270.5L571.75,270.25C570.646,270.248 569.752,269.354 569.75,268.25L569.5,268L550.5,268L550.25,268.25C550.248,269.354 549.354,270.248 548.25,270.25L548,270.5L548,305.5ZM548.25,268.5C548.25,268.638 548.362,268.75 548.5,268.75C548.638,268.75 548.75,268.638 548.75,268.5C548.75,268.362 548.638,268.25 548.5,268.25C548.362,268.25 548.25,268.362 548.25,268.5ZM571.25,268.5C571.25,268.638 571.362,268.75 571.5,268.75C571.638,268.75 571.75,268.638 571.75,268.5C571.75,268.362 571.638,268.25 571.5,268.25C571.362,268.25 571.25,268.362 571.25,268.5ZM571.75,307.5C571.75,307.362 571.638,307.25 571.5,307.25C571.362,307.25 571.25,307.362 571.25,307.5C571.25,307.638 571.362,307.75 571.5,307.75C571.638,307.75 571.75,307.638 571.75,307.5ZM548.75,307.5C548.75,307.362 548.638,307.25 548.5,307.25C548.362,307.25 548.25,307.362 548.25,307.5C548.25,307.638 548.362,307.75 548.5,307.75C548.638,307.75 548.75,307.638 548.75,307.5ZM547.5,267.5L572.5,267.5L572.5,308.5L547.5,308.5L547.5,267.5ZM558.959,285.949C558.959,286.192 558.993,286.429 559.049,286.657C559.619,286.847 560.122,287.173 560.529,287.601C560.843,287.117 561.041,286.556 561.041,285.949C561.04,285.175 560.727,284.335 560,283.525C559.273,284.336 558.96,285.175 558.959,285.949ZM555.053,286.392C555.089,286.754 555.164,287.141 555.281,287.555C556.146,286.811 557.074,286.458 557.949,286.459L558.126,286.479L556.752,285.105C556.202,285.48 555.636,285.904 555.053,286.392ZM555.281,288.445C555.164,288.859 555.089,289.246 555.053,289.608C555.636,290.096 556.202,290.519 556.752,290.895L558.117,289.529L557.949,289.541C557.074,289.542 556.146,289.189 555.281,288.445ZM558.959,290.051C558.96,290.825 559.273,291.664 560,292.475C560.727,291.664 561.04,290.825 561.041,290.051C561.041,289.807 561.007,289.571 560.951,289.343C560.381,289.153 559.877,288.827 559.471,288.399C559.157,288.883 558.958,289.443 558.959,290.051ZM555.01,290.214C555.026,291.096 555.292,291.776 555.758,292.242C556.224,292.708 556.904,292.974 557.786,292.99C557.347,292.448 556.946,291.916 556.6,291.399C556.084,291.054 555.552,290.653 555.01,290.214ZM563.248,285.105L561.883,286.471L562.051,286.459C562.926,286.458 563.854,286.811 564.719,287.555C564.836,287.141 564.911,286.754 564.947,286.392C564.364,285.904 563.798,285.48 563.248,285.105ZM562.051,289.541L561.874,289.52L563.248,290.895C563.798,290.519 564.364,290.096 564.947,289.608C564.911,289.246 564.836,288.859 564.719,288.445C563.854,289.189 562.926,289.542 562.051,289.541ZM560.399,288.529C560.883,288.843 561.444,289.041 562.051,289.041C562.825,289.04 563.664,288.727 564.475,288C563.664,287.273 562.825,286.96 562.051,286.959C561.807,286.959 561.571,286.993 561.343,287.049C561.153,287.619 560.827,288.123 560.399,288.529ZM558.459,290.051L558.479,289.874L557.105,291.248C557.48,291.798 557.904,292.364 558.392,292.947C558.754,292.911 559.141,292.836 559.555,292.719C558.811,291.854 558.458,290.926 558.459,290.051ZM560.002,287.772L559.772,287.998L559.998,288.228L560.228,288.002L560.002,287.772ZM558.471,286.117L558.459,285.949C558.458,285.074 558.811,284.146 559.555,283.281C559.141,283.164 558.754,283.089 558.392,283.053C557.904,283.636 557.48,284.202 557.105,284.752L558.471,286.117ZM561.204,282.59C560.832,282.163 560.434,281.73 560,281.29C559.566,281.73 559.168,282.163 558.796,282.59C559.179,282.651 559.579,282.745 560,282.881C560.421,282.745 560.82,282.651 561.204,282.59ZM561.541,285.949L561.521,286.126L562.895,284.752C562.52,284.202 562.096,283.636 561.608,283.052C561.246,283.089 560.859,283.164 560.445,283.281C561.189,284.146 561.542,285.074 561.541,285.949ZM549.964,271.774C549.964,271.637 549.853,271.524 549.714,271.524C549.576,271.524 549.464,271.637 549.464,271.774C549.464,271.913 549.576,272.024 549.714,272.024C549.853,272.024 549.964,271.913 549.964,271.774ZM549.964,273.803C549.964,273.665 549.853,273.553 549.714,273.553C549.576,273.553 549.464,273.665 549.464,273.803C549.464,273.94 549.576,274.053 549.714,274.053C549.853,274.053 549.964,273.94 549.964,273.803ZM549.964,275.831C549.964,275.693 549.853,275.581 549.714,275.581C549.576,275.581 549.464,275.693 549.464,275.831C549.464,275.969 549.576,276.081 549.714,276.081C549.853,276.081 549.964,275.969 549.964,275.831ZM549.964,277.859C549.964,277.721 549.853,277.609 549.714,277.609C549.576,277.609 549.464,277.721 549.464,277.859C549.464,277.997 549.576,278.109 549.714,278.109C549.853,278.109 549.964,277.997 549.964,277.859ZM549.964,279.888C549.964,279.749 549.853,279.638 549.714,279.638C549.576,279.638 549.464,279.749 549.464,279.888C549.464,280.025 549.576,280.138 549.714,280.138C549.853,280.138 549.964,280.025 549.964,279.888ZM549.964,281.915C549.964,281.777 549.853,281.665 549.714,281.665C549.576,281.665 549.464,281.777 549.464,281.915C549.464,282.054 549.576,282.165 549.714,282.165C549.853,282.165 549.964,282.054 549.964,281.915ZM549.964,283.943C549.964,283.806 549.853,283.693 549.714,283.693C549.576,283.693 549.464,283.806 549.464,283.943C549.464,284.082 549.576,284.193 549.714,284.193C549.853,284.193 549.964,284.082 549.964,283.943ZM549.964,285.972C549.964,285.834 549.853,285.722 549.714,285.722C549.576,285.722 549.464,285.834 549.464,285.972C549.464,286.11 549.576,286.222 549.714,286.222C549.853,286.222 549.964,286.11 549.964,285.972ZM549.964,288C549.964,287.862 549.853,287.75 549.714,287.75C549.576,287.75 549.464,287.862 549.464,288C549.464,288.138 549.576,288.25 549.714,288.25C549.853,288.25 549.964,288.138 549.964,288ZM549.964,290.028C549.964,289.89 549.853,289.778 549.714,289.778C549.576,289.778 549.464,289.89 549.464,290.028C549.464,290.166 549.576,290.278 549.714,290.278C549.853,290.278 549.964,290.166 549.964,290.028ZM549.964,292.057C549.964,291.918 549.853,291.807 549.714,291.807C549.576,291.807 549.464,291.918 549.464,292.057C549.464,292.194 549.576,292.307 549.714,292.307C549.853,292.307 549.964,292.194 549.964,292.057ZM549.964,294.085C549.964,293.946 549.853,293.835 549.714,293.835C549.576,293.835 549.464,293.946 549.464,294.085C549.464,294.223 549.576,294.335 549.714,294.335C549.853,294.335 549.964,294.223 549.964,294.085ZM549.964,296.112C549.964,295.975 549.853,295.862 549.714,295.862C549.576,295.862 549.464,295.975 549.464,296.112C549.464,296.251 549.576,296.362 549.714,296.362C549.853,296.362 549.964,296.251 549.964,296.112ZM549.964,298.141C549.964,298.003 549.853,297.891 549.714,297.891C549.576,297.891 549.464,298.003 549.464,298.141C549.464,298.279 549.576,298.391 549.714,298.391C549.853,298.391 549.964,298.279 549.964,298.141ZM549.964,300.169C549.964,300.031 549.853,299.919 549.714,299.919C549.576,299.919 549.464,300.031 549.464,300.169C549.464,300.307 549.576,300.419 549.714,300.419C549.853,300.419 549.964,300.307 549.964,300.169ZM549.964,302.197C549.964,302.06 549.853,301.947 549.714,301.947C549.576,301.947 549.464,302.06 549.464,302.197C549.464,302.335 549.576,302.447 549.714,302.447C549.853,302.447 549.964,302.335 549.964,302.197ZM549.964,304.226C549.964,304.087 549.853,303.976 549.714,303.976C549.576,303.976 549.464,304.087 549.464,304.226C549.464,304.363 549.576,304.476 549.714,304.476C549.853,304.476 549.964,304.363 549.964,304.226ZM551.521,306.254C551.521,306.392 551.634,306.504 551.771,306.504C551.909,306.504 552.021,306.392 552.021,306.254C552.021,306.115 551.909,306.004 551.771,306.004C551.634,306.004 551.521,306.115 551.521,306.254ZM551.521,304.226C551.521,304.363 551.634,304.476 551.771,304.476C551.909,304.476 552.021,304.363 552.021,304.226C552.021,304.087 551.909,303.976 551.771,303.976C551.634,303.976 551.521,304.087 551.521,304.226ZM551.521,302.197C551.521,302.335 551.634,302.447 551.771,302.447C551.909,302.447 552.021,302.335 552.021,302.197C552.021,302.06 551.909,301.947 551.771,301.947C551.634,301.947 551.521,302.06 551.521,302.197ZM551.521,300.169C551.521,300.307 551.634,300.419 551.771,300.419C551.909,300.419 552.021,300.307 552.021,300.169C552.021,300.031 551.909,299.919 551.771,299.919C551.634,299.919 551.521,300.031 551.521,300.169ZM551.521,298.141C551.521,298.279 551.634,298.391 551.771,298.391C551.909,298.391 552.021,298.279 552.021,298.141C552.021,298.003 551.909,297.891 551.771,297.891C551.634,297.891 551.521,298.003 551.521,298.141ZM551.521,296.112C551.521,296.251 551.634,296.362 551.771,296.362C551.909,296.362 552.021,296.251 552.021,296.112C552.021,295.975 551.909,295.862 551.771,295.862C551.634,295.862 551.521,295.975 551.521,296.112ZM551.521,294.085C551.521,294.223 551.634,294.335 551.771,294.335C551.909,294.335 552.021,294.223 552.021,294.085C552.021,293.946 551.909,293.835 551.771,293.835C551.634,293.835 551.521,293.946 551.521,294.085ZM551.521,292.057C551.521,292.194 551.634,292.307 551.771,292.307C551.909,292.307 552.021,292.194 552.021,292.057C552.021,291.918 551.909,291.807 551.771,291.807C551.634,291.807 551.521,291.918 551.521,292.057ZM551.521,290.028C551.521,290.166 551.634,290.278 551.771,290.278C551.909,290.278 552.021,290.166 552.021,290.028C552.021,289.89 551.909,289.778 551.771,289.778C551.634,289.778 551.521,289.89 551.521,290.028ZM551.521,288C551.521,288.138 551.634,288.25 551.771,288.25C551.909,288.25 552.021,288.138 552.021,288C552.021,287.862 551.909,287.75 551.771,287.75C551.634,287.75 551.521,287.862 551.521,288ZM551.521,285.972C551.521,286.11 551.634,286.222 551.771,286.222C551.909,286.222 552.021,286.11 552.021,285.972C552.021,285.834 551.909,285.722 551.771,285.722C551.634,285.722 551.521,285.834 551.521,285.972ZM551.521,283.943C551.521,284.082 551.634,284.193 551.771,284.193C551.909,284.193 552.021,284.082 552.021,283.943C552.021,283.806 551.909,283.693 551.771,283.693C551.634,283.693 551.521,283.806 551.521,283.943ZM551.521,281.915C551.521,282.054 551.634,282.165 551.771,282.165C551.909,282.165 552.021,282.054 552.021,281.915C552.021,281.777 551.909,281.665 551.771,281.665C551.634,281.665 551.521,281.777 551.521,281.915ZM551.521,279.888C551.521,280.025 551.634,280.138 551.771,280.138C551.909,280.138 552.021,280.025 552.021,279.888C552.021,279.749 551.909,279.638 551.771,279.638C551.634,279.638 551.521,279.749 551.521,279.888ZM551.521,277.859C551.521,277.997 551.634,278.109 551.771,278.109C551.909,278.109 552.021,277.997 552.021,277.859C552.021,277.721 551.909,277.609 551.771,277.609C551.634,277.609 551.521,277.721 551.521,277.859ZM551.521,275.831C551.521,275.969 551.634,276.081 551.771,276.081C551.909,276.081 552.021,275.969 552.021,275.831C552.021,275.693 551.909,275.581 551.771,275.581C551.634,275.581 551.521,275.693 551.521,275.831ZM551.521,273.803C551.521,273.94 551.634,274.053 551.771,274.053C551.909,274.053 552.021,273.94 552.021,273.803C552.021,273.665 551.909,273.553 551.771,273.553C551.634,273.553 551.521,273.665 551.521,273.803ZM551.521,271.774C551.521,271.913 551.634,272.024 551.771,272.024C551.909,272.024 552.021,271.913 552.021,271.774C552.021,271.637 551.909,271.524 551.771,271.524C551.634,271.524 551.521,271.637 551.521,271.774ZM551.521,269.746C551.521,269.885 551.634,269.996 551.771,269.996C551.909,269.996 552.021,269.885 552.021,269.746C552.021,269.608 551.909,269.496 551.771,269.496C551.634,269.496 551.521,269.608 551.521,269.746ZM552.752,288.177C553.358,288.783 553.951,289.323 554.532,289.818C554.526,289.921 554.503,290.034 554.503,290.133C554.502,291.154 554.813,292.006 555.404,292.596C555.994,293.187 556.846,293.498 557.866,293.497C557.966,293.497 558.079,293.474 558.182,293.468C558.677,294.049 559.217,294.642 559.823,295.248L560.177,295.248C560.783,294.642 561.323,294.049 561.818,293.468C561.921,293.474 562.034,293.497 562.134,293.497C563.154,293.498 564.006,293.187 564.596,292.596C565.187,292.006 565.498,291.154 565.497,290.133C565.497,290.034 565.474,289.921 565.468,289.818C566.049,289.323 566.642,288.783 567.248,288.177L567.248,287.823C566.642,287.217 566.049,286.677 565.468,286.182C565.474,286.079 565.497,285.966 565.497,285.866C565.498,284.846 565.187,283.994 564.596,283.404C564.006,282.813 563.154,282.502 562.133,282.503C562.033,282.503 561.921,282.526 561.818,282.532C561.323,281.951 560.783,281.358 560.177,280.752L559.823,280.752C559.217,281.358 558.677,281.951 558.182,282.532C558.079,282.526 557.966,282.503 557.866,282.503C556.846,282.502 555.994,282.813 555.404,283.404C554.813,283.994 554.502,284.846 554.503,285.866C554.503,285.966 554.526,286.079 554.532,286.182C553.951,286.677 553.358,287.217 552.752,287.823L552.752,288.177ZM553.578,285.972C553.578,286.11 553.69,286.222 553.828,286.222C553.967,286.222 554.078,286.11 554.078,285.972C554.078,285.834 553.967,285.722 553.828,285.722C553.69,285.722 553.578,285.834 553.578,285.972ZM553.578,283.943C553.578,284.082 553.69,284.193 553.828,284.193C553.967,284.193 554.078,284.082 554.078,283.943C554.078,283.806 553.967,283.693 553.828,283.693C553.69,283.693 553.578,283.806 553.578,283.943ZM553.578,281.915C553.578,282.054 553.69,282.165 553.828,282.165C553.967,282.165 554.078,282.054 554.078,281.915C554.078,281.777 553.967,281.665 553.828,281.665C553.69,281.665 553.578,281.777 553.578,281.915ZM553.578,279.888C553.578,280.025 553.69,280.138 553.828,280.138C553.967,280.138 554.078,280.025 554.078,279.888C554.078,279.749 553.967,279.638 553.828,279.638C553.69,279.638 553.578,279.749 553.578,279.888ZM553.578,277.859C553.578,277.997 553.69,278.109 553.828,278.109C553.967,278.109 554.078,277.997 554.078,277.859C554.078,277.721 553.967,277.609 553.828,277.609C553.69,277.609 553.578,277.721 553.578,277.859ZM553.578,275.831C553.578,275.969 553.69,276.081 553.828,276.081C553.967,276.081 554.078,275.969 554.078,275.831C554.078,275.693 553.967,275.581 553.828,275.581C553.69,275.581 553.578,275.693 553.578,275.831ZM553.578,273.803C553.578,273.94 553.69,274.053 553.828,274.053C553.967,274.053 554.078,273.94 554.078,273.803C554.078,273.665 553.967,273.553 553.828,273.553C553.69,273.553 553.578,273.665 553.578,273.803ZM553.578,271.774C553.578,271.913 553.69,272.024 553.828,272.024C553.967,272.024 554.078,271.913 554.078,271.774C554.078,271.637 553.967,271.524 553.828,271.524C553.69,271.524 553.578,271.637 553.578,271.774ZM553.578,269.746C553.578,269.885 553.69,269.996 553.828,269.996C553.967,269.996 554.078,269.885 554.078,269.746C554.078,269.608 553.967,269.496 553.828,269.496C553.69,269.496 553.578,269.608 553.578,269.746ZM555.636,281.915C555.636,282.054 555.748,282.165 555.886,282.165C556.023,282.165 556.136,282.054 556.136,281.915C556.136,281.777 556.023,281.665 555.886,281.665C555.748,281.665 555.636,281.777 555.636,281.915ZM555.636,279.888C555.636,280.025 555.748,280.138 555.886,280.138C556.023,280.138 556.136,280.025 556.136,279.888C556.136,279.749 556.023,279.638 555.886,279.638C555.748,279.638 555.636,279.749 555.636,279.888ZM555.636,277.859C555.636,277.997 555.748,278.109 555.886,278.109C556.023,278.109 556.136,277.997 556.136,277.859C556.136,277.721 556.023,277.609 555.886,277.609C555.748,277.609 555.636,277.721 555.636,277.859ZM555.636,275.831C555.636,275.969 555.748,276.081 555.886,276.081C556.023,276.081 556.136,275.969 556.136,275.831C556.136,275.693 556.023,275.581 555.886,275.581C555.748,275.581 555.636,275.693 555.636,275.831ZM555.636,273.803C555.636,273.94 555.748,274.053 555.886,274.053C556.023,274.053 556.136,273.94 556.136,273.803C556.136,273.665 556.023,273.553 555.886,273.553C555.748,273.553 555.636,273.665 555.636,273.803ZM555.636,271.774C555.636,271.913 555.748,272.024 555.886,272.024C556.023,272.024 556.136,271.913 556.136,271.774C556.136,271.637 556.023,271.524 555.886,271.524C555.748,271.524 555.636,271.637 555.636,271.774ZM555.636,269.746C555.636,269.885 555.748,269.996 555.886,269.996C556.023,269.996 556.136,269.885 556.136,269.746C556.136,269.608 556.023,269.496 555.886,269.496C555.748,269.496 555.636,269.608 555.636,269.746ZM557.692,281.915C557.692,282.054 557.805,282.165 557.942,282.165C558.081,282.165 558.192,282.054 558.192,281.915C558.192,281.777 558.081,281.665 557.942,281.665C557.805,281.665 557.692,281.777 557.692,281.915ZM557.692,279.888C557.692,280.025 557.805,280.138 557.942,280.138C558.081,280.138 558.192,280.025 558.192,279.888C558.192,279.749 558.081,279.638 557.942,279.638C557.805,279.638 557.692,279.749 557.692,279.888ZM557.692,277.859C557.692,277.997 557.805,278.109 557.942,278.109C558.081,278.109 558.192,277.997 558.192,277.859C558.192,277.721 558.081,277.609 557.942,277.609C557.805,277.609 557.692,277.721 557.692,277.859ZM557.692,275.831C557.692,275.969 557.805,276.081 557.942,276.081C558.081,276.081 558.192,275.969 558.192,275.831C558.192,275.693 558.081,275.581 557.942,275.581C557.805,275.581 557.692,275.693 557.692,275.831ZM557.692,273.803C557.692,273.94 557.805,274.053 557.942,274.053C558.081,274.053 558.192,273.94 558.192,273.803C558.192,273.665 558.081,273.553 557.942,273.553C557.805,273.553 557.692,273.665 557.692,273.803ZM557.692,271.774C557.692,271.913 557.805,272.024 557.942,272.024C558.081,272.024 558.192,271.913 558.192,271.774C558.192,271.637 558.081,271.524 557.942,271.524C557.805,271.524 557.692,271.637 557.692,271.774ZM557.692,269.746C557.692,269.885 557.805,269.996 557.942,269.996C558.081,269.996 558.192,269.885 558.192,269.746C558.192,269.608 558.081,269.496 557.942,269.496C557.805,269.496 557.692,269.608 557.692,269.746ZM559.75,279.888C559.75,280.025 559.862,280.138 560,280.138C560.138,280.138 560.25,280.025 560.25,279.888C560.25,279.749 560.138,279.638 560,279.638C559.862,279.638 559.75,279.749 559.75,279.888ZM559.75,277.859C559.75,277.997 559.862,278.109 560,278.109C560.138,278.109 560.25,277.997 560.25,277.859C560.25,277.721 560.138,277.609 560,277.609C559.862,277.609 559.75,277.721 559.75,277.859ZM559.75,275.831C559.75,275.969 559.862,276.081 560,276.081C560.138,276.081 560.25,275.969 560.25,275.831C560.25,275.693 560.138,275.581 560,275.581C559.862,275.581 559.75,275.693 559.75,275.831ZM559.75,273.803C559.75,273.94 559.862,274.053 560,274.053C560.138,274.053 560.25,273.94 560.25,273.803C560.25,273.665 560.138,273.553 560,273.553C559.862,273.553 559.75,273.665 559.75,273.803ZM559.75,271.774C559.75,271.913 559.862,272.024 560,272.024C560.138,272.024 560.25,271.913 560.25,271.774C560.25,271.637 560.138,271.524 560,271.524C559.862,271.524 559.75,271.637 559.75,271.774ZM559.75,269.746C559.75,269.885 559.862,269.996 560,269.996C560.138,269.996 560.25,269.885 560.25,269.746C560.25,269.608 560.138,269.496 560,269.496C559.862,269.496 559.75,269.608 559.75,269.746ZM561.808,281.915C561.808,282.054 561.919,282.165 562.058,282.165C562.195,282.165 562.308,282.054 562.308,281.915C562.308,281.777 562.195,281.665 562.058,281.665C561.919,281.665 561.808,281.777 561.808,281.915ZM561.808,279.888C561.808,280.025 561.919,280.138 562.058,280.138C562.195,280.138 562.308,280.025 562.308,279.888C562.308,279.749 562.195,279.638 562.058,279.638C561.919,279.638 561.808,279.749 561.808,279.888ZM561.808,277.859C561.808,277.997 561.919,278.109 562.058,278.109C562.195,278.109 562.308,277.997 562.308,277.859C562.308,277.721 562.195,277.609 562.058,277.609C561.919,277.609 561.808,277.721 561.808,277.859ZM561.808,275.831C561.808,275.969 561.919,276.081 562.058,276.081C562.195,276.081 562.308,275.969 562.308,275.831C562.308,275.693 562.195,275.581 562.058,275.581C561.919,275.581 561.808,275.693 561.808,275.831ZM561.808,273.803C561.808,273.94 561.919,274.053 562.058,274.053C562.195,274.053 562.308,273.94 562.308,273.803C562.308,273.665 562.195,273.553 562.058,273.553C561.919,273.553 561.808,273.665 561.808,273.803ZM561.808,271.774C561.808,271.913 561.919,272.024 562.058,272.024C562.195,272.024 562.308,271.913 562.308,271.774C562.308,271.637 562.195,271.524 562.058,271.524C561.919,271.524 561.808,271.637 561.808,271.774ZM561.808,269.746C561.808,269.885 561.919,269.996 562.058,269.996C562.195,269.996 562.308,269.885 562.308,269.746C562.308,269.608 562.195,269.496 562.058,269.496C561.919,269.496 561.808,269.608 561.808,269.746ZM563.864,281.915C563.864,282.054 563.977,282.165 564.114,282.165C564.252,282.165 564.364,282.054 564.364,281.915C564.364,281.777 564.252,281.665 564.114,281.665C563.977,281.665 563.864,281.777 563.864,281.915ZM563.864,279.888C563.864,280.025 563.977,280.138 564.114,280.138C564.252,280.138 564.364,280.025 564.364,279.888C564.364,279.749 564.252,279.638 564.114,279.638C563.977,279.638 563.864,279.749 563.864,279.888ZM563.864,277.859C563.864,277.997 563.977,278.109 564.114,278.109C564.252,278.109 564.364,277.997 564.364,277.859C564.364,277.721 564.252,277.609 564.114,277.609C563.977,277.609 563.864,277.721 563.864,277.859ZM563.864,275.831C563.864,275.969 563.977,276.081 564.114,276.081C564.252,276.081 564.364,275.969 564.364,275.831C564.364,275.693 564.252,275.581 564.114,275.581C563.977,275.581 563.864,275.693 563.864,275.831ZM563.864,273.803C563.864,273.94 563.977,274.053 564.114,274.053C564.252,274.053 564.364,273.94 564.364,273.803C564.364,273.665 564.252,273.553 564.114,273.553C563.977,273.553 563.864,273.665 563.864,273.803ZM563.864,271.774C563.864,271.913 563.977,272.024 564.114,272.024C564.252,272.024 564.364,271.913 564.364,271.774C564.364,271.637 564.252,271.524 564.114,271.524C563.977,271.524 563.864,271.637 563.864,271.774ZM563.864,269.746C563.864,269.885 563.977,269.996 564.114,269.996C564.252,269.996 564.364,269.885 564.364,269.746C564.364,269.608 564.252,269.496 564.114,269.496C563.977,269.496 563.864,269.608 563.864,269.746ZM565.922,285.972C565.922,286.11 566.033,286.222 566.172,286.222C566.31,286.222 566.422,286.11 566.422,285.972C566.422,285.834 566.31,285.722 566.172,285.722C566.033,285.722 565.922,285.834 565.922,285.972ZM565.922,283.943C565.922,284.082 566.033,284.193 566.172,284.193C566.31,284.193 566.422,284.082 566.422,283.943C566.422,283.806 566.31,283.693 566.172,283.693C566.033,283.693 565.922,283.806 565.922,283.943ZM565.922,281.915C565.922,282.054 566.033,282.165 566.172,282.165C566.31,282.165 566.422,282.054 566.422,281.915C566.422,281.777 566.31,281.665 566.172,281.665C566.033,281.665 565.922,281.777 565.922,281.915ZM565.922,279.888C565.922,280.025 566.033,280.138 566.172,280.138C566.31,280.138 566.422,280.025 566.422,279.888C566.422,279.749 566.31,279.638 566.172,279.638C566.033,279.638 565.922,279.749 565.922,279.888ZM565.922,277.859C565.922,277.997 566.033,278.109 566.172,278.109C566.31,278.109 566.422,277.997 566.422,277.859C566.422,277.721 566.31,277.609 566.172,277.609C566.033,277.609 565.922,277.721 565.922,277.859ZM565.922,275.831C565.922,275.969 566.033,276.081 566.172,276.081C566.31,276.081 566.422,275.969 566.422,275.831C566.422,275.693 566.31,275.581 566.172,275.581C566.033,275.581 565.922,275.693 565.922,275.831ZM565.922,273.803C565.922,273.94 566.033,274.053 566.172,274.053C566.31,274.053 566.422,273.94 566.422,273.803C566.422,273.665 566.31,273.553 566.172,273.553C566.033,273.553 565.922,273.665 565.922,273.803ZM565.922,271.774C565.922,271.913 566.033,272.024 566.172,272.024C566.31,272.024 566.422,271.913 566.422,271.774C566.422,271.637 566.31,271.524 566.172,271.524C566.033,271.524 565.922,271.637 565.922,271.774ZM565.922,269.746C565.922,269.885 566.033,269.996 566.172,269.996C566.31,269.996 566.422,269.885 566.422,269.746C566.422,269.608 566.31,269.496 566.172,269.496C566.033,269.496 565.922,269.608 565.922,269.746ZM567.979,306.254C567.979,306.392 568.091,306.504 568.229,306.504C568.366,306.504 568.479,306.392 568.479,306.254C568.479,306.115 568.366,306.004 568.229,306.004C568.091,306.004 567.979,306.115 567.979,306.254ZM567.979,304.226C567.979,304.363 568.091,304.476 568.229,304.476C568.366,304.476 568.479,304.363 568.479,304.226C568.479,304.087 568.366,303.976 568.229,303.976C568.091,303.976 567.979,304.087 567.979,304.226ZM567.979,302.197C567.979,302.335 568.091,302.447 568.229,302.447C568.366,302.447 568.479,302.335 568.479,302.197C568.479,302.06 568.366,301.947 568.229,301.947C568.091,301.947 567.979,302.06 567.979,302.197ZM567.979,300.169C567.979,300.307 568.091,300.419 568.229,300.419C568.366,300.419 568.479,300.307 568.479,300.169C568.479,300.031 568.366,299.919 568.229,299.919C568.091,299.919 567.979,300.031 567.979,300.169ZM567.979,298.141C567.979,298.279 568.091,298.391 568.229,298.391C568.366,298.391 568.479,298.279 568.479,298.141C568.479,298.003 568.366,297.891 568.229,297.891C568.091,297.891 567.979,298.003 567.979,298.141ZM567.979,296.112C567.979,296.251 568.091,296.362 568.229,296.362C568.366,296.362 568.479,296.251 568.479,296.112C568.479,295.975 568.366,295.862 568.229,295.862C568.091,295.862 567.979,295.975 567.979,296.112ZM567.979,294.085C567.979,294.223 568.091,294.335 568.229,294.335C568.366,294.335 568.479,294.223 568.479,294.085C568.479,293.946 568.366,293.835 568.229,293.835C568.091,293.835 567.979,293.946 567.979,294.085ZM567.979,292.057C567.979,292.194 568.091,292.307 568.229,292.307C568.366,292.307 568.479,292.194 568.479,292.057C568.479,291.918 568.366,291.807 568.229,291.807C568.091,291.807 567.979,291.918 567.979,292.057ZM567.979,290.028C567.979,290.166 568.091,290.278 568.229,290.278C568.366,290.278 568.479,290.166 568.479,290.028C568.479,289.89 568.366,289.778 568.229,289.778C568.091,289.778 567.979,289.89 567.979,290.028ZM567.979,288C567.979,288.138 568.091,288.25 568.229,288.25C568.366,288.25 568.479,288.138 568.479,288C568.479,287.862 568.366,287.75 568.229,287.75C568.091,287.75 567.979,287.862 567.979,288ZM567.979,285.972C567.979,286.11 568.091,286.222 568.229,286.222C568.366,286.222 568.479,286.11 568.479,285.972C568.479,285.834 568.366,285.722 568.229,285.722C568.091,285.722 567.979,285.834 567.979,285.972ZM567.979,283.943C567.979,284.082 568.091,284.193 568.229,284.193C568.366,284.193 568.479,284.082 568.479,283.943C568.479,283.806 568.366,283.693 568.229,283.693C568.091,283.693 567.979,283.806 567.979,283.943ZM567.979,281.915C567.979,282.054 568.091,282.165 568.229,282.165C568.366,282.165 568.479,282.054 568.479,281.915C568.479,281.777 568.366,281.665 568.229,281.665C568.091,281.665 567.979,281.777 567.979,281.915ZM567.979,279.888C567.979,280.025 568.091,280.138 568.229,280.138C568.366,280.138 568.479,280.025 568.479,279.888C568.479,279.749 568.366,279.638 568.229,279.638C568.091,279.638 567.979,279.749 567.979,279.888ZM567.979,277.859C567.979,277.997 568.091,278.109 568.229,278.109C568.366,278.109 568.479,277.997 568.479,277.859C568.479,277.721 568.366,277.609 568.229,277.609C568.091,277.609 567.979,277.721 567.979,277.859ZM567.979,275.831C567.979,275.969 568.091,276.081 568.229,276.081C568.366,276.081 568.479,275.969 568.479,275.831C568.479,275.693 568.366,275.581 568.229,275.581C568.091,275.581 567.979,275.693 567.979,275.831ZM567.979,273.803C567.979,273.94 568.091,274.053 568.229,274.053C568.366,274.053 568.479,273.94 568.479,273.803C568.479,273.665 568.366,273.553 568.229,273.553C568.091,273.553 567.979,273.665 567.979,273.803ZM567.979,271.774C567.979,271.913 568.091,272.024 568.229,272.024C568.366,272.024 568.479,271.913 568.479,271.774C568.479,271.637 568.366,271.524 568.229,271.524C568.091,271.524 567.979,271.637 567.979,271.774ZM567.979,269.746C567.979,269.885 568.091,269.996 568.229,269.996C568.366,269.996 568.479,269.885 568.479,269.746C568.479,269.608 568.366,269.496 568.229,269.496C568.091,269.496 567.979,269.608 567.979,269.746ZM566.422,290.028C566.422,289.89 566.31,289.778 566.172,289.778C566.033,289.778 565.922,289.89 565.922,290.028C565.922,290.166 566.033,290.278 566.172,290.278C566.31,290.278 566.422,290.166 566.422,290.028ZM566.422,292.057C566.422,291.918 566.31,291.807 566.172,291.807C566.033,291.807 565.922,291.918 565.922,292.057C565.922,292.194 566.033,292.307 566.172,292.307C566.31,292.307 566.422,292.194 566.422,292.057ZM566.422,294.085C566.422,293.946 566.31,293.835 566.172,293.835C566.033,293.835 565.922,293.946 565.922,294.085C565.922,294.223 566.033,294.335 566.172,294.335C566.31,294.335 566.422,294.223 566.422,294.085ZM566.422,296.112C566.422,295.975 566.31,295.862 566.172,295.862C566.033,295.862 565.922,295.975 565.922,296.112C565.922,296.251 566.033,296.362 566.172,296.362C566.31,296.362 566.422,296.251 566.422,296.112ZM566.422,298.141C566.422,298.003 566.31,297.891 566.172,297.891C566.033,297.891 565.922,298.003 565.922,298.141C565.922,298.279 566.033,298.391 566.172,298.391C566.31,298.391 566.422,298.279 566.422,298.141ZM566.422,300.169C566.422,300.031 566.31,299.919 566.172,299.919C566.033,299.919 565.922,300.031 565.922,300.169C565.922,300.307 566.033,300.419 566.172,300.419C566.31,300.419 566.422,300.307 566.422,300.169ZM566.422,302.197C566.422,302.06 566.31,301.947 566.172,301.947C566.033,301.947 565.922,302.06 565.922,302.197C565.922,302.335 566.033,302.447 566.172,302.447C566.31,302.447 566.422,302.335 566.422,302.197ZM566.422,304.226C566.422,304.087 566.31,303.976 566.172,303.976C566.033,303.976 565.922,304.087 565.922,304.226C565.922,304.363 566.033,304.476 566.172,304.476C566.31,304.476 566.422,304.363 566.422,304.226ZM566.422,306.254C566.422,306.115 566.31,306.004 566.172,306.004C566.033,306.004 565.922,306.115 565.922,306.254C565.922,306.392 566.033,306.504 566.172,306.504C566.31,306.504 566.422,306.392 566.422,306.254ZM564.364,294.085C564.364,293.946 564.252,293.835 564.114,293.835C563.977,293.835 563.864,293.946 563.864,294.085C563.864,294.223 563.977,294.335 564.114,294.335C564.252,294.335 564.364,294.223 564.364,294.085ZM564.364,296.112C564.364,295.975 564.252,295.862 564.114,295.862C563.977,295.862 563.864,295.975 563.864,296.112C563.864,296.251 563.977,296.362 564.114,296.362C564.252,296.362 564.364,296.251 564.364,296.112ZM564.364,298.141C564.364,298.003 564.252,297.891 564.114,297.891C563.977,297.891 563.864,298.003 563.864,298.141C563.864,298.279 563.977,298.391 564.114,298.391C564.252,298.391 564.364,298.279 564.364,298.141ZM564.364,300.169C564.364,300.031 564.252,299.919 564.114,299.919C563.977,299.919 563.864,300.031 563.864,300.169C563.864,300.307 563.977,300.419 564.114,300.419C564.252,300.419 564.364,300.307 564.364,300.169ZM564.364,302.197C564.364,302.06 564.252,301.947 564.114,301.947C563.977,301.947 563.864,302.06 563.864,302.197C563.864,302.335 563.977,302.447 564.114,302.447C564.252,302.447 564.364,302.335 564.364,302.197ZM564.364,304.226C564.364,304.087 564.252,303.976 564.114,303.976C563.977,303.976 563.864,304.087 563.864,304.226C563.864,304.363 563.977,304.476 564.114,304.476C564.252,304.476 564.364,304.363 564.364,304.226ZM564.364,306.254C564.364,306.115 564.252,306.004 564.114,306.004C563.977,306.004 563.864,306.115 563.864,306.254C563.864,306.392 563.977,306.504 564.114,306.504C564.252,306.504 564.364,306.392 564.364,306.254ZM562.308,294.085C562.308,293.946 562.195,293.835 562.058,293.835C561.919,293.835 561.808,293.946 561.808,294.085C561.808,294.223 561.919,294.335 562.058,294.335C562.195,294.335 562.308,294.223 562.308,294.085ZM562.308,296.112C562.308,295.975 562.195,295.862 562.058,295.862C561.919,295.862 561.808,295.975 561.808,296.112C561.808,296.251 561.919,296.362 562.058,296.362C562.195,296.362 562.308,296.251 562.308,296.112ZM562.308,298.141C562.308,298.003 562.195,297.891 562.058,297.891C561.919,297.891 561.808,298.003 561.808,298.141C561.808,298.279 561.919,298.391 562.058,298.391C562.195,298.391 562.308,298.279 562.308,298.141ZM562.308,300.169C562.308,300.031 562.195,299.919 562.058,299.919C561.919,299.919 561.808,300.031 561.808,300.169C561.808,300.307 561.919,300.419 562.058,300.419C562.195,300.419 562.308,300.307 562.308,300.169ZM562.308,302.197C562.308,302.06 562.195,301.947 562.058,301.947C561.919,301.947 561.808,302.06 561.808,302.197C561.808,302.335 561.919,302.447 562.058,302.447C562.195,302.447 562.308,302.335 562.308,302.197ZM562.308,304.226C562.308,304.087 562.195,303.976 562.058,303.976C561.919,303.976 561.808,304.087 561.808,304.226C561.808,304.363 561.919,304.476 562.058,304.476C562.195,304.476 562.308,304.363 562.308,304.226ZM562.308,306.254C562.308,306.115 562.195,306.004 562.058,306.004C561.919,306.004 561.808,306.115 561.808,306.254C561.808,306.392 561.919,306.504 562.058,306.504C562.195,306.504 562.308,306.392 562.308,306.254ZM560.25,296.112C560.25,295.975 560.138,295.862 560,295.862C559.862,295.862 559.75,295.975 559.75,296.112C559.75,296.251 559.862,296.362 560,296.362C560.138,296.362 560.25,296.251 560.25,296.112ZM560.25,298.141C560.25,298.003 560.138,297.891 560,297.891C559.862,297.891 559.75,298.003 559.75,298.141C559.75,298.279 559.862,298.391 560,298.391C560.138,298.391 560.25,298.279 560.25,298.141ZM560.25,300.169C560.25,300.031 560.138,299.919 560,299.919C559.862,299.919 559.75,300.031 559.75,300.169C559.75,300.307 559.862,300.419 560,300.419C560.138,300.419 560.25,300.307 560.25,300.169ZM560.25,302.197C560.25,302.06 560.138,301.947 560,301.947C559.862,301.947 559.75,302.06 559.75,302.197C559.75,302.335 559.862,302.447 560,302.447C560.138,302.447 560.25,302.335 560.25,302.197ZM560.25,304.226C560.25,304.087 560.138,303.976 560,303.976C559.862,303.976 559.75,304.087 559.75,304.226C559.75,304.363 559.862,304.476 560,304.476C560.138,304.476 560.25,304.363 560.25,304.226ZM560.25,306.254C560.25,306.115 560.138,306.004 560,306.004C559.862,306.004 559.75,306.115 559.75,306.254C559.75,306.392 559.862,306.504 560,306.504C560.138,306.504 560.25,306.392 560.25,306.254ZM558.192,294.085C558.192,293.946 558.081,293.835 557.942,293.835C557.805,293.835 557.692,293.946 557.692,294.085C557.692,294.223 557.805,294.335 557.942,294.335C558.081,294.335 558.192,294.223 558.192,294.085ZM558.192,296.112C558.192,295.975 558.081,295.862 557.942,295.862C557.805,295.862 557.692,295.975 557.692,296.112C557.692,296.251 557.805,296.362 557.942,296.362C558.081,296.362 558.192,296.251 558.192,296.112ZM558.192,298.141C558.192,298.003 558.081,297.891 557.942,297.891C557.805,297.891 557.692,298.003 557.692,298.141C557.692,298.279 557.805,298.391 557.942,298.391C558.081,298.391 558.192,298.279 558.192,298.141ZM558.192,300.169C558.192,300.031 558.081,299.919 557.942,299.919C557.805,299.919 557.692,300.031 557.692,300.169C557.692,300.307 557.805,300.419 557.942,300.419C558.081,300.419 558.192,300.307 558.192,300.169ZM558.192,302.197C558.192,302.06 558.081,301.947 557.942,301.947C557.805,301.947 557.692,302.06 557.692,302.197C557.692,302.335 557.805,302.447 557.942,302.447C558.081,302.447 558.192,302.335 558.192,302.197ZM558.192,304.226C558.192,304.087 558.081,303.976 557.942,303.976C557.805,303.976 557.692,304.087 557.692,304.226C557.692,304.363 557.805,304.476 557.942,304.476C558.081,304.476 558.192,304.363 558.192,304.226ZM558.192,306.254C558.192,306.115 558.081,306.004 557.942,306.004C557.805,306.004 557.692,306.115 557.692,306.254C557.692,306.392 557.805,306.504 557.942,306.504C558.081,306.504 558.192,306.392 558.192,306.254ZM556.136,294.085C556.136,293.946 556.023,293.835 555.886,293.835C555.748,293.835 555.636,293.946 555.636,294.085C555.636,294.223 555.748,294.335 555.886,294.335C556.023,294.335 556.136,294.223 556.136,294.085ZM556.136,296.112C556.136,295.975 556.023,295.862 555.886,295.862C555.748,295.862 555.636,295.975 555.636,296.112C555.636,296.251 555.748,296.362 555.886,296.362C556.023,296.362 556.136,296.251 556.136,296.112ZM556.136,298.141C556.136,298.003 556.023,297.891 555.886,297.891C555.748,297.891 555.636,298.003 555.636,298.141C555.636,298.279 555.748,298.391 555.886,298.391C556.023,298.391 556.136,298.279 556.136,298.141ZM556.136,300.169C556.136,300.031 556.023,299.919 555.886,299.919C555.748,299.919 555.636,300.031 555.636,300.169C555.636,300.307 555.748,300.419 555.886,300.419C556.023,300.419 556.136,300.307 556.136,300.169ZM556.136,302.197C556.136,302.06 556.023,301.947 555.886,301.947C555.748,301.947 555.636,302.06 555.636,302.197C555.636,302.335 555.748,302.447 555.886,302.447C556.023,302.447 556.136,302.335 556.136,302.197ZM556.136,304.226C556.136,304.087 556.023,303.976 555.886,303.976C555.748,303.976 555.636,304.087 555.636,304.226C555.636,304.363 555.748,304.476 555.886,304.476C556.023,304.476 556.136,304.363 556.136,304.226ZM556.136,306.254C556.136,306.115 556.023,306.004 555.886,306.004C555.748,306.004 555.636,306.115 555.636,306.254C555.636,306.392 555.748,306.504 555.886,306.504C556.023,306.504 556.136,306.392 556.136,306.254ZM554.078,290.028C554.078,289.89 553.967,289.778 553.828,289.778C553.69,289.778 553.578,289.89 553.578,290.028C553.578,290.166 553.69,290.278 553.828,290.278C553.967,290.278 554.078,290.166 554.078,290.028ZM554.078,292.057C554.078,291.918 553.967,291.807 553.828,291.807C553.69,291.807 553.578,291.918 553.578,292.057C553.578,292.194 553.69,292.307 553.828,292.307C553.967,292.307 554.078,292.194 554.078,292.057ZM554.078,294.085C554.078,293.946 553.967,293.835 553.828,293.835C553.69,293.835 553.578,293.946 553.578,294.085C553.578,294.223 553.69,294.335 553.828,294.335C553.967,294.335 554.078,294.223 554.078,294.085ZM554.078,296.112C554.078,295.975 553.967,295.862 553.828,295.862C553.69,295.862 553.578,295.975 553.578,296.112C553.578,296.251 553.69,296.362 553.828,296.362C553.967,296.362 554.078,296.251 554.078,296.112ZM554.078,298.141C554.078,298.003 553.967,297.891 553.828,297.891C553.69,297.891 553.578,298.003 553.578,298.141C553.578,298.279 553.69,298.391 553.828,298.391C553.967,298.391 554.078,298.279 554.078,298.141ZM554.078,300.169C554.078,300.031 553.967,299.919 553.828,299.919C553.69,299.919 553.578,300.031 553.578,300.169C553.578,300.307 553.69,300.419 553.828,300.419C553.967,300.419 554.078,300.307 554.078,300.169ZM554.078,302.197C554.078,302.06 553.967,301.947 553.828,301.947C553.69,301.947 553.578,302.06 553.578,302.197C553.578,302.335 553.69,302.447 553.828,302.447C553.967,302.447 554.078,302.335 554.078,302.197ZM554.078,304.226C554.078,304.087 553.967,303.976 553.828,303.976C553.69,303.976 553.578,304.087 553.578,304.226C553.578,304.363 553.69,304.476 553.828,304.476C553.967,304.476 554.078,304.363 554.078,304.226ZM554.078,306.254C554.078,306.115 553.967,306.004 553.828,306.004C553.69,306.004 553.578,306.115 553.578,306.254C553.578,306.392 553.69,306.504 553.828,306.504C553.967,306.504 554.078,306.392 554.078,306.254ZM570.036,304.226C570.036,304.363 570.147,304.476 570.286,304.476C570.424,304.476 570.536,304.363 570.536,304.226C570.536,304.087 570.424,303.976 570.286,303.976C570.147,303.976 570.036,304.087 570.036,304.226ZM570.036,302.197C570.036,302.335 570.147,302.447 570.286,302.447C570.424,302.447 570.536,302.335 570.536,302.197C570.536,302.06 570.424,301.947 570.286,301.947C570.147,301.947 570.036,302.06 570.036,302.197ZM570.036,300.169C570.036,300.307 570.147,300.419 570.286,300.419C570.424,300.419 570.536,300.307 570.536,300.169C570.536,300.031 570.424,299.919 570.286,299.919C570.147,299.919 570.036,300.031 570.036,300.169ZM570.036,298.141C570.036,298.279 570.147,298.391 570.286,298.391C570.424,298.391 570.536,298.279 570.536,298.141C570.536,298.003 570.424,297.891 570.286,297.891C570.147,297.891 570.036,298.003 570.036,298.141ZM570.036,296.112C570.036,296.251 570.147,296.362 570.286,296.362C570.424,296.362 570.536,296.251 570.536,296.112C570.536,295.975 570.424,295.862 570.286,295.862C570.147,295.862 570.036,295.975 570.036,296.112ZM570.036,294.085C570.036,294.223 570.147,294.335 570.286,294.335C570.424,294.335 570.536,294.223 570.536,294.085C570.536,293.946 570.424,293.835 570.286,293.835C570.147,293.835 570.036,293.946 570.036,294.085ZM570.036,292.057C570.036,292.194 570.147,292.307 570.286,292.307C570.424,292.307 570.536,292.194 570.536,292.057C570.536,291.918 570.424,291.807 570.286,291.807C570.147,291.807 570.036,291.918 570.036,292.057ZM570.036,290.028C570.036,290.166 570.147,290.278 570.286,290.278C570.424,290.278 570.536,290.166 570.536,290.028C570.536,289.89 570.424,289.778 570.286,289.778C570.147,289.778 570.036,289.89 570.036,290.028ZM570.036,288C570.036,288.138 570.147,288.25 570.286,288.25C570.424,288.25 570.536,288.138 570.536,288C570.536,287.862 570.424,287.75 570.286,287.75C570.147,287.75 570.036,287.862 570.036,288ZM570.036,285.972C570.036,286.11 570.147,286.222 570.286,286.222C570.424,286.222 570.536,286.11 570.536,285.972C570.536,285.834 570.424,285.722 570.286,285.722C570.147,285.722 570.036,285.834 570.036,285.972ZM570.036,283.943C570.036,284.082 570.147,284.193 570.286,284.193C570.424,284.193 570.536,284.082 570.536,283.943C570.536,283.806 570.424,283.693 570.286,283.693C570.147,283.693 570.036,283.806 570.036,283.943ZM570.036,281.915C570.036,282.054 570.147,282.165 570.286,282.165C570.424,282.165 570.536,282.054 570.536,281.915C570.536,281.777 570.424,281.665 570.286,281.665C570.147,281.665 570.036,281.777 570.036,281.915ZM570.036,279.888C570.036,280.025 570.147,280.138 570.286,280.138C570.424,280.138 570.536,280.025 570.536,279.888C570.536,279.749 570.424,279.638 570.286,279.638C570.147,279.638 570.036,279.749 570.036,279.888ZM570.036,277.859C570.036,277.997 570.147,278.109 570.286,278.109C570.424,278.109 570.536,277.997 570.536,277.859C570.536,277.721 570.424,277.609 570.286,277.609C570.147,277.609 570.036,277.721 570.036,277.859ZM570.036,275.831C570.036,275.969 570.147,276.081 570.286,276.081C570.424,276.081 570.536,275.969 570.536,275.831C570.536,275.693 570.424,275.581 570.286,275.581C570.147,275.581 570.036,275.693 570.036,275.831ZM570.036,273.803C570.036,273.94 570.147,274.053 570.286,274.053C570.424,274.053 570.536,273.94 570.536,273.803C570.536,273.665 570.424,273.553 570.286,273.553C570.147,273.553 570.036,273.665 570.036,273.803ZM570.036,271.774C570.036,271.913 570.147,272.024 570.286,272.024C570.424,272.024 570.536,271.913 570.536,271.774C570.536,271.637 570.424,271.524 570.286,271.524C570.147,271.524 570.036,271.637 570.036,271.774ZM548.5,305.275L548.5,270.725C549.678,270.605 550.605,269.678 550.725,268.5L569.275,268.5C569.395,269.678 570.322,270.605 571.5,270.725L571.5,305.275C570.322,305.395 569.395,306.322 569.275,307.5L550.725,307.5C550.605,306.322 549.678,305.395 548.5,305.275ZM554.881,288C554.745,287.579 554.651,287.179 554.59,286.796C554.163,287.168 553.73,287.566 553.29,288C553.73,288.434 554.163,288.832 554.59,289.204C554.651,288.82 554.745,288.421 554.881,288ZM561.529,289.883L561.541,290.051C561.542,290.926 561.189,291.854 560.445,292.719C560.859,292.836 561.246,292.911 561.608,292.947C562.096,292.364 562.52,291.798 562.895,291.248L561.529,289.883ZM566.71,288C566.27,287.566 565.837,287.168 565.41,286.796C565.349,287.179 565.255,287.579 565.119,288C565.255,288.421 565.349,288.82 565.41,289.204C565.837,288.832 566.27,288.434 566.71,288ZM558.796,293.41C559.168,293.836 559.566,294.27 560,294.71C560.434,294.27 560.832,293.836 561.204,293.41C560.821,293.349 560.421,293.255 560,293.119C559.579,293.255 559.179,293.349 558.796,293.41ZM564.99,285.786C564.974,284.904 564.707,284.224 564.242,283.758C563.776,283.292 563.096,283.026 562.214,283.009C562.653,283.552 563.054,284.084 563.4,284.6C563.916,284.946 564.448,285.347 564.99,285.786ZM563.4,291.399C563.916,291.054 564.448,290.653 564.99,290.214C564.974,291.096 564.708,291.776 564.242,292.242C563.776,292.707 563.096,292.974 562.214,292.99C562.653,292.448 563.054,291.916 563.4,291.399Z" style="fill:rgb(201,49,18);fill-rule:nonzero;"/>
        </g>
    </g>
</svg>
